<?xml version="1.0" encoding="UTF-8"?>
<svg width="303px" height="212px" viewBox="0 0 303 212" version="1.1" xmlns="http://www.w3.org/2000/svg" xmlns:xlink="http://www.w3.org/1999/xlink">
    <!-- Generator: Sketch 3.8.3 (29802) - http://www.bohemiancoding.com/sketch -->
    <title>average_deep</title>
    <desc>Created with Sketch.</desc>
    <defs></defs>
    <g id="new" stroke="none" stroke-width="1" fill="none" fill-rule="evenodd">
        <g id="average_deep" transform="translate(-1.000000, 0.000000)">
            <path d="M17.907959,65.2524414 L21.3693848,65.2524414 C24.075453,65.2524414 26.0925227,64.6049869 27.4206543,63.3100586 C28.7487859,62.0151302 29.4128418,60.3051864 29.4128418,58.1801758 C29.4128418,55.8725471 28.7861391,54.0588445 27.5327148,52.7390137 C26.2792906,51.4191829 24.3659797,50.7592773 21.7927246,50.7592773 C19.4186893,50.7592773 17.501228,51.4316339 16.0402832,52.7763672 C14.5793384,54.1211005 13.848877,55.9389534 13.848877,58.2299805 L10.8605957,58.2299805 C10.8605957,55.2748876 11.8774312,52.8676851 13.9111328,51.0083008 C15.9448344,49.1489165 18.5720054,48.2192383 21.7927246,48.2192383 C25.0964521,48.2192383 27.6904203,49.0908116 29.574707,50.8339844 C31.4589938,52.5771572 32.401123,55.0590659 32.401123,58.2797852 C32.401123,60.0229579 31.8823294,61.629143 30.8447266,63.0983887 C29.8071237,64.5676343 28.3171484,65.6591761 26.3747559,66.3730469 L26.3747559,66.4477539 C28.6491813,67.0952181 30.334223,68.1743089 31.4299316,69.6850586 C32.5256402,71.1958083 33.0734863,73.0219619 33.0734863,75.1635742 C33.0734863,78.4507 32.0483501,80.9990144 29.9980469,82.8085938 C27.9477437,84.6181731 25.2541671,85.5229492 21.9172363,85.5229492 C18.6799155,85.5229492 15.9365347,84.6306242 13.6870117,82.8459473 C11.4374888,81.0612704 10.3127441,78.500505 10.3127441,75.1635742 L13.3010254,75.1635742 C13.3010254,77.5210079 14.0895917,79.4177174 15.666748,80.8537598 C17.2439044,82.2898021 19.3273796,83.0078125 21.9172363,83.0078125 C24.5402963,83.0078125 26.5615163,82.3520573 27.980957,81.0405273 C29.4003977,79.7289973 30.1101074,77.8032354 30.1101074,75.2631836 C30.1101074,72.6567252 29.3713453,70.7600157 27.8937988,69.572998 C26.4162524,68.3859804 24.2414694,67.7924805 21.3693848,67.7924805 L17.907959,67.7924805 L17.907959,65.2524414 Z M62.0598145,85 L39.5480957,85 L39.5480957,82.7089844 L51.4265137,69.2368164 C53.6677358,66.7133663 55.2282671,64.6381917 56.1081543,63.0112305 C56.9880415,61.3842692 57.4279785,59.7905351 57.4279785,58.2299805 C57.4279785,55.9389534 56.8012758,54.1211005 55.5478516,52.7763672 C54.2944273,51.4316339 52.4890255,50.7592773 50.1315918,50.7592773 C47.3259137,50.7592773 45.2216867,51.5104905 43.8188477,53.0129395 C42.4160086,54.5153884 41.7145996,56.5698112 41.7145996,59.1762695 L38.7512207,59.1762695 C38.7512207,56.0219569 39.7556052,53.4072369 41.7644043,51.3320312 C43.7732034,49.2568256 46.562238,48.2192383 50.1315918,48.2192383 C53.3025061,48.2192383 55.8134673,49.1032626 57.6645508,50.8713379 C59.5156343,52.6394131 60.4411621,55.0590667 60.4411621,58.1303711 C60.4411621,60.1557718 59.8269104,62.1686912 58.5983887,64.1691895 C57.3698669,66.1696877 55.6101189,68.4648308 53.3190918,71.0546875 L43.2087402,82.4848633 L62.0598145,82.4848633 L62.0598145,85 Z M89.701416,70.9301758 C89.701416,75.7280513 88.7468357,79.3596068 86.8376465,81.8249512 C84.9284573,84.2902955 82.1726254,85.5229492 78.5700684,85.5229492 C74.9841129,85.5229492 72.2199804,84.2861452 70.2775879,81.8125 C68.3351954,79.3388548 67.3640137,75.7114497 67.3640137,70.9301758 L67.3640137,62.8369141 C67.3640137,58.0722418 68.3268947,54.4448367 70.2526855,51.9545898 C72.1784764,49.464343 74.9343082,48.2192383 78.5202637,48.2192383 C82.1062191,48.2192383 84.8662013,49.464343 86.800293,51.9545898 C88.7343847,54.4448367 89.701416,58.0722418 89.701416,62.8369141 L89.701416,70.9301758 Z M86.7131348,62.3388672 C86.7131348,58.5370904 86.0324775,55.6567481 84.6711426,53.6977539 C83.3098076,51.7387597 81.2595352,50.7592773 78.5202637,50.7592773 C75.7809922,50.7592773 73.73487,51.7387597 72.3818359,53.6977539 C71.0288018,55.6567481 70.3522949,58.5370904 70.3522949,62.3388672 L70.3522949,71.378418 C70.3522949,75.1469915 71.0371025,78.0273338 72.4067383,80.0195312 C73.776374,82.0117287 75.8307969,83.0078125 78.5700684,83.0078125 C81.2927382,83.0078125 83.3305596,82.0158791 84.6835938,80.0319824 C86.0366279,78.0480858 86.7131348,75.1635931 86.7131348,71.378418 L86.7131348,62.3388672 Z M117.965576,70.9301758 C117.965576,75.7280513 117.010996,79.3596068 115.101807,81.8249512 C113.192617,84.2902955 110.436786,85.5229492 106.834229,85.5229492 C103.248273,85.5229492 100.484141,84.2861452 98.541748,81.8125 C96.5993555,79.3388548 95.6281738,75.7114497 95.6281738,70.9301758 L95.6281738,62.8369141 C95.6281738,58.0722418 96.5910548,54.4448367 98.5168457,51.9545898 C100.442637,49.464343 103.198468,48.2192383 106.784424,48.2192383 C110.370379,48.2192383 113.130361,49.464343 115.064453,51.9545898 C116.998545,54.4448367 117.965576,58.0722418 117.965576,62.8369141 L117.965576,70.9301758 Z M114.977295,62.3388672 C114.977295,58.5370904 114.296638,55.6567481 112.935303,53.6977539 C111.573968,51.7387597 109.523695,50.7592773 106.784424,50.7592773 C104.045152,50.7592773 101.99903,51.7387597 100.645996,53.6977539 C99.292962,55.6567481 98.6164551,58.5370904 98.6164551,62.3388672 L98.6164551,71.378418 C98.6164551,75.1469915 99.3012627,78.0273338 100.670898,80.0195312 C102.040534,82.0117287 104.094957,83.0078125 106.834229,83.0078125 C109.556898,83.0078125 111.59472,82.0158791 112.947754,80.0319824 C114.300788,78.0480858 114.977295,75.1635931 114.977295,71.378418 L114.977295,62.3388672 Z M152.131592,80.9658203 L162.8396,58.0556641 L166.525146,58.0556641 L166.525146,85 L163.536865,85 L163.536865,63.0610352 L163.462158,63.0361328 L153.17749,85 L151.060791,85 L140.576904,62.5380859 L140.502197,62.5629883 L140.502197,85 L137.538818,85 L137.538818,58.0556641 L141.448486,58.0556641 L152.131592,80.9658203 Z M184.927979,85.4980469 C181.342023,85.4980469 178.440929,84.2819946 176.224609,81.8498535 C174.00829,79.4177124 172.900146,76.2426954 172.900146,72.324707 L172.900146,70.9550781 C172.900146,67.0204881 173.999989,63.8039676 176.199707,61.3054199 C178.399425,58.8068723 181.101302,57.5576172 184.30542,57.5576172 C187.675554,57.5576172 190.286124,58.5827534 192.137207,60.6330566 C193.988291,62.6833599 194.913818,65.4931462 194.913818,69.0625 L194.913818,71.6025391 L175.888428,71.6025391 L175.888428,72.324707 C175.888428,75.4126131 176.710197,77.9609275 178.35376,79.9697266 C179.997323,81.9785257 182.188707,82.9829102 184.927979,82.9829102 C186.571541,82.9829102 188.011713,82.7463403 189.248535,82.2731934 C190.485358,81.8000465 191.659907,81.0488333 192.772217,80.0195312 L194.042236,82.0615234 C193.029536,83.1240288 191.792732,83.9623993 190.331787,84.5766602 C188.870842,85.190921 187.069591,85.4980469 184.927979,85.4980469 L184.927979,85.4980469 Z M184.30542,60.0976562 C182.064198,60.0976562 180.200691,60.9318764 178.714844,62.6003418 C177.228996,64.2688072 176.32007,66.4311391 175.988037,69.0874023 L191.950439,69.0874023 L191.950439,68.340332 C191.950439,65.9496951 191.278083,63.9782792 189.93335,62.4260254 C188.588616,60.8737715 186.712659,60.0976562 184.30542,60.0976562 L184.30542,60.0976562 Z M219.841064,60.5957031 L210.029541,60.5957031 L210.029541,85 L207.04126,85 L207.04126,60.5957031 L197.603271,60.5957031 L197.603271,58.0556641 L219.841064,58.0556641 L219.841064,60.5957031 Z M246.46167,72.2749023 C246.46167,76.3755088 245.565195,79.6044804 243.772217,81.9619141 C241.979239,84.3193477 239.447526,85.4980469 236.177002,85.4980469 C234.251211,85.4980469 232.595222,85.1535679 231.208984,84.4645996 C229.822747,83.7756313 228.689702,82.7753972 227.809814,81.4638672 L227.735107,81.4887695 L227.735107,95.359375 L224.746826,95.359375 L224.746826,58.0556641 L227.261963,58.0556641 L227.635498,62.1147461 L227.685303,62.1396484 C228.581792,60.662102 229.723138,59.5290567 231.109375,58.7404785 C232.495612,57.9519004 234.168203,57.5576172 236.127197,57.5576172 C239.430925,57.5576172 241.979239,58.8234737 243.772217,61.3552246 C245.565195,63.8869755 246.46167,67.3525171 246.46167,71.7519531 L246.46167,72.2749023 Z M243.473389,71.7519531 C243.473389,68.2656076 242.805182,65.4599716 241.46875,63.3349609 C240.132318,61.2099503 238.127699,60.1474609 235.454834,60.1474609 C233.412832,60.1474609 231.777594,60.6164504 230.549072,61.5544434 C229.32055,62.4924363 228.382572,63.7416914 227.735107,65.3022461 L227.735107,78.2265625 C228.432377,79.7373122 229.411859,80.9077107 230.673584,81.737793 C231.935309,82.5678752 233.545645,82.9829102 235.504639,82.9829102 C238.160902,82.9829102 240.15307,82.0241795 241.481201,80.1066895 C242.809333,78.1891994 243.473389,75.5786298 243.473389,72.2749023 L243.473389,71.7519531 Z M251.491943,71.1293945 C251.491943,67.078593 252.562733,63.8039676 254.704346,61.3054199 C256.845958,58.8068723 259.742902,57.5576172 263.395264,57.5576172 C267.064227,57.5576172 269.969472,58.8068723 272.111084,61.3054199 C274.252696,63.8039676 275.323486,67.078593 275.323486,71.1293945 L275.323486,71.9511719 C275.323486,76.018575 274.256847,79.2932005 272.123535,81.7751465 C269.990224,84.2570925 267.09743,85.4980469 263.445068,85.4980469 C259.759503,85.4980469 256.845958,84.2570925 254.704346,81.7751465 C252.562733,79.2932005 251.491943,76.018575 251.491943,71.9511719 L251.491943,71.1293945 Z M254.480225,71.9511719 C254.480225,75.1386878 255.25634,77.7741595 256.808594,79.857666 C258.360848,81.9411725 260.572984,82.9829102 263.445068,82.9829102 C266.28395,82.9829102 268.479484,81.9411725 270.031738,79.857666 C271.583992,77.7741595 272.360107,75.1386878 272.360107,71.9511719 L272.360107,71.1293945 C272.360107,68.0082852 271.575691,65.3894149 270.006836,63.2727051 C268.43798,61.1559953 266.234145,60.0976562 263.395264,60.0976562 C260.539781,60.0976562 258.340096,61.1559953 256.796143,63.2727051 C255.25219,65.3894149 254.480225,68.0082852 254.480225,71.1293945 L254.480225,71.9511719 Z M281.822998,85 L281.822998,58.0556641 L291.709229,58.0556641 C295.129167,58.0556641 297.752188,58.6450136 299.578369,59.8237305 C301.40455,61.0024473 302.317627,62.8119995 302.317627,65.2524414 C302.317627,66.6469796 301.915043,67.8588816 301.109863,68.8881836 C300.304683,69.9174856 299.163337,70.6562478 297.685791,71.1044922 L297.685791,71.1791992 C299.412362,71.4946305 300.794428,72.237543 301.832031,73.407959 C302.869634,74.578375 303.388428,75.9521406 303.388428,77.5292969 C303.388428,80.0195437 302.512704,81.8872008 300.76123,83.1323242 C299.009757,84.3774476 296.565201,85 293.42749,85 L281.822998,85 Z M284.786377,72.5986328 L284.786377,82.5097656 L293.42749,82.5097656 C295.701916,82.5097656 297.436762,82.08643 298.63208,81.2397461 C299.827399,80.3930622 300.425049,79.1396567 300.425049,77.4794922 C300.425049,75.9521408 299.819098,74.7568403 298.607178,73.8935547 C297.395258,73.0302691 295.668712,72.5986328 293.42749,72.5986328 L284.786377,72.5986328 Z M284.786377,70.1083984 L292.331787,70.1083984 C294.672619,70.0751951 296.428217,69.6643106 297.598633,68.8757324 C298.769049,68.0871543 299.354248,66.9043048 299.354248,65.3271484 C299.354248,63.7001872 298.723395,62.5048866 297.46167,61.7412109 C296.199945,60.9775352 294.282484,60.5957031 291.709229,60.5957031 L284.786377,60.5957031 L284.786377,70.1083984 Z" id="3200-метров" fill="#4A90E2"></path>
            <rect id="Rectangle-29" fill="#4A90E2" x="9" y="0" width="295" height="40"></rect>
            <path d="M23.3857422,25.5512695 C24.1569049,25.5512695 24.8251111,25.3266624 25.3903809,24.8774414 C25.9556506,24.4282204 26.2420247,23.8592157 26.2495117,23.1704102 L28.2260742,23.1704102 C28.2185872,24.2784886 27.7375536,25.2311972 26.782959,26.0285645 C25.8283644,26.8259317 24.6959701,27.2246094 23.3857422,27.2246094 C21.6038322,27.2246094 20.2561895,26.6574764 19.3427734,25.5231934 C18.4293574,24.3889103 17.9726562,22.9345792 17.9726562,21.1601562 L17.9726562,20.6884766 C17.9726562,18.9215406 18.4293574,17.4690812 19.3427734,16.3310547 C20.2561895,15.1930282 21.6038322,14.6240234 23.3857422,14.6240234 C24.8157624,14.6240234 25.9781043,15.0358032 26.8728027,15.859375 C27.7675012,16.6829468 28.2185872,17.7386003 28.2260742,19.0263672 L26.2495117,19.0263672 C26.2420247,18.2477175 25.9724961,17.6001002 25.440918,17.0834961 C24.9093398,16.5668919 24.224288,16.3085938 23.3857422,16.3085938 C22.1803325,16.3085938 21.3249537,16.7259887 20.8195801,17.560791 C20.3142065,18.3955934 20.0615234,19.4381448 20.0615234,20.6884766 L20.0615234,21.1601562 C20.0615234,22.4404361 20.3123347,23.4923461 20.8139648,24.315918 C21.315595,25.1394898 22.1728455,25.5512695 23.3857422,25.5512695 L23.3857422,25.5512695 Z M40.9501953,21.3735352 C40.9501953,23.1704191 40.5402873,24.5948027 39.720459,25.6467285 C38.9006307,26.6986543 37.7382888,27.2246094 36.2333984,27.2246094 C35.4622357,27.2246094 34.7959012,27.0992037 34.234375,26.8483887 C33.6728488,26.5975736 33.1936869,26.2213567 32.796875,25.7197266 L32.7631836,25.730957 L32.7631836,31.671875 L30.6743164,31.671875 L30.6743164,14.8486328 L32.4599609,14.8486328 L32.6621094,16.3984375 C33.0664083,15.8144502 33.5568005,15.3727229 34.1333008,15.0732422 C34.7098011,14.7737615 35.3985963,14.6240234 36.199707,14.6240234 C37.7270584,14.6240234 38.9006307,15.2098737 39.720459,16.3815918 C40.5402873,17.5533099 40.9501953,19.1386619 40.9501953,21.1376953 L40.9501953,21.3735352 Z M38.8613281,21.1376953 C38.8613281,19.7076751 38.5917996,18.5528202 38.0527344,17.6730957 C37.5136692,16.7933713 36.6938532,16.3535156 35.5932617,16.3535156 C34.9119432,16.3535156 34.3410668,16.5032537 33.8806152,16.8027344 C33.4201637,17.102215 33.0476902,17.5139948 32.7631836,18.0380859 L32.7631836,23.9003906 C33.0626643,24.4319688 33.4388812,24.8400051 33.8918457,25.1245117 C34.3448102,25.4090183 34.9194301,25.5512695 35.6157227,25.5512695 C36.7088271,25.5512695 37.5230279,25.1713091 38.0583496,24.411377 C38.5936713,23.6514448 38.8613281,22.638841 38.8613281,21.3735352 L38.8613281,21.1376953 Z M48.6992188,27.2246094 C46.992179,27.2246094 45.6445362,26.6724502 44.65625,25.5681152 C43.6679638,24.4637803 43.1738281,22.9982188 43.1738281,21.1713867 L43.1738281,20.6660156 C43.1738281,18.8990797 43.6810659,17.4503637 44.6955566,16.3198242 C45.7100474,15.1892847 46.9322845,14.6240234 48.3623047,14.6240234 C50.0094483,14.6240234 51.2466593,15.1069288 52.0739746,16.0727539 C52.9012899,17.038579 53.3149414,18.3600177 53.3149414,20.0371094 L53.3149414,21.3959961 L45.2626953,21.3959961 C45.2926434,22.6388408 45.6014782,23.642086 46.189209,24.4057617 C46.7769398,25.1694374 47.6136013,25.5512695 48.6992188,25.5512695 C49.4554074,25.5512695 50.1086398,25.4464529 50.6589355,25.2368164 C51.2092313,25.0271799 51.7052387,24.7314472 52.1469727,24.3496094 L52.9667969,25.730957 C52.5250629,26.165204 51.9579299,26.5227037 51.2653809,26.8034668 C50.5728318,27.0842299 49.717453,27.2246094 48.6992188,27.2246094 L48.6992188,27.2246094 Z M48.3623047,16.3085938 C47.5761679,16.3085938 46.9117052,16.6249155 46.3688965,17.2575684 C45.8260878,17.8902213 45.4798185,18.711909 45.3300781,19.7226562 L51.2373047,19.7226562 L51.2373047,19.4306641 C51.2373047,18.5247351 50.9977237,17.7779164 50.5185547,17.1901855 C50.0393856,16.6024547 49.3206428,16.3085938 48.3623047,16.3085938 L48.3623047,16.3085938 Z M55.6621094,25.3266602 C56.2985058,24.5779585 56.7814111,23.8199094 57.1108398,23.0524902 C57.4402686,22.285071 57.6611323,21.0665774 57.7734375,19.3969727 L57.953125,14.8486328 L65.7807617,14.8486328 L65.7807617,25.3266602 L67.3417969,25.3266602 L67.3417969,30.5712891 L65.2641602,30.5712891 L65.2641602,27 L56.7851562,27 L56.7851562,30.5712891 L54.7075195,30.5712891 L54.71875,25.3266602 L55.6621094,25.3266602 Z M59.8510742,19.3969727 C59.768717,20.7970448 59.577801,21.970617 59.2783203,22.9177246 C58.9788396,23.8648322 58.5820337,24.6678027 58.0878906,25.3266602 L63.703125,25.3266602 L63.703125,16.746582 L59.9633789,16.746582 L59.8510742,19.3969727 Z M79.5717773,27 L77.4941406,27 L77.4941406,21.7890625 L71.9125977,21.7890625 L71.9125977,27 L69.8237305,27 L69.8237305,14.8486328 L71.9125977,14.8486328 L71.9125977,20.1269531 L77.4941406,20.1269531 L77.4941406,14.8486328 L79.5717773,14.8486328 L79.5717773,27 Z M92.1948242,14.8486328 L92.1948242,27 L90.105957,27 L90.105957,22.2607422 L86.9838867,22.2607422 L84.1088867,27 L81.862793,27 L84.9287109,21.9575195 C84.1350872,21.6804999 83.5323914,21.2481312 83.1206055,20.6604004 C82.7088196,20.0726696 82.5029297,19.3707723 82.5029297,18.5546875 C82.5029297,17.446609 82.9053508,16.551924 83.7102051,15.8706055 C84.5150594,15.189287 85.6511971,14.8486328 87.1186523,14.8486328 L92.1948242,14.8486328 Z M84.5917969,18.5771484 C84.5917969,19.1461617 84.7770978,19.6234518 85.1477051,20.0090332 C85.5183124,20.3946146 86.0891889,20.5874023 86.8603516,20.5874023 L90.105957,20.5874023 L90.105957,16.5107422 L87.1186523,16.5107422 C86.2651325,16.5107422 85.6306173,16.7110169 85.2150879,17.1115723 C84.7995585,17.5121277 84.5917969,18.0006482 84.5917969,18.5771484 L84.5917969,18.5771484 Z M104.817871,14.8486328 L104.817871,27 L102.729004,27 L102.729004,22.2607422 L99.6069336,22.2607422 L96.7319336,27 L94.4858398,27 L97.5517578,21.9575195 C96.7581341,21.6804999 96.1554383,21.2481312 95.7436523,20.6604004 C95.3318664,20.0726696 95.1259766,19.3707723 95.1259766,18.5546875 C95.1259766,17.446609 95.5283977,16.551924 96.333252,15.8706055 C97.1381062,15.189287 98.274244,14.8486328 99.7416992,14.8486328 L104.817871,14.8486328 Z M97.2148438,18.5771484 C97.2148438,19.1461617 97.4001446,19.6234518 97.770752,20.0090332 C98.1413593,20.3946146 98.7122357,20.5874023 99.4833984,20.5874023 L102.729004,20.5874023 L102.729004,16.5107422 L99.7416992,16.5107422 C98.8881793,16.5107422 98.2536642,16.7110169 97.8381348,17.1115723 C97.4226053,17.5121277 97.2148438,18.0006482 97.2148438,18.5771484 L97.2148438,18.5771484 Z M121.697266,16.5444336 L116.093262,16.5444336 L116.093262,27 L114.004395,27 L114.004395,14.8486328 L121.697266,14.8486328 L121.697266,16.5444336 Z M133.006348,14.8486328 L133.006348,27 L130.91748,27 L130.91748,16.5444336 L126.795898,16.5444336 L126.649902,20.0595703 C126.537597,22.5602339 126.198815,24.3421171 125.633545,25.4052734 C125.068275,26.4684298 124.033211,27 122.52832,27 L121.921875,27 L121.966797,25.1806641 L122.416016,25.1694336 C123.202152,25.1694336 123.733723,24.8081905 124.010742,24.0856934 C124.287762,23.3631963 124.474934,22.0211687 124.572266,20.0595703 L124.796875,14.8486328 L133.006348,14.8486328 Z M140.081543,22.6201172 L140.508301,24.2373047 L140.541992,24.2373047 L143.630371,14.8486328 L145.955078,14.8486328 L140.811523,28.8754883 C140.504556,29.7065471 140.074059,30.4196748 139.52002,31.0148926 C138.96598,31.6101104 138.194829,31.9077148 137.206543,31.9077148 C137.026855,31.9077148 136.805991,31.8871259 136.543945,31.8459473 C136.2819,31.8047687 136.07601,31.7654624 135.92627,31.7280273 L136.139648,30.0546875 C136.117187,30.0472005 136.251952,30.0546874 136.543945,30.0771484 C136.835939,30.0996095 137.023112,30.1108398 137.105469,30.1108398 C137.607099,30.1108398 137.973957,29.9704604 138.206055,29.6896973 C138.438152,29.4089341 138.726398,28.8680053 139.070801,28.0668945 L139.621094,26.7529297 L135.072754,14.8486328 L137.397461,14.8486328 L140.081543,22.6201172 Z M153.19873,15.5561523 C154.778491,15.5561523 156.01383,16.0615184 156.904785,17.0722656 C157.79574,18.0830129 158.241211,19.4081949 158.241211,21.0478516 L158.241211,21.3173828 C158.241211,23.0843187 157.762049,24.5124457 156.803711,25.6018066 C155.845373,26.6911676 154.516447,27.2358398 152.816895,27.2358398 C151.109855,27.2358398 149.777186,26.6911676 148.818848,25.6018066 C147.86051,24.5124457 147.381348,23.0843187 147.381348,21.3173828 L147.381348,19.7900391 C147.381348,17.3193236 147.866125,15.3820871 148.835693,13.9782715 C149.805262,12.5744559 151.151033,11.7115902 152.873047,11.3896484 C153.876307,11.202473 154.593178,10.9890962 155.023682,10.7495117 C155.454185,10.5099272 155.669434,10.1131213 155.669434,9.55908203 L157.376465,9.55908203 C157.376465,10.884284 157.047041,11.75838 156.388184,12.1813965 C155.729326,12.6044129 154.70362,12.9282215 153.311035,13.152832 C152.255366,13.3325204 151.362552,13.738685 150.632568,14.3713379 C149.902584,15.0039908 149.425294,15.9566994 149.200684,17.2294922 L149.234375,17.2519531 C149.758466,16.727862 150.353675,16.3142105 151.02002,16.0109863 C151.686364,15.7077622 152.412594,15.5561523 153.19873,15.5561523 L153.19873,15.5561523 Z M152.794434,17.2294922 C151.686355,17.2294922 150.855309,17.5888636 150.30127,18.3076172 C149.74723,19.0263708 149.470215,19.9397731 149.470215,21.0478516 L149.470215,21.3173828 C149.470215,22.5677146 149.749102,23.5878053 150.306885,24.3776855 C150.864668,25.1675658 151.701329,25.5625 152.816895,25.5625 C153.924973,25.5625 154.759763,25.1675658 155.321289,24.3776855 C155.882815,23.5878053 156.163574,22.5677146 156.163574,21.3173828 L156.163574,21.0478516 C156.163574,19.9397731 155.880944,19.0263708 155.315674,18.3076172 C154.750404,17.5888636 153.909999,17.2294922 152.794434,17.2294922 L152.794434,17.2294922 Z M168.247559,14.8486328 L170.325195,14.8486328 L170.325195,27 L168.247559,27 L168.247559,18.1166992 L168.213867,18.1166992 L162.643555,27 L160.565918,27 L160.565918,14.8486328 L162.643555,14.8486328 L162.643555,23.7207031 L162.677246,23.7207031 L168.247559,14.8486328 Z M183.588379,27 L181.510742,27 L181.510742,21.7890625 L175.929199,21.7890625 L175.929199,27 L173.840332,27 L173.840332,14.8486328 L175.929199,14.8486328 L175.929199,20.1269531 L181.510742,20.1269531 L181.510742,14.8486328 L183.588379,14.8486328 L183.588379,27 Z M194.481934,27 C194.407063,26.6181622 194.350912,26.3037122 194.313477,26.0566406 C194.276041,25.8095691 194.249837,25.5512709 194.234863,25.2817383 C193.800616,25.8507515 193.261559,26.3168113 192.617676,26.6799316 C191.973792,27.0430519 191.26628,27.2246094 190.495117,27.2246094 C189.214837,27.2246094 188.250898,26.9082877 187.603271,26.2756348 C186.955645,25.6429819 186.631836,24.753912 186.631836,23.6083984 C186.631836,22.4254498 187.096024,21.5120475 188.024414,20.8681641 C188.952804,20.2242806 190.240552,19.9023438 191.887695,19.9023438 L194.234863,19.9023438 L194.234863,18.6669922 C194.234863,17.9257775 194.006513,17.3474142 193.549805,16.9318848 C193.093097,16.5163553 192.441736,16.3085938 191.595703,16.3085938 C190.809566,16.3085938 190.175051,16.4938946 189.692139,16.864502 C189.209226,17.2351093 188.967773,17.6861953 188.967773,18.2177734 L186.890137,18.2177734 C186.890137,17.2818964 187.335608,16.4489783 188.226562,15.7189941 C189.117517,14.98901 190.277988,14.6240234 191.708008,14.6240234 C193.10808,14.6240234 194.2255,14.968421 195.060303,15.6572266 C195.895105,16.3460321 196.3125,17.3567642 196.3125,18.6894531 L196.3125,24.5517578 C196.3125,24.9860048 196.334961,25.401528 196.379883,25.7983398 C196.424805,26.1951517 196.507161,26.5957011 196.626953,27 L194.481934,27 Z M190.79834,25.4389648 C191.57699,25.4389648 192.275143,25.2592791 192.892822,24.8999023 C193.510501,24.5405255 193.957844,24.0987982 194.234863,23.574707 L194.234863,21.3398438 L191.820312,21.3398438 C190.854487,21.3398438 190.094567,21.5663226 189.540527,22.0192871 C188.986488,22.4722516 188.709473,23.0169239 188.709473,23.6533203 C188.709473,24.2148466 188.883543,24.6528305 189.231689,24.9672852 C189.579836,25.2817399 190.102047,25.4389648 190.79834,25.4389648 L190.79834,25.4389648 Z M210.148438,25.5512695 C210.9196,25.5512695 211.587806,25.3266624 212.153076,24.8774414 C212.718346,24.4282204 213.00472,23.8592157 213.012207,23.1704102 L214.98877,23.1704102 C214.981283,24.2784886 214.500249,25.2311972 213.545654,26.0285645 C212.59106,26.8259317 211.458665,27.2246094 210.148438,27.2246094 C208.366528,27.2246094 207.018885,26.6574764 206.105469,25.5231934 C205.192053,24.3889103 204.735352,22.9345792 204.735352,21.1601562 L204.735352,20.6884766 C204.735352,18.9215406 205.192053,17.4690812 206.105469,16.3310547 C207.018885,15.1930282 208.366528,14.6240234 210.148438,14.6240234 C211.578458,14.6240234 212.7408,15.0358032 213.635498,15.859375 C214.530197,16.6829468 214.981283,17.7386003 214.98877,19.0263672 L213.012207,19.0263672 C213.00472,18.2477175 212.735191,17.6001002 212.203613,17.0834961 C211.672035,16.5668919 210.986983,16.3085938 210.148438,16.3085938 C208.943028,16.3085938 208.087649,16.7259887 207.582275,17.560791 C207.076902,18.3955934 206.824219,19.4381448 206.824219,20.6884766 L206.824219,21.1601562 C206.824219,22.4404361 207.07503,23.4923461 207.57666,24.315918 C208.07829,25.1394898 208.935541,25.5512695 210.148438,25.5512695 L210.148438,25.5512695 Z M221.165527,21.800293 L219.649414,21.800293 L219.649414,27 L217.560547,27 L217.560547,14.8486328 L219.649414,14.8486328 L219.649414,20.003418 L221.008301,20.003418 L225.096191,14.8486328 L227.611816,14.8486328 L222.782715,20.6772461 L228.016113,27 L225.376953,27 L221.165527,21.800293 Z M229.992676,27 L229.992676,14.8486328 L234.731934,14.8486328 C236.349129,14.8486328 237.590084,15.1219048 238.454834,15.668457 C239.319584,16.2150092 239.751953,17.0535425 239.751953,18.184082 C239.751953,18.7680693 239.58537,19.2790505 239.252197,19.717041 C238.919025,20.1550315 238.437991,20.4900705 237.809082,20.722168 L237.809082,20.7558594 C238.565271,20.9355478 239.151121,21.2780736 239.56665,21.7834473 C239.98218,22.2888209 240.189941,22.8784146 240.189941,23.5522461 C240.189941,24.7052467 239.785649,25.5681124 238.977051,26.1408691 C238.168453,26.7136259 237.011726,27 235.506836,27 L229.992676,27 Z M232.070312,21.6542969 L232.070312,25.3491211 L235.506836,25.3491211 C236.37533,25.3491211 237.024819,25.1918961 237.455322,24.8774414 C237.885826,24.5629867 238.101074,24.1025421 238.101074,23.4960938 C238.101074,22.8971324 237.885826,22.4404313 237.455322,22.1259766 C237.024819,21.8115219 236.37533,21.6542969 235.506836,21.6542969 L232.070312,21.6542969 Z M232.070312,20.0146484 L234.88916,20.0146484 C235.825037,20.0071614 236.523191,19.8611668 236.983643,19.5766602 C237.444094,19.2921535 237.674316,18.8616565 237.674316,18.2851562 C237.674316,17.6861949 237.430992,17.2407241 236.944336,16.9487305 C236.45768,16.6567368 235.72022,16.5107422 234.731934,16.5107422 L232.070312,16.5107422 L232.070312,20.0146484 Z M250.499512,27 C250.424642,26.6181622 250.36849,26.3037122 250.331055,26.0566406 C250.29362,25.8095691 250.267415,25.5512709 250.252441,25.2817383 C249.818194,25.8507515 249.279137,26.3168113 248.635254,26.6799316 C247.99137,27.0430519 247.283858,27.2246094 246.512695,27.2246094 C245.232415,27.2246094 244.268477,26.9082877 243.62085,26.2756348 C242.973223,25.6429819 242.649414,24.753912 242.649414,23.6083984 C242.649414,22.4254498 243.113602,21.5120475 244.041992,20.8681641 C244.970382,20.2242806 246.25813,19.9023438 247.905273,19.9023438 L250.252441,19.9023438 L250.252441,18.6669922 C250.252441,17.9257775 250.024091,17.3474142 249.567383,16.9318848 C249.110675,16.5163553 248.459314,16.3085938 247.613281,16.3085938 C246.827145,16.3085938 246.192629,16.4938946 245.709717,16.864502 C245.226804,17.2351093 244.985352,17.6861953 244.985352,18.2177734 L242.907715,18.2177734 C242.907715,17.2818964 243.353186,16.4489783 244.244141,15.7189941 C245.135096,14.98901 246.295566,14.6240234 247.725586,14.6240234 C249.125658,14.6240234 250.243079,14.968421 251.077881,15.6572266 C251.912683,16.3460321 252.330078,17.3567642 252.330078,18.6894531 L252.330078,24.5517578 C252.330078,24.9860048 252.352539,25.401528 252.397461,25.7983398 C252.442383,26.1951517 252.524739,26.5957011 252.644531,27 L250.499512,27 Z M246.815918,25.4389648 C247.594568,25.4389648 248.292722,25.2592791 248.9104,24.8999023 C249.528079,24.5405255 249.975422,24.0987982 250.252441,23.574707 L250.252441,21.3398438 L247.837891,21.3398438 C246.872065,21.3398438 246.112145,21.5663226 245.558105,22.0192871 C245.004066,22.4722516 244.727051,23.0169239 244.727051,23.6533203 C244.727051,24.2148466 244.901121,24.6528305 245.249268,24.9672852 C245.597414,25.2817399 246.119625,25.4389648 246.815918,25.4389648 L246.815918,25.4389648 Z M265.222656,21.6992188 L263.773926,21.6992188 L263.773926,27 L261.696289,27 L261.696289,21.6992188 L260.236328,21.6992188 L256.833496,27 L254.205566,27 L258.652832,20.5874023 L254.621094,14.8486328 L257.136719,14.8486328 L260.27002,19.8911133 L261.696289,19.8911133 L261.696289,14.8486328 L263.773926,14.8486328 L263.773926,19.8911133 L265.188965,19.8911133 L268.344727,14.8486328 L270.860352,14.8486328 L266.817383,20.5874023 L271.264648,27 L268.636719,27 L265.222656,21.6992188 Z M281.012695,14.8486328 L283.090332,14.8486328 L283.090332,27 L281.012695,27 L281.012695,18.1166992 L280.979004,18.1166992 L275.408691,27 L273.331055,27 L273.331055,14.8486328 L275.408691,14.8486328 L275.408691,23.7207031 L275.442383,23.7207031 L281.012695,14.8486328 Z M296.353516,27 L294.275879,27 L294.275879,21.7890625 L288.694336,21.7890625 L288.694336,27 L286.605469,27 L286.605469,14.8486328 L288.694336,14.8486328 L288.694336,20.1269531 L294.275879,20.1269531 L294.275879,14.8486328 L296.353516,14.8486328 L296.353516,27 Z" id="средняя-глубина-сква" fill="#FFFFFF"></path>
            <path d="M1.5,0.5 L1.5,210.509521" id="Line" stroke="#4A90E2" stroke-linecap="square"></path>
        </g>
    </g>
</svg>