<?xml version="1.0" encoding="UTF-8"?>
<svg width="2475px" height="351px" viewBox="0 0 2475 351" version="1.1" xmlns="http://www.w3.org/2000/svg" xmlns:xlink="http://www.w3.org/1999/xlink">
    <title>cover-logo</title>
    <defs>
        <polygon id="path-1" points="77.319 159.75 48.99 159.75 48.99 23.856 2.27373675e-13 23.856 2.27373675e-13 0 126.309 0 126.309 23.856 77.319 23.856"></polygon>
        <path d="M171.039,213 L145.266,213 L145.266,52.824 L168.909,52.824 L170.826,69.012 C179.346,56.516 191.558,50.268 207.462,50.268 C222.514,50.268 234.442,55.593 243.246,66.243 C252.05,76.893 256.452,90.17 256.452,106.074 C256.452,121.978 251.979,135.326 243.033,146.118 C234.087,156.91 222.23,162.306 207.462,162.306 C191.7,162.306 179.559,156.2 171.039,143.988 L171.039,213 Z M200.859,139.728 C210.657,139.728 218.041,136.391 223.011,129.717 C227.981,123.043 230.466,115.162 230.466,106.074 C230.466,97.128 227.981,89.318 223.011,82.644 C218.183,76.112 210.799,72.846 200.859,72.846 C191.629,72.846 184.387,76.041 179.133,82.431 C173.737,89.105 171.039,96.986 171.039,106.074 C171.039,115.162 173.737,123.043 179.133,129.717 C184.529,136.391 191.771,139.728 200.859,139.728 Z" id="path-2"></path>
        <polygon id="path-3" points="304.164 159.75 280.095 159.75 280.095 52.824 305.868 52.824 305.868 122.901 355.284 52.824 379.566 52.824 379.566 159.75 353.58 159.75 353.58 89.46"></polygon>
        <polygon id="path-4" points="485.853 159.75 461.784 159.75 461.784 52.824 487.557 52.824 487.557 122.901 536.973 52.824 561.255 52.824 561.255 159.75 535.269 159.75 535.269 89.46"></polygon>
        <path d="M627.285,162.306 C615.641,162.306 606.482,160.247 599.808,156.129 C593.134,152.153 588.164,147.893 584.898,143.349 L584.898,129.291 L603.642,129.291 C607.902,137.669 615.641,141.858 626.859,141.858 C640.207,141.858 646.881,137.172 646.881,127.8 C646.881,119.28 640.349,115.02 627.285,115.02 L610.245,115.02 L610.245,96.489 L626.433,96.489 C637.509,96.489 643.047,92.158 643.047,83.496 C643.047,79.52 641.5915,76.396 638.6805,74.124 C635.7695,71.852 631.545,70.716 626.007,70.716 C615.499,70.716 608.257,74.905 604.281,83.283 L585.963,83.283 L585.963,69.012 C588.803,64.61 593.489,60.421 600.021,56.445 C606.553,52.327 615.854,50.268 627.924,50.268 C640.42,50.268 650.2535,52.8595 657.4245,58.0425 C664.5955,63.2255 668.181,70.503 668.181,79.875 C668.181,91.093 662.927,98.974 652.419,103.518 C665.625,107.92 672.228,116.511 672.228,129.291 C672.228,139.657 668.323,147.751 660.513,153.573 C652.703,159.395 641.627,162.306 627.285,162.306 Z" id="path-5"></path>
        <polygon id="path-6" points="766.374 137.172 748.695 137.172 719.94 89.034 719.94 159.75 695.871 159.75 695.871 52.824 726.117 52.824 758.706 107.778 790.443 52.824 820.689 52.824 820.689 159.75 795.342 159.75 795.342 88.608"></polygon>
        <path d="M900.564,162.306 C882.388,162.306 868.4365,157.1585 858.7095,146.8635 C848.9825,136.5685 844.119,123.043 844.119,106.287 C844.119,90.241 848.947,76.893 858.603,66.243 C868.259,55.593 881.536,50.268 898.434,50.268 C915.19,50.268 927.757,54.7055 936.135,63.5805 C944.513,72.4555 948.702,84.135 948.702,98.619 L947.637,111.186 L870.105,111.186 C870.815,120.416 873.797,127.658 879.051,132.912 C884.305,138.166 891.547,140.793 900.777,140.793 C903.759,140.793 906.5635,140.58 909.1905,140.154 C911.8175,139.728 914.054,139.1955 915.9,138.5565 C917.746,137.9175 919.379,137.172 920.799,136.32 C922.219,135.468 923.355,134.616 924.207,133.764 C925.059,132.912 925.769,132.1665 926.337,131.5275 C926.905,130.8885 927.331,130.356 927.615,129.93 L927.828,129.291 L946.572,129.291 L946.572,143.349 C946.288,143.917 945.8265,144.627 945.1875,145.479 C944.5485,146.331 942.9865,147.822 940.5015,149.952 C938.0165,152.082 935.1765,153.999 931.9815,155.703 C928.7865,157.407 924.3845,158.9335 918.7755,160.2825 C913.1665,161.6315 907.096,162.306 900.564,162.306 Z M870.957,93.72 L923.568,93.72 C923.568,87.33 921.4025,82.0405 917.0715,77.8515 C912.7405,73.6625 906.528,71.568 898.434,71.568 C883.24,71.568 874.081,78.952 870.957,93.72 Z" id="path-7"></path>
        <path d="M998.118,213 L972.345,213 L972.345,52.824 L995.988,52.824 L997.905,69.012 C1006.425,56.516 1018.637,50.268 1034.541,50.268 C1049.593,50.268 1061.521,55.593 1070.325,66.243 C1079.129,76.893 1083.531,90.17 1083.531,106.074 C1083.531,121.978 1079.058,135.326 1070.112,146.118 C1061.166,156.91 1049.309,162.306 1034.541,162.306 C1018.779,162.306 1006.638,156.2 998.118,143.988 L998.118,213 Z M1027.938,139.728 C1037.736,139.728 1045.12,136.391 1050.09,129.717 C1055.06,123.043 1057.545,115.162 1057.545,106.074 C1057.545,97.128 1055.06,89.318 1050.09,82.644 C1045.262,76.112 1037.878,72.846 1027.938,72.846 C1018.708,72.846 1011.466,76.041 1006.212,82.431 C1000.816,89.105 998.118,96.986 998.118,106.074 C998.118,115.162 1000.816,123.043 1006.212,129.717 C1011.608,136.391 1018.85,139.728 1027.938,139.728 Z" id="path-8"></path>
        <path d="M1157.229,162.306 C1139.053,162.306 1125.1015,157.1585 1115.3745,146.8635 C1105.6475,136.5685 1100.784,123.043 1100.784,106.287 C1100.784,90.241 1105.612,76.893 1115.268,66.243 C1124.924,55.593 1138.201,50.268 1155.099,50.268 C1171.855,50.268 1184.422,54.7055 1192.8,63.5805 C1201.178,72.4555 1205.367,84.135 1205.367,98.619 L1204.302,111.186 L1126.77,111.186 C1127.48,120.416 1130.462,127.658 1135.716,132.912 C1140.97,138.166 1148.212,140.793 1157.442,140.793 C1160.424,140.793 1163.2285,140.58 1165.8555,140.154 C1168.4825,139.728 1170.719,139.1955 1172.565,138.5565 C1174.411,137.9175 1176.044,137.172 1177.464,136.32 C1178.884,135.468 1180.02,134.616 1180.872,133.764 C1181.724,132.912 1182.434,132.1665 1183.002,131.5275 C1183.57,130.8885 1183.996,130.356 1184.28,129.93 L1184.493,129.291 L1203.237,129.291 L1203.237,143.349 C1202.953,143.917 1202.4915,144.627 1201.8525,145.479 C1201.2135,146.331 1199.6515,147.822 1197.1665,149.952 C1194.6815,152.082 1191.8415,153.999 1188.6465,155.703 C1185.4515,157.407 1181.0495,158.9335 1175.4405,160.2825 C1169.8315,161.6315 1163.761,162.306 1157.229,162.306 Z M1127.622,93.72 L1180.233,93.72 C1180.233,87.33 1178.0675,82.0405 1173.7365,77.8515 C1169.4055,73.6625 1163.193,71.568 1155.099,71.568 C1139.905,71.568 1130.746,78.952 1127.622,93.72 Z" id="path-9"></path>
        <polygon id="path-10" points="1254.783 159.75 1229.01 159.75 1229.01 52.824 1254.783 52.824 1254.783 94.146 1300.365 94.146 1300.365 52.824 1326.351 52.824 1326.351 159.75 1300.365 159.75 1300.365 115.872 1254.783 115.872"></polygon>
        <polygon id="path-11" points="1380.24 159.75 1356.171 159.75 1356.171 52.824 1381.944 52.824 1381.944 122.901 1431.36 52.824 1455.642 52.824 1455.642 159.75 1429.656 159.75 1429.656 89.46"></polygon>
        <path d="M1544.676,159.75 L1544.676,121.836 L1532.748,121.836 L1498.881,159.75 L1479.498,159.75 L1479.498,145.692 L1505.484,118.428 C1497.674,116.156 1491.6745,112.4285 1487.4855,107.2455 C1483.2965,102.0625 1481.202,95.637 1481.202,87.969 C1481.202,78.455 1484.752,70.148 1491.852,63.048 C1498.952,56.232 1510.028,52.824 1525.08,52.824 L1570.449,52.824 L1570.449,159.75 L1544.676,159.75 Z M1526.997,103.731 L1544.676,103.731 L1544.676,72.207 L1526.997,72.207 C1514.075,72.207 1507.614,77.603 1507.614,88.395 C1507.614,98.619 1514.075,103.731 1526.997,103.731 Z" id="path-12"></path>
        <polygon id="path-13" points="1685.256 159.75 1656.714 159.75 1656.714 0 1685.256 0 1685.256 117.15 1759.806 0 1788.135 0 1788.135 159.75 1759.806 159.75 1759.806 43.878"></polygon>
        <polygon id="path-14" points="1854.378 159.75 1826.049 159.75 1826.049 0 1854.378 0 1854.378 65.817 1925.094 65.817 1925.094 0 1953.636 0 1953.636 159.75 1925.094 159.75 1925.094 89.673 1854.378 89.673"></polygon>
        <polygon id="path-15" points="2088.039 159.75 2019.879 86.265 2019.879 159.75 1991.55 159.75 1991.55 0 2019.879 0 2019.879 72.846 2084.631 0 2105.079 0 2105.079 15.336 2049.06 77.319 2110.404 143.562 2110.404 159.75"></polygon>
    </defs>
    <g id="PanoTour" stroke="none" stroke-width="1" fill="none" fill-rule="evenodd">
        <g id="tour-cover-v1-map" transform="translate(-811, -209)">
            <g id="cover-logo" transform="translate(811, 209)">
                <path d="M143.140061,275.439451 L143.140061,314.806668 C143.140061,315.538408 143.721798,316.123775 144.448964,315.977422 C153.611295,315.245693 162.482747,313.635881 170.917902,310.855294 C171.354199,310.708952 171.790497,310.269927 171.790497,309.684539 L171.790497,213.09586 C171.790497,212.510474 171.354199,211.925084 170.772473,211.925084 C162.191879,210.900659 153.320416,210.315268 144.448964,210.022575 C143.721798,210.022575 143.140061,210.607966 143.140061,211.193352 L143.140061,246.023821 L127.724083,246.023821 L127.724083,211.193352 C127.724083,210.461619 127.142346,209.876229 126.41518,210.022575 C117.398288,210.315268 108.672265,210.90065 100.09167,211.778729 C99.5099332,211.778729 99.0736251,212.364119 99.0736251,212.949505 L99.0736251,309.830881 C99.0736251,310.416258 99.364499,310.855304 99.946236,311.001657 C108.381396,313.489539 117.252848,315.245703 126.41518,315.831091 C127.142346,315.831091 127.724083,315.245703 127.724083,314.660315 L127.724083,275.146762 L143.140061,275.146762 L143.140061,275.439451 Z M90.9269554,213.238084 C80.0194235,214.847895 69.4027602,216.896759 59.5132628,219.677342 C59.222397,219.823689 58.9315285,219.970035 58.7860942,220.409074 L46.4242225,246.16604 L44.3881509,246.16604 L44.3881509,225.970222 C44.3881509,225.092143 43.515548,224.506777 42.7883794,224.799469 C35.5166893,227.433706 28.681302,230.214278 22.282216,233.4339 C21.4868013,233.789638 20.7450944,234.199419 20.0244572,234.597559 C19.5592415,234.854585 19.1028064,235.106761 18.6463715,235.336411 C18.0646364,235.629102 17.77377,236.360824 18.2100713,236.946209 C27.6632666,254.946824 39.152535,270.605907 52.5324426,283.1917 C53.1141796,283.777088 54.132214,283.630746 54.4230799,282.899011 L61.8402002,267.825325 L63.7308456,267.825325 L63.7308456,292.118845 C63.7308456,292.557886 63.8762799,292.850574 64.167143,293.143268 C72.3114347,299.28982 81.1828976,304.265591 90.6360922,308.070602 C91.3632635,308.363307 92.2358637,307.777919 92.2358637,306.899826 L92.2358637,214.40886 C92.3812979,213.677128 91.6541267,213.091737 90.9269554,213.238084 Z M222.397788,222.457919 C228.506017,224.653117 238.395503,230.214293 241.304167,232.116799 C241.885904,232.555838 242.176762,233.141211 241.885882,233.726597 L233.014452,252.458958 C235.3414,253.776075 237.668327,255.532226 239.558977,257.142037 C239.995275,257.581084 240.140693,258.312824 239.704395,258.75186 C234.323344,266.361882 227.77884,273.825541 221.525194,280.11844 C218.325651,277.045164 212.799181,274.996317 207.563569,275.435358 L207.563569,291.240784 C207.563569,291.679825 207.41813,291.972514 207.127272,292.265208 C198.982996,298.41176 190.111544,303.533905 180.658355,307.485258 C179.785749,307.777962 178.913144,307.192574 178.913144,306.314482 L178.913144,214.408861 C178.913144,213.677128 179.64031,213.091737 180.367476,213.238084 C189.384367,214.555202 198.255809,216.311361 206.690953,218.360212 C207.127272,218.506559 207.563569,218.945603 207.563569,219.530989 L207.708987,246.166053 L209.745078,246.166053 C215.756339,233.775377 219.489132,226.067791 220.943457,223.043296 C221.234336,222.45791 221.816073,222.311573 222.397788,222.457919 Z M182.657382,8.86287309 C183.530643,9.29875244 183.676169,10.4610962 182.948455,11.0422685 C146.913999,35.8083037 144.138137,102.340204 140.687586,185.043208 L140.687037,185.056688 L140.683096,185.150988 C140.511586,189.261284 140.338407,193.411506 140.159348,197.598494 L136.957431,197.598494 L137.147925,183.84347 C138.589645,79.2805339 139.181353,36.3665284 150.347234,0 C161.553907,1.45293009 172.469496,4.50408299 182.657382,8.86287309 Z M232.142549,48.2405107 C198.813625,49.6934409 176.400301,70.4703452 162.428352,112.605312 C155.151289,134.689848 148.601951,170.286636 146.85545,197.892295 C145.836664,197.747017 144.67233,197.746996 143.653544,197.746996 C145.254497,163.312567 148.019773,133.963385 151.65831,110.425925 C159.663065,60.0092463 173.78055,32.4035768 205.799583,21.361309 C215.696375,28.3353731 224.865496,36.617074 233.015788,46.2064115 C233.597955,46.9328793 233.161335,48.2405107 232.142549,48.2405107 Z M169.401205,145.727848 C195.162004,95.7470445 240.425293,89.0635675 265.458378,113.763393 C266.331639,114.635143 267.787067,113.763393 267.495972,112.601044 C263.420827,96.6188167 257.308086,81.653628 249.30332,68.141375 C191.81455,52.3044358 156.884663,117.97689 150.189766,198.178636 C150.69916,198.178636 151.24494,198.21495 151.79072,198.251264 C152.3365,198.287599 152.88228,198.323935 153.391684,198.323935 C156.59359,176.239388 159.795496,164.180071 169.401205,145.727848 Z M180.18236,142.969081 C207.980722,107.662869 248.441151,114.201042 270.126782,139.917922 C270.563402,145.584355 270.854474,151.396076 271,157.353085 C271,171.882387 269.253521,185.830527 266.197162,199.052192 C265.906068,200.214541 264.014042,200.35984 263.868495,199.197491 C260.957682,171.301224 228.0654,147.327867 195.173096,157.353085 C180.910064,161.566582 165.773792,174.352383 159.952146,198.616339 C159.370302,198.616339 158.824802,198.580046 158.279324,198.543754 L158.278419,198.543689 L158.277515,198.543625 C157.732036,198.507332 157.186536,198.47104 156.604692,198.47104 C160.388766,174.207084 170.140021,155.609573 180.18236,142.969081 Z M120.513594,0.148609982 C109.306932,1.60153974 98.3913318,4.50739941 88.2034564,9.01148106 C87.3302062,9.4473604 87.1846699,10.6097042 87.9123784,11.1908758 C124.055806,35.8930283 126.739156,102.746592 130.077725,185.923902 L130.078048,185.932029 C130.234719,189.835299 130.392844,193.77456 130.555922,197.74706 L133.757829,197.74706 C133.673877,191.73601 133.59433,185.916313 133.517282,180.278959 C132.124871,78.4069557 131.546355,36.0816308 120.513594,0.148609982 Z M65.056776,21.5044149 C97.07583,32.5466907 111.338862,60.1523737 119.198081,110.569074 C122.982144,134.106566 125.601883,163.455769 127.348373,197.744932 C126.839303,197.744932 126.293889,197.781224 125.748454,197.817517 L125.74742,197.817581 L125.746418,197.817646 C125.200983,197.853938 124.655558,197.890231 124.146477,197.890231 C122.254441,170.284551 115.850628,134.542442 108.573575,112.603183 C94.6016159,70.4681898 72.042745,49.6912748 38.7138319,48.3836381 C37.6950454,48.2383445 37.2584204,47.075996 37.8405844,46.3495336 C45.9908896,36.760188 55.1599786,28.4784844 65.056776,21.5044149 Z M21.6874487,68.1415255 C13.6826852,81.5084796 7.56995897,96.4736682 3.49480739,112.601195 C3.20372501,113.763543 4.65913622,114.635294 5.53238301,113.763522 C30.710999,89.2090116 75.8287566,95.892494 101.589545,145.727998 C111.049717,164.034912 114.39716,176.09424 117.599066,198.178765 C118.108137,198.178765 118.65355,198.142472 119.198986,198.10618 L119.20002,198.106115 L119.201021,198.106051 C119.746456,198.069758 120.291881,198.033466 120.800962,198.033466 C114.106076,117.97703 79.1761967,52.3045863 21.6874487,68.1415255 Z M0.873247045,139.917922 C22.4133409,114.201042 63.0193269,107.662869 90.8176934,142.969081 C100.860033,155.609573 110.611288,174.207084 114.395362,198.47104 C113.231028,198.47104 112.212252,198.47104 111.047919,198.616339 C105.080725,174.352383 90.2355212,160.84012 75.8269475,157.353085 C40.6059843,148.635503 11.061129,171.73711 7.13151738,199.197491 C6.98597636,200.35984 5.09394108,200.214541 4.80285871,199.052192 C1.6009529,185.685228 0,171.737099 0,157.353085 C0,151.396076 0.291082376,145.584355 0.873247045,139.917922 Z" id="Combined-Shape" fill="#FFFFFF"></path>
                <g id="Три-измерения-ИНК" transform="translate(363.6915, 51.25)" fill="#FFFFFF" fill-rule="nonzero">
                    <g id="Path">
                        <use xlink:href="#path-1"></use>
                        <use xlink:href="#path-1"></use>
                    </g>
                    <g id="Shape">
                        <use xlink:href="#path-2"></use>
                        <use xlink:href="#path-2"></use>
                    </g>
                    <g id="Path">
                        <use xlink:href="#path-3"></use>
                        <use xlink:href="#path-3"></use>
                    </g>
                    <g id="Path">
                        <use xlink:href="#path-4"></use>
                        <use xlink:href="#path-4"></use>
                    </g>
                    <g id="Path">
                        <use xlink:href="#path-5"></use>
                        <use xlink:href="#path-5"></use>
                    </g>
                    <g id="Path">
                        <use xlink:href="#path-6"></use>
                        <use xlink:href="#path-6"></use>
                    </g>
                    <g id="Shape">
                        <use xlink:href="#path-7"></use>
                        <use xlink:href="#path-7"></use>
                    </g>
                    <g id="Shape">
                        <use xlink:href="#path-8"></use>
                        <use xlink:href="#path-8"></use>
                    </g>
                    <g id="Shape">
                        <use xlink:href="#path-9"></use>
                        <use xlink:href="#path-9"></use>
                    </g>
                    <g id="Path">
                        <use xlink:href="#path-10"></use>
                        <use xlink:href="#path-10"></use>
                    </g>
                    <g id="Path">
                        <use xlink:href="#path-11"></use>
                        <use xlink:href="#path-11"></use>
                    </g>
                    <g id="Shape">
                        <use xlink:href="#path-12"></use>
                        <use xlink:href="#path-12"></use>
                    </g>
                    <g id="Path">
                        <use xlink:href="#path-13"></use>
                        <use xlink:href="#path-13"></use>
                    </g>
                    <g id="Path">
                        <use xlink:href="#path-14"></use>
                        <use xlink:href="#path-14"></use>
                    </g>
                    <g id="Path">
                        <use xlink:href="#path-15"></use>
                        <use xlink:href="#path-15"></use>
                    </g>
                </g>
                <g id="3D-тур-по-производст" transform="translate(1338.211, 305.76)" fill="#7DBCCA" fill-rule="nonzero">
                    <path d="M11.466,37.534 C9.73466667,37.534 8.15033333,37.2726667 6.713,36.75 C5.27566667,36.2273333 4.165,35.6148333 3.381,34.9125 C2.597,34.2101667 1.92733333,33.4751667 1.372,32.7075 C0.816666667,31.9398333 0.449166667,31.3273333 0.2695,30.87 C0.0898333333,30.4126667 0,30.1513333 0,30.086 L0,26.656 L3.92,26.656 L3.969,26.852 C4.00166667,27.0153333 4.05883333,27.2195 4.1405,27.4645 C4.22216667,27.7095 4.32016667,27.9953333 4.4345,28.322 C4.54883333,28.6486667 4.71216667,28.9916667 4.9245,29.351 C5.13683333,29.7103333 5.37366667,30.0615 5.635,30.4045 C5.89633333,30.7475 6.223,31.0823333 6.615,31.409 C7.007,31.7356667 7.43166667,32.0215 7.889,32.2665 C8.34633333,32.5115 8.87716667,32.7075 9.4815,32.8545 C10.0858333,33.0015 10.7473333,33.075 11.466,33.075 C13.5566667,33.075 15.2063333,32.4216667 16.415,31.115 C17.6236667,29.8083333 18.228,28.322 18.228,26.656 C18.228,22.442 15.631,20.335 10.437,20.335 L6.615,20.335 L6.615,15.925 L10.143,15.925 C12.2336667,15.925 13.8425,15.3696667 14.9695,14.259 C16.0965,13.1483333 16.66,11.6783333 16.66,9.849 C16.66,8.24833333 16.121,6.94166667 15.043,5.929 C13.965,4.91633333 12.593,4.41 10.927,4.41 C10.339,4.41 9.78366667,4.47533333 9.261,4.606 C8.73833333,4.73666667 8.28916667,4.90816667 7.9135,5.1205 C7.53783333,5.33283333 7.18666667,5.56966667 6.86,5.831 C6.53333333,6.09233333 6.26383333,6.37816667 6.0515,6.6885 C5.83916667,6.99883333 5.64316667,7.301 5.4635,7.595 C5.28383333,7.889 5.145,8.16666667 5.047,8.428 C4.949,8.68933333 4.8755,8.92616667 4.8265,9.1385 C4.7775,9.35083333 4.73666667,9.52233333 4.704,9.653 L4.655,9.849 L1.029,9.849 L1.029,6.419 C1.09433333,6.25566667 1.18416667,6.027 1.2985,5.733 C1.41283333,5.439 1.73133333,4.9245 2.254,4.1895 C2.77666667,3.4545 3.37283333,2.80116667 4.0425,2.2295 C4.71216667,1.65783333 5.6595,1.14333333 6.8845,0.686 C8.1095,0.228666667 9.457,0 10.927,0 C14.1936667,0 16.8723333,0.865666667 18.963,2.597 C21.021,4.361 22.05,6.615 22.05,9.359 C22.05,11.3516667 21.5518333,13.083 20.5555,14.553 C19.5591667,16.023 18.179,17.0683333 16.415,17.689 C18.6036667,18.179 20.3513333,19.208 21.658,20.776 C22.9646667,22.344 23.618,24.2876667 23.618,26.607 C23.618,29.841 22.4828333,32.4706667 20.2125,34.496 C17.9421667,36.5213333 15.0266667,37.534 11.466,37.534 Z" id="Path"></path>
                    <path d="M42.14,37.24 L30.723,37.24 L30.723,0.49 L42.14,0.49 C47.726,0.49 52.2176667,2.23766667 55.615,5.733 C59.0123333,9.22833333 60.711,13.5566667 60.711,18.718 C60.711,23.9446667 59.0123333,28.3383333 55.615,31.899 C52.2176667,35.4596667 47.726,37.24 42.14,37.24 Z M36.113,4.9 L36.113,32.83 L41.993,32.83 C45.9783333,32.83 49.196,31.4743333 51.646,28.763 C54.096,26.0516667 55.321,22.7033333 55.321,18.718 C55.321,14.8306667 54.096,11.5558333 51.646,8.8935 C49.196,6.23116667 45.9783333,4.9 41.993,4.9 L36.113,4.9 Z" id="Shape"></path>
                    <polygon id="Path" points="79.478 23.52 66.248 23.52 66.248 19.355 79.478 19.355"></polygon>
                    <polygon id="Path" points="100.793 37.24 95.403 37.24 95.403 4.9 83.643 4.9 83.643 0.49 112.553 0.49 112.553 4.9 100.793 4.9"></polygon>
                    <polygon id="Path" points="142.59 3.92 125.195 37.24 121.765 37.24 121.765 33.81 125.93 26.264 114.072 4.165 114.072 0.49 117.747 0.49 128.772 21.021 139.16 0.49 142.59 0.49"></polygon>
                    <path d="M153.174,37.24 L147.784,37.24 L147.784,0.49 L157.633,0.49 C161.520333,0.49 164.656333,1.50266667 167.041,3.528 C169.360333,5.586 170.52,8.29733333 170.52,11.662 C170.52,15.0266667 169.384833,17.885 167.1145,20.237 C164.844167,22.589 161.683667,23.765 157.633,23.765 L153.174,23.765 L153.174,37.24 Z M153.174,4.9 L153.174,19.355 L157.584,19.355 C159.903333,19.355 161.740833,18.669 163.0965,17.297 C164.452167,15.925 165.13,14.112 165.13,11.858 C165.13,10.0286667 164.476667,8.41166667 163.17,7.007 C161.863333,5.60233333 160.001333,4.9 157.584,4.9 L153.174,4.9 Z" id="Shape"></path>
                    <polygon id="Path" points="194.726 37.24 189.336 37.24 189.336 0.49 217.266 0.49 217.266 37.24 211.876 37.24 211.876 4.9 194.726 4.9"></polygon>
                    <path d="M255.682,32.389 C252.317333,35.9496667 247.923667,37.73 242.501,37.73 C237.078333,37.73 232.684667,35.9415 229.32,32.3645 C225.955333,28.7875 224.273,24.2386667 224.273,18.718 C224.273,13.2626667 225.955333,8.77916667 229.32,5.2675 C232.684667,1.75583333 237.078333,0 242.501,0 C247.923667,0 252.317333,1.75583333 255.682,5.2675 C259.046667,8.77916667 260.729,13.2626667 260.729,18.718 C260.729,24.2386667 259.046667,28.7956667 255.682,32.389 Z M233.142,29.253 C235.494,31.9643333 238.613667,33.32 242.501,33.32 C246.388333,33.32 249.499833,31.9643333 251.8355,29.253 C254.171167,26.5416667 255.339,23.03 255.339,18.718 C255.339,14.5366667 254.171167,11.1066667 251.8355,8.428 C249.499833,5.74933333 246.388333,4.41 242.501,4.41 C238.613667,4.41 235.502167,5.74933333 233.1665,8.428 C230.830833,11.1066667 229.663,14.5366667 229.663,18.718 C229.663,23.03 230.822667,26.5416667 233.142,29.253 Z" id="Shape"></path>
                    <polygon id="Path" points="285.572 37.24 280.182 37.24 280.182 0.49 308.112 0.49 308.112 37.24 302.722 37.24 302.722 4.9 285.572 4.9"></polygon>
                    <path d="M322.812,37.24 L317.422,37.24 L317.422,0.49 L327.271,0.49 C331.158333,0.49 334.294333,1.50266667 336.679,3.528 C338.998333,5.586 340.158,8.29733333 340.158,11.662 C340.158,15.0266667 339.022833,17.885 336.7525,20.237 C334.482167,22.589 331.321667,23.765 327.271,23.765 L322.812,23.765 L322.812,37.24 Z M322.812,4.9 L322.812,19.355 L327.222,19.355 C329.541333,19.355 331.378833,18.669 332.7345,17.297 C334.090167,15.925 334.768,14.112 334.768,11.858 C334.768,10.0286667 334.114667,8.41166667 332.808,7.007 C331.501333,5.60233333 329.639333,4.9 327.222,4.9 L322.812,4.9 Z" id="Shape"></path>
                    <path d="M375.634,32.389 C372.269333,35.9496667 367.875667,37.73 362.453,37.73 C357.030333,37.73 352.636667,35.9415 349.272,32.3645 C345.907333,28.7875 344.225,24.2386667 344.225,18.718 C344.225,13.2626667 345.907333,8.77916667 349.272,5.2675 C352.636667,1.75583333 357.030333,0 362.453,0 C367.875667,0 372.269333,1.75583333 375.634,5.2675 C378.998667,8.77916667 380.681,13.2626667 380.681,18.718 C380.681,24.2386667 378.998667,28.7956667 375.634,32.389 Z M353.094,29.253 C355.446,31.9643333 358.565667,33.32 362.453,33.32 C366.340333,33.32 369.451833,31.9643333 371.7875,29.253 C374.123167,26.5416667 375.291,23.03 375.291,18.718 C375.291,14.5366667 374.123167,11.1066667 371.7875,8.428 C369.451833,5.74933333 366.340333,4.41 362.453,4.41 C358.565667,4.41 355.454167,5.74933333 353.1185,8.428 C350.782833,11.1066667 349.615,14.5366667 349.615,18.718 C349.615,23.03 350.774667,26.5416667 353.094,29.253 Z" id="Shape"></path>
                    <polygon id="Path" points="393.078 37.24 387.688 37.24 387.688 0.49 393.078 0.49 393.078 29.351 411.698 0.49 417.088 0.49 417.088 37.24 411.698 37.24 411.698 8.771"></polygon>
                    <path d="M436.051,37.73 C435.005667,37.73 434.0175,37.6646667 433.0865,37.534 C432.1555,37.4033333 431.338833,37.2318333 430.6365,37.0195 C429.934167,36.8071667 429.2645,36.554 428.6275,36.26 C427.9905,35.966 427.4515,35.6638333 427.0105,35.3535 C426.5695,35.0431667 426.169333,34.7328333 425.81,34.4225 C425.450667,34.1121667 425.156667,33.81 424.928,33.516 C424.699333,33.222 424.503333,32.9688333 424.34,32.7565 C424.176667,32.5441667 424.062333,32.3726667 423.997,32.242 L423.899,32.046 L423.899,28.616 L427.819,28.616 C427.819,28.6813333 427.884333,28.8528333 428.015,29.1305 C428.145667,29.4081667 428.398833,29.7838333 428.7745,30.2575 C429.150167,30.7311667 429.6075,31.1885 430.1465,31.6295 C430.6855,32.0705 431.445,32.4543333 432.425,32.781 C433.405,33.1076667 434.483,33.271 435.659,33.271 C437.880333,33.271 439.595333,32.6585 440.804,31.4335 C442.012667,30.2085 442.617,28.616 442.617,26.656 C442.617,22.442 440.02,20.335 434.826,20.335 L431.249,20.335 L431.249,15.925 L434.532,15.925 C436.622667,15.925 438.2315,15.3696667 439.3585,14.259 C440.4855,13.1483333 441.049,11.6783333 441.049,9.849 C441.049,8.281 440.469167,6.9825 439.3095,5.9535 C438.149833,4.9245 436.720667,4.41 435.022,4.41 C434.466667,4.41 433.927667,4.45083333 433.405,4.5325 C432.882333,4.61416667 432.433167,4.73666667 432.0575,4.9 C431.681833,5.06333333 431.330667,5.243 431.004,5.439 C430.677333,5.635 430.3915,5.83916667 430.1465,6.0515 C429.9015,6.26383333 429.689167,6.48433333 429.5095,6.713 C429.329833,6.94166667 429.182833,7.154 429.0685,7.35 C428.954167,7.546 428.856167,7.72566667 428.7745,7.889 C428.692833,8.05233333 428.635667,8.16666667 428.603,8.232 L428.554,8.379 L424.634,8.379 L424.634,4.949 C424.634,4.91633333 424.740167,4.74483333 424.9525,4.4345 C425.164833,4.12416667 425.5405,3.71583333 426.0795,3.2095 C426.6185,2.70316667 427.263667,2.21316667 428.015,1.7395 C428.766333,1.26583333 429.770833,0.8575 431.0285,0.5145 C432.286167,0.1715 433.666333,0 435.169,0 C438.468333,0 441.1715,0.898333333 443.2785,2.695 C445.3855,4.49166667 446.439,6.89266667 446.439,9.898 C446.439,11.5966667 445.965333,13.1238333 445.018,14.4795 C444.070667,15.8351667 442.780333,16.856 441.147,17.542 C443.303,18.0646667 444.985333,19.1181667 446.194,20.7025 C447.402667,22.2868333 448.007,24.206 448.007,26.46 C448.007,29.7266667 446.945333,32.4216667 444.822,34.545 C442.633333,36.6683333 439.709667,37.73 436.051,37.73 Z" id="Path"></path>
                    <path d="M467.068,37.24 L455.063,37.24 L455.063,0.49 L466.872,0.49 C470.367333,0.49 473.144,1.372 475.202,3.136 C477.26,4.9 478.289,7.252 478.289,10.192 C478.289,11.956 477.880667,13.4913333 477.064,14.798 C476.247333,16.1046667 475.087667,17.0846667 473.585,17.738 C475.512333,18.3913333 476.998667,19.4693333 478.044,20.972 C479.089333,22.4746667 479.612,24.255 479.612,26.313 C479.612,29.645 478.493167,32.2991667 476.2555,34.2755 C474.017833,36.2518333 470.955333,37.24 467.068,37.24 Z M460.306,4.802 L460.306,16.023 L466.48,16.023 C468.505333,16.023 470.0815,15.5085 471.2085,14.4795 C472.3355,13.4505 472.899,12.0866667 472.899,10.388 C472.899,8.82 472.36,7.497 471.282,6.419 C470.204,5.341 468.717667,4.802 466.823,4.802 L460.306,4.802 Z M460.306,20.237 L460.306,32.928 L467.117,32.928 C469.305667,32.928 471.037,32.2991667 472.311,31.0415 C473.585,29.7838333 474.222,28.224 474.222,26.362 C474.222,24.5 473.617667,23.0136667 472.409,21.903 C471.200333,20.7923333 469.452667,20.237 467.166,20.237 L460.306,20.237 Z" id="Shape"></path>
                    <path d="M515.872,32.389 C512.507333,35.9496667 508.113667,37.73 502.691,37.73 C497.268333,37.73 492.874667,35.9415 489.51,32.3645 C486.145333,28.7875 484.463,24.2386667 484.463,18.718 C484.463,13.2626667 486.145333,8.77916667 489.51,5.2675 C492.874667,1.75583333 497.268333,0 502.691,0 C508.113667,0 512.507333,1.75583333 515.872,5.2675 C519.236667,8.77916667 520.919,13.2626667 520.919,18.718 C520.919,24.2386667 519.236667,28.7956667 515.872,32.389 Z M493.332,29.253 C495.684,31.9643333 498.803667,33.32 502.691,33.32 C506.578333,33.32 509.689833,31.9643333 512.0255,29.253 C514.361167,26.5416667 515.529,23.03 515.529,18.718 C515.529,14.5366667 514.361167,11.1066667 512.0255,8.428 C509.689833,5.74933333 506.578333,4.41 502.691,4.41 C498.803667,4.41 495.692167,5.74933333 493.3565,8.428 C491.020833,11.1066667 489.853,14.5366667 489.853,18.718 C489.853,23.03 491.012667,26.5416667 493.332,29.253 Z" id="Shape"></path>
                    <path d="M528.563,44.59 L523.663,44.59 L523.663,32.83 L526.554,32.83 C526.684667,32.6993333 526.848,32.5115 527.044,32.2665 C527.24,32.0215 527.591167,31.4171667 528.0975,30.4535 C528.603833,29.4898333 529.061167,28.4363333 529.4695,27.293 C529.877833,26.1496667 530.269833,24.6061667 530.6455,22.6625 C531.021167,20.7188333 531.258,18.6526667 531.356,16.464 L532.042,0.49 L555.023,0.49 L555.023,32.83 L559.923,32.83 L559.923,44.59 L555.023,44.59 L555.023,37.24 L528.563,37.24 L528.563,44.59 Z M532.042,32.83 L549.633,32.83 L549.633,4.9 L536.697,4.9 L536.207,16.464 C536.109,18.7506667 535.896667,20.874 535.57,22.834 C535.243333,24.794 534.892167,26.362 534.5165,27.538 C534.140833,28.714 533.757,29.7266667 533.365,30.576 C532.973,31.4253333 532.662667,32.0133333 532.434,32.34 C532.205333,32.6666667 532.074667,32.83 532.042,32.83 Z" id="Shape"></path>
                    <path d="M581.924,37.73 C576.207333,37.73 571.764667,35.9251667 568.596,32.3155 C565.427333,28.7058333 563.843,24.1733333 563.843,18.718 C563.843,13.3933333 565.517167,8.9425 568.8655,5.3655 C572.213833,1.7885 576.566667,0 581.924,0 C583.884,0 585.697,0.204166667 587.363,0.6125 C589.029,1.02083333 590.335667,1.51083333 591.283,2.0825 C592.230333,2.65416667 593.030667,3.234 593.684,3.822 C594.337333,4.41 594.778333,4.9 595.007,5.292 L595.399,5.929 L595.399,9.359 L591.479,9.359 C591.479,9.29366667 591.4055,9.114 591.2585,8.82 C591.1115,8.526 590.8175,8.12583333 590.3765,7.6195 C589.9355,7.11316667 589.388333,6.62316667 588.735,6.1495 C588.081667,5.67583333 587.167,5.2675 585.991,4.9245 C584.815,4.5815 583.508333,4.41 582.071,4.41 C578.151,4.41 575.031333,5.7575 572.712,8.4525 C570.392667,11.1475 569.233,14.5693333 569.233,18.718 C569.233,22.8666667 570.392667,26.3293333 572.712,29.106 C575.031333,31.8826667 578.151,33.271 582.071,33.271 C583.475667,33.271 584.774167,33.0913333 585.9665,32.732 C587.158833,32.3726667 588.089833,31.9398333 588.7595,31.4335 C589.429167,30.9271667 590.000833,30.429 590.4745,29.939 C590.948167,29.449 591.283,29.0243333 591.479,28.665 L591.724,28.126 L595.644,28.126 L595.644,31.556 L595.448,31.85 C595.317333,32.0786667 595.0805,32.3808333 594.7375,32.7565 C594.3945,33.1321667 593.994333,33.5405 593.537,33.9815 C593.079667,34.4225 592.467167,34.8635 591.6995,35.3045 C590.931833,35.7455 590.098833,36.1456667 589.2005,36.505 C588.302167,36.8643333 587.216,37.1583333 585.942,37.387 C584.668,37.6156667 583.328667,37.73 581.924,37.73 Z" id="Path"></path>
                    <polygon id="Path" points="615.587 37.24 610.197 37.24 610.197 4.9 598.437 4.9 598.437 0.49 627.347 0.49 627.347 4.9 615.587 4.9"></polygon>
                    <path d="M644.938,37.24 L632.933,37.24 L632.933,0.49 L644.742,0.49 C648.237333,0.49 651.014,1.372 653.072,3.136 C655.13,4.9 656.159,7.252 656.159,10.192 C656.159,11.956 655.750667,13.4913333 654.934,14.798 C654.117333,16.1046667 652.957667,17.0846667 651.455,17.738 C653.382333,18.3913333 654.868667,19.4693333 655.914,20.972 C656.959333,22.4746667 657.482,24.255 657.482,26.313 C657.482,29.645 656.363167,32.2991667 654.1255,34.2755 C651.887833,36.2518333 648.825333,37.24 644.938,37.24 Z M638.176,4.802 L638.176,16.023 L644.35,16.023 C646.375333,16.023 647.9515,15.5085 649.0785,14.4795 C650.2055,13.4505 650.769,12.0866667 650.769,10.388 C650.769,8.82 650.23,7.497 649.152,6.419 C648.074,5.341 646.587667,4.802 644.693,4.802 L638.176,4.802 Z M638.176,20.237 L638.176,32.928 L644.987,32.928 C647.175667,32.928 648.907,32.2991667 650.181,31.0415 C651.455,29.7838333 652.092,28.224 652.092,26.362 C652.092,24.5 651.487667,23.0136667 650.279,21.903 C649.070333,20.7923333 647.322667,20.237 645.036,20.237 L638.176,20.237 Z" id="Shape"></path>
                    <polygon id="Path" points="685.755 37.24 664.636 37.24 664.636 0.49 685.755 0.49 685.755 4.9 670.026 4.9 670.026 16.17 684.285 16.17 684.285 20.58 670.026 20.58 670.026 32.83 685.755 32.83"></polygon>
                    <polygon id="Path" points="698.446 37.24 693.056 37.24 693.056 0.49 698.446 0.49 698.446 16.17 716.086 16.17 716.086 0.49 721.476 0.49 721.476 37.24 716.086 37.24 716.086 20.58 698.446 20.58"></polygon>
                    <polygon id="Path" points="736.176 37.24 730.786 37.24 730.786 0.49 736.176 0.49 736.176 16.17 753.816 16.17 753.816 0.49 759.206 0.49 759.206 37.24 753.816 37.24 753.816 20.58 736.176 20.58"></polygon>
                    <path d="M779.345,37.24 L768.516,37.24 L768.516,0.49 L773.906,0.49 L773.906,13.965 L779.345,13.965 C783.232333,13.965 786.368333,14.9776667 788.753,17.003 C791.072333,19.061 792.232,21.7723333 792.232,25.137 C792.232,28.5016667 791.096833,31.36 788.8265,33.712 C786.556167,36.064 783.395667,37.24 779.345,37.24 Z M802.326,37.24 L796.936,37.24 L796.936,0.49 L802.326,0.49 L802.326,37.24 Z M773.906,18.375 L773.906,32.83 L779.296,32.83 C781.615333,32.83 783.452833,32.144 784.8085,30.772 C786.164167,29.4 786.842,27.587 786.842,25.333 C786.842,23.5036667 786.188667,21.8866667 784.882,20.482 C783.575333,19.0773333 781.713333,18.375 779.296,18.375 L773.906,18.375 Z" id="Shape"></path>
                    <polygon id="Path" points="831.04 27.685 827.365 27.685 816.536 7.056 816.536 37.24 811.636 37.24 811.636 0.49 818.398 0.49 829.619 21.168 840.546 0.49 847.259 0.49 847.259 37.24 841.869 37.24 841.869 7.056"></polygon>
                    <path d="M898.121,32.389 C894.756333,35.9496667 890.362667,37.73 884.94,37.73 C879.517333,37.73 875.123667,35.9415 871.759,32.3645 C868.394333,28.7875 866.712,24.2386667 866.712,18.718 C866.712,13.2626667 868.394333,8.77916667 871.759,5.2675 C875.123667,1.75583333 879.517333,0 884.94,0 C890.362667,0 894.756333,1.75583333 898.121,5.2675 C901.485667,8.77916667 903.168,13.2626667 903.168,18.718 C903.168,24.2386667 901.485667,28.7956667 898.121,32.389 Z M875.581,29.253 C877.933,31.9643333 881.052667,33.32 884.94,33.32 C888.827333,33.32 891.938833,31.9643333 894.2745,29.253 C896.610167,26.5416667 897.778,23.03 897.778,18.718 C897.778,14.5366667 896.610167,11.1066667 894.2745,8.428 C891.938833,5.74933333 888.827333,4.41 884.94,4.41 C881.052667,4.41 877.941167,5.74933333 875.6055,8.428 C873.269833,11.1066667 872.102,14.5366667 872.102,18.718 C872.102,23.03 873.261667,26.5416667 875.581,29.253 Z" id="Shape"></path>
                    <path d="M921.984,37.24 L910.175,37.24 L910.175,0.49 L932.274,0.49 L932.274,4.9 L915.565,4.9 L915.565,14.945 L921.984,14.945 C925.936667,14.945 929.072667,15.8923333 931.392,17.787 C933.711333,19.6816667 934.871,22.295 934.871,25.627 C934.871,28.9263333 933.744,31.6866667 931.49,33.908 C929.236,36.1293333 926.067333,37.24 921.984,37.24 Z M915.565,19.355 L915.565,32.83 L921.935,32.83 C924.287,32.83 926.132667,32.2175 927.472,30.9925 C928.811333,29.7675 929.481,28.0443333 929.481,25.823 C929.481,23.9283333 928.811333,22.3766667 927.472,21.168 C926.132667,19.9593333 924.287,19.355 921.935,19.355 L915.565,19.355 Z" id="Shape"></path>
                    <path d="M956.088,37.24 L945.259,37.24 L945.259,4.9 L937.419,4.9 L937.419,0.49 L950.649,0.49 L950.649,13.965 L956.088,13.965 C959.975333,13.965 963.111333,14.9776667 965.496,17.003 C967.815333,19.061 968.975,21.7723333 968.975,25.137 C968.975,28.5016667 967.839833,31.36 965.5695,33.712 C963.299167,36.064 960.138667,37.24 956.088,37.24 Z M950.649,18.375 L950.649,32.83 L956.039,32.83 C958.358333,32.83 960.195833,32.144 961.5515,30.772 C962.907167,29.4 963.585,27.587 963.585,25.333 C963.585,23.5036667 962.931667,21.8866667 961.625,20.482 C960.318333,19.0773333 958.456333,18.375 956.039,18.375 L950.649,18.375 Z" id="Shape"></path>
                    <polygon id="Path" points="996.268 37.24 975.149 37.24 975.149 0.49 996.268 0.49 996.268 4.9 980.539 4.9 980.539 16.17 994.798 16.17 994.798 20.58 980.539 20.58 980.539 32.83 996.268 32.83"></polygon>
                    <polygon id="Path" points="1025.864 37.24 1008.959 19.649 1008.959 37.24 1003.569 37.24 1003.569 0.49 1008.959 0.49 1008.959 17.983 1024.982 0.49 1028.412 0.49 1028.412 3.92 1014.888 18.424 1029.539 33.565 1029.539 37.24"></polygon>
                    <polygon id="Path" points="1048.796 37.24 1043.406 37.24 1043.406 4.9 1031.646 4.9 1031.646 0.49 1060.556 0.49 1060.556 4.9 1048.796 4.9"></polygon>
                    <path d="M1070.16,27.44 L1066.24,37.24 L1062.32,37.24 L1062.32,33.81 L1076.089,0.49 L1080.254,0.49 L1093.925,33.32 L1093.925,37.24 L1090.005,37.24 L1086.036,27.44 L1070.16,27.44 Z M1071.924,23.03 L1084.272,23.03 L1078.098,7.693 L1071.924,23.03 Z" id="Shape"></path>
                    <polygon id="Path" points="1118.915 27.685 1115.24 27.685 1104.411 7.056 1104.411 37.24 1099.511 37.24 1099.511 0.49 1106.273 0.49 1117.494 21.168 1128.421 0.49 1135.134 0.49 1135.134 37.24 1129.744 37.24 1129.744 7.056"></polygon>
                </g>
            </g>
        </g>
    </g>
</svg>