<?xml version="1.0" encoding="UTF-8"?>
<svg width="72px" height="56px" viewBox="0 0 72 56" version="1.1" xmlns="http://www.w3.org/2000/svg" xmlns:xlink="http://www.w3.org/1999/xlink">
    <title>help-hover</title>
    <g id="PanoTour" stroke="none" stroke-width="1" fill="none" fill-rule="evenodd">
        <g id="pano-1920x1080" transform="translate(-56, -816)">
            <g id="help-hover" transform="translate(56, 816)">
                <g id="row-copy-7" transform="translate(16, 8)" fill="#000000" fill-opacity="0.26">
                    <circle id="Oval" cx="20" cy="20" r="20"></circle>
                </g>
                <rect id="72x56" x="0" y="0" width="72" height="56"></rect>
                <g id="?" transform="translate(30.11, 17.61)" fill="#FFFFFF" fill-rule="nonzero">
                    <path d="M3.69,15.87 C3.61,14.87 3.685,14.01 3.915,13.29 C4.145,12.57 4.46,11.93 4.86,11.37 C5.26,10.81 5.705,10.31 6.195,9.87 C6.685,9.43 7.145,8.99 7.575,8.55 C8.005,8.11 8.365,7.64 8.655,7.14 C8.945,6.64 9.09,6.06 9.09,5.4 C9.09,4.52 8.825,3.8 8.295,3.24 C7.765,2.68 6.84,2.4 5.52,2.4 C4.72,2.4 3.905,2.55 3.075,2.85 C2.245,3.15 1.54,3.47 0.96,3.81 L0,1.65 C0.84,1.13 1.73,0.725 2.67,0.435 C3.61,0.145 4.77,0 6.15,0 C7.13,0 7.99,0.13 8.73,0.39 C9.47,0.65 10.09,1.005 10.59,1.455 C11.09,1.905 11.465,2.435 11.715,3.045 C11.965,3.655 12.09,4.31 12.09,5.01 C12.09,5.95 11.94,6.755 11.64,7.425 C11.34,8.095 10.97,8.69 10.53,9.21 C10.09,9.73 9.61,10.21 9.09,10.65 C8.57,11.09 8.09,11.555 7.65,12.045 C7.21,12.535 6.84,13.08 6.54,13.68 C6.24,14.28 6.09,15.01 6.09,15.87 L3.69,15.87 Z M3.03,19.86 C3.03,19.28 3.215,18.82 3.585,18.48 C3.955,18.14 4.44,17.97 5.04,17.97 C5.64,17.97 6.125,18.14 6.495,18.48 C6.865,18.82 7.05,19.28 7.05,19.86 C7.05,20.4 6.865,20.85 6.495,21.21 C6.125,21.57 5.64,21.75 5.04,21.75 C4.44,21.75 3.955,21.57 3.585,21.21 C3.215,20.85 3.03,20.4 3.03,19.86 Z" id="Shape"></path>
                </g>
            </g>
        </g>
    </g>
</svg>