<?xml version="1.0" encoding="UTF-8"?>
<svg width="441px" height="325px" viewBox="0 0 441 325" version="1.1" xmlns="http://www.w3.org/2000/svg" xmlns:xlink="http://www.w3.org/1999/xlink">
    <title>cover-logo</title>
    <defs>
        <rect id="path-1" x="0" y="0" width="220" height="220"></rect>
        <polygon id="path-3" points="4.288 24.896 0 24.896 0 0.896 18.88 0.896 18.88 24.896 14.592 24.896 14.592 4.48 4.288 4.48"></polygon>
        <path d="M27.84,32.896 L23.968,32.896 L23.968,8.832 L27.52,8.832 L27.808,11.264 C29.088,9.38666667 30.9226667,8.448 33.312,8.448 C35.5733333,8.448 37.3653333,9.248 38.688,10.848 C40.0106667,12.448 40.672,14.4426667 40.672,16.832 C40.672,19.2213333 40,21.2266667 38.656,22.848 C37.312,24.4693333 35.5306667,25.28 33.312,25.28 C30.944,25.28 29.12,24.3626667 27.84,22.528 L27.84,32.896 Z M32.32,21.888 C33.792,21.888 34.9013333,21.3866667 35.648,20.384 C36.3946667,19.3813333 36.768,18.1973333 36.768,16.832 C36.768,15.488 36.3946667,14.3146667 35.648,13.312 C34.9226667,12.3306667 33.8133333,11.84 32.32,11.84 C30.9333333,11.84 29.8453333,12.32 29.056,13.28 C28.2453333,14.2826667 27.84,15.4666667 27.84,16.832 C27.84,18.1973333 28.2453333,19.3813333 29.056,20.384 C29.8666667,21.3866667 30.9546667,21.888 32.32,21.888 Z" id="path-4"></path>
        <path d="M51.584,25.28 C49.0453333,25.28 47.024,24.4746667 45.52,22.864 C44.016,21.2533333 43.264,19.2426667 43.264,16.832 C43.264,14.4426667 44.0106667,12.448 45.504,10.848 C46.9973333,9.248 49.024,8.448 51.584,8.448 C54.1013333,8.448 56.112,9.248 57.616,10.848 C59.12,12.448 59.872,14.4426667 59.872,16.832 C59.872,19.2213333 59.12,21.2266667 57.616,22.848 C56.112,24.4693333 54.1013333,25.28 51.584,25.28 Z M48.256,20.448 C49.0026667,21.4506667 50.112,21.952 51.584,21.952 C53.056,21.952 54.1653333,21.4506667 54.912,20.448 C55.616,19.4666667 55.968,18.2613333 55.968,16.832 C55.968,15.4666667 55.616,14.2826667 54.912,13.28 C54.1653333,12.2773333 53.056,11.776 51.584,11.776 C50.112,11.776 49.0026667,12.2773333 48.256,13.28 C47.5306667,14.2613333 47.168,15.4453333 47.168,16.832 C47.168,18.2613333 47.5306667,19.4666667 48.256,20.448 Z" id="path-5"></path>
        <polygon id="path-6" points="67.008 24.896 63.392 24.896 63.392 8.832 67.264 8.832 67.264 19.36 74.688 8.832 78.336 8.832 78.336 24.896 74.432 24.896 74.432 14.336"></polygon>
        <path d="M88.256,25.28 C86.5066667,25.28 85.1306667,24.9706667 84.128,24.352 C83.1253333,23.7546667 82.3786667,23.1146667 81.888,22.432 L81.888,20.32 L84.704,20.32 C85.344,21.5786667 86.5066667,22.208 88.192,22.208 C90.1973333,22.208 91.2,21.504 91.2,20.096 C91.2,18.816 90.2186667,18.176 88.256,18.176 L85.696,18.176 L85.696,15.392 L88.128,15.392 C89.792,15.392 90.624,14.7413333 90.624,13.44 C90.624,12.8426667 90.4053333,12.3733333 89.968,12.032 C89.5306667,11.6906667 88.896,11.52 88.064,11.52 C86.4853333,11.52 85.3973333,12.1493333 84.8,13.408 L82.048,13.408 L82.048,11.264 C82.4746667,10.6026667 83.1786667,9.97333333 84.16,9.376 C85.1413333,8.75733333 86.5386667,8.448 88.352,8.448 C90.2293333,8.448 91.7066667,8.83733333 92.784,9.616 C93.8613333,10.3946667 94.4,11.488 94.4,12.896 C94.4,14.5813333 93.6106667,15.7653333 92.032,16.448 C94.016,17.1093333 95.008,18.4 95.008,20.32 C95.008,21.8773333 94.4213333,23.0933333 93.248,23.968 C92.0746667,24.8426667 90.4106667,25.28 88.256,25.28 Z" id="path-7"></path>
        <path d="M106.464,24.896 L98.56,24.896 L98.56,8.768 L106.112,8.768 C107.84,8.768 109.226667,9.13066667 110.272,9.856 C111.317333,10.5813333 111.84,11.6266667 111.84,12.992 C111.84,14.6133333 111.04,15.744 109.44,16.384 C110.4,16.6613333 111.146667,17.1253333 111.68,17.776 C112.213333,18.4266667 112.48,19.2 112.48,20.096 C112.48,21.6746667 111.936,22.8693333 110.848,23.68 C109.76,24.4906667 108.298667,24.896 106.464,24.896 Z M102.368,11.648 L102.368,15.104 L105.696,15.104 C107.125333,15.104 107.84,14.5173333 107.84,13.344 C107.84,12.2133333 107.125333,11.648 105.696,11.648 L102.368,11.648 Z M102.368,18.016 L102.368,21.984 L105.888,21.984 C107.616,21.984 108.48,21.3226667 108.48,20 C108.48,18.6773333 107.616,18.016 105.888,18.016 L102.368,18.016 Z" id="path-8"></path>
        <path d="M123.392,25.28 C120.853333,25.28 118.832,24.4746667 117.328,22.864 C115.824,21.2533333 115.072,19.2426667 115.072,16.832 C115.072,14.4426667 115.818667,12.448 117.312,10.848 C118.805333,9.248 120.832,8.448 123.392,8.448 C125.909333,8.448 127.92,9.248 129.424,10.848 C130.928,12.448 131.68,14.4426667 131.68,16.832 C131.68,19.2213333 130.928,21.2266667 129.424,22.848 C127.92,24.4693333 125.909333,25.28 123.392,25.28 Z M120.064,20.448 C120.810667,21.4506667 121.92,21.952 123.392,21.952 C124.864,21.952 125.973333,21.4506667 126.72,20.448 C127.424,19.4666667 127.776,18.2613333 127.776,16.832 C127.776,15.4666667 127.424,14.2826667 126.72,13.28 C125.973333,12.2773333 124.864,11.776 123.392,11.776 C121.92,11.776 120.810667,12.2773333 120.064,13.28 C119.338667,14.2613333 118.976,15.4453333 118.976,16.832 C118.976,18.2613333 119.338667,19.4666667 120.064,20.448 Z" id="path-9"></path>
        <path d="M136.896,29.376 L133.376,29.376 L133.376,21.792 L135.04,21.792 C135.829333,21.1946667 136.341333,19.3706667 136.576,16.32 L137.088,8.832 L149.536,8.832 L149.536,21.792 L152.032,21.792 L152.032,29.376 L148.512,29.376 L148.512,24.896 L136.896,24.896 L136.896,29.376 Z M138.784,21.792 L145.696,21.792 L145.696,11.904 L140.32,11.904 L139.936,16.832 C139.808,19.0293333 139.424,20.6826667 138.784,21.792 Z" id="path-10"></path>
        <path d="M162.496,25.28 C159.850667,25.28 157.813333,24.4853333 156.384,22.896 C154.954667,21.3066667 154.24,19.296 154.24,16.864 C154.24,14.4533333 154.986667,12.4426667 156.48,10.832 C157.973333,9.22133333 159.978667,8.416 162.496,8.416 C163.456,8.416 164.336,8.528 165.136,8.752 C165.936,8.976 166.554667,9.248 166.992,9.568 C167.429333,9.888 167.797333,10.2133333 168.096,10.544 C168.394667,10.8746667 168.597333,11.1573333 168.704,11.392 L168.832,11.712 L168.832,13.824 L166.112,13.824 L166.08,13.696 C166.058667,13.632 166.010667,13.536 165.936,13.408 C165.861333,13.28 165.765333,13.1466667 165.648,13.008 C165.530667,12.8693333 165.376,12.72 165.184,12.56 C164.992,12.4 164.778667,12.2613333 164.544,12.144 C164.309333,12.0266667 164.010667,11.9306667 163.648,11.856 C163.285333,11.7813333 162.901333,11.744 162.496,11.744 C161.088,11.744 160.010667,12.224 159.264,13.184 C158.517333,14.144 158.144,15.3706667 158.144,16.864 C158.144,18.3573333 158.517333,19.5786667 159.264,20.528 C160.010667,21.4773333 161.088,21.952 162.496,21.952 C162.837333,21.952 163.157333,21.9306667 163.456,21.888 C163.754667,21.8453333 164.016,21.7813333 164.24,21.696 C164.464,21.6106667 164.666667,21.5146667 164.848,21.408 C165.029333,21.3013333 165.184,21.1946667 165.312,21.088 C165.44,20.9813333 165.557333,20.864 165.664,20.736 C165.770667,20.608 165.850667,20.496 165.904,20.4 C165.957333,20.304 166.005333,20.2133333 166.048,20.128 C166.090667,20.0426667 166.122667,19.9786667 166.144,19.936 L166.144,19.872 L168.864,19.872 L168.864,21.984 C168.821333,22.0693333 168.762667,22.1866667 168.688,22.336 C168.613333,22.4853333 168.416,22.752 168.096,23.136 C167.776,23.52 167.402667,23.856 166.976,24.144 C166.549333,24.432 165.936,24.6933333 165.136,24.928 C164.336,25.1626667 163.456,25.28 162.496,25.28 Z" id="path-11"></path>
        <polygon id="path-12" points="179.68 24.896 175.808 24.896 175.808 12.064 170.88 12.064 170.88 8.832 184.608 8.832 184.608 12.064 179.68 12.064"></polygon>
        <path d="M195.392,24.896 L187.488,24.896 L187.488,8.768 L195.04,8.768 C196.768,8.768 198.154667,9.13066667 199.2,9.856 C200.245333,10.5813333 200.768,11.6266667 200.768,12.992 C200.768,14.6133333 199.968,15.744 198.368,16.384 C199.328,16.6613333 200.074667,17.1253333 200.608,17.776 C201.141333,18.4266667 201.408,19.2 201.408,20.096 C201.408,21.6746667 200.864,22.8693333 199.776,23.68 C198.688,24.4906667 197.226667,24.896 195.392,24.896 Z M191.296,11.648 L191.296,15.104 L194.624,15.104 C196.053333,15.104 196.768,14.5173333 196.768,13.344 C196.768,12.2133333 196.053333,11.648 194.624,11.648 L191.296,11.648 Z M191.296,18.016 L191.296,21.984 L194.816,21.984 C196.544,21.984 197.408,21.3226667 197.408,20 C197.408,18.6773333 196.544,18.016 194.816,18.016 L191.296,18.016 Z" id="path-13"></path>
        <path d="M212.48,25.28 C209.749333,25.28 207.653333,24.5066667 206.192,22.96 C204.730667,21.4133333 204,19.3813333 204,16.864 C204,14.4533333 204.725333,12.448 206.176,10.848 C207.626667,9.248 209.621333,8.448 212.16,8.448 C214.677333,8.448 216.565333,9.11466667 217.824,10.448 C219.082667,11.7813333 219.712,13.536 219.712,15.712 L219.552,17.6 L207.904,17.6 C208.010667,18.9866667 208.458667,20.0746667 209.248,20.864 C210.037333,21.6533333 211.125333,22.048 212.512,22.048 C212.96,22.048 213.381333,22.016 213.776,21.952 C214.170667,21.888 214.506667,21.808 214.784,21.712 C215.061333,21.616 215.306667,21.504 215.52,21.376 C215.733333,21.248 215.904,21.12 216.032,20.992 C216.16,20.864 216.266667,20.752 216.352,20.656 C216.437333,20.56 216.501333,20.48 216.544,20.416 L216.576,20.32 L219.392,20.32 L219.392,22.432 C219.349333,22.5173333 219.28,22.624 219.184,22.752 C219.088,22.88 218.853333,23.104 218.48,23.424 C218.106667,23.744 217.68,24.032 217.2,24.288 C216.72,24.544 216.058667,24.7733333 215.216,24.976 C214.373333,25.1786667 213.461333,25.28 212.48,25.28 Z M208.032,14.976 L215.936,14.976 C215.936,14.016 215.610667,13.2213333 214.96,12.592 C214.309333,11.9626667 213.376,11.648 212.16,11.648 C209.877333,11.648 208.501333,12.7573333 208.032,14.976 Z" id="path-14"></path>
        <polygon id="path-15" points="227.136 24.896 223.264 24.896 223.264 8.832 227.136 8.832 227.136 15.04 233.984 15.04 233.984 8.832 237.888 8.832 237.888 24.896 233.984 24.896 233.984 18.304 227.136 18.304"></polygon>
        <polygon id="path-16" points="246.24 24.896 242.368 24.896 242.368 8.832 246.24 8.832 246.24 15.04 253.088 15.04 253.088 8.832 256.992 8.832 256.992 24.896 253.088 24.896 253.088 18.304 246.24 18.304"></polygon>
        <path d="M268.192,24.896 L261.472,24.896 L261.472,8.832 L265.344,8.832 L265.344,14.016 L268.256,14.016 C270.453333,14.016 272.122667,14.5013333 273.264,15.472 C274.405333,16.4426667 274.976,17.728 274.976,19.328 C274.976,20.9066667 274.432,22.2186667 273.344,23.264 C272.213333,24.352 270.496,24.896 268.192,24.896 Z M280.864,24.896 L276.992,24.896 L276.992,8.832 L280.864,8.832 L280.864,24.896 Z M265.344,17.024 L265.344,21.888 L267.904,21.888 C269.930667,21.888 270.944,21.0453333 270.944,19.36 C270.944,17.8026667 269.930667,17.024 267.904,17.024 L265.344,17.024 Z" id="path-17"></path>
        <path d="M292.864,25.28 C290.133333,25.28 288.037333,24.5066667 286.576,22.96 C285.114667,21.4133333 284.384,19.3813333 284.384,16.864 C284.384,14.4533333 285.109333,12.448 286.56,10.848 C288.010667,9.248 290.005333,8.448 292.544,8.448 C295.061333,8.448 296.949333,9.11466667 298.208,10.448 C299.466667,11.7813333 300.096,13.536 300.096,15.712 L299.936,17.6 L288.288,17.6 C288.394667,18.9866667 288.842667,20.0746667 289.632,20.864 C290.421333,21.6533333 291.509333,22.048 292.896,22.048 C293.344,22.048 293.765333,22.016 294.16,21.952 C294.554667,21.888 294.890667,21.808 295.168,21.712 C295.445333,21.616 295.690667,21.504 295.904,21.376 C296.117333,21.248 296.288,21.12 296.416,20.992 C296.544,20.864 296.650667,20.752 296.736,20.656 C296.821333,20.56 296.885333,20.48 296.928,20.416 L296.96,20.32 L299.776,20.32 L299.776,22.432 C299.733333,22.5173333 299.664,22.624 299.568,22.752 C299.472,22.88 299.237333,23.104 298.864,23.424 C298.490667,23.744 298.064,24.032 297.584,24.288 C297.104,24.544 296.442667,24.7733333 295.6,24.976 C294.757333,25.1786667 293.845333,25.28 292.864,25.28 Z M288.416,14.976 L296.32,14.976 C296.32,14.016 295.994667,13.2213333 295.344,12.592 C294.693333,11.9626667 293.76,11.648 292.544,11.648 C290.261333,11.648 288.885333,12.7573333 288.416,14.976 Z" id="path-18"></path>
        <path d="M318.88,25.28 C316.341333,25.28 314.32,24.4746667 312.816,22.864 C311.312,21.2533333 310.56,19.2426667 310.56,16.832 C310.56,14.4426667 311.306667,12.448 312.8,10.848 C314.293333,9.248 316.32,8.448 318.88,8.448 C321.397333,8.448 323.408,9.248 324.912,10.848 C326.416,12.448 327.168,14.4426667 327.168,16.832 C327.168,19.2213333 326.416,21.2266667 324.912,22.848 C323.408,24.4693333 321.397333,25.28 318.88,25.28 Z M315.552,20.448 C316.298667,21.4506667 317.408,21.952 318.88,21.952 C320.352,21.952 321.461333,21.4506667 322.208,20.448 C322.912,19.4666667 323.264,18.2613333 323.264,16.832 C323.264,15.4666667 322.912,14.2826667 322.208,13.28 C321.461333,12.2773333 320.352,11.776 318.88,11.776 C317.408,11.776 316.298667,12.2773333 315.552,13.28 C314.826667,14.2613333 314.464,15.4453333 314.464,16.832 C314.464,18.2613333 314.826667,19.4666667 315.552,20.448 Z" id="path-19"></path>
        <path d="M338.592,25.28 C335.946667,25.28 333.893333,24.4266667 332.432,22.72 C330.970667,21.0133333 330.24,18.6026667 330.24,15.488 L330.24,12.768 C330.24,11.0826667 330.368,9.62133333 330.624,8.384 C330.88,7.14666667 331.317333,6.00533333 331.936,4.96 C332.554667,3.91466667 333.450667,3.08266667 334.624,2.464 C335.797333,1.84533333 337.237333,1.44 338.944,1.248 L340.8,1.056 C341.802667,0.970666667 342.474667,0.768 342.816,0.448 L343.264,0 L345.952,0 L345.952,2.112 C345.589333,2.816 345.050667,3.33333333 344.336,3.664 C343.621333,3.99466667 342.538667,4.23466667 341.088,4.384 L338.976,4.64 C336.906667,4.85333333 335.498667,5.51466667 334.752,6.624 C334.005333,7.712 333.621333,9.48266667 333.6,11.936 C334.069333,10.8906667 334.805333,10.0586667 335.808,9.44 C336.810667,8.82133333 337.962667,8.512 339.264,8.512 C341.589333,8.512 343.445333,9.30666667 344.832,10.896 C346.218667,12.4853333 346.912,14.4746667 346.912,16.864 C346.912,19.232 346.149333,21.2266667 344.624,22.848 C343.098667,24.4693333 341.088,25.28 338.592,25.28 Z M335.296,20.512 C336.085333,21.472 337.184,21.952 338.592,21.952 C340,21.952 341.093333,21.472 341.872,20.512 C342.650667,19.552 343.04,18.336 343.04,16.864 C343.04,15.4986667 342.666667,14.3146667 341.92,13.312 C341.194667,12.3306667 340.085333,11.84 338.592,11.84 C337.077333,11.84 335.957333,12.3306667 335.232,13.312 C334.485333,14.3146667 334.112,15.4986667 334.112,16.864 C334.112,18.336 334.506667,19.552 335.296,20.512 Z" id="path-20"></path>
        <path d="M359.936,24.896 L353.184,24.896 L353.184,11.936 L348.832,11.936 L348.832,8.832 L357.088,8.832 L357.088,14.016 L359.968,14.016 C362.165333,14.016 363.834667,14.5013333 364.976,15.472 C366.117333,16.4426667 366.688,17.728 366.688,19.328 C366.688,20.9066667 366.144,22.2186667 365.056,23.264 C363.925333,24.352 362.218667,24.896 359.936,24.896 Z M357.088,17.024 L357.088,21.888 L359.648,21.888 C361.653333,21.888 362.656,21.0453333 362.656,19.36 C362.656,17.8026667 361.653333,17.024 359.648,17.024 L357.088,17.024 Z" id="path-21"></path>
        <path d="M377.312,25.28 C374.581333,25.28 372.485333,24.5066667 371.024,22.96 C369.562667,21.4133333 368.832,19.3813333 368.832,16.864 C368.832,14.4533333 369.557333,12.448 371.008,10.848 C372.458667,9.248 374.453333,8.448 376.992,8.448 C379.509333,8.448 381.397333,9.11466667 382.656,10.448 C383.914667,11.7813333 384.544,13.536 384.544,15.712 L384.384,17.6 L372.736,17.6 C372.842667,18.9866667 373.290667,20.0746667 374.08,20.864 C374.869333,21.6533333 375.957333,22.048 377.344,22.048 C377.792,22.048 378.213333,22.016 378.608,21.952 C379.002667,21.888 379.338667,21.808 379.616,21.712 C379.893333,21.616 380.138667,21.504 380.352,21.376 C380.565333,21.248 380.736,21.12 380.864,20.992 C380.992,20.864 381.098667,20.752 381.184,20.656 C381.269333,20.56 381.333333,20.48 381.376,20.416 L381.408,20.32 L384.224,20.32 L384.224,22.432 C384.181333,22.5173333 384.112,22.624 384.016,22.752 C383.92,22.88 383.685333,23.104 383.312,23.424 C382.938667,23.744 382.512,24.032 382.032,24.288 C381.552,24.544 380.890667,24.7733333 380.048,24.976 C379.205333,25.1786667 378.293333,25.28 377.312,25.28 Z M372.864,14.976 L380.768,14.976 C380.768,14.016 380.442667,13.2213333 379.792,12.592 C379.141333,11.9626667 378.208,11.648 376.992,11.648 C374.709333,11.648 373.333333,12.7573333 372.864,14.976 Z" id="path-22"></path>
        <polygon id="path-23" points="391.968 24.896 388.096 24.896 388.096 8.832 391.968 8.832 391.968 15.776 398.56 8.832 401.472 8.832 401.472 10.944 396.16 16.48 402.016 22.656 402.016 24.896 398.784 24.896 391.968 17.472"></polygon>
        <polygon id="path-24" points="412.416 24.896 408.544 24.896 408.544 12.064 403.616 12.064 403.616 8.832 417.344 8.832 417.344 12.064 412.416 12.064"></polygon>
        <path d="M426.944,24.896 L420.224,24.896 L420.224,8.832 L424.096,8.832 L424.096,14.016 L427.008,14.016 C429.205333,14.016 430.874667,14.5013333 432.016,15.472 C433.157333,16.4426667 433.728,17.728 433.728,19.328 C433.728,20.9066667 433.184,22.2186667 432.096,23.264 C430.965333,24.352 429.248,24.896 426.944,24.896 Z M439.616,24.896 L435.744,24.896 L435.744,8.832 L439.616,8.832 L439.616,24.896 Z M424.096,17.024 L424.096,21.888 L426.656,21.888 C428.682667,21.888 429.696,21.0453333 429.696,19.36 C429.696,17.8026667 428.682667,17.024 426.656,17.024 L424.096,17.024 Z" id="path-25"></path>
        <polygon id="path-26" points="190.816 66.896 186.528 66.896 186.528 42.896 190.816 42.896 190.816 60.496 202.016 42.896 206.272 42.896 206.272 66.896 202.016 66.896 202.016 49.488"></polygon>
        <polygon id="path-27" points="216.224 66.896 211.968 66.896 211.968 42.896 216.224 42.896 216.224 52.784 226.848 52.784 226.848 42.896 231.136 42.896 231.136 66.896 226.848 66.896 226.848 56.368 216.224 56.368"></polygon>
        <polygon id="path-28" points="251.328 66.896 241.088 55.856 241.088 66.896 236.832 66.896 236.832 42.896 241.088 42.896 241.088 53.84 250.816 42.896 253.888 42.896 253.888 45.2 245.472 54.512 254.688 64.464 254.688 66.896"></polygon>
    </defs>
    <g id="PanoTour" stroke="none" stroke-width="1" fill="none" fill-rule="evenodd">
        <g id="cover--1920x1080" transform="translate(-741, -320)">
            <g id="cover-logo" transform="translate(741.496, 320)">
                <g id="icon/logo-ink" transform="translate(109.504, 0)">
                    <mask id="mask-2" fill="white">
                        <use xlink:href="#path-1"></use>
                    </mask>
                    <g id="Clip" fill-rule="nonzero"></g>
                    <path d="M114.536555,182.510612 L114.536555,206.279498 C114.536555,206.721303 114.892349,207.074732 115.337089,206.986368 C120.940837,206.544569 126.36668,205.572607 131.525681,203.893762 C131.792524,203.805405 132.059366,203.540333 132.059366,203.186892 L132.059366,144.869199 C132.059366,144.515758 131.792524,144.162315 131.436736,144.162315 C126.188783,143.543794 120.762933,143.190351 115.337089,143.01363 C114.892349,143.01363 114.536555,143.367074 114.536555,143.720514 L114.536555,164.750232 L105.108033,164.750232 L105.108033,143.720514 C105.108033,143.278714 104.752238,142.92527 104.307498,143.01363 C98.7927029,143.190351 93.4558048,143.543789 88.2078519,144.073949 C87.8520574,144.073949 87.5852082,144.427393 87.5852082,144.780833 L87.5852082,203.275249 C87.5852082,203.628684 87.7631088,203.893769 88.1189033,203.982132 C93.2779075,205.48425 98.703751,206.544576 104.307498,206.898017 C104.752238,206.898017 105.108033,206.544576 105.108033,206.191134 L105.108033,182.333894 L114.536555,182.333894 L114.536555,182.510612 Z M82.6026468,144.95507 C75.9315224,145.927031 69.4382953,147.164081 63.3898081,148.842923 C63.2119124,148.931284 63.0340152,149.019644 62.9450666,149.284724 L55.3844575,164.836099 L54.1391816,164.836099 L54.1391816,152.642398 C54.1391816,152.112237 53.6054914,151.758808 53.1607499,151.935529 C48.7133323,153.526011 44.5327606,155.204847 40.6190339,157.14877 C40.1325526,157.363555 39.6789193,157.61097 39.2381725,157.851356 C38.9536433,158.006542 38.6744843,158.158799 38.3953254,158.297456 C38.0395321,158.474175 37.8616361,158.915969 38.1284811,159.269409 C43.9101229,170.137705 50.9370415,179.592246 59.1202885,187.191215 C59.4760831,187.544657 60.0987202,187.4563 60.2766158,187.014497 L64.8129796,177.913404 L65.9693118,177.913404 L65.9693118,192.581189 C65.9693118,192.846271 66.0582604,193.022988 66.2361544,193.199709 C71.2172614,196.910835 76.6431115,199.915074 82.4247528,202.212439 C82.869496,202.389167 83.4031845,202.035725 83.4031845,201.505555 L83.4031845,145.661953 C83.4921331,145.220153 83.04739,144.866709 82.6026468,144.95507 Z M163.011147,150.521762 C166.746983,151.847165 172.795464,155.204856 174.574424,156.353539 C174.930218,156.618619 175.108109,156.972052 174.930205,157.325492 L169.504375,168.635597 C170.927553,169.430838 172.350718,170.491155 173.507053,171.463117 C173.773896,171.728202 173.862834,172.170007 173.595992,172.435085 C170.304902,177.029815 166.302237,181.536176 162.477462,185.335662 C160.520599,183.480099 157.140571,182.243059 153.938433,182.50814 L153.938433,192.05104 C153.938433,192.316121 153.849481,192.492839 153.67159,192.66956 C148.690493,196.380685 143.26465,199.473301 137.483012,201.859023 C136.94932,202.035751 136.415628,201.682309 136.415628,201.15214 L136.415628,145.661954 C136.415628,145.220153 136.860368,144.866709 137.305108,144.95507 C142.819903,145.750311 148.24574,146.810633 153.404735,148.047675 C153.67159,148.136035 153.938433,148.401119 153.938433,148.754559 L154.027372,164.836108 L155.272659,164.836108 C158.949189,157.354945 161.232192,152.701308 162.121668,150.875197 C162.299572,150.521757 162.655366,150.433403 163.011147,150.521762 Z" id="Vector" fill="#FFFFFF" mask="url(#mask-2)"></path>
                    <path d="M138.212059,20.4063526 C138.74375,20.672239 138.832354,21.3812687 138.389281,21.7357838 C116.449483,36.8430653 114.759382,77.4275246 112.658493,127.876357 L112.658159,127.88458 L112.655759,127.942103 C112.551334,130.449383 112.445893,132.981019 112.336872,135.535081 L110.387366,135.535081 L110.503349,127.144517 C111.381149,63.3611257 111.741414,37.1835824 118.539829,15 C125.36308,15.8862874 132.009103,17.7474906 138.212059,20.4063526 Z M168.341404,44.4267115 C148.048886,45.312999 134.402397,57.9869106 125.895491,83.6892403 C121.464807,97.160807 117.477202,118.874848 116.413835,135.7143 C115.793541,135.625681 115.084629,135.625668 114.464335,135.625668 C115.439085,114.620666 117.12274,96.7176649 119.338085,82.359814 C124.21183,51.6056402 132.807346,34.7661818 152.302329,28.0303985 C158.328051,32.2845776 163.910726,37.3364151 168.873081,43.185911 C169.227537,43.6290564 168.961698,44.4267115 168.341404,44.4267115 Z M130.140955,103.893987 C145.825574,73.4056972 173.384403,69.3287762 188.62595,84.3956695 C189.15764,84.9274374 190.043786,84.3956695 189.866551,83.6866369 C187.385374,73.9374782 183.663595,64.8087131 178.789844,56.5662388 C143.787457,46.9057058 122.520182,86.9659028 118.443954,135.888968 C118.754101,135.888968 119.086402,135.911119 119.418704,135.933271 C119.751005,135.955436 120.083307,135.9776 120.39346,135.9776 C122.342961,122.506027 124.292461,115.149843 130.140955,103.893987 Z M136.705127,102.21114 C153.630329,80.6743501 178.264907,84.6626354 191.468336,100.349932 C191.734175,103.806456 191.911396,107.351606 192,110.985382 C192,119.848256 190.936646,128.356621 189.075763,136.421837 C188.898528,137.13087 187.746557,137.219502 187.65794,136.51047 C185.885674,119.493747 165.859007,104.869999 145.832328,110.985382 C137.148194,113.555615 127.932383,121.354954 124.387838,136.155967 C124.033579,136.155967 123.701448,136.133828 123.36933,136.11169 L123.368779,136.11165 L123.368228,136.111611 C123.036111,136.089473 122.70398,136.067334 122.34972,136.067334 C124.653676,121.266322 130.590788,109.921839 136.705127,102.21114 Z M100.375435,15.0906521 C93.552191,15.9769392 86.9061614,17.7495136 80.7032115,20.4970034 C80.1715278,20.7628898 80.0829171,21.4719196 80.5259868,21.8264342 C102.532133,36.8947473 104.165907,77.6754211 106.198615,128.41358 L106.198812,128.418538 C106.294202,130.799532 106.390477,133.202482 106.489768,135.625707 L108.439268,135.625707 C108.388154,131.958966 108.339721,128.408951 108.29281,124.970165 C107.445032,62.828243 107.092799,37.0097948 100.375435,15.0906521 Z M66.6102142,28.1176931 C86.1052102,34.8534814 94.7893441,51.692948 99.5744775,82.4471348 C101.878427,96.8050054 103.473471,114.708019 104.536832,135.624408 C104.226882,135.624408 103.894803,135.646547 103.562712,135.668685 L103.562082,135.668725 L103.561472,135.668764 C103.229381,135.690902 102.897296,135.713041 102.587339,135.713041 C101.435361,118.873576 97.53636,97.0708894 93.1056824,83.6879419 C84.5987698,57.9855958 70.8636639,45.3116776 50.5711523,44.5140192 C49.9508579,44.4253902 49.6850161,43.7163576 50.0394702,43.2732155 C55.0018332,37.4237147 60.5844888,32.3718755 66.6102142,28.1176931 Z M40.2045352,56.5663306 C35.3307862,64.7201726 31.6090156,73.8489376 29.1278348,83.6867287 C28.9506075,84.3957613 29.8367435,84.9275292 30.3684251,84.3957482 C45.6985787,69.4174971 73.1688001,73.4944213 88.8534128,103.894079 C94.6132964,115.061296 96.6514073,122.417486 98.6009075,135.889046 C98.910858,135.889046 99.2429366,135.866908 99.5750282,135.84477 L99.5756577,135.84473 L99.5762674,135.844691 C99.9083591,135.822553 100.240444,135.800414 100.550401,135.800414 C96.4741794,86.965988 75.2069094,46.9057976 40.2045352,56.5663306 Z M27.5316818,100.349932 C40.6464991,84.6626354 65.3697009,80.6743501 82.2949056,102.21114 C88.4092449,109.921839 94.3463563,121.266322 96.6503124,136.067334 C95.9414008,136.067334 95.321113,136.067334 94.6122014,136.155967 C90.9790395,121.354954 81.9404465,113.112473 73.1676986,110.985382 C51.7232008,105.667657 33.7346357,119.759637 31.3420678,136.51047 C31.2534542,137.219502 30.101477,137.13087 29.9242498,136.421837 C27.9747499,128.267989 27,119.759631 27,110.985382 C27,107.351606 27.1772273,103.806456 27.5316818,100.349932 Z" id="Vector" fill="#FFFFFF" mask="url(#mask-2)"></path>
                </g>
                <g id="Производственные-объ" transform="translate(0, 258.104)" fill-rule="nonzero">
                    <g id="Path">
                        <use fill="#FFFFFF" xlink:href="#path-3"></use>
                        <use fill="#7DBCCA" xlink:href="#path-3"></use>
                    </g>
                    <g id="Shape">
                        <use fill="#FFFFFF" xlink:href="#path-4"></use>
                        <use fill="#7DBCCA" xlink:href="#path-4"></use>
                    </g>
                    <g id="Shape">
                        <use fill="#FFFFFF" xlink:href="#path-5"></use>
                        <use fill="#7DBCCA" xlink:href="#path-5"></use>
                    </g>
                    <g id="Path">
                        <use fill="#FFFFFF" xlink:href="#path-6"></use>
                        <use fill="#7DBCCA" xlink:href="#path-6"></use>
                    </g>
                    <g id="Path">
                        <use fill="#FFFFFF" xlink:href="#path-7"></use>
                        <use fill="#7DBCCA" xlink:href="#path-7"></use>
                    </g>
                    <g id="Shape">
                        <use fill="#FFFFFF" xlink:href="#path-8"></use>
                        <use fill="#7DBCCA" xlink:href="#path-8"></use>
                    </g>
                    <g id="Shape">
                        <use fill="#FFFFFF" xlink:href="#path-9"></use>
                        <use fill="#7DBCCA" xlink:href="#path-9"></use>
                    </g>
                    <g id="Shape">
                        <use fill="#FFFFFF" xlink:href="#path-10"></use>
                        <use fill="#7DBCCA" xlink:href="#path-10"></use>
                    </g>
                    <g id="Path">
                        <use fill="#FFFFFF" xlink:href="#path-11"></use>
                        <use fill="#7DBCCA" xlink:href="#path-11"></use>
                    </g>
                    <g id="Path">
                        <use fill="#FFFFFF" xlink:href="#path-12"></use>
                        <use fill="#7DBCCA" xlink:href="#path-12"></use>
                    </g>
                    <g id="Shape">
                        <use fill="#FFFFFF" xlink:href="#path-13"></use>
                        <use fill="#7DBCCA" xlink:href="#path-13"></use>
                    </g>
                    <g id="Shape">
                        <use fill="#FFFFFF" xlink:href="#path-14"></use>
                        <use fill="#7DBCCA" xlink:href="#path-14"></use>
                    </g>
                    <g id="Path">
                        <use fill="#FFFFFF" xlink:href="#path-15"></use>
                        <use fill="#7DBCCA" xlink:href="#path-15"></use>
                    </g>
                    <g id="Path">
                        <use fill="#FFFFFF" xlink:href="#path-16"></use>
                        <use fill="#7DBCCA" xlink:href="#path-16"></use>
                    </g>
                    <g id="Shape">
                        <use fill="#FFFFFF" xlink:href="#path-17"></use>
                        <use fill="#7DBCCA" xlink:href="#path-17"></use>
                    </g>
                    <g id="Shape">
                        <use fill="#FFFFFF" xlink:href="#path-18"></use>
                        <use fill="#7DBCCA" xlink:href="#path-18"></use>
                    </g>
                    <g id="Shape">
                        <use fill="#FFFFFF" xlink:href="#path-19"></use>
                        <use fill="#7DBCCA" xlink:href="#path-19"></use>
                    </g>
                    <g id="Shape">
                        <use fill="#FFFFFF" xlink:href="#path-20"></use>
                        <use fill="#7DBCCA" xlink:href="#path-20"></use>
                    </g>
                    <g id="Shape">
                        <use fill="#FFFFFF" xlink:href="#path-21"></use>
                        <use fill="#7DBCCA" xlink:href="#path-21"></use>
                    </g>
                    <g id="Shape">
                        <use fill="#FFFFFF" xlink:href="#path-22"></use>
                        <use fill="#7DBCCA" xlink:href="#path-22"></use>
                    </g>
                    <g id="Path">
                        <use fill="#FFFFFF" xlink:href="#path-23"></use>
                        <use fill="#7DBCCA" xlink:href="#path-23"></use>
                    </g>
                    <g id="Path">
                        <use fill="#FFFFFF" xlink:href="#path-24"></use>
                        <use fill="#7DBCCA" xlink:href="#path-24"></use>
                    </g>
                    <g id="Shape">
                        <use fill="#FFFFFF" xlink:href="#path-25"></use>
                        <use fill="#7DBCCA" xlink:href="#path-25"></use>
                    </g>
                    <g id="Path">
                        <use fill="#FFFFFF" xlink:href="#path-26"></use>
                        <use fill="#7DBCCA" xlink:href="#path-26"></use>
                    </g>
                    <g id="Path">
                        <use fill="#FFFFFF" xlink:href="#path-27"></use>
                        <use fill="#7DBCCA" xlink:href="#path-27"></use>
                    </g>
                    <g id="Path">
                        <use fill="#FFFFFF" xlink:href="#path-28"></use>
                        <use fill="#7DBCCA" xlink:href="#path-28"></use>
                    </g>
                </g>
            </g>
        </g>
    </g>
</svg>