<?xml version="1.0" encoding="UTF-8"?>
<svg width="316px" height="128px" viewBox="0 0 316 128" version="1.1" xmlns="http://www.w3.org/2000/svg" xmlns:xlink="http://www.w3.org/1999/xlink">
    <title>pin-ya</title>
    <defs>
        <path d="M7.38,13.5 L7.38,7.992 L5.508,7.992 L1.35,13.5 L0,13.5 L0,12.15 L3.51,7.614 C2.694,7.35 2.043,6.891 1.557,6.237 C1.071,5.583 0.828,4.83 0.828,3.978 C0.828,2.754 1.239,1.785 2.061,1.071 C2.883,0.357 3.99,0 5.382,0 L9.36,0 L9.36,13.5 L7.38,13.5 Z M5.4,6.372 L7.38,6.372 L7.38,1.62 L5.4,1.62 C4.596,1.62 3.963,1.848 3.501,2.304 C3.039,2.76 2.808,3.324 2.808,3.996 C2.808,4.692 3.045,5.262 3.519,5.706 C3.993,6.15 4.62,6.372 5.4,6.372 Z" id="path-1"></path>
        <path d="M14.202,18 L12.402,18 L12.402,4.5 L14.022,4.5 L14.184,5.922 C14.904,4.854 15.954,4.32 17.334,4.32 C18.618,4.32 19.641,4.767 20.403,5.661 C21.165,6.555 21.546,7.662 21.546,8.982 C21.546,10.314 21.165,11.43 20.403,12.33 C19.641,13.23 18.618,13.68 17.334,13.68 C15.978,13.68 14.934,13.152 14.202,12.096 L14.202,18 Z M16.974,12.15 C17.874,12.15 18.561,11.853 19.035,11.259 C19.509,10.665 19.746,9.906 19.746,8.982 C19.746,8.07 19.509,7.32 19.035,6.732 C18.561,6.144 17.874,5.85 16.974,5.85 C16.134,5.85 15.462,6.15 14.958,6.75 C14.454,7.35 14.202,8.094 14.202,8.982 C14.202,9.882 14.454,10.635 14.958,11.241 C15.462,11.847 16.134,12.15 16.974,12.15 Z" id="path-2"></path>
        <path d="M26.064,13.68 C25.092,13.68 24.342,13.416 23.814,12.888 C23.286,12.36 23.022,11.694 23.022,10.89 C23.022,10.086 23.322,9.438 23.922,8.946 C24.522,8.454 25.434,8.208 26.658,8.208 C26.994,8.208 27.333,8.229 27.675,8.271 C28.017,8.313 28.278,8.352 28.458,8.388 L28.71,8.46 L28.71,7.902 C28.71,6.534 28.062,5.85 26.766,5.85 C26.322,5.85 25.932,5.943 25.596,6.129 C25.26,6.315 25.032,6.498 24.912,6.678 L24.732,6.948 L23.562,6.948 L23.562,5.778 L23.616,5.706 C23.652,5.658 23.712,5.589 23.796,5.499 C23.88,5.409 23.979,5.313 24.093,5.211 C24.207,5.109 24.354,5.004 24.534,4.896 C24.714,4.788 24.912,4.692 25.128,4.608 C25.344,4.524 25.599,4.455 25.893,4.401 C26.187,4.347 26.496,4.32 26.82,4.32 C28.02,4.32 28.935,4.626 29.565,5.238 C30.195,5.85 30.51,6.75 30.51,7.938 L30.51,13.5 L29.07,13.5 L28.854,12.204 C28.602,12.54 28.266,12.864 27.846,13.176 C27.402,13.512 26.808,13.68 26.064,13.68 Z M26.352,12.222 C27.048,12.222 27.615,12.018 28.053,11.61 C28.491,11.202 28.71,10.764 28.71,10.296 L28.71,9.828 C28.146,9.66 27.462,9.576 26.658,9.576 C25.998,9.576 25.521,9.699 25.227,9.945 C24.933,10.191 24.786,10.506 24.786,10.89 C24.786,11.778 25.308,12.222 26.352,12.222 Z" id="path-3"></path>
        <polygon id="path-4" points="34.884 13.5 33.084 13.5 33.084 4.5 34.884 4.5 34.884 8.568 39.006 4.5 40.176 4.5 40.176 5.67 36.954 8.766 40.446 12.24 40.446 13.5 39.186 13.5 34.884 9.126"></polygon>
        <polygon id="path-5" points="46.062 13.5 44.262 13.5 44.262 6.03 41.382 6.03 41.382 4.5 48.942 4.5 48.942 6.03 46.062 6.03"></polygon>
        <polygon id="path-6" points="52.236 13.5 50.616 13.5 50.616 4.5 52.416 4.5 52.416 10.818 57.096 4.5 58.716 4.5 58.716 13.5 56.916 13.5 56.916 7.164"></polygon>
        <polygon id="path-7" points="63.18 13.5 61.38 13.5 61.38 4.5 63.18 4.5 63.18 8.1 67.5 8.1 67.5 4.5 69.3 4.5 69.3 13.5 67.5 13.5 67.5 9.63 63.18 9.63"></polygon>
        <path d="M75.978,13.68 C74.514,13.68 73.386,13.236 72.594,12.348 C71.802,11.46 71.406,10.338 71.406,8.982 C71.406,7.662 71.82,6.552 72.648,5.652 C73.476,4.752 74.586,4.302 75.978,4.302 C76.278,4.302 76.563,4.32 76.833,4.356 C77.103,4.392 77.34,4.443 77.544,4.509 C77.748,4.575 77.94,4.65 78.12,4.734 C78.3,4.818 78.45,4.905 78.57,4.995 C78.69,5.085 78.801,5.175 78.903,5.265 C79.005,5.355 79.086,5.442 79.146,5.526 C79.206,5.61 79.257,5.685 79.299,5.751 C79.341,5.817 79.368,5.868 79.38,5.904 L79.416,5.958 L79.416,7.128 L78.246,7.128 L78.228,7.092 C78.216,7.056 78.198,7.014 78.174,6.966 C78.15,6.918 78.117,6.861 78.075,6.795 C78.033,6.729 77.982,6.66 77.922,6.588 C77.862,6.516 77.79,6.444 77.706,6.372 C77.622,6.3 77.523,6.234 77.409,6.174 C77.295,6.114 77.169,6.057 77.031,6.003 C76.893,5.949 76.734,5.907 76.554,5.877 C76.374,5.847 76.182,5.832 75.978,5.832 C75.078,5.832 74.391,6.129 73.917,6.723 C73.443,7.317 73.206,8.07 73.206,8.982 C73.206,9.906 73.443,10.665 73.917,11.259 C74.391,11.853 75.078,12.15 75.978,12.15 C76.35,12.15 76.683,12.105 76.977,12.015 C77.271,11.925 77.496,11.82 77.652,11.7 C77.808,11.58 77.934,11.451 78.03,11.313 C78.126,11.175 78.189,11.07 78.219,10.998 C78.249,10.926 78.264,10.878 78.264,10.854 L79.434,10.854 L79.434,12.024 C79.446,12.024 79.419,12.081 79.353,12.195 C79.287,12.309 79.176,12.447 79.02,12.609 C78.864,12.771 78.663,12.933 78.417,13.095 C78.171,13.257 77.832,13.395 77.4,13.509 C76.968,13.623 76.494,13.68 75.978,13.68 Z" id="path-8"></path>
        <polygon id="path-9" points="83.394 13.5 81.594 13.5 81.594 4.5 83.394 4.5 83.394 8.568 87.516 4.5 88.686 4.5 88.686 5.67 85.464 8.766 88.956 12.24 88.956 13.5 87.696 13.5 83.394 9.126"></polygon>
        <path d="M94.896,13.68 C93.504,13.68 92.394,13.23 91.566,12.33 C90.738,11.43 90.324,10.314 90.324,8.982 C90.324,7.662 90.738,6.555 91.566,5.661 C92.394,4.767 93.504,4.32 94.896,4.32 C96.276,4.32 97.383,4.767 98.217,5.661 C99.051,6.555 99.468,7.662 99.468,8.982 C99.468,10.314 99.051,11.43 98.217,12.33 C97.383,13.23 96.276,13.68 94.896,13.68 Z M92.826,11.268 C93.306,11.856 93.996,12.15 94.896,12.15 C95.796,12.15 96.483,11.853 96.957,11.259 C97.431,10.665 97.668,9.906 97.668,8.982 C97.668,8.082 97.428,7.335 96.948,6.741 C96.468,6.147 95.784,5.85 94.896,5.85 C94.008,5.85 93.324,6.147 92.844,6.741 C92.364,7.335 92.124,8.082 92.124,8.982 C92.124,9.906 92.358,10.668 92.826,11.268 Z" id="path-10"></path>
        <path d="M105.696,13.68 C104.196,13.68 103.044,13.251 102.24,12.393 C101.436,11.535 101.034,10.398 101.034,8.982 C101.034,7.65 101.427,6.54 102.213,5.652 C102.999,4.764 104.088,4.32 105.48,4.32 C106.872,4.32 107.907,4.68 108.585,5.4 C109.263,6.12 109.602,7.08 109.602,8.28 L109.53,9.252 L102.834,9.252 C102.882,10.14 103.152,10.842 103.644,11.358 C104.136,11.874 104.82,12.132 105.696,12.132 C106.08,12.132 106.431,12.093 106.749,12.015 C107.067,11.937 107.313,11.847 107.487,11.745 C107.661,11.643 107.811,11.538 107.937,11.43 C108.063,11.322 108.15,11.232 108.198,11.16 L108.252,11.034 L109.422,11.034 L109.422,12.204 L109.422,12.222 C108.99,12.822 108.276,13.248 107.28,13.5 C106.8,13.62 106.272,13.68 105.696,13.68 Z M102.924,7.902 L107.838,7.902 C107.838,7.29 107.64,6.795 107.244,6.417 C106.848,6.039 106.266,5.85 105.498,5.85 C104.058,5.85 103.2,6.534 102.924,7.902 Z" id="path-11"></path>
        <polygon id="path-12" points="121.878 11.34 120.708 11.34 118.026 7.236 118.026 13.5 116.316 13.5 116.316 4.5 118.296 4.5 121.374 9.27 124.398 4.5 126.378 4.5 126.378 13.5 124.578 13.5 124.578 7.2"></polygon>
        <path d="M133.164,13.68 C131.664,13.68 130.512,13.251 129.708,12.393 C128.904,11.535 128.502,10.398 128.502,8.982 C128.502,7.65 128.895,6.54 129.681,5.652 C130.467,4.764 131.556,4.32 132.948,4.32 C134.34,4.32 135.375,4.68 136.053,5.4 C136.731,6.12 137.07,7.08 137.07,8.28 L136.998,9.252 L130.302,9.252 C130.35,10.14 130.62,10.842 131.112,11.358 C131.604,11.874 132.288,12.132 133.164,12.132 C133.548,12.132 133.899,12.093 134.217,12.015 C134.535,11.937 134.781,11.847 134.955,11.745 C135.129,11.643 135.279,11.538 135.405,11.43 C135.531,11.322 135.618,11.232 135.666,11.16 L135.72,11.034 L136.89,11.034 L136.89,12.204 L136.89,12.222 C136.458,12.822 135.744,13.248 134.748,13.5 C134.268,13.62 133.74,13.68 133.164,13.68 Z M130.392,7.902 L135.306,7.902 C135.306,7.29 135.108,6.795 134.712,6.417 C134.316,6.039 133.734,5.85 132.966,5.85 C131.526,5.85 130.668,6.534 130.392,7.902 Z" id="path-13"></path>
        <path d="M143.226,13.68 C141.762,13.68 140.634,13.236 139.842,12.348 C139.05,11.46 138.654,10.338 138.654,8.982 C138.654,7.662 139.068,6.552 139.896,5.652 C140.724,4.752 141.834,4.302 143.226,4.302 C143.526,4.302 143.811,4.32 144.081,4.356 C144.351,4.392 144.588,4.443 144.792,4.509 C144.996,4.575 145.188,4.65 145.368,4.734 C145.548,4.818 145.698,4.905 145.818,4.995 C145.938,5.085 146.049,5.175 146.151,5.265 C146.253,5.355 146.334,5.442 146.394,5.526 C146.454,5.61 146.505,5.685 146.547,5.751 C146.589,5.817 146.616,5.868 146.628,5.904 L146.664,5.958 L146.664,7.128 L145.494,7.128 L145.476,7.092 C145.464,7.056 145.446,7.014 145.422,6.966 C145.398,6.918 145.365,6.861 145.323,6.795 C145.281,6.729 145.23,6.66 145.17,6.588 C145.11,6.516 145.038,6.444 144.954,6.372 C144.87,6.3 144.771,6.234 144.657,6.174 C144.543,6.114 144.417,6.057 144.279,6.003 C144.141,5.949 143.982,5.907 143.802,5.877 C143.622,5.847 143.43,5.832 143.226,5.832 C142.326,5.832 141.639,6.129 141.165,6.723 C140.691,7.317 140.454,8.07 140.454,8.982 C140.454,9.906 140.691,10.665 141.165,11.259 C141.639,11.853 142.326,12.15 143.226,12.15 C143.598,12.15 143.931,12.105 144.225,12.015 C144.519,11.925 144.744,11.82 144.9,11.7 C145.056,11.58 145.182,11.451 145.278,11.313 C145.374,11.175 145.437,11.07 145.467,10.998 C145.497,10.926 145.512,10.878 145.512,10.854 L146.682,10.854 L146.682,12.024 C146.694,12.024 146.667,12.081 146.601,12.195 C146.535,12.309 146.424,12.447 146.268,12.609 C146.112,12.771 145.911,12.933 145.665,13.095 C145.419,13.257 145.08,13.395 144.648,13.509 C144.216,13.623 143.742,13.68 143.226,13.68 Z" id="path-14"></path>
        <polygon id="path-15" points="152.532 13.5 150.732 13.5 150.732 6.03 147.852 6.03 147.852 4.5 155.412 4.5 155.412 6.03 152.532 6.03"></polygon>
        <path d="M161.1,13.68 C159.708,13.68 158.598,13.23 157.77,12.33 C156.942,11.43 156.528,10.314 156.528,8.982 C156.528,7.662 156.942,6.555 157.77,5.661 C158.598,4.767 159.708,4.32 161.1,4.32 C162.48,4.32 163.587,4.767 164.421,5.661 C165.255,6.555 165.672,7.662 165.672,8.982 C165.672,10.314 165.255,11.43 164.421,12.33 C163.587,13.23 162.48,13.68 161.1,13.68 Z M159.03,11.268 C159.51,11.856 160.2,12.15 161.1,12.15 C162,12.15 162.687,11.853 163.161,11.259 C163.635,10.665 163.872,9.906 163.872,8.982 C163.872,8.082 163.632,7.335 163.152,6.741 C162.672,6.147 161.988,5.85 161.1,5.85 C160.212,5.85 159.528,6.147 159.048,6.741 C158.568,7.335 158.328,8.082 158.328,8.982 C158.328,9.906 158.562,10.668 159.03,11.268 Z" id="path-16"></path>
        <path d="M169.578,18 L167.778,18 L167.778,4.5 L169.398,4.5 L169.56,5.922 C170.28,4.854 171.33,4.32 172.71,4.32 C173.994,4.32 175.017,4.767 175.779,5.661 C176.541,6.555 176.922,7.662 176.922,8.982 C176.922,10.314 176.541,11.43 175.779,12.33 C175.017,13.23 173.994,13.68 172.71,13.68 C171.354,13.68 170.31,13.152 169.578,12.096 L169.578,18 Z M172.35,12.15 C173.25,12.15 173.937,11.853 174.411,11.259 C174.885,10.665 175.122,9.906 175.122,8.982 C175.122,8.07 174.885,7.32 174.411,6.732 C173.937,6.144 173.25,5.85 172.35,5.85 C171.51,5.85 170.838,6.15 170.334,6.75 C169.83,7.35 169.578,8.094 169.578,8.982 C169.578,9.882 169.83,10.635 170.334,11.241 C170.838,11.847 171.51,12.15 172.35,12.15 Z" id="path-17"></path>
        <path d="M183.06,13.68 C181.668,13.68 180.558,13.23 179.73,12.33 C178.902,11.43 178.488,10.314 178.488,8.982 C178.488,7.662 178.902,6.555 179.73,5.661 C180.558,4.767 181.668,4.32 183.06,4.32 C184.44,4.32 185.547,4.767 186.381,5.661 C187.215,6.555 187.632,7.662 187.632,8.982 C187.632,10.314 187.215,11.43 186.381,12.33 C185.547,13.23 184.44,13.68 183.06,13.68 Z M180.99,11.268 C181.47,11.856 182.16,12.15 183.06,12.15 C183.96,12.15 184.647,11.853 185.121,11.259 C185.595,10.665 185.832,9.906 185.832,8.982 C185.832,8.082 185.592,7.335 185.112,6.741 C184.632,6.147 183.948,5.85 183.06,5.85 C182.172,5.85 181.488,6.147 181.008,6.741 C180.528,7.335 180.288,8.082 180.288,8.982 C180.288,9.906 180.522,10.668 180.99,11.268 Z" id="path-18"></path>
        <polygon id="path-19" points="190.368 13.5 189.108 13.5 189.108 12.24 192.384 8.82 189.144 5.634 189.144 4.5 190.314 4.5 194.472 8.586 194.472 4.5 196.272 4.5 196.272 8.604 200.358 4.5 201.528 4.5 201.528 5.67 198.36 8.784 201.708 12.24 201.708 13.5 200.448 13.5 196.272 9.072 196.272 13.5 194.472 13.5 194.472 9.108"></polygon>
        <path d="M204.192,16.02 L202.572,16.02 L202.572,12.06 L203.544,12.06 C204.012,11.724 204.312,10.644 204.444,8.82 L204.75,4.5 L211.446,4.5 L211.446,12.06 L212.886,12.06 L212.886,16.02 L211.266,16.02 L211.266,13.5 L204.192,13.5 L204.192,16.02 Z M205.344,12.06 L209.646,12.06 L209.646,5.94 L206.262,5.94 L206.028,9.126 C205.932,10.41 205.704,11.388 205.344,12.06 Z" id="path-20"></path>
        <path d="M218.88,13.68 C217.38,13.68 216.228,13.251 215.424,12.393 C214.62,11.535 214.218,10.398 214.218,8.982 C214.218,7.65 214.611,6.54 215.397,5.652 C216.183,4.764 217.272,4.32 218.664,4.32 C220.056,4.32 221.091,4.68 221.769,5.4 C222.447,6.12 222.786,7.08 222.786,8.28 L222.714,9.252 L216.018,9.252 C216.066,10.14 216.336,10.842 216.828,11.358 C217.32,11.874 218.004,12.132 218.88,12.132 C219.264,12.132 219.615,12.093 219.933,12.015 C220.251,11.937 220.497,11.847 220.671,11.745 C220.845,11.643 220.995,11.538 221.121,11.43 C221.247,11.322 221.334,11.232 221.382,11.16 L221.436,11.034 L222.606,11.034 L222.606,12.204 L222.606,12.222 C222.174,12.822 221.46,13.248 220.464,13.5 C219.984,13.62 219.456,13.68 218.88,13.68 Z M216.108,7.902 L221.022,7.902 C221.022,7.29 220.824,6.795 220.428,6.417 C220.032,6.039 219.45,5.85 218.682,5.85 C217.242,5.85 216.384,6.534 216.108,7.902 Z" id="path-21"></path>
        <polygon id="path-22" points="226.728 13.5 224.928 13.5 224.928 4.5 226.728 4.5 226.728 8.1 231.048 8.1 231.048 4.5 232.848 4.5 232.848 13.5 231.048 13.5 231.048 9.63 226.728 9.63"></polygon>
        <polygon id="path-23" points="237.132 13.5 235.512 13.5 235.512 4.5 237.312 4.5 237.312 10.818 241.992 4.5 243.612 4.5 243.612 13.5 241.812 13.5 241.812 7.164"></polygon>
        <path d="M250.398,13.68 C248.898,13.68 247.746,13.251 246.942,12.393 C246.138,11.535 245.736,10.398 245.736,8.982 C245.736,7.65 246.129,6.54 246.915,5.652 C247.701,4.764 248.79,4.32 250.182,4.32 C251.574,4.32 252.609,4.68 253.287,5.4 C253.965,6.12 254.304,7.08 254.304,8.28 L254.232,9.252 L247.536,9.252 C247.584,10.14 247.854,10.842 248.346,11.358 C248.838,11.874 249.522,12.132 250.398,12.132 C250.782,12.132 251.133,12.093 251.451,12.015 C251.769,11.937 252.015,11.847 252.189,11.745 C252.363,11.643 252.513,11.538 252.639,11.43 C252.765,11.322 252.852,11.232 252.9,11.16 L252.954,11.034 L254.124,11.034 L254.124,12.204 L254.124,12.222 C253.692,12.822 252.978,13.248 251.982,13.5 C251.502,13.62 250.974,13.68 250.398,13.68 Z M247.626,7.902 L252.54,7.902 C252.54,7.29 252.342,6.795 251.946,6.417 C251.55,6.039 250.968,5.85 250.2,5.85 C248.76,5.85 247.902,6.534 247.626,7.902 Z" id="path-24"></path>
    </defs>
    <g id="PanoTour" stroke="none" stroke-width="1" fill="none" fill-rule="evenodd">
        <g id="pano-1920x1080" transform="translate(-695, -285)">
            <g id="pin-ya" transform="translate(696, 286)">
                <rect id="Rectangle" stroke="#FFFFFF" stroke-width="2" fill="#00ABC7" fill-rule="nonzero" x="0" y="0" width="314" height="42" rx="21"></rect>
                <g id="Ярактинское-месторож" transform="translate(41.666, 13.5)" fill="#FFFFFF" fill-rule="nonzero">
                    <g id="Shape">
                        <use xlink:href="#path-1"></use>
                        <use xlink:href="#path-1"></use>
                    </g>
                    <g id="Shape">
                        <use xlink:href="#path-2"></use>
                        <use xlink:href="#path-2"></use>
                    </g>
                    <g id="Shape">
                        <use xlink:href="#path-3"></use>
                        <use xlink:href="#path-3"></use>
                    </g>
                    <g id="Path">
                        <use xlink:href="#path-4"></use>
                        <use xlink:href="#path-4"></use>
                    </g>
                    <g id="Path">
                        <use xlink:href="#path-5"></use>
                        <use xlink:href="#path-5"></use>
                    </g>
                    <g id="Path">
                        <use xlink:href="#path-6"></use>
                        <use xlink:href="#path-6"></use>
                    </g>
                    <g id="Path">
                        <use xlink:href="#path-7"></use>
                        <use xlink:href="#path-7"></use>
                    </g>
                    <g id="Path">
                        <use xlink:href="#path-8"></use>
                        <use xlink:href="#path-8"></use>
                    </g>
                    <g id="Path">
                        <use xlink:href="#path-9"></use>
                        <use xlink:href="#path-9"></use>
                    </g>
                    <g id="Shape">
                        <use xlink:href="#path-10"></use>
                        <use xlink:href="#path-10"></use>
                    </g>
                    <g id="Shape">
                        <use xlink:href="#path-11"></use>
                        <use xlink:href="#path-11"></use>
                    </g>
                    <g id="Path">
                        <use xlink:href="#path-12"></use>
                        <use xlink:href="#path-12"></use>
                    </g>
                    <g id="Shape">
                        <use xlink:href="#path-13"></use>
                        <use xlink:href="#path-13"></use>
                    </g>
                    <g id="Path">
                        <use xlink:href="#path-14"></use>
                        <use xlink:href="#path-14"></use>
                    </g>
                    <g id="Path">
                        <use xlink:href="#path-15"></use>
                        <use xlink:href="#path-15"></use>
                    </g>
                    <g id="Shape">
                        <use xlink:href="#path-16"></use>
                        <use xlink:href="#path-16"></use>
                    </g>
                    <g id="Shape">
                        <use xlink:href="#path-17"></use>
                        <use xlink:href="#path-17"></use>
                    </g>
                    <g id="Shape">
                        <use xlink:href="#path-18"></use>
                        <use xlink:href="#path-18"></use>
                    </g>
                    <g id="Path">
                        <use xlink:href="#path-19"></use>
                        <use xlink:href="#path-19"></use>
                    </g>
                    <g id="Shape">
                        <use xlink:href="#path-20"></use>
                        <use xlink:href="#path-20"></use>
                    </g>
                    <g id="Shape">
                        <use xlink:href="#path-21"></use>
                        <use xlink:href="#path-21"></use>
                    </g>
                    <g id="Path">
                        <use xlink:href="#path-22"></use>
                        <use xlink:href="#path-22"></use>
                    </g>
                    <g id="Path">
                        <use xlink:href="#path-23"></use>
                        <use xlink:href="#path-23"></use>
                    </g>
                    <g id="Shape">
                        <use xlink:href="#path-24"></use>
                        <use xlink:href="#path-24"></use>
                    </g>
                </g>
                <path d="M19.7773437,41.2070312 C19.4505208,69.5976579 19.1236979,97.9882796 18.796875,126.378906" id="Path-3" stroke="#FFFFFF" stroke-width="2"></path>
                <circle id="Oval" stroke="#FFFFFF" stroke-width="2" cx="20" cy="21" r="8"></circle>
            </g>
        </g>
    </g>
</svg>