<?xml version="1.0" encoding="UTF-8"?>
<svg width="634px" height="634px" viewBox="0 0 634 634" version="1.1" xmlns="http://www.w3.org/2000/svg" xmlns:xlink="http://www.w3.org/1999/xlink">
    <title>mini-map</title>
    <defs>
        <circle id="path-1" cx="317" cy="317" r="317"></circle>
    </defs>
    <g id="PanoTour" stroke="none" stroke-width="1" fill="none" fill-rule="evenodd">
        <g id="start-pano" transform="translate(-635, -104)">
            <g id="mini-map" transform="translate(635, 104)">
                <mask id="mask-2" fill="white">
                    <use xlink:href="#path-1"></use>
                </mask>
                <g id="Mask"></g>
                <g id="front-map" mask="url(#mask-2)">
                    <g transform="translate(0, -22.6701)">
                        <circle id="Oval" stroke="#FFFFFF" stroke-width="3" fill-opacity="0.1" fill="#FFFFFF" fill-rule="evenodd" cx="317" cy="339.670118" r="315.5"></circle>
                        <path d="M295.298217,204.174605 C298.691427,201.344887 303.736107,201.801687 306.565825,205.194897 C317.43226,218.225204 322.715905,230.45317 324.005791,244.049479 C324.76612,252.063881 324.429117,257.063477 322.648071,272.99935 C321.039984,287.387676 320.614948,295.711027 321.458644,306.316005 C321.643883,308.644403 323.68203,312.844537 327.213054,318.095695 C328.198121,319.560635 329.010915,320.837818 329.810502,322.157324 C330.154707,322.725343 331.180237,324.456056 331.384194,324.790889 C331.523085,325.018903 331.648702,325.220774 331.76965,325.410044 C331.868942,325.565425 331.965798,325.713409 332.062853,325.857904 C334.526403,329.525615 333.550237,334.495984 329.882526,336.959534 C326.214815,339.423083 321.244447,338.446918 318.780897,334.779207 C318.614304,334.531185 318.450844,334.281437 318.287335,334.025564 C318.100692,333.733488 317.915265,333.4355 317.71967,333.114396 C317.504725,332.761525 316.797325,331.569672 316.376514,330.865372 L316.193598,330.559992 L316.126814,330.449289 C315.453446,329.338073 314.775118,328.272185 313.935659,327.023783 C308.943414,319.599573 305.978854,313.490323 305.509039,307.584901 C304.565724,295.727742 305.034727,286.543374 306.747073,271.222202 C308.046409,259.596418 308.506715,254.383863 308.341063,249.515376 L308.320929,248.994792 C308.313425,248.821519 308.305133,248.648408 308.296062,248.475183 L308.266522,247.954889 C308.218735,247.173106 308.15537,246.383413 308.077312,245.560618 C307.099341,235.252113 303.122096,226.047557 294.277925,215.442214 C291.448206,212.049004 291.905007,207.004323 295.298217,204.174605 Z" id="Path-2" stroke="none" fill="#FFFFFF" fill-rule="nonzero"></path>
                        <path d="M312.954837,341.899308 C314.817214,346.15448 317.358207,350.749914 320.621653,355.944803 C312.210674,360.389758 305.598334,364.067582 301.087403,366.845407 C295.370039,370.366151 291.839554,373.51558 288.422783,377.72121 C287.654558,378.666802 286.936466,379.600074 285.792597,381.124478 C282.742696,385.189004 281.907116,386.266743 280.071232,388.375801 C279.457646,389.080687 278.658349,390.163498 277.525348,391.819747 C277.33848,392.092915 276.602955,393.185831 275.829976,394.331638 L275.519999,394.790964 C274.900897,395.707986 274.301448,396.593421 273.983389,397.054635 C268.209331,405.427545 263.903378,409.920824 257.704989,411.593156 C253.149684,412.822182 248.506565,413.224554 243.593248,412.930073 C242.742637,412.879092 241.932774,412.817844 241.137157,412.74196 L240.542701,412.682236 C240.349457,412.661821 240.156669,412.640466 239.96395,412.618106 L239.385607,412.547948 C235.333209,412.034855 231.139848,411.050569 223.215152,409.003322 C210.092786,405.613322 203.65411,404.725817 195.787041,406.014171 C191.044914,406.790767 188.977056,408.056221 184.838213,412.082805 C184.68284,412.233964 184.129782,412.773416 184.119071,412.783854 C183.818132,413.077127 183.585349,413.302997 183.353426,413.526297 C178.261711,418.428693 173.967657,421.303375 167.24223,423.398064 C162.7404,424.800196 157.719397,424.679184 148.346183,423.679452 C147.746811,423.615524 147.151458,423.550645 146.302041,423.4571 C140.92911,422.86539 138.964225,422.676604 136.993043,422.61563 L136.681254,422.607024 C136.326248,422.598373 136.004505,422.596664 135.718918,422.60071 L135.69,422.601087 L135.650644,422.669626 C135.038913,423.734734 134.367716,425.291543 133.38333,427.846492 L133.240546,428.218329 C130.885501,434.370934 129.572366,437.075589 126.750206,440.185203 C124.076218,443.131553 112.766289,447.63899 108.708142,448.244605 C104.459413,448.878661 98.8283533,449.998098 93.9913734,451.148266 L93.431,451.282087 L93.7471899,451.708905 C97.3929072,456.646015 101.401372,462.614723 103.097144,466.035264 L103.182,466.210087 L103.218185,466.257356 C103.267953,466.32008 103.333663,466.396765 103.415323,466.485766 L103.502299,466.578811 C103.902087,466.999112 104.485085,467.51873 105.27199,468.150164 C105.375531,468.233247 105.475579,468.312998 105.575742,468.392166 L105.77729,468.550542 C106.354838,469.001697 107.013317,469.493075 108.409202,470.525381 C111.955439,473.147947 113.614754,474.486943 115.363962,476.362157 C118.604456,479.836084 120.362506,483.728288 119.536587,488.335618 C118.289381,495.293073 112.724807,498.431664 105.659219,498.873234 C101.584892,499.127863 96.7890347,498.544291 90.9050935,497.306301 C88.9189567,496.888415 86.8548039,496.405188 84.5176843,495.821013 C83.8484758,495.653741 82.4880699,495.304453 81.0794708,494.942083 L80.4282676,494.774521 C78.8034113,494.356371 77.2460955,493.955406 76.744094,493.831142 C75.6791399,493.567525 74.881055,493.385121 74.2980946,493.272399 C74.1495302,493.243672 74.0230714,493.221086 73.9215386,493.204567 L73.862,493.194087 L72.7561193,493.223091 C66.2756947,493.408733 60.1426076,493.880631 54.2808052,494.669334 L53.794,494.737087 L53.676803,494.792142 C53.6345843,494.812035 53.590449,494.832997 53.5444855,494.855 L53.4011984,494.924098 C52.5948484,495.315675 51.4739014,495.902937 50.0967648,496.65589 C47.4779899,498.08771 44.0347259,500.062362 40.1903496,502.329737 C39.9421234,502.476139 39.6932691,502.623158 39.444072,502.770618 L38.6957375,503.214143 C38.5709388,503.288225 38.4461257,503.362373 38.3213339,503.436565 L37.5731243,503.882068 C31.469494,507.521747 25.5882983,511.160567 24.1260221,512.196979 C20.5213361,514.751861 15.5280201,513.900826 12.9731386,510.29614 C10.4182572,506.691454 11.2692919,501.698138 14.8739779,499.143257 C16.6489758,497.885197 22.1020923,494.496998 28.0546406,490.930677 L28.8509942,490.454284 C28.98412,490.374766 29.1174228,490.295203 29.2508675,490.215617 L30.0529605,489.737985 L31.2588266,489.022719 L32.0621133,488.548164 C34.5414778,487.085859 36.7125359,485.816373 38.6208001,484.722803 L39.3701981,484.294718 C45.3775819,480.874652 48.6454197,479.307761 50.7602333,479.004847 C58.0827531,477.956011 65.7187969,477.370826 73.7951867,477.191618 C75.5715033,477.152203 77.310936,477.488544 80.5886631,478.299906 C81.1264235,478.433022 82.6278666,478.819173 84.1999105,479.223693 L84.8753624,479.397499 C86.336924,479.773552 87.7493527,480.136537 88.3975973,480.298569 C90.5550633,480.837839 92.4325014,481.277355 94.1993896,481.64911 C95.218717,481.863578 96.1877727,482.051833 97.1038673,482.213352 L97.374,482.260087 L97.3450739,482.23903 C96.8086988,481.838286 96.4073696,481.533587 96.0265702,481.237149 L95.6483727,480.940214 C95.5217604,480.839986 95.3931878,480.737424 95.2584137,480.629278 C92.1751665,478.155197 90.121534,475.996192 88.798109,473.215977 C87.9971074,471.533254 85.7472259,468.079288 83.3110161,464.609705 L82.7670821,463.839143 C81.1291578,461.530968 79.4499864,459.273651 78.1036573,457.587377 C72.9596332,451.144503 75.939163,439.524145 84.3081789,437.130803 C90.3939094,435.390427 99.7301502,433.407243 106.346546,432.41985 L106.16,432.447087 L106.214274,432.433432 C106.23871,432.426795 106.265367,432.419431 106.294091,432.411366 L106.386307,432.385093 C106.720117,432.288719 107.164722,432.147675 107.681933,431.972905 C108.803074,431.594062 110.149004,431.096677 111.449862,430.578236 C112.819541,430.032366 114.053627,429.497461 114.957734,429.056785 C115.072038,429.001072 115.178396,428.948143 115.275928,428.898602 L115.375,428.846087 L115.431158,428.769989 C116.181921,427.704805 116.914818,426.089598 118.15111,422.880713 L118.296023,422.503326 C120.706579,416.205698 122.062781,413.438392 125.014707,410.289028 C128.013212,407.089969 131.563482,406.477557 137.071047,406.611773 C137.271291,406.616653 137.46784,406.622204 137.662591,406.628569 L138.050259,406.642429 L138.436506,406.658714 C140.627583,406.758353 142.912674,406.987103 148.053501,407.553252 C148.886247,407.644961 149.465731,407.70811 150.043092,407.769691 C156.951297,408.506509 160.940637,408.602656 162.484332,408.12186 C166.486203,406.875444 168.804789,405.323252 172.256024,402.00034 C172.460761,401.803216 172.672411,401.597851 172.952254,401.325137 C172.954328,401.323116 173.095495,401.185422 173.256667,401.028268 L173.420095,400.868932 C173.527611,400.764122 173.626375,400.66788 173.6811,400.61464 C179.954577,394.511319 184.678988,391.620153 193.20124,390.224503 C203.905637,388.471493 212.053721,389.594621 227.217166,393.511909 C234.678285,395.439396 238.359578,396.297516 241.72808,396.707114 L242.196423,396.761419 C242.429928,396.787178 242.662695,396.810895 242.895903,396.83278 L243.363253,396.87417 C243.753781,396.906731 244.147711,396.934593 244.550494,396.958734 C247.812748,397.154258 250.737937,396.900762 253.537199,396.145518 C254.653202,395.844419 257.253588,393.130906 260.811718,387.971294 C261.135974,387.501092 261.824725,386.482166 262.511666,385.463929 L262.827254,384.996023 C263.504968,383.991001 264.12452,383.071194 264.319605,382.786013 C265.777276,380.655153 266.88252,379.157873 268.002987,377.870685 C268.227856,377.612356 268.434945,377.372155 268.634214,377.137548 L268.870219,376.857903 L269.193634,376.468277 C270.019808,375.46287 270.87718,374.340663 272.541803,372.124912 L272.994875,371.521442 C274.252764,369.845085 275.075985,368.775182 276.00452,367.632269 C280.529365,362.062733 285.408917,357.709847 292.697754,353.221392 C297.458006,350.290035 304.181415,346.542766 312.656232,342.058149 Z M339.386106,328.354053 C340.699683,333.814845 344.259936,338.466366 349.097182,341.388885 L348.301776,341.785447 L346.109959,342.881319 C343.246249,344.314604 340.63377,345.628386 338.469078,346.726776 C337.062434,347.440523 335.682122,348.143305 334.328288,348.835129 C332.04481,350.002013 329.845491,351.133176 327.733815,352.227076 C324.541741,347.185817 321.930157,342.545122 320.082434,338.171394 C322.310272,337.016405 324.633064,335.821474 327.047637,334.587599 C328.415295,333.88871 329.809177,333.17902 331.229185,332.458491 C333.542158,331.284862 336.336564,329.879904 339.386106,328.354053 Z M396.830798,298.601706 C400.143567,302.794517 402.68224,307.594009 404.239426,312.798846 C397.327819,316.770527 390.409618,320.616537 383.545093,324.300985 C383.535747,324.306001 383.516762,324.315757 383.48841,324.330121 L383.277134,324.436087 C383.239286,324.454978 383.197647,324.475734 383.152291,324.49832 C383.160972,324.224482 383.166667,323.94793 383.166667,323.670118 C383.166667,318.196557 380.956233,313.212098 377.334908,309.474203 L376.154354,310.107887 L377.381868,309.448103 C383.467008,306.165629 389.592672,302.755237 395.713593,299.244288 Z M583.833835,121.818502 C587.227395,124.6478 587.68482,129.692424 584.855522,133.085984 C580.727418,138.037378 576.710667,142.961776 572.398155,148.328281 C571.691044,149.208212 570.286875,150.963144 568.849475,152.759697 L568.395229,153.327442 C567.825725,154.039235 567.261976,154.743787 566.745301,155.389228 L566.124826,156.164158 C565.355605,157.124591 564.758698,157.868658 564.515145,158.169079 C561.208376,162.247954 558.436696,166.424032 555.867903,171.081481 C555.600538,171.566238 555.339029,172.048223 555.080561,172.53297 L554.69479,173.262856 C553.029952,176.440663 551.434199,179.852081 549.134829,185.016748 C545.808887,192.487221 544.349565,195.731135 542.866643,198.734412 L542.664103,199.142833 L542.460204,199.550516 C541.947875,200.570675 541.412831,201.60498 540.780183,202.811354 C539.181682,205.85948 532.243218,214.550264 524.515049,223.448942 L523.788359,224.283636 L522.860665,225.343248 L521.928562,226.401184 C515.081146,234.148269 508.015543,241.596063 503.755019,245.133622 C478.479969,266.119768 445.245304,288.758857 411.323703,308.683354 C409.575507,303.559606 407.019963,298.799014 403.805445,294.542407 C436.819372,275.115031 469.111797,253.101856 493.534043,232.823802 C497.814975,229.269298 505.225614,221.381771 513.306562,211.941738 C513.598527,211.600669 513.889856,211.259157 514.180074,210.917825 L514.758885,210.235587 L515.324791,209.565726 C521.056667,202.766892 526.090959,196.371027 526.610442,195.380445 C527.238045,194.183689 527.76197,193.169194 528.272995,192.144999 L528.464202,191.760097 L528.559685,191.566601 L528.751073,191.176117 C530.062635,188.488049 531.475778,185.342393 534.51801,178.509169 C537.519737,171.766921 539.444466,167.729389 541.8576,163.354166 C544.867259,157.897389 548.159967,152.93628 552.086417,148.093032 C552.499441,147.58357 554.041957,145.656211 555.689928,143.596495 L556.14122,143.032439 L556.616839,142.437976 C557.960303,140.758841 559.247111,139.15085 559.926173,138.305823 C564.294559,132.869788 568.36983,127.873647 572.566353,122.840189 C575.395651,119.446629 580.440275,118.989204 583.833835,121.818502 Z" id="Combined-Shape" stroke="none" fill="#FFFFFF" fill-rule="nonzero"></path>
                        <path d="M258.222676,196.700549 C264.838069,194.772684 269.93966,194.762041 281.057766,195.754789 C285.874025,196.184839 287.956476,196.323681 290.405187,196.318573 C294.823455,196.309356 298.412641,199.883599 298.421875,204.301867 C298.431074,208.720136 294.856832,212.309321 290.438563,212.318538 C287.338952,212.325004 284.938432,212.164955 279.63477,211.691385 C270.513034,210.876895 266.73731,210.884772 262.699199,212.061562 C262.690507,212.064095 262.667096,212.075113 262.602432,212.117558 C262.454274,212.214808 262.259057,212.379276 262.015759,212.627462 C261.423961,213.231149 260.83577,213.998857 259.595107,215.765236 C259.496597,215.905518 259.496597,215.905518 259.396246,216.048429 C257.148094,219.249382 255.902419,220.809559 253.896122,222.541804 C253.755991,222.662894 253.755991,222.662894 253.614911,222.78517 C253.364538,223.002316 253.10379,223.229568 252.769204,223.522 C252.710966,223.5729 252.501631,223.755989 252.297439,223.934559 L251.969195,224.221573 L251.897247,224.284452 C246.230031,229.235585 242.944657,231.637309 238.283651,233.556083 C234.181379,235.244846 228.160336,235.839079 219.655295,235.918622 C216.238524,235.950577 212.833607,235.893255 208.499882,235.762428 C207.775432,235.740559 205.598843,235.671529 205.466318,235.667432 C204.458835,235.63628 203.803519,235.618785 203.297651,235.610435 C198.879975,235.537513 195.357855,231.897164 195.430777,227.479488 C195.503699,223.061812 199.144048,219.539692 203.561724,219.612614 C204.164978,219.622572 204.881186,219.641693 205.9608,219.675074 C206.104636,219.679522 208.272998,219.74829 208.982669,219.769714 C213.123419,219.894715 216.342365,219.948906 219.505662,219.919322 C225.908421,219.85944 230.664052,219.390094 232.192912,218.760715 C234.727222,217.717428 236.981677,216.069342 241.370425,212.235136 C241.538662,212.088156 242.131343,211.569732 242.239883,211.474867 C242.588515,211.170159 242.863463,210.930531 243.131706,210.697886 C243.285273,210.564788 243.285273,210.564788 243.439816,210.431244 C244.116143,209.847301 244.809396,208.979019 246.302933,206.852497 C246.4016,206.711985 246.4016,206.711985 246.50203,206.568968 C248.238603,204.096544 249.189049,202.85602 250.590105,201.426817 C252.785449,199.187371 255.257681,197.564611 258.222676,196.700549 Z" id="Path-5" stroke="none" fill="#FFFFFF" fill-rule="nonzero"></path>
                        <path d="M329.844427,213.009138 C333.053674,218.403718 335.498312,223.113281 337.337414,227.550802 C335.372409,229.20852 333.103347,231.223795 330.471009,233.668156 C327.233353,236.674609 322.171502,236.487182 319.165048,233.249526 C316.158595,230.011869 316.346022,224.950018 319.583678,221.943565 C323.551132,218.259429 326.855462,215.391807 329.663643,213.151079 Z M367.709421,165.942899 C366.820996,168.674603 365.703186,171.313816 364.33596,173.883447 C362.725079,176.911016 360.616758,179.413104 357.87099,181.92317 C356.832769,182.872268 353.912051,185.327043 353.859098,185.373509 C353.703755,185.509822 353.568825,185.631233 353.453287,185.73815 L353.39132,185.795149 L353.33555,186.008758 C353.110928,186.863392 352.896245,187.696139 352.691289,188.507309 L352.391125,189.70792 C350.389502,197.802052 349.398828,203.645675 349.191756,207.574249 L349.178257,207.852444 C349.076734,210.147107 348.983224,209.638053 349.562774,211.612793 C349.746611,212.239195 349.874038,212.867397 349.915322,213.642547 C349.982046,214.89538 349.774409,216.179984 349.239263,217.413848 C348.76474,218.507938 348.117642,219.386958 347.362648,220.120164 C346.935129,220.535346 346.53171,220.850969 346.095068,221.149701 C345.811797,221.343503 344.462868,222.160216 343.86851,222.54631 C341.021632,216.123552 337.355194,209.769792 333.468542,203.612451 C334.079201,197.91381 335.596848,190.393106 338.216253,180.602498 C338.381435,179.985092 338.599382,179.391991 338.863606,178.821305 C339.847546,176.696146 341.188615,175.205186 343.306068,173.34714 C343.439122,173.230387 344.11231,172.661974 344.866478,172.021115 C346.920444,172.65193 349.111981,172.992699 351.3875,172.992699 C355.577251,172.992699 359.482292,171.837452 362.767314,169.844735 C364.618483,168.789771 366.284984,167.470974 367.709421,165.942899 Z M352.5,110.670118 C357.412751,110.670118 362.139564,111.442959 366.558472,112.870238 C367.15192,115.3919 367.597526,117.684046 367.831313,119.426736 C367.935861,120.206056 368.041573,120.984592 368.194083,122.101081 C369.605957,132.43712 370.245191,137.878499 370.426562,143.070093 C367.078696,137.252841 360.781837,133.193853 353.45183,132.717167 C353.158872,130.332557 352.792596,127.570403 352.341296,124.266529 C352.187199,123.138411 352.07998,122.348785 351.973374,121.554125 C351.921321,121.166111 351.64879,119.792635 351.280476,118.152698 C350.821828,116.110548 350.268209,113.868643 349.69049,111.750335 C349.6002,111.419272 349.50987,111.093202 349.419618,110.772588 C350.436898,110.704465 351.464317,110.670118 352.5,110.670118 Z M382.509138,0.379213368 C386.719169,1.71966754 389.045421,6.21922501 387.704967,10.4292563 C387.413725,11.3439764 387.289685,12.906325 387.215435,16.7370441 C387.205388,17.2553943 387.201131,17.4688688 387.194963,17.753008 C387.164587,19.1521192 387.127675,20.1913992 387.062616,21.2330486 C386.749365,26.2484377 385.842005,29.992561 383.434803,33.279617 C381.416851,36.0351496 379.236859,38.3294168 376.851608,40.2612201 C373.578678,42.9119507 371.48146,44.0268387 365.865351,46.5684614 C362.515328,48.0845456 361.149471,48.8976635 359.87984,50.2053546 C358.147119,51.9900166 356.663332,54.8386495 355.380239,59.5607803 C354.761767,61.8369251 354.06103,63.9322589 353.119741,66.4440056 C352.940111,66.9233298 352.759574,67.3977738 352.517828,68.0278551 C352.452194,68.1989215 352.37241,68.406575 352.230539,68.7758123 C352.118514,69.0675032 352.035023,69.285401 351.954718,69.4958753 C351.536427,70.5921784 351.247508,71.3781335 350.993306,72.1220103 C349.793678,75.6325087 349.451247,78.1312373 349.881225,81.4081236 C349.89412,81.5063919 350.188167,82.1508449 350.855602,83.1323436 C351.613182,84.2464042 352.652894,85.5148602 354.175916,87.2124749 C354.687614,87.782832 356.474435,89.7381216 356.736425,90.0279721 C357.81007,91.21579 358.583602,92.1126356 359.272867,92.9948663 C360.870031,95.0391691 362.592516,99.2729139 364.082798,103.922613 C360.355186,103.102237 356.478473,102.670118 352.5,102.670118 C350.544909,102.670118 348.614392,102.774471 346.714051,102.977811 C346.671687,102.89503 346.633248,102.824198 346.599925,102.766493 C346.596666,102.760851 346.59464,102.757216 346.594016,102.755693 L346.560925,102.714038 C346.168127,102.221632 345.634565,101.606408 344.866645,100.756827 C344.749877,100.627641 344.156958,99.9781802 343.549285,99.3110335 L343.246355,98.9783131 C342.846504,98.5389256 342.474273,98.1289066 342.266371,97.8971713 C340.30565,95.7116811 338.868846,93.9587715 337.62488,92.1294542 C335.676117,89.2636964 334.411032,86.4910513 334.017212,83.4897296 C333.237032,77.5439387 333.909885,72.6341056 335.852925,66.9481473 C336.179304,65.9930588 336.52636,65.0489514 337.005869,63.7921979 C337.091078,63.5688728 337.17835,63.3411083 337.294196,63.0394662 C337.437481,62.6665484 337.515562,62.4633279 337.57959,62.2964464 C337.807717,61.7018609 337.974877,61.2625733 338.137267,60.8292489 C338.918155,58.7455207 339.469984,57.0954484 339.940073,55.3653932 C343.541373,42.1116302 348.741176,36.7559535 359.268506,31.9917116 C363.640316,30.0132078 364.928538,29.3283849 366.781646,27.8275614 C368.091198,26.7669615 369.318357,25.4754754 370.526134,23.826244 C370.667252,23.6335463 370.9559,22.4424706 371.093733,20.2356655 C371.142567,19.453799 371.172667,18.606318 371.198732,17.4057218 C371.204538,17.1383148 371.208639,16.932661 371.21844,16.4269807 C371.326077,10.873712 371.510126,8.55551918 372.459095,5.57504228 C373.79955,1.36501103 378.299107,-0.961240807 382.509138,0.379213368 Z" id="Combined-Shape" stroke="none" fill="#FFFFFF" fill-rule="nonzero"></path>
                        <path d="M163.240293,510.000469 C167.823135,517.601815 170.916373,523.836447 172.944343,529.806017 C171.457114,530.757413 169.832371,532.066488 167.887505,533.884871 C167.74513,534.017986 167.416113,534.730778 167.194056,536.10957 C166.877958,538.072276 166.9663,540.593725 167.473108,543.213598 C167.971054,545.787659 168.828945,548.221723 169.823395,550.002104 C170.127312,550.546214 170.417006,550.980108 170.661254,551.285449 L170.750779,551.393264 L171.040764,551.518207 C175.460794,553.397906 179.837172,555.063735 184.933353,556.849699 L185.962413,557.208593 C186.951821,557.552034 197.087959,560.980628 199.801844,561.962269 C222.452437,570.155236 231.488281,581.033086 231.488281,606.123243 C231.488281,635.016062 203.349392,654.400587 165.800781,654.400587 C159.725649,654.400587 154.800781,649.475719 154.800781,643.400587 C154.800781,637.325455 159.725649,632.400587 165.800781,632.400587 C192.56769,632.400587 209.488281,620.744206 209.488281,606.123243 C209.488281,597.651752 208.17749,592.921218 205.800689,590.059893 C203.668755,587.493353 199.949581,585.410665 192.31869,582.650488 C191.255168,582.265801 188.790233,581.41788 186.240858,580.546671 L185.574754,580.31916 L184.882423,580.082917 C182.008954,579.102833 179.326974,578.193026 178.748094,577.992086 C172.392796,575.786049 167.016071,573.743288 161.445613,571.341545 C153.317866,567.837208 147.979919,558.280582 145.873545,547.391982 C143.648419,535.889505 145.442039,524.752608 152.862495,517.81474 C156.411417,514.496622 159.749697,511.969694 163.100205,510.077399 Z M228.852495,462.536479 C226.625307,468.645808 222.834466,475.228359 218.285714,482.003998 C216.196036,485.116699 213.97278,488.301651 211.723905,491.56733 L210.929297,492.723289 C203.98897,502.840198 196.926107,513.732349 192.894837,525.647428 C189.988584,526.218107 186.871346,526.608591 182.972926,526.990806 C181.963956,527.089729 181.17615,527.172849 180.517629,527.253106 C178.162331,520.372674 174.64137,513.518564 170.679473,506.846564 C171.735769,506.53318 172.808352,506.267287 173.903378,506.044496 C175.993007,505.619346 177.707598,505.401553 180.82626,505.095788 C188.038466,504.388678 191.084708,503.797968 196.607645,501.575037 C197.368753,501.268698 198.982408,499.911341 201.098778,497.441623 C201.232777,497.285252 201.364906,497.129789 201.495837,496.97433 L201.756299,496.66315 L202.014757,496.350373 L202.272402,496.03439 C204.247617,493.595462 206.256317,490.732197 210.7158,484.184274 C216.428075,475.79686 219.44047,471.709306 223.250032,467.65633 C225.060258,465.73044 226.884451,464.040452 228.749557,462.6142 Z M243.402752,479.314762 C243.296265,479.360629 243.16096,479.428575 242.998148,479.522248 L242.870901,479.597384 C241.91674,480.174602 240.698825,481.214701 239.280304,482.723858 C236.535528,485.644012 233.948096,489.154929 228.899274,496.568186 C224.400773,503.173399 222.157689,506.386213 219.908422,509.214317 L219.594302,509.606742 C219.38456,509.867097 219.173853,510.125335 218.960362,510.383874 L218.63781,510.772213 C218.366897,511.096523 218.090212,511.423197 217.804198,511.756963 C213.592713,516.671594 209.529964,520.089054 204.822042,521.983949 C204.007819,522.311666 203.226011,522.615558 202.468562,522.898036 C205.588327,515.717601 210.264412,507.887263 216.728092,498.415211 C217.019607,497.988018 218.998904,495.11974 220.98907,492.224994 L221.386751,491.646407 C222.841803,489.528874 224.242581,487.483675 224.927758,486.463062 C232.360934,475.3909 236.944207,466.202043 238.450368,457.83186 C240.000759,457.472236 241.59975,457.287306 243.257812,457.287306 C257.83548,457.287306 267.746223,454.515568 277.76603,449.019669 C278.999816,448.342933 280.231584,447.632053 281.77668,446.712923 C282.017295,446.569789 284.903383,444.839903 285.747116,444.343343 C289.282954,442.262403 291.849331,440.941454 294.662667,439.900136 C302.271662,437.08377 309.764629,437.405369 317.776136,441.270802 C332.830106,448.534119 343.506588,450.576036 352.266313,448.741974 C359.710853,447.183277 366.590738,442.88422 377.400637,433.40673 C401.342065,412.416282 415.438595,397.630559 422.369824,386.702206 C427.581271,378.485404 428.472565,373.448491 426.87028,367.249388 C426.726009,366.691217 426.625194,366.279876 426.525114,365.902864 L426.487535,365.762874 L426.430201,365.55604 C426.41074,365.487313 426.390835,365.418558 426.370206,365.349031 L426.327896,365.208732 C425.900704,363.814693 425.120446,361.931378 421.84506,353.917917 C414.118393,335.014087 421.404737,313.045155 438.648013,298.314342 C443.002809,294.59407 448.355398,290.514489 455.118573,285.674533 C456.927409,284.380069 458.836539,283.031504 460.936666,281.562538 C462.021115,280.804003 464.045646,279.398422 466.174131,277.922804 L466.756576,277.51906 L467.340407,277.114444 C470.451165,274.958792 473.460225,272.876924 473.794507,272.644524 C477.977396,269.736481 480.986747,267.599088 483.430997,265.782759 L483.717779,265.568264 L483.734846,265.549481 C484.062917,265.173055 484.507731,264.63539 485.043831,263.96536 L485.249098,263.70795 C486.543929,262.078945 488.224223,259.869792 490.078742,257.359591 C490.603067,256.649886 491.131173,255.929932 491.658398,255.206314 L492.447992,254.118963 C495.467768,249.946559 498.381332,245.761879 500.302307,242.816811 C518.395185,215.07842 542.337577,190.574328 567.922918,174.846048 C574.431241,170.845135 581.614586,168.977217 589.802598,168.668874 C595.457009,168.455942 599.754253,168.818161 609.667297,170.03021 C611.688061,170.277285 612.886476,170.421037 614.012182,170.547789 L614.460363,170.597788 C614.609649,170.614289 614.759419,170.630691 614.91145,170.647201 C615.173963,170.675709 615.431019,170.703085 615.683521,170.729408 C621.725909,171.359318 626.113589,176.768283 625.483679,182.810671 C624.853769,188.853058 619.444804,193.240738 613.402416,192.610828 C613.117998,192.581178 612.829636,192.550468 612.536312,192.518615 C612.370674,192.500627 612.207957,192.48281 612.046286,192.46495 L611.56253,192.411018 C610.351593,192.27478 609.093845,192.12393 606.997283,191.867587 C591.023395,189.91449 585.054241,190.139276 579.444269,193.587938 C556.805252,207.505002 535.13494,229.68371 518.728943,254.835925 C516.447727,258.333282 513.547078,262.524515 510.603128,266.593615 L510.013932,267.405565 C504.807278,274.559132 499.585355,281.161719 497.524933,282.713887 C494.652023,284.878123 491.250183,287.303227 486.352707,290.708068 C486.022846,290.937395 483.439091,292.725126 480.611217,294.68429 L480.023315,295.091625 C479.728282,295.296061 479.43212,295.501308 479.137053,295.70583 L478.549041,296.113454 C476.500724,297.533571 474.578782,298.868029 473.546367,299.590168 C471.507164,301.01652 469.661255,302.320427 467.921776,303.565256 C461.626629,308.070276 456.726054,311.805346 452.937925,315.041519 C442.429502,324.018792 438.380666,336.22637 442.209628,345.594194 C442.444223,346.168147 442.684351,346.750889 443.005329,347.526363 C443.100179,347.755516 443.205161,348.00894 443.405197,348.491788 C443.568422,348.885859 443.687883,349.174593 443.805216,349.458784 C444.461982,351.049527 444.935054,352.217278 445.386211,353.373263 C446.599188,356.481234 447.489505,359.110076 448.170287,361.743966 C454.393812,385.822251 441.05056,406.860335 391.90405,449.949131 C378.480957,461.717717 368.823598,467.752344 356.77479,470.275056 C342.668643,473.228523 327.287744,470.286867 308.216052,461.085059 C305.621156,459.83306 304.337056,459.777947 302.299337,460.532181 C301.448036,460.847278 298.928045,462.218814 296.257407,463.725505 L295.683375,464.050101 L295.203886,464.322304 C295.044121,464.413155 294.884526,464.504057 294.725422,464.594816 L294.249902,464.866471 C291.09385,466.672054 288.262153,468.342767 288.31603,468.324238 L288.325092,468.319386 L287.699964,468.66005 C274.98646,475.517594 261.855106,479.1646 244.161442,479.284262 L243.470092,479.285386 L243.402752,479.314762 Z" id="Combined-Shape" stroke="none" fill="#FFFFFF" fill-rule="nonzero"></path>
                        <g id="pin-hover" stroke="none" stroke-width="1" fill="none" fill-rule="evenodd" transform="translate(137, 107.6701)">
                            <path d="M44.5,0 C69.0766714,0 89,19.3413599 89,43.2001364 C89,51.9548658 83.6310054,62.3926278 76.2857143,73.33388 C64.3622556,91.0945875 48.0898945,111.20755 47.5238579,135.247666 C47.2025046,137.325652 45.4195369,138 44.5,138 C43.590476,138 41.5705713,136.982101 41.5705713,135.247666 C41.570571,114.012403 24.6092227,91.8012962 12.5234669,73.33388 C4.87455469,61.6461008 0,52.1052789 0,43.2001364 C0,19.3413599 19.9233286,0 44.5,0 Z M43.3875,22.2580645 C31.7135811,22.2580645 22.25,31.2268119 22.25,42.2903226 C22.25,53.3538332 31.7135811,62.3225806 43.3875,62.3225806 C55.0614189,62.3225806 64.525,53.3538332 64.525,42.2903226 C64.525,31.2268119 55.0614189,22.2580645 43.3875,22.2580645 Z" id="Combined-Shape" fill="#FFFFFF" fill-rule="nonzero"></path>
                        </g>
                        <path d="M352.5,110.670118 C377.076671,110.670118 397,130.011478 397,153.870254 C397,162.624984 391.631005,173.062746 384.285714,184.003998 C372.362256,201.764705 356.089895,221.877668 355.523858,245.917784 C355.202505,247.99577 353.419537,248.670118 352.5,248.670118 C351.590476,248.670118 349.570571,247.652219 349.570571,245.917784 C349.570571,224.682521 332.609223,202.471414 320.523467,184.003998 C312.874555,172.316219 308,162.775397 308,153.870254 C308,130.011478 327.923329,110.670118 352.5,110.670118 Z M351.3875,132.928183 C339.713581,132.928183 330.25,141.89693 330.25,152.960441 C330.25,164.023951 339.713581,172.992699 351.3875,172.992699 C363.061419,172.992699 372.525,164.023951 372.525,152.960441 C372.525,141.89693 363.061419,132.928183 351.3875,132.928183 Z" id="Combined-Shape" stroke="none" fill="#FFFFFF" fill-rule="nonzero"></path>
                        <path d="M361.5,281.670118 C386.076671,281.670118 406,301.011478 406,324.870254 C406,333.624984 400.631005,344.062746 393.285714,355.003998 C381.362256,372.764705 365.089895,392.877668 364.523858,416.917784 C364.202505,418.99577 362.419537,419.670118 361.5,419.670118 C360.590476,419.670118 358.570571,418.652219 358.570571,416.917784 C358.570571,395.682521 341.609223,373.471414 329.523467,355.003998 C321.874555,343.316219 317,333.775397 317,324.870254 C317,301.011478 336.923329,281.670118 361.5,281.670118 Z M360.3875,303.928183 C348.713581,303.928183 339.25,312.89693 339.25,323.960441 C339.25,335.023951 348.713581,343.992699 360.3875,343.992699 C372.061419,343.992699 381.525,335.023951 381.525,323.960441 C381.525,312.89693 372.061419,303.928183 360.3875,303.928183 Z" id="Combined-Shape" stroke="none" fill="#FFFFFF" fill-rule="nonzero"></path>
                        <path d="M186.5,408.670118 C211.076671,408.670118 231,428.011478 231,451.870254 C231,460.624984 225.631005,471.062746 218.285714,482.003998 C206.362256,499.764705 190.089895,519.877668 189.523858,543.917784 C189.202505,545.99577 187.419537,546.670118 186.5,546.670118 C185.590476,546.670118 183.570571,545.652219 183.570571,543.917784 C183.570571,522.682521 166.609223,500.471414 154.523467,482.003998 C146.874555,470.316219 142,460.775397 142,451.870254 C142,428.011478 161.923329,408.670118 186.5,408.670118 Z M185.3875,430.928183 C173.713581,430.928183 164.25,439.89693 164.25,450.960441 C164.25,462.023951 173.713581,470.992699 185.3875,470.992699 C197.061419,470.992699 206.525,462.023951 206.525,450.960441 C206.525,439.89693 197.061419,430.928183 185.3875,430.928183 Z" id="Combined-Shape" stroke="none" fill="#FFFFFF" fill-rule="nonzero"></path>
                    </g>
                </g>
            </g>
        </g>
    </g>
</svg>