<?xml version="1.0" encoding="UTF-8"?>
<svg width="150px" height="150px" viewBox="0 0 150 150" version="1.1" xmlns="http://www.w3.org/2000/svg" xmlns:xlink="http://www.w3.org/1999/xlink">
    <title>mini-map</title>
    <defs>
        <circle id="path-1" cx="75" cy="75" r="75"></circle>
    </defs>
    <g id="PanoTour" stroke="none" stroke-width="1" fill="none" fill-rule="evenodd">
        <g id="tour-cover-v1" transform="translate(-3134, -1731)">
            <g id="mini-map" transform="translate(3134, 1731)">
                <mask id="mask-2" fill="white">
                    <use xlink:href="#path-1"></use>
                </mask>
                <g id="Mask"></g>
                <g id="front-map" mask="url(#mask-2)">
                    <g transform="translate(0, -4)">
                        <ellipse id="Oval" stroke-opacity="0.3" stroke="#FFFFFF" stroke-width="8" fill-opacity="0.2" fill="#000000" fill-rule="evenodd" cx="75" cy="79.6582587" rx="71" ry="70.3417413"></ellipse>
                        <path d="M69.8655087,47.8823207 C70.6683187,47.218705 71.861855,47.3258322 72.5313467,48.1215961 C75.1022697,51.1774183 76.3523436,54.0450787 76.6575216,57.2336379 C76.83741,59.1131477 76.7576775,60.2856356 76.3362943,64.0228613 C75.9558321,67.3971616 75.8552717,69.3491252 76.0548842,71.8361678 C76.0987106,72.3822155 76.580922,73.3672164 77.4163378,74.5986999 C77.6493977,74.9422526 77.8416992,75.241773 78.0308759,75.5512191 C78.1123124,75.6844288 78.3549456,76.0903097 78.4032006,76.1688336 C78.4360611,76.2223065 78.4657813,76.2696487 78.4943967,76.3140357 C78.5178885,76.350475 78.5408039,76.3851798 78.5637665,76.4190662 C79.1466253,77.2792051 78.9156713,78.4448387 78.0479163,79.0225819 C77.1801614,79.600325 76.0042066,79.3713981 75.4213479,78.5112592 C75.3819331,78.4530939 75.3432597,78.394524 75.3045746,78.3345175 C75.260416,78.2660209 75.2165453,78.1961378 75.1702688,78.1208335 C75.1194144,78.0380796 74.9520485,77.7585703 74.8524876,77.5934001 L74.8092109,77.5217836 L74.7934103,77.495822 C74.634096,77.2352235 74.4736084,76.9852549 74.2749981,76.6924842 C73.0938677,74.9513841 72.3924734,73.5186639 72.2813183,72.1337449 C72.0581365,69.353045 72.1690996,67.1991589 72.5742285,63.6060906 C72.8816425,60.8796521 72.9905476,59.6572218 72.9513555,58.515481 L72.946592,58.3933956 C72.9448167,58.3527601 72.9428549,58.3121627 72.9407088,58.2715386 L72.9337198,58.1495211 C72.9224138,57.96618 72.907422,57.7809841 72.8889539,57.5880251 C72.6575728,55.1705102 71.7165843,53.0118895 69.6241146,50.5247612 C68.9546229,49.7289973 69.0626987,48.5459364 69.8655087,47.8823207 Z" id="Path-2" stroke="none" fill="#FFFFFF" fill-rule="nonzero"></path>
                        <path d="M74.043156,80.181524 C74.4837932,81.179367 75.0849586,82.2570023 75.8570209,83.4751983 C73.8666906,84.5174608 72.3023807,85.3799066 71.2351899,86.0313133 C69.8825014,86.856986 69.047213,87.5955792 68.2388288,88.581869 C68.057072,88.803626 67.8871764,89.0224936 67.6165451,89.3799916 C66.8949595,90.3331902 66.6972671,90.5859378 66.2629097,91.0805467 C66.1177396,91.2458541 65.9286315,91.4997911 65.6605712,91.8882091 C65.5750956,92.0120628 65.0044239,92.8544842 64.8225683,93.1158768 C63.4564662,95.0794625 62.4377076,96.1332107 60.9712119,96.5254003 C59.8934585,96.8136273 58.7949287,96.9079902 57.6324719,96.8389296 C56.2488875,96.7567319 55.3209801,96.5607326 52.8111558,95.9180414 C49.706495,95.1230303 48.1831492,94.9148959 46.3218552,95.2170361 C45.1999008,95.3991608 44.7106599,95.6959306 43.7314384,96.6402312 C43.6946783,96.6756804 43.5638285,96.8021908 43.5612945,96.8046386 C43.4900944,96.873416 43.4350195,96.9263862 43.380148,96.9787539 C42.1754837,98.1284467 41.1595404,98.8026071 39.568351,99.2938464 C38.5032491,99.6226695 37.3153147,99.5942902 35.0976773,99.3598365 C34.9558701,99.3448444 34.8150137,99.3296291 34.6140476,99.3076914 C33.2759443,99.161622 32.8312702,99.1202536 32.337836,99.1083345 L32.2178361,99.1064775 L32.1033123,99.1069421 L32.094001,99.1230156 C31.9492695,99.3728011 31.7904691,99.7378987 31.5575702,100.337076 L31.5237884,100.424278 C30.9666012,101.867166 30.6559225,102.501452 29.988219,103.230708 C29.355572,103.921676 26.6797213,104.978744 25.7195919,105.120771 C24.7143721,105.269468 23.3821025,105.531994 22.2377066,105.801728 L22.1051262,105.833111 L22.1799345,105.933207 C23.0424859,107.091041 23.990861,108.490801 24.3920688,109.292975 L24.4121451,109.333974 L24.4207062,109.345059 C24.4324809,109.359769 24.4480276,109.377753 24.4673477,109.398625 L24.4879256,109.420445 C24.5825128,109.519013 24.720446,109.640872 24.9066223,109.788954 C24.9311192,109.808438 24.9547899,109.827141 24.9784878,109.845707 L25.0261728,109.882849 C25.1628165,109.988652 25.3186081,110.103889 25.6488647,110.345981 C26.4878798,110.961017 26.8804623,111.275033 27.2943128,111.714802 C28.0609912,112.529495 28.4769336,113.442281 28.281527,114.522776 C27.9864466,116.154415 26.6699071,116.890466 24.998238,116.994022 C24.0342803,117.053736 22.8996139,116.916879 21.5075142,116.62655 C21.037608,116.528549 20.5492438,116.415224 19.9962975,116.278225 C19.6309204,116.187699 18.3946602,115.869852 18.15712,115.811568 C17.9051593,115.749745 17.7163379,115.706969 17.5784135,115.680533 C17.5432643,115.673796 17.513345,115.6685 17.489323,115.664625 L17.4752366,115.662168 L17.2135929,115.66897 C15.6803694,115.712506 14.2293236,115.823174 12.8424618,116.008138 L12.7272871,116.024027 L12.6995591,116.036938 C12.6895704,116.041603 12.6791283,116.046519 12.6682537,116.051679 L12.6343529,116.067884 C12.4435761,116.159715 12.1783678,116.297438 11.8525469,116.474018 C11.2329629,116.809803 10.4183105,117.272892 9.50875779,117.804629 L9.29373181,117.93059 L8.86263851,118.184581 C7.42821913,119.032818 6.05186495,119.877114 5.70804939,120.11866 C4.8552057,120.717822 3.67382179,120.518241 3.06935456,119.672882 C2.46488734,118.827524 2.66623625,117.656508 3.51907994,117.057346 C3.93903213,116.762311 5.22920164,115.967722 6.63753325,115.131361 L6.825945,115.019639 L6.92055224,114.963667 L7.11032187,114.851655 C7.20534222,114.795655 7.30051635,114.739696 7.39562143,114.683913 L7.58567349,114.572622 C10.1667154,113.06371 11.3355778,112.430241 12.0095189,112.334556 C13.7419763,112.088587 15.5486112,111.951352 17.459429,111.909324 C17.8796932,111.900081 18.2912309,111.978958 19.0667184,112.169236 C19.1939488,112.200454 19.5491798,112.291013 19.9211145,112.385879 L20.0809217,112.42664 C20.3279184,112.489633 20.5689842,112.551063 20.742466,112.594871 L20.914258,112.637956 C21.4246995,112.764423 21.8688883,112.867497 22.2869218,112.95468 C22.5280876,113.004976 22.7573595,113.049125 22.9741011,113.087004 L23.0380126,113.097964 C22.9042663,112.999045 22.8093146,112.927588 22.7192201,112.858068 L22.6297412,112.788432 C22.5997856,112.764927 22.5693662,112.740874 22.5374796,112.715512 C21.8080047,112.1353 21.3221295,111.628977 21.0090163,110.976971 C20.8195049,110.582344 20.2871986,109.772332 19.7108082,108.958658 L19.5821172,108.777948 C19.1945957,108.236643 18.7973154,107.707265 18.4787833,107.311806 C17.2617429,105.800845 17.966679,103.075679 19.94673,102.514401 C21.2665848,102.140266 23.2326537,101.718284 24.7569176,101.472192 L25.1536673,101.41028 L25.1167192,101.415992 L25.1295601,101.41279 C25.1353415,101.411233 25.1416485,101.409506 25.1484443,101.407615 L25.1702618,101.401453 C25.249239,101.378852 25.3544294,101.345775 25.4767981,101.304788 C25.7420522,101.215943 26.0604899,101.099298 26.3682638,100.977715 C26.6923204,100.8497 26.9842965,100.724256 27.1982021,100.62091 L27.2373314,100.601819 L27.2969243,100.571498 L27.3102108,100.553652 C27.4878361,100.303849 27.6612345,99.9250557 27.9537327,99.1725192 L27.9880181,99.0840155 C28.5583388,97.6071176 28.8792069,96.9581388 29.577612,96.2195607 C30.2870375,95.4693285 31.1270068,95.3257078 32.4300585,95.3571836 L32.5700136,95.3611227 L32.6617331,95.3643729 L32.7531165,95.3681921 C33.2715101,95.3915591 33.8121468,95.4452047 35.0284308,95.577976 C35.2254527,95.5994832 35.3625547,95.6142929 35.4991544,95.6287345 C37.1335877,95.8015306 38.0774377,95.8240787 38.4426653,95.711324 C39.3894803,95.419019 39.9380416,95.0550042 40.7545798,94.2757264 C40.8030191,94.2294975 40.853094,94.1813361 40.9193029,94.1173801 L40.9411984,94.0962128 C40.9543761,94.0834738 40.9722589,94.0661871 40.9913249,94.0477595 L41.0299909,94.0103925 C41.0554285,93.9858128 41.0787953,93.9632425 41.0917428,93.9507567 C42.576004,92.519427 43.6937668,91.8414008 45.7100725,91.5140978 C48.2426587,91.102988 50.1704386,91.3663801 53.7580046,92.2850489 C55.5232535,92.7370765 56.3942219,92.9383198 57.1911862,93.0343773 L57.3019928,93.0471127 C57.3572385,93.0531537 57.4123096,93.0587157 57.4674849,93.0638481 L57.5780566,93.0735547 C57.6704529,93.0811907 57.763654,93.087725 57.8589497,93.0933864 C58.6307764,93.13924 59.3228559,93.0797909 59.9851416,92.9026737 C60.2491803,92.832061 60.8644136,92.1956974 61.7062423,90.9856832 C61.7829593,90.8754131 61.9459128,90.6364581 62.1084383,90.3976646 L62.1831041,90.2879329 C62.3434467,90.0522387 62.4900283,89.8365286 62.5361842,89.7696489 C62.8810589,89.2699271 63.1425521,88.9187903 63.4076467,88.6169233 C63.4608492,88.5563409 63.5098451,88.5000098 63.5569906,88.4449906 L63.6128278,88.3794092 C63.8522465,88.0963218 64.0671108,87.8169191 64.5886928,87.1279208 C64.8863007,86.7347874 65.0810691,86.4838775 65.3007539,86.2158454 C66.371301,84.9096972 67.5257689,83.8888735 69.2502572,82.8362565 C70.3861258,82.1429293 71.9944373,81.2549722 74.0237978,80.1912865 Z M80.2971362,77.0040881 C80.6071767,78.2851034 81.4495227,79.3759763 82.594002,80.0613568 L82.405783,80.1543383 L81.8872142,80.4113385 C81.2096803,80.7474676 80.591586,81.0555711 80.0794349,81.3131617 C79.7466328,81.4805473 79.4200605,81.6453611 79.0997528,81.8076054 C78.5589151,82.081554 78.0380318,82.3471074 77.5379301,82.6039029 C76.784207,81.4206606 76.1660613,80.3318565 75.7288245,79.3057084 C76.2563118,79.0359506 76.8058978,78.7557043 77.3772012,78.466324 C77.7007796,78.302423 78.0305623,78.1359889 78.3665265,77.967013 L79.2764522,77.5115532 C79.5975629,77.351438 79.9399558,77.1812357 80.2971362,77.0040881 Z M93.886923,70.0264229 C94.6709102,71.0098136 95.2716999,72.135539 95.6401996,73.3563585 C94.004982,74.2879384 92.3681949,75.1898849 90.7441071,76.0539429 C90.736863,76.0577969 90.7051454,76.0735806 90.6511974,76.1002092 C90.6532173,76.0364619 90.6545741,75.9713769 90.6545741,75.9059942 C90.6545741,74.6221615 90.1314442,73.4530656 89.2744358,72.5764238 L88.9538671,72.7478059 C90.4180607,71.968816 91.8930462,71.1582199 93.3675214,70.3227887 Z M138.131034,28.5684529 C138.933926,29.2319701 139.04215,30.4150177 138.372758,31.2108638 C137.396077,32.3720475 136.445741,33.5269001 135.425431,34.7854343 C135.258133,34.9917928 134.925917,35.4033532 134.585838,35.8246747 L134.478366,35.9578201 C134.066795,36.467707 133.667928,36.9617508 133.560366,37.0932641 C132.778007,38.0498278 132.122247,39.0291872 131.514488,40.121436 C131.451231,40.2351194 131.38936,40.3481529 131.328208,40.4618342 L131.236938,40.6330043 C130.843049,41.3782528 130.465505,42.1782867 129.92149,43.3894864 C129.178311,45.0441054 128.829055,45.8146002 128.49698,46.4884363 L128.390561,46.7022869 L128.34232,46.7978954 C128.221106,47.0371395 128.094518,47.2797012 127.944838,47.5626158 C127.561492,48.287189 125.880094,50.3713559 124.0218,52.4877767 L123.533752,53.0397453 C121.898463,54.8762614 120.203134,56.6498912 119.184941,57.4878873 C113.205054,62.4094738 105.341986,67.7187011 97.3163907,72.3913171 C96.9024777,71.1892262 96.297796,70.0728112 95.5372089,69.0745959 C103.347725,64.5195014 110.988328,59.35679 116.76673,54.601031 C117.779568,53.7674412 119.532874,51.9176857 121.44477,49.7038418 L121.651437,49.4637172 L121.78838,49.3037211 C123.199139,47.6519079 124.46544,46.0598694 124.592376,45.8199446 C124.740862,45.5392857 124.864819,45.3013697 124.985724,45.0611792 L125.030963,44.9709132 L125.042257,44.9482515 L125.098834,44.8339603 C125.409141,44.2035638 125.743481,43.4658555 126.463251,41.8633515 C127.173439,40.2821829 127.628817,39.335315 128.199748,38.3092528 C128.911812,37.0295484 129.690844,35.8660862 130.619815,34.7302646 C130.717533,34.6107873 131.082482,34.1587896 131.472381,33.6757524 L131.579153,33.5434719 C131.93591,33.1014816 132.295084,32.6564894 132.474647,32.4350022 C133.508176,31.1601621 134.472357,29.9884845 135.465225,28.8080554 C136.134618,28.0122094 137.328141,27.9049357 138.131034,28.5684529 Z" id="Combined-Shape" stroke="none" fill="#FFFFFF" fill-rule="nonzero"></path>
                        <path d="M61.093693,46.1295309 C62.6588491,45.6774147 63.8658501,45.6749189 66.4963169,45.9077347 C67.6358103,46.0085883 68.1285037,46.0411492 68.7078517,46.0399513 C69.7531834,46.0377898 70.6023598,46.8760088 70.6045446,47.9121658 C70.6067211,48.9483227 69.7610801,49.7900462 68.7157484,49.7922076 C67.982402,49.793724 67.4144556,49.7561899 66.1596459,49.6451299 C64.0015065,49.4541186 63.1081964,49.4559657 62.1528074,49.7319426 C62.150751,49.7325366 62.1452119,49.7351203 62.1299129,49.7450744 C62.0948598,49.7678812 62.0486728,49.8064518 61.9911102,49.8646554 C61.8510949,50.0062299 61.711933,50.1862701 61.4184007,50.6005152 C61.395094,50.6334138 61.395094,50.6334138 61.3713515,50.6669287 C60.8394545,51.4176052 60.5447364,51.7834925 60.0700604,52.1897326 C60.0369065,52.21813 60.0369065,52.21813 60.0035278,52.2468058 C59.9442912,52.2977303 59.8826,52.3510246 59.8034394,52.4196046 C59.7896608,52.4315415 59.7401336,52.474479 59.6918231,52.5163565 L59.6141628,52.5836662 L59.5971404,52.5984124 C58.2563165,53.7595348 57.4790198,54.3227787 56.376258,54.7727631 C55.405689,55.1688059 53.9811521,55.3081633 51.9689184,55.3268175 C51.1605342,55.3343115 50.3549544,55.3208684 49.329625,55.2901875 C49.1582253,55.2850587 48.6432595,55.2688702 48.6119048,55.2679092 C48.3735414,55.2606037 48.2184981,55.2565007 48.0988133,55.2545425 C47.0536218,55.2374411 46.2203128,54.3837191 46.2375656,53.347701 C46.2548183,52.3116829 47.1160996,51.4856877 48.1612912,51.502789 C48.3040169,51.5051243 48.4734667,51.5096085 48.728896,51.517437 C48.7629266,51.51848 49.2759459,51.5346074 49.4438491,51.5396315 C50.4235217,51.5689463 51.185102,51.5816551 51.9335163,51.574717 C53.4483645,51.5606738 54.5735139,51.4506044 54.9352315,51.3030048 C55.5348316,51.0583366 56.06822,50.6718333 57.1065675,49.7726484 C57.1463712,49.7381793 57.2865954,49.6166002 57.3122752,49.5943527 C57.394759,49.5228938 57.4598099,49.466697 57.5232743,49.412138 C57.5596072,49.3809242 57.5596072,49.3809242 57.5961709,49.3496061 C57.7561852,49.2126616 57.9202041,49.0090351 58.2735646,48.5103306 C58.2969086,48.4773782 58.2969086,48.4773782 58.3206696,48.4438384 C58.7315306,47.8640141 58.9563996,47.5730907 59.2878798,47.2379191 C59.8072829,46.712732 60.3921958,46.3321677 61.093693,46.1295309 Z" id="Path-5" stroke="none" fill="#FFFFFF" fill-rule="nonzero"></path>
                        <path d="M78.0394482,49.9550742 C78.798855,51.2204622 79.3772708,52.3251375 79.8123615,53.3660291 C79.3466142,53.7533376 78.8098413,54.2258938 78.1871473,54.7990459 C77.4211402,55.504109 76.2235414,55.4601542 75.5122354,54.7008703 C74.8009294,53.9415863 74.8452734,52.7544986 75.6112804,52.0494355 C76.4770741,51.2525249 77.2093936,50.6185206 77.8392381,50.112528 Z M86.9962449,38.9176844 C86.7868057,39.5581444 86.5225323,40.1764876 86.1993596,40.7785432 C85.8182363,41.4885582 85.3194223,42.0753394 84.6697926,42.6639913 C84.4241567,42.8865705 83.7331352,43.4622559 83.7206069,43.4731528 C83.6838536,43.5051204 83.6519301,43.5335933 83.6245946,43.5586672 L83.6099338,43.5720344 L83.596739,43.6221292 C82.9722958,45.9771332 82.6725074,47.6234512 82.616346,48.6795933 L82.6131524,48.7448348 C82.5891327,49.2829712 82.5670088,49.1635895 82.7041263,49.6266987 C82.747621,49.7736004 82.7777693,49.9209242 82.7875367,50.1027096 C82.8033233,50.3965196 82.7541977,50.6977805 82.627586,50.987142 C82.515317,51.2437243 82.3622181,51.4498689 82.1835919,51.6218179 C82.0824437,51.719185 81.9869976,51.7932038 81.8836911,51.8632614 C81.8163487,51.9089299 81.4944458,52.102091 81.354885,52.1920896 C80.6839927,50.6857354 79.8165836,49.1956259 78.8970358,47.7515745 C79.0404252,46.4160018 79.3995442,44.6515949 80.0196182,42.3542718 C80.0586991,42.20948 80.1102638,42.0703879 80.1727776,41.9365527 C80.4055707,41.4381677 80.7228585,41.088513 81.2238331,40.6527705 C81.2553358,40.6253698 81.4148177,40.4918924 81.5934074,40.3414656 C82.0794306,40.4898033 82.5977113,40.5696481 83.1358438,40.5696481 C84.1207681,40.5696481 85.0391912,40.302179 85.8132941,39.8403437 C86.2568154,39.5912221 86.6557305,39.2794925 86.9962449,38.9176844 Z M83.3990536,25.9539725 C84.5612506,25.9539725 85.6794655,26.1351773 86.724851,26.4698282 C86.8656118,27.0613878 86.9710276,27.5988847 87.0263359,28.0075442 C87.0510712,28.1903077 87.076082,28.3728873 87.1121647,28.6347223 C87.446415,31.0602224 87.5976333,32.336396 87.6404349,33.5546047 C86.8497863,32.1890363 85.3593838,31.236235 83.6242986,31.1243732 C83.5551826,30.5669674 83.4684306,29.9184621 83.3615054,29.1425556 C83.325047,28.8779934 83.2996799,28.6928129 83.2744577,28.506452 C83.2621422,28.4154564 83.1976632,28.0933537 83.1105226,27.7087612 C83.0020099,27.2298433 82.8710273,26.7040795 82.734343,26.2073013 L82.6696914,25.9779032 C82.9106744,25.9620363 83.1538854,25.9539725 83.3990536,25.9539725 Z M90.4990075,0.0889318046 C91.4950716,0.403290472 92.0454467,1.45851109 91.7283045,2.44583303 C91.6593985,2.66035004 91.6300516,3.0267466 91.6124847,3.92511358 C91.6101077,4.04667527 91.6091005,4.09673855 91.607641,4.1633739 C91.6004544,4.49148861 91.5917212,4.73521695 91.5763287,4.97950097 C91.5022157,6.15569264 91.2875405,7.03375145 90.7180134,7.80462043 C90.2405799,8.45083838 89.7248088,8.98888198 89.1604751,9.44192179 C88.3861226,10.0635619 87.8899352,10.3250216 86.5612029,10.9210742 C85.7686108,11.276621 85.4454585,11.4673106 85.1450725,11.7739857 C84.7351228,12.1925185 84.3840691,12.86057 84.0804982,13.9679878 C83.9341721,14.5017813 83.7683825,14.9931718 83.5456799,15.5822179 C83.5031809,15.6946273 83.460467,15.8058923 83.4032716,15.9536568 C83.3877432,15.9937747 83.3688668,16.0424729 83.335301,16.1290651 C83.3087968,16.1974714 83.2890434,16.2485721 83.2700436,16.2979318 C83.171079,16.555033 83.1027228,16.7393525 83.0425804,16.9138039 C82.7587565,17.7370738 82.6777398,18.323067 82.7794697,19.091551 C82.7825204,19.1145965 82.8520899,19.2657314 83.0100005,19.4959091 C83.1892386,19.7571747 83.4352273,20.0546486 83.7955637,20.4527673 C83.916628,20.5865255 84.3393773,21.0450732 84.4013624,21.113048 C84.6553792,21.3916109 84.8383917,21.601936 85.001467,21.8088337 C85.3792791,22.2881732 85.7867313,23.2807945 86.1392794,24.3710023 C85.2574951,24.1791747 84.3403117,24.0778402 83.3990536,24.0778402 C82.9366344,24.0778402 82.4800257,24.1022977 82.0305514,24.1499555 C82.020307,24.1309363 82.011104,24.1141171 82.0031367,24.1004416 L81.9939098,24.0881403 C81.9009764,23.9726629 81.7747392,23.8283827 81.5930548,23.6291418 C81.5654282,23.5988456 81.4251479,23.4465363 81.2813765,23.2900794 L81.2097053,23.2120509 C81.1151035,23.1090073 81.0270362,23.0128511 80.977848,22.9585053 C80.513955,22.4459717 80.1740173,22.0348854 79.8797035,21.6058803 C79.4186397,20.9338127 79.1193294,20.2835816 79.0261543,19.579722 C78.841569,18.1853357 79.0007614,17.0338987 79.4604713,15.7004475 C79.5376902,15.4764634 79.6198012,15.2550546 79.7332498,14.9603251 C79.7534097,14.9079517 79.7740575,14.8545372 79.801466,14.7837971 C79.8353662,14.6963417 79.8538396,14.6486832 79.8689882,14.6095467 C79.9229614,14.4701066 79.9625103,14.3670863 80.0009307,14.2654646 C80.1856833,13.7767959 80.3162423,13.3898267 80.4274621,12.9841001 C81.2795046,9.87587356 82.509742,8.61987881 85.0004351,7.50258532 C86.0347751,7.03859346 86.3395595,6.87799117 86.777992,6.52602325 C87.0878229,6.27729503 87.3781601,5.9744202 87.6639119,5.58764817 C87.6972994,5.54245736 87.7655916,5.26313042 87.7982018,4.74559813 C87.8097555,4.56223752 87.8168769,4.36348921 87.8230439,4.08192955 C87.8244174,4.01921818 87.8253877,3.97098896 87.8277067,3.85239857 C87.8531728,2.55006524 87.8967174,2.0064107 88.1212371,1.30743959 C88.4383792,0.320117656 89.5029433,-0.225426862 90.4990075,0.0889318046 Z" id="Combined-Shape" stroke="none" fill="#FFFFFF" fill-rule="nonzero"></path>
                        <path d="M38.6228089,119.605661 C39.7066912,121.387872 40.4382527,122.849732 40.9178592,124.249519 C40.5657004,124.471279 40.1812425,124.778313 39.7210185,125.204829 C39.6873336,125.236047 39.6094905,125.403209 39.5569533,125.726558 C39.4821667,126.186845 39.5030678,126.778167 39.6229751,127.39257 C39.7407856,127.99623 39.9437567,128.567058 40.1790366,128.984587 C40.2509414,129.11219 40.3194809,129.213945 40.3772682,129.285553 L40.3984492,129.310837 L40.4670577,129.340138 C41.5128061,129.780959 42.5482268,130.171623 43.753948,130.590461 L43.9974164,130.674628 C44.2315035,130.75517 46.6296434,131.559232 47.2717297,131.789444 C52.6307028,133.71083 54.7685208,136.261865 54.7685208,142.145922 C54.7685208,148.921766 48.111055,153.467757 39.2273142,153.467757 C37.78998,153.467757 36.6247905,152.312794 36.6247905,150.888076 C36.6247905,149.463357 37.78998,148.308394 39.2273142,148.308394 C45.560179,148.308394 49.5634735,145.57478 49.5634735,142.145922 C49.5634735,140.159217 49.2533493,139.049829 48.6910148,138.378801 C48.186614,137.776905 47.3066832,137.28848 45.5012674,136.641173 C45.2277652,136.543113 44.5625281,136.316702 43.9056988,136.094438 L43.7418983,136.039035 C43.0620554,135.809189 42.4275175,135.595824 42.2905584,135.548701 C40.7869392,135.031349 39.5148434,134.552287 38.1969115,133.989039 C36.2739432,133.167214 35.0110219,130.926027 34.5126685,128.37247 C33.9862189,125.674949 34.4105769,123.063163 36.1662055,121.436118 C36.974425,120.687093 37.7364693,120.109984 38.4993653,119.672047 Z M54.1448244,108.47269 C53.6178752,109.905362 52.7210285,111.448996 51.6448851,113.037907 C49.5696507,116.101962 46.9376058,119.464545 45.6376908,123.272688 C44.950658,123.406762 44.2128874,123.49838 43.2901246,123.588057 C43.050615,123.611334 42.8637803,123.630879 42.7076645,123.649759 C42.152283,122.036817 41.3196626,120.429983 40.3827242,118.865812 C40.6316653,118.790363 40.8853457,118.728031 41.1443323,118.675801 C41.6387241,118.576096 42.0443844,118.52502 42.7822383,118.453314 C44.4885961,118.287484 45.2093157,118.148953 46.5160044,117.627639 C46.6960771,117.555798 47.0778567,117.237475 47.5785753,116.658285 C47.6102785,116.621614 47.6415394,116.585155 47.6725167,116.548697 L47.7341402,116.475721 L47.7952895,116.402369 L47.8562466,116.328266 C48.3235687,115.756297 48.7988131,115.084814 49.853896,113.549218 C51.2053805,111.58223 51.9180922,110.623631 52.8194083,109.673142 C53.183452,109.289237 53.5498834,108.945302 53.9226175,108.645347 Z M144.243051,39.8748956 C144.72115,39.9328388 145.004687,39.9665509 145.271021,39.9962764 L145.377057,40.0080019 C145.412377,40.0118716 145.447812,40.0157183 145.483782,40.0195902 C145.54589,40.0262757 145.606708,40.0326958 145.666448,40.038869 C147.096035,40.1865932 148.13413,41.4550851 147.985098,42.8721248 C147.836065,44.2891646 146.556342,45.3181481 145.126755,45.1704238 C145.059463,45.1634704 144.991239,45.1562684 144.92184,45.1487982 C144.882651,45.1445798 144.844154,45.1404015 144.805904,45.1362129 L144.69145,45.1235651 C144.404951,45.091615 144.107376,45.0562381 143.611344,44.9961215 C139.832033,44.538088 138.419773,44.5908039 137.092493,45.3995723 C131.736258,48.6633537 126.609213,53.8646275 122.727668,59.7632378 C121.198462,62.0871044 118.492756,65.7172927 117.710946,66.3010809 C117.031236,66.8086299 116.226384,67.3773571 115.067675,68.1758484 C114.987643,68.2310001 114.346827,68.6704905 113.658017,69.1435421 L113.311986,69.3812406 C112.794063,69.7371117 112.297218,70.0789755 112.037784,70.2588478 C111.555323,70.593351 111.118593,70.8991387 110.707045,71.1910717 C109.217657,72.2475733 108.058215,73.123509 107.16197,73.882445 C104.67575,75.987764 103.717823,78.850643 104.623729,81.0475526 C104.679233,81.1821541 104.736045,81.3188166 104.811986,81.500678 C104.834427,81.5544184 104.859265,81.6138504 104.906592,81.7270862 C104.94521,81.8195024 104.973474,81.8872152 105.001234,81.9538627 C105.15662,82.3269182 105.268546,82.6007751 105.375287,82.8718728 C105.662269,83.6007434 105.872911,84.2172504 106.03398,84.834941 C107.506422,90.4816971 104.349502,95.4154755 92.7217784,105.520511 C89.5459677,108.280439 87.2611036,109.695658 84.4104392,110.287276 C81.0730229,110.979913 77.4340089,110.290046 72.9217788,108.13207 C72.3078444,107.838456 72.0040354,107.82553 71.5219251,108.002411 C71.3205133,108.076306 70.7243008,108.397954 70.0924464,108.751298 L69.9566344,108.827421 C69.0970821,109.310268 68.2192358,109.822904 68.2134218,109.829744 C65.113963,111.515198 61.919335,112.400798 57.5531102,112.400798 L57.6037331,112.400553 L57.5874019,112.407237 C57.5622078,112.417993 57.5301957,112.433928 57.4916753,112.455896 L57.4615697,112.473516 C57.2358217,112.608883 56.9476714,112.852804 56.6120592,113.206726 C55.9626644,113.89155 55.3504958,114.714919 54.1559797,116.45345 C53.9681596,116.726808 53.7969572,116.975391 53.6394321,117.203075 L53.3417468,117.631725 C52.7793636,118.437888 52.4044495,118.951009 52.0288064,119.419177 L51.954488,119.511207 L51.8798276,119.602492 L51.7281885,119.784529 C51.6640924,119.860585 51.5986305,119.937195 51.5309616,120.015469 C50.5345536,121.168031 49.5733353,121.969482 48.4594737,122.413866 C48.266478,122.490864 48.08118,122.562253 47.9016627,122.628602 C48.6409886,120.943944 49.7472506,119.107743 51.2763626,116.886608 C51.4005093,116.706277 52.8184445,114.671128 53.2163466,114.083631 C54.9745015,111.487739 56.0587592,109.333271 56.4154084,107.370758 C56.7825009,107.284805 57.1608173,107.241434 57.5531102,107.241434 C61.0020851,107.241434 63.3468983,106.591416 65.7175151,105.302536 C66.0094203,105.143831 66.3008479,104.977118 66.6664068,104.761566 C66.7233347,104.727999 67.4061633,104.322312 67.6057846,104.205861 C68.4423393,103.717846 69.0495263,103.408061 69.7151421,103.163855 C71.5153776,102.503371 73.2881614,102.578791 75.1836284,103.485299 C78.7452932,105.188667 81.2712747,105.66753 83.3437648,105.237412 C85.1050914,104.871872 86.7328244,103.863672 89.2903716,101.641044 C94.9547472,96.718437 98.2898884,93.2509405 99.929769,90.6880611 C101.162761,88.7610851 101.373635,87.5798457 100.994546,86.1260535 C100.960412,85.9951533 100.93656,85.8986869 100.912882,85.8102714 L100.903991,85.7774415 L100.890426,85.7289354 L100.876232,85.6803885 L100.866221,85.6474859 C100.765151,85.3205607 100.580547,84.8788923 99.8056135,82.9996031 C97.9775378,78.5663426 99.7014362,73.4142647 103.781076,69.9596456 C104.81139,69.0871803 106.077775,68.130451 107.677896,66.9954013 C108.105854,66.6918282 108.557541,66.3755674 109.054416,66.0310706 C109.310989,65.8531816 109.789979,65.5235495 110.293564,65.1774927 L110.431367,65.0828081 L110.569497,64.9879189 C111.305481,64.4823829 112.017403,63.9941505 112.096492,63.9396488 C113.086135,63.2576647 113.798126,62.7564106 114.376419,62.3304514 L114.444269,62.2801487 C114.525927,62.1874657 114.631167,62.0613745 114.758004,61.9042413 L114.806569,61.8438745 C115.112917,61.4618458 115.510463,60.9437628 115.949229,60.3550793 C116.073281,60.1886417 116.198227,60.0198006 116.322965,59.8501003 L116.509777,59.5950984 C117.224235,58.6166008 117.913564,57.6352241 118.368054,56.944557 C122.648703,50.4394457 128.313307,44.6928308 134.366621,41.0042891 C135.906445,40.0660088 137.605974,39.6279513 139.543201,39.5556398 C140.880996,39.5057035 141.897694,39.5906501 144.243051,39.8748956 Z" id="Combined-Shape" stroke="none" fill="#FFFFFF" fill-rule="nonzero"></path>
                        <g id="pin-hover" stroke="none" stroke-width="1" fill="none" fill-rule="evenodd" transform="translate(32.4132, 25.2504)">
                            <path d="M10.5283912,0 C16.3430611,0 21.0567823,4.53586869 21.0567823,10.1311463 C21.0567823,12.1842751 19.7865155,14.6321028 18.0486706,17.1980074 C15.227663,21.3631869 11.3777353,26.0800092 11.243815,31.7178138 C11.167785,32.2051359 10.7459472,32.3632817 10.5283912,32.3632817 C10.3132041,32.3632817 9.83530866,32.1245675 9.83530866,31.7178138 C9.83530859,26.7377935 5.82237129,21.5289218 2.96296535,17.1980074 C1.15328581,14.4570299 0,12.2195494 0,10.1311463 C0,4.53586869 4.71372127,0 10.5283912,0 Z M10.2651814,5.21988414 C7.50321319,5.21988414 5.26419558,7.3232037 5.26419558,9.91777987 C5.26419558,12.512356 7.50321319,14.6156756 10.2651814,14.6156756 C13.0271496,14.6156756 15.2661672,12.512356 15.2661672,9.91777987 C15.2661672,7.3232037 13.0271496,5.21988414 10.2651814,5.21988414 Z" id="Combined-Shape" fill="#FFFFFF" fill-rule="nonzero"></path>
                        </g>
                        <path d="M83.3990536,25.9539725 C89.2137235,25.9539725 93.9274448,30.4898412 93.9274448,36.0851187 C93.9274448,38.1382475 92.6571779,40.5860753 90.919333,43.1519798 C88.0983255,47.3171594 84.2483978,52.0339817 84.1144774,57.6717863 C84.0384474,58.1591084 83.6166097,58.3172542 83.3990536,58.3172542 C83.1838666,58.3172542 82.7059711,58.0785399 82.7059711,57.6717863 C82.7059711,52.691766 78.6930338,47.4828943 75.8336278,43.1519798 C74.0239483,40.4110024 72.8706625,38.1735219 72.8706625,36.0851187 C72.8706625,30.4898412 77.5843837,25.9539725 83.3990536,25.9539725 Z M83.1358438,31.1738566 C80.3738757,31.1738566 78.134858,33.2771762 78.134858,35.8717524 C78.134858,38.4663285 80.3738757,40.5696481 83.1358438,40.5696481 C85.897812,40.5696481 88.1368297,38.4663285 88.1368297,35.8717524 C88.1368297,33.2771762 85.897812,31.1738566 83.1358438,31.1738566 Z" id="Combined-Shape" stroke="none" fill="#FFFFFF" fill-rule="nonzero"></path>
                        <path d="M85.5283912,66.0562998 C91.3430611,66.0562998 96.0567823,70.5921685 96.0567823,76.187446 C96.0567823,78.2405748 94.7865155,80.6884026 93.0486706,83.2543071 C90.227663,87.4194867 86.3777353,92.136309 86.243815,97.7741136 C86.167785,98.2614357 85.7459472,98.4195815 85.5283912,98.4195815 C85.3132041,98.4195815 84.8353087,98.1808672 84.8353087,97.7741136 C84.8353086,92.7940933 80.8223713,87.5852216 77.9629653,83.2543071 C76.1532858,80.5133297 75,78.2758492 75,76.187446 C75,70.5921685 79.7137213,66.0562998 85.5283912,66.0562998 Z M85.2651814,71.2761839 C82.5032132,71.2761839 80.2641956,73.3795035 80.2641956,75.9740797 C80.2641956,78.5686558 82.5032132,80.6719754 85.2651814,80.6719754 C88.0271496,80.6719754 90.2661672,78.5686558 90.2661672,75.9740797 C90.2661672,73.3795035 88.0271496,71.2761839 85.2651814,71.2761839 Z" id="Combined-Shape" stroke="none" fill="#FFFFFF" fill-rule="nonzero"></path>
                        <path d="M44.1246057,95.8398996 C49.9392756,95.8398996 54.6529968,100.375768 54.6529968,105.971046 C54.6529968,108.024175 53.38273,110.472002 51.6448851,113.037907 C48.8238775,117.203087 44.9739498,121.919909 44.8400295,127.557713 C44.7639995,128.045036 44.3421617,128.203181 44.1246057,128.203181 C43.9094186,128.203181 43.4315232,127.964467 43.4315232,127.557713 C43.4315231,122.577693 39.4185858,117.368821 36.5591799,113.037907 C34.7495003,110.296929 33.5962145,108.059449 33.5962145,105.971046 C33.5962145,100.375768 38.3099358,95.8398996 44.1246057,95.8398996 Z M43.8613959,101.059784 C41.0994277,101.059784 38.8604101,103.163103 38.8604101,105.757679 C38.8604101,108.352256 41.0994277,110.455575 43.8613959,110.455575 C46.6233641,110.455575 48.8623817,108.352256 48.8623817,105.757679 C48.8623817,103.163103 46.6233641,101.059784 43.8613959,101.059784 Z" id="Combined-Shape" stroke="none" fill="#FFFFFF" fill-rule="nonzero"></path>
                    </g>
                </g>
            </g>
        </g>
    </g>
</svg>