<?xml version="1.0" encoding="UTF-8" standalone="no"?>
<svg width="80px" height="1408px" viewBox="0 0 80 1408" version="1.1" xmlns="http://www.w3.org/2000/svg" xmlns:xlink="http://www.w3.org/1999/xlink">
    <!-- Generator: Sketch 3.8.3 (29802) - http://www.bohemiancoding.com/sketch -->
    <title>green_waves</title>
    <desc>Created with Sketch.</desc>
    <defs>
        <rect id="path-1" x="0" y="0" width="72" height="1400"></rect>
        <filter x="-50%" y="-50%" width="200%" height="200%" filterUnits="objectBoundingBox" id="filter-2">
            <feOffset dx="2" dy="0" in="SourceAlpha" result="shadowOffsetOuter1"></feOffset>
            <feGaussianBlur stdDeviation="2" in="shadowOffsetOuter1" result="shadowBlurOuter1"></feGaussianBlur>
            <feColorMatrix values="0 0 0 0 0   0 0 0 0 0   0 0 0 0 0  0 0 0 0.5 0" type="matrix" in="shadowBlurOuter1"></feColorMatrix>
        </filter>
    </defs>
    <g id="new" stroke="none" stroke-width="1" fill="none" fill-rule="evenodd">
        <g id="green_waves" transform="translate(2.000000, 4.000000)">
            <g id="green_bg-copy-10">
                <use fill="black" fill-opacity="1" filter="url(#filter-2)" xlink:href="#path-1"></use>
                <use fill="#218245" fill-rule="evenodd" xlink:href="#path-1"></use>
            </g>
            <g id="ink_wave" transform="translate(36.000000, 1266.366197) scale(1, -1) rotate(-90.000000) translate(-36.000000, -1266.366197) translate(-98.366197, 1230.366197)">
                <path d="M139.242612,70.9198789 C152.38551,48.2191654 174.54146,33.3112165 199.660279,33.3112165 C224.779889,33.3112165 246.935048,48.2191654 260.078341,70.9198789 L268.206087,70.9198789 C253.110855,36.4303744 217.94909,12.2497973 176.977334,12.2497973 C136.006368,12.2497973 100.843813,36.4303744 85.7485808,70.9198789 L139.242612,70.9198789" id="Fill-1" fill="#39AB47"></path>
                <path d="M246.285397,71.564605 C233.862045,55.2957158 216.21831,45.130832 196.641482,45.130832 C177.065446,45.130832 159.42092,55.2957158 146.997567,71.564605 L246.285397,71.564605" id="Fill-2" fill="#84BF41"></path>
                <path d="M66.3336747,70.870459 C81.2181304,44.6810933 108.013634,26.8844067 138.231406,26.8844067 C168.448387,26.8844067 195.345616,44.7305131 210.230468,70.9198789 L219.206898,70.9198789 C203.271933,29.8397147 159.97742,0 109.55219,0 C59.1269604,0 15.9349648,29.7902948 0,70.870459 L66.3336747,70.870459" id="Fill-3" fill="#0A8B42"></path>
            </g>
        </g>
    </g>
</svg>