<?xml version="1.0" encoding="UTF-8" standalone="no"?>
<svg width="110px" height="110px" viewBox="0 0 110 110" version="1.1" xmlns="http://www.w3.org/2000/svg" xmlns:xlink="http://www.w3.org/1999/xlink">
    <!-- Generator: Sketch 3.8.3 (29802) - http://www.bohemiancoding.com/sketch -->
    <title>loader1</title>
    <desc>Created with Sketch.</desc>
    <defs></defs>
    <g id="new" stroke="none" stroke-width="1" fill="none" fill-rule="evenodd">
        <g id="loader1" transform="translate(55.000000, 55.000000) rotate(-90.000000) translate(-55.000000, -55.000000) " fill="#0B8B42">
            <path d="M55.8088235,109.994174 C55.5396792,109.998053 55.2700669,110 55,110 C24.6243388,110 0,85.3756612 0,55 C0,24.6243388 24.6243388,0 55,0 C85.3756612,0 110,24.6243388 110,55 C110,55.2700669 109.998053,55.5396792 109.994174,55.8088235 L100.287041,55.8088235 C100.291752,55.5397812 100.294118,55.2701668 100.294118,55 C100.294118,29.9847496 80.0152504,9.70588235 55,9.70588235 C29.9847496,9.70588235 9.70588235,29.9847496 9.70588235,55 C9.70588235,80.0152504 29.9847496,100.294118 55,100.294118 C55.2701668,100.294118 55.5397812,100.291752 55.8088235,100.287041 L55.8088235,109.994174 Z" id="Oval-4"></path>
        </g>
    </g>
</svg>