<?xml version="1.0" encoding="UTF-8" standalone="no"?>
<svg width="110px" height="110px" viewBox="0 0 110 110" version="1.1" xmlns="http://www.w3.org/2000/svg" xmlns:xlink="http://www.w3.org/1999/xlink">
    <!-- Generator: Sketch 3.8.3 (29802) - http://www.bohemiancoding.com/sketch -->
    <title>loader2</title>
    <desc>Created with Sketch.</desc>
    <defs></defs>
    <g id="new" stroke="none" stroke-width="1" fill="none" fill-rule="evenodd">
        <g id="loader2" transform="translate(55.000000, 55.000000) rotate(-90.000000) translate(-55.000000, -55.000000) translate(-6.000000, -6.000000)" fill="#3AAB47">
            <path d="M61.8113208,103.992499 C61.5414808,103.997492 61.2710332,104 61,104 C37.2517558,104 18,84.7482442 18,61 C18,37.2517558 37.2517558,18 61,18 C84.7482442,18 104,37.2517558 104,61 C104,61.2710332 103.997492,61.5414808 103.992499,61.8113208 L95.8662033,61.8113208 C95.8798925,61.4073502 95.8867925,61.0016507 95.8867925,60.5943396 C95.8867925,41.1028561 80.0858231,25.3018868 60.5943396,25.3018868 C41.1028561,25.3018868 25.3018868,41.1028561 25.3018868,60.5943396 C25.3018868,80.0858231 41.1028561,95.8867925 60.5943396,95.8867925 C61.0016507,95.8867925 61.4073502,95.8798925 61.8113276,95.8662031 L61.8113208,103.992499 Z" id="Oval-4-Copy-2" transform="translate(61.000000, 61.000000) rotate(-45.000000) translate(-61.000000, -61.000000) "></path>
        </g>
    </g>
</svg>