<?xml version="1.0" encoding="UTF-8"?>
<svg width="304px" height="212px" viewBox="0 0 304 212" version="1.1" xmlns="http://www.w3.org/2000/svg" xmlns:xlink="http://www.w3.org/1999/xlink">
    <!-- Generator: Sketch 3.8.3 (29802) - http://www.bohemiancoding.com/sketch -->
    <title>average_deep</title>
    <desc>Created with Sketch.</desc>
    <defs></defs>
    <g id="new" stroke="none" stroke-width="1" fill="none" fill-rule="evenodd">
        <g id="average_deep" transform="translate(-1.000000, 0.000000)">
            <polygon id="Rectangle-29" fill="#4A90E2" points="2 0 305 0 305 40 13.8964844 40 2 40"></polygon>
            <path d="M19.3857422,25.5512695 C20.1569049,25.5512695 20.8251111,25.3266624 21.3903809,24.8774414 C21.9556506,24.4282204 22.2420247,23.8592157 22.2495117,23.1704102 L24.2260742,23.1704102 C24.2185872,24.2784886 23.7375536,25.2311972 22.782959,26.0285645 C21.8283644,26.8259317 20.6959701,27.2246094 19.3857422,27.2246094 C17.6038322,27.2246094 16.2561895,26.6574764 15.3427734,25.5231934 C14.4293574,24.3889103 13.9726562,22.9345792 13.9726562,21.1601562 L13.9726562,20.6884766 C13.9726562,18.9215406 14.4293574,17.4690812 15.3427734,16.3310547 C16.2561895,15.1930282 17.6038322,14.6240234 19.3857422,14.6240234 C20.8157624,14.6240234 21.9781043,15.0358032 22.8728027,15.859375 C23.7675012,16.6829468 24.2185872,17.7386003 24.2260742,19.0263672 L22.2495117,19.0263672 C22.2420247,18.2477175 21.9724961,17.6001002 21.440918,17.0834961 C20.9093398,16.5668919 20.224288,16.3085938 19.3857422,16.3085938 C18.1803325,16.3085938 17.3249537,16.7259887 16.8195801,17.560791 C16.3142065,18.3955934 16.0615234,19.4381448 16.0615234,20.6884766 L16.0615234,21.1601562 C16.0615234,22.4404361 16.3123347,23.4923461 16.8139648,24.315918 C17.315595,25.1394898 18.1728455,25.5512695 19.3857422,25.5512695 L19.3857422,25.5512695 Z M36.9501953,21.3735352 C36.9501953,23.1704191 36.5402873,24.5948027 35.720459,25.6467285 C34.9006307,26.6986543 33.7382888,27.2246094 32.2333984,27.2246094 C31.4622357,27.2246094 30.7959012,27.0992037 30.234375,26.8483887 C29.6728488,26.5975736 29.1936869,26.2213567 28.796875,25.7197266 L28.7631836,25.730957 L28.7631836,31.671875 L26.6743164,31.671875 L26.6743164,14.8486328 L28.4599609,14.8486328 L28.6621094,16.3984375 C29.0664083,15.8144502 29.5568005,15.3727229 30.1333008,15.0732422 C30.7098011,14.7737615 31.3985963,14.6240234 32.199707,14.6240234 C33.7270584,14.6240234 34.9006307,15.2098737 35.720459,16.3815918 C36.5402873,17.5533099 36.9501953,19.1386619 36.9501953,21.1376953 L36.9501953,21.3735352 Z M34.8613281,21.1376953 C34.8613281,19.7076751 34.5917996,18.5528202 34.0527344,17.6730957 C33.5136692,16.7933713 32.6938532,16.3535156 31.5932617,16.3535156 C30.9119432,16.3535156 30.3410668,16.5032537 29.8806152,16.8027344 C29.4201637,17.102215 29.0476902,17.5139948 28.7631836,18.0380859 L28.7631836,23.9003906 C29.0626643,24.4319688 29.4388812,24.8400051 29.8918457,25.1245117 C30.3448102,25.4090183 30.9194301,25.5512695 31.6157227,25.5512695 C32.7088271,25.5512695 33.5230279,25.1713091 34.0583496,24.411377 C34.5936713,23.6514448 34.8613281,22.638841 34.8613281,21.3735352 L34.8613281,21.1376953 Z M44.6992188,27.2246094 C42.992179,27.2246094 41.6445362,26.6724502 40.65625,25.5681152 C39.6679638,24.4637803 39.1738281,22.9982188 39.1738281,21.1713867 L39.1738281,20.6660156 C39.1738281,18.8990797 39.6810659,17.4503637 40.6955566,16.3198242 C41.7100474,15.1892847 42.9322845,14.6240234 44.3623047,14.6240234 C46.0094483,14.6240234 47.2466593,15.1069288 48.0739746,16.0727539 C48.9012899,17.038579 49.3149414,18.3600177 49.3149414,20.0371094 L49.3149414,21.3959961 L41.2626953,21.3959961 C41.2926434,22.6388408 41.6014782,23.642086 42.189209,24.4057617 C42.7769398,25.1694374 43.6136013,25.5512695 44.6992188,25.5512695 C45.4554074,25.5512695 46.1086398,25.4464529 46.6589355,25.2368164 C47.2092313,25.0271799 47.7052387,24.7314472 48.1469727,24.3496094 L48.9667969,25.730957 C48.5250629,26.165204 47.9579299,26.5227037 47.2653809,26.8034668 C46.5728318,27.0842299 45.717453,27.2246094 44.6992188,27.2246094 L44.6992188,27.2246094 Z M44.3623047,16.3085938 C43.5761679,16.3085938 42.9117052,16.6249155 42.3688965,17.2575684 C41.8260878,17.8902213 41.4798185,18.711909 41.3300781,19.7226562 L47.2373047,19.7226562 L47.2373047,19.4306641 C47.2373047,18.5247351 46.9977237,17.7779164 46.5185547,17.1901855 C46.0393856,16.6024547 45.3206428,16.3085938 44.3623047,16.3085938 L44.3623047,16.3085938 Z M51.6621094,25.3266602 C52.2985058,24.5779585 52.7814111,23.8199094 53.1108398,23.0524902 C53.4402686,22.285071 53.6611323,21.0665774 53.7734375,19.3969727 L53.953125,14.8486328 L61.7807617,14.8486328 L61.7807617,25.3266602 L63.3417969,25.3266602 L63.3417969,30.5712891 L61.2641602,30.5712891 L61.2641602,27 L52.7851562,27 L52.7851562,30.5712891 L50.7075195,30.5712891 L50.71875,25.3266602 L51.6621094,25.3266602 Z M55.8510742,19.3969727 C55.768717,20.7970448 55.577801,21.970617 55.2783203,22.9177246 C54.9788396,23.8648322 54.5820337,24.6678027 54.0878906,25.3266602 L59.703125,25.3266602 L59.703125,16.746582 L55.9633789,16.746582 L55.8510742,19.3969727 Z M75.5717773,27 L73.4941406,27 L73.4941406,21.7890625 L67.9125977,21.7890625 L67.9125977,27 L65.8237305,27 L65.8237305,14.8486328 L67.9125977,14.8486328 L67.9125977,20.1269531 L73.4941406,20.1269531 L73.4941406,14.8486328 L75.5717773,14.8486328 L75.5717773,27 Z M88.1948242,14.8486328 L88.1948242,27 L86.105957,27 L86.105957,22.2607422 L82.9838867,22.2607422 L80.1088867,27 L77.862793,27 L80.9287109,21.9575195 C80.1350872,21.6804999 79.5323914,21.2481312 79.1206055,20.6604004 C78.7088196,20.0726696 78.5029297,19.3707723 78.5029297,18.5546875 C78.5029297,17.446609 78.9053508,16.551924 79.7102051,15.8706055 C80.5150594,15.189287 81.6511971,14.8486328 83.1186523,14.8486328 L88.1948242,14.8486328 Z M80.5917969,18.5771484 C80.5917969,19.1461617 80.7770978,19.6234518 81.1477051,20.0090332 C81.5183124,20.3946146 82.0891889,20.5874023 82.8603516,20.5874023 L86.105957,20.5874023 L86.105957,16.5107422 L83.1186523,16.5107422 C82.2651325,16.5107422 81.6306173,16.7110169 81.2150879,17.1115723 C80.7995585,17.5121277 80.5917969,18.0006482 80.5917969,18.5771484 L80.5917969,18.5771484 Z M100.817871,14.8486328 L100.817871,27 L98.7290039,27 L98.7290039,22.2607422 L95.6069336,22.2607422 L92.7319336,27 L90.4858398,27 L93.5517578,21.9575195 C92.7581341,21.6804999 92.1554383,21.2481312 91.7436523,20.6604004 C91.3318664,20.0726696 91.1259766,19.3707723 91.1259766,18.5546875 C91.1259766,17.446609 91.5283977,16.551924 92.333252,15.8706055 C93.1381062,15.189287 94.274244,14.8486328 95.7416992,14.8486328 L100.817871,14.8486328 Z M93.2148437,18.5771484 C93.2148437,19.1461617 93.4001446,19.6234518 93.770752,20.0090332 C94.1413593,20.3946146 94.7122357,20.5874023 95.4833984,20.5874023 L98.7290039,20.5874023 L98.7290039,16.5107422 L95.7416992,16.5107422 C94.8881793,16.5107422 94.2536642,16.7110169 93.8381348,17.1115723 C93.4226053,17.5121277 93.2148437,18.0006482 93.2148437,18.5771484 L93.2148437,18.5771484 Z M117.697266,16.5444336 L112.093262,16.5444336 L112.093262,27 L110.004395,27 L110.004395,14.8486328 L117.697266,14.8486328 L117.697266,16.5444336 Z M129.006348,14.8486328 L129.006348,27 L126.91748,27 L126.91748,16.5444336 L122.795898,16.5444336 L122.649902,20.0595703 C122.537597,22.5602339 122.198815,24.3421171 121.633545,25.4052734 C121.068275,26.4684298 120.033211,27 118.52832,27 L117.921875,27 L117.966797,25.1806641 L118.416016,25.1694336 C119.202152,25.1694336 119.733723,24.8081905 120.010742,24.0856934 C120.287762,23.3631963 120.474934,22.0211687 120.572266,20.0595703 L120.796875,14.8486328 L129.006348,14.8486328 Z M136.081543,22.6201172 L136.508301,24.2373047 L136.541992,24.2373047 L139.630371,14.8486328 L141.955078,14.8486328 L136.811523,28.8754883 C136.504556,29.7065471 136.074059,30.4196748 135.52002,31.0148926 C134.96598,31.6101104 134.194829,31.9077148 133.206543,31.9077148 C133.026855,31.9077148 132.805991,31.8871259 132.543945,31.8459473 C132.2819,31.8047687 132.07601,31.7654624 131.92627,31.7280273 L132.139648,30.0546875 C132.117187,30.0472005 132.251952,30.0546874 132.543945,30.0771484 C132.835939,30.0996095 133.023112,30.1108398 133.105469,30.1108398 C133.607099,30.1108398 133.973957,29.9704604 134.206055,29.6896973 C134.438152,29.4089341 134.726398,28.8680053 135.070801,28.0668945 L135.621094,26.7529297 L131.072754,14.8486328 L133.397461,14.8486328 L136.081543,22.6201172 Z M149.19873,15.5561523 C150.778491,15.5561523 152.01383,16.0615184 152.904785,17.0722656 C153.79574,18.0830129 154.241211,19.4081949 154.241211,21.0478516 L154.241211,21.3173828 C154.241211,23.0843187 153.762049,24.5124457 152.803711,25.6018066 C151.845373,26.6911676 150.516447,27.2358398 148.816895,27.2358398 C147.109855,27.2358398 145.777186,26.6911676 144.818848,25.6018066 C143.86051,24.5124457 143.381348,23.0843187 143.381348,21.3173828 L143.381348,19.7900391 C143.381348,17.3193236 143.866125,15.3820871 144.835693,13.9782715 C145.805262,12.5744559 147.151033,11.7115902 148.873047,11.3896484 C149.876307,11.202473 150.593178,10.9890962 151.023682,10.7495117 C151.454185,10.5099272 151.669434,10.1131213 151.669434,9.55908203 L153.376465,9.55908203 C153.376465,10.884284 153.047041,11.75838 152.388184,12.1813965 C151.729326,12.6044129 150.70362,12.9282215 149.311035,13.152832 C148.255366,13.3325204 147.362552,13.738685 146.632568,14.3713379 C145.902584,15.0039908 145.425294,15.9566994 145.200684,17.2294922 L145.234375,17.2519531 C145.758466,16.727862 146.353675,16.3142105 147.02002,16.0109863 C147.686364,15.7077622 148.412594,15.5561523 149.19873,15.5561523 L149.19873,15.5561523 Z M148.794434,17.2294922 C147.686355,17.2294922 146.855309,17.5888636 146.30127,18.3076172 C145.74723,19.0263708 145.470215,19.9397731 145.470215,21.0478516 L145.470215,21.3173828 C145.470215,22.5677146 145.749102,23.5878053 146.306885,24.3776855 C146.864668,25.1675658 147.701329,25.5625 148.816895,25.5625 C149.924973,25.5625 150.759763,25.1675658 151.321289,24.3776855 C151.882815,23.5878053 152.163574,22.5677146 152.163574,21.3173828 L152.163574,21.0478516 C152.163574,19.9397731 151.880944,19.0263708 151.315674,18.3076172 C150.750404,17.5888636 149.909999,17.2294922 148.794434,17.2294922 L148.794434,17.2294922 Z M164.247559,14.8486328 L166.325195,14.8486328 L166.325195,27 L164.247559,27 L164.247559,18.1166992 L164.213867,18.1166992 L158.643555,27 L156.565918,27 L156.565918,14.8486328 L158.643555,14.8486328 L158.643555,23.7207031 L158.677246,23.7207031 L164.247559,14.8486328 Z M179.588379,27 L177.510742,27 L177.510742,21.7890625 L171.929199,21.7890625 L171.929199,27 L169.840332,27 L169.840332,14.8486328 L171.929199,14.8486328 L171.929199,20.1269531 L177.510742,20.1269531 L177.510742,14.8486328 L179.588379,14.8486328 L179.588379,27 Z M190.481934,27 C190.407063,26.6181622 190.350912,26.3037122 190.313477,26.0566406 C190.276041,25.8095691 190.249837,25.5512709 190.234863,25.2817383 C189.800616,25.8507515 189.261559,26.3168113 188.617676,26.6799316 C187.973792,27.0430519 187.26628,27.2246094 186.495117,27.2246094 C185.214837,27.2246094 184.250898,26.9082877 183.603271,26.2756348 C182.955645,25.6429819 182.631836,24.753912 182.631836,23.6083984 C182.631836,22.4254498 183.096024,21.5120475 184.024414,20.8681641 C184.952804,20.2242806 186.240552,19.9023438 187.887695,19.9023438 L190.234863,19.9023438 L190.234863,18.6669922 C190.234863,17.9257775 190.006513,17.3474142 189.549805,16.9318848 C189.093097,16.5163553 188.441736,16.3085938 187.595703,16.3085938 C186.809566,16.3085938 186.175051,16.4938946 185.692139,16.864502 C185.209226,17.2351093 184.967773,17.6861953 184.967773,18.2177734 L182.890137,18.2177734 C182.890137,17.2818964 183.335608,16.4489783 184.226562,15.7189941 C185.117517,14.98901 186.277988,14.6240234 187.708008,14.6240234 C189.10808,14.6240234 190.2255,14.968421 191.060303,15.6572266 C191.895105,16.3460321 192.3125,17.3567642 192.3125,18.6894531 L192.3125,24.5517578 C192.3125,24.9860048 192.334961,25.401528 192.379883,25.7983398 C192.424805,26.1951517 192.507161,26.5957011 192.626953,27 L190.481934,27 Z M186.79834,25.4389648 C187.57699,25.4389648 188.275143,25.2592791 188.892822,24.8999023 C189.510501,24.5405255 189.957844,24.0987982 190.234863,23.574707 L190.234863,21.3398438 L187.820313,21.3398438 C186.854487,21.3398438 186.094567,21.5663226 185.540527,22.0192871 C184.986488,22.4722516 184.709473,23.0169239 184.709473,23.6533203 C184.709473,24.2148466 184.883543,24.6528305 185.231689,24.9672852 C185.579836,25.2817399 186.102047,25.4389648 186.79834,25.4389648 L186.79834,25.4389648 Z M206.148438,25.5512695 C206.9196,25.5512695 207.587806,25.3266624 208.153076,24.8774414 C208.718346,24.4282204 209.00472,23.8592157 209.012207,23.1704102 L210.98877,23.1704102 C210.981283,24.2784886 210.500249,25.2311972 209.545654,26.0285645 C208.59106,26.8259317 207.458665,27.2246094 206.148438,27.2246094 C204.366528,27.2246094 203.018885,26.6574764 202.105469,25.5231934 C201.192053,24.3889103 200.735352,22.9345792 200.735352,21.1601562 L200.735352,20.6884766 C200.735352,18.9215406 201.192053,17.4690812 202.105469,16.3310547 C203.018885,15.1930282 204.366528,14.6240234 206.148438,14.6240234 C207.578458,14.6240234 208.7408,15.0358032 209.635498,15.859375 C210.530197,16.6829468 210.981283,17.7386003 210.98877,19.0263672 L209.012207,19.0263672 C209.00472,18.2477175 208.735191,17.6001002 208.203613,17.0834961 C207.672035,16.5668919 206.986983,16.3085938 206.148438,16.3085938 C204.943028,16.3085938 204.087649,16.7259887 203.582275,17.560791 C203.076902,18.3955934 202.824219,19.4381448 202.824219,20.6884766 L202.824219,21.1601562 C202.824219,22.4404361 203.07503,23.4923461 203.57666,24.315918 C204.07829,25.1394898 204.935541,25.5512695 206.148438,25.5512695 L206.148438,25.5512695 Z M217.165527,21.800293 L215.649414,21.800293 L215.649414,27 L213.560547,27 L213.560547,14.8486328 L215.649414,14.8486328 L215.649414,20.003418 L217.008301,20.003418 L221.096191,14.8486328 L223.611816,14.8486328 L218.782715,20.6772461 L224.016113,27 L221.376953,27 L217.165527,21.800293 Z M225.992676,27 L225.992676,14.8486328 L230.731934,14.8486328 C232.349129,14.8486328 233.590084,15.1219048 234.454834,15.668457 C235.319584,16.2150092 235.751953,17.0535425 235.751953,18.184082 C235.751953,18.7680693 235.58537,19.2790505 235.252197,19.717041 C234.919025,20.1550315 234.437991,20.4900705 233.809082,20.722168 L233.809082,20.7558594 C234.565271,20.9355478 235.151121,21.2780736 235.56665,21.7834473 C235.98218,22.2888209 236.189941,22.8784146 236.189941,23.5522461 C236.189941,24.7052467 235.785649,25.5681124 234.977051,26.1408691 C234.168453,26.7136259 233.011726,27 231.506836,27 L225.992676,27 Z M228.070312,21.6542969 L228.070312,25.3491211 L231.506836,25.3491211 C232.37533,25.3491211 233.024819,25.1918961 233.455322,24.8774414 C233.885826,24.5629867 234.101074,24.1025421 234.101074,23.4960938 C234.101074,22.8971324 233.885826,22.4404313 233.455322,22.1259766 C233.024819,21.8115219 232.37533,21.6542969 231.506836,21.6542969 L228.070312,21.6542969 Z M228.070312,20.0146484 L230.88916,20.0146484 C231.825037,20.0071614 232.523191,19.8611668 232.983643,19.5766602 C233.444094,19.2921535 233.674316,18.8616565 233.674316,18.2851562 C233.674316,17.6861949 233.430992,17.2407241 232.944336,16.9487305 C232.45768,16.6567368 231.72022,16.5107422 230.731934,16.5107422 L228.070312,16.5107422 L228.070312,20.0146484 Z M246.499512,27 C246.424642,26.6181622 246.36849,26.3037122 246.331055,26.0566406 C246.29362,25.8095691 246.267415,25.5512709 246.252441,25.2817383 C245.818194,25.8507515 245.279137,26.3168113 244.635254,26.6799316 C243.99137,27.0430519 243.283858,27.2246094 242.512695,27.2246094 C241.232415,27.2246094 240.268477,26.9082877 239.62085,26.2756348 C238.973223,25.6429819 238.649414,24.753912 238.649414,23.6083984 C238.649414,22.4254498 239.113602,21.5120475 240.041992,20.8681641 C240.970382,20.2242806 242.25813,19.9023438 243.905273,19.9023438 L246.252441,19.9023438 L246.252441,18.6669922 C246.252441,17.9257775 246.024091,17.3474142 245.567383,16.9318848 C245.110675,16.5163553 244.459314,16.3085938 243.613281,16.3085938 C242.827145,16.3085938 242.192629,16.4938946 241.709717,16.864502 C241.226804,17.2351093 240.985352,17.6861953 240.985352,18.2177734 L238.907715,18.2177734 C238.907715,17.2818964 239.353186,16.4489783 240.244141,15.7189941 C241.135096,14.98901 242.295566,14.6240234 243.725586,14.6240234 C245.125658,14.6240234 246.243079,14.968421 247.077881,15.6572266 C247.912683,16.3460321 248.330078,17.3567642 248.330078,18.6894531 L248.330078,24.5517578 C248.330078,24.9860048 248.352539,25.401528 248.397461,25.7983398 C248.442383,26.1951517 248.524739,26.5957011 248.644531,27 L246.499512,27 Z M242.815918,25.4389648 C243.594568,25.4389648 244.292722,25.2592791 244.9104,24.8999023 C245.528079,24.5405255 245.975422,24.0987982 246.252441,23.574707 L246.252441,21.3398438 L243.837891,21.3398438 C242.872065,21.3398438 242.112145,21.5663226 241.558105,22.0192871 C241.004066,22.4722516 240.727051,23.0169239 240.727051,23.6533203 C240.727051,24.2148466 240.901121,24.6528305 241.249268,24.9672852 C241.597414,25.2817399 242.119625,25.4389648 242.815918,25.4389648 L242.815918,25.4389648 Z M261.222656,21.6992188 L259.773926,21.6992188 L259.773926,27 L257.696289,27 L257.696289,21.6992188 L256.236328,21.6992188 L252.833496,27 L250.205566,27 L254.652832,20.5874023 L250.621094,14.8486328 L253.136719,14.8486328 L256.27002,19.8911133 L257.696289,19.8911133 L257.696289,14.8486328 L259.773926,14.8486328 L259.773926,19.8911133 L261.188965,19.8911133 L264.344727,14.8486328 L266.860352,14.8486328 L262.817383,20.5874023 L267.264648,27 L264.636719,27 L261.222656,21.6992188 Z M277.012695,14.8486328 L279.090332,14.8486328 L279.090332,27 L277.012695,27 L277.012695,18.1166992 L276.979004,18.1166992 L271.408691,27 L269.331055,27 L269.331055,14.8486328 L271.408691,14.8486328 L271.408691,23.7207031 L271.442383,23.7207031 L277.012695,14.8486328 Z M292.353516,27 L290.275879,27 L290.275879,21.7890625 L284.694336,21.7890625 L284.694336,27 L282.605469,27 L282.605469,14.8486328 L284.694336,14.8486328 L284.694336,20.1269531 L290.275879,20.1269531 L290.275879,14.8486328 L292.353516,14.8486328 L292.353516,27 Z" id="средняя-глубина-сква" fill="#FFFFFF"></path>
            <path d="M1.5,0.5 L1.5,210.509521" id="Line" stroke="#4A90E2" stroke-linecap="square"></path>
            <path d="M222.847656,62.1015625 L227.886719,51.3203125 L229.621094,51.3203125 L229.621094,64 L228.214844,64 L228.214844,53.6757812 L228.179688,53.6640625 L223.339844,64 L222.34375,64 L217.410156,53.4296875 L217.375,53.4414062 L217.375,64 L215.980469,64 L215.980469,51.3203125 L217.820312,51.3203125 L222.847656,62.1015625 Z M238.28125,64.234375 C236.593742,64.234375 235.228521,63.6621151 234.185547,62.5175781 C233.142573,61.3730412 232.621094,59.8789155 232.621094,58.0351562 L232.621094,57.390625 C232.621094,55.5390532 233.138667,54.0253965 234.173828,52.8496094 C235.20899,51.6738222 236.480461,51.0859375 237.988281,51.0859375 C239.574227,51.0859375 240.80273,51.5683546 241.673828,52.5332031 C242.544926,53.4980517 242.980469,54.8203041 242.980469,56.5 L242.980469,57.6953125 L234.027344,57.6953125 L234.027344,58.0351562 C234.027344,59.4882885 234.414059,60.6874953 235.1875,61.6328125 C235.960941,62.5781297 236.992181,63.0507812 238.28125,63.0507812 C239.054691,63.0507812 239.732419,62.9394542 240.314453,62.7167969 C240.896487,62.4941395 241.449216,62.1406274 241.972656,61.65625 L242.570312,62.6171875 C242.093748,63.11719 241.511722,63.5117173 240.824219,63.8007812 C240.136715,64.0898452 239.289068,64.234375 238.28125,64.234375 L238.28125,64.234375 Z M237.988281,52.28125 C236.933588,52.28125 236.056644,52.6738242 235.357422,53.4589844 C234.6582,54.2441446 234.23047,55.2617125 234.074219,56.5117188 L241.585938,56.5117188 L241.585938,56.1601562 C241.585938,55.0351506 241.269534,54.1074255 240.636719,53.3769531 C240.003903,52.6464807 239.121099,52.28125 237.988281,52.28125 L237.988281,52.28125 Z M254.710938,52.515625 L250.09375,52.515625 L250.09375,64 L248.6875,64 L248.6875,52.515625 L244.246094,52.515625 L244.246094,51.3203125 L254.710938,51.3203125 L254.710938,52.515625 Z M267.238281,58.0117188 C267.238281,59.9414159 266.81641,61.460932 265.972656,62.5703125 C265.128902,63.679693 263.937508,64.234375 262.398438,64.234375 C261.492183,64.234375 260.712894,64.0722672 260.060547,63.7480469 C259.4082,63.4238265 258.875002,62.9531281 258.460938,62.3359375 L258.425781,62.3476562 L258.425781,68.875 L257.019531,68.875 L257.019531,51.3203125 L258.203125,51.3203125 L258.378906,53.2304688 L258.402344,53.2421875 C258.824221,52.5468715 259.361325,52.0136737 260.013672,51.6425781 C260.666019,51.2714825 261.45312,51.0859375 262.375,51.0859375 C263.929695,51.0859375 265.128902,51.6816347 265.972656,52.8730469 C266.81641,54.0644591 267.238281,55.6953021 267.238281,57.765625 L267.238281,58.0117188 Z M265.832031,57.765625 C265.832031,56.1249918 265.517581,54.8046925 264.888672,53.8046875 C264.259762,52.8046825 263.316413,52.3046875 262.058594,52.3046875 C261.097651,52.3046875 260.328128,52.5253884 259.75,52.9667969 C259.171872,53.4082053 258.73047,53.9960901 258.425781,54.7304688 L258.425781,60.8125 C258.753908,61.5234411 259.214841,62.0742168 259.808594,62.4648438 C260.402347,62.8554707 261.160152,63.0507812 262.082031,63.0507812 C263.332038,63.0507812 264.269528,62.5996139 264.894531,61.6972656 C265.519534,60.7949174 265.832031,59.566414 265.832031,58.0117188 L265.832031,57.765625 Z M269.605469,57.4726562 C269.605469,55.5663967 270.10937,54.0253965 271.117188,52.8496094 C272.125005,51.6738222 273.488273,51.0859375 275.207031,51.0859375 C276.933602,51.0859375 278.300776,51.6738222 279.308594,52.8496094 C280.316411,54.0253965 280.820312,55.5663967 280.820312,57.4726562 L280.820312,57.859375 C280.820312,59.7734471 280.318364,61.3144473 279.314453,62.4824219 C278.310542,63.6503965 276.949227,64.234375 275.230469,64.234375 C273.496085,64.234375 272.125005,63.6503965 271.117188,62.4824219 C270.10937,61.3144473 269.605469,59.7734471 269.605469,57.859375 L269.605469,57.4726562 Z M271.011719,57.859375 C271.011719,59.3593825 271.376949,60.5996045 272.107422,61.5800781 C272.837894,62.5605518 273.878899,63.0507812 275.230469,63.0507812 C276.566413,63.0507812 277.599606,62.5605518 278.330078,61.5800781 C279.060551,60.5996045 279.425781,59.3593825 279.425781,57.859375 L279.425781,57.4726562 C279.425781,56.0038989 279.056644,54.7714894 278.318359,53.7753906 C277.580074,52.7792919 276.542975,52.28125 275.207031,52.28125 C273.863275,52.28125 272.828129,52.7792919 272.101562,53.7753906 C271.374996,54.7714894 271.011719,56.0038989 271.011719,57.4726562 L271.011719,57.859375 Z M283.878906,64 L283.878906,51.3203125 L288.53125,51.3203125 C290.140633,51.3203125 291.374996,51.5976535 292.234375,52.1523438 C293.093754,52.707034 293.523438,53.558588 293.523438,54.7070312 C293.523438,55.3632845 293.333986,55.9335913 292.955078,56.4179688 C292.57617,56.9023462 292.039066,57.2499989 291.34375,57.4609375 L291.34375,57.4960938 C292.156254,57.644532 292.806638,57.9941379 293.294922,58.5449219 C293.783206,59.0957059 294.027344,59.7421838 294.027344,60.484375 C294.027344,61.6562559 293.615238,62.5351533 292.791016,63.1210938 C291.966793,63.7070342 290.816414,64 289.339844,64 L283.878906,64 Z M285.273438,58.1640625 L285.273438,62.828125 L289.339844,62.828125 C290.410162,62.828125 291.22656,62.6289082 291.789062,62.2304688 C292.351565,61.8320293 292.632812,61.2421914 292.632812,60.4609375 C292.632812,59.7421839 292.347659,59.1796895 291.777344,58.7734375 C291.207028,58.3671855 290.394537,58.1640625 289.339844,58.1640625 L285.273438,58.1640625 Z M285.273438,56.9921875 L288.824219,56.9921875 C289.925787,56.9765624 290.75195,56.783205 291.302734,56.4121094 C291.853518,56.0410138 292.128906,55.4843787 292.128906,54.7421875 C292.128906,53.9765587 291.832034,53.4140643 291.238281,53.0546875 C290.644528,52.6953107 289.742194,52.515625 288.53125,52.515625 L285.273438,52.515625 L285.273438,56.9921875 Z" id="метров" fill="#4990E2"></path>
            <path d="M28.3708382,80.9220419 L34.7023323,80.9220419 C39.6521581,80.9220419 43.3416969,79.7377455 45.7710593,77.3691172 C48.2004217,75.0004888 49.4150847,71.8727317 49.4150847,67.9857518 C49.4150847,63.7647347 48.2687465,60.4471864 45.9760358,58.0330076 C43.683325,55.6188287 40.1835773,54.4117573 35.4766877,54.4117573 C31.1342024,54.4117573 27.626863,55.6416036 24.9545644,58.101333 C22.2822658,60.5610624 20.9461365,63.8862023 20.9461365,68.0768525 L15.4800985,68.0768525 C15.4800985,62.6715211 17.3400511,58.2683679 21.0600123,54.8672605 C24.7799735,51.4661532 29.5854839,49.765625 35.4766877,49.765625 C41.5197266,49.765625 46.2645039,51.3598702 49.7111618,54.5484083 C53.1578197,57.7369464 54.8811227,62.2767493 54.8811227,68.1679531 C54.8811227,71.3564912 53.9321673,74.2944573 52.0342279,76.9819395 C50.1362886,79.6694216 47.4108885,81.6660239 43.857946,82.9718062 L43.857946,83.1084571 C48.0182291,84.2927713 51.1004364,86.2665986 53.1046604,89.0299983 C55.1088844,91.7933981 56.1109813,95.1337212 56.1109813,99.0510681 C56.1109813,105.06374 54.2358453,109.725009 50.4855171,113.035015 C46.735189,116.345022 41.8082123,118 35.7044393,118 C29.7828684,118 24.764792,116.367797 20.6500595,113.103341 C16.5353269,109.838885 14.4779915,105.154841 14.4779915,99.0510681 L19.9440295,99.0510681 C19.9440295,103.363186 21.3864418,106.832567 24.2713097,109.459316 C27.1561775,112.086064 30.9671826,113.399418 35.7044393,113.399418 C40.50243,113.399418 44.1995604,112.199938 46.7959415,109.800943 C49.3923225,107.401948 50.6904936,103.879425 50.6904936,99.2332694 C50.6904936,94.4656457 49.339181,90.9962645 46.6365154,88.8250219 C43.9338497,86.6537793 39.9558284,85.5681742 34.7023323,85.5681742 L28.3708382,85.5681742 L28.3708382,80.9220419 Z M109.13155,117.043443 L67.9540638,117.043443 L67.9540638,112.852814 L89.681565,88.2100926 C93.781114,83.5943041 96.635572,79.7984823 98.2450246,76.8225134 C99.8544772,73.8465444 100.659191,70.9313533 100.659191,68.0768525 C100.659191,63.8862023 99.5128532,60.5610624 97.2201425,58.101333 C94.9274317,55.6416036 91.6250668,54.4117573 87.3129485,54.4117573 C82.1809205,54.4117573 78.3319572,55.7858448 75.7659431,58.534061 C73.1999291,61.2822772 71.9169413,65.0401408 71.9169413,69.8077645 L66.4964536,69.8077645 C66.4964536,64.0380288 68.3336314,59.2552934 72.008042,55.4594146 C75.6824526,51.6635359 80.7840371,49.765625 87.3129485,49.765625 C93.1130512,49.765625 97.7059956,51.3826451 101.091919,54.6167338 C104.477843,57.8508225 106.17078,62.2767507 106.17078,67.8946512 C106.17078,71.5994288 105.047217,75.281376 102.800056,78.9406031 C100.552896,82.5998302 97.3340392,86.7980091 93.1433891,91.5352658 L74.6499604,112.442861 L109.13155,112.442861 L109.13155,117.043443 Z M159.692402,91.3075142 C159.692402,100.083586 157.946324,106.726274 154.454116,111.235778 C150.961907,115.745282 145.921056,118 139.331411,118 C132.772132,118 127.716098,115.73769 124.163155,111.213003 C120.610213,106.688315 118.833768,100.053219 118.833768,91.3075142 L118.833768,76.5036611 C118.833768,67.7883236 120.595029,61.153227 124.117605,56.5981726 C127.64018,52.0431181 132.681032,49.765625 139.24031,49.765625 C145.799588,49.765625 150.848031,52.0431181 154.38579,56.5981726 C157.923549,61.153227 159.692402,67.7883236 159.692402,76.5036611 L159.692402,91.3075142 Z M154.226364,75.5926548 C154.226364,68.6386049 152.981335,63.3700043 150.491238,59.7866948 C148.001142,56.2033852 144.25087,54.4117573 139.24031,54.4117573 C134.22975,54.4117573 130.48707,56.2033852 128.012157,59.7866948 C125.537244,63.3700043 124.299806,68.6386049 124.299806,75.5926548 L124.299806,92.1274199 C124.299806,99.0207357 125.552427,104.289336 128.057707,107.93338 C130.562987,111.577424 134.320851,113.399418 139.331411,113.399418 C144.311604,113.399418 148.039101,111.585015 150.514013,107.956155 C152.988926,104.327295 154.226364,99.0511027 154.226364,92.1274199 L154.226364,75.5926548 Z M211.392012,91.3075142 C211.392012,100.083586 209.645934,106.726274 206.153726,111.235778 C202.661517,115.745282 197.620666,118 191.031021,118 C184.471742,118 179.415707,115.73769 175.862765,111.213003 C172.309822,106.688315 170.533378,100.053219 170.533378,91.3075142 L170.533378,76.5036611 C170.533378,67.7883236 172.294639,61.153227 175.817215,56.5981726 C179.33979,52.0431181 184.380641,49.765625 190.93992,49.765625 C197.499198,49.765625 202.547641,52.0431181 206.0854,56.5981726 C209.623159,61.153227 211.392012,67.7883236 211.392012,76.5036611 L211.392012,91.3075142 Z M205.925974,75.5926548 C205.925974,68.6386049 204.680945,63.3700043 202.190848,59.7866948 C199.700752,56.2033852 195.95048,54.4117573 190.93992,54.4117573 C185.92936,54.4117573 182.18668,56.2033852 179.711767,59.7866948 C177.236854,63.3700043 175.999416,68.6386049 175.999416,75.5926548 L175.999416,92.1274199 C175.999416,99.0207357 177.252037,104.289336 179.757317,107.93338 C182.262597,111.577424 186.020461,113.399418 191.031021,113.399418 C196.011213,113.399418 199.73871,111.585015 202.213623,107.956155 C204.688536,104.327295 205.925974,99.0511027 205.925974,92.1274199 L205.925974,75.5926548 Z" id="3200" fill="#4990E2"></path>
        </g>
    </g>
</svg>