<?xml version="1.0" encoding="UTF-8"?>
<svg width="304px" height="212px" viewBox="0 0 304 212" version="1.1" xmlns="http://www.w3.org/2000/svg" xmlns:xlink="http://www.w3.org/1999/xlink">
    <!-- Generator: Sketch 3.8.3 (29802) - http://www.bohemiancoding.com/sketch -->
    <title>average_deep</title>
    <desc>Created with Sketch.</desc>
    <defs></defs>
    <g id="new" stroke="none" stroke-width="1" fill="none" fill-rule="evenodd">
        <g id="average_deep" transform="translate(-1.000000, 0.000000)">
            <polygon id="Rectangle-29" fill="#4A90E2" points="2 0 305 0 305 53 13.8964844 53 2 53"></polygon>
            <path d="M19.3857422,31.5512695 C20.1569049,31.5512695 20.8251111,31.3266624 21.3903809,30.8774414 C21.9556506,30.4282204 22.2420247,29.8592157 22.2495117,29.1704102 L24.2260742,29.1704102 C24.2185872,30.2784886 23.7375536,31.2311972 22.782959,32.0285645 C21.8283644,32.8259317 20.6959701,33.2246094 19.3857422,33.2246094 C17.6038322,33.2246094 16.2561895,32.6574764 15.3427734,31.5231934 C14.4293574,30.3889103 13.9726562,28.9345792 13.9726562,27.1601562 L13.9726562,26.6884766 C13.9726562,24.9215406 14.4293574,23.4690812 15.3427734,22.3310547 C16.2561895,21.1930282 17.6038322,20.6240234 19.3857422,20.6240234 C20.8157624,20.6240234 21.9781043,21.0358032 22.8728027,21.859375 C23.7675012,22.6829468 24.2185872,23.7386003 24.2260742,25.0263672 L22.2495117,25.0263672 C22.2420247,24.2477175 21.9724961,23.6001002 21.440918,23.0834961 C20.9093398,22.5668919 20.224288,22.3085938 19.3857422,22.3085938 C18.1803325,22.3085938 17.3249537,22.7259887 16.8195801,23.560791 C16.3142065,24.3955934 16.0615234,25.4381448 16.0615234,26.6884766 L16.0615234,27.1601562 C16.0615234,28.4404361 16.3123347,29.4923461 16.8139648,30.315918 C17.315595,31.1394898 18.1728455,31.5512695 19.3857422,31.5512695 L19.3857422,31.5512695 Z M36.9501953,27.3735352 C36.9501953,29.1704191 36.5402873,30.5948027 35.720459,31.6467285 C34.9006307,32.6986543 33.7382888,33.2246094 32.2333984,33.2246094 C31.4622357,33.2246094 30.7959012,33.0992037 30.234375,32.8483887 C29.6728488,32.5975736 29.1936869,32.2213567 28.796875,31.7197266 L28.7631836,31.730957 L28.7631836,37.671875 L26.6743164,37.671875 L26.6743164,20.8486328 L28.4599609,20.8486328 L28.6621094,22.3984375 C29.0664083,21.8144502 29.5568005,21.3727229 30.1333008,21.0732422 C30.7098011,20.7737615 31.3985963,20.6240234 32.199707,20.6240234 C33.7270584,20.6240234 34.9006307,21.2098737 35.720459,22.3815918 C36.5402873,23.5533099 36.9501953,25.1386619 36.9501953,27.1376953 L36.9501953,27.3735352 Z M34.8613281,27.1376953 C34.8613281,25.7076751 34.5917996,24.5528202 34.0527344,23.6730957 C33.5136692,22.7933713 32.6938532,22.3535156 31.5932617,22.3535156 C30.9119432,22.3535156 30.3410668,22.5032537 29.8806152,22.8027344 C29.4201637,23.102215 29.0476902,23.5139948 28.7631836,24.0380859 L28.7631836,29.9003906 C29.0626643,30.4319688 29.4388812,30.8400051 29.8918457,31.1245117 C30.3448102,31.4090183 30.9194301,31.5512695 31.6157227,31.5512695 C32.7088271,31.5512695 33.5230279,31.1713091 34.0583496,30.411377 C34.5936713,29.6514448 34.8613281,28.638841 34.8613281,27.3735352 L34.8613281,27.1376953 Z M44.6992188,33.2246094 C42.992179,33.2246094 41.6445362,32.6724502 40.65625,31.5681152 C39.6679638,30.4637803 39.1738281,28.9982188 39.1738281,27.1713867 L39.1738281,26.6660156 C39.1738281,24.8990797 39.6810659,23.4503637 40.6955566,22.3198242 C41.7100474,21.1892847 42.9322845,20.6240234 44.3623047,20.6240234 C46.0094483,20.6240234 47.2466593,21.1069288 48.0739746,22.0727539 C48.9012899,23.038579 49.3149414,24.3600177 49.3149414,26.0371094 L49.3149414,27.3959961 L41.2626953,27.3959961 C41.2926434,28.6388408 41.6014782,29.642086 42.189209,30.4057617 C42.7769398,31.1694374 43.6136013,31.5512695 44.6992188,31.5512695 C45.4554074,31.5512695 46.1086398,31.4464529 46.6589355,31.2368164 C47.2092313,31.0271799 47.7052387,30.7314472 48.1469727,30.3496094 L48.9667969,31.730957 C48.5250629,32.165204 47.9579299,32.5227037 47.2653809,32.8034668 C46.5728318,33.0842299 45.717453,33.2246094 44.6992188,33.2246094 L44.6992188,33.2246094 Z M44.3623047,22.3085938 C43.5761679,22.3085938 42.9117052,22.6249155 42.3688965,23.2575684 C41.8260878,23.8902213 41.4798185,24.711909 41.3300781,25.7226562 L47.2373047,25.7226562 L47.2373047,25.4306641 C47.2373047,24.5247351 46.9977237,23.7779164 46.5185547,23.1901855 C46.0393856,22.6024547 45.3206428,22.3085938 44.3623047,22.3085938 L44.3623047,22.3085938 Z M51.6621094,31.3266602 C52.2985058,30.5779585 52.7814111,29.8199094 53.1108398,29.0524902 C53.4402686,28.285071 53.6611323,27.0665774 53.7734375,25.3969727 L53.953125,20.8486328 L61.7807617,20.8486328 L61.7807617,31.3266602 L63.3417969,31.3266602 L63.3417969,36.5712891 L61.2641602,36.5712891 L61.2641602,33 L52.7851562,33 L52.7851562,36.5712891 L50.7075195,36.5712891 L50.71875,31.3266602 L51.6621094,31.3266602 Z M55.8510742,25.3969727 C55.768717,26.7970448 55.577801,27.970617 55.2783203,28.9177246 C54.9788396,29.8648322 54.5820337,30.6678027 54.0878906,31.3266602 L59.703125,31.3266602 L59.703125,22.746582 L55.9633789,22.746582 L55.8510742,25.3969727 Z M75.5717773,33 L73.4941406,33 L73.4941406,27.7890625 L67.9125977,27.7890625 L67.9125977,33 L65.8237305,33 L65.8237305,20.8486328 L67.9125977,20.8486328 L67.9125977,26.1269531 L73.4941406,26.1269531 L73.4941406,20.8486328 L75.5717773,20.8486328 L75.5717773,33 Z M88.1948242,20.8486328 L88.1948242,33 L86.105957,33 L86.105957,28.2607422 L82.9838867,28.2607422 L80.1088867,33 L77.862793,33 L80.9287109,27.9575195 C80.1350872,27.6804999 79.5323914,27.2481312 79.1206055,26.6604004 C78.7088196,26.0726696 78.5029297,25.3707723 78.5029297,24.5546875 C78.5029297,23.446609 78.9053508,22.551924 79.7102051,21.8706055 C80.5150594,21.189287 81.6511971,20.8486328 83.1186523,20.8486328 L88.1948242,20.8486328 Z M80.5917969,24.5771484 C80.5917969,25.1461617 80.7770978,25.6234518 81.1477051,26.0090332 C81.5183124,26.3946146 82.0891889,26.5874023 82.8603516,26.5874023 L86.105957,26.5874023 L86.105957,22.5107422 L83.1186523,22.5107422 C82.2651325,22.5107422 81.6306173,22.7110169 81.2150879,23.1115723 C80.7995585,23.5121277 80.5917969,24.0006482 80.5917969,24.5771484 L80.5917969,24.5771484 Z M100.817871,20.8486328 L100.817871,33 L98.7290039,33 L98.7290039,28.2607422 L95.6069336,28.2607422 L92.7319336,33 L90.4858398,33 L93.5517578,27.9575195 C92.7581341,27.6804999 92.1554383,27.2481312 91.7436523,26.6604004 C91.3318664,26.0726696 91.1259766,25.3707723 91.1259766,24.5546875 C91.1259766,23.446609 91.5283977,22.551924 92.333252,21.8706055 C93.1381062,21.189287 94.274244,20.8486328 95.7416992,20.8486328 L100.817871,20.8486328 Z M93.2148437,24.5771484 C93.2148437,25.1461617 93.4001446,25.6234518 93.770752,26.0090332 C94.1413593,26.3946146 94.7122357,26.5874023 95.4833984,26.5874023 L98.7290039,26.5874023 L98.7290039,22.5107422 L95.7416992,22.5107422 C94.8881793,22.5107422 94.2536642,22.7110169 93.8381348,23.1115723 C93.4226053,23.5121277 93.2148437,24.0006482 93.2148437,24.5771484 L93.2148437,24.5771484 Z M117.697266,22.5444336 L112.093262,22.5444336 L112.093262,33 L110.004395,33 L110.004395,20.8486328 L117.697266,20.8486328 L117.697266,22.5444336 Z M129.006348,20.8486328 L129.006348,33 L126.91748,33 L126.91748,22.5444336 L122.795898,22.5444336 L122.649902,26.0595703 C122.537597,28.5602339 122.198815,30.3421171 121.633545,31.4052734 C121.068275,32.4684298 120.033211,33 118.52832,33 L117.921875,33 L117.966797,31.1806641 L118.416016,31.1694336 C119.202152,31.1694336 119.733723,30.8081905 120.010742,30.0856934 C120.287762,29.3631963 120.474934,28.0211687 120.572266,26.0595703 L120.796875,20.8486328 L129.006348,20.8486328 Z M136.081543,28.6201172 L136.508301,30.2373047 L136.541992,30.2373047 L139.630371,20.8486328 L141.955078,20.8486328 L136.811523,34.8754883 C136.504556,35.7065471 136.074059,36.4196748 135.52002,37.0148926 C134.96598,37.6101104 134.194829,37.9077148 133.206543,37.9077148 C133.026855,37.9077148 132.805991,37.8871259 132.543945,37.8459473 C132.2819,37.8047687 132.07601,37.7654624 131.92627,37.7280273 L132.139648,36.0546875 C132.117187,36.0472005 132.251952,36.0546874 132.543945,36.0771484 C132.835939,36.0996095 133.023112,36.1108398 133.105469,36.1108398 C133.607099,36.1108398 133.973957,35.9704604 134.206055,35.6896973 C134.438152,35.4089341 134.726398,34.8680053 135.070801,34.0668945 L135.621094,32.7529297 L131.072754,20.8486328 L133.397461,20.8486328 L136.081543,28.6201172 Z M149.19873,21.5561523 C150.778491,21.5561523 152.01383,22.0615184 152.904785,23.0722656 C153.79574,24.0830129 154.241211,25.4081949 154.241211,27.0478516 L154.241211,27.3173828 C154.241211,29.0843187 153.762049,30.5124457 152.803711,31.6018066 C151.845373,32.6911676 150.516447,33.2358398 148.816895,33.2358398 C147.109855,33.2358398 145.777186,32.6911676 144.818848,31.6018066 C143.86051,30.5124457 143.381348,29.0843187 143.381348,27.3173828 L143.381348,25.7900391 C143.381348,23.3193236 143.866125,21.3820871 144.835693,19.9782715 C145.805262,18.5744559 147.151033,17.7115902 148.873047,17.3896484 C149.876307,17.202473 150.593178,16.9890962 151.023682,16.7495117 C151.454185,16.5099272 151.669434,16.1131213 151.669434,15.559082 L153.376465,15.559082 C153.376465,16.884284 153.047041,17.75838 152.388184,18.1813965 C151.729326,18.6044129 150.70362,18.9282215 149.311035,19.152832 C148.255366,19.3325204 147.362552,19.738685 146.632568,20.3713379 C145.902584,21.0039908 145.425294,21.9566994 145.200684,23.2294922 L145.234375,23.2519531 C145.758466,22.727862 146.353675,22.3142105 147.02002,22.0109863 C147.686364,21.7077622 148.412594,21.5561523 149.19873,21.5561523 L149.19873,21.5561523 Z M148.794434,23.2294922 C147.686355,23.2294922 146.855309,23.5888636 146.30127,24.3076172 C145.74723,25.0263708 145.470215,25.9397731 145.470215,27.0478516 L145.470215,27.3173828 C145.470215,28.5677146 145.749102,29.5878053 146.306885,30.3776855 C146.864668,31.1675658 147.701329,31.5625 148.816895,31.5625 C149.924973,31.5625 150.759763,31.1675658 151.321289,30.3776855 C151.882815,29.5878053 152.163574,28.5677146 152.163574,27.3173828 L152.163574,27.0478516 C152.163574,25.9397731 151.880944,25.0263708 151.315674,24.3076172 C150.750404,23.5888636 149.909999,23.2294922 148.794434,23.2294922 L148.794434,23.2294922 Z M164.247559,20.8486328 L166.325195,20.8486328 L166.325195,33 L164.247559,33 L164.247559,24.1166992 L164.213867,24.1166992 L158.643555,33 L156.565918,33 L156.565918,20.8486328 L158.643555,20.8486328 L158.643555,29.7207031 L158.677246,29.7207031 L164.247559,20.8486328 Z M179.588379,33 L177.510742,33 L177.510742,27.7890625 L171.929199,27.7890625 L171.929199,33 L169.840332,33 L169.840332,20.8486328 L171.929199,20.8486328 L171.929199,26.1269531 L177.510742,26.1269531 L177.510742,20.8486328 L179.588379,20.8486328 L179.588379,33 Z M190.481934,33 C190.407063,32.6181622 190.350912,32.3037122 190.313477,32.0566406 C190.276041,31.8095691 190.249837,31.5512709 190.234863,31.2817383 C189.800616,31.8507515 189.261559,32.3168113 188.617676,32.6799316 C187.973792,33.0430519 187.26628,33.2246094 186.495117,33.2246094 C185.214837,33.2246094 184.250898,32.9082877 183.603271,32.2756348 C182.955645,31.6429819 182.631836,30.753912 182.631836,29.6083984 C182.631836,28.4254498 183.096024,27.5120475 184.024414,26.8681641 C184.952804,26.2242806 186.240552,25.9023438 187.887695,25.9023438 L190.234863,25.9023438 L190.234863,24.6669922 C190.234863,23.9257775 190.006513,23.3474142 189.549805,22.9318848 C189.093097,22.5163553 188.441736,22.3085938 187.595703,22.3085938 C186.809566,22.3085938 186.175051,22.4938946 185.692139,22.864502 C185.209226,23.2351093 184.967773,23.6861953 184.967773,24.2177734 L182.890137,24.2177734 C182.890137,23.2818964 183.335608,22.4489783 184.226562,21.7189941 C185.117517,20.98901 186.277988,20.6240234 187.708008,20.6240234 C189.10808,20.6240234 190.2255,20.968421 191.060303,21.6572266 C191.895105,22.3460321 192.3125,23.3567642 192.3125,24.6894531 L192.3125,30.5517578 C192.3125,30.9860048 192.334961,31.401528 192.379883,31.7983398 C192.424805,32.1951517 192.507161,32.5957011 192.626953,33 L190.481934,33 Z M186.79834,31.4389648 C187.57699,31.4389648 188.275143,31.2592791 188.892822,30.8999023 C189.510501,30.5405255 189.957844,30.0987982 190.234863,29.574707 L190.234863,27.3398438 L187.820313,27.3398438 C186.854487,27.3398438 186.094567,27.5663226 185.540527,28.0192871 C184.986488,28.4722516 184.709473,29.0169239 184.709473,29.6533203 C184.709473,30.2148466 184.883543,30.6528305 185.231689,30.9672852 C185.579836,31.2817399 186.102047,31.4389648 186.79834,31.4389648 L186.79834,31.4389648 Z M206.148438,31.5512695 C206.9196,31.5512695 207.587806,31.3266624 208.153076,30.8774414 C208.718346,30.4282204 209.00472,29.8592157 209.012207,29.1704102 L210.98877,29.1704102 C210.981283,30.2784886 210.500249,31.2311972 209.545654,32.0285645 C208.59106,32.8259317 207.458665,33.2246094 206.148438,33.2246094 C204.366528,33.2246094 203.018885,32.6574764 202.105469,31.5231934 C201.192053,30.3889103 200.735352,28.9345792 200.735352,27.1601562 L200.735352,26.6884766 C200.735352,24.9215406 201.192053,23.4690812 202.105469,22.3310547 C203.018885,21.1930282 204.366528,20.6240234 206.148438,20.6240234 C207.578458,20.6240234 208.7408,21.0358032 209.635498,21.859375 C210.530197,22.6829468 210.981283,23.7386003 210.98877,25.0263672 L209.012207,25.0263672 C209.00472,24.2477175 208.735191,23.6001002 208.203613,23.0834961 C207.672035,22.5668919 206.986983,22.3085938 206.148438,22.3085938 C204.943028,22.3085938 204.087649,22.7259887 203.582275,23.560791 C203.076902,24.3955934 202.824219,25.4381448 202.824219,26.6884766 L202.824219,27.1601562 C202.824219,28.4404361 203.07503,29.4923461 203.57666,30.315918 C204.07829,31.1394898 204.935541,31.5512695 206.148438,31.5512695 L206.148438,31.5512695 Z M217.165527,27.800293 L215.649414,27.800293 L215.649414,33 L213.560547,33 L213.560547,20.8486328 L215.649414,20.8486328 L215.649414,26.003418 L217.008301,26.003418 L221.096191,20.8486328 L223.611816,20.8486328 L218.782715,26.6772461 L224.016113,33 L221.376953,33 L217.165527,27.800293 Z M225.992676,33 L225.992676,20.8486328 L230.731934,20.8486328 C232.349129,20.8486328 233.590084,21.1219048 234.454834,21.668457 C235.319584,22.2150092 235.751953,23.0535425 235.751953,24.184082 C235.751953,24.7680693 235.58537,25.2790505 235.252197,25.717041 C234.919025,26.1550315 234.437991,26.4900705 233.809082,26.722168 L233.809082,26.7558594 C234.565271,26.9355478 235.151121,27.2780736 235.56665,27.7834473 C235.98218,28.2888209 236.189941,28.8784146 236.189941,29.5522461 C236.189941,30.7052467 235.785649,31.5681124 234.977051,32.1408691 C234.168453,32.7136259 233.011726,33 231.506836,33 L225.992676,33 Z M228.070312,27.6542969 L228.070312,31.3491211 L231.506836,31.3491211 C232.37533,31.3491211 233.024819,31.1918961 233.455322,30.8774414 C233.885826,30.5629867 234.101074,30.1025421 234.101074,29.4960938 C234.101074,28.8971324 233.885826,28.4404313 233.455322,28.1259766 C233.024819,27.8115219 232.37533,27.6542969 231.506836,27.6542969 L228.070312,27.6542969 Z M228.070312,26.0146484 L230.88916,26.0146484 C231.825037,26.0071614 232.523191,25.8611668 232.983643,25.5766602 C233.444094,25.2921535 233.674316,24.8616565 233.674316,24.2851562 C233.674316,23.6861949 233.430992,23.2407241 232.944336,22.9487305 C232.45768,22.6567368 231.72022,22.5107422 230.731934,22.5107422 L228.070312,22.5107422 L228.070312,26.0146484 Z M246.499512,33 C246.424642,32.6181622 246.36849,32.3037122 246.331055,32.0566406 C246.29362,31.8095691 246.267415,31.5512709 246.252441,31.2817383 C245.818194,31.8507515 245.279137,32.3168113 244.635254,32.6799316 C243.99137,33.0430519 243.283858,33.2246094 242.512695,33.2246094 C241.232415,33.2246094 240.268477,32.9082877 239.62085,32.2756348 C238.973223,31.6429819 238.649414,30.753912 238.649414,29.6083984 C238.649414,28.4254498 239.113602,27.5120475 240.041992,26.8681641 C240.970382,26.2242806 242.25813,25.9023438 243.905273,25.9023438 L246.252441,25.9023438 L246.252441,24.6669922 C246.252441,23.9257775 246.024091,23.3474142 245.567383,22.9318848 C245.110675,22.5163553 244.459314,22.3085938 243.613281,22.3085938 C242.827145,22.3085938 242.192629,22.4938946 241.709717,22.864502 C241.226804,23.2351093 240.985352,23.6861953 240.985352,24.2177734 L238.907715,24.2177734 C238.907715,23.2818964 239.353186,22.4489783 240.244141,21.7189941 C241.135096,20.98901 242.295566,20.6240234 243.725586,20.6240234 C245.125658,20.6240234 246.243079,20.968421 247.077881,21.6572266 C247.912683,22.3460321 248.330078,23.3567642 248.330078,24.6894531 L248.330078,30.5517578 C248.330078,30.9860048 248.352539,31.401528 248.397461,31.7983398 C248.442383,32.1951517 248.524739,32.5957011 248.644531,33 L246.499512,33 Z M242.815918,31.4389648 C243.594568,31.4389648 244.292722,31.2592791 244.9104,30.8999023 C245.528079,30.5405255 245.975422,30.0987982 246.252441,29.574707 L246.252441,27.3398438 L243.837891,27.3398438 C242.872065,27.3398438 242.112145,27.5663226 241.558105,28.0192871 C241.004066,28.4722516 240.727051,29.0169239 240.727051,29.6533203 C240.727051,30.2148466 240.901121,30.6528305 241.249268,30.9672852 C241.597414,31.2817399 242.119625,31.4389648 242.815918,31.4389648 L242.815918,31.4389648 Z M261.222656,27.6992188 L259.773926,27.6992188 L259.773926,33 L257.696289,33 L257.696289,27.6992188 L256.236328,27.6992188 L252.833496,33 L250.205566,33 L254.652832,26.5874023 L250.621094,20.8486328 L253.136719,20.8486328 L256.27002,25.8911133 L257.696289,25.8911133 L257.696289,20.8486328 L259.773926,20.8486328 L259.773926,25.8911133 L261.188965,25.8911133 L264.344727,20.8486328 L266.860352,20.8486328 L262.817383,26.5874023 L267.264648,33 L264.636719,33 L261.222656,27.6992188 Z M277.012695,20.8486328 L279.090332,20.8486328 L279.090332,33 L277.012695,33 L277.012695,24.1166992 L276.979004,24.1166992 L271.408691,33 L269.331055,33 L269.331055,20.8486328 L271.408691,20.8486328 L271.408691,29.7207031 L271.442383,29.7207031 L277.012695,20.8486328 Z M292.353516,33 L290.275879,33 L290.275879,27.7890625 L284.694336,27.7890625 L284.694336,33 L282.605469,33 L282.605469,20.8486328 L284.694336,20.8486328 L284.694336,26.1269531 L290.275879,26.1269531 L290.275879,20.8486328 L292.353516,20.8486328 L292.353516,33 Z" id="средняя-глубина-сква" fill="#FFFFFF"></path>
            <path d="M1.5,0.5 L1.5,210.509521" id="Line" stroke="#4A90E2" stroke-linecap="square"></path>
            <path d="M232.847656,82.1015625 L237.886719,71.3203125 L239.621094,71.3203125 L239.621094,84 L238.214844,84 L238.214844,73.6757812 L238.179688,73.6640625 L233.339844,84 L232.34375,84 L227.410156,73.4296875 L227.375,73.4414062 L227.375,84 L225.980469,84 L225.980469,71.3203125 L227.820312,71.3203125 L232.847656,82.1015625 Z M248.28125,84.234375 C246.593742,84.234375 245.228521,83.6621151 244.185547,82.5175781 C243.142573,81.3730412 242.621094,79.8789155 242.621094,78.0351562 L242.621094,77.390625 C242.621094,75.5390532 243.138667,74.0253965 244.173828,72.8496094 C245.20899,71.6738222 246.480461,71.0859375 247.988281,71.0859375 C249.574227,71.0859375 250.80273,71.5683546 251.673828,72.5332031 C252.544926,73.4980517 252.980469,74.8203041 252.980469,76.5 L252.980469,77.6953125 L244.027344,77.6953125 L244.027344,78.0351562 C244.027344,79.4882885 244.414059,80.6874953 245.1875,81.6328125 C245.960941,82.5781297 246.992181,83.0507812 248.28125,83.0507812 C249.054691,83.0507812 249.732419,82.9394542 250.314453,82.7167969 C250.896487,82.4941395 251.449216,82.1406274 251.972656,81.65625 L252.570312,82.6171875 C252.093748,83.11719 251.511722,83.5117173 250.824219,83.8007812 C250.136715,84.0898452 249.289068,84.234375 248.28125,84.234375 L248.28125,84.234375 Z M247.988281,72.28125 C246.933588,72.28125 246.056644,72.6738242 245.357422,73.4589844 C244.6582,74.2441446 244.23047,75.2617125 244.074219,76.5117188 L251.585938,76.5117188 L251.585938,76.1601562 C251.585938,75.0351506 251.269534,74.1074255 250.636719,73.3769531 C250.003903,72.6464807 249.121099,72.28125 247.988281,72.28125 L247.988281,72.28125 Z M264.710938,72.515625 L260.09375,72.515625 L260.09375,84 L258.6875,84 L258.6875,72.515625 L254.246094,72.515625 L254.246094,71.3203125 L264.710938,71.3203125 L264.710938,72.515625 Z M277.238281,78.0117188 C277.238281,79.9414159 276.81641,81.460932 275.972656,82.5703125 C275.128902,83.679693 273.937508,84.234375 272.398438,84.234375 C271.492183,84.234375 270.712894,84.0722672 270.060547,83.7480469 C269.4082,83.4238265 268.875002,82.9531281 268.460938,82.3359375 L268.425781,82.3476562 L268.425781,88.875 L267.019531,88.875 L267.019531,71.3203125 L268.203125,71.3203125 L268.378906,73.2304688 L268.402344,73.2421875 C268.824221,72.5468715 269.361325,72.0136737 270.013672,71.6425781 C270.666019,71.2714825 271.45312,71.0859375 272.375,71.0859375 C273.929695,71.0859375 275.128902,71.6816347 275.972656,72.8730469 C276.81641,74.0644591 277.238281,75.6953021 277.238281,77.765625 L277.238281,78.0117188 Z M275.832031,77.765625 C275.832031,76.1249918 275.517581,74.8046925 274.888672,73.8046875 C274.259762,72.8046825 273.316413,72.3046875 272.058594,72.3046875 C271.097651,72.3046875 270.328128,72.5253884 269.75,72.9667969 C269.171872,73.4082053 268.73047,73.9960901 268.425781,74.7304688 L268.425781,80.8125 C268.753908,81.5234411 269.214841,82.0742168 269.808594,82.4648438 C270.402347,82.8554707 271.160152,83.0507812 272.082031,83.0507812 C273.332038,83.0507812 274.269528,82.5996139 274.894531,81.6972656 C275.519534,80.7949174 275.832031,79.566414 275.832031,78.0117188 L275.832031,77.765625 Z M279.605469,77.4726562 C279.605469,75.5663967 280.10937,74.0253965 281.117188,72.8496094 C282.125005,71.6738222 283.488273,71.0859375 285.207031,71.0859375 C286.933602,71.0859375 288.300776,71.6738222 289.308594,72.8496094 C290.316411,74.0253965 290.820312,75.5663967 290.820312,77.4726562 L290.820312,77.859375 C290.820312,79.7734471 290.318364,81.3144473 289.314453,82.4824219 C288.310542,83.6503965 286.949227,84.234375 285.230469,84.234375 C283.496085,84.234375 282.125005,83.6503965 281.117188,82.4824219 C280.10937,81.3144473 279.605469,79.7734471 279.605469,77.859375 L279.605469,77.4726562 Z M281.011719,77.859375 C281.011719,79.3593825 281.376949,80.5996045 282.107422,81.5800781 C282.837894,82.5605518 283.878899,83.0507812 285.230469,83.0507812 C286.566413,83.0507812 287.599606,82.5605518 288.330078,81.5800781 C289.060551,80.5996045 289.425781,79.3593825 289.425781,77.859375 L289.425781,77.4726562 C289.425781,76.0038989 289.056644,74.7714894 288.318359,73.7753906 C287.580074,72.7792919 286.542975,72.28125 285.207031,72.28125 C283.863275,72.28125 282.828129,72.7792919 282.101562,73.7753906 C281.374996,74.7714894 281.011719,76.0038989 281.011719,77.4726562 L281.011719,77.859375 Z M293.878906,84 L293.878906,71.3203125 L298.53125,71.3203125 C300.140633,71.3203125 301.374996,71.5976535 302.234375,72.1523438 C303.093754,72.707034 303.523438,73.558588 303.523438,74.7070312 C303.523438,75.3632845 303.333986,75.9335913 302.955078,76.4179688 C302.57617,76.9023462 302.039066,77.2499989 301.34375,77.4609375 L301.34375,77.4960938 C302.156254,77.644532 302.806638,77.9941379 303.294922,78.5449219 C303.783206,79.0957059 304.027344,79.7421838 304.027344,80.484375 C304.027344,81.6562559 303.615238,82.5351533 302.791016,83.1210938 C301.966793,83.7070342 300.816414,84 299.339844,84 L293.878906,84 Z M295.273438,78.1640625 L295.273438,82.828125 L299.339844,82.828125 C300.410162,82.828125 301.22656,82.6289082 301.789062,82.2304688 C302.351565,81.8320293 302.632812,81.2421914 302.632812,80.4609375 C302.632812,79.7421839 302.347659,79.1796895 301.777344,78.7734375 C301.207028,78.3671855 300.394537,78.1640625 299.339844,78.1640625 L295.273438,78.1640625 Z M295.273438,76.9921875 L298.824219,76.9921875 C299.925787,76.9765624 300.75195,76.783205 301.302734,76.4121094 C301.853518,76.0410138 302.128906,75.4843787 302.128906,74.7421875 C302.128906,73.9765587 301.832034,73.4140643 301.238281,73.0546875 C300.644528,72.6953107 299.742194,72.515625 298.53125,72.515625 L295.273438,72.515625 L295.273438,76.9921875 Z" id="метров" fill="#4990E2"></path>
            <path d="M38.3708382,100.922042 L44.7023323,100.922042 C49.6521581,100.922042 53.3416969,99.7377455 55.7710593,97.3691172 C58.2004217,95.0004888 59.4150847,91.8727317 59.4150847,87.9857518 C59.4150847,83.7647347 58.2687465,80.4471864 55.9760358,78.0330076 C53.683325,75.6188287 50.1835773,74.4117573 45.4766877,74.4117573 C41.1342024,74.4117573 37.626863,75.6416036 34.9545644,78.101333 C32.2822658,80.5610624 30.9461365,83.8862023 30.9461365,88.0768525 L25.4800985,88.0768525 C25.4800985,82.6715211 27.3400511,78.2683679 31.0600123,74.8672605 C34.7799735,71.4661532 39.5854839,69.765625 45.4766877,69.765625 C51.5197266,69.765625 56.2645039,71.3598702 59.7111618,74.5484083 C63.1578197,77.7369464 64.8811227,82.2767493 64.8811227,88.1679531 C64.8811227,91.3564912 63.9321673,94.2944573 62.0342279,96.9819395 C60.1362886,99.6694216 57.4108885,101.666024 53.857946,102.971806 L53.857946,103.108457 C58.0182291,104.292771 61.1004364,106.266599 63.1046604,109.029998 C65.1088844,111.793398 66.1109813,115.133721 66.1109813,119.051068 C66.1109813,125.06374 64.2358453,129.725009 60.4855171,133.035015 C56.735189,136.345022 51.8082123,138 45.7044393,138 C39.7828684,138 34.764792,136.367797 30.6500595,133.103341 C26.5353269,129.838885 24.4779915,125.154841 24.4779915,119.051068 L29.9440295,119.051068 C29.9440295,123.363186 31.3864418,126.832567 34.2713097,129.459316 C37.1561775,132.086064 40.9671826,133.399418 45.7044393,133.399418 C50.50243,133.399418 54.1995604,132.199938 56.7959415,129.800943 C59.3923225,127.401948 60.6904936,123.879425 60.6904936,119.233269 C60.6904936,114.465646 59.339181,110.996265 56.6365154,108.825022 C53.9338497,106.653779 49.9558284,105.568174 44.7023323,105.568174 L38.3708382,105.568174 L38.3708382,100.922042 Z M119.13155,137.043443 L77.9540638,137.043443 L77.9540638,132.852814 L99.681565,108.210093 C103.781114,103.594304 106.635572,99.7984823 108.245025,96.8225134 C109.854477,93.8465444 110.659191,90.9313533 110.659191,88.0768525 C110.659191,83.8862023 109.512853,80.5610624 107.220142,78.101333 C104.927432,75.6416036 101.625067,74.4117573 97.3129485,74.4117573 C92.1809205,74.4117573 88.3319572,75.7858448 85.7659431,78.534061 C83.1999291,81.2822772 81.9169413,85.0401408 81.9169413,89.8077645 L76.4964536,89.8077645 C76.4964536,84.0380288 78.3336314,79.2552934 82.008042,75.4594146 C85.6824526,71.6635359 90.7840371,69.765625 97.3129485,69.765625 C103.113051,69.765625 107.705996,71.3826451 111.091919,74.6167338 C114.477843,77.8508225 116.17078,82.2767507 116.17078,87.8946512 C116.17078,91.5994288 115.047217,95.281376 112.800056,98.9406031 C110.552896,102.59983 107.334039,106.798009 103.143389,111.535266 L84.6499604,132.442861 L119.13155,132.442861 L119.13155,137.043443 Z M169.692402,111.307514 C169.692402,120.083586 167.946324,126.726274 164.454116,131.235778 C160.961907,135.745282 155.921056,138 149.331411,138 C142.772132,138 137.716098,135.73769 134.163155,131.213003 C130.610213,126.688315 128.833768,120.053219 128.833768,111.307514 L128.833768,96.5036611 C128.833768,87.7883236 130.595029,81.153227 134.117605,76.5981726 C137.64018,72.0431181 142.681032,69.765625 149.24031,69.765625 C155.799588,69.765625 160.848031,72.0431181 164.38579,76.5981726 C167.923549,81.153227 169.692402,87.7883236 169.692402,96.5036611 L169.692402,111.307514 Z M164.226364,95.5926548 C164.226364,88.6386049 162.981335,83.3700043 160.491238,79.7866948 C158.001142,76.2033852 154.25087,74.4117573 149.24031,74.4117573 C144.22975,74.4117573 140.48707,76.2033852 138.012157,79.7866948 C135.537244,83.3700043 134.299806,88.6386049 134.299806,95.5926548 L134.299806,112.12742 C134.299806,119.020736 135.552427,124.289336 138.057707,127.93338 C140.562987,131.577424 144.320851,133.399418 149.331411,133.399418 C154.311604,133.399418 158.039101,131.585015 160.514013,127.956155 C162.988926,124.327295 164.226364,119.051103 164.226364,112.12742 L164.226364,95.5926548 Z M221.392012,111.307514 C221.392012,120.083586 219.645934,126.726274 216.153726,131.235778 C212.661517,135.745282 207.620666,138 201.031021,138 C194.471742,138 189.415707,135.73769 185.862765,131.213003 C182.309822,126.688315 180.533378,120.053219 180.533378,111.307514 L180.533378,96.5036611 C180.533378,87.7883236 182.294639,81.153227 185.817215,76.5981726 C189.33979,72.0431181 194.380641,69.765625 200.93992,69.765625 C207.499198,69.765625 212.547641,72.0431181 216.0854,76.5981726 C219.623159,81.153227 221.392012,87.7883236 221.392012,96.5036611 L221.392012,111.307514 Z M215.925974,95.5926548 C215.925974,88.6386049 214.680945,83.3700043 212.190848,79.7866948 C209.700752,76.2033852 205.95048,74.4117573 200.93992,74.4117573 C195.92936,74.4117573 192.18668,76.2033852 189.711767,79.7866948 C187.236854,83.3700043 185.999416,88.6386049 185.999416,95.5926548 L185.999416,112.12742 C185.999416,119.020736 187.252037,124.289336 189.757317,127.93338 C192.262597,131.577424 196.020461,133.399418 201.031021,133.399418 C206.011213,133.399418 209.73871,131.585015 212.213623,127.956155 C214.688536,124.327295 215.925974,119.051103 215.925974,112.12742 L215.925974,95.5926548 Z" id="3200" fill="#4990E2"></path>
        </g>
    </g>
</svg>