<?xml version="1.0" encoding="UTF-8"?>
<svg width="262px" height="212px" viewBox="0 0 262 212" version="1.1" xmlns="http://www.w3.org/2000/svg" xmlns:xlink="http://www.w3.org/1999/xlink">
    <!-- Generator: Sketch 3.8.3 (29802) - http://www.bohemiancoding.com/sketch -->
    <title>psp</title>
    <desc>Created with Sketch.</desc>
    <defs></defs>
    <g id="new" stroke="none" stroke-width="1" fill="none" fill-rule="evenodd">
        <g id="psp" transform="translate(-1.000000, 0.000000)">
            <polygon id="Rectangle-29" fill="#5ABE00" points="2 0 263 0 263 113 12.2474667 113 2 113"></polygon>
            <path d="M1.5,0.5 L1.5,210.509521" id="Line" stroke="#5ABE00" stroke-linecap="square"></path>
            <path d="M39.9335938,88.515625 L35.3164062,88.515625 L35.3164062,100 L33.9101562,100 L33.9101562,88.515625 L29.46875,88.515625 L29.46875,87.3203125 L39.9335938,87.3203125 L39.9335938,88.515625 Z M40.9765625,93.4726562 C40.9765625,91.5663967 41.4804637,90.0253965 42.4882812,88.8496094 C43.4960988,87.6738222 44.8593664,87.0859375 46.578125,87.0859375 C48.3046961,87.0859375 49.67187,87.6738222 50.6796875,88.8496094 C51.687505,90.0253965 52.1914062,91.5663967 52.1914062,93.4726562 L52.1914062,93.859375 C52.1914062,95.7734471 51.6894581,97.3144473 50.6855469,98.4824219 C49.6816356,99.6503965 48.3203211,100.234375 46.6015625,100.234375 C44.8671788,100.234375 43.4960988,99.6503965 42.4882812,98.4824219 C41.4804637,97.3144473 40.9765625,95.7734471 40.9765625,93.859375 L40.9765625,93.4726562 Z M42.3828125,93.859375 C42.3828125,95.3593825 42.7480432,96.5996045 43.4785156,97.5800781 C44.208988,98.5605518 45.2499932,99.0507812 46.6015625,99.0507812 C47.9375067,99.0507812 48.9706995,98.5605518 49.7011719,97.5800781 C50.4316443,96.5996045 50.796875,95.3593825 50.796875,93.859375 L50.796875,93.4726562 C50.796875,92.0038989 50.4277381,90.7714894 49.6894531,89.7753906 C48.9511682,88.7792919 47.9140692,88.28125 46.578125,88.28125 C45.2343683,88.28125 44.1992224,88.7792919 43.4726562,89.7753906 C42.7460901,90.7714894 42.3828125,92.0038989 42.3828125,93.4726562 L42.3828125,93.859375 Z M64.8359375,100 L63.4296875,100 L63.4296875,94.1875 L56.5976562,94.1875 L56.5976562,100 L55.1914062,100 L55.1914062,87.3203125 L56.5976562,87.3203125 L56.5976562,93.0039062 L63.4296875,93.0039062 L63.4296875,87.3203125 L64.8359375,87.3203125 L64.8359375,100 Z M78.3242188,100 L76.9179688,100 L76.9179688,94.1875 L70.0859375,94.1875 L70.0859375,100 L68.6796875,100 L68.6796875,87.3203125 L70.0859375,87.3203125 L70.0859375,93.0039062 L76.9179688,93.0039062 L76.9179688,87.3203125 L78.3242188,87.3203125 L78.3242188,100 Z M97.6484375,100 L96.2421875,100 L96.2421875,94.1875 L89.4101562,94.1875 L89.4101562,100 L88.0039062,100 L88.0039062,87.3203125 L89.4101562,87.3203125 L89.4101562,93.0039062 L96.2421875,93.0039062 L96.2421875,87.3203125 L97.6484375,87.3203125 L97.6484375,100 Z M106.308594,100.234375 C104.621085,100.234375 103.255865,99.6621151 102.212891,98.5175781 C101.169917,97.3730412 100.648438,95.8789155 100.648438,94.0351562 L100.648438,93.390625 C100.648438,91.5390532 101.16601,90.0253965 102.201172,88.8496094 C103.236333,87.6738222 104.507805,87.0859375 106.015625,87.0859375 C107.60157,87.0859375 108.830074,87.5683546 109.701172,88.5332031 C110.57227,89.4980517 111.007812,90.8203041 111.007812,92.5 L111.007812,93.6953125 L102.054688,93.6953125 L102.054688,94.0351562 C102.054688,95.4882885 102.441402,96.6874953 103.214844,97.6328125 C103.988285,98.5781297 105.019525,99.0507812 106.308594,99.0507812 C107.082035,99.0507812 107.759763,98.9394542 108.341797,98.7167969 C108.923831,98.4941395 109.47656,98.1406274 110,97.65625 L110.597656,98.6171875 C110.121091,99.11719 109.539066,99.5117173 108.851562,99.8007812 C108.164059,100.089845 107.316411,100.234375 106.308594,100.234375 L106.308594,100.234375 Z M106.015625,88.28125 C104.960932,88.28125 104.083988,88.6738242 103.384766,89.4589844 C102.685543,90.2441446 102.257813,91.2617125 102.101562,92.5117188 L109.613281,92.5117188 L109.613281,92.1601562 C109.613281,91.0351506 109.296878,90.1074255 108.664062,89.3769531 C108.031247,88.6464807 107.148443,88.28125 106.015625,88.28125 L106.015625,88.28125 Z M113.234375,93.765625 C113.234375,91.6953021 113.626949,90.0644591 114.412109,88.8730469 C115.19727,87.6816347 116.328118,87.0859375 117.804688,87.0859375 C118.226565,87.0859375 118.609373,87.1347651 118.953125,87.2324219 C119.296877,87.3300786 119.609374,87.4648429 119.890625,87.6367188 L119.890625,81.71875 L121.285156,81.71875 L121.285156,87.6835938 C121.566408,87.4882803 121.880858,87.3398443 122.228516,87.2382812 C122.576174,87.1367182 122.980466,87.0859375 123.441406,87.0859375 C124.917976,87.0859375 126.050777,87.6816347 126.839844,88.8730469 C127.62891,90.0644591 128.023438,91.6953021 128.023438,93.765625 L128.023438,94.0117188 C128.023438,95.9492284 127.630863,97.4726507 126.845703,98.5820312 C126.060543,99.6914118 124.933601,100.246094 123.464844,100.246094 C123.011716,100.246094 122.607424,100.199219 122.251953,100.105469 C121.896483,100.011718 121.57422,99.8750009 121.285156,99.6953125 L121.285156,104.875 L119.890625,104.875 L119.890625,99.7070312 C119.601561,99.8867196 119.285158,100.021484 118.941406,100.111328 C118.597655,100.201172 118.21094,100.246094 117.78125,100.246094 C116.320305,100.246094 115.19727,99.6914118 114.412109,98.5820312 C113.626949,97.4726507 113.234375,95.9492284 113.234375,94.0117188 L113.234375,93.765625 Z M126.628906,93.765625 C126.628906,92.1171793 126.339847,90.7910206 125.761719,89.7871094 C125.183591,88.7831981 124.3086,88.28125 123.136719,88.28125 C122.699217,88.28125 122.332033,88.3281245 122.035156,88.421875 C121.73828,88.5156255 121.488282,88.6406242 121.285156,88.796875 L121.285156,98.6054688 C121.51172,98.7460945 121.775389,98.8574215 122.076172,98.9394531 C122.376955,99.0214848 122.738279,99.0625 123.160156,99.0625 C124.332037,99.0625 125.203122,98.6113326 125.773438,97.7089844 C126.343753,96.8066361 126.628906,95.5742266 126.628906,94.0117188 L126.628906,93.765625 Z M114.640625,94.0117188 C114.640625,95.5820391 114.916013,96.8164018 115.466797,97.7148438 C116.017581,98.6132857 116.8789,99.0625 118.050781,99.0625 C118.449221,99.0625 118.796874,99.0195317 119.09375,98.9335938 C119.390626,98.8476558 119.656249,98.7304695 119.890625,98.5820312 L119.890625,88.7617188 C119.679686,88.6132805 119.427736,88.4960942 119.134766,88.4101562 C118.841795,88.3242183 118.488283,88.28125 118.074219,88.28125 C116.902338,88.28125 116.037112,88.781245 115.478516,89.78125 C114.919919,90.781255 114.640625,92.1093667 114.640625,93.765625 L114.640625,94.0117188 Z M139.320312,88.515625 L134.703125,88.515625 L134.703125,100 L133.296875,100 L133.296875,88.515625 L128.855469,88.515625 L128.855469,87.3203125 L139.320312,87.3203125 L139.320312,88.515625 Z M149.949219,87.3203125 L151.355469,87.3203125 L151.355469,100 L149.949219,100 L149.949219,89.5820312 L149.914062,89.5703125 L143.105469,100 L141.710938,100 L141.710938,87.3203125 L143.105469,87.3203125 L143.105469,97.7382812 L143.140625,97.75 L149.949219,87.3203125 Z" id="тонн-нефти" fill="#FFFFFF"></path>
            <path d="M38.0439453,135.508789 C38.0439453,136.956062 37.7275422,138.095699 37.0947266,138.927734 C36.4619109,139.75977 35.5683651,140.175781 34.4140625,140.175781 C33.7343716,140.175781 33.1499048,140.0542 32.6606445,139.811035 C32.1713843,139.56787 31.7714859,139.214846 31.4609375,138.751953 L31.4345703,138.760742 L31.4345703,143.65625 L30.3798828,143.65625 L30.3798828,130.490234 L31.2675781,130.490234 L31.3994141,131.922852 L31.4169922,131.931641 C31.7334,131.410154 32.136228,131.010255 32.6254883,130.731934 C33.1147485,130.453612 33.7050747,130.314453 34.3964844,130.314453 C35.5625058,130.314453 36.4619109,130.761226 37.0947266,131.654785 C37.7275422,132.548344 38.0439453,133.771477 38.0439453,135.324219 L38.0439453,135.508789 Z M36.9892578,135.324219 C36.9892578,134.093744 36.7534203,133.103519 36.2817383,132.353516 C35.8100562,131.603512 35.1025438,131.228516 34.1591797,131.228516 C33.438473,131.228516 32.8613303,131.394041 32.4277344,131.725098 C31.9941385,132.056154 31.6630871,132.497068 31.4345703,133.047852 L31.4345703,137.609375 C31.6806653,138.142581 32.026365,138.555663 32.4716797,138.848633 C32.9169944,139.141603 33.4853481,139.288086 34.1767578,139.288086 C35.1142625,139.288086 35.8173805,138.94971 36.2861328,138.272949 C36.7548852,137.596188 36.9892578,136.674811 36.9892578,135.508789 L36.9892578,135.324219 Z M44.0732422,140.175781 C42.8076109,140.175781 41.7836953,139.746586 41.0014648,138.888184 C40.2192344,138.029781 39.828125,136.909187 39.828125,135.526367 L39.828125,135.042969 C39.828125,133.65429 40.2163047,132.519047 40.9926758,131.637207 C41.7690469,130.755367 42.7226506,130.314453 43.8535156,130.314453 C45.0429747,130.314453 45.9643522,130.676266 46.6176758,131.399902 C47.2709994,132.123539 47.5976562,133.115228 47.5976562,134.375 L47.5976562,135.271484 L40.8828125,135.271484 L40.8828125,135.526367 C40.8828125,136.616216 41.1728487,137.515621 41.7529297,138.224609 C42.3330107,138.933597 43.1064405,139.288086 44.0732422,139.288086 C44.6533232,139.288086 45.1616189,139.204591 45.5981445,139.037598 C46.0346702,138.870605 46.4492168,138.605471 46.8417969,138.242188 L47.2900391,138.962891 C46.9326154,139.337893 46.4960963,139.633788 45.9804688,139.850586 C45.4648412,140.067384 44.8291053,140.175781 44.0732422,140.175781 L44.0732422,140.175781 Z M43.8535156,131.210938 C43.062496,131.210938 42.4047878,131.505368 41.8803711,132.094238 C41.3559544,132.683108 41.0351568,133.446284 40.9179688,134.383789 L46.5517578,134.383789 L46.5517578,134.120117 C46.5517578,133.276363 46.3144555,132.580569 45.8398438,132.032715 C45.365232,131.484861 44.7031292,131.210938 43.8535156,131.210938 L43.8535156,131.210938 Z M56.2900391,133.021484 C56.2900391,133.490237 56.1508803,133.906248 55.8725586,134.269531 C55.5942369,134.632814 55.1972682,134.911132 54.6816406,135.104492 L54.6816406,135.130859 C55.2792999,135.300782 55.7260727,135.574705 56.0219727,135.952637 C56.3178726,136.330568 56.4658203,136.809567 56.4658203,137.389648 C56.4658203,138.274418 56.1391634,138.957029 55.4858398,139.4375 C54.8325163,139.917971 53.9492243,140.158203 52.8359375,140.158203 C51.8339794,140.158203 50.9697302,139.915041 50.2431641,139.428711 C49.5165979,138.94238 49.1533203,138.224614 49.1533203,137.275391 L50.2080078,137.275391 C50.2080078,137.849612 50.4526343,138.327147 50.9418945,138.708008 C51.4311548,139.088869 52.0624961,139.279297 52.8359375,139.279297 C53.6738323,139.279297 54.311033,139.112306 54.7475586,138.77832 C55.1840842,138.444334 55.4023438,137.987308 55.4023438,137.407227 C55.4023438,136.768551 55.2001973,136.308595 54.7958984,136.027344 C54.3915995,135.746092 53.7500044,135.605469 52.8710938,135.605469 L51.4208984,135.605469 L51.4208984,134.691406 L52.8710938,134.691406 C53.7207074,134.691406 54.3271466,134.549318 54.6904297,134.265137 C55.0537128,133.980956 55.2353516,133.56055 55.2353516,133.003906 C55.2353516,132.4707 55.043459,132.041506 54.659668,131.716309 C54.275877,131.391112 53.6679729,131.228516 52.8359375,131.228516 C52.1386684,131.228516 51.5512719,131.398436 51.0737305,131.738281 C50.596189,132.078127 50.3574219,132.517575 50.3574219,133.056641 L49.3115234,133.056641 C49.3115234,132.236324 49.649899,131.578616 50.3266602,131.083496 C51.0034214,130.588376 51.8398388,130.34082 52.8359375,130.34082 C53.9433649,130.34082 54.7958954,130.567869 55.3935547,131.021973 C55.9912139,131.476076 56.2900391,132.142574 56.2900391,133.021484 L56.2900391,133.021484 Z M62.4599609,140.175781 C61.1943296,140.175781 60.1704141,139.746586 59.3881836,138.888184 C58.6059531,138.029781 58.2148438,136.909187 58.2148438,135.526367 L58.2148438,135.042969 C58.2148438,133.65429 58.6030235,132.519047 59.3793945,131.637207 C60.1557656,130.755367 61.1093693,130.314453 62.2402344,130.314453 C63.4296934,130.314453 64.351071,130.676266 65.0043945,131.399902 C65.6577181,132.123539 65.984375,133.115228 65.984375,134.375 L65.984375,135.271484 L59.2695312,135.271484 L59.2695312,135.526367 C59.2695312,136.616216 59.5595674,137.515621 60.1396484,138.224609 C60.7197295,138.933597 61.4931592,139.288086 62.4599609,139.288086 C63.040042,139.288086 63.5483377,139.204591 63.9848633,139.037598 C64.4213889,138.870605 64.8359355,138.605471 65.2285156,138.242188 L65.6767578,138.962891 C65.3193342,139.337893 64.8828151,139.633788 64.3671875,139.850586 C63.8515599,140.067384 63.2158241,140.175781 62.4599609,140.175781 L62.4599609,140.175781 Z M62.2402344,131.210938 C61.4492148,131.210938 60.7915065,131.505368 60.2670898,132.094238 C59.7426732,132.683108 59.4218756,133.446284 59.3046875,134.383789 L64.9384766,134.383789 L64.9384766,134.120117 C64.9384766,133.276363 64.7011742,132.580569 64.2265625,132.032715 C63.7519508,131.484861 63.089848,131.210938 62.2402344,131.210938 L62.2402344,131.210938 Z M75.7226562,135.508789 C75.7226562,136.956062 75.4062532,138.095699 74.7734375,138.927734 C74.1406218,139.75977 73.2470761,140.175781 72.0927734,140.175781 C71.4130825,140.175781 70.8286157,140.0542 70.3393555,139.811035 C69.8500952,139.56787 69.4501969,139.214846 69.1396484,138.751953 L69.1132812,138.760742 L69.1132812,143.65625 L68.0585938,143.65625 L68.0585938,130.490234 L68.9462891,130.490234 L69.078125,131.922852 L69.0957031,131.931641 C69.412111,131.410154 69.814939,131.010255 70.3041992,130.731934 C70.7934595,130.453612 71.3837856,130.314453 72.0751953,130.314453 C73.2412168,130.314453 74.1406218,130.761226 74.7734375,131.654785 C75.4062532,132.548344 75.7226562,133.771477 75.7226562,135.324219 L75.7226562,135.508789 Z M74.6679688,135.324219 C74.6679688,134.093744 74.4321313,133.103519 73.9604492,132.353516 C73.4887672,131.603512 72.7812547,131.228516 71.8378906,131.228516 C71.1171839,131.228516 70.5400412,131.394041 70.1064453,131.725098 C69.6728494,132.056154 69.341798,132.497068 69.1132812,133.047852 L69.1132812,137.609375 C69.3593762,138.142581 69.7050759,138.555663 70.1503906,138.848633 C70.5957054,139.141603 71.164059,139.288086 71.8554688,139.288086 C72.7929734,139.288086 73.4960914,138.94971 73.9648438,138.272949 C74.4335961,137.596188 74.6679688,136.674811 74.6679688,135.508789 L74.6679688,135.324219 Z M78.1835938,140 L78.1835938,130.490234 L81.6728516,130.490234 C82.8798888,130.490234 83.8056608,130.69824 84.4501953,131.114258 C85.0947298,131.530276 85.4169922,132.168941 85.4169922,133.030273 C85.4169922,133.522463 85.2749038,133.950193 84.9907227,134.313477 C84.7065415,134.67676 84.3037135,134.937499 83.7822266,135.095703 L83.7822266,135.12207 C84.3916046,135.233399 84.8793927,135.495603 85.2456055,135.908691 C85.6118182,136.321779 85.7949219,136.806638 85.7949219,137.363281 C85.7949219,138.242192 85.4858429,138.901365 84.8676758,139.34082 C84.2495086,139.780276 83.3867243,140 82.2792969,140 L78.1835938,140 Z M79.2294922,135.623047 L79.2294922,139.121094 L82.2792969,139.121094 C83.0820353,139.121094 83.6943338,138.971681 84.1162109,138.672852 C84.538088,138.374022 84.7490234,137.931644 84.7490234,137.345703 C84.7490234,136.806638 84.5351584,136.384767 84.1074219,136.080078 C83.6796854,135.775389 83.0703165,135.623047 82.2792969,135.623047 L79.2294922,135.623047 Z M79.2294922,134.744141 L81.8925781,134.744141 C82.7187541,134.732422 83.3383768,134.587404 83.7514648,134.309082 C84.1645528,134.03076 84.3710938,133.613284 84.3710938,133.056641 C84.3710938,132.482419 84.1484397,132.060548 83.703125,131.791016 C83.2578103,131.521483 82.5810592,131.386719 81.6728516,131.386719 L79.2294922,131.386719 L79.2294922,134.744141 Z M90.7519531,137.424805 L91.1035156,138.59375 L91.1298828,138.59375 L94.0126953,130.490234 L95.1904297,130.490234 L91.0595703,141.520508 C90.8076159,142.18262 90.489748,142.734861 90.105957,143.177246 C89.722166,143.619631 89.1464882,143.84082 88.3789062,143.84082 C88.2558588,143.84082 88.107911,143.827637 87.9350586,143.80127 C87.7622062,143.774902 87.6318364,143.74707 87.5439453,143.717773 L87.6669922,142.838867 C87.737305,142.850586 87.8500969,142.863769 88.0053711,142.878418 C88.1606453,142.893066 88.2734371,142.900391 88.34375,142.900391 C88.8183617,142.900391 89.1743152,142.767091 89.4116211,142.500488 C89.648927,142.233885 89.8935534,141.787113 90.1455078,141.160156 L90.6464844,139.876953 L86.9726562,130.490234 L88.1416016,130.490234 L90.7519531,137.424805 Z M102.749023,140 C102.678711,139.671873 102.628906,139.396485 102.599609,139.173828 C102.570312,138.951171 102.555664,138.725587 102.555664,138.49707 L102.529297,138.488281 C102.183592,138.980471 101.723636,139.384764 101.149414,139.701172 C100.575192,140.01758 99.9160193,140.175781 99.171875,140.175781 C98.2285109,140.175781 97.5048853,139.935549 97.0009766,139.455078 C96.4970678,138.974607 96.2451172,138.312504 96.2451172,137.46875 C96.2451172,136.572261 96.6186486,135.864749 97.3657227,135.346191 C98.1127967,134.827634 99.1425716,134.568359 100.455078,134.568359 L102.555664,134.568359 L102.555664,133.390625 C102.555664,132.699215 102.340334,132.163088 101.909668,131.782227 C101.479002,131.401365 100.865238,131.210938 100.068359,131.210938 C99.3183556,131.210938 98.7060571,131.394041 98.2314453,131.760254 C97.7568336,132.126467 97.5195312,132.579099 97.5195312,133.118164 L96.4736328,133.109375 C96.4736328,132.359371 96.8120083,131.706057 97.4887695,131.149414 C98.1655307,130.592771 99.0400337,130.314453 100.112305,130.314453 C101.184576,130.314453 102.034177,130.576658 102.661133,131.101074 C103.288089,131.625491 103.601562,132.394526 103.601562,133.408203 L103.601562,138.083984 C103.601562,138.42383 103.61914,138.749022 103.654297,139.05957 C103.689453,139.370119 103.753906,139.683592 103.847656,140 L102.749023,140 Z M99.2949219,139.25293 C100.068363,139.25293 100.74072,139.078615 101.312012,138.72998 C101.883304,138.381346 102.29785,137.925784 102.555664,137.363281 L102.555664,135.376953 L100.4375,135.376953 C99.4648389,135.376953 98.6972684,135.577635 98.1347656,135.979004 C97.5722628,136.380373 97.2910156,136.888669 97.2910156,137.503906 C97.2910156,138.025393 97.4653303,138.447264 97.8139648,138.769531 C98.1625994,139.091798 98.6562468,139.25293 99.2949219,139.25293 L99.2949219,139.25293 Z M114.060547,135.508789 C114.060547,136.956062 113.744144,138.095699 113.111328,138.927734 C112.478512,139.75977 111.584967,140.175781 110.430664,140.175781 C109.750973,140.175781 109.166506,140.0542 108.677246,139.811035 C108.187986,139.56787 107.788087,139.214846 107.477539,138.751953 L107.451172,138.760742 L107.451172,143.65625 L106.396484,143.65625 L106.396484,130.490234 L107.28418,130.490234 L107.416016,131.922852 L107.433594,131.931641 C107.750002,131.410154 108.15283,131.010255 108.64209,130.731934 C109.13135,130.453612 109.721676,130.314453 110.413086,130.314453 C111.579107,130.314453 112.478512,130.761226 113.111328,131.654785 C113.744144,132.548344 114.060547,133.771477 114.060547,135.324219 L114.060547,135.508789 Z M113.005859,135.324219 C113.005859,134.093744 112.770022,133.103519 112.29834,132.353516 C111.826658,131.603512 111.119145,131.228516 110.175781,131.228516 C109.455075,131.228516 108.877932,131.394041 108.444336,131.725098 C108.01074,132.056154 107.679689,132.497068 107.451172,133.047852 L107.451172,137.609375 C107.697267,138.142581 108.042967,138.555663 108.488281,138.848633 C108.933596,139.141603 109.50195,139.288086 110.193359,139.288086 C111.130864,139.288086 111.833982,138.94971 112.302734,138.272949 C112.771487,137.596188 113.005859,136.674811 113.005859,135.508789 L113.005859,135.324219 Z M123.710938,140 L122.65625,140 L122.65625,135.640625 L117.532227,135.640625 L117.532227,140 L116.477539,140 L116.477539,130.490234 L117.532227,130.490234 L117.532227,134.75293 L122.65625,134.75293 L122.65625,130.490234 L123.710938,130.490234 L123.710938,140 Z M127.683594,133.944336 L130.408203,133.944336 C131.527349,133.944336 132.387204,134.219724 132.987793,134.770508 C133.588382,135.321292 133.888672,136.050777 133.888672,136.958984 C133.888672,137.873051 133.586917,138.608396 132.983398,139.165039 C132.37988,139.721682 131.52149,140 130.408203,140 L126.637695,140 L126.637695,130.490234 L127.683594,130.490234 L127.683594,133.944336 Z M127.683594,134.84082 L127.683594,139.112305 L130.408203,139.112305 C131.240239,139.112305 131.852537,138.911623 132.245117,138.510254 C132.637697,138.108885 132.833984,137.597659 132.833984,136.976562 C132.833984,136.378903 132.636232,135.873537 132.240723,135.460449 C131.845213,135.047361 131.234379,134.84082 130.408203,134.84082 L127.683594,134.84082 Z M137.114258,140 L136.05957,140 L136.05957,130.490234 L137.114258,130.490234 L137.114258,140 Z M146.290039,130.490234 L147.344727,130.490234 L147.344727,140 L146.290039,140 L146.290039,132.186523 L146.263672,132.177734 L141.157227,140 L140.111328,140 L140.111328,130.490234 L141.157227,130.490234 L141.157227,138.303711 L141.183594,138.3125 L146.290039,130.490234 Z M146.237305,126.719727 C146.237305,127.411136 146.011721,127.961912 145.560547,128.37207 C145.109373,128.782229 144.488285,128.987305 143.697266,128.987305 C142.900387,128.987305 142.277834,128.782229 141.82959,128.37207 C141.381345,127.961912 141.157227,127.411136 141.157227,126.719727 L142.053711,126.719727 C142.053711,127.17676 142.182616,127.541503 142.44043,127.813965 C142.698243,128.086427 143.117185,128.222656 143.697266,128.222656 C144.259768,128.222656 144.674315,128.084962 144.940918,127.80957 C145.207521,127.534178 145.34082,127.170901 145.34082,126.719727 L146.237305,126.719727 Z M161.837891,140 L160.783203,140 L160.783203,131.395508 L155.65918,131.395508 L155.65918,140 L154.604492,140 L154.604492,130.490234 L161.837891,130.490234 L161.837891,140 Z M170.688477,140 C170.618164,139.671873 170.56836,139.396485 170.539062,139.173828 C170.509765,138.951171 170.495117,138.725587 170.495117,138.49707 L170.46875,138.488281 C170.123045,138.980471 169.663089,139.384764 169.088867,139.701172 C168.514646,140.01758 167.855472,140.175781 167.111328,140.175781 C166.167964,140.175781 165.444338,139.935549 164.94043,139.455078 C164.436521,138.974607 164.18457,138.312504 164.18457,137.46875 C164.18457,136.572261 164.558102,135.864749 165.305176,135.346191 C166.05225,134.827634 167.082025,134.568359 168.394531,134.568359 L170.495117,134.568359 L170.495117,133.390625 C170.495117,132.699215 170.279787,132.163088 169.849121,131.782227 C169.418455,131.401365 168.804691,131.210938 168.007812,131.210938 C167.257809,131.210938 166.64551,131.394041 166.170898,131.760254 C165.696287,132.126467 165.458984,132.579099 165.458984,133.118164 L164.413086,133.109375 C164.413086,132.359371 164.751461,131.706057 165.428223,131.149414 C166.104984,130.592771 166.979487,130.314453 168.051758,130.314453 C169.124029,130.314453 169.97363,130.576658 170.600586,131.101074 C171.227542,131.625491 171.541016,132.394526 171.541016,133.408203 L171.541016,138.083984 C171.541016,138.42383 171.558594,138.749022 171.59375,139.05957 C171.628906,139.370119 171.693359,139.683592 171.787109,140 L170.688477,140 Z M167.234375,139.25293 C168.007816,139.25293 168.680173,139.078615 169.251465,138.72998 C169.822757,138.381346 170.237303,137.925784 170.495117,137.363281 L170.495117,135.376953 L168.376953,135.376953 C167.404292,135.376953 166.636722,135.577635 166.074219,135.979004 C165.511716,136.380373 165.230469,136.888669 165.230469,137.503906 C165.230469,138.025393 165.404783,138.447264 165.753418,138.769531 C166.102053,139.091798 166.5957,139.25293 167.234375,139.25293 L167.234375,139.25293 Z M182,135.508789 C182,136.956062 181.683597,138.095699 181.050781,138.927734 C180.417966,139.75977 179.52442,140.175781 178.370117,140.175781 C177.690426,140.175781 177.105959,140.0542 176.616699,139.811035 C176.127439,139.56787 175.727541,139.214846 175.416992,138.751953 L175.390625,138.760742 L175.390625,143.65625 L174.335938,143.65625 L174.335938,130.490234 L175.223633,130.490234 L175.355469,131.922852 L175.373047,131.931641 C175.689455,131.410154 176.092283,131.010255 176.581543,130.731934 C177.070803,130.453612 177.661129,130.314453 178.352539,130.314453 C179.518561,130.314453 180.417966,130.761226 181.050781,131.654785 C181.683597,132.548344 182,133.771477 182,135.324219 L182,135.508789 Z M180.945312,135.324219 C180.945312,134.093744 180.709475,133.103519 180.237793,132.353516 C179.766111,131.603512 179.058598,131.228516 178.115234,131.228516 C177.394528,131.228516 176.817385,131.394041 176.383789,131.725098 C175.950193,132.056154 175.619142,132.497068 175.390625,133.047852 L175.390625,137.609375 C175.63672,138.142581 175.98242,138.555663 176.427734,138.848633 C176.873049,139.141603 177.441403,139.288086 178.132812,139.288086 C179.070317,139.288086 179.773435,138.94971 180.242188,138.272949 C180.71094,137.596188 180.945312,136.674811 180.945312,135.508789 L180.945312,135.324219 Z M186.930664,135.640625 L185.47168,135.640625 L185.47168,140 L184.408203,140 L184.408203,130.490234 L185.47168,130.490234 L185.47168,134.708984 L186.913086,134.708984 L190.402344,130.490234 L191.729492,130.490234 L187.827148,135.104492 L192.160156,140 L190.771484,140 L186.930664,135.640625 Z M37.6748047,161 L36.6201172,161 L36.6201172,152.395508 L31.4960938,152.395508 L31.4960938,161 L30.4414062,161 L30.4414062,151.490234 L37.6748047,151.490234 L37.6748047,161 Z M48.1601562,156.508789 C48.1601562,157.956062 47.8437532,159.095699 47.2109375,159.927734 C46.5781218,160.75977 45.6845761,161.175781 44.5302734,161.175781 C43.8505825,161.175781 43.2661157,161.0542 42.7768555,160.811035 C42.2875952,160.56787 41.8876969,160.214846 41.5771484,159.751953 L41.5507812,159.760742 L41.5507812,164.65625 L40.4960938,164.65625 L40.4960938,151.490234 L41.3837891,151.490234 L41.515625,152.922852 L41.5332031,152.931641 C41.849611,152.410154 42.252439,152.010255 42.7416992,151.731934 C43.2309595,151.453612 43.8212856,151.314453 44.5126953,151.314453 C45.6787168,151.314453 46.5781218,151.761226 47.2109375,152.654785 C47.8437532,153.548344 48.1601562,154.771477 48.1601562,156.324219 L48.1601562,156.508789 Z M47.1054688,156.324219 C47.1054688,155.093744 46.8696313,154.103519 46.3979492,153.353516 C45.9262672,152.603512 45.2187547,152.228516 44.2753906,152.228516 C43.5546839,152.228516 42.9775412,152.394041 42.5439453,152.725098 C42.1103494,153.056154 41.779298,153.497068 41.5507812,154.047852 L41.5507812,158.609375 C41.7968762,159.142581 42.1425759,159.555663 42.5878906,159.848633 C43.0332054,160.141603 43.601559,160.288086 44.2929688,160.288086 C45.2304734,160.288086 45.9335914,159.94971 46.4023438,159.272949 C46.8710961,158.596188 47.1054688,157.674811 47.1054688,156.508789 L47.1054688,156.324219 Z M56.7558594,151.490234 L57.8105469,151.490234 L57.8105469,161 L56.7558594,161 L56.7558594,153.186523 L56.7294922,153.177734 L51.6230469,161 L50.5771484,161 L50.5771484,151.490234 L51.6230469,151.490234 L51.6230469,159.303711 L51.6494141,159.3125 L56.7558594,151.490234 Z M64.3056641,161.175781 C63.0400327,161.175781 62.0161172,160.746586 61.2338867,159.888184 C60.4516562,159.029781 60.0605469,157.909187 60.0605469,156.526367 L60.0605469,156.042969 C60.0605469,154.65429 60.4487266,153.519047 61.2250977,152.637207 C62.0014687,151.755367 62.9550725,151.314453 64.0859375,151.314453 C65.2753966,151.314453 66.1967741,151.676266 66.8500977,152.399902 C67.5034212,153.123539 67.8300781,154.115228 67.8300781,155.375 L67.8300781,156.271484 L61.1152344,156.271484 L61.1152344,156.526367 C61.1152344,157.616216 61.4052705,158.515621 61.9853516,159.224609 C62.5654326,159.933597 63.3388624,160.288086 64.3056641,160.288086 C64.8857451,160.288086 65.3940408,160.204591 65.8305664,160.037598 C66.267092,159.870605 66.6816387,159.605471 67.0742188,159.242188 L67.5224609,159.962891 C67.1650373,160.337893 66.7285182,160.633788 66.2128906,160.850586 C65.697263,161.067384 65.0615272,161.175781 64.3056641,161.175781 L64.3056641,161.175781 Z M64.0859375,152.210938 C63.2949179,152.210938 62.6372097,152.505368 62.112793,153.094238 C61.5883763,153.683108 61.2675787,154.446284 61.1503906,155.383789 L66.7841797,155.383789 L66.7841797,155.120117 C66.7841797,154.276363 66.5468774,153.580569 66.0722656,153.032715 C65.5976539,152.484861 64.9355511,152.210938 64.0859375,152.210938 L64.0859375,152.210938 Z M75.1601562,159.576172 L78.9394531,151.490234 L80.2402344,151.490234 L80.2402344,161 L79.1855469,161 L79.1855469,153.256836 L79.1591797,153.248047 L75.5292969,161 L74.7822266,161 L71.0820312,153.072266 L71.0556641,153.081055 L71.0556641,161 L70.0097656,161 L70.0097656,151.490234 L71.3896484,151.490234 L75.1601562,159.576172 Z M82.4814453,156.104492 C82.4814453,154.674798 82.8593712,153.519047 83.6152344,152.637207 C84.3710975,151.755367 85.3935482,151.314453 86.6826172,151.314453 C87.9775455,151.314453 89.0029259,151.755367 89.7587891,152.637207 C90.5146522,153.519047 90.8925781,154.674798 90.8925781,156.104492 L90.8925781,156.394531 C90.8925781,157.830085 90.516117,158.985835 89.7631836,159.861816 C89.0102501,160.737797 87.9892643,161.175781 86.7001953,161.175781 C85.3994076,161.175781 84.3710975,160.737797 83.6152344,159.861816 C82.8593712,158.985835 82.4814453,157.830085 82.4814453,156.394531 L82.4814453,156.104492 Z M83.5361328,156.394531 C83.5361328,157.519537 83.8100559,158.449703 84.3579102,159.185059 C84.9057645,159.920414 85.6865184,160.288086 86.7001953,160.288086 C87.7021534,160.288086 88.477048,159.920414 89.0249023,159.185059 C89.5727566,158.449703 89.8466797,157.519537 89.8466797,156.394531 L89.8466797,156.104492 C89.8466797,155.002924 89.569827,154.078617 89.0161133,153.331543 C88.4623996,152.584469 87.6845753,152.210938 86.6826172,152.210938 C85.6747996,152.210938 84.8984402,152.584469 84.3535156,153.331543 C83.808591,154.078617 83.5361328,155.002924 83.5361328,156.104492 L83.5361328,156.394531 Z M96.3417969,155.796875 L92.1318359,155.796875 L92.1318359,154.90918 L96.3417969,154.90918 L96.3417969,155.796875 Z M101.764648,160.288086 C102.479496,160.288086 103.090329,160.094728 103.597168,159.708008 C104.104006,159.321287 104.375,158.773441 104.410156,158.064453 L105.420898,158.064453 C105.391601,158.97852 105.025394,159.725583 104.322266,160.305664 C103.619137,160.885745 102.766607,161.175781 101.764648,161.175781 C100.446282,161.175781 99.4399449,160.740727 98.7456055,159.870605 C98.0512661,159.000484 97.7041016,157.853523 97.7041016,156.429688 L97.7041016,156.060547 C97.7041016,154.64843 98.0512661,153.504399 98.7456055,152.628418 C99.4399449,151.752437 100.443353,151.314453 101.755859,151.314453 C102.810552,151.314453 103.677731,151.619138 104.357422,152.228516 C105.037113,152.837894 105.391601,153.661128 105.420898,154.698242 L104.410156,154.698242 C104.380859,153.93652 104.11719,153.331545 103.619141,152.883301 C103.121091,152.435056 102.500004,152.210938 101.755859,152.210938 C100.712885,152.210938 99.9526391,152.571285 99.4750977,153.291992 C98.9975562,154.012699 98.7587891,154.935541 98.7587891,156.060547 L98.7587891,156.429688 C98.7587891,157.578131 98.9975562,158.508297 99.4750977,159.220215 C99.9526391,159.932132 100.715815,160.288086 101.764648,160.288086 L101.764648,160.288086 Z M107.328125,160.112305 C107.843753,159.46777 108.248045,158.808597 108.541016,158.134766 C108.833986,157.460934 109.012695,156.391609 109.077148,154.926758 L109.235352,151.490234 L114.851562,151.490234 L114.851562,160.112305 L115.835938,160.112305 L115.835938,163.794922 L114.790039,163.794922 L114.790039,161 L107.644531,161 L107.644531,163.794922 L106.633789,163.794922 L106.642578,160.112305 L107.328125,160.112305 Z M110.123047,154.926758 C110.070312,156.192389 109.906251,157.235347 109.630859,158.055664 C109.355467,158.875981 108.99219,159.561521 108.541016,160.112305 L113.796875,160.112305 L113.796875,152.474609 L110.237305,152.474609 L110.123047,154.926758 Z M123.904297,161 C123.833984,160.671873 123.78418,160.396485 123.754883,160.173828 C123.725586,159.951171 123.710938,159.725587 123.710938,159.49707 L123.68457,159.488281 C123.338865,159.980471 122.878909,160.384764 122.304688,160.701172 C121.730466,161.01758 121.071293,161.175781 120.327148,161.175781 C119.383784,161.175781 118.660159,160.935549 118.15625,160.455078 C117.652341,159.974607 117.400391,159.312504 117.400391,158.46875 C117.400391,157.572261 117.773922,156.864749 118.520996,156.346191 C119.26807,155.827634 120.297845,155.568359 121.610352,155.568359 L123.710938,155.568359 L123.710938,154.390625 C123.710938,153.699215 123.495608,153.163088 123.064941,152.782227 C122.634275,152.401365 122.020512,152.210938 121.223633,152.210938 C120.473629,152.210938 119.86133,152.394041 119.386719,152.760254 C118.912107,153.126467 118.674805,153.579099 118.674805,154.118164 L117.628906,154.109375 C117.628906,153.359371 117.967282,152.706057 118.644043,152.149414 C119.320804,151.592771 120.195307,151.314453 121.267578,151.314453 C122.339849,151.314453 123.18945,151.576658 123.816406,152.101074 C124.443363,152.625491 124.756836,153.394526 124.756836,154.408203 L124.756836,159.083984 C124.756836,159.42383 124.774414,159.749022 124.80957,160.05957 C124.844727,160.370119 124.909179,160.683592 125.00293,161 L123.904297,161 Z M120.450195,160.25293 C121.223637,160.25293 121.895993,160.078615 122.467285,159.72998 C123.038577,159.381346 123.453124,158.925784 123.710938,158.363281 L123.710938,156.376953 L121.592773,156.376953 C120.620112,156.376953 119.852542,156.577635 119.290039,156.979004 C118.727536,157.380373 118.446289,157.888669 118.446289,158.503906 C118.446289,159.025393 118.620604,159.447264 118.969238,159.769531 C119.317873,160.091798 119.81152,160.25293 120.450195,160.25293 L120.450195,160.25293 Z M134.231445,152.386719 L130.768555,152.386719 L130.768555,161 L129.713867,161 L129.713867,152.386719 L126.382812,152.386719 L126.382812,151.490234 L134.231445,151.490234 L134.231445,152.386719 Z M135.013672,156.104492 C135.013672,154.674798 135.391598,153.519047 136.147461,152.637207 C136.903324,151.755367 137.925775,151.314453 139.214844,151.314453 C140.509772,151.314453 141.535152,151.755367 142.291016,152.637207 C143.046879,153.519047 143.424805,154.674798 143.424805,156.104492 L143.424805,156.394531 C143.424805,157.830085 143.048344,158.985835 142.29541,159.861816 C141.542477,160.737797 140.521491,161.175781 139.232422,161.175781 C137.931634,161.175781 136.903324,160.737797 136.147461,159.861816 C135.391598,158.985835 135.013672,157.830085 135.013672,156.394531 L135.013672,156.104492 Z M136.068359,156.394531 C136.068359,157.519537 136.342282,158.449703 136.890137,159.185059 C137.437991,159.920414 138.218745,160.288086 139.232422,160.288086 C140.23438,160.288086 141.009275,159.920414 141.557129,159.185059 C142.104983,158.449703 142.378906,157.519537 142.378906,156.394531 L142.378906,156.104492 C142.378906,155.002924 142.102054,154.078617 141.54834,153.331543 C140.994626,152.584469 140.216802,152.210938 139.214844,152.210938 C138.207026,152.210938 137.430667,152.584469 136.885742,153.331543 C136.340818,154.078617 136.068359,155.002924 136.068359,156.104492 L136.068359,156.394531 Z M152.37207,161 L151.317383,161 L151.317383,157.000977 C150.907225,157.147462 150.492678,157.263183 150.07373,157.348145 C149.654783,157.433106 149.240236,157.475586 148.830078,157.475586 C147.582025,157.475586 146.665042,157.207522 146.079102,156.671387 C145.493161,156.135251 145.200195,155.210944 145.200195,153.898438 L145.200195,151.490234 L146.246094,151.490234 L146.246094,153.898438 C146.246094,154.912114 146.443846,155.610838 146.839355,155.994629 C147.234865,156.37842 147.898433,156.570312 148.830078,156.570312 C149.257815,156.564453 149.685545,156.520508 150.113281,156.438477 C150.541018,156.356445 150.942381,156.248048 151.317383,156.113281 L151.317383,151.490234 L152.37207,151.490234 L152.37207,161 Z M162.488281,161 L161.433594,161 L161.433594,156.640625 L156.30957,156.640625 L156.30957,161 L155.254883,161 L155.254883,151.490234 L156.30957,151.490234 L156.30957,155.75293 L161.433594,155.75293 L161.433594,151.490234 L162.488281,151.490234 L162.488281,161 Z M164.729492,156.104492 C164.729492,154.674798 165.107418,153.519047 165.863281,152.637207 C166.619144,151.755367 167.641595,151.314453 168.930664,151.314453 C170.225592,151.314453 171.250973,151.755367 172.006836,152.637207 C172.762699,153.519047 173.140625,154.674798 173.140625,156.104492 L173.140625,156.394531 C173.140625,157.830085 172.764164,158.985835 172.01123,159.861816 C171.258297,160.737797 170.237311,161.175781 168.948242,161.175781 C167.647454,161.175781 166.619144,160.737797 165.863281,159.861816 C165.107418,158.985835 164.729492,157.830085 164.729492,156.394531 L164.729492,156.104492 Z M165.78418,156.394531 C165.78418,157.519537 166.058103,158.449703 166.605957,159.185059 C167.153811,159.920414 167.934565,160.288086 168.948242,160.288086 C169.9502,160.288086 170.725095,159.920414 171.272949,159.185059 C171.820804,158.449703 172.094727,157.519537 172.094727,156.394531 L172.094727,156.104492 C172.094727,155.002924 171.817874,154.078617 171.26416,153.331543 C170.710446,152.584469 169.932622,152.210938 168.930664,152.210938 C167.922847,152.210938 167.146487,152.584469 166.601562,153.331543 C166.056638,154.078617 165.78418,155.002924 165.78418,156.104492 L165.78418,156.394531 Z M181.244141,152.395508 L176.436523,152.395508 L176.436523,161 L175.381836,161 L175.381836,151.490234 L181.244141,151.490234 L181.244141,152.395508 Z M182.158203,156.104492 C182.158203,154.674798 182.536129,153.519047 183.291992,152.637207 C184.047855,151.755367 185.070306,151.314453 186.359375,151.314453 C187.654303,151.314453 188.679684,151.755367 189.435547,152.637207 C190.19141,153.519047 190.569336,154.674798 190.569336,156.104492 L190.569336,156.394531 C190.569336,157.830085 190.192875,158.985835 189.439941,159.861816 C188.687008,160.737797 187.666022,161.175781 186.376953,161.175781 C185.076165,161.175781 184.047855,160.737797 183.291992,159.861816 C182.536129,158.985835 182.158203,157.830085 182.158203,156.394531 L182.158203,156.104492 Z M183.212891,156.394531 C183.212891,157.519537 183.486814,158.449703 184.034668,159.185059 C184.582522,159.920414 185.363276,160.288086 186.376953,160.288086 C187.378911,160.288086 188.153806,159.920414 188.70166,159.185059 C189.249514,158.449703 189.523438,157.519537 189.523438,156.394531 L189.523438,156.104492 C189.523438,155.002924 189.246585,154.078617 188.692871,153.331543 C188.139157,152.584469 187.361333,152.210938 186.359375,152.210938 C185.351557,152.210938 184.575198,152.584469 184.030273,153.331543 C183.485349,154.078617 183.212891,155.002924 183.212891,156.104492 L183.212891,156.394531 Z M204.429688,161 L203.375,161 L203.375,152.395508 L198.250977,152.395508 L198.250977,161 L197.196289,161 L197.196289,151.490234 L204.429688,151.490234 L204.429688,161 Z M209.958008,158.424805 L210.30957,159.59375 L210.335938,159.59375 L213.21875,151.490234 L214.396484,151.490234 L210.265625,162.520508 C210.013671,163.18262 209.695803,163.734861 209.312012,164.177246 C208.928221,164.619631 208.352543,164.84082 207.584961,164.84082 C207.461913,164.84082 207.313966,164.827637 207.141113,164.80127 C206.968261,164.774902 206.837891,164.74707 206.75,164.717773 L206.873047,163.838867 C206.94336,163.850586 207.056152,163.863769 207.211426,163.878418 C207.3667,163.893066 207.479492,163.900391 207.549805,163.900391 C208.024416,163.900391 208.38037,163.767091 208.617676,163.500488 C208.854982,163.233885 209.099608,162.787113 209.351562,162.160156 L209.852539,160.876953 L206.178711,151.490234 L207.347656,151.490234 L209.958008,158.424805 Z M223.352539,161 L222.297852,161 L222.297852,156.640625 L217.173828,156.640625 L217.173828,161 L216.119141,161 L216.119141,151.490234 L217.173828,151.490234 L217.173828,155.75293 L222.297852,155.75293 L222.297852,151.490234 L223.352539,151.490234 L223.352539,161 Z M228.749023,156.640625 L227.290039,156.640625 L227.290039,161 L226.226562,161 L226.226562,151.490234 L227.290039,151.490234 L227.290039,155.708984 L228.731445,155.708984 L232.220703,151.490234 L233.547852,151.490234 L229.645508,156.104492 L233.978516,161 L232.589844,161 L228.749023,156.640625 Z M242.319336,152.386719 L238.856445,152.386719 L238.856445,161 L237.801758,161 L237.801758,152.386719 L234.470703,152.386719 L234.470703,151.490234 L242.319336,151.490234 L242.319336,152.386719 Z M249.939453,161 C249.86914,160.671873 249.819336,160.396485 249.790039,160.173828 C249.760742,159.951171 249.746094,159.725587 249.746094,159.49707 L249.719727,159.488281 C249.374022,159.980471 248.914065,160.384764 248.339844,160.701172 C247.765622,161.01758 247.106449,161.175781 246.362305,161.175781 C245.418941,161.175781 244.695315,160.935549 244.191406,160.455078 C243.687497,159.974607 243.435547,159.312504 243.435547,158.46875 C243.435547,157.572261 243.809078,156.864749 244.556152,156.346191 C245.303226,155.827634 246.333001,155.568359 247.645508,155.568359 L249.746094,155.568359 L249.746094,154.390625 C249.746094,153.699215 249.530764,153.163088 249.100098,152.782227 C248.669431,152.401365 248.055668,152.210938 247.258789,152.210938 C246.508785,152.210938 245.896487,152.394041 245.421875,152.760254 C244.947263,153.126467 244.709961,153.579099 244.709961,154.118164 L243.664062,154.109375 C243.664062,153.359371 244.002438,152.706057 244.679199,152.149414 C245.35596,151.592771 246.230463,151.314453 247.302734,151.314453 C248.375005,151.314453 249.224606,151.576658 249.851562,152.101074 C250.478519,152.625491 250.791992,153.394526 250.791992,154.408203 L250.791992,159.083984 C250.791992,159.42383 250.80957,159.749022 250.844727,160.05957 C250.879883,160.370119 250.944335,160.683592 251.038086,161 L249.939453,161 Z M246.485352,160.25293 C247.258793,160.25293 247.931149,160.078615 248.502441,159.72998 C249.073733,159.381346 249.48828,158.925784 249.746094,158.363281 L249.746094,156.376953 L247.62793,156.376953 C246.655269,156.376953 245.887698,156.577635 245.325195,156.979004 C244.762693,157.380373 244.481445,157.888669 244.481445,158.503906 C244.481445,159.025393 244.65576,159.447264 245.004395,159.769531 C245.353029,160.091798 245.846676,160.25293 246.485352,160.25293 L246.485352,160.25293 Z" id="резервуарный-парк" fill="#FFFFFF"></path>
            <path d="M41.9399414,70.109375 C46.035014,70.109375 49.238758,68.7965626 51.5512695,66.1708984 C53.8637811,63.5452343 55.0200195,59.6911061 55.0200195,54.6083984 L55.0200195,49.5498047 L54.9116211,49.5136719 C53.6590107,51.6816515 51.9788517,53.3497663 49.8710938,54.5180664 C47.7633358,55.6863665 45.3605278,56.2705078 42.6625977,56.2705078 C37.7725992,56.2705078 33.8883607,54.6385254 31.0097656,51.3745117 C28.1311705,48.110498 26.6918945,43.7806259 26.6918945,38.3847656 C26.6918945,32.9648167 28.2034354,28.4843927 31.2265625,24.9433594 C34.2496896,21.402326 38.0737073,19.6318359 42.6987305,19.6318359 C47.8777928,19.6318359 51.972804,21.2577962 54.9838867,24.5097656 C57.9949695,27.761735 59.5004883,32.6034835 59.5004883,39.0351562 L59.5004883,54.5361328 C59.5004883,60.7510076 57.9106604,65.508447 54.730957,68.8085938 C51.5512536,72.1087405 47.2876244,73.7587891 41.9399414,73.7587891 C40.0369371,73.7587891 38.1520276,73.5781268 36.2851562,73.2167969 C34.4182849,72.8554669 32.6176845,72.301436 30.8833008,71.5546875 L31.6782227,67.9414062 C33.364429,68.7122434 34.9843672,69.2662744 36.5380859,69.6035156 C38.0918046,69.9407569 39.8924051,70.109375 41.9399414,70.109375 L41.9399414,70.109375 Z M42.6625977,52.6210938 C45.8663897,52.6210938 48.4980366,51.8322019 50.5576172,50.2543945 C52.6171978,48.6765872 54.1046504,46.6832803 55.0200195,44.2744141 L55.0200195,38.7099609 C55.0200195,33.6272532 53.9480901,29.7911913 51.8041992,27.2016602 C49.6603083,24.612129 46.6854031,23.3173828 42.8793945,23.3173828 C39.4106272,23.3173828 36.592296,24.7626809 34.4243164,27.6533203 C32.2563368,30.5439598 31.1723633,34.1210724 31.1723633,38.3847656 C31.1723633,42.5280155 32.190094,45.9365101 34.2255859,48.6103516 C36.2610779,51.2841931 39.073387,52.6210938 42.6625977,52.6210938 L42.6625977,52.6210938 Z M71.315918,49.1884766 L74.2426758,20.390625 L99.7885742,20.390625 L99.7885742,24.4013672 L77.9282227,24.4013672 L75.9770508,43.1542969 C77.3260159,41.9257751 78.777336,40.9923535 80.3310547,40.3540039 C81.8847734,39.7156544 84.0466984,39.3603519 86.8168945,39.2880859 C91.3937403,39.21582 95.0310738,40.6912284 97.7290039,43.7143555 C100.426934,46.7374826 101.775879,50.9107807 101.775879,56.234375 C101.775879,61.6784126 100.469089,65.9601081 97.8554688,69.0795898 C95.2418489,72.1990716 91.2130806,73.7587891 85.769043,73.7587891 C81.3367291,73.7587891 77.6933736,72.5603961 74.8388672,70.1635742 C71.9843607,67.7667523 70.5571289,64.0993085 70.5571289,59.1611328 L74.7124023,59.1611328 C74.7124023,62.7744321 75.7000227,65.5024322 77.675293,67.3452148 C79.6505633,69.1879975 82.3484529,70.109375 85.769043,70.109375 C89.7436722,70.109375 92.6824449,68.9531366 94.5854492,66.640625 C96.4884535,64.3281134 97.4399414,60.8834864 97.4399414,56.3066406 C97.4399414,52.2838341 96.4824315,49.1102004 94.5673828,46.7856445 C92.6523342,44.4610886 89.9243341,43.2988281 86.3833008,43.2988281 C82.9386221,43.2988281 80.3491298,43.8287707 78.6147461,44.8886719 C76.8803624,45.948573 75.6157266,47.5745333 74.8208008,49.7666016 L71.315918,49.1884766 Z M160.202637,52.5849609 C160.202637,59.5465843 158.817559,64.8159001 156.047363,68.3930664 C153.277167,71.9702327 149.278509,73.7587891 144.05127,73.7587891 C138.848119,73.7587891 134.837416,71.9642107 132.019043,68.375 C129.20067,64.7857893 127.791504,59.5224956 127.791504,52.5849609 L127.791504,40.8417969 C127.791504,33.9283508 129.188625,28.6650571 131.98291,25.0517578 C134.777195,21.4384585 138.775853,19.6318359 143.979004,19.6318359 C149.182155,19.6318359 153.186835,21.4384585 155.993164,25.0517578 C158.799493,28.6650571 160.202637,33.9283508 160.202637,40.8417969 L160.202637,52.5849609 Z M155.866699,40.1191406 C155.866699,34.602837 154.879079,30.4235168 152.903809,27.5810547 C150.928538,24.7385926 147.953633,23.3173828 143.979004,23.3173828 C140.004375,23.3173828 137.035492,24.7385926 135.072266,27.5810547 C133.10904,30.4235168 132.127441,34.602837 132.127441,40.1191406 L132.127441,53.2353516 C132.127441,58.7034779 133.121084,62.882798 135.108398,65.7734375 C137.095713,68.664077 140.07664,70.109375 144.05127,70.109375 C148.00181,70.109375 150.958649,68.670099 152.921875,65.7915039 C154.885101,62.9129088 155.866699,58.7275665 155.866699,53.2353516 L155.866699,40.1191406 Z M201.213379,52.5849609 C201.213379,59.5465843 199.828302,64.8159001 197.058105,68.3930664 C194.287909,71.9702327 190.289251,73.7587891 185.062012,73.7587891 C179.858861,73.7587891 175.848159,71.9642107 173.029785,68.375 C170.211412,64.7857893 168.802246,59.5224956 168.802246,52.5849609 L168.802246,40.8417969 C168.802246,33.9283508 170.199368,28.6650571 172.993652,25.0517578 C175.787937,21.4384585 179.786595,19.6318359 184.989746,19.6318359 C190.192897,19.6318359 194.197577,21.4384585 197.003906,25.0517578 C199.810235,28.6650571 201.213379,33.9283508 201.213379,40.8417969 L201.213379,52.5849609 Z M196.877441,40.1191406 C196.877441,34.602837 195.889821,30.4235168 193.914551,27.5810547 C191.93928,24.7385926 188.964375,23.3173828 184.989746,23.3173828 C181.015117,23.3173828 178.046234,24.7385926 176.083008,27.5810547 C174.119782,30.4235168 173.138184,34.602837 173.138184,40.1191406 L173.138184,53.2353516 C173.138184,58.7034779 174.131826,62.882798 176.119141,65.7734375 C178.106455,68.664077 181.087382,70.109375 185.062012,70.109375 C189.012552,70.109375 191.969391,68.670099 193.932617,65.7915039 C195.895843,62.9129088 196.877441,58.7275665 196.877441,53.2353516 L196.877441,40.1191406 Z M242.224121,52.5849609 C242.224121,59.5465843 240.839044,64.8159001 238.068848,68.3930664 C235.298652,71.9702327 231.299994,73.7587891 226.072754,73.7587891 C220.869603,73.7587891 216.858901,71.9642107 214.040527,68.375 C211.222154,64.7857893 209.812988,59.5224956 209.812988,52.5849609 L209.812988,40.8417969 C209.812988,33.9283508 211.21011,28.6650571 214.004395,25.0517578 C216.798679,21.4384585 220.797337,19.6318359 226.000488,19.6318359 C231.203639,19.6318359 235.208319,21.4384585 238.014648,25.0517578 C240.820978,28.6650571 242.224121,33.9283508 242.224121,40.8417969 L242.224121,52.5849609 Z M237.888184,40.1191406 C237.888184,34.602837 236.900563,30.4235168 234.925293,27.5810547 C232.950023,24.7385926 229.975118,23.3173828 226.000488,23.3173828 C222.025859,23.3173828 219.056976,24.7385926 217.09375,27.5810547 C215.130524,30.4235168 214.148926,34.602837 214.148926,40.1191406 L214.148926,53.2353516 C214.148926,58.7034779 215.142568,62.882798 217.129883,65.7734375 C219.117197,68.664077 222.098125,70.109375 226.072754,70.109375 C230.023294,70.109375 232.980133,68.670099 234.943359,65.7915039 C236.906585,62.9129088 237.888184,58.7275665 237.888184,53.2353516 L237.888184,40.1191406 Z" id="95-000" fill="#FFFFFF"></path>
        </g>
    </g>
</svg>