<?xml version="1.0" encoding="UTF-8"?>
<svg width="262px" height="212px" viewBox="0 0 262 212" version="1.1" xmlns="http://www.w3.org/2000/svg" xmlns:xlink="http://www.w3.org/1999/xlink">
    <!-- Generator: Sketch 3.8.3 (29802) - http://www.bohemiancoding.com/sketch -->
    <title>upn</title>
    <desc>Created with Sketch.</desc>
    <defs></defs>
    <g id="new" stroke="none" stroke-width="1" fill="none" fill-rule="evenodd">
        <g id="upn" transform="translate(-1.000000, 0.000000)">
            <polygon id="Rectangle-29" fill="#F6A623" points="2 0 263 0 263 106 12.2474667 106 2 106"></polygon>
            <path d="M1.5,0.5 L1.5,210.509521" id="Line" stroke="#F6A623" stroke-linecap="square"></path>
            <path d="M140.847656,59.1015625 L145.886719,48.3203125 L147.621094,48.3203125 L147.621094,61 L146.214844,61 L146.214844,50.6757812 L146.179688,50.6640625 L141.339844,61 L140.34375,61 L135.410156,50.4296875 L135.375,50.4414062 L135.375,61 L133.980469,61 L133.980469,48.3203125 L135.820312,48.3203125 L140.847656,59.1015625 Z M161.121094,48.3203125 L161.121094,61 L159.714844,61 L159.714844,49.5273438 L154.523438,49.5273438 L154.347656,53.921875 C154.230468,56.5234505 153.910159,58.3535103 153.386719,59.4121094 C152.863279,60.4707084 151.914069,61 150.539062,61 L150.035156,61 L150.058594,59.7460938 L150.492188,59.734375 C151.343754,59.734375 151.939451,59.3281291 152.279297,58.515625 C152.619142,57.7031209 152.839843,56.1718863 152.941406,53.921875 L153.175781,48.3203125 L161.121094,48.3203125 Z M174.621094,61 L173.214844,61 L173.214844,55.1875 L166.382812,55.1875 L166.382812,61 L164.976562,61 L164.976562,48.3203125 L166.382812,48.3203125 L166.382812,54.0039062 L173.214844,54.0039062 L173.214844,48.3203125 L174.621094,48.3203125 L174.621094,61 Z M193.3125,49.515625 L188.695312,49.515625 L188.695312,61 L187.289062,61 L187.289062,49.515625 L182.847656,49.515625 L182.847656,48.3203125 L193.3125,48.3203125 L193.3125,49.515625 Z M194.355469,54.4726562 C194.355469,52.5663967 194.85937,51.0253965 195.867188,49.8496094 C196.875005,48.6738222 198.238273,48.0859375 199.957031,48.0859375 C201.683602,48.0859375 203.050776,48.6738222 204.058594,49.8496094 C205.066411,51.0253965 205.570312,52.5663967 205.570312,54.4726562 L205.570312,54.859375 C205.570312,56.7734471 205.068364,58.3144473 204.064453,59.4824219 C203.060542,60.6503965 201.699227,61.234375 199.980469,61.234375 C198.246085,61.234375 196.875005,60.6503965 195.867188,59.4824219 C194.85937,58.3144473 194.355469,56.7734471 194.355469,54.859375 L194.355469,54.4726562 Z M195.761719,54.859375 C195.761719,56.3593825 196.126949,57.5996045 196.857422,58.5800781 C197.587894,59.5605518 198.628899,60.0507812 199.980469,60.0507812 C201.316413,60.0507812 202.349606,59.5605518 203.080078,58.5800781 C203.810551,57.5996045 204.175781,56.3593825 204.175781,54.859375 L204.175781,54.4726562 C204.175781,53.0038989 203.806644,51.7714894 203.068359,50.7753906 C202.330074,49.7792919 201.292975,49.28125 199.957031,49.28125 C198.613275,49.28125 197.578129,49.7792919 196.851562,50.7753906 C196.124996,51.7714894 195.761719,53.0038989 195.761719,54.4726562 L195.761719,54.859375 Z M218.214844,61 L216.808594,61 L216.808594,55.1875 L209.976562,55.1875 L209.976562,61 L208.570312,61 L208.570312,48.3203125 L209.976562,48.3203125 L209.976562,54.0039062 L216.808594,54.0039062 L216.808594,48.3203125 L218.214844,48.3203125 L218.214844,61 Z M231.703125,61 L230.296875,61 L230.296875,55.1875 L223.464844,55.1875 L223.464844,61 L222.058594,61 L222.058594,48.3203125 L223.464844,48.3203125 L223.464844,54.0039062 L230.296875,54.0039062 L230.296875,48.3203125 L231.703125,48.3203125 L231.703125,61 Z" id="млн-тонн" fill="#FFFFFF"></path>
            <path d="M49.4570312,87 L44.0664062,87 L44.0664062,27.4785156 L28.4785156,29.3203125 L28.4785156,25.5917969 L49.4570312,21.4140625 L49.4570312,87 Z M112.626953,61.6191406 C112.626953,70.2741318 110.904965,76.8251731 107.460938,81.2724609 C104.01691,85.7197488 99.0456054,87.9433594 92.546875,87.9433594 C86.0780927,87.9433594 81.0918144,85.7122619 77.5878906,81.25 C74.0839669,76.7877381 72.3320312,70.2441837 72.3320312,61.6191406 L72.3320312,47.0195312 C72.3320312,38.4244362 74.068993,31.8808818 77.5429688,27.3886719 C81.0169445,22.8964619 85.9882489,20.6503906 92.4570312,20.6503906 C98.9258136,20.6503906 103.904605,22.8964619 107.393555,27.3886719 C110.882504,31.8808818 112.626953,38.4244362 112.626953,47.0195312 L112.626953,61.6191406 Z M107.236328,46.1210938 C107.236328,39.2629865 106.008476,34.067075 103.552734,30.5332031 C101.096993,26.9993313 97.3984622,25.2324219 92.4570312,25.2324219 C87.5156003,25.2324219 83.8245565,26.9993313 81.3837891,30.5332031 C78.9430217,34.067075 77.7226562,39.2629865 77.7226562,46.1210938 L77.7226562,62.4277344 C77.7226562,69.2259454 78.9579955,74.421857 81.4287109,78.015625 C83.8994264,81.609393 87.605444,83.40625 92.546875,83.40625 C97.4583579,83.40625 101.134428,81.6168799 103.575195,78.0380859 C106.015963,74.459292 107.236328,69.2558935 107.236328,62.4277344 L107.236328,46.1210938 Z" id="10" fill="#FFFFFF"></path>
            <path d="M23.8476562,134.101562 L28.8867188,123.320312 L30.6210938,123.320312 L30.6210938,136 L29.2148438,136 L29.2148438,125.675781 L29.1796875,125.664062 L24.3398438,136 L23.34375,136 L18.4101562,125.429688 L18.375,125.441406 L18.375,136 L16.9804688,136 L16.9804688,123.320312 L18.8203125,123.320312 L23.8476562,134.101562 Z M33.609375,129.472656 C33.609375,127.566397 34.1132762,126.025397 35.1210938,124.849609 C36.1289113,123.673822 37.4921789,123.085938 39.2109375,123.085938 C40.9375086,123.085938 42.3046825,123.673822 43.3125,124.849609 C44.3203175,126.025397 44.8242188,127.566397 44.8242188,129.472656 L44.8242188,129.859375 C44.8242188,131.773447 44.3222706,133.314447 43.3183594,134.482422 C42.3144481,135.650396 40.9531336,136.234375 39.234375,136.234375 C37.4999913,136.234375 36.1289113,135.650396 35.1210938,134.482422 C34.1132762,133.314447 33.609375,131.773447 33.609375,129.859375 L33.609375,129.472656 Z M35.015625,129.859375 C35.015625,131.359383 35.3808557,132.599604 36.1113281,133.580078 C36.8418005,134.560552 37.8828057,135.050781 39.234375,135.050781 C40.5703192,135.050781 41.603512,134.560552 42.3339844,133.580078 C43.0644568,132.599604 43.4296875,131.359383 43.4296875,129.859375 L43.4296875,129.472656 C43.4296875,128.003899 43.0605506,126.771489 42.3222656,125.775391 C41.5839807,124.779292 40.5468817,124.28125 39.2109375,124.28125 C37.8671808,124.28125 36.8320349,124.779292 36.1054688,125.775391 C35.3789026,126.771489 35.015625,128.003899 35.015625,129.472656 L35.015625,129.859375 Z M49.171875,123.320312 L49.171875,134.816406 L54.8085938,134.816406 L54.8085938,123.320312 L56.2148438,123.320312 L56.2148438,134.816406 L61.8046875,134.816406 L61.8046875,123.320312 L63.2109375,123.320312 L63.2109375,134.804688 L64.734375,134.804688 L64.6289062,139.761719 L63.3398438,139.761719 L63.3398438,136 L47.765625,136 L47.765625,123.320312 L49.171875,123.320312 Z M76.7226562,136 L75.3164062,136 L75.3164062,130.1875 L68.484375,130.1875 L68.484375,136 L67.078125,136 L67.078125,123.320312 L68.484375,123.320312 L68.484375,129.003906 L75.3164062,129.003906 L75.3164062,123.320312 L76.7226562,123.320312 L76.7226562,136 Z M79.7109375,129.472656 C79.7109375,127.566397 80.2148387,126.025397 81.2226562,124.849609 C82.2304738,123.673822 83.5937414,123.085938 85.3125,123.085938 C87.0390711,123.085938 88.406245,123.673822 89.4140625,124.849609 C90.42188,126.025397 90.9257812,127.566397 90.9257812,129.472656 L90.9257812,129.859375 C90.9257812,131.773447 90.4238331,133.314447 89.4199219,134.482422 C88.4160106,135.650396 87.0546961,136.234375 85.3359375,136.234375 C83.6015538,136.234375 82.2304738,135.650396 81.2226562,134.482422 C80.2148387,133.314447 79.7109375,131.773447 79.7109375,129.859375 L79.7109375,129.472656 Z M81.1171875,129.859375 C81.1171875,131.359383 81.4824182,132.599604 82.2128906,133.580078 C82.943363,134.560552 83.9843682,135.050781 85.3359375,135.050781 C86.6718817,135.050781 87.7050745,134.560552 88.4355469,133.580078 C89.1660193,132.599604 89.53125,131.359383 89.53125,129.859375 L89.53125,129.472656 C89.53125,128.003899 89.1621131,126.771489 88.4238281,125.775391 C87.6855432,124.779292 86.6484442,124.28125 85.3125,124.28125 C83.9687433,124.28125 82.9335974,124.779292 82.2070312,125.775391 C81.4804651,126.771489 81.1171875,128.003899 81.1171875,129.472656 L81.1171875,129.859375 Z M98.5546875,135.050781 C99.5078173,135.050781 100.322262,134.792971 100.998047,134.277344 C101.673832,133.761716 102.035156,133.031255 102.082031,132.085938 L103.429688,132.085938 C103.390625,133.304694 102.902348,134.300777 101.964844,135.074219 C101.027339,135.84766 99.8906317,136.234375 98.5546875,136.234375 C96.7968662,136.234375 95.4550828,135.654303 94.5292969,134.494141 C93.603511,133.333979 93.140625,131.804697 93.140625,129.90625 L93.140625,129.414062 C93.140625,127.531241 93.603511,126.005865 94.5292969,124.837891 C95.4550828,123.669916 96.79296,123.085938 98.5429688,123.085938 C99.9492258,123.085938 101.105464,123.492183 102.011719,124.304688 C102.917973,125.117192 103.390625,126.214837 103.429688,127.597656 L102.082031,127.597656 C102.042969,126.582026 101.69141,125.775394 101.027344,125.177734 C100.363278,124.580075 99.5351612,124.28125 98.5429688,124.28125 C97.1523368,124.28125 96.1386751,124.761714 95.5019531,125.722656 C94.8652312,126.683599 94.546875,127.914055 94.546875,129.414062 L94.546875,129.90625 C94.546875,131.437508 94.8652312,132.67773 95.5019531,133.626953 C96.1386751,134.576177 97.156243,135.050781 98.5546875,135.050781 L98.5546875,135.050781 Z M115.371094,124.515625 L110.753906,124.515625 L110.753906,136 L109.347656,136 L109.347656,124.515625 L104.90625,124.515625 L104.90625,123.320312 L115.371094,123.320312 L115.371094,124.515625 Z M119.214844,127.925781 L122.847656,127.925781 C124.339851,127.925781 125.486324,128.292965 126.287109,129.027344 C127.087895,129.761722 127.488281,130.734369 127.488281,131.945312 C127.488281,133.164069 127.085942,134.144528 126.28125,134.886719 C125.476558,135.62891 124.332039,136 122.847656,136 L117.820312,136 L117.820312,123.320312 L119.214844,123.320312 L119.214844,127.925781 Z M119.214844,129.121094 L119.214844,134.816406 L122.847656,134.816406 C123.957037,134.816406 124.773435,134.548831 125.296875,134.013672 C125.820315,133.478513 126.082031,132.796879 126.082031,131.96875 C126.082031,131.171871 125.818362,130.49805 125.291016,129.947266 C124.763669,129.396482 123.949224,129.121094 122.847656,129.121094 L119.214844,129.121094 Z M139.96875,132.566406 L140.4375,134.125 L140.472656,134.125 L144.316406,123.320312 L145.886719,123.320312 L140.378906,138.027344 C140.042967,138.910161 139.619143,139.646481 139.107422,140.236328 C138.595701,140.826175 137.82813,141.121094 136.804688,141.121094 C136.640624,141.121094 136.443361,141.103516 136.212891,141.068359 C135.982421,141.033203 135.808594,140.996094 135.691406,140.957031 L135.855469,139.785156 C135.949219,139.800781 136.099608,139.818359 136.306641,139.837891 C136.513673,139.857422 136.664062,139.867188 136.757812,139.867188 C137.390628,139.867188 137.865233,139.689455 138.181641,139.333984 C138.498048,138.978514 138.824217,138.382817 139.160156,137.546875 L139.828125,135.835938 L134.929688,123.320312 L136.488281,123.320312 L139.96875,132.566406 Z M152.660156,135.050781 C153.613286,135.050781 154.427731,134.792971 155.103516,134.277344 C155.7793,133.761716 156.140625,133.031255 156.1875,132.085938 L157.535156,132.085938 C157.496094,133.304694 157.007817,134.300777 156.070312,135.074219 C155.132808,135.84766 153.9961,136.234375 152.660156,136.234375 C150.902335,136.234375 149.560552,135.654303 148.634766,134.494141 C147.70898,133.333979 147.246094,131.804697 147.246094,129.90625 L147.246094,129.414062 C147.246094,127.531241 147.70898,126.005865 148.634766,124.837891 C149.560552,123.669916 150.898429,123.085938 152.648438,123.085938 C154.054695,123.085938 155.210933,123.492183 156.117188,124.304688 C157.023442,125.117192 157.496094,126.214837 157.535156,127.597656 L156.1875,127.597656 C156.148437,126.582026 155.796878,125.775394 155.132812,125.177734 C154.468747,124.580075 153.64063,124.28125 152.648438,124.28125 C151.257806,124.28125 150.244144,124.761714 149.607422,125.722656 C148.9707,126.683599 148.652344,127.914055 148.652344,129.414062 L148.652344,129.90625 C148.652344,131.437508 148.9707,132.67773 149.607422,133.626953 C150.244144,134.576177 151.261712,135.050781 152.660156,135.050781 L152.660156,135.050781 Z M169.476562,124.515625 L164.859375,124.515625 L164.859375,136 L163.453125,136 L163.453125,124.515625 L159.011719,124.515625 L159.011719,123.320312 L169.476562,123.320312 L169.476562,124.515625 Z M179.636719,136 C179.542968,135.562498 179.476563,135.195314 179.4375,134.898438 C179.398437,134.601561 179.378906,134.300783 179.378906,133.996094 L179.34375,133.984375 C178.88281,134.640628 178.269535,135.179685 177.503906,135.601562 C176.738277,136.02344 175.85938,136.234375 174.867188,136.234375 C173.609369,136.234375 172.644535,135.914066 171.972656,135.273438 C171.300778,134.632809 170.964844,133.750006 170.964844,132.625 C170.964844,131.429682 171.462886,130.486332 172.458984,129.794922 C173.455083,129.103512 174.828116,128.757812 176.578125,128.757812 L179.378906,128.757812 L179.378906,127.1875 C179.378906,126.26562 179.0918,125.550784 178.517578,125.042969 C177.943357,124.535154 177.125005,124.28125 176.0625,124.28125 C175.062495,124.28125 174.246097,124.525388 173.613281,125.013672 C172.980466,125.501956 172.664062,126.105465 172.664062,126.824219 L171.269531,126.8125 C171.269531,125.812495 171.720699,124.94141 172.623047,124.199219 C173.525395,123.457028 174.691399,123.085938 176.121094,123.085938 C177.550788,123.085938 178.68359,123.435543 179.519531,124.134766 C180.355473,124.833988 180.773438,125.859368 180.773438,127.210938 L180.773438,133.445312 C180.773438,133.89844 180.796875,134.332029 180.84375,134.746094 C180.890625,135.160158 180.976562,135.578123 181.101562,136 L179.636719,136 Z M175.03125,135.003906 C176.062505,135.003906 176.958981,134.771487 177.720703,134.306641 C178.482426,133.841795 179.035155,133.234379 179.378906,132.484375 L179.378906,129.835938 L176.554688,129.835938 C175.257806,129.835938 174.234379,130.103513 173.484375,130.638672 C172.734371,131.173831 172.359375,131.851558 172.359375,132.671875 C172.359375,133.367191 172.591795,133.929685 173.056641,134.359375 C173.521487,134.789065 174.179683,135.003906 175.03125,135.003906 L175.03125,135.003906 Z M194.226562,136 L192.820312,136 L192.820312,130.1875 L185.988281,130.1875 L185.988281,136 L184.582031,136 L184.582031,123.320312 L185.988281,123.320312 L185.988281,129.003906 L192.820312,129.003906 L192.820312,123.320312 L194.226562,123.320312 L194.226562,136 Z M197.214844,129.472656 C197.214844,127.566397 197.718745,126.025397 198.726562,124.849609 C199.73438,123.673822 201.097648,123.085938 202.816406,123.085938 C204.542977,123.085938 205.910151,123.673822 206.917969,124.849609 C207.925786,126.025397 208.429688,127.566397 208.429688,129.472656 L208.429688,129.859375 C208.429688,131.773447 207.927739,133.314447 206.923828,134.482422 C205.919917,135.650396 204.558602,136.234375 202.839844,136.234375 C201.10546,136.234375 199.73438,135.650396 198.726562,134.482422 C197.718745,133.314447 197.214844,131.773447 197.214844,129.859375 L197.214844,129.472656 Z M198.621094,129.859375 C198.621094,131.359383 198.986324,132.599604 199.716797,133.580078 C200.447269,134.560552 201.488274,135.050781 202.839844,135.050781 C204.175788,135.050781 205.208981,134.560552 205.939453,133.580078 C206.669926,132.599604 207.035156,131.359383 207.035156,129.859375 L207.035156,129.472656 C207.035156,128.003899 206.666019,126.771489 205.927734,125.775391 C205.189449,124.779292 204.15235,124.28125 202.816406,124.28125 C201.47265,124.28125 200.437504,124.779292 199.710938,125.775391 C198.984371,126.771489 198.621094,128.003899 198.621094,129.472656 L198.621094,129.859375 Z M211.488281,136 L211.488281,123.320312 L216.140625,123.320312 C217.750008,123.320312 218.984371,123.597653 219.84375,124.152344 C220.703129,124.707034 221.132812,125.558588 221.132812,126.707031 C221.132812,127.363285 220.943361,127.933591 220.564453,128.417969 C220.185545,128.902346 219.648441,129.249999 218.953125,129.460938 L218.953125,129.496094 C219.765629,129.644532 220.416013,129.994138 220.904297,130.544922 C221.392581,131.095706 221.636719,131.742184 221.636719,132.484375 C221.636719,133.656256 221.224613,134.535153 220.400391,135.121094 C219.576168,135.707034 218.425789,136 216.949219,136 L211.488281,136 Z M212.882812,130.164062 L212.882812,134.828125 L216.949219,134.828125 C218.019537,134.828125 218.835935,134.628908 219.398438,134.230469 C219.96094,133.832029 220.242188,133.242191 220.242188,132.460938 C220.242188,131.742184 219.957034,131.17969 219.386719,130.773438 C218.816403,130.367185 218.003912,130.164062 216.949219,130.164062 L212.882812,130.164062 Z M212.882812,128.992188 L216.433594,128.992188 C217.535162,128.976562 218.361325,128.783205 218.912109,128.412109 C219.462893,128.041014 219.738281,127.484379 219.738281,126.742188 C219.738281,125.976559 219.441409,125.414064 218.847656,125.054688 C218.253903,124.695311 217.351569,124.515625 216.140625,124.515625 L212.882812,124.515625 L212.882812,128.992188 Z M223.992188,129.472656 C223.992188,127.566397 224.496089,126.025397 225.503906,124.849609 C226.511724,123.673822 227.874991,123.085938 229.59375,123.085938 C231.320321,123.085938 232.687495,123.673822 233.695312,124.849609 C234.70313,126.025397 235.207031,127.566397 235.207031,129.472656 L235.207031,129.859375 C235.207031,131.773447 234.705083,133.314447 233.701172,134.482422 C232.697261,135.650396 231.335946,136.234375 229.617188,136.234375 C227.882804,136.234375 226.511724,135.650396 225.503906,134.482422 C224.496089,133.314447 223.992188,131.773447 223.992188,129.859375 L223.992188,129.472656 Z M225.398438,129.859375 C225.398438,131.359383 225.763668,132.599604 226.494141,133.580078 C227.224613,134.560552 228.265618,135.050781 229.617188,135.050781 C230.953132,135.050781 231.986324,134.560552 232.716797,133.580078 C233.447269,132.599604 233.8125,131.359383 233.8125,129.859375 L233.8125,129.472656 C233.8125,128.003899 233.443363,126.771489 232.705078,125.775391 C231.966793,124.779292 230.929694,124.28125 229.59375,124.28125 C228.249993,124.28125 227.214847,124.779292 226.488281,125.775391 C225.761715,126.771489 225.398438,128.003899 225.398438,129.472656 L225.398438,129.859375 Z M241.558594,130.1875 L239.613281,130.1875 L239.613281,136 L238.195312,136 L238.195312,123.320312 L239.613281,123.320312 L239.613281,128.945312 L241.535156,128.945312 L246.1875,123.320312 L247.957031,123.320312 L242.753906,129.472656 L248.53125,136 L246.679688,136 L241.558594,130.1875 Z M26.5664062,164 L25.1601562,164 L25.1601562,152.527344 L18.328125,152.527344 L18.328125,164 L16.921875,164 L16.921875,151.320312 L26.5664062,151.320312 L26.5664062,164 Z M29.5546875,157.472656 C29.5546875,155.566397 30.0585887,154.025397 31.0664062,152.849609 C32.0742238,151.673822 33.4374914,151.085938 35.15625,151.085938 C36.8828211,151.085938 38.249995,151.673822 39.2578125,152.849609 C40.26563,154.025397 40.7695312,155.566397 40.7695312,157.472656 L40.7695312,157.859375 C40.7695312,159.773447 40.2675831,161.314447 39.2636719,162.482422 C38.2597606,163.650396 36.8984461,164.234375 35.1796875,164.234375 C33.4453038,164.234375 32.0742238,163.650396 31.0664062,162.482422 C30.0585887,161.314447 29.5546875,159.773447 29.5546875,157.859375 L29.5546875,157.472656 Z M30.9609375,157.859375 C30.9609375,159.359382 31.3261682,160.599604 32.0566406,161.580078 C32.787113,162.560552 33.8281182,163.050781 35.1796875,163.050781 C36.5156317,163.050781 37.5488245,162.560552 38.2792969,161.580078 C39.0097693,160.599604 39.375,159.359382 39.375,157.859375 L39.375,157.472656 C39.375,156.003899 39.0058631,154.771489 38.2675781,153.775391 C37.5292932,152.779292 36.4921942,152.28125 35.15625,152.28125 C33.8124933,152.28125 32.7773474,152.779292 32.0507812,153.775391 C31.3242151,154.771489 30.9609375,156.003899 30.9609375,157.472656 L30.9609375,157.859375 Z M42.5390625,162.816406 C43.2265659,161.957027 43.765623,161.078129 44.15625,160.179688 C44.546877,159.281246 44.7851558,157.855479 44.8710938,155.902344 L45.0820312,151.320312 L52.5703125,151.320312 L52.5703125,162.816406 L53.8828125,162.816406 L53.8828125,167.726562 L52.4882812,167.726562 L52.4882812,164 L42.9609375,164 L42.9609375,167.726562 L41.6132812,167.726562 L41.625,162.816406 L42.5390625,162.816406 Z M46.265625,155.902344 C46.1953121,157.589852 45.9765643,158.980463 45.609375,160.074219 C45.2421857,161.167974 44.7578155,162.082028 44.15625,162.816406 L51.1640625,162.816406 L51.1640625,152.632812 L46.4179688,152.632812 L46.265625,155.902344 Z M64.4882812,152.527344 L58.078125,152.527344 L58.078125,164 L56.671875,164 L56.671875,151.320312 L64.4882812,151.320312 L64.4882812,152.527344 Z M65.7070312,157.472656 C65.7070312,155.566397 66.2109325,154.025397 67.21875,152.849609 C68.2265675,151.673822 69.5898352,151.085938 71.3085938,151.085938 C73.0351649,151.085938 74.4023387,151.673822 75.4101562,152.849609 C76.4179738,154.025397 76.921875,155.566397 76.921875,157.472656 L76.921875,157.859375 C76.921875,159.773447 76.4199269,161.314447 75.4160156,162.482422 C74.4121044,163.650396 73.0507898,164.234375 71.3320312,164.234375 C69.5976476,164.234375 68.2265675,163.650396 67.21875,162.482422 C66.2109325,161.314447 65.7070312,159.773447 65.7070312,157.859375 L65.7070312,157.472656 Z M67.1132812,157.859375 C67.1132812,159.359382 67.478512,160.599604 68.2089844,161.580078 C68.9394568,162.560552 69.980462,163.050781 71.3320312,163.050781 C72.6679754,163.050781 73.7011682,162.560552 74.4316406,161.580078 C75.162113,160.599604 75.5273438,159.359382 75.5273438,157.859375 L75.5273438,157.472656 C75.5273438,156.003899 75.1582068,154.771489 74.4199219,153.775391 C73.6816369,152.779292 72.6445379,152.28125 71.3085938,152.28125 C69.964837,152.28125 68.9296911,152.779292 68.203125,153.775391 C67.4765589,154.771489 67.1132812,156.003899 67.1132812,157.472656 L67.1132812,157.859375 Z M88.6757812,152.515625 L84.0585938,152.515625 L84.0585938,164 L82.6523438,164 L82.6523438,152.515625 L78.2109375,152.515625 L78.2109375,151.320312 L88.6757812,151.320312 L88.6757812,152.515625 Z M89.71875,157.472656 C89.71875,155.566397 90.2226512,154.025397 91.2304688,152.849609 C92.2382863,151.673822 93.6015539,151.085938 95.3203125,151.085938 C97.0468836,151.085938 98.4140575,151.673822 99.421875,152.849609 C100.429693,154.025397 100.933594,155.566397 100.933594,157.472656 L100.933594,157.859375 C100.933594,159.773447 100.431646,161.314447 99.4277344,162.482422 C98.4238231,163.650396 97.0625086,164.234375 95.34375,164.234375 C93.6093663,164.234375 92.2382863,163.650396 91.2304688,162.482422 C90.2226512,161.314447 89.71875,159.773447 89.71875,157.859375 L89.71875,157.472656 Z M91.125,157.859375 C91.125,159.359382 91.4902307,160.599604 92.2207031,161.580078 C92.9511755,162.560552 93.9921807,163.050781 95.34375,163.050781 C96.6796942,163.050781 97.712887,162.560552 98.4433594,161.580078 C99.1738318,160.599604 99.5390625,159.359382 99.5390625,157.859375 L99.5390625,157.472656 C99.5390625,156.003899 99.1699256,154.771489 98.4316406,153.775391 C97.6933557,152.779292 96.6562567,152.28125 95.3203125,152.28125 C93.9765558,152.28125 92.9414099,152.779292 92.2148438,153.775391 C91.4882776,154.771489 91.125,156.003899 91.125,157.472656 L91.125,157.859375 Z M103.992188,164 L103.992188,151.320312 L108.644531,151.320312 C110.253914,151.320312 111.488277,151.597653 112.347656,152.152344 C113.207036,152.707034 113.636719,153.558588 113.636719,154.707031 C113.636719,155.363285 113.447268,155.933591 113.068359,156.417969 C112.689451,156.902346 112.152347,157.249999 111.457031,157.460938 L111.457031,157.496094 C112.269535,157.644532 112.919919,157.994138 113.408203,158.544922 C113.896487,159.095706 114.140625,159.742184 114.140625,160.484375 C114.140625,161.656256 113.72852,162.535153 112.904297,163.121094 C112.080074,163.707034 110.929695,164 109.453125,164 L103.992188,164 Z M105.386719,158.164062 L105.386719,162.828125 L109.453125,162.828125 C110.523443,162.828125 111.339841,162.628908 111.902344,162.230469 C112.464847,161.832029 112.746094,161.242191 112.746094,160.460938 C112.746094,159.742184 112.46094,159.17969 111.890625,158.773438 C111.32031,158.367185 110.507818,158.164062 109.453125,158.164062 L105.386719,158.164062 Z M105.386719,156.992188 L108.9375,156.992188 C110.039068,156.976562 110.865232,156.783205 111.416016,156.412109 C111.9668,156.041014 112.242188,155.484379 112.242188,154.742188 C112.242188,153.976559 111.945315,153.414064 111.351562,153.054688 C110.75781,152.695311 109.855475,152.515625 108.644531,152.515625 L105.386719,152.515625 L105.386719,156.992188 Z M120.703125,158.1875 L118.757812,158.1875 L118.757812,164 L117.339844,164 L117.339844,151.320312 L118.757812,151.320312 L118.757812,156.945312 L120.679688,156.945312 L125.332031,151.320312 L127.101562,151.320312 L121.898438,157.472656 L127.675781,164 L125.824219,164 L120.703125,158.1875 Z M138.023438,151.320312 L139.429688,151.320312 L139.429688,164 L138.023438,164 L138.023438,153.582031 L137.988281,153.570312 L131.179688,164 L129.785156,164 L129.785156,151.320312 L131.179688,151.320312 L131.179688,161.738281 L131.214844,161.75 L138.023438,151.320312 Z M158.753906,164 L157.347656,164 L157.347656,158.1875 L150.515625,158.1875 L150.515625,164 L149.109375,164 L149.109375,151.320312 L150.515625,151.320312 L150.515625,157.003906 L157.347656,157.003906 L157.347656,151.320312 L158.753906,151.320312 L158.753906,164 Z M167.414062,164.234375 C165.726554,164.234375 164.361333,163.662115 163.318359,162.517578 C162.275385,161.373041 161.753906,159.878915 161.753906,158.035156 L161.753906,157.390625 C161.753906,155.539053 162.271479,154.025397 163.306641,152.849609 C164.341802,151.673822 165.613274,151.085938 167.121094,151.085938 C168.707039,151.085938 169.935543,151.568355 170.806641,152.533203 C171.677739,153.498052 172.113281,154.820304 172.113281,156.5 L172.113281,157.695312 L163.160156,157.695312 L163.160156,158.035156 C163.160156,159.488289 163.546871,160.687495 164.320312,161.632812 C165.093754,162.57813 166.124994,163.050781 167.414062,163.050781 C168.187504,163.050781 168.865231,162.939454 169.447266,162.716797 C170.0293,162.49414 170.582029,162.140627 171.105469,161.65625 L171.703125,162.617188 C171.22656,163.11719 170.644535,163.511717 169.957031,163.800781 C169.269528,164.089845 168.42188,164.234375 167.414062,164.234375 L167.414062,164.234375 Z M167.121094,152.28125 C166.066401,152.28125 165.189457,152.673824 164.490234,153.458984 C163.791012,154.244145 163.363282,155.261712 163.207031,156.511719 L170.71875,156.511719 L170.71875,156.160156 C170.71875,155.035151 170.402347,154.107426 169.769531,153.376953 C169.136716,152.646481 168.253912,152.28125 167.121094,152.28125 L167.121094,152.28125 Z M174.339844,157.765625 C174.339844,155.695302 174.732418,154.064459 175.517578,152.873047 C176.302738,151.681635 177.433586,151.085938 178.910156,151.085938 C179.332033,151.085938 179.714842,151.134765 180.058594,151.232422 C180.402345,151.330079 180.714842,151.464843 180.996094,151.636719 L180.996094,145.71875 L182.390625,145.71875 L182.390625,151.683594 C182.671876,151.48828 182.986326,151.339844 183.333984,151.238281 C183.681642,151.136718 184.085935,151.085938 184.546875,151.085938 C186.023445,151.085938 187.156246,151.681635 187.945312,152.873047 C188.734379,154.064459 189.128906,155.695302 189.128906,157.765625 L189.128906,158.011719 C189.128906,159.949228 188.736332,161.472651 187.951172,162.582031 C187.166012,163.691412 186.03907,164.246094 184.570312,164.246094 C184.117185,164.246094 183.712892,164.199219 183.357422,164.105469 C183.001951,164.011718 182.679689,163.875001 182.390625,163.695312 L182.390625,168.875 L180.996094,168.875 L180.996094,163.707031 C180.70703,163.88672 180.390627,164.021484 180.046875,164.111328 C179.703123,164.201172 179.316408,164.246094 178.886719,164.246094 C177.425774,164.246094 176.302738,163.691412 175.517578,162.582031 C174.732418,161.472651 174.339844,159.949228 174.339844,158.011719 L174.339844,157.765625 Z M187.734375,157.765625 C187.734375,156.117179 187.445315,154.791021 186.867188,153.787109 C186.28906,152.783198 185.414068,152.28125 184.242188,152.28125 C183.804685,152.28125 183.437501,152.328125 183.140625,152.421875 C182.843749,152.515625 182.593751,152.640624 182.390625,152.796875 L182.390625,162.605469 C182.617189,162.746094 182.880858,162.857421 183.181641,162.939453 C183.482423,163.021485 183.843748,163.0625 184.265625,163.0625 C185.437506,163.0625 186.308591,162.611333 186.878906,161.708984 C187.449222,160.806636 187.734375,159.574227 187.734375,158.011719 L187.734375,157.765625 Z M175.746094,158.011719 C175.746094,159.582039 176.021482,160.816402 176.572266,161.714844 C177.12305,162.613286 177.984369,163.0625 179.15625,163.0625 C179.554689,163.0625 179.902342,163.019532 180.199219,162.933594 C180.496095,162.847656 180.761718,162.730469 180.996094,162.582031 L180.996094,152.761719 C180.785155,152.613281 180.533205,152.496094 180.240234,152.410156 C179.947264,152.324218 179.593752,152.28125 179.179688,152.28125 C178.007807,152.28125 177.142581,152.781245 176.583984,153.78125 C176.025388,154.781255 175.746094,156.109367 175.746094,157.765625 L175.746094,158.011719 Z M200.425781,152.515625 L195.808594,152.515625 L195.808594,164 L194.402344,164 L194.402344,152.515625 L189.960938,152.515625 L189.960938,151.320312 L200.425781,151.320312 L200.425781,152.515625 Z M211.054688,151.320312 L212.460938,151.320312 L212.460938,164 L211.054688,164 L211.054688,153.582031 L211.019531,153.570312 L204.210938,164 L202.816406,164 L202.816406,151.320312 L204.210938,151.320312 L204.210938,161.738281 L204.246094,161.75 L211.054688,151.320312 Z" id="мощность-установок-п" fill="#FFFFFF"></path>
        </g>
    </g>
</svg>