<?xml version="1.0" encoding="UTF-8"?>
<svg width="262px" height="212px" viewBox="0 0 262 212" version="1.1" xmlns="http://www.w3.org/2000/svg" xmlns:xlink="http://www.w3.org/1999/xlink">
    <!-- Generator: Sketch 3.8.3 (29802) - http://www.bohemiancoding.com/sketch -->
    <title>upsng</title>
    <desc>Created with Sketch.</desc>
    <defs></defs>
    <g id="new" stroke="none" stroke-width="1" fill="none" fill-rule="evenodd">
        <g id="upsng" transform="translate(-1.000000, 0.000000)">
            <polygon id="Rectangle-29" fill="#417505" points="2 0 263 0 263 106 12.2474667 106 2 106"></polygon>
            <path d="M1.5,0.5 L1.5,210.509521" id="Line" stroke="#417505" stroke-linecap="square"></path>
            <path d="M137.847656,58.1015625 L142.886719,47.3203125 L144.621094,47.3203125 L144.621094,60 L143.214844,60 L143.214844,49.6757812 L143.179688,49.6640625 L138.339844,60 L137.34375,60 L132.410156,49.4296875 L132.375,49.4414062 L132.375,60 L130.980469,60 L130.980469,47.3203125 L132.820312,47.3203125 L137.847656,58.1015625 Z M158.121094,47.3203125 L158.121094,60 L156.714844,60 L156.714844,48.5273438 L151.523438,48.5273438 L151.347656,52.921875 C151.230468,55.5234505 150.910159,57.3535103 150.386719,58.4121094 C149.863279,59.4707084 148.914069,60 147.539062,60 L147.035156,60 L147.058594,58.7460938 L147.492188,58.734375 C148.343754,58.734375 148.939451,58.3281291 149.279297,57.515625 C149.619142,56.7031209 149.839843,55.1718863 149.941406,52.921875 L150.175781,47.3203125 L158.121094,47.3203125 Z M171.621094,60 L170.214844,60 L170.214844,54.1875 L163.382812,54.1875 L163.382812,60 L161.976562,60 L161.976562,47.3203125 L163.382812,47.3203125 L163.382812,53.0039062 L170.214844,53.0039062 L170.214844,47.3203125 L171.621094,47.3203125 L171.621094,60 Z M190.3125,48.515625 L185.695312,48.515625 L185.695312,60 L184.289062,60 L184.289062,48.515625 L179.847656,48.515625 L179.847656,47.3203125 L190.3125,47.3203125 L190.3125,48.515625 Z M191.355469,53.4726562 C191.355469,51.5663967 191.85937,50.0253965 192.867188,48.8496094 C193.875005,47.6738222 195.238273,47.0859375 196.957031,47.0859375 C198.683602,47.0859375 200.050776,47.6738222 201.058594,48.8496094 C202.066411,50.0253965 202.570312,51.5663967 202.570312,53.4726562 L202.570312,53.859375 C202.570312,55.7734471 202.068364,57.3144473 201.064453,58.4824219 C200.060542,59.6503965 198.699227,60.234375 196.980469,60.234375 C195.246085,60.234375 193.875005,59.6503965 192.867188,58.4824219 C191.85937,57.3144473 191.355469,55.7734471 191.355469,53.859375 L191.355469,53.4726562 Z M192.761719,53.859375 C192.761719,55.3593825 193.126949,56.5996045 193.857422,57.5800781 C194.587894,58.5605518 195.628899,59.0507812 196.980469,59.0507812 C198.316413,59.0507812 199.349606,58.5605518 200.080078,57.5800781 C200.810551,56.5996045 201.175781,55.3593825 201.175781,53.859375 L201.175781,53.4726562 C201.175781,52.0038989 200.806644,50.7714894 200.068359,49.7753906 C199.330074,48.7792919 198.292975,48.28125 196.957031,48.28125 C195.613275,48.28125 194.578129,48.7792919 193.851562,49.7753906 C193.124996,50.7714894 192.761719,52.0038989 192.761719,53.4726562 L192.761719,53.859375 Z M215.214844,60 L213.808594,60 L213.808594,54.1875 L206.976562,54.1875 L206.976562,60 L205.570312,60 L205.570312,47.3203125 L206.976562,47.3203125 L206.976562,53.0039062 L213.808594,53.0039062 L213.808594,47.3203125 L215.214844,47.3203125 L215.214844,60 Z M228.703125,60 L227.296875,60 L227.296875,54.1875 L220.464844,54.1875 L220.464844,60 L219.058594,60 L219.058594,47.3203125 L220.464844,47.3203125 L220.464844,53.0039062 L227.296875,53.0039062 L227.296875,47.3203125 L228.703125,47.3203125 L228.703125,60 Z" id="млн-тонн" fill="#FFFFFF"></path>
            <path d="M51.1734511,84.9204721 L46.1648488,84.9204721 L46.1648488,29.6171554 L31.6816406,31.3284279 L31.6816406,27.8641446 L51.1734511,23.9824779 L51.1734511,84.9204721 Z M70.1616188,82.9170312 C70.1616188,85.5326477 69.6468509,88.0369238 68.6172998,90.4299346 C67.5877486,92.8229454 66.1547462,94.8959295 64.3182495,96.6489491 L61.3548265,94.4785548 C62.6904604,92.6142324 63.6643456,90.7916759 64.2765111,89.0108306 C64.8886767,87.2299854 65.1947549,85.2265645 65.1947549,83.0005079 L65.1947549,77.0736619 L70.1616188,77.0736619 L70.1616188,82.9170312 Z M92.0325154,51.8219588 L97.8341463,51.8219588 C102.369737,51.8219588 105.750509,50.7367725 107.976566,48.5663673 C110.202623,46.3959622 111.315634,43.5299573 111.315634,39.9682668 C111.315634,36.1004935 110.265229,33.0605806 108.164389,30.8484368 C106.063548,28.6362931 102.856683,27.5302378 98.5436983,27.5302378 C94.5646222,27.5302378 91.3508012,28.6571621 88.902139,30.9110444 C86.4534767,33.1649266 85.229164,36.2117959 85.229164,40.0517435 L80.2205617,40.0517435 C80.2205617,35.0987676 81.9248607,31.0641006 85.3335098,27.9476213 C88.742159,24.8311421 93.1455111,23.2729259 98.5436983,23.2729259 C104.081014,23.2729259 108.428716,24.7337536 111.586933,27.6554529 C114.745151,30.5771521 116.324236,34.737033 116.324236,40.1352202 C116.324236,43.0569195 115.454696,45.7490163 113.715589,48.2115914 C111.976483,50.6741664 109.479163,52.5036793 106.223555,53.7001847 L106.223555,53.8253997 C110.035677,54.9106023 112.859944,56.7192462 114.696441,59.2513855 C116.532937,61.7835249 117.451172,64.8443068 117.451172,68.433823 C117.451172,73.943313 115.73296,78.214495 112.296485,81.2474971 C108.860011,84.2804992 104.345357,85.7969775 98.7523901,85.7969775 C93.3263772,85.7969775 88.728248,84.3013682 84.9578647,81.3101047 C81.1874813,78.3188411 79.3023179,74.0267902 79.3023179,68.433823 L84.3109202,68.433823 C84.3109202,72.3850734 85.6326215,75.5641128 88.2760637,77.9710365 C90.9195059,80.3779602 94.4115797,81.5814039 98.7523901,81.5814039 C103.148852,81.5814039 106.536581,80.482305 108.915679,78.2840741 C111.294777,76.0858432 112.484308,72.8581096 112.484308,68.6007764 C112.484308,64.2321404 111.246083,61.053101 108.769595,59.0635629 C106.293107,57.0740249 102.647994,56.0792707 97.8341463,56.0792707 L92.0325154,56.0792707 L92.0325154,51.8219588 Z" id="1,3" fill="#FFFFFF"></path>
            <path d="M18.0888672,130.866211 C18.6923858,130.866211 19.2153298,130.690431 19.6577148,130.338867 C20.1000999,129.987303 20.3242187,129.541995 20.3300781,129.00293 L21.8769531,129.00293 C21.8710937,129.870122 21.4946326,130.61572 20.7475586,131.239746 C20.0004845,131.863773 19.1142629,132.175781 18.0888672,132.175781 C16.694329,132.175781 15.639652,131.731938 14.9248047,130.844238 C14.2099574,129.956539 13.8525391,128.818366 13.8525391,127.429688 L13.8525391,127.060547 C13.8525391,125.677727 14.2099574,124.54102 14.9248047,123.650391 C15.639652,122.759761 16.694329,122.314453 18.0888672,122.314453 C19.2080134,122.314453 20.1176723,122.636716 20.8178711,123.28125 C21.5180699,123.925784 21.8710937,124.751948 21.8769531,125.759766 L20.3300781,125.759766 C20.3242187,125.150388 20.1132833,124.643557 19.6972656,124.239258 C19.2812479,123.834959 18.7451205,123.632812 18.0888672,123.632812 C17.1455031,123.632812 16.4760762,123.959469 16.0805664,124.612793 C15.6850566,125.266117 15.4873047,126.082026 15.4873047,127.060547 L15.4873047,127.429688 C15.4873047,128.431646 15.6835918,129.25488 16.0761719,129.899414 C16.468752,130.543949 17.1396437,130.866211 18.0888672,130.866211 L18.0888672,130.866211 Z M27.7041016,132.175781 C26.3681574,132.175781 25.3134804,131.743657 24.5400391,130.879395 C23.7665977,130.015132 23.3798828,128.868171 23.3798828,127.438477 L23.3798828,127.042969 C23.3798828,125.660149 23.7768515,124.526372 24.5708008,123.641602 C25.3647501,122.756832 26.3212835,122.314453 27.4404297,122.314453 C28.7294986,122.314453 29.6977507,122.692379 30.3452148,123.448242 C30.992679,124.204105 31.3164062,125.238275 31.3164062,126.550781 L31.3164062,127.614258 L25.0146484,127.614258 C25.0380861,128.586919 25.2797829,129.372067 25.7397461,129.969727 C26.1997093,130.567386 26.8544879,130.866211 27.7041016,130.866211 C28.2959014,130.866211 28.8071268,130.784181 29.237793,130.620117 C29.6684592,130.456054 30.0566389,130.224611 30.4023438,129.925781 L31.0439453,131.006836 C30.6982405,131.346681 30.2543972,131.626464 29.7124023,131.846191 C29.1704074,132.065919 28.5009805,132.175781 27.7041016,132.175781 L27.7041016,132.175781 Z M27.4404297,123.632812 C26.8251922,123.632812 26.3051779,123.880369 25.8803711,124.375488 C25.4555643,124.870608 25.1845709,125.513668 25.0673828,126.304688 L29.6904297,126.304688 L29.6904297,126.076172 C29.6904297,125.367184 29.5029316,124.782717 29.1279297,124.322754 C28.7529278,123.862791 28.1904334,123.632812 27.4404297,123.632812 L27.4404297,123.632812 Z M41.3183594,127.59668 C41.3183594,129.002937 40.9975618,130.117672 40.355957,130.940918 C39.7143523,131.764164 38.8046934,132.175781 37.6269531,132.175781 C37.0234345,132.175781 36.5019553,132.077638 36.0625,131.881348 C35.6230447,131.685058 35.2480484,131.390627 34.9375,130.998047 L34.9111328,131.006836 L34.9111328,135.65625 L33.2763672,135.65625 L33.2763672,122.490234 L34.6738281,122.490234 L34.8320312,123.703125 C35.1484391,123.246091 35.5322243,122.900392 35.9833984,122.666016 C36.4345726,122.431639 36.9736297,122.314453 37.6005859,122.314453 C38.7959044,122.314453 39.7143523,122.772945 40.355957,123.689941 C40.9975618,124.606938 41.3183594,125.847648 41.3183594,127.412109 L41.3183594,127.59668 Z M39.6835938,127.412109 C39.6835938,126.292963 39.4726584,125.389164 39.0507812,124.700684 C38.6289041,124.012204 37.987309,123.667969 37.1259766,123.667969 C36.5927708,123.667969 36.1459979,123.785155 35.7856445,124.019531 C35.4252912,124.253907 35.1337902,124.57617 34.9111328,124.986328 L34.9111328,129.574219 C35.145509,129.990236 35.4399396,130.309569 35.7944336,130.532227 C36.1489276,130.754884 36.5986301,130.866211 37.1435547,130.866211 C37.9990277,130.866211 38.6362284,130.568851 39.0551758,129.974121 C39.4741232,129.379392 39.6835938,128.586919 39.6835938,127.59668 L39.6835938,127.412109 Z M51.1972656,132 L49.5712891,132 L49.5712891,127.921875 L45.203125,127.921875 L45.203125,132 L43.5683594,132 L43.5683594,122.490234 L45.203125,122.490234 L45.203125,126.621094 L49.5712891,126.621094 L49.5712891,122.490234 L51.1972656,122.490234 L51.1972656,132 Z M59.9599609,122.490234 L61.5859375,122.490234 L61.5859375,132 L59.9599609,132 L59.9599609,125.047852 L59.9335938,125.047852 L55.5742188,132 L53.9482422,132 L53.9482422,122.490234 L55.5742188,122.490234 L55.5742188,129.433594 L55.6005859,129.433594 L59.9599609,122.490234 Z M68.0546875,130.866211 C68.6582061,130.866211 69.1811501,130.690431 69.6235352,130.338867 C70.0659202,129.987303 70.290039,129.541995 70.2958984,129.00293 L71.8427734,129.00293 C71.836914,129.870122 71.460453,130.61572 70.7133789,131.239746 C69.9663049,131.863773 69.0800833,132.175781 68.0546875,132.175781 C66.6601493,132.175781 65.6054723,131.731938 64.890625,130.844238 C64.1757777,129.956539 63.8183594,128.818366 63.8183594,127.429688 L63.8183594,127.060547 C63.8183594,125.677727 64.1757777,124.54102 64.890625,123.650391 C65.6054723,122.759761 66.6601493,122.314453 68.0546875,122.314453 C69.1738337,122.314453 70.0834926,122.636716 70.7836914,123.28125 C71.4838902,123.925784 71.836914,124.751948 71.8427734,125.759766 L70.2958984,125.759766 C70.290039,125.150388 70.0791036,124.643557 69.6630859,124.239258 C69.2470682,123.834959 68.7109408,123.632812 68.0546875,123.632812 C67.1113234,123.632812 66.4418965,123.959469 66.0463867,124.612793 C65.6508769,125.266117 65.453125,126.082026 65.453125,127.060547 L65.453125,127.429688 C65.453125,128.431646 65.6494121,129.25488 66.0419922,129.899414 C66.4345723,130.543949 67.105464,130.866211 68.0546875,130.866211 L68.0546875,130.866211 Z M80.78125,123.791016 L77.5908203,123.791016 L77.5908203,132 L75.9648438,132 L75.9648438,123.791016 L72.8359375,123.791016 L72.8359375,122.490234 L80.78125,122.490234 L80.78125,123.791016 Z M81.6074219,127.148438 C81.6074219,125.712883 81.9824181,124.548344 82.7324219,123.654785 C83.4824256,122.761226 84.5195246,122.314453 85.84375,122.314453 C87.1796942,122.314453 88.2241173,122.761226 88.9770508,123.654785 C89.7299842,124.548344 90.1064453,125.712883 90.1064453,127.148438 L90.1064453,127.359375 C90.1064453,128.800788 89.7314491,129.963863 88.9814453,130.848633 C88.2314416,131.733403 87.1914129,132.175781 85.8613281,132.175781 C84.5253839,132.175781 83.4824256,131.733403 82.7324219,130.848633 C81.9824181,129.963863 81.6074219,128.800788 81.6074219,127.359375 L81.6074219,127.148438 Z M83.2421875,127.359375 C83.2421875,128.39649 83.4589822,129.240231 83.8925781,129.890625 C84.326174,130.541019 84.9824175,130.866211 85.8613281,130.866211 C86.72852,130.866211 87.3818337,130.539554 87.8212891,129.88623 C88.2607444,129.232907 88.4804688,128.39063 88.4804688,127.359375 L88.4804688,127.148438 C88.4804688,126.128901 88.2592796,125.288089 87.8168945,124.625977 C87.3745095,123.963864 86.7168012,123.632812 85.84375,123.632812 C84.9765582,123.632812 84.326174,123.963864 83.8925781,124.625977 C83.4589822,125.288089 83.2421875,126.128901 83.2421875,127.148438 L83.2421875,127.359375 Z M98.3417969,122.490234 L99.9677734,122.490234 L99.9677734,132 L98.3417969,132 L98.3417969,125.047852 L98.3154297,125.047852 L93.9560547,132 L92.3300781,132 L92.3300781,122.490234 L93.9560547,122.490234 L93.9560547,129.433594 L93.9824219,129.433594 L98.3417969,122.490234 Z M98.78125,118.59668 C98.78125,119.311527 98.5468773,119.881346 98.078125,120.306152 C97.6093727,120.730959 96.9677775,120.943359 96.1533203,120.943359 C95.3330037,120.943359 94.6884789,120.730959 94.2197266,120.306152 C93.7509742,119.881346 93.5166016,119.311527 93.5166016,118.59668 L94.84375,118.59668 C94.84375,118.995119 94.946288,119.314452 95.1513672,119.554688 C95.3564463,119.794923 95.6904274,119.915039 96.1533203,119.915039 C96.6044944,119.915039 96.9355458,119.793458 97.1464844,119.550293 C97.3574229,119.307128 97.4628906,118.98926 97.4628906,118.59668 L98.78125,118.59668 Z M114.803711,132 L113.177734,132 L113.177734,127.921875 L108.80957,127.921875 L108.80957,132 L107.174805,132 L107.174805,122.490234 L108.80957,122.490234 L108.80957,126.621094 L113.177734,126.621094 L113.177734,122.490234 L114.803711,122.490234 L114.803711,132 Z M121.369141,132.175781 C120.033196,132.175781 118.978519,131.743657 118.205078,130.879395 C117.431637,130.015132 117.044922,128.868171 117.044922,127.438477 L117.044922,127.042969 C117.044922,125.660149 117.441891,124.526372 118.23584,123.641602 C119.029789,122.756832 119.986323,122.314453 121.105469,122.314453 C122.394538,122.314453 123.36279,122.692379 124.010254,123.448242 C124.657718,124.204105 124.981445,125.238275 124.981445,126.550781 L124.981445,127.614258 L118.679688,127.614258 C118.703125,128.586919 118.944822,129.372067 119.404785,129.969727 C119.864748,130.567386 120.519527,130.866211 121.369141,130.866211 C121.96094,130.866211 122.472166,130.784181 122.902832,130.620117 C123.333498,130.456054 123.721678,130.224611 124.067383,129.925781 L124.708984,131.006836 C124.36328,131.346681 123.919436,131.626464 123.377441,131.846191 C122.835447,132.065919 122.16602,132.175781 121.369141,132.175781 L121.369141,132.175781 Z M121.105469,123.632812 C120.490231,123.632812 119.970217,123.880369 119.54541,124.375488 C119.120603,124.870608 118.84961,125.513668 118.732422,126.304688 L123.355469,126.304688 L123.355469,126.076172 C123.355469,125.367184 123.167971,124.782717 122.792969,124.322754 C122.417967,123.862791 121.855472,123.632812 121.105469,123.632812 L121.105469,123.632812 Z M126.545898,127.412109 C126.545898,125.841789 126.838864,124.599614 127.424805,123.685547 C128.010745,122.77148 128.869135,122.314453 130,122.314453 C130.251954,122.314453 130.484862,122.336426 130.69873,122.380371 C130.912599,122.424317 131.11621,122.487304 131.30957,122.569336 L131.30957,118.289062 L132.935547,118.289062 L132.935547,122.62207 C133.134767,122.52246 133.351561,122.446289 133.585938,122.393555 C133.820314,122.34082 134.083983,122.314453 134.376953,122.314453 C135.507818,122.314453 136.367673,122.77148 136.956543,123.685547 C137.545413,124.599614 137.839844,125.841789 137.839844,127.412109 L137.839844,127.59668 C137.839844,129.008796 137.545413,130.126461 136.956543,130.949707 C136.367673,131.772953 135.513677,132.18457 134.394531,132.18457 C134.101561,132.18457 133.836427,132.159668 133.599121,132.109863 C133.361815,132.060058 133.140626,131.991211 132.935547,131.90332 L132.935547,135.65625 L131.30957,135.65625 L131.30957,131.929688 C131.11621,132.011719 130.911134,132.074707 130.694336,132.118652 C130.477538,132.162598 130.240236,132.18457 129.982422,132.18457 C128.869135,132.18457 128.018069,131.772953 127.429199,130.949707 C126.840329,130.126461 126.545898,129.008796 126.545898,127.59668 L126.545898,127.412109 Z M136.213867,127.412109 C136.213867,126.281244 136.026369,125.368656 135.651367,124.674316 C135.276365,123.979977 134.693363,123.632812 133.902344,123.632812 C133.703124,123.632812 133.524415,123.648926 133.366211,123.681152 C133.208007,123.713379 133.064454,123.755859 132.935547,123.808594 L132.935547,130.725586 C133.064454,130.778321 133.209472,130.816406 133.370605,130.839844 C133.531739,130.863281 133.714843,130.875 133.919922,130.875 C134.710941,130.875 135.291014,130.579105 135.660156,129.987305 C136.029299,129.395505 136.213867,128.598638 136.213867,127.59668 L136.213867,127.412109 Z M128.171875,127.59668 C128.171875,128.610357 128.34326,129.410153 128.686035,129.996094 C129.02881,130.582034 129.595699,130.875 130.386719,130.875 C130.56836,130.875 130.733886,130.861817 130.883301,130.835449 C131.032716,130.809082 131.174804,130.769532 131.30957,130.716797 L131.30957,123.782227 C131.174804,123.735351 131.03418,123.698731 130.887695,123.672363 C130.74121,123.645996 130.580079,123.632812 130.404297,123.632812 C129.607418,123.632812 129.036135,123.975583 128.69043,124.661133 C128.344725,125.346683 128.171875,126.263666 128.171875,127.412109 L128.171875,127.59668 Z M146.3125,123.791016 L143.12207,123.791016 L143.12207,132 L141.496094,132 L141.496094,123.791016 L138.367188,123.791016 L138.367188,122.490234 L146.3125,122.490234 L146.3125,123.791016 Z M154.046875,122.490234 L155.672852,122.490234 L155.672852,132 L154.046875,132 L154.046875,125.047852 L154.020508,125.047852 L149.661133,132 L148.035156,132 L148.035156,122.490234 L149.661133,122.490234 L149.661133,129.433594 L149.6875,129.433594 L154.046875,122.490234 Z M162.888672,132 L162.888672,122.490234 L166.597656,122.490234 C167.863288,122.490234 168.834469,122.704099 169.51123,123.131836 C170.187992,123.559572 170.526367,124.215816 170.526367,125.100586 C170.526367,125.557619 170.395997,125.957518 170.135254,126.300293 C169.87451,126.643068 169.498049,126.905273 169.005859,127.086914 L169.005859,127.113281 C169.597659,127.253907 170.056151,127.521971 170.381348,127.91748 C170.706545,128.31299 170.869141,128.774411 170.869141,129.301758 C170.869141,130.204106 170.552738,130.879392 169.919922,131.327637 C169.287106,131.775881 168.381842,132 167.204102,132 L162.888672,132 Z M164.514648,127.816406 L164.514648,130.708008 L167.204102,130.708008 C167.883792,130.708008 168.392088,130.584962 168.729004,130.338867 C169.06592,130.092772 169.234375,129.732424 169.234375,129.257812 C169.234375,128.78906 169.06592,128.431642 168.729004,128.185547 C168.392088,127.939452 167.883792,127.816406 167.204102,127.816406 L164.514648,127.816406 Z M164.514648,126.533203 L166.720703,126.533203 C167.453129,126.527344 167.99951,126.413087 168.359863,126.19043 C168.720217,125.967772 168.900391,125.630862 168.900391,125.179688 C168.900391,124.710935 168.709963,124.362306 168.329102,124.133789 C167.94824,123.905272 167.371098,123.791016 166.597656,123.791016 L164.514648,123.791016 L164.514648,126.533203 Z M183.62207,123.817383 L179.236328,123.817383 L179.236328,132 L177.601562,132 L177.601562,122.490234 L183.62207,122.490234 L183.62207,123.817383 Z M184.46582,127.148438 C184.46582,125.712883 184.840817,124.548344 185.59082,123.654785 C186.340824,122.761226 187.377923,122.314453 188.702148,122.314453 C190.038093,122.314453 191.082516,122.761226 191.835449,123.654785 C192.588383,124.548344 192.964844,125.712883 192.964844,127.148438 L192.964844,127.359375 C192.964844,128.800788 192.589847,129.963863 191.839844,130.848633 C191.08984,131.733403 190.049811,132.175781 188.719727,132.175781 C187.383782,132.175781 186.340824,131.733403 185.59082,130.848633 C184.840817,129.963863 184.46582,128.800788 184.46582,127.359375 L184.46582,127.148438 Z M186.100586,127.359375 C186.100586,128.39649 186.317381,129.240231 186.750977,129.890625 C187.184572,130.541019 187.840816,130.866211 188.719727,130.866211 C189.586918,130.866211 190.240232,130.539554 190.679688,129.88623 C191.119143,129.232907 191.338867,128.39063 191.338867,127.359375 L191.338867,127.148438 C191.338867,126.128901 191.117678,125.288089 190.675293,124.625977 C190.232908,123.963864 189.5752,123.632812 188.702148,123.632812 C187.834957,123.632812 187.184572,123.963864 186.750977,124.625977 C186.317381,125.288089 186.100586,126.128901 186.100586,127.148438 L186.100586,127.359375 Z M194.335938,130.69043 C194.833987,130.104489 195.211913,129.511233 195.469727,128.910645 C195.72754,128.310056 195.90039,127.356452 195.988281,126.049805 L196.128906,122.490234 L202.254883,122.490234 L202.254883,130.69043 L203.476562,130.69043 L203.476562,134.794922 L201.850586,134.794922 L201.850586,132 L195.214844,132 L195.214844,134.794922 L193.588867,134.794922 L193.597656,130.69043 L194.335938,130.69043 Z M197.614258,126.049805 C197.549804,127.145513 197.400392,128.063961 197.166016,128.805176 C196.931639,129.54639 196.621096,130.174802 196.234375,130.69043 L200.628906,130.69043 L200.628906,123.975586 L197.702148,123.975586 L197.614258,126.049805 Z M18.0888672,151.866211 C18.6923858,151.866211 19.2153298,151.690431 19.6577148,151.338867 C20.1000999,150.987303 20.3242187,150.541995 20.3300781,150.00293 L21.8769531,150.00293 C21.8710937,150.870122 21.4946326,151.61572 20.7475586,152.239746 C20.0004845,152.863773 19.1142629,153.175781 18.0888672,153.175781 C16.694329,153.175781 15.639652,152.731938 14.9248047,151.844238 C14.2099574,150.956539 13.8525391,149.818366 13.8525391,148.429688 L13.8525391,148.060547 C13.8525391,146.677727 14.2099574,145.54102 14.9248047,144.650391 C15.639652,143.759761 16.694329,143.314453 18.0888672,143.314453 C19.2080134,143.314453 20.1176723,143.636716 20.8178711,144.28125 C21.5180699,144.925784 21.8710937,145.751948 21.8769531,146.759766 L20.3300781,146.759766 C20.3242187,146.150388 20.1132833,145.643557 19.6972656,145.239258 C19.2812479,144.834959 18.7451205,144.632812 18.0888672,144.632812 C17.1455031,144.632812 16.4760762,144.959469 16.0805664,145.612793 C15.6850566,146.266117 15.4873047,147.082026 15.4873047,148.060547 L15.4873047,148.429688 C15.4873047,149.431646 15.6835918,150.25488 16.0761719,150.899414 C16.468752,151.543949 17.1396437,151.866211 18.0888672,151.866211 L18.0888672,151.866211 Z M31.5273438,153 L29.9013672,153 L29.9013672,144.817383 L25.5244141,144.817383 L25.5244141,153 L23.8896484,153 L23.8896484,143.490234 L31.5273438,143.490234 L31.5273438,153 Z M33.7509766,148.148438 C33.7509766,146.712883 34.1259728,145.548344 34.8759766,144.654785 C35.6259803,143.761226 36.6630793,143.314453 37.9873047,143.314453 C39.3232489,143.314453 40.367672,143.761226 41.1206055,144.654785 C41.8735389,145.548344 42.25,146.712883 42.25,148.148438 L42.25,148.359375 C42.25,149.800788 41.8750037,150.963863 41.125,151.848633 C40.3749963,152.733403 39.3349676,153.175781 38.0048828,153.175781 C36.6689386,153.175781 35.6259803,152.733403 34.8759766,151.848633 C34.1259728,150.963863 33.7509766,149.800788 33.7509766,148.359375 L33.7509766,148.148438 Z M35.3857422,148.359375 C35.3857422,149.39649 35.6025369,150.240231 36.0361328,150.890625 C36.4697287,151.541019 37.1259722,151.866211 38.0048828,151.866211 C38.8720746,151.866211 39.5253884,151.539554 39.9648438,150.88623 C40.4042991,150.232907 40.6240234,149.39063 40.6240234,148.359375 L40.6240234,148.148438 C40.6240234,147.128901 40.4028342,146.288089 39.9604492,145.625977 C39.5180642,144.963864 38.8603559,144.632812 37.9873047,144.632812 C37.1201129,144.632812 36.4697287,144.963864 36.0361328,145.625977 C35.6025369,146.288089 35.3857422,147.128901 35.3857422,148.148438 L35.3857422,148.359375 Z M48.1914062,151.866211 C48.7949249,151.866211 49.3178689,151.690431 49.7602539,151.338867 C50.2026389,150.987303 50.4267578,150.541995 50.4326172,150.00293 L51.9794922,150.00293 C51.9736328,150.870122 51.5971717,151.61572 50.8500977,152.239746 C50.1030236,152.863773 49.216802,153.175781 48.1914062,153.175781 C46.796868,153.175781 45.7421911,152.731938 45.0273438,151.844238 C44.3124964,150.956539 43.9550781,149.818366 43.9550781,148.429688 L43.9550781,148.060547 C43.9550781,146.677727 44.3124964,145.54102 45.0273438,144.650391 C45.7421911,143.759761 46.796868,143.314453 48.1914062,143.314453 C49.3105525,143.314453 50.2202113,143.636716 50.9204102,144.28125 C51.620609,144.925784 51.9736328,145.751948 51.9794922,146.759766 L50.4326172,146.759766 C50.4267578,146.150388 50.2158224,145.643557 49.7998047,145.239258 C49.383787,144.834959 48.8476595,144.632812 48.1914062,144.632812 C47.2480422,144.632812 46.5786153,144.959469 46.1831055,145.612793 C45.7875957,146.266117 45.5898438,147.082026 45.5898438,148.060547 L45.5898438,148.429688 C45.5898438,149.431646 45.7861308,150.25488 46.1787109,150.899414 C46.571291,151.543949 47.2421828,151.866211 48.1914062,151.866211 L48.1914062,151.866211 Z M53.4648438,148.148438 C53.4648438,146.712883 53.83984,145.548344 54.5898438,144.654785 C55.3398475,143.761226 56.3769465,143.314453 57.7011719,143.314453 C59.0371161,143.314453 60.0815392,143.761226 60.8344727,144.654785 C61.5874061,145.548344 61.9638672,146.712883 61.9638672,148.148438 L61.9638672,148.359375 C61.9638672,149.800788 61.5888709,150.963863 60.8388672,151.848633 C60.0888634,152.733403 59.0488348,153.175781 57.71875,153.175781 C56.3828058,153.175781 55.3398475,152.733403 54.5898438,151.848633 C53.83984,150.963863 53.4648438,149.800788 53.4648438,148.359375 L53.4648438,148.148438 Z M55.0996094,148.359375 C55.0996094,149.39649 55.3164041,150.240231 55.75,150.890625 C56.1835959,151.541019 56.8398394,151.866211 57.71875,151.866211 C58.5859418,151.866211 59.2392556,151.539554 59.6787109,150.88623 C60.1181663,150.232907 60.3378906,149.39063 60.3378906,148.359375 L60.3378906,148.148438 C60.3378906,147.128901 60.1167014,146.288089 59.6743164,145.625977 C59.2319314,144.963864 58.5742231,144.632812 57.7011719,144.632812 C56.83398,144.632812 56.1835959,144.963864 55.75,145.625977 C55.3164041,146.288089 55.0996094,147.128901 55.0996094,148.148438 L55.0996094,148.359375 Z M68.2216797,144.043945 C69.458014,144.043945 70.4248012,144.439449 71.1220703,145.230469 C71.8193394,146.021488 72.1679688,147.058587 72.1679688,148.341797 L72.1679688,148.552734 C72.1679688,149.935554 71.7929725,151.053218 71.0429688,151.905762 C70.292965,152.758305 69.2529363,153.18457 67.9228516,153.18457 C66.5869074,153.18457 65.5439491,152.758305 64.7939453,151.905762 C64.0439416,151.053218 63.6689453,149.935554 63.6689453,148.552734 L63.6689453,147.357422 C63.6689453,145.423818 64.048336,143.90772 64.8071289,142.809082 C65.5659218,141.710444 66.6191339,141.035158 67.9667969,140.783203 C68.7519571,140.636718 69.3129866,140.469728 69.6499023,140.282227 C69.9868181,140.094726 70.1552734,139.784182 70.1552734,139.350586 L71.4912109,139.350586 C71.4912109,140.3877 71.233401,141.071776 70.7177734,141.402832 C70.2021459,141.733888 69.3994195,141.987304 68.3095703,142.163086 C67.4833943,142.303712 66.7846708,142.62158 66.2133789,143.116699 C65.642087,143.611819 65.2685556,144.357417 65.0927734,145.353516 L65.1191406,145.371094 C65.5292989,144.960935 65.9951146,144.637208 66.5166016,144.399902 C67.0380885,144.162596 67.6064422,144.043945 68.2216797,144.043945 L68.2216797,144.043945 Z M67.9052734,145.353516 C67.0380816,145.353516 66.3876975,145.634763 65.9541016,146.197266 C65.5205056,146.759768 65.3037109,147.474605 65.3037109,148.341797 L65.3037109,148.552734 C65.3037109,149.531255 65.5219705,150.329587 65.9584961,150.947754 C66.3950217,151.565921 67.0498003,151.875 67.9228516,151.875 C68.7900434,151.875 69.4433572,151.565921 69.8828125,150.947754 C70.3222678,150.329587 70.5419922,149.531255 70.5419922,148.552734 L70.5419922,148.341797 C70.5419922,147.474605 70.320803,146.759768 69.878418,146.197266 C69.4360329,145.634763 68.7783247,145.353516 67.9052734,145.353516 L67.9052734,145.353516 Z M81.6162109,153 L79.9902344,153 L79.9902344,148.921875 L75.6220703,148.921875 L75.6220703,153 L73.9873047,153 L73.9873047,143.490234 L75.6220703,143.490234 L75.6220703,147.621094 L79.9902344,147.621094 L79.9902344,143.490234 L81.6162109,143.490234 L81.6162109,153 Z M90.1416016,153 C90.0830075,152.70117 90.0390626,152.455079 90.0097656,152.261719 C89.9804686,152.068358 89.959961,151.866212 89.9482422,151.655273 C89.6083967,152.100588 89.186526,152.465331 88.6826172,152.749512 C88.1787084,153.033693 87.625003,153.175781 87.0214844,153.175781 C86.0195262,153.175781 85.2651393,152.928225 84.7583008,152.433105 C84.2514623,151.937986 83.9980469,151.242192 83.9980469,150.345703 C83.9980469,149.419917 84.3613245,148.705081 85.0878906,148.201172 C85.8144568,147.697263 86.8222592,147.445312 88.1113281,147.445312 L89.9482422,147.445312 L89.9482422,146.478516 C89.9482422,145.898435 89.769533,145.445802 89.4121094,145.120605 C89.0546857,144.795409 88.5449252,144.632812 87.8828125,144.632812 C87.267575,144.632812 86.770998,144.777831 86.3930664,145.067871 C86.0151348,145.357912 85.8261719,145.710935 85.8261719,146.126953 L84.2001953,146.126953 C84.2001953,145.394528 84.5488246,144.742679 85.2460938,144.171387 C85.9433629,143.600095 86.8515569,143.314453 87.9707031,143.314453 C89.0664117,143.314453 89.9409147,143.583982 90.5942383,144.123047 C91.2475619,144.662112 91.5742188,145.45312 91.5742188,146.496094 L91.5742188,151.083984 C91.5742188,151.42383 91.5917967,151.749022 91.6269531,152.05957 C91.6621096,152.370119 91.726562,152.683592 91.8203125,153 L90.1416016,153 Z M87.2587891,151.77832 C87.8681671,151.77832 88.4145484,151.637697 88.8979492,151.356445 C89.3813501,151.075194 89.7314442,150.729494 89.9482422,150.319336 L89.9482422,148.570312 L88.0585938,148.570312 C87.3027306,148.570312 86.70801,148.747557 86.2744141,149.102051 C85.8408181,149.456545 85.6240234,149.88281 85.6240234,150.380859 C85.6240234,150.820315 85.7602525,151.163085 86.0327148,151.40918 C86.3051771,151.655275 86.7138645,151.77832 87.2587891,151.77832 L87.2587891,151.77832 Z M104.6875,144.817383 L100.301758,144.817383 L100.301758,153 L98.6669922,153 L98.6669922,143.490234 L104.6875,143.490234 L104.6875,144.817383 Z M105.53125,148.148438 C105.53125,146.712883 105.906246,145.548344 106.65625,144.654785 C107.406254,143.761226 108.443353,143.314453 109.767578,143.314453 C111.103522,143.314453 112.147945,143.761226 112.900879,144.654785 C113.653812,145.548344 114.030273,146.712883 114.030273,148.148438 L114.030273,148.359375 C114.030273,149.800788 113.655277,150.963863 112.905273,151.848633 C112.15527,152.733403 111.115241,153.175781 109.785156,153.175781 C108.449212,153.175781 107.406254,152.733403 106.65625,151.848633 C105.906246,150.963863 105.53125,149.800788 105.53125,148.359375 L105.53125,148.148438 Z M107.166016,148.359375 C107.166016,149.39649 107.38281,150.240231 107.816406,150.890625 C108.250002,151.541019 108.906246,151.866211 109.785156,151.866211 C110.652348,151.866211 111.305662,151.539554 111.745117,150.88623 C112.184573,150.232907 112.404297,149.39063 112.404297,148.359375 L112.404297,148.148438 C112.404297,147.128901 112.183108,146.288089 111.740723,145.625977 C111.298338,144.963864 110.640629,144.632812 109.767578,144.632812 C108.900386,144.632812 108.250002,144.963864 107.816406,145.625977 C107.38281,146.288089 107.166016,147.128901 107.166016,148.148438 L107.166016,148.359375 Z M122.986328,144.791016 L119.795898,144.791016 L119.795898,153 L118.169922,153 L118.169922,144.791016 L115.041016,144.791016 L115.041016,143.490234 L122.986328,143.490234 L122.986328,144.791016 Z M123.8125,148.148438 C123.8125,146.712883 124.187496,145.548344 124.9375,144.654785 C125.687504,143.761226 126.724603,143.314453 128.048828,143.314453 C129.384772,143.314453 130.429195,143.761226 131.182129,144.654785 C131.935062,145.548344 132.311523,146.712883 132.311523,148.148438 L132.311523,148.359375 C132.311523,149.800788 131.936527,150.963863 131.186523,151.848633 C130.43652,152.733403 129.396491,153.175781 128.066406,153.175781 C126.730462,153.175781 125.687504,152.733403 124.9375,151.848633 C124.187496,150.963863 123.8125,149.800788 123.8125,148.359375 L123.8125,148.148438 Z M125.447266,148.359375 C125.447266,149.39649 125.66406,150.240231 126.097656,150.890625 C126.531252,151.541019 127.187496,151.866211 128.066406,151.866211 C128.933598,151.866211 129.586912,151.539554 130.026367,150.88623 C130.465823,150.232907 130.685547,149.39063 130.685547,148.359375 L130.685547,148.148438 C130.685547,147.128901 130.464358,146.288089 130.021973,145.625977 C129.579588,144.963864 128.921879,144.632812 128.048828,144.632812 C127.181636,144.632812 126.531252,144.963864 126.097656,145.625977 C125.66406,146.288089 125.447266,147.128901 125.447266,148.148438 L125.447266,148.359375 Z M134.543945,153 L134.543945,143.490234 L138.25293,143.490234 C139.518561,143.490234 140.489743,143.704099 141.166504,144.131836 C141.843265,144.559572 142.181641,145.215816 142.181641,146.100586 C142.181641,146.557619 142.051271,146.957518 141.790527,147.300293 C141.529784,147.643068 141.153323,147.905273 140.661133,148.086914 L140.661133,148.113281 C141.252933,148.253907 141.711424,148.521971 142.036621,148.91748 C142.361818,149.31299 142.524414,149.774411 142.524414,150.301758 C142.524414,151.204106 142.208011,151.879392 141.575195,152.327637 C140.94238,152.775881 140.037115,153 138.859375,153 L134.543945,153 Z M136.169922,148.816406 L136.169922,151.708008 L138.859375,151.708008 C139.539066,151.708008 140.047362,151.584962 140.384277,151.338867 C140.721193,151.092772 140.889648,150.732424 140.889648,150.257812 C140.889648,149.78906 140.721193,149.431642 140.384277,149.185547 C140.047362,148.939452 139.539066,148.816406 138.859375,148.816406 L136.169922,148.816406 Z M136.169922,147.533203 L138.375977,147.533203 C139.108402,147.527344 139.654783,147.413087 140.015137,147.19043 C140.37549,146.967772 140.555664,146.630862 140.555664,146.179688 C140.555664,145.710935 140.365236,145.362306 139.984375,145.133789 C139.603514,144.905272 139.026371,144.791016 138.25293,144.791016 L136.169922,144.791016 L136.169922,147.533203 Z M150.830078,143.490234 L152.456055,143.490234 L152.456055,153 L150.830078,153 L150.830078,146.047852 L150.803711,146.047852 L146.444336,153 L144.818359,153 L144.818359,143.490234 L146.444336,143.490234 L146.444336,150.433594 L146.470703,150.433594 L150.830078,143.490234 Z M162.132812,144.791016 L158.942383,144.791016 L158.942383,153 L157.316406,153 L157.316406,144.791016 L154.1875,144.791016 L154.1875,143.490234 L162.132812,143.490234 L162.132812,144.791016 Z M165.490234,146.777344 L167.907227,146.777344 C169.04981,146.777344 169.927243,147.057126 170.539551,147.616699 C171.151859,148.176272 171.458008,148.92187 171.458008,149.853516 C171.458008,150.79102 171.150394,151.549802 170.535156,152.129883 C169.919919,152.709964 169.043951,153 167.907227,153 L163.864258,153 L163.864258,143.490234 L165.490234,143.490234 L165.490234,146.777344 Z M165.490234,148.086914 L165.490234,151.69043 L167.907227,151.69043 C168.575199,151.69043 169.061522,151.523439 169.366211,151.189453 C169.6709,150.855467 169.823242,150.430667 169.823242,149.915039 C169.823242,149.41113 169.669435,148.980471 169.361816,148.623047 C169.054198,148.265623 168.569339,148.086914 167.907227,148.086914 L165.490234,148.086914 Z M180.871094,149.572266 L181.205078,150.837891 L181.231445,150.837891 L183.648438,143.490234 L185.467773,143.490234 L181.442383,154.467773 C181.202147,155.118167 180.865237,155.676267 180.431641,156.14209 C179.998045,156.607912 179.394535,156.84082 178.621094,156.84082 C178.480468,156.84082 178.307618,156.824707 178.102539,156.79248 C177.89746,156.760254 177.736329,156.729492 177.619141,156.700195 L177.786133,155.390625 C177.768555,155.384766 177.874022,155.390625 178.102539,155.408203 C178.331056,155.425781 178.477539,155.43457 178.541992,155.43457 C178.934572,155.43457 179.221679,155.324708 179.40332,155.10498 C179.584962,154.885253 179.810546,154.461917 180.080078,153.834961 L180.510742,152.806641 L176.951172,143.490234 L178.770508,143.490234 L180.871094,149.572266 Z M190.706055,151.866211 C191.309573,151.866211 191.832517,151.690431 192.274902,151.338867 C192.717287,150.987303 192.941406,150.541995 192.947266,150.00293 L194.494141,150.00293 C194.488281,150.870122 194.11182,151.61572 193.364746,152.239746 C192.617672,152.863773 191.73145,153.175781 190.706055,153.175781 C189.311516,153.175781 188.25684,152.731938 187.541992,151.844238 C186.827145,150.956539 186.469727,149.818366 186.469727,148.429688 L186.469727,148.060547 C186.469727,146.677727 186.827145,145.54102 187.541992,144.650391 C188.25684,143.759761 189.311516,143.314453 190.706055,143.314453 C191.825201,143.314453 192.73486,143.636716 193.435059,144.28125 C194.135257,144.925784 194.488281,145.751948 194.494141,146.759766 L192.947266,146.759766 C192.941406,146.150388 192.730471,145.643557 192.314453,145.239258 C191.898435,144.834959 191.362308,144.632812 190.706055,144.632812 C189.762691,144.632812 189.093264,144.959469 188.697754,145.612793 C188.302244,146.266117 188.104492,147.082026 188.104492,148.060547 L188.104492,148.429688 C188.104492,149.431646 188.300779,150.25488 188.693359,150.899414 C189.085939,151.543949 189.756831,151.866211 190.706055,151.866211 L190.706055,151.866211 Z M203.432617,144.791016 L200.242188,144.791016 L200.242188,153 L198.616211,153 L198.616211,144.791016 L195.487305,144.791016 L195.487305,143.490234 L203.432617,143.490234 L203.432617,144.791016 Z M210.789062,153 C210.730468,152.70117 210.686524,152.455079 210.657227,152.261719 C210.62793,152.068358 210.607422,151.866212 210.595703,151.655273 C210.255858,152.100588 209.833987,152.465331 209.330078,152.749512 C208.826169,153.033693 208.272464,153.175781 207.668945,153.175781 C206.666987,153.175781 205.9126,152.928225 205.405762,152.433105 C204.898923,151.937986 204.645508,151.242192 204.645508,150.345703 C204.645508,149.419917 205.008785,148.705081 205.735352,148.201172 C206.461918,147.697263 207.46972,147.445312 208.758789,147.445312 L210.595703,147.445312 L210.595703,146.478516 C210.595703,145.898435 210.416994,145.445802 210.05957,145.120605 C209.702147,144.795409 209.192386,144.632812 208.530273,144.632812 C207.915036,144.632812 207.418459,144.777831 207.040527,145.067871 C206.662596,145.357912 206.473633,145.710935 206.473633,146.126953 L204.847656,146.126953 C204.847656,145.394528 205.196286,144.742679 205.893555,144.171387 C206.590824,143.600095 207.499018,143.314453 208.618164,143.314453 C209.713873,143.314453 210.588376,143.583982 211.241699,144.123047 C211.895023,144.662112 212.22168,145.45312 212.22168,146.496094 L212.22168,151.083984 C212.22168,151.42383 212.239258,151.749022 212.274414,152.05957 C212.30957,152.370119 212.374023,152.683592 212.467773,153 L210.789062,153 Z M207.90625,151.77832 C208.515628,151.77832 209.062009,151.637697 209.54541,151.356445 C210.028811,151.075194 210.378905,150.729494 210.595703,150.319336 L210.595703,148.570312 L208.706055,148.570312 C207.950192,148.570312 207.355471,148.747557 206.921875,149.102051 C206.488279,149.456545 206.271484,149.88281 206.271484,150.380859 C206.271484,150.820315 206.407713,151.163085 206.680176,151.40918 C206.952638,151.655275 207.361325,151.77832 207.90625,151.77832 L207.90625,151.77832 Z M222.504883,153 L220.878906,153 L220.878906,148.921875 L216.510742,148.921875 L216.510742,153 L214.875977,153 L214.875977,143.490234 L216.510742,143.490234 L216.510742,147.621094 L220.878906,147.621094 L220.878906,143.490234 L222.504883,143.490234 L222.504883,153 Z M224.728516,148.148438 C224.728516,146.712883 225.103512,145.548344 225.853516,144.654785 C226.603519,143.761226 227.640618,143.314453 228.964844,143.314453 C230.300788,143.314453 231.345211,143.761226 232.098145,144.654785 C232.851078,145.548344 233.227539,146.712883 233.227539,148.148438 L233.227539,148.359375 C233.227539,149.800788 232.852543,150.963863 232.102539,151.848633 C231.352535,152.733403 230.312507,153.175781 228.982422,153.175781 C227.646478,153.175781 226.603519,152.733403 225.853516,151.848633 C225.103512,150.963863 224.728516,149.800788 224.728516,148.359375 L224.728516,148.148438 Z M226.363281,148.359375 C226.363281,149.39649 226.580076,150.240231 227.013672,150.890625 C227.447268,151.541019 228.103511,151.866211 228.982422,151.866211 C229.849614,151.866211 230.502927,151.539554 230.942383,150.88623 C231.381838,150.232907 231.601562,149.39063 231.601562,148.359375 L231.601562,148.148438 C231.601562,147.128901 231.380373,146.288089 230.937988,145.625977 C230.495603,144.963864 229.837895,144.632812 228.964844,144.632812 C228.097652,144.632812 227.447268,144.963864 227.013672,145.625977 C226.580076,146.288089 226.363281,147.128901 226.363281,148.148438 L226.363281,148.359375 Z M235.459961,153 L235.459961,143.490234 L239.168945,143.490234 C240.434577,143.490234 241.405758,143.704099 242.08252,144.131836 C242.759281,144.559572 243.097656,145.215816 243.097656,146.100586 C243.097656,146.557619 242.967286,146.957518 242.706543,147.300293 C242.445799,147.643068 242.069338,147.905273 241.577148,148.086914 L241.577148,148.113281 C242.168948,148.253907 242.62744,148.521971 242.952637,148.91748 C243.277834,149.31299 243.44043,149.774411 243.44043,150.301758 C243.44043,151.204106 243.124027,151.879392 242.491211,152.327637 C241.858395,152.775881 240.953131,153 239.775391,153 L235.459961,153 Z M237.085938,148.816406 L237.085938,151.708008 L239.775391,151.708008 C240.455082,151.708008 240.963377,151.584962 241.300293,151.338867 C241.637209,151.092772 241.805664,150.732424 241.805664,150.257812 C241.805664,149.78906 241.637209,149.431642 241.300293,149.185547 C240.963377,148.939452 240.455082,148.816406 239.775391,148.816406 L237.085938,148.816406 Z M237.085938,147.533203 L239.291992,147.533203 C240.024418,147.527344 240.570799,147.413087 240.931152,147.19043 C241.291506,146.967772 241.47168,146.630862 241.47168,146.179688 C241.47168,145.710935 241.281252,145.362306 240.900391,145.133789 C240.519529,144.905272 239.942387,144.791016 239.168945,144.791016 L237.085938,144.791016 L237.085938,147.533203 Z M248.555664,148.930664 L247.369141,148.930664 L247.369141,153 L245.734375,153 L245.734375,143.490234 L247.369141,143.490234 L247.369141,147.524414 L248.432617,147.524414 L251.631836,143.490234 L253.600586,143.490234 L249.821289,148.051758 L253.916992,153 L251.851562,153 L248.555664,148.930664 Z M261.229492,153 C261.170898,152.70117 261.126953,152.455079 261.097656,152.261719 C261.068359,152.068358 261.047852,151.866212 261.036133,151.655273 C260.696287,152.100588 260.274417,152.465331 259.770508,152.749512 C259.266599,153.033693 258.712894,153.175781 258.109375,153.175781 C257.107417,153.175781 256.35303,152.928225 255.846191,152.433105 C255.339353,151.937986 255.085938,151.242192 255.085938,150.345703 C255.085938,149.419917 255.449215,148.705081 256.175781,148.201172 C256.902347,147.697263 257.91015,147.445312 259.199219,147.445312 L261.036133,147.445312 L261.036133,146.478516 C261.036133,145.898435 260.857424,145.445802 260.5,145.120605 C260.142576,144.795409 259.632816,144.632812 258.970703,144.632812 C258.355466,144.632812 257.858889,144.777831 257.480957,145.067871 C257.103025,145.357912 256.914062,145.710935 256.914062,146.126953 L255.288086,146.126953 C255.288086,145.394528 255.636715,144.742679 256.333984,144.171387 C257.031253,143.600095 257.939448,143.314453 259.058594,143.314453 C260.154302,143.314453 261.028805,143.583982 261.682129,144.123047 C262.335452,144.662112 262.662109,145.45312 262.662109,146.496094 L262.662109,151.083984 C262.662109,151.42383 262.679687,151.749022 262.714844,152.05957 C262.75,152.370119 262.814453,152.683592 262.908203,153 L261.229492,153 Z M258.34668,151.77832 C258.956058,151.77832 259.502439,151.637697 259.98584,151.356445 C260.469241,151.075194 260.819335,150.729494 261.036133,150.319336 L261.036133,148.570312 L259.146484,148.570312 C258.390621,148.570312 257.795901,148.747557 257.362305,149.102051 C256.928709,149.456545 256.711914,149.88281 256.711914,150.380859 C256.711914,150.820315 256.848143,151.163085 257.120605,151.40918 C257.393068,151.655275 257.801755,151.77832 258.34668,151.77832 L258.34668,151.77832 Z" id="сернистой-нефти-в-го" fill="#FFFFFF"></path>
            <path d="M21,174 L19.5546875,174 L19.5546875,170.375 L15.671875,170.375 L15.671875,174 L14.21875,174 L14.21875,165.546875 L15.671875,165.546875 L15.671875,169.21875 L19.5546875,169.21875 L19.5546875,165.546875 L21,165.546875 L21,174 Z M28.578125,174 C28.5260414,173.734374 28.4869793,173.515626 28.4609375,173.34375 C28.4348957,173.171874 28.4166667,172.992188 28.40625,172.804688 C28.1041652,173.200523 27.7291689,173.524738 27.28125,173.777344 C26.8333311,174.029949 26.3411485,174.15625 25.8046875,174.15625 C24.914058,174.15625 24.2434918,173.9362 23.7929688,173.496094 C23.3424457,173.055987 23.1171875,172.437504 23.1171875,171.640625 C23.1171875,170.817704 23.4401009,170.182294 24.0859375,169.734375 C24.7317741,169.286456 25.6275984,169.0625 26.7734375,169.0625 L28.40625,169.0625 L28.40625,168.203125 C28.40625,167.687497 28.2473974,167.285158 27.9296875,166.996094 C27.6119776,166.70703 27.1588571,166.5625 26.5703125,166.5625 C26.0234348,166.5625 25.5820329,166.691405 25.2460938,166.949219 C24.9101546,167.207033 24.7421875,167.520831 24.7421875,167.890625 L23.296875,167.890625 C23.296875,167.23958 23.6067677,166.660159 24.2265625,166.152344 C24.8463573,165.644529 25.6536409,165.390625 26.6484375,165.390625 C27.6224007,165.390625 28.3997367,165.630206 28.9804688,166.109375 C29.5612008,166.588544 29.8515625,167.291662 29.8515625,168.21875 L29.8515625,172.296875 C29.8515625,172.59896 29.8671873,172.888019 29.8984375,173.164062 C29.9296877,173.440106 29.9869787,173.718749 30.0703125,174 L28.578125,174 Z M26.015625,172.914062 C26.5572944,172.914062 27.0429666,172.789064 27.4726562,172.539062 C27.9023459,172.289061 28.2135407,171.981773 28.40625,171.617188 L28.40625,170.0625 L26.7265625,170.0625 C26.0546841,170.0625 25.5260436,170.220051 25.140625,170.535156 C24.7552064,170.850262 24.5625,171.229164 24.5625,171.671875 C24.5625,172.062502 24.6835925,172.367186 24.9257812,172.585938 C25.16797,172.804689 25.5312476,172.914062 26.015625,172.914062 L26.015625,172.914062 Z M37.265625,174 L35.7265625,174 L38.390625,169.132812 C37.6406213,168.851561 37.0781269,168.457034 36.703125,167.949219 C36.3281231,167.441404 36.140625,166.807295 36.140625,166.046875 C36.140625,164.942703 36.4882778,164.096357 37.1835938,163.507812 C37.8789097,162.919268 38.864577,162.625 40.140625,162.625 L43.7578125,162.625 L43.7578125,174 L42.3046875,174 L42.3046875,169.53125 L39.640625,169.53125 L37.265625,174 Z M42.3046875,163.796875 L40.140625,163.796875 C39.2916624,163.796875 38.653648,163.992186 38.2265625,164.382812 C37.799477,164.773439 37.5859375,165.322913 37.5859375,166.03125 C37.5859375,166.734379 37.799477,167.298175 38.2265625,167.722656 C38.653648,168.147138 39.2760376,168.359375 40.09375,168.359375 L42.3046875,168.359375 L42.3046875,163.796875 Z M53.421875,170.085938 C53.421875,171.335944 53.1367216,172.326819 52.5664062,173.058594 C51.9960909,173.790368 51.1875052,174.15625 50.140625,174.15625 C49.604164,174.15625 49.140627,174.069011 48.75,173.894531 C48.359373,173.720051 48.026043,173.458335 47.75,173.109375 L47.7265625,173.117188 L47.7265625,177.25 L46.2734375,177.25 L46.2734375,165.546875 L47.515625,165.546875 L47.65625,166.625 C47.9375014,166.218748 48.2786438,165.911459 48.6796875,165.703125 C49.0807312,165.494791 49.559893,165.390625 50.1171875,165.390625 C51.1796928,165.390625 51.9960909,165.798173 52.5664062,166.613281 C53.1367216,167.428389 53.421875,168.531243 53.421875,169.921875 L53.421875,170.085938 Z M51.96875,169.921875 C51.96875,168.927078 51.7812519,168.123701 51.40625,167.511719 C51.0312481,166.899737 50.4609413,166.59375 49.6953125,166.59375 C49.2213518,166.59375 48.8242204,166.697916 48.5039062,166.90625 C48.1835921,167.114584 47.9244802,167.40104 47.7265625,167.765625 L47.7265625,171.84375 C47.9348969,172.213544 48.196613,172.497395 48.5117188,172.695312 C48.8268245,172.89323 49.2265601,172.992188 49.7109375,172.992188 C50.471358,172.992188 51.0377586,172.727867 51.4101562,172.199219 C51.7825539,171.67057 51.96875,170.96615 51.96875,170.085938 L51.96875,169.921875 Z M60.5546875,174 C60.5026039,173.734374 60.4635418,173.515626 60.4375,173.34375 C60.4114582,173.171874 60.3932292,172.992188 60.3828125,172.804688 C60.0807277,173.200523 59.7057314,173.524738 59.2578125,173.777344 C58.8098936,174.029949 58.317711,174.15625 57.78125,174.15625 C56.8906205,174.15625 56.2200543,173.9362 55.7695312,173.496094 C55.3190082,173.055987 55.09375,172.437504 55.09375,171.640625 C55.09375,170.817704 55.4166634,170.182294 56.0625,169.734375 C56.7083366,169.286456 57.6041609,169.0625 58.75,169.0625 L60.3828125,169.0625 L60.3828125,168.203125 C60.3828125,167.687497 60.2239599,167.285158 59.90625,166.996094 C59.5885401,166.70703 59.1354196,166.5625 58.546875,166.5625 C57.9999973,166.5625 57.5585954,166.691405 57.2226562,166.949219 C56.8867171,167.207033 56.71875,167.520831 56.71875,167.890625 L55.2734375,167.890625 C55.2734375,167.23958 55.5833302,166.660159 56.203125,166.152344 C56.8229198,165.644529 57.6302034,165.390625 58.625,165.390625 C59.5989632,165.390625 60.3762992,165.630206 60.9570312,166.109375 C61.5377633,166.588544 61.828125,167.291662 61.828125,168.21875 L61.828125,172.296875 C61.828125,172.59896 61.8437498,172.888019 61.875,173.164062 C61.9062502,173.440106 61.9635412,173.718749 62.046875,174 L60.5546875,174 Z M57.9921875,172.914062 C58.5338569,172.914062 59.0195291,172.789064 59.4492188,172.539062 C59.8789084,172.289061 60.1901032,171.981773 60.3828125,171.617188 L60.3828125,170.0625 L58.703125,170.0625 C58.0312466,170.0625 57.5026061,170.220051 57.1171875,170.535156 C56.7317689,170.850262 56.5390625,171.229164 56.5390625,171.671875 C56.5390625,172.062502 56.660155,172.367186 56.9023438,172.585938 C57.1445325,172.804689 57.5078101,172.914062 57.9921875,172.914062 L57.9921875,172.914062 Z M66.6953125,170.382812 L65.640625,170.382812 L65.640625,174 L64.1875,174 L64.1875,165.546875 L65.640625,165.546875 L65.640625,169.132812 L66.5859375,169.132812 L69.4296875,165.546875 L71.1796875,165.546875 L67.8203125,169.601562 L71.4609375,174 L69.625,174 L66.6953125,170.382812 Z M78.984375,166.703125 L76.1484375,166.703125 L76.1484375,174 L74.703125,174 L74.703125,166.703125 L71.921875,166.703125 L71.921875,165.546875 L78.984375,165.546875 L78.984375,166.703125 Z M85.859375,165.546875 L87.3046875,165.546875 L87.3046875,174 L85.859375,174 L85.859375,167.820312 L85.8359375,167.820312 L81.9609375,174 L80.515625,174 L80.515625,165.546875 L81.9609375,165.546875 L81.9609375,171.71875 L81.984375,171.71875 L85.859375,165.546875 Z M96.53125,174 L95.0859375,174 L95.0859375,170.375 L91.203125,170.375 L91.203125,174 L89.75,174 L89.75,165.546875 L91.203125,165.546875 L91.203125,169.21875 L95.0859375,169.21875 L95.0859375,165.546875 L96.53125,165.546875 L96.53125,174 Z M102.28125,172.992188 C102.817711,172.992188 103.28255,172.835939 103.675781,172.523438 C104.069012,172.210936 104.268229,171.815107 104.273438,171.335938 L105.648438,171.335938 C105.643229,172.106775 105.308597,172.769528 104.644531,173.324219 C103.980465,173.878909 103.192713,174.15625 102.28125,174.15625 C101.04166,174.15625 100.10417,173.761723 99.46875,172.972656 C98.8333302,172.18359 98.515625,171.171881 98.515625,169.9375 L98.515625,169.609375 C98.515625,168.380202 98.8333302,167.369796 99.46875,166.578125 C100.10417,165.786454 101.04166,165.390625 102.28125,165.390625 C103.276047,165.390625 104.084632,165.67708 104.707031,166.25 C105.32943,166.82292 105.643229,167.557287 105.648438,168.453125 L104.273438,168.453125 C104.268229,167.911456 104.080731,167.460939 103.710938,167.101562 C103.341144,166.742186 102.864586,166.5625 102.28125,166.5625 C101.442704,166.5625 100.847658,166.852862 100.496094,167.433594 C100.144529,168.014326 99.96875,168.739579 99.96875,169.609375 L99.96875,169.9375 C99.96875,170.828129 100.143227,171.559893 100.492188,172.132812 C100.841148,172.705732 101.437496,172.992188 102.28125,172.992188 L102.28125,172.992188 Z M109.945312,170.382812 L108.890625,170.382812 L108.890625,174 L107.4375,174 L107.4375,165.546875 L108.890625,165.546875 L108.890625,169.132812 L109.835938,169.132812 L112.679688,165.546875 L114.429688,165.546875 L111.070312,169.601562 L114.710938,174 L112.875,174 L109.945312,170.382812 Z M115.445312,169.6875 C115.445312,168.411452 115.778643,167.376306 116.445312,166.582031 C117.111982,165.787756 118.033848,165.390625 119.210938,165.390625 C120.398443,165.390625 121.32682,165.787756 121.996094,166.582031 C122.665368,167.376306 123,168.411452 123,169.6875 L123,169.875 C123,171.156256 122.66667,172.1901 122,172.976562 C121.33333,173.763025 120.40886,174.15625 119.226562,174.15625 C118.039057,174.15625 117.111982,173.763025 116.445312,172.976562 C115.778643,172.1901 115.445312,171.156256 115.445312,169.875 L115.445312,169.6875 Z M116.898438,169.875 C116.898438,170.79688 117.091144,171.546872 117.476562,172.125 C117.861981,172.703128 118.445309,172.992188 119.226562,172.992188 C119.9974,172.992188 120.578123,172.701826 120.96875,172.121094 C121.359377,171.540362 121.554688,170.791671 121.554688,169.875 L121.554688,169.6875 C121.554688,168.781245 121.358075,168.033857 120.964844,167.445312 C120.571613,166.856768 119.986983,166.5625 119.210938,166.5625 C118.4401,166.5625 117.861981,166.856768 117.476562,167.445312 C117.091144,168.033857 116.898438,168.781245 116.898438,169.6875 L116.898438,169.875 Z M129.71875,172.109375 L132.59375,165.546875 L134.398438,165.546875 L134.398438,174 L132.953125,174 L132.953125,167.90625 L132.929688,167.90625 L130.21875,174 L129.21875,174 L126.453125,167.773438 L126.429688,167.773438 L126.429688,174 L124.984375,174 L124.984375,165.546875 L126.859375,165.546875 L129.71875,172.109375 Z M145.546875,172.109375 L148.421875,165.546875 L150.226562,165.546875 L150.226562,174 L148.78125,174 L148.78125,167.90625 L148.757812,167.90625 L146.046875,174 L145.046875,174 L142.28125,167.773438 L142.257812,167.773438 L142.257812,174 L140.8125,174 L140.8125,165.546875 L142.6875,165.546875 L145.546875,172.109375 Z M156.0625,174.15625 C154.874994,174.15625 153.937503,173.772139 153.25,173.003906 C152.562497,172.235673 152.21875,171.216152 152.21875,169.945312 L152.21875,169.59375 C152.21875,168.364577 152.571611,167.356775 153.277344,166.570312 C153.983076,165.78385 154.833328,165.390625 155.828125,165.390625 C156.973964,165.390625 157.834633,165.726559 158.410156,166.398438 C158.98568,167.070316 159.273438,167.989577 159.273438,169.15625 L159.273438,170.101562 L153.671875,170.101562 C153.692708,170.96615 153.90755,171.66406 154.316406,172.195312 C154.725262,172.726565 155.307288,172.992188 156.0625,172.992188 C156.588544,172.992188 157.042967,172.919272 157.425781,172.773438 C157.808596,172.627603 158.153644,172.421876 158.460938,172.15625 L159.03125,173.117188 C158.723957,173.419272 158.329429,173.667968 157.847656,173.863281 C157.365883,174.058595 156.770837,174.15625 156.0625,174.15625 L156.0625,174.15625 Z M155.828125,166.5625 C155.281247,166.5625 154.819012,166.78255 154.441406,167.222656 C154.0638,167.662763 153.822917,168.234371 153.71875,168.9375 L157.828125,168.9375 L157.828125,168.734375 C157.828125,168.104164 157.66146,167.584637 157.328125,167.175781 C156.99479,166.766925 156.494795,166.5625 155.828125,166.5625 L155.828125,166.5625 Z M164.40625,172.992188 C164.942711,172.992188 165.40755,172.835939 165.800781,172.523438 C166.194012,172.210936 166.393229,171.815107 166.398438,171.335938 L167.773438,171.335938 C167.768229,172.106775 167.433597,172.769528 166.769531,173.324219 C166.105465,173.878909 165.317713,174.15625 164.40625,174.15625 C163.16666,174.15625 162.22917,173.761723 161.59375,172.972656 C160.95833,172.18359 160.640625,171.171881 160.640625,169.9375 L160.640625,169.609375 C160.640625,168.380202 160.95833,167.369796 161.59375,166.578125 C162.22917,165.786454 163.16666,165.390625 164.40625,165.390625 C165.401047,165.390625 166.209632,165.67708 166.832031,166.25 C167.45443,166.82292 167.768229,167.557287 167.773438,168.453125 L166.398438,168.453125 C166.393229,167.911456 166.205731,167.460939 165.835938,167.101562 C165.466144,166.742186 164.989586,166.5625 164.40625,166.5625 C163.567704,166.5625 162.972658,166.852862 162.621094,167.433594 C162.269529,168.014326 162.09375,168.739579 162.09375,169.609375 L162.09375,169.9375 C162.09375,170.828129 162.268227,171.559893 162.617188,172.132812 C162.966148,172.705732 163.562496,172.992188 164.40625,172.992188 L164.40625,172.992188 Z M175.71875,166.703125 L172.882812,166.703125 L172.882812,174 L171.4375,174 L171.4375,166.703125 L168.65625,166.703125 L168.65625,165.546875 L175.71875,165.546875 L175.71875,166.703125 Z M176.453125,169.6875 C176.453125,168.411452 176.786455,167.376306 177.453125,166.582031 C178.119795,165.787756 179.041661,165.390625 180.21875,165.390625 C181.406256,165.390625 182.334632,165.787756 183.003906,166.582031 C183.67318,167.376306 184.007812,168.411452 184.007812,169.6875 L184.007812,169.875 C184.007812,171.156256 183.674483,172.1901 183.007812,172.976562 C182.341142,173.763025 181.416673,174.15625 180.234375,174.15625 C179.046869,174.15625 178.119795,173.763025 177.453125,172.976562 C176.786455,172.1901 176.453125,171.156256 176.453125,169.875 L176.453125,169.6875 Z M177.90625,169.875 C177.90625,170.79688 178.098956,171.546872 178.484375,172.125 C178.869794,172.703128 179.453121,172.992188 180.234375,172.992188 C181.005212,172.992188 181.585936,172.701826 181.976562,172.121094 C182.367189,171.540362 182.5625,170.791671 182.5625,169.875 L182.5625,169.6875 C182.5625,168.781245 182.365887,168.033857 181.972656,167.445312 C181.579425,166.856768 180.994796,166.5625 180.21875,166.5625 C179.447913,166.5625 178.869794,166.856768 178.484375,167.445312 C178.098956,168.033857 177.90625,168.781245 177.90625,169.6875 L177.90625,169.875 Z M193.046875,170.085938 C193.046875,171.335944 192.761722,172.326819 192.191406,173.058594 C191.621091,173.790368 190.812505,174.15625 189.765625,174.15625 C189.229164,174.15625 188.765627,174.069011 188.375,173.894531 C187.984373,173.720051 187.651043,173.458335 187.375,173.109375 L187.351562,173.117188 L187.351562,177.25 L185.898438,177.25 L185.898438,165.546875 L187.140625,165.546875 L187.28125,166.625 C187.562501,166.218748 187.903644,165.911459 188.304688,165.703125 C188.705731,165.494791 189.184893,165.390625 189.742188,165.390625 C190.804693,165.390625 191.621091,165.798173 192.191406,166.613281 C192.761722,167.428389 193.046875,168.531243 193.046875,169.921875 L193.046875,170.085938 Z M191.59375,169.921875 C191.59375,168.927078 191.406252,168.123701 191.03125,167.511719 C190.656248,166.899737 190.085941,166.59375 189.320312,166.59375 C188.846352,166.59375 188.44922,166.697916 188.128906,166.90625 C187.808592,167.114584 187.54948,167.40104 187.351562,167.765625 L187.351562,171.84375 C187.559897,172.213544 187.821613,172.497395 188.136719,172.695312 C188.451824,172.89323 188.85156,172.992188 189.335938,172.992188 C190.096358,172.992188 190.662759,172.727867 191.035156,172.199219 C191.407554,171.67057 191.59375,170.96615 191.59375,170.085938 L191.59375,169.921875 Z M194.578125,169.6875 C194.578125,168.411452 194.911455,167.376306 195.578125,166.582031 C196.244795,165.787756 197.166661,165.390625 198.34375,165.390625 C199.531256,165.390625 200.459632,165.787756 201.128906,166.582031 C201.79818,167.376306 202.132812,168.411452 202.132812,169.6875 L202.132812,169.875 C202.132812,171.156256 201.799483,172.1901 201.132812,172.976562 C200.466142,173.763025 199.541673,174.15625 198.359375,174.15625 C197.171869,174.15625 196.244795,173.763025 195.578125,172.976562 C194.911455,172.1901 194.578125,171.156256 194.578125,169.875 L194.578125,169.6875 Z M196.03125,169.875 C196.03125,170.79688 196.223956,171.546872 196.609375,172.125 C196.994794,172.703128 197.578121,172.992188 198.359375,172.992188 C199.130212,172.992188 199.710936,172.701826 200.101562,172.121094 C200.492189,171.540362 200.6875,170.791671 200.6875,169.875 L200.6875,169.6875 C200.6875,168.781245 200.490887,168.033857 200.097656,167.445312 C199.704425,166.856768 199.119796,166.5625 198.34375,166.5625 C197.572913,166.5625 196.994794,166.856768 196.609375,167.445312 C196.223956,168.033857 196.03125,168.781245 196.03125,169.6875 L196.03125,169.875 Z M210.554688,170.3125 L209.546875,170.3125 L209.546875,174 L208.101562,174 L208.101562,170.3125 L207.085938,170.3125 L204.71875,174 L202.890625,174 L205.984375,169.539062 L203.179688,165.546875 L204.929688,165.546875 L207.109375,169.054688 L208.101562,169.054688 L208.101562,165.546875 L209.546875,165.546875 L209.546875,169.054688 L210.53125,169.054688 L212.726562,165.546875 L214.476562,165.546875 L211.664062,169.539062 L214.757812,174 L212.929688,174 L210.554688,170.3125 Z M216,172.835938 C216.442711,172.315102 216.778645,171.787763 217.007812,171.253906 C217.23698,170.720049 217.390625,169.872402 217.46875,168.710938 L217.59375,165.546875 L223.039062,165.546875 L223.039062,172.835938 L224.125,172.835938 L224.125,176.484375 L222.679688,176.484375 L222.679688,174 L216.78125,174 L216.78125,176.484375 L215.335938,176.484375 L215.34375,172.835938 L216,172.835938 Z M218.914062,168.710938 C218.856771,169.684901 218.723959,170.501299 218.515625,171.160156 C218.307291,171.819014 218.031252,172.377602 217.6875,172.835938 L221.59375,172.835938 L221.59375,166.867188 L218.992188,166.867188 L218.914062,168.710938 Z M229.242188,174.15625 C228.054682,174.15625 227.117191,173.772139 226.429688,173.003906 C225.742184,172.235673 225.398438,171.216152 225.398438,169.945312 L225.398438,169.59375 C225.398438,168.364577 225.751299,167.356775 226.457031,166.570312 C227.162764,165.78385 228.013016,165.390625 229.007812,165.390625 C230.153652,165.390625 231.01432,165.726559 231.589844,166.398438 C232.165367,167.070316 232.453125,167.989577 232.453125,169.15625 L232.453125,170.101562 L226.851562,170.101562 C226.872396,170.96615 227.087238,171.66406 227.496094,172.195312 C227.90495,172.726565 228.486975,172.992188 229.242188,172.992188 C229.768232,172.992188 230.222654,172.919272 230.605469,172.773438 C230.988283,172.627603 231.333332,172.421876 231.640625,172.15625 L232.210938,173.117188 C231.903644,173.419272 231.509117,173.667968 231.027344,173.863281 C230.545571,174.058595 229.950524,174.15625 229.242188,174.15625 L229.242188,174.15625 Z M229.007812,166.5625 C228.460935,166.5625 227.9987,166.78255 227.621094,167.222656 C227.243488,167.662763 227.002605,168.234371 226.898438,168.9375 L231.007812,168.9375 L231.007812,168.734375 C231.007812,168.104164 230.841147,167.584637 230.507812,167.175781 C230.174478,166.766925 229.674483,166.5625 229.007812,166.5625 L229.007812,166.5625 Z M241.0625,174 L239.617188,174 L239.617188,170.375 L235.734375,170.375 L235.734375,174 L234.28125,174 L234.28125,165.546875 L235.734375,165.546875 L235.734375,169.21875 L239.617188,169.21875 L239.617188,165.546875 L241.0625,165.546875 L241.0625,174 Z M248.851562,165.546875 L250.296875,165.546875 L250.296875,174 L248.851562,174 L248.851562,167.820312 L248.828125,167.820312 L244.953125,174 L243.507812,174 L243.507812,165.546875 L244.953125,165.546875 L244.953125,171.71875 L244.976562,171.71875 L248.851562,165.546875 Z M258.085938,165.546875 L259.53125,165.546875 L259.53125,174 L258.085938,174 L258.085938,167.820312 L258.0625,167.820312 L254.1875,174 L252.742188,174 L252.742188,165.546875 L254.1875,165.546875 L254.1875,171.71875 L254.210938,171.71875 L258.085938,165.546875 Z" id="Shape" fill="#FFFFFF"></path>
        </g>
    </g>
</svg>