<?xml version="1.0" encoding="UTF-8"?>
<svg width="303px" height="212px" viewBox="0 0 303 212" version="1.1" xmlns="http://www.w3.org/2000/svg" xmlns:xlink="http://www.w3.org/1999/xlink">
    <!-- Generator: Sketch 3.8.3 (29802) - http://www.bohemiancoding.com/sketch -->
    <title>vzhk</title>
    <desc>Created with Sketch.</desc>
    <defs></defs>
    <g id="new" stroke="none" stroke-width="1" fill="none" fill-rule="evenodd">
        <g id="vzhk" transform="translate(-1.000000, 0.000000)">
            <polygon id="Rectangle-29" fill="#4A90E2" points="2 0 304 0 304 113 13.8572221 113 2 113"></polygon>
            <path d="M1.5,0.5 L1.5,210.509521" id="Line" stroke="#4A90E2" stroke-linecap="square"></path>
            <path d="M79.421875,38.296875 C79.421875,35.7551956 80.0937433,33.7005287 81.4375,32.1328125 C82.7812567,30.5650963 84.5989469,29.78125 86.890625,29.78125 C89.1927198,29.78125 91.0156183,30.5650963 92.359375,32.1328125 C93.7031317,33.7005287 94.375,35.7551956 94.375,38.296875 L94.375,38.8125 C94.375,41.3645961 93.7057359,43.419263 92.3671875,44.9765625 C91.0286391,46.533862 89.2135531,47.3125 86.921875,47.3125 C84.6093634,47.3125 82.7812567,46.533862 81.4375,44.9765625 C80.0937433,43.419263 79.421875,41.3645961 79.421875,38.8125 L79.421875,38.296875 Z M81.296875,38.8125 C81.296875,40.81251 81.7838493,42.4661393 82.7578125,43.7734375 C83.7317757,45.0807357 85.1197827,45.734375 86.921875,45.734375 C88.7031339,45.734375 90.0807243,45.0807357 91.0546875,43.7734375 C92.0286507,42.4661393 92.515625,40.81251 92.515625,38.8125 L92.515625,38.296875 C92.515625,36.3385319 92.0234424,34.6953191 91.0390625,33.3671875 C90.0546826,32.0390559 88.6718839,31.375 86.890625,31.375 C85.0989494,31.375 83.7187548,32.0390559 82.75,33.3671875 C81.7812452,34.6953191 81.296875,36.3385319 81.296875,38.296875 L81.296875,38.8125 Z M105.0625,31.21875 C107.281261,31.21875 109.039056,31.9140555 110.335938,33.3046875 C111.632819,34.6953195 112.28125,36.520822 112.28125,38.78125 L112.28125,39.296875 C112.28125,41.703137 111.611986,43.6432218 110.273438,45.1171875 C108.934889,46.5911532 107.114595,47.328125 104.8125,47.328125 C102.510405,47.328125 100.687507,46.5911532 99.34375,45.1171875 C97.9999933,43.6432218 97.328125,41.703137 97.328125,39.296875 L97.328125,37.359375 C97.328125,33.8906077 97.9973891,31.1484476 99.3359375,29.1328125 C100.674486,27.1171774 102.536446,25.9114603 104.921875,25.515625 C106.515633,25.2760405 107.632809,24.9479187 108.273438,24.53125 C108.914066,24.1145813 109.234375,23.5156289 109.234375,22.734375 L110.84375,22.734375 C110.84375,24.2135491 110.382817,25.2630177 109.460938,25.8828125 C108.539058,26.5026073 107.151051,26.9322905 105.296875,27.171875 C103.703117,27.3802094 102.367193,28.0442652 101.289062,29.1640625 C100.210932,30.2838598 99.5000017,31.8593648 99.15625,33.890625 L99.203125,33.921875 C99.9010452,33.0885375 100.744787,32.4296899 101.734375,31.9453125 C102.723963,31.4609351 103.833327,31.21875 105.0625,31.21875 L105.0625,31.21875 Z M104.78125,32.796875 C102.999991,32.796875 101.625005,33.3697859 100.65625,34.515625 C99.6874952,35.6614641 99.203125,37.0833248 99.203125,38.78125 L99.203125,39.296875 C99.203125,41.1510509 99.6874952,42.690098 100.65625,43.9140625 C101.625005,45.138027 103.010408,45.75 104.8125,45.75 C106.593759,45.75 107.971349,45.138027 108.945312,43.9140625 C109.919276,42.690098 110.40625,41.1510509 110.40625,39.296875 L110.40625,38.78125 C110.40625,37.0729081 109.916672,35.6484432 108.9375,34.5078125 C107.958328,33.3671818 106.572926,32.796875 104.78125,32.796875 L104.78125,32.796875 Z M117.515625,30.09375 L117.515625,45.421875 L125.03125,45.421875 L125.03125,30.09375 L126.90625,30.09375 L126.90625,45.421875 L134.359375,45.421875 L134.359375,30.09375 L136.234375,30.09375 L136.234375,45.40625 L138.265625,45.40625 L138.125,52.015625 L136.40625,52.015625 L136.40625,47 L115.640625,47 L115.640625,30.09375 L117.515625,30.09375 Z M148,47.3125 C145.749989,47.3125 143.929694,46.5494868 142.539062,45.0234375 C141.148431,43.4973882 140.453125,41.5052206 140.453125,39.046875 L140.453125,38.1875 C140.453125,35.7187377 141.143222,33.7005287 142.523438,32.1328125 C143.903653,30.5650963 145.598948,29.78125 147.609375,29.78125 C149.723969,29.78125 151.361973,30.4244727 152.523438,31.7109375 C153.684902,32.9974023 154.265625,34.7604055 154.265625,37 L154.265625,38.59375 L142.328125,38.59375 L142.328125,39.046875 C142.328125,40.9843847 142.843745,42.583327 143.875,43.84375 C144.906255,45.104173 146.281241,45.734375 148,45.734375 C149.031255,45.734375 149.934892,45.585939 150.710938,45.2890625 C151.486983,44.992186 152.223955,44.5208366 152.921875,43.875 L153.71875,45.15625 C153.08333,45.82292 152.307296,46.3489564 151.390625,46.734375 C150.473954,47.1197936 149.343757,47.3125 148,47.3125 L148,47.3125 Z M147.609375,31.375 C146.203118,31.375 145.033859,31.8984323 144.101562,32.9453125 C143.169266,33.9921927 142.598959,35.34895 142.390625,37.015625 L152.40625,37.015625 L152.40625,36.546875 C152.40625,35.0468675 151.984379,33.8099007 151.140625,32.8359375 C150.296871,31.8619743 149.119799,31.375 147.609375,31.375 L147.609375,31.375 Z M170.859375,39.1875 L168.609375,39.1875 L168.609375,47 L166.734375,47 L166.734375,39.1875 L164.5,39.1875 L158.25,47 L155.875,47 L162.9375,38.234375 L156.65625,30.09375 L158.921875,30.09375 L164.46875,37.515625 L166.734375,37.515625 L166.734375,30.09375 L168.609375,30.09375 L168.609375,37.515625 L170.890625,37.515625 L176.4375,30.09375 L178.734375,30.09375 L172.421875,38.25 L179.5,47 L177.109375,47 L170.859375,39.1875 Z M193.59375,30.09375 L195.46875,30.09375 L195.46875,47 L193.59375,47 L193.59375,33.109375 L193.546875,33.09375 L184.46875,47 L182.609375,47 L182.609375,30.09375 L184.46875,30.09375 L184.46875,43.984375 L184.515625,44 L193.59375,30.09375 Z M212.609375,31.6875 L206.453125,31.6875 L206.453125,47 L204.578125,47 L204.578125,31.6875 L198.65625,31.6875 L198.65625,30.09375 L212.609375,30.09375 L212.609375,31.6875 Z M226.78125,30.09375 L228.65625,30.09375 L228.65625,47 L226.78125,47 L226.78125,33.109375 L226.734375,33.09375 L217.65625,47 L215.796875,47 L215.796875,30.09375 L217.65625,30.09375 L217.65625,43.984375 L217.703125,44 L226.78125,30.09375 Z M244.765625,30.09375 L246.640625,30.09375 L246.640625,47 L244.765625,47 L244.765625,33.109375 L244.71875,33.09375 L235.640625,47 L233.78125,47 L233.78125,30.09375 L235.640625,30.09375 L235.640625,43.984375 L235.6875,44 L244.765625,30.09375 Z M244.671875,23.390625 C244.671875,24.6197978 244.270837,25.5989547 243.46875,26.328125 C242.666663,27.0572953 241.562507,27.421875 240.15625,27.421875 C238.739576,27.421875 237.632816,27.0572953 236.835938,26.328125 C236.039059,25.5989547 235.640625,24.6197978 235.640625,23.390625 L237.234375,23.390625 C237.234375,24.2031291 237.463539,24.8515601 237.921875,25.3359375 C238.380211,25.8203149 239.124995,26.0625 240.15625,26.0625 C241.156255,26.0625 241.893227,25.8177108 242.367188,25.328125 C242.841148,24.8385392 243.078125,24.1927123 243.078125,23.390625 L244.671875,23.390625 Z" id="общежитий" fill="#FFFFFF"></path>
            <path d="M79.1513672,69.1123047 C79.6669948,68.4677702 80.0712876,67.8085971 80.3642578,67.1347656 C80.657228,66.4609341 80.8359372,65.3916089 80.9003906,63.9267578 L81.0585938,60.4902344 L86.6748047,60.4902344 L86.6748047,69.1123047 L87.6591797,69.1123047 L87.6591797,72.7949219 L86.6132812,72.7949219 L86.6132812,70 L79.4677734,70 L79.4677734,72.7949219 L78.4570312,72.7949219 L78.4658203,69.1123047 L79.1513672,69.1123047 Z M81.9462891,63.9267578 C81.8935544,65.1923891 81.7294936,66.2353475 81.4541016,67.0556641 C81.1787096,67.8759807 80.8154319,68.5615207 80.3642578,69.1123047 L85.6201172,69.1123047 L85.6201172,61.4746094 L82.0605469,61.4746094 L81.9462891,63.9267578 Z M93.3720703,70.1757812 C92.106439,70.1757812 91.0825234,69.7465863 90.300293,68.8881836 C89.5180625,68.0297809 89.1269531,66.9091866 89.1269531,65.5263672 L89.1269531,65.0429688 C89.1269531,63.6542899 89.5151328,62.5190474 90.2915039,61.637207 C91.067875,60.7553667 92.0214787,60.3144531 93.1523438,60.3144531 C94.3418028,60.3144531 95.2631803,60.6762659 95.9165039,61.3999023 C96.5698275,62.1235388 96.8964844,63.1152281 96.8964844,64.375 L96.8964844,65.2714844 L90.1816406,65.2714844 L90.1816406,65.5263672 C90.1816406,66.6162164 90.4716768,67.5156215 91.0517578,68.2246094 C91.6318388,68.9335973 92.4052686,69.2880859 93.3720703,69.2880859 C93.9521513,69.2880859 94.460447,69.2045907 94.8969727,69.0375977 C95.3334983,68.8706046 95.7480449,68.6054706 96.140625,68.2421875 L96.5888672,68.9628906 C96.2314435,69.3378925 95.7949245,69.633788 95.2792969,69.8505859 C94.7636693,70.0673839 94.1279335,70.1757812 93.3720703,70.1757812 L93.3720703,70.1757812 Z M93.1523438,61.2109375 C92.3613242,61.2109375 91.7036159,61.5053681 91.1791992,62.0942383 C90.6547825,62.6831084 90.333985,63.4462844 90.2167969,64.3837891 L95.8505859,64.3837891 L95.8505859,64.1201172 C95.8505859,63.276363 95.6132836,62.5805691 95.1386719,62.0327148 C94.6640601,61.4848605 94.0019574,61.2109375 93.1523438,61.2109375 L93.1523438,61.2109375 Z M105.210938,60.4902344 L106.265625,60.4902344 L106.265625,70 L105.210938,70 L105.210938,62.1865234 L105.18457,62.1777344 L100.078125,70 L99.0322266,70 L99.0322266,60.4902344 L100.078125,60.4902344 L100.078125,68.3037109 L100.104492,68.3125 L105.210938,60.4902344 Z M105.158203,56.7197266 C105.158203,57.4111363 104.932619,57.961912 104.481445,58.3720703 C104.030271,58.7822286 103.409184,58.9873047 102.618164,58.9873047 C101.821285,58.9873047 101.198733,58.7822286 100.750488,58.3720703 C100.302244,57.961912 100.078125,57.4111363 100.078125,56.7197266 L100.974609,56.7197266 C100.974609,57.1767601 101.103514,57.5415025 101.361328,57.8139648 C101.619142,58.0864271 102.038083,58.2226562 102.618164,58.2226562 C103.180667,58.2226562 103.595214,58.0849623 103.861816,57.8095703 C104.128419,57.5341783 104.261719,57.1709007 104.261719,56.7197266 L105.158203,56.7197266 Z M112.620117,69.2880859 C113.334965,69.2880859 113.945798,69.0947285 114.452637,68.7080078 C114.959475,68.3212871 115.230469,67.773441 115.265625,67.0644531 L116.276367,67.0644531 C116.24707,67.9785202 115.880863,68.725583 115.177734,69.3056641 C114.474606,69.8857451 113.622075,70.1757812 112.620117,70.1757812 C111.301751,70.1757812 110.295414,69.740727 109.601074,68.8706055 C108.906735,68.0004839 108.55957,66.8535227 108.55957,65.4296875 L108.55957,65.0605469 C108.55957,63.6484304 108.906735,62.5043989 109.601074,61.628418 C110.295414,60.752437 111.298822,60.3144531 112.611328,60.3144531 C113.666021,60.3144531 114.5332,60.6191376 115.212891,61.2285156 C115.892582,61.8378937 116.24707,62.6611276 116.276367,63.6982422 L115.265625,63.6982422 C115.236328,62.9365196 114.972659,62.3315452 114.474609,61.8833008 C113.97656,61.4350564 113.355472,61.2109375 112.611328,61.2109375 C111.568354,61.2109375 110.808108,61.5712855 110.330566,62.2919922 C109.853025,63.0126989 109.614258,63.9355412 109.614258,65.0605469 L109.614258,65.4296875 C109.614258,66.5781307 109.853025,67.5082972 110.330566,68.2202148 C110.808108,68.9321325 111.571284,69.2880859 112.620117,69.2880859 L112.620117,69.2880859 Z M125.232422,61.3867188 L121.769531,61.3867188 L121.769531,70 L120.714844,70 L120.714844,61.3867188 L117.383789,61.3867188 L117.383789,60.4902344 L125.232422,60.4902344 L125.232422,61.3867188 Z M127.069336,70 L127.069336,60.4902344 L130.558594,60.4902344 C131.765631,60.4902344 132.691403,60.6982401 133.335938,61.1142578 C133.980472,61.5302755 134.302734,62.168941 134.302734,63.0302734 C134.302734,63.5224634 134.160646,63.9501935 133.876465,64.3134766 C133.592284,64.6767596 133.189456,64.9374992 132.667969,65.0957031 L132.667969,65.1220703 C133.277347,65.233399 133.765135,65.4956034 134.131348,65.9086914 C134.49756,66.3217794 134.680664,66.8066378 134.680664,67.3632812 C134.680664,68.2421919 134.371585,68.901365 133.753418,69.3408203 C133.135251,69.7802756 132.272466,70 131.165039,70 L127.069336,70 Z M128.115234,65.6230469 L128.115234,69.1210938 L131.165039,69.1210938 C131.967777,69.1210938 132.580076,68.9716812 133.001953,68.6728516 C133.42383,68.3740219 133.634766,67.9316436 133.634766,67.3457031 C133.634766,66.8066379 133.420901,66.3847671 132.993164,66.0800781 C132.565428,65.7753891 131.956059,65.6230469 131.165039,65.6230469 L128.115234,65.6230469 Z M128.115234,64.7441406 L130.77832,64.7441406 C131.604496,64.7324218 132.224119,64.5874037 132.637207,64.309082 C133.050295,64.0307603 133.256836,63.613284 133.256836,63.0566406 C133.256836,62.482419 133.034182,62.0605482 132.588867,61.7910156 C132.143552,61.521483 131.466801,61.3867188 130.558594,61.3867188 L128.115234,61.3867188 L128.115234,64.7441406 Z M139.637695,67.4248047 L139.989258,68.59375 L140.015625,68.59375 L142.898438,60.4902344 L144.076172,60.4902344 L139.945312,71.5205078 C139.693358,72.1826205 139.37549,72.7348611 138.991699,73.1772461 C138.607908,73.6196311 138.03223,73.8408203 137.264648,73.8408203 C137.141601,73.8408203 136.993653,73.8276369 136.820801,73.8012695 C136.647948,73.7749022 136.517579,73.7470705 136.429688,73.7177734 L136.552734,72.8388672 C136.623047,72.850586 136.735839,72.8637695 136.891113,72.878418 C137.046387,72.8930665 137.159179,72.9003906 137.229492,72.9003906 C137.704104,72.9003906 138.060057,72.7670912 138.297363,72.5004883 C138.534669,72.2338854 138.779296,71.7871125 139.03125,71.1601562 L139.532227,69.8769531 L135.858398,60.4902344 L137.027344,60.4902344 L139.637695,67.4248047 Z M149.296875,70.1757812 C148.031244,70.1757812 147.007328,69.7465863 146.225098,68.8881836 C145.442867,68.0297809 145.051758,66.9091866 145.051758,65.5263672 L145.051758,65.0429688 C145.051758,63.6542899 145.439938,62.5190474 146.216309,61.637207 C146.99268,60.7553667 147.946283,60.3144531 149.077148,60.3144531 C150.266608,60.3144531 151.187985,60.6762659 151.841309,61.3999023 C152.494632,62.1235388 152.821289,63.1152281 152.821289,64.375 L152.821289,65.2714844 L146.106445,65.2714844 L146.106445,65.5263672 C146.106445,66.6162164 146.396481,67.5156215 146.976562,68.2246094 C147.556644,68.9335973 148.330073,69.2880859 149.296875,69.2880859 C149.876956,69.2880859 150.385252,69.2045907 150.821777,69.0375977 C151.258303,68.8706046 151.67285,68.6054706 152.06543,68.2421875 L152.513672,68.9628906 C152.156248,69.3378925 151.719729,69.633788 151.204102,69.8505859 C150.688474,70.0673839 150.052738,70.1757812 149.296875,70.1757812 L149.296875,70.1757812 Z M149.077148,61.2109375 C148.286129,61.2109375 147.628421,61.5053681 147.104004,62.0942383 C146.579587,62.6831084 146.25879,63.4462844 146.141602,64.3837891 L151.775391,64.3837891 L151.775391,64.1201172 C151.775391,63.276363 151.538088,62.5805691 151.063477,62.0327148 C150.588865,61.4848605 149.926762,61.2109375 149.077148,61.2109375 L149.077148,61.2109375 Z M161.619141,61.3867188 L158.15625,61.3867188 L158.15625,70 L157.101562,70 L157.101562,61.3867188 L153.770508,61.3867188 L153.770508,60.4902344 L161.619141,60.4902344 L161.619141,61.3867188 Z M175.022461,70 L173.967773,70 L173.967773,65.640625 L168.84375,65.640625 L168.84375,70 L167.789062,70 L167.789062,60.4902344 L168.84375,60.4902344 L168.84375,64.7529297 L173.967773,64.7529297 L173.967773,60.4902344 L175.022461,60.4902344 L175.022461,70 Z M183.873047,70 C183.802734,69.6718734 183.75293,69.3964855 183.723633,69.1738281 C183.694336,68.9511708 183.679688,68.7255871 183.679688,68.4970703 L183.65332,68.4882812 C183.307615,68.9804712 182.847659,69.384764 182.273438,69.7011719 C181.699216,70.0175797 181.040043,70.1757812 180.295898,70.1757812 C179.352534,70.1757812 178.628909,69.9355493 178.125,69.4550781 C177.621091,68.974607 177.369141,68.3125042 177.369141,67.46875 C177.369141,66.5722611 177.742672,65.8647487 178.489746,65.3461914 C179.23682,64.8276341 180.266595,64.5683594 181.579102,64.5683594 L183.679688,64.5683594 L183.679688,63.390625 C183.679688,62.6992153 183.464358,62.1630878 183.033691,61.7822266 C182.603025,61.4013653 181.989262,61.2109375 181.192383,61.2109375 C180.442379,61.2109375 179.83008,61.3940411 179.355469,61.7602539 C178.880857,62.1264667 178.643555,62.5790989 178.643555,63.1181641 L177.597656,63.109375 C177.597656,62.3593712 177.936032,61.7060575 178.612793,61.1494141 C179.289554,60.5927707 180.164057,60.3144531 181.236328,60.3144531 C182.308599,60.3144531 183.1582,60.5766575 183.785156,61.1010742 C184.412113,61.6254909 184.725586,62.3945262 184.725586,63.4082031 L184.725586,68.0839844 C184.725586,68.4238298 184.743164,68.7490219 184.77832,69.0595703 C184.813477,69.3701187 184.877929,69.6835922 184.97168,70 L183.873047,70 Z M180.418945,69.2529297 C181.192387,69.2529297 181.864743,69.078615 182.436035,68.7299805 C183.007327,68.3813459 183.421874,67.9257841 183.679688,67.3632812 L183.679688,65.3769531 L181.561523,65.3769531 C180.588862,65.3769531 179.821292,65.5776347 179.258789,65.9790039 C178.696286,66.3803731 178.415039,66.8886688 178.415039,67.5039062 C178.415039,68.0253932 178.589354,68.447264 178.937988,68.7695312 C179.286623,69.0917985 179.78027,69.2529297 180.418945,69.2529297 L180.418945,69.2529297 Z M198.717773,61.3867188 L195.254883,61.3867188 L195.254883,70 L194.200195,70 L194.200195,61.3867188 L190.869141,61.3867188 L190.869141,60.4902344 L198.717773,60.4902344 L198.717773,61.3867188 Z M203.419922,70.1757812 C202.154291,70.1757812 201.130375,69.7465863 200.348145,68.8881836 C199.565914,68.0297809 199.174805,66.9091866 199.174805,65.5263672 L199.174805,65.0429688 C199.174805,63.6542899 199.562984,62.5190474 200.339355,61.637207 C201.115727,60.7553667 202.06933,60.3144531 203.200195,60.3144531 C204.389654,60.3144531 205.311032,60.6762659 205.964355,61.3999023 C206.617679,62.1235388 206.944336,63.1152281 206.944336,64.375 L206.944336,65.2714844 L200.229492,65.2714844 L200.229492,65.5263672 C200.229492,66.6162164 200.519528,67.5156215 201.099609,68.2246094 C201.67969,68.9335973 202.45312,69.2880859 203.419922,69.2880859 C204.000003,69.2880859 204.508299,69.2045907 204.944824,69.0375977 C205.38135,68.8706046 205.795896,68.6054706 206.188477,68.2421875 L206.636719,68.9628906 C206.279295,69.3378925 205.842776,69.633788 205.327148,69.8505859 C204.811521,70.0673839 204.175785,70.1757812 203.419922,70.1757812 L203.419922,70.1757812 Z M203.200195,61.2109375 C202.409176,61.2109375 201.751467,61.5053681 201.227051,62.0942383 C200.702634,62.6831084 200.381837,63.4462844 200.264648,64.3837891 L205.898438,64.3837891 L205.898438,64.1201172 C205.898438,63.276363 205.661135,62.5805691 205.186523,62.0327148 C204.711912,61.4848605 204.049809,61.2109375 203.200195,61.2109375 L203.200195,61.2109375 Z M216.682617,65.5087891 C216.682617,66.9560619 216.366214,68.095699 215.733398,68.9277344 C215.100583,69.7597698 214.207037,70.1757812 213.052734,70.1757812 C212.373043,70.1757812 211.788577,70.0542004 211.299316,69.8110352 C210.810056,69.5678699 210.410158,69.2148461 210.099609,68.7519531 L210.073242,68.7607422 L210.073242,73.65625 L209.018555,73.65625 L209.018555,60.4902344 L209.90625,60.4902344 L210.038086,61.9228516 L210.055664,61.9316406 C210.372072,61.4101536 210.7749,61.0102553 211.26416,60.7319336 C211.75342,60.4536119 212.343747,60.3144531 213.035156,60.3144531 C214.201178,60.3144531 215.100583,60.761226 215.733398,61.6547852 C216.366214,62.5483443 216.682617,63.7714766 216.682617,65.3242188 L216.682617,65.5087891 Z M215.62793,65.3242188 C215.62793,64.0937438 215.392092,63.1035194 214.92041,62.3535156 C214.448728,61.6035119 213.741216,61.2285156 212.797852,61.2285156 C212.077145,61.2285156 211.500002,61.3940413 211.066406,61.7250977 C210.63281,62.056154 210.301759,62.4970676 210.073242,63.0478516 L210.073242,67.609375 C210.319337,68.1425808 210.665037,68.5556626 211.110352,68.8486328 C211.555666,69.141603 212.12402,69.2880859 212.81543,69.2880859 C213.752934,69.2880859 214.456052,68.9497104 214.924805,68.2729492 C215.393557,67.596188 215.62793,66.6748105 215.62793,65.5087891 L215.62793,65.3242188 Z M226.702148,65.5087891 C226.702148,66.9560619 226.385745,68.095699 225.75293,68.9277344 C225.120114,69.7597698 224.226568,70.1757812 223.072266,70.1757812 C222.392575,70.1757812 221.808108,70.0542004 221.318848,69.8110352 C220.829587,69.5678699 220.429689,69.2148461 220.119141,68.7519531 L220.092773,68.7607422 L220.092773,73.65625 L219.038086,73.65625 L219.038086,60.4902344 L219.925781,60.4902344 L220.057617,61.9228516 L220.075195,61.9316406 C220.391603,61.4101536 220.794431,61.0102553 221.283691,60.7319336 C221.772952,60.4536119 222.363278,60.3144531 223.054688,60.3144531 C224.220709,60.3144531 225.120114,60.761226 225.75293,61.6547852 C226.385745,62.5483443 226.702148,63.7714766 226.702148,65.3242188 L226.702148,65.5087891 Z M225.647461,65.3242188 C225.647461,64.0937438 225.411623,63.1035194 224.939941,62.3535156 C224.468259,61.6035119 223.760747,61.2285156 222.817383,61.2285156 C222.096676,61.2285156 221.519533,61.3940413 221.085938,61.7250977 C220.652342,62.056154 220.32129,62.4970676 220.092773,63.0478516 L220.092773,67.609375 C220.338868,68.1425808 220.684568,68.5556626 221.129883,68.8486328 C221.575198,69.141603 222.143551,69.2880859 222.834961,69.2880859 C223.772466,69.2880859 224.475584,68.9497104 224.944336,68.2729492 C225.413088,67.596188 225.647461,66.6748105 225.647461,65.5087891 L225.647461,65.3242188 Z M235.297852,60.4902344 L236.352539,60.4902344 L236.352539,70 L235.297852,70 L235.297852,62.1865234 L235.271484,62.1777344 L230.165039,70 L229.119141,70 L229.119141,60.4902344 L230.165039,60.4902344 L230.165039,68.3037109 L230.191406,68.3125 L235.297852,60.4902344 Z M245.994141,61.3867188 L242.53125,61.3867188 L242.53125,70 L241.476562,70 L241.476562,61.3867188 L238.145508,61.3867188 L238.145508,60.4902344 L245.994141,60.4902344 L245.994141,61.3867188 Z M246.776367,65.1044922 C246.776367,63.6747975 247.154293,62.5190474 247.910156,61.637207 C248.666019,60.7553667 249.68847,60.3144531 250.977539,60.3144531 C252.272467,60.3144531 253.297848,60.7553667 254.053711,61.637207 C254.809574,62.5190474 255.1875,63.6747975 255.1875,65.1044922 L255.1875,65.3945312 C255.1875,66.8300853 254.811039,67.9858355 254.058105,68.8618164 C253.305172,69.7377973 252.284186,70.1757812 250.995117,70.1757812 C249.694329,70.1757812 248.666019,69.7377973 247.910156,68.8618164 C247.154293,67.9858355 246.776367,66.8300853 246.776367,65.3945312 L246.776367,65.1044922 Z M247.831055,65.3945312 C247.831055,66.5195369 248.104978,67.4497034 248.652832,68.1850586 C249.200686,68.9204138 249.98144,69.2880859 250.995117,69.2880859 C251.997075,69.2880859 252.77197,68.9204138 253.319824,68.1850586 C253.867679,67.4497034 254.141602,66.5195369 254.141602,65.3945312 L254.141602,65.1044922 C254.141602,64.0029242 253.864749,63.078617 253.311035,62.331543 C252.757321,61.5844689 251.979497,61.2109375 250.977539,61.2109375 C249.969722,61.2109375 249.193362,61.5844689 248.648438,62.331543 C248.103513,63.078617 247.831055,64.0029242 247.831055,65.1044922 L247.831055,65.3945312 Z M265.040039,65.5087891 C265.040039,66.9560619 264.723636,68.095699 264.09082,68.9277344 C263.458005,69.7597698 262.564459,70.1757812 261.410156,70.1757812 C260.730465,70.1757812 260.145999,70.0542004 259.656738,69.8110352 C259.167478,69.5678699 258.76758,69.2148461 258.457031,68.7519531 L258.430664,68.7607422 L258.430664,73.65625 L257.375977,73.65625 L257.375977,60.4902344 L258.263672,60.4902344 L258.395508,61.9228516 L258.413086,61.9316406 C258.729494,61.4101536 259.132322,61.0102553 259.621582,60.7319336 C260.110842,60.4536119 260.701168,60.3144531 261.392578,60.3144531 C262.5586,60.3144531 263.458005,60.761226 264.09082,61.6547852 C264.723636,62.5483443 265.040039,63.7714766 265.040039,65.3242188 L265.040039,65.5087891 Z M263.985352,65.3242188 C263.985352,64.0937438 263.749514,63.1035194 263.277832,62.3535156 C262.80615,61.6035119 262.098638,61.2285156 261.155273,61.2285156 C260.434567,61.2285156 259.857424,61.3940413 259.423828,61.7250977 C258.990232,62.056154 258.659181,62.4970676 258.430664,63.0478516 L258.430664,67.609375 C258.676759,68.1425808 259.022459,68.5556626 259.467773,68.8486328 C259.913088,69.141603 260.481442,69.2880859 261.172852,69.2880859 C262.110356,69.2880859 262.813474,68.9497104 263.282227,68.2729492 C263.750979,67.596188 263.985352,66.6748105 263.985352,65.5087891 L263.985352,65.3242188 Z M273.635742,60.4902344 L274.69043,60.4902344 L274.69043,70 L273.635742,70 L273.635742,62.1865234 L273.609375,62.1777344 L268.50293,70 L267.457031,70 L267.457031,60.4902344 L268.50293,60.4902344 L268.50293,68.3037109 L268.529297,68.3125 L273.635742,60.4902344 Z M283.751953,60.4902344 L284.806641,60.4902344 L284.806641,70 L283.751953,70 L283.751953,62.1865234 L283.725586,62.1777344 L278.619141,70 L277.573242,70 L277.573242,60.4902344 L278.619141,60.4902344 L278.619141,68.3037109 L278.645508,68.3125 L283.751953,60.4902344 Z M84.6357422,89.5761719 L88.4150391,81.4902344 L89.7158203,81.4902344 L89.7158203,91 L88.6611328,91 L88.6611328,83.2568359 L88.6347656,83.2480469 L85.0048828,91 L84.2578125,91 L80.5576172,83.0722656 L80.53125,83.0810547 L80.53125,91 L79.4853516,91 L79.4853516,81.4902344 L80.8652344,81.4902344 L84.6357422,89.5761719 Z M96.2109375,91.1757812 C94.9453062,91.1757812 93.9213906,90.7465863 93.1391602,89.8881836 C92.3569297,89.0297809 91.9658203,87.9091866 91.9658203,86.5263672 L91.9658203,86.0429688 C91.9658203,84.6542899 92.354,83.5190474 93.1303711,82.637207 C93.9067422,81.7553667 94.8603459,81.3144531 95.9912109,81.3144531 C97.18067,81.3144531 98.1020475,81.6762659 98.7553711,82.3999023 C99.4086947,83.1235388 99.7353516,84.1152281 99.7353516,85.375 L99.7353516,86.2714844 L93.0205078,86.2714844 L93.0205078,86.5263672 C93.0205078,87.6162164 93.310544,88.5156215 93.890625,89.2246094 C94.470706,89.9335973 95.2441358,90.2880859 96.2109375,90.2880859 C96.7910185,90.2880859 97.2993142,90.2045907 97.7358398,90.0375977 C98.1723655,89.8706046 98.5869121,89.6054706 98.9794922,89.2421875 L99.4277344,89.9628906 C99.0703107,90.3378925 98.6337916,90.633788 98.1181641,90.8505859 C97.6025365,91.0673839 96.9668007,91.1757812 96.2109375,91.1757812 L96.2109375,91.1757812 Z M95.9912109,82.2109375 C95.2001914,82.2109375 94.5424831,82.5053681 94.0180664,83.0942383 C93.4936497,83.6831084 93.1728521,84.4462844 93.0556641,85.3837891 L98.6894531,85.3837891 L98.6894531,85.1201172 C98.6894531,84.276363 98.4521508,83.5805691 97.9775391,83.0327148 C97.5029273,82.4848605 96.8408246,82.2109375 95.9912109,82.2109375 L95.9912109,82.2109375 Z M105.342773,90.2880859 C106.057621,90.2880859 106.668454,90.0947285 107.175293,89.7080078 C107.682131,89.3212871 107.953125,88.773441 107.988281,88.0644531 L108.999023,88.0644531 C108.969726,88.9785202 108.603519,89.725583 107.900391,90.3056641 C107.197262,90.8857451 106.344732,91.1757812 105.342773,91.1757812 C104.024407,91.1757812 103.01807,90.740727 102.32373,89.8706055 C101.629391,89.0004839 101.282227,87.8535227 101.282227,86.4296875 L101.282227,86.0605469 C101.282227,84.6484304 101.629391,83.5043989 102.32373,82.628418 C103.01807,81.752437 104.021478,81.3144531 105.333984,81.3144531 C106.388677,81.3144531 107.255856,81.6191376 107.935547,82.2285156 C108.615238,82.8378937 108.969726,83.6611276 108.999023,84.6982422 L107.988281,84.6982422 C107.958984,83.9365196 107.695315,83.3315452 107.197266,82.8833008 C106.699216,82.4350564 106.078129,82.2109375 105.333984,82.2109375 C104.29101,82.2109375 103.530764,82.5712855 103.053223,83.2919922 C102.575681,84.0126989 102.336914,84.9355412 102.336914,86.0605469 L102.336914,86.4296875 C102.336914,87.5781307 102.575681,88.5082972 103.053223,89.2202148 C103.530764,89.9321325 104.29394,90.2880859 105.342773,90.2880859 L105.342773,90.2880859 Z M117.955078,82.3867188 L114.492188,82.3867188 L114.492188,91 L113.4375,91 L113.4375,82.3867188 L110.106445,82.3867188 L110.106445,81.4902344 L117.955078,81.4902344 L117.955078,82.3867188 Z M118.737305,86.1044922 C118.737305,84.6747975 119.115231,83.5190474 119.871094,82.637207 C120.626957,81.7553667 121.649408,81.3144531 122.938477,81.3144531 C124.233405,81.3144531 125.258785,81.7553667 126.014648,82.637207 C126.770512,83.5190474 127.148438,84.6747975 127.148438,86.1044922 L127.148438,86.3945312 C127.148438,87.8300853 126.771976,88.9858355 126.019043,89.8618164 C125.26611,90.7377973 124.245124,91.1757812 122.956055,91.1757812 C121.655267,91.1757812 120.626957,90.7377973 119.871094,89.8618164 C119.115231,88.9858355 118.737305,87.8300853 118.737305,86.3945312 L118.737305,86.1044922 Z M119.791992,86.3945312 C119.791992,87.5195369 120.065915,88.4497034 120.61377,89.1850586 C121.161624,89.9204138 121.942378,90.2880859 122.956055,90.2880859 C123.958013,90.2880859 124.732907,89.9204138 125.280762,89.1850586 C125.828616,88.4497034 126.102539,87.5195369 126.102539,86.3945312 L126.102539,86.1044922 C126.102539,85.0029242 125.825686,84.078617 125.271973,83.331543 C124.718259,82.5844689 123.940435,82.2109375 122.938477,82.2109375 C121.930659,82.2109375 121.1543,82.5844689 120.609375,83.331543 C120.06445,84.078617 119.791992,85.0029242 119.791992,86.1044922 L119.791992,86.3945312 Z M137.000977,86.5087891 C137.000977,87.9560619 136.684573,89.095699 136.051758,89.9277344 C135.418942,90.7597698 134.525396,91.1757812 133.371094,91.1757812 C132.691403,91.1757812 132.106936,91.0542004 131.617676,90.8110352 C131.128416,90.5678699 130.728517,90.2148461 130.417969,89.7519531 L130.391602,89.7607422 L130.391602,94.65625 L129.336914,94.65625 L129.336914,81.4902344 L130.224609,81.4902344 L130.356445,82.9228516 L130.374023,82.9316406 C130.690431,82.4101536 131.093259,82.0102553 131.58252,81.7319336 C132.07178,81.4536119 132.662106,81.3144531 133.353516,81.3144531 C134.519537,81.3144531 135.418942,81.761226 136.051758,82.6547852 C136.684573,83.5483443 137.000977,84.7714766 137.000977,86.3242188 L137.000977,86.5087891 Z M135.946289,86.3242188 C135.946289,85.0937438 135.710452,84.1035194 135.23877,83.3535156 C134.767087,82.6035119 134.059575,82.2285156 133.116211,82.2285156 C132.395504,82.2285156 131.818362,82.3940413 131.384766,82.7250977 C130.95117,83.056154 130.620118,83.4970676 130.391602,84.0478516 L130.391602,88.609375 C130.637697,89.1425808 130.983396,89.5556626 131.428711,89.8486328 C131.874026,90.141603 132.442379,90.2880859 133.133789,90.2880859 C134.071294,90.2880859 134.774412,89.9497104 135.243164,89.2729492 C135.711916,88.596188 135.946289,87.6748105 135.946289,86.5087891 L135.946289,86.3242188 Z M138.776367,86.1044922 C138.776367,84.6747975 139.154293,83.5190474 139.910156,82.637207 C140.666019,81.7553667 141.68847,81.3144531 142.977539,81.3144531 C144.272467,81.3144531 145.297848,81.7553667 146.053711,82.637207 C146.809574,83.5190474 147.1875,84.6747975 147.1875,86.1044922 L147.1875,86.3945312 C147.1875,87.8300853 146.811039,88.9858355 146.058105,89.8618164 C145.305172,90.7377973 144.284186,91.1757812 142.995117,91.1757812 C141.694329,91.1757812 140.666019,90.7377973 139.910156,89.8618164 C139.154293,88.9858355 138.776367,87.8300853 138.776367,86.3945312 L138.776367,86.1044922 Z M139.831055,86.3945312 C139.831055,87.5195369 140.104978,88.4497034 140.652832,89.1850586 C141.200686,89.9204138 141.98144,90.2880859 142.995117,90.2880859 C143.997075,90.2880859 144.77197,89.9204138 145.319824,89.1850586 C145.867679,88.4497034 146.141602,87.5195369 146.141602,86.3945312 L146.141602,86.1044922 C146.141602,85.0029242 145.864749,84.078617 145.311035,83.331543 C144.757321,82.5844689 143.979497,82.2109375 142.977539,82.2109375 C141.969722,82.2109375 141.193362,82.5844689 140.648438,83.331543 C140.103513,84.078617 139.831055,85.0029242 139.831055,86.1044922 L139.831055,86.3945312 Z M156.451172,86.6054688 L155.185547,86.6054688 L155.185547,91 L154.130859,91 L154.130859,86.6054688 L152.874023,86.6054688 L149.358398,91 L148.022461,91 L151.995117,86.0693359 L148.461914,81.4902344 L149.736328,81.4902344 L152.856445,85.6650391 L154.130859,85.6650391 L154.130859,81.4902344 L155.185547,81.4902344 L155.185547,85.6650391 L156.46875,85.6650391 L159.588867,81.4902344 L160.880859,81.4902344 L157.330078,86.078125 L161.311523,91 L159.966797,91 L156.451172,86.6054688 Z M162.770508,90.1123047 C163.286135,89.4677702 163.690428,88.8085971 163.983398,88.1347656 C164.276369,87.4609341 164.455078,86.3916089 164.519531,84.9267578 L164.677734,81.4902344 L170.293945,81.4902344 L170.293945,90.1123047 L171.27832,90.1123047 L171.27832,93.7949219 L170.232422,93.7949219 L170.232422,91 L163.086914,91 L163.086914,93.7949219 L162.076172,93.7949219 L162.084961,90.1123047 L162.770508,90.1123047 Z M165.56543,84.9267578 C165.512695,86.1923891 165.348634,87.2353475 165.073242,88.0556641 C164.79785,88.8759807 164.434573,89.5615207 163.983398,90.1123047 L169.239258,90.1123047 L169.239258,82.4746094 L165.679688,82.4746094 L165.56543,84.9267578 Z M176.991211,91.1757812 C175.72558,91.1757812 174.701664,90.7465863 173.919434,89.8881836 C173.137203,89.0297809 172.746094,87.9091866 172.746094,86.5263672 L172.746094,86.0429688 C172.746094,84.6542899 173.134273,83.5190474 173.910645,82.637207 C174.687016,81.7553667 175.640619,81.3144531 176.771484,81.3144531 C177.960943,81.3144531 178.882321,81.6762659 179.535645,82.3999023 C180.188968,83.1235388 180.515625,84.1152281 180.515625,85.375 L180.515625,86.2714844 L173.800781,86.2714844 L173.800781,86.5263672 C173.800781,87.6162164 174.090817,88.5156215 174.670898,89.2246094 C175.250979,89.9335973 176.024409,90.2880859 176.991211,90.2880859 C177.571292,90.2880859 178.079588,90.2045907 178.516113,90.0375977 C178.952639,89.8706046 179.367186,89.6054706 179.759766,89.2421875 L180.208008,89.9628906 C179.850584,90.3378925 179.414065,90.633788 178.898438,90.8505859 C178.38281,91.0673839 177.747074,91.1757812 176.991211,91.1757812 L176.991211,91.1757812 Z M176.771484,82.2109375 C175.980465,82.2109375 175.322757,82.5053681 174.79834,83.0942383 C174.273923,83.6831084 173.953126,84.4462844 173.835938,85.3837891 L179.469727,85.3837891 L179.469727,85.1201172 C179.469727,84.276363 179.232424,83.5805691 178.757812,83.0327148 C178.283201,82.4848605 177.621098,82.2109375 176.771484,82.2109375 L176.771484,82.2109375 Z M189.884766,91 L188.830078,91 L188.830078,86.640625 L183.706055,86.640625 L183.706055,91 L182.651367,91 L182.651367,81.4902344 L183.706055,81.4902344 L183.706055,85.7529297 L188.830078,85.7529297 L188.830078,81.4902344 L189.884766,81.4902344 L189.884766,91 Z M198.946289,81.4902344 L200.000977,81.4902344 L200.000977,91 L198.946289,91 L198.946289,83.1865234 L198.919922,83.1777344 L193.813477,91 L192.767578,91 L192.767578,81.4902344 L193.813477,81.4902344 L193.813477,89.3037109 L193.839844,89.3125 L198.946289,81.4902344 Z M209.748047,81.4902344 L209.748047,91 L208.693359,91 L208.693359,87.1679688 L205.740234,87.1679688 L203.419922,91 L202.259766,91 L204.650391,87.0361328 C203.982419,86.8603507 203.472658,86.5366235 203.121094,86.0649414 C202.769529,85.5932594 202.59375,85.0146519 202.59375,84.3291016 C202.59375,83.4794879 202.889645,82.7939479 203.481445,82.2724609 C204.073245,81.750974 204.914057,81.4902344 206.003906,81.4902344 L209.748047,81.4902344 Z M203.648438,84.3466797 C203.648438,84.8974637 203.818358,85.3559552 204.158203,85.722168 C204.498049,86.0883807 205.019528,86.2714844 205.722656,86.2714844 L208.693359,86.2714844 L208.693359,82.3867188 L206.003906,82.3867188 C205.201168,82.3867188 204.607912,82.572752 204.224121,82.9448242 C203.84033,83.3168964 203.648438,83.7841769 203.648438,84.3466797 L203.648438,84.3466797 Z" id="действует-на-террито" fill="#FFFFFF"></path>
            <path d="M61.7148438,45.3837891 C61.7148438,49.0556824 60.6897889,52.2149933 58.6396484,54.8618164 C56.589508,57.5086395 53.8203299,59.4440043 50.3320312,60.6679688 L50.3320312,60.8056641 C54.3711139,62.0602276 57.5916221,64.1256367 59.9936523,67.0019531 C62.3956826,69.8782696 63.5966797,73.3053187 63.5966797,77.2832031 C63.5966797,83.4030254 61.6230666,88.0463709 57.6757812,91.2133789 C53.7284959,94.3803869 48.5420243,95.9638672 42.1162109,95.9638672 C35.5680011,95.9638672 30.3432812,94.3880366 26.4418945,91.2363281 C22.5405078,88.0846197 20.5898438,83.4336245 20.5898438,77.2832031 C20.5898438,73.2747195 21.7602422,69.8323712 24.1010742,66.9560547 C26.4419062,64.0797382 29.6471151,62.0143292 33.7167969,60.7597656 L33.7167969,60.6220703 C30.2284982,59.428705 27.4822691,57.5086395 25.4780273,54.8618164 C23.4737856,52.2149933 22.4716797,49.0556824 22.4716797,45.3837891 C22.4716797,39.5087597 24.2540512,35.0107578 27.8188477,31.8896484 C31.3836441,28.7685391 36.1187856,27.2080078 42.0244141,27.2080078 C47.8688443,27.2080078 52.6116354,28.7761887 56.2529297,31.9125977 C59.8942239,35.0490066 61.7148438,39.5393588 61.7148438,45.3837891 L61.7148438,45.3837891 Z M58.0888672,77.3291016 C58.0888672,73.045226 56.5818836,69.5952279 53.5678711,66.9790039 C50.5538586,64.3627799 46.7060781,63.0546875 42.0244141,63.0546875 C37.2815518,63.0546875 33.4337713,64.3551302 30.480957,66.9560547 C27.5281428,69.5569792 26.0517578,73.0146269 26.0517578,77.3291016 C26.0517578,81.7965718 27.5128435,85.2465699 30.4350586,87.6791992 C33.3572737,90.1118286 37.2509522,91.328125 42.1162109,91.328125 C46.8590732,91.328125 50.7068537,90.1041789 53.659668,87.65625 C56.6124822,85.2083211 58.0888672,81.7659727 58.0888672,77.3291016 L58.0888672,77.3291016 Z M56.2070312,45.3378906 C56.2070312,41.3906053 54.8683402,38.1624474 52.190918,35.6533203 C49.5134957,33.1441932 46.124695,31.8896484 42.0244141,31.8896484 C37.8017367,31.8896484 34.3976366,33.0982952 31.8120117,35.515625 C29.2263868,37.9329548 27.9335938,41.2070106 27.9335938,45.3378906 C27.9335938,49.3769733 29.2340365,52.5592332 31.8349609,54.8847656 C34.4358854,57.2102981 37.8629345,58.3730469 42.1162109,58.3730469 C46.2776901,58.3730469 49.6664908,57.2026484 52.2827148,54.8618164 C54.8989389,52.5209844 56.2070312,49.3463742 56.2070312,45.3378906 L56.2070312,45.3378906 Z" id="8" fill="#FFFFFF"></path>
        </g>
    </g>
</svg>