<?xml version="1.0" encoding="UTF-8"?>
<svg width="377px" height="212px" viewBox="0 0 377 212" version="1.1" xmlns="http://www.w3.org/2000/svg" xmlns:xlink="http://www.w3.org/1999/xlink">
    <!-- Generator: Sketch 3.8.3 (29802) - http://www.bohemiancoding.com/sketch -->
    <title>vzhk</title>
    <desc>Created with Sketch.</desc>
    <defs></defs>
    <g id="new" stroke="none" stroke-width="1" fill="none" fill-rule="evenodd">
        <g id="vzhk" transform="translate(-1.000000, 0.000000)">
            <polygon id="Rectangle-29" fill="#4A90E2" points="2 0 378 0 378 113 16.7626341 113 2 113"></polygon>
            <path d="M1.5,0.5 L1.5,210.509521" id="Line" stroke="#FFFFFF" stroke-linecap="square"></path>
            <path d="M79.421875,38.296875 C79.421875,35.7551956 80.0937433,33.7005287 81.4375,32.1328125 C82.7812567,30.5650963 84.5989469,29.78125 86.890625,29.78125 C89.1927198,29.78125 91.0156183,30.5650963 92.359375,32.1328125 C93.7031317,33.7005287 94.375,35.7551956 94.375,38.296875 L94.375,38.8125 C94.375,41.3645961 93.7057359,43.419263 92.3671875,44.9765625 C91.0286391,46.533862 89.2135531,47.3125 86.921875,47.3125 C84.6093634,47.3125 82.7812567,46.533862 81.4375,44.9765625 C80.0937433,43.419263 79.421875,41.3645961 79.421875,38.8125 L79.421875,38.296875 Z M81.296875,38.8125 C81.296875,40.81251 81.7838493,42.4661393 82.7578125,43.7734375 C83.7317757,45.0807357 85.1197827,45.734375 86.921875,45.734375 C88.7031339,45.734375 90.0807243,45.0807357 91.0546875,43.7734375 C92.0286507,42.4661393 92.515625,40.81251 92.515625,38.8125 L92.515625,38.296875 C92.515625,36.3385319 92.0234424,34.6953191 91.0390625,33.3671875 C90.0546826,32.0390559 88.6718839,31.375 86.890625,31.375 C85.0989494,31.375 83.7187548,32.0390559 82.75,33.3671875 C81.7812452,34.6953191 81.296875,36.3385319 81.296875,38.296875 L81.296875,38.8125 Z M105.0625,31.21875 C107.281261,31.21875 109.039056,31.9140555 110.335938,33.3046875 C111.632819,34.6953195 112.28125,36.520822 112.28125,38.78125 L112.28125,39.296875 C112.28125,41.703137 111.611986,43.6432218 110.273438,45.1171875 C108.934889,46.5911532 107.114595,47.328125 104.8125,47.328125 C102.510405,47.328125 100.687507,46.5911532 99.34375,45.1171875 C97.9999933,43.6432218 97.328125,41.703137 97.328125,39.296875 L97.328125,37.359375 C97.328125,33.8906077 97.9973891,31.1484476 99.3359375,29.1328125 C100.674486,27.1171774 102.536446,25.9114603 104.921875,25.515625 C106.515633,25.2760405 107.632809,24.9479187 108.273438,24.53125 C108.914066,24.1145813 109.234375,23.5156289 109.234375,22.734375 L110.84375,22.734375 C110.84375,24.2135491 110.382817,25.2630177 109.460938,25.8828125 C108.539058,26.5026073 107.151051,26.9322905 105.296875,27.171875 C103.703117,27.3802094 102.367193,28.0442652 101.289062,29.1640625 C100.210932,30.2838598 99.5000017,31.8593648 99.15625,33.890625 L99.203125,33.921875 C99.9010452,33.0885375 100.744787,32.4296899 101.734375,31.9453125 C102.723963,31.4609351 103.833327,31.21875 105.0625,31.21875 L105.0625,31.21875 Z M104.78125,32.796875 C102.999991,32.796875 101.625005,33.3697859 100.65625,34.515625 C99.6874952,35.6614641 99.203125,37.0833248 99.203125,38.78125 L99.203125,39.296875 C99.203125,41.1510509 99.6874952,42.690098 100.65625,43.9140625 C101.625005,45.138027 103.010408,45.75 104.8125,45.75 C106.593759,45.75 107.971349,45.138027 108.945312,43.9140625 C109.919276,42.690098 110.40625,41.1510509 110.40625,39.296875 L110.40625,38.78125 C110.40625,37.0729081 109.916672,35.6484432 108.9375,34.5078125 C107.958328,33.3671818 106.572926,32.796875 104.78125,32.796875 L104.78125,32.796875 Z M117.515625,30.09375 L117.515625,45.421875 L125.03125,45.421875 L125.03125,30.09375 L126.90625,30.09375 L126.90625,45.421875 L134.359375,45.421875 L134.359375,30.09375 L136.234375,30.09375 L136.234375,45.40625 L138.265625,45.40625 L138.125,52.015625 L136.40625,52.015625 L136.40625,47 L115.640625,47 L115.640625,30.09375 L117.515625,30.09375 Z M148,47.3125 C145.749989,47.3125 143.929694,46.5494868 142.539062,45.0234375 C141.148431,43.4973882 140.453125,41.5052206 140.453125,39.046875 L140.453125,38.1875 C140.453125,35.7187377 141.143222,33.7005287 142.523438,32.1328125 C143.903653,30.5650963 145.598948,29.78125 147.609375,29.78125 C149.723969,29.78125 151.361973,30.4244727 152.523438,31.7109375 C153.684902,32.9974023 154.265625,34.7604055 154.265625,37 L154.265625,38.59375 L142.328125,38.59375 L142.328125,39.046875 C142.328125,40.9843847 142.843745,42.583327 143.875,43.84375 C144.906255,45.104173 146.281241,45.734375 148,45.734375 C149.031255,45.734375 149.934892,45.585939 150.710938,45.2890625 C151.486983,44.992186 152.223955,44.5208366 152.921875,43.875 L153.71875,45.15625 C153.08333,45.82292 152.307296,46.3489564 151.390625,46.734375 C150.473954,47.1197936 149.343757,47.3125 148,47.3125 L148,47.3125 Z M147.609375,31.375 C146.203118,31.375 145.033859,31.8984323 144.101562,32.9453125 C143.169266,33.9921927 142.598959,35.34895 142.390625,37.015625 L152.40625,37.015625 L152.40625,36.546875 C152.40625,35.0468675 151.984379,33.8099007 151.140625,32.8359375 C150.296871,31.8619743 149.119799,31.375 147.609375,31.375 L147.609375,31.375 Z M170.859375,39.1875 L168.609375,39.1875 L168.609375,47 L166.734375,47 L166.734375,39.1875 L164.5,39.1875 L158.25,47 L155.875,47 L162.9375,38.234375 L156.65625,30.09375 L158.921875,30.09375 L164.46875,37.515625 L166.734375,37.515625 L166.734375,30.09375 L168.609375,30.09375 L168.609375,37.515625 L170.890625,37.515625 L176.4375,30.09375 L178.734375,30.09375 L172.421875,38.25 L179.5,47 L177.109375,47 L170.859375,39.1875 Z M193.59375,30.09375 L195.46875,30.09375 L195.46875,47 L193.59375,47 L193.59375,33.109375 L193.546875,33.09375 L184.46875,47 L182.609375,47 L182.609375,30.09375 L184.46875,30.09375 L184.46875,43.984375 L184.515625,44 L193.59375,30.09375 Z M212.609375,31.6875 L206.453125,31.6875 L206.453125,47 L204.578125,47 L204.578125,31.6875 L198.65625,31.6875 L198.65625,30.09375 L212.609375,30.09375 L212.609375,31.6875 Z M226.78125,30.09375 L228.65625,30.09375 L228.65625,47 L226.78125,47 L226.78125,33.109375 L226.734375,33.09375 L217.65625,47 L215.796875,47 L215.796875,30.09375 L217.65625,30.09375 L217.65625,43.984375 L217.703125,44 L226.78125,30.09375 Z M244.765625,30.09375 L246.640625,30.09375 L246.640625,47 L244.765625,47 L244.765625,33.109375 L244.71875,33.09375 L235.640625,47 L233.78125,47 L233.78125,30.09375 L235.640625,30.09375 L235.640625,43.984375 L235.6875,44 L244.765625,30.09375 Z M244.671875,23.390625 C244.671875,24.6197978 244.270837,25.5989547 243.46875,26.328125 C242.666663,27.0572953 241.562507,27.421875 240.15625,27.421875 C238.739576,27.421875 237.632816,27.0572953 236.835938,26.328125 C236.039059,25.5989547 235.640625,24.6197978 235.640625,23.390625 L237.234375,23.390625 C237.234375,24.2031291 237.463539,24.8515601 237.921875,25.3359375 C238.380211,25.8203149 239.124995,26.0625 240.15625,26.0625 C241.156255,26.0625 241.893227,25.8177108 242.367188,25.328125 C242.841148,24.8385392 243.078125,24.1927123 243.078125,23.390625 L244.671875,23.390625 Z" id="общежитий" fill="#FFFFFF"></path>
            <path d="M89.6386719,69 L88.4667969,69 L88.4667969,64.15625 L82.7734375,64.15625 L82.7734375,69 L81.6015625,69 L81.6015625,58.4335938 L82.7734375,58.4335938 L82.7734375,63.1699219 L88.4667969,63.1699219 L88.4667969,58.4335938 L89.6386719,58.4335938 L89.6386719,69 Z M99.4726562,69 C99.3945309,68.6354148 99.3391929,68.3294283 99.3066406,68.0820312 C99.2740884,67.8346342 99.2578125,67.5839856 99.2578125,67.3300781 L99.2285156,67.3203125 C98.8443991,67.8671902 98.3333365,68.3164045 97.6953125,68.6679688 C97.0572885,69.019533 96.3248739,69.1953125 95.4980469,69.1953125 C94.4498646,69.1953125 93.6458361,68.9283881 93.0859375,68.3945312 C92.5260389,67.8606744 92.2460938,67.1250047 92.2460938,66.1875 C92.2460938,65.1914013 92.6611287,64.4052763 93.4912109,63.8291016 C94.3212932,63.2529268 95.4654875,62.9648438 96.9238281,62.9648438 L99.2578125,62.9648438 L99.2578125,61.65625 C99.2578125,60.888017 99.0185571,60.2923198 98.5400391,59.8691406 C98.061521,59.4459614 97.3795617,59.234375 96.4941406,59.234375 C95.6608031,59.234375 94.9804714,59.4378235 94.453125,59.8447266 C93.9257786,60.2516296 93.6621094,60.7545543 93.6621094,61.3535156 L92.5,61.34375 C92.5,60.5104125 92.8759728,59.7845083 93.6279297,59.1660156 C94.3798866,58.5475229 95.3515565,58.2382812 96.5429688,58.2382812 C97.734381,58.2382812 98.6783819,58.5296195 99.375,59.1123047 C100.071618,59.6949899 100.419922,60.5494735 100.419922,61.6757812 L100.419922,66.8710938 C100.419922,67.2486998 100.439453,67.6100243 100.478516,67.9550781 C100.517578,68.3001319 100.589192,68.6484357 100.693359,69 L99.4726562,69 Z M95.6347656,68.1699219 C96.4941449,68.1699219 97.2412078,67.9762389 97.8759766,67.5888672 C98.5107454,67.2014955 98.9713527,66.6953156 99.2578125,66.0703125 L99.2578125,63.8632812 L96.9042969,63.8632812 C95.8235623,63.8632812 94.9707063,64.0862608 94.3457031,64.5322266 C93.7207,64.9781923 93.4082031,65.5429653 93.4082031,66.2265625 C93.4082031,66.8059925 93.6018861,67.2747378 93.9892578,67.6328125 C94.3766295,67.9908872 94.9251267,68.1699219 95.6347656,68.1699219 L95.6347656,68.1699219 Z M115.966797,59.4296875 L112.119141,59.4296875 L112.119141,69 L110.947266,69 L110.947266,59.4296875 L107.246094,59.4296875 L107.246094,58.4335938 L115.966797,58.4335938 L115.966797,59.4296875 Z M121.191406,69.1953125 C119.785149,69.1953125 118.647465,68.7184292 117.77832,67.7646484 C116.909175,66.8108676 116.474609,65.5657629 116.474609,64.0292969 L116.474609,63.4921875 C116.474609,61.949211 116.90592,60.6878304 117.768555,59.7080078 C118.631189,58.7281852 119.690749,58.2382812 120.947266,58.2382812 C122.268887,58.2382812 123.29264,58.6402955 124.018555,59.4443359 C124.74447,60.2483764 125.107422,61.3502534 125.107422,62.75 L125.107422,63.7460938 L117.646484,63.7460938 L117.646484,64.0292969 C117.646484,65.2402404 117.968747,66.2395794 118.613281,67.0273438 C119.257816,67.8151081 120.117182,68.2089844 121.191406,68.2089844 C121.835941,68.2089844 122.400714,68.1162119 122.885742,67.9306641 C123.370771,67.7451163 123.831378,67.4505229 124.267578,67.046875 L124.765625,67.8476562 C124.368488,68.264325 123.883466,68.5930978 123.310547,68.8339844 C122.737627,69.074871 122.031254,69.1953125 121.191406,69.1953125 L121.191406,69.1953125 Z M120.947266,59.234375 C120.068355,59.234375 119.337568,59.5615202 118.754883,60.2158203 C118.172198,60.8701205 117.815756,61.7180938 117.685547,62.7597656 L123.945312,62.7597656 L123.945312,62.4667969 C123.945312,61.5292922 123.681643,60.7561879 123.154297,60.1474609 C122.62695,59.5387339 121.891281,59.234375 120.947266,59.234375 L120.947266,59.234375 Z M135.927734,64.0097656 C135.927734,65.6178466 135.576175,66.88411 134.873047,67.8085938 C134.169918,68.7330775 133.17709,69.1953125 131.894531,69.1953125 C131.139319,69.1953125 130.489912,69.0602227 129.946289,68.7900391 C129.402667,68.5198554 128.958335,68.1276067 128.613281,67.6132812 L128.583984,67.6230469 L128.583984,73.0625 L127.412109,73.0625 L127.412109,58.4335938 L128.398438,58.4335938 L128.544922,60.0253906 L128.564453,60.0351562 C128.916017,59.4557263 129.363604,59.0113948 129.907227,58.7021484 C130.450849,58.3929021 131.106767,58.2382812 131.875,58.2382812 C133.170579,58.2382812 134.169918,58.7346956 134.873047,59.7275391 C135.576175,60.7203826 135.927734,62.0794185 135.927734,63.8046875 L135.927734,64.0097656 Z M134.755859,63.8046875 C134.755859,62.4374932 134.493818,61.3372437 133.969727,60.5039062 C133.445635,59.6705688 132.65951,59.2539062 131.611328,59.2539062 C130.810543,59.2539062 130.169273,59.4378237 129.6875,59.8056641 C129.205727,60.1735044 128.837892,60.6634084 128.583984,61.2753906 L128.583984,66.34375 C128.857423,66.9362009 129.241534,67.3951807 129.736328,67.7207031 C130.231122,68.0462256 130.862626,68.2089844 131.630859,68.2089844 C132.672531,68.2089844 133.453773,67.8330116 133.974609,67.0810547 C134.495445,66.3290978 134.755859,65.305345 134.755859,64.0097656 L134.755859,63.8046875 Z M147.060547,64.0097656 C147.060547,65.6178466 146.708988,66.88411 146.005859,67.8085938 C145.302731,68.7330775 144.309902,69.1953125 143.027344,69.1953125 C142.272132,69.1953125 141.622724,69.0602227 141.079102,68.7900391 C140.535479,68.5198554 140.091148,68.1276067 139.746094,67.6132812 L139.716797,67.6230469 L139.716797,73.0625 L138.544922,73.0625 L138.544922,58.4335938 L139.53125,58.4335938 L139.677734,60.0253906 L139.697266,60.0351562 C140.04883,59.4557263 140.496417,59.0113948 141.040039,58.7021484 C141.583662,58.3929021 142.239579,58.2382812 143.007812,58.2382812 C144.303392,58.2382812 145.302731,58.7346956 146.005859,59.7275391 C146.708988,60.7203826 147.060547,62.0794185 147.060547,63.8046875 L147.060547,64.0097656 Z M145.888672,63.8046875 C145.888672,62.4374932 145.62663,61.3372437 145.102539,60.5039062 C144.578448,59.6705688 143.792323,59.2539062 142.744141,59.2539062 C141.943355,59.2539062 141.302086,59.4378237 140.820312,59.8056641 C140.338539,60.1735044 139.970704,60.6634084 139.716797,61.2753906 L139.716797,66.34375 C139.990236,66.9362009 140.374346,67.3951807 140.869141,67.7207031 C141.363935,68.0462256 141.995439,68.2089844 142.763672,68.2089844 C143.805344,68.2089844 144.586586,67.8330116 145.107422,67.0810547 C145.628258,66.3290978 145.888672,65.305345 145.888672,64.0097656 L145.888672,63.8046875 Z M156.611328,58.4335938 L157.783203,58.4335938 L157.783203,69 L156.611328,69 L156.611328,60.3183594 L156.582031,60.3085938 L150.908203,69 L149.746094,69 L149.746094,58.4335938 L150.908203,58.4335938 L150.908203,67.1152344 L150.9375,67.125 L156.611328,58.4335938 Z M168.496094,59.4296875 L164.648438,59.4296875 L164.648438,69 L163.476562,69 L163.476562,59.4296875 L159.775391,59.4296875 L159.775391,58.4335938 L168.496094,58.4335938 L168.496094,59.4296875 Z M169.365234,63.5605469 C169.365234,61.9719973 169.785152,60.6878304 170.625,59.7080078 C171.464848,58.7281852 172.600904,58.2382812 174.033203,58.2382812 C175.472012,58.2382812 176.611324,58.7281852 177.451172,59.7080078 C178.29102,60.6878304 178.710938,61.9719973 178.710938,63.5605469 L178.710938,63.8828125 C178.710938,65.4778726 178.292647,66.7620394 177.456055,67.7353516 C176.619462,68.7086637 175.485033,69.1953125 174.052734,69.1953125 C172.607415,69.1953125 171.464848,68.7086637 170.625,67.7353516 C169.785152,66.7620394 169.365234,65.4778726 169.365234,63.8828125 L169.365234,63.5605469 Z M170.537109,63.8828125 C170.537109,65.1328187 170.841468,66.1663371 171.450195,66.9833984 C172.058922,67.8004598 172.926427,68.2089844 174.052734,68.2089844 C175.166021,68.2089844 176.027015,67.8004598 176.635742,66.9833984 C177.244469,66.1663371 177.548828,65.1328187 177.548828,63.8828125 L177.548828,63.5605469 C177.548828,62.3365824 177.241214,61.3095745 176.625977,60.4794922 C176.010739,59.6494099 175.14649,59.234375 174.033203,59.234375 C172.913406,59.234375 172.050784,59.6494099 171.445312,60.4794922 C170.839841,61.3095745 170.537109,62.3365824 170.537109,63.5605469 L170.537109,63.8828125 Z M189.658203,64.0097656 C189.658203,65.6178466 189.306644,66.88411 188.603516,67.8085938 C187.900387,68.7330775 186.907558,69.1953125 185.625,69.1953125 C184.869788,69.1953125 184.22038,69.0602227 183.676758,68.7900391 C183.133135,68.5198554 182.688804,68.1276067 182.34375,67.6132812 L182.314453,67.6230469 L182.314453,73.0625 L181.142578,73.0625 L181.142578,58.4335938 L182.128906,58.4335938 L182.275391,60.0253906 L182.294922,60.0351562 C182.646486,59.4557263 183.094073,59.0113948 183.637695,58.7021484 C184.181318,58.3929021 184.837236,58.2382812 185.605469,58.2382812 C186.901048,58.2382812 187.900387,58.7346956 188.603516,59.7275391 C189.306644,60.7203826 189.658203,62.0794185 189.658203,63.8046875 L189.658203,64.0097656 Z M188.486328,63.8046875 C188.486328,62.4374932 188.224286,61.3372437 187.700195,60.5039062 C187.176104,59.6705688 186.389979,59.2539062 185.341797,59.2539062 C184.541012,59.2539062 183.899742,59.4378237 183.417969,59.8056641 C182.936196,60.1735044 182.568361,60.6634084 182.314453,61.2753906 L182.314453,66.34375 C182.587892,66.9362009 182.972003,67.3951807 183.466797,67.7207031 C183.961591,68.0462256 184.593095,68.2089844 185.361328,68.2089844 C186.403,68.2089844 187.184242,67.8330116 187.705078,67.0810547 C188.225914,66.3290978 188.486328,65.305345 188.486328,64.0097656 L188.486328,63.8046875 Z M199.208984,58.4335938 L200.380859,58.4335938 L200.380859,69 L199.208984,69 L199.208984,60.3183594 L199.179688,60.3085938 L193.505859,69 L192.34375,69 L192.34375,58.4335938 L193.505859,58.4335938 L193.505859,67.1152344 L193.535156,67.125 L199.208984,58.4335938 Z M210.449219,58.4335938 L211.621094,58.4335938 L211.621094,69 L210.449219,69 L210.449219,60.3183594 L210.419922,60.3085938 L204.746094,69 L203.583984,69 L203.583984,58.4335938 L204.746094,58.4335938 L204.746094,67.1152344 L204.775391,67.125 L210.449219,58.4335938 Z M82.2070312,91 L80.9472656,91 L84.3261719,84.8378906 C83.3756463,84.5253891 82.6611352,84.0533886 82.1826172,83.421875 C81.7040992,82.7903614 81.4648438,82.0026089 81.4648438,81.0585938 C81.4648438,79.6718681 81.8831338,78.6123083 82.7197266,77.8798828 C83.5563193,77.1474573 84.7428309,76.78125 86.2792969,76.78125 L90.6152344,76.78125 L90.6152344,91 L89.4433594,91 L89.4433594,85.1894531 L85.3222656,85.1894531 L82.2070312,91 Z M89.4433594,77.7773438 L86.2792969,77.7773438 C85.0618429,77.7773438 84.1487661,78.060544 83.5400391,78.6269531 C82.9313121,79.1933622 82.6269531,79.9973906 82.6269531,81.0390625 C82.6269531,81.9960985 82.9134086,82.7594373 83.4863281,83.3291016 C84.0592477,83.8987659 84.879552,84.1835938 85.9472656,84.1835938 L89.4433594,84.1835938 L89.4433594,77.7773438 Z M102.275391,86.0097656 C102.275391,87.6178466 101.923832,88.88411 101.220703,89.8085938 C100.517575,90.7330775 99.524746,91.1953125 98.2421875,91.1953125 C97.4869754,91.1953125 96.8375678,91.0602227 96.2939453,90.7900391 C95.7503228,90.5198554 95.3059913,90.1276067 94.9609375,89.6132812 L94.9316406,89.6230469 L94.9316406,95.0625 L93.7597656,95.0625 L93.7597656,80.4335938 L94.7460938,80.4335938 L94.8925781,82.0253906 L94.9121094,82.0351562 C95.2636736,81.4557263 95.7112603,81.0113948 96.2548828,80.7021484 C96.7985053,80.3929021 97.4544232,80.2382812 98.2226562,80.2382812 C99.5182356,80.2382812 100.517575,80.7346956 101.220703,81.7275391 C101.923832,82.7203826 102.275391,84.0794185 102.275391,85.8046875 L102.275391,86.0097656 Z M101.103516,85.8046875 C101.103516,84.4374932 100.841474,83.3372437 100.317383,82.5039062 C99.7932917,81.6705688 99.0071667,81.2539062 97.9589844,81.2539062 C97.1581991,81.2539062 96.5169295,81.4378237 96.0351562,81.8056641 C95.553383,82.1735044 95.1855481,82.6634084 94.9316406,83.2753906 L94.9316406,88.34375 C95.2050795,88.9362009 95.5891902,89.3951807 96.0839844,89.7207031 C96.5787785,90.0462256 97.2102826,90.2089844 97.9785156,90.2089844 C99.0201875,90.2089844 99.8014297,89.8330116 100.322266,89.0810547 C100.843102,88.3290978 101.103516,87.305345 101.103516,86.0097656 L101.103516,85.8046875 Z M111.591797,91 C111.513671,90.6354148 111.458333,90.3294283 111.425781,90.0820312 C111.393229,89.8346342 111.376953,89.5839856 111.376953,89.3300781 L111.347656,89.3203125 C110.96354,89.8671902 110.452477,90.3164045 109.814453,90.6679688 C109.176429,91.019533 108.444015,91.1953125 107.617188,91.1953125 C106.569005,91.1953125 105.764977,90.9283881 105.205078,90.3945312 C104.645179,89.8606744 104.365234,89.1250047 104.365234,88.1875 C104.365234,87.1914013 104.780269,86.4052763 105.610352,85.8291016 C106.440434,85.2529268 107.584628,84.9648438 109.042969,84.9648438 L111.376953,84.9648438 L111.376953,83.65625 C111.376953,82.888017 111.137698,82.2923198 110.65918,81.8691406 C110.180662,81.4459614 109.498702,81.234375 108.613281,81.234375 C107.779944,81.234375 107.099612,81.4378235 106.572266,81.8447266 C106.044919,82.2516296 105.78125,82.7545543 105.78125,83.3535156 L104.619141,83.34375 C104.619141,82.5104125 104.995113,81.7845083 105.74707,81.1660156 C106.499027,80.5475229 107.470697,80.2382812 108.662109,80.2382812 C109.853522,80.2382812 110.797523,80.5296195 111.494141,81.1123047 C112.190759,81.6949899 112.539062,82.5494735 112.539062,83.6757812 L112.539062,88.8710938 C112.539062,89.2486998 112.558594,89.6100243 112.597656,89.9550781 C112.636719,90.3001319 112.708333,90.6484357 112.8125,91 L111.591797,91 Z M107.753906,90.1699219 C108.613286,90.1699219 109.360348,89.9762389 109.995117,89.5888672 C110.629886,89.2014955 111.090493,88.6953156 111.376953,88.0703125 L111.376953,85.8632812 L109.023438,85.8632812 C107.942703,85.8632812 107.089847,86.0862608 106.464844,86.5322266 C105.839841,86.9781923 105.527344,87.5429653 105.527344,88.2265625 C105.527344,88.8059925 105.721027,89.2747378 106.108398,89.6328125 C106.49577,89.9908872 107.044267,90.1699219 107.753906,90.1699219 L107.753906,90.1699219 Z M118.505859,86.15625 L116.884766,86.15625 L116.884766,91 L115.703125,91 L115.703125,80.4335938 L116.884766,80.4335938 L116.884766,85.1210938 L118.486328,85.1210938 L122.363281,80.4335938 L123.837891,80.4335938 L119.501953,85.5605469 L124.316406,91 L122.773438,91 L118.505859,86.15625 Z M133.583984,81.4296875 L129.736328,81.4296875 L129.736328,91 L128.564453,91 L128.564453,81.4296875 L124.863281,81.4296875 L124.863281,80.4335938 L133.583984,80.4335938 L133.583984,81.4296875 Z M142.441406,80.4335938 L143.613281,80.4335938 L143.613281,91 L142.441406,91 L142.441406,82.3183594 L142.412109,82.3085938 L136.738281,91 L135.576172,91 L135.576172,80.4335938 L136.738281,80.4335938 L136.738281,89.1152344 L136.767578,89.125 L142.441406,80.4335938 Z M154.853516,91 L153.681641,91 L153.681641,86.15625 L147.988281,86.15625 L147.988281,91 L146.816406,91 L146.816406,80.4335938 L147.988281,80.4335938 L147.988281,85.1699219 L153.681641,85.1699219 L153.681641,80.4335938 L154.853516,80.4335938 L154.853516,91 Z M161.914062,90.2089844 C162.708337,90.2089844 163.387041,89.9941428 163.950195,89.5644531 C164.513349,89.1347635 164.814453,88.5260456 164.853516,87.7382812 L165.976562,87.7382812 C165.94401,88.7539113 165.537113,89.5839812 164.755859,90.2285156 C163.974605,90.8730501 163.027349,91.1953125 161.914062,91.1953125 C160.449211,91.1953125 159.331059,90.7119189 158.55957,89.7451172 C157.788082,88.7783155 157.402344,87.5039142 157.402344,85.921875 L157.402344,85.5117188 C157.402344,83.9427005 157.788082,82.6715543 158.55957,81.6982422 C159.331059,80.72493 160.445956,80.2382812 161.904297,80.2382812 C163.076178,80.2382812 164.03971,80.5768195 164.794922,81.2539062 C165.550134,81.930993 165.94401,82.8456974 165.976562,83.9980469 L164.853516,83.9980469 C164.820963,83.1516885 164.527998,82.4794947 163.974609,81.9814453 C163.421221,81.4833959 162.731124,81.234375 161.904297,81.234375 C160.745437,81.234375 159.900719,81.6347616 159.370117,82.4355469 C158.839516,83.2363321 158.574219,84.2617125 158.574219,85.5117188 L158.574219,85.921875 C158.574219,87.197923 158.839516,88.2314414 159.370117,89.0224609 C159.900719,89.8134805 160.748692,90.2089844 161.914062,90.2089844 L161.914062,90.2089844 Z M171.210938,86.15625 L169.589844,86.15625 L169.589844,91 L168.408203,91 L168.408203,80.4335938 L169.589844,80.4335938 L169.589844,85.1210938 L171.191406,85.1210938 L175.068359,80.4335938 L176.542969,80.4335938 L172.207031,85.5605469 L177.021484,91 L175.478516,91 L171.210938,86.15625 Z M177.861328,85.5605469 C177.861328,83.9719973 178.281246,82.6878304 179.121094,81.7080078 C179.960942,80.7281852 181.096998,80.2382812 182.529297,80.2382812 C183.968106,80.2382812 185.107418,80.7281852 185.947266,81.7080078 C186.787114,82.6878304 187.207031,83.9719973 187.207031,85.5605469 L187.207031,85.8828125 C187.207031,87.4778726 186.788741,88.7620394 185.952148,89.7353516 C185.115556,90.7086637 183.981127,91.1953125 182.548828,91.1953125 C181.103508,91.1953125 179.960942,90.7086637 179.121094,89.7353516 C178.281246,88.7620394 177.861328,87.4778726 177.861328,85.8828125 L177.861328,85.5605469 Z M179.033203,85.8828125 C179.033203,87.1328187 179.337562,88.1663371 179.946289,88.9833984 C180.555016,89.8004598 181.42252,90.2089844 182.548828,90.2089844 C183.662115,90.2089844 184.523109,89.8004598 185.131836,88.9833984 C185.740563,88.1663371 186.044922,87.1328187 186.044922,85.8828125 L186.044922,85.5605469 C186.044922,84.3365824 185.737308,83.3095745 185.12207,82.4794922 C184.506833,81.6494099 183.642584,81.234375 182.529297,81.234375 C181.4095,81.234375 180.546878,81.6494099 179.941406,82.4794922 C179.335934,83.3095745 179.033203,84.3365824 179.033203,85.5605469 L179.033203,85.8828125 Z M196.210938,81.4394531 L190.869141,81.4394531 L190.869141,91 L189.697266,91 L189.697266,80.4335938 L196.210938,80.4335938 L196.210938,81.4394531 Z M197.226562,85.5605469 C197.226562,83.9719973 197.64648,82.6878304 198.486328,81.7080078 C199.326176,80.7281852 200.462232,80.2382812 201.894531,80.2382812 C203.333341,80.2382812 204.472652,80.7281852 205.3125,81.7080078 C206.152348,82.6878304 206.572266,83.9719973 206.572266,85.5605469 L206.572266,85.8828125 C206.572266,87.4778726 206.153976,88.7620394 205.317383,89.7353516 C204.48079,90.7086637 203.346361,91.1953125 201.914062,91.1953125 C200.468743,91.1953125 199.326176,90.7086637 198.486328,89.7353516 C197.64648,88.7620394 197.226562,87.4778726 197.226562,85.8828125 L197.226562,85.5605469 Z M198.398438,85.8828125 C198.398438,87.1328187 198.702796,88.1663371 199.311523,88.9833984 C199.92025,89.8004598 200.787755,90.2089844 201.914062,90.2089844 C203.027349,90.2089844 203.888343,89.8004598 204.49707,88.9833984 C205.105797,88.1663371 205.410156,87.1328187 205.410156,85.8828125 L205.410156,85.5605469 C205.410156,84.3365824 205.102542,83.3095745 204.487305,82.4794922 C203.872067,81.6494099 203.007818,81.234375 201.894531,81.234375 C200.774734,81.234375 199.912112,81.6494099 199.306641,82.4794922 C198.701169,83.3095745 198.398438,84.3365824 198.398438,85.5605469 L198.398438,85.8828125 Z M219.707031,89.4179688 L223.90625,80.4335938 L225.351562,80.4335938 L225.351562,91 L224.179688,91 L224.179688,82.3964844 L224.150391,82.3867188 L220.117188,91 L219.287109,91 L215.175781,82.1914062 L215.146484,82.2011719 L215.146484,91 L213.984375,91 L213.984375,80.4335938 L215.517578,80.4335938 L219.707031,89.4179688 Z M232.568359,91.1953125 C231.162102,91.1953125 230.024418,90.7184292 229.155273,89.7646484 C228.286128,88.8108676 227.851562,87.5657629 227.851562,86.0292969 L227.851562,85.4921875 C227.851562,83.949211 228.282873,82.6878304 229.145508,81.7080078 C230.008142,80.7281852 231.067702,80.2382812 232.324219,80.2382812 C233.64584,80.2382812 234.669593,80.6402955 235.395508,81.4443359 C236.121423,82.2483764 236.484375,83.3502534 236.484375,84.75 L236.484375,85.7460938 L229.023438,85.7460938 L229.023438,86.0292969 C229.023438,87.2402404 229.3457,88.2395794 229.990234,89.0273438 C230.634769,89.8151081 231.494135,90.2089844 232.568359,90.2089844 C233.212894,90.2089844 233.777667,90.1162119 234.262695,89.9306641 C234.747724,89.7451163 235.208331,89.4505229 235.644531,89.046875 L236.142578,89.8476562 C235.745441,90.264325 235.26042,90.5930978 234.6875,90.8339844 C234.11458,91.074871 233.408207,91.1953125 232.568359,91.1953125 L232.568359,91.1953125 Z M232.324219,81.234375 C231.445308,81.234375 230.714521,81.5615202 230.131836,82.2158203 C229.549151,82.8701205 229.192709,83.7180938 229.0625,84.7597656 L235.322266,84.7597656 L235.322266,84.4667969 C235.322266,83.5292922 235.058596,82.7561879 234.53125,82.1474609 C234.003904,81.5387339 233.268234,81.234375 232.324219,81.234375 L232.324219,81.234375 Z M242.714844,90.2089844 C243.509119,90.2089844 244.187823,89.9941428 244.750977,89.5644531 C245.31413,89.1347635 245.615234,88.5260456 245.654297,87.7382812 L246.777344,87.7382812 C246.744792,88.7539113 246.337895,89.5839812 245.556641,90.2285156 C244.775387,90.8730501 243.828131,91.1953125 242.714844,91.1953125 C241.249993,91.1953125 240.13184,90.7119189 239.360352,89.7451172 C238.588863,88.7783155 238.203125,87.5039142 238.203125,85.921875 L238.203125,85.5117188 C238.203125,83.9427005 238.588863,82.6715543 239.360352,81.6982422 C240.13184,80.72493 241.246737,80.2382812 242.705078,80.2382812 C243.876959,80.2382812 244.840491,80.5768195 245.595703,81.2539062 C246.350915,81.930993 246.744792,82.8456974 246.777344,83.9980469 L245.654297,83.9980469 C245.621745,83.1516885 245.328779,82.4794947 244.775391,81.9814453 C244.222002,81.4833959 243.531905,81.234375 242.705078,81.234375 C241.546218,81.234375 240.7015,81.6347616 240.170898,82.4355469 C239.640297,83.2363321 239.375,84.2617125 239.375,85.5117188 L239.375,85.921875 C239.375,87.197923 239.640297,88.2314414 240.170898,89.0224609 C240.7015,89.8134805 241.549473,90.2089844 242.714844,90.2089844 L242.714844,90.2089844 Z M256.728516,81.4296875 L252.880859,81.4296875 L252.880859,91 L251.708984,91 L251.708984,81.4296875 L248.007813,81.4296875 L248.007813,80.4335938 L256.728516,80.4335938 L256.728516,81.4296875 Z M257.597656,85.5605469 C257.597656,83.9719973 258.017574,82.6878304 258.857422,81.7080078 C259.69727,80.7281852 260.833326,80.2382812 262.265625,80.2382812 C263.704434,80.2382812 264.843746,80.7281852 265.683594,81.7080078 C266.523442,82.6878304 266.943359,83.9719973 266.943359,85.5605469 L266.943359,85.8828125 C266.943359,87.4778726 266.525069,88.7620394 265.688477,89.7353516 C264.851884,90.7086637 263.717455,91.1953125 262.285156,91.1953125 C260.839837,91.1953125 259.69727,90.7086637 258.857422,89.7353516 C258.017574,88.7620394 257.597656,87.4778726 257.597656,85.8828125 L257.597656,85.5605469 Z M258.769531,85.8828125 C258.769531,87.1328187 259.07389,88.1663371 259.682617,88.9833984 C260.291344,89.8004598 261.158849,90.2089844 262.285156,90.2089844 C263.398443,90.2089844 264.259437,89.8004598 264.868164,88.9833984 C265.476891,88.1663371 265.78125,87.1328187 265.78125,85.8828125 L265.78125,85.5605469 C265.78125,84.3365824 265.473636,83.3095745 264.858398,82.4794922 C264.243161,81.6494099 263.378912,81.234375 262.265625,81.234375 C261.145828,81.234375 260.283206,81.6494099 259.677734,82.4794922 C259.072263,83.3095745 258.769531,84.3365824 258.769531,85.5605469 L258.769531,85.8828125 Z M277.890625,86.0097656 C277.890625,87.6178466 277.539066,88.88411 276.835938,89.8085938 C276.132809,90.7330775 275.13998,91.1953125 273.857422,91.1953125 C273.10221,91.1953125 272.452802,91.0602227 271.90918,90.7900391 C271.365557,90.5198554 270.921226,90.1276067 270.576172,89.6132812 L270.546875,89.6230469 L270.546875,95.0625 L269.375,95.0625 L269.375,80.4335938 L270.361328,80.4335938 L270.507812,82.0253906 L270.527344,82.0351562 C270.878908,81.4557263 271.326495,81.0113948 271.870117,80.7021484 C272.41374,80.3929021 273.069658,80.2382812 273.837891,80.2382812 C275.13347,80.2382812 276.132809,80.7346956 276.835938,81.7275391 C277.539066,82.7203826 277.890625,84.0794185 277.890625,85.8046875 L277.890625,86.0097656 Z M276.71875,85.8046875 C276.71875,84.4374932 276.456708,83.3372437 275.932617,82.5039062 C275.408526,81.6705688 274.622401,81.2539062 273.574219,81.2539062 C272.773433,81.2539062 272.132164,81.4378237 271.650391,81.8056641 C271.168617,82.1735044 270.800783,82.6634084 270.546875,83.2753906 L270.546875,88.34375 C270.820314,88.9362009 271.204425,89.3951807 271.699219,89.7207031 C272.194013,90.0462256 272.825517,90.2089844 273.59375,90.2089844 C274.635422,90.2089844 275.416664,89.8330116 275.9375,89.0810547 C276.458336,88.3290978 276.71875,87.305345 276.71875,86.0097656 L276.71875,85.8046875 Z M279.863281,85.5605469 C279.863281,83.9719973 280.283199,82.6878304 281.123047,81.7080078 C281.962895,80.7281852 283.098951,80.2382812 284.53125,80.2382812 C285.970059,80.2382812 287.109371,80.7281852 287.949219,81.7080078 C288.789067,82.6878304 289.208984,83.9719973 289.208984,85.5605469 L289.208984,85.8828125 C289.208984,87.4778726 288.790694,88.7620394 287.954102,89.7353516 C287.117509,90.7086637 285.98308,91.1953125 284.550781,91.1953125 C283.105462,91.1953125 281.962895,90.7086637 281.123047,89.7353516 C280.283199,88.7620394 279.863281,87.4778726 279.863281,85.8828125 L279.863281,85.5605469 Z M281.035156,85.8828125 C281.035156,87.1328187 281.339515,88.1663371 281.948242,88.9833984 C282.556969,89.8004598 283.424474,90.2089844 284.550781,90.2089844 C285.664068,90.2089844 286.525062,89.8004598 287.133789,88.9833984 C287.742516,88.1663371 288.046875,87.1328187 288.046875,85.8828125 L288.046875,85.5605469 C288.046875,84.3365824 287.739261,83.3095745 287.124023,82.4794922 C286.508786,81.6494099 285.644537,81.234375 284.53125,81.234375 C283.411453,81.234375 282.548831,81.6494099 281.943359,82.4794922 C281.337888,83.3095745 281.035156,84.3365824 281.035156,85.5605469 L281.035156,85.8828125 Z M299.501953,86.1171875 L298.095703,86.1171875 L298.095703,91 L296.923828,91 L296.923828,86.1171875 L295.527344,86.1171875 L291.621094,91 L290.136719,91 L294.550781,85.5214844 L290.625,80.4335938 L292.041016,80.4335938 L295.507812,85.0722656 L296.923828,85.0722656 L296.923828,80.4335938 L298.095703,80.4335938 L298.095703,85.0722656 L299.521484,85.0722656 L302.988281,80.4335938 L304.423828,80.4335938 L300.478516,85.53125 L304.902344,91 L303.408203,91 L299.501953,86.1171875 Z M306.523438,90.0136719 C307.096357,89.2975225 307.545571,88.5651079 307.871094,87.8164062 C308.196616,87.0677046 308.395182,85.8795654 308.466797,84.2519531 L308.642578,80.4335938 L314.882812,80.4335938 L314.882812,90.0136719 L315.976562,90.0136719 L315.976562,94.1054688 L314.814453,94.1054688 L314.814453,91 L306.875,91 L306.875,94.1054688 L305.751953,94.1054688 L305.761719,90.0136719 L306.523438,90.0136719 Z M309.628906,84.2519531 C309.570312,85.6582102 309.388022,86.8170527 309.082031,87.7285156 C308.77604,88.6399785 308.372398,89.4016896 307.871094,90.0136719 L313.710938,90.0136719 L313.710938,81.5273438 L309.755859,81.5273438 L309.628906,84.2519531 Z M322.324219,91.1953125 C320.917962,91.1953125 319.780278,90.7184292 318.911133,89.7646484 C318.041988,88.8108676 317.607422,87.5657629 317.607422,86.0292969 L317.607422,85.4921875 C317.607422,83.949211 318.038733,82.6878304 318.901367,81.7080078 C319.764002,80.7281852 320.823561,80.2382812 322.080078,80.2382812 C323.401699,80.2382812 324.425452,80.6402955 325.151367,81.4443359 C325.877282,82.2483764 326.240234,83.3502534 326.240234,84.75 L326.240234,85.7460938 L318.779297,85.7460938 L318.779297,86.0292969 C318.779297,87.2402404 319.101559,88.2395794 319.746094,89.0273438 C320.390628,89.8151081 321.249995,90.2089844 322.324219,90.2089844 C322.968753,90.2089844 323.533526,90.1162119 324.018555,89.9306641 C324.503583,89.7451163 324.964191,89.4505229 325.400391,89.046875 L325.898438,89.8476562 C325.5013,90.264325 325.016279,90.5930978 324.443359,90.8339844 C323.87044,91.074871 323.164067,91.1953125 322.324219,91.1953125 L322.324219,91.1953125 Z M322.080078,81.234375 C321.201167,81.234375 320.470381,81.5615202 319.887695,82.2158203 C319.30501,82.8701205 318.948568,83.7180938 318.818359,84.7597656 L325.078125,84.7597656 L325.078125,84.4667969 C325.078125,83.5292922 324.814456,82.7561879 324.287109,82.1474609 C323.759763,81.5387339 323.024093,81.234375 322.080078,81.234375 L322.080078,81.234375 Z M336.650391,91 L335.478516,91 L335.478516,86.15625 L329.785156,86.15625 L329.785156,91 L328.613281,91 L328.613281,80.4335938 L329.785156,80.4335938 L329.785156,85.1699219 L335.478516,85.1699219 L335.478516,80.4335938 L336.650391,80.4335938 L336.650391,91 Z M346.71875,80.4335938 L347.890625,80.4335938 L347.890625,91 L346.71875,91 L346.71875,82.3183594 L346.689453,82.3085938 L341.015625,91 L339.853516,91 L339.853516,80.4335938 L341.015625,80.4335938 L341.015625,89.1152344 L341.044922,89.125 L346.71875,80.4335938 Z M358.720703,80.4335938 L358.720703,91 L357.548828,91 L357.548828,86.7421875 L354.267578,86.7421875 L351.689453,91 L350.400391,91 L353.056641,86.5957031 C352.314449,86.4003896 351.748049,86.0406927 351.357422,85.5166016 C350.966795,84.9925104 350.771484,84.3496132 350.771484,83.5878906 C350.771484,82.6438755 351.100257,81.8821644 351.757812,81.3027344 C352.415368,80.7233044 353.349603,80.4335938 354.560547,80.4335938 L358.720703,80.4335938 Z M351.943359,83.6074219 C351.943359,84.2194041 352.13216,84.7288391 352.509766,85.1357422 C352.887372,85.5426453 353.466793,85.7460938 354.248047,85.7460938 L357.548828,85.7460938 L357.548828,81.4296875 L354.560547,81.4296875 C353.668615,81.4296875 353.009442,81.6363912 352.583008,82.0498047 C352.156573,82.4632182 351.943359,82.9824187 351.943359,83.6074219 L351.943359,83.6074219 Z" id="на-территории-Яракти" fill="#FFFFFF"></path>
            <path d="M61.7148438,45.3837891 C61.7148438,49.0556824 60.6897889,52.2149933 58.6396484,54.8618164 C56.589508,57.5086395 53.8203299,59.4440043 50.3320312,60.6679688 L50.3320312,60.8056641 C54.3711139,62.0602276 57.5916221,64.1256367 59.9936523,67.0019531 C62.3956826,69.8782696 63.5966797,73.3053187 63.5966797,77.2832031 C63.5966797,83.4030254 61.6230666,88.0463709 57.6757812,91.2133789 C53.7284959,94.3803869 48.5420243,95.9638672 42.1162109,95.9638672 C35.5680011,95.9638672 30.3432812,94.3880366 26.4418945,91.2363281 C22.5405078,88.0846197 20.5898438,83.4336245 20.5898438,77.2832031 C20.5898438,73.2747195 21.7602422,69.8323712 24.1010742,66.9560547 C26.4419062,64.0797382 29.6471151,62.0143292 33.7167969,60.7597656 L33.7167969,60.6220703 C30.2284982,59.428705 27.4822691,57.5086395 25.4780273,54.8618164 C23.4737856,52.2149933 22.4716797,49.0556824 22.4716797,45.3837891 C22.4716797,39.5087597 24.2540512,35.0107578 27.8188477,31.8896484 C31.3836441,28.7685391 36.1187856,27.2080078 42.0244141,27.2080078 C47.8688443,27.2080078 52.6116354,28.7761887 56.2529297,31.9125977 C59.8942239,35.0490066 61.7148438,39.5393588 61.7148438,45.3837891 L61.7148438,45.3837891 Z M58.0888672,77.3291016 C58.0888672,73.045226 56.5818836,69.5952279 53.5678711,66.9790039 C50.5538586,64.3627799 46.7060781,63.0546875 42.0244141,63.0546875 C37.2815518,63.0546875 33.4337713,64.3551302 30.480957,66.9560547 C27.5281428,69.5569792 26.0517578,73.0146269 26.0517578,77.3291016 C26.0517578,81.7965718 27.5128435,85.2465699 30.4350586,87.6791992 C33.3572737,90.1118286 37.2509522,91.328125 42.1162109,91.328125 C46.8590732,91.328125 50.7068537,90.1041789 53.659668,87.65625 C56.6124822,85.2083211 58.0888672,81.7659727 58.0888672,77.3291016 L58.0888672,77.3291016 Z M56.2070312,45.3378906 C56.2070312,41.3906053 54.8683402,38.1624474 52.190918,35.6533203 C49.5134957,33.1441932 46.124695,31.8896484 42.0244141,31.8896484 C37.8017367,31.8896484 34.3976366,33.0982952 31.8120117,35.515625 C29.2263868,37.9329548 27.9335938,41.2070106 27.9335938,45.3378906 C27.9335938,49.3769733 29.2340365,52.5592332 31.8349609,54.8847656 C34.4358854,57.2102981 37.8629345,58.3730469 42.1162109,58.3730469 C46.2776901,58.3730469 49.6664908,57.2026484 52.2827148,54.8618164 C54.8989389,52.5209844 56.2070312,49.3463742 56.2070312,45.3378906 L56.2070312,45.3378906 Z" id="8" fill="#FFFFFF"></path>
        </g>
    </g>
</svg>