<?xml version="1.0" encoding="UTF-8"?>
<svg width="304px" height="212px" viewBox="0 0 304 212" version="1.1" xmlns="http://www.w3.org/2000/svg" xmlns:xlink="http://www.w3.org/1999/xlink">
    <!-- Generator: Sketch 3.8.3 (29802) - http://www.bohemiancoding.com/sketch -->
    <title>average_deep</title>
    <desc>Created with Sketch.</desc>
    <defs></defs>
    <g id="new" stroke="none" stroke-width="1" fill="none" fill-rule="evenodd">
        <g id="average_deep" transform="translate(-1.000000, 0.000000)">
            <polygon id="Rectangle-29" fill="#4A90E2" points="2 0 305 0 305 40 13.8964844 40 2 40"></polygon>
            <path d="M23.3857422,25.5512695 C24.1569049,25.5512695 24.8251111,25.3266624 25.3903809,24.8774414 C25.9556506,24.4282204 26.2420247,23.8592157 26.2495117,23.1704102 L28.2260742,23.1704102 C28.2185872,24.2784886 27.7375536,25.2311972 26.782959,26.0285645 C25.8283644,26.8259317 24.6959701,27.2246094 23.3857422,27.2246094 C21.6038322,27.2246094 20.2561895,26.6574764 19.3427734,25.5231934 C18.4293574,24.3889103 17.9726562,22.9345792 17.9726562,21.1601562 L17.9726562,20.6884766 C17.9726562,18.9215406 18.4293574,17.4690812 19.3427734,16.3310547 C20.2561895,15.1930282 21.6038322,14.6240234 23.3857422,14.6240234 C24.8157624,14.6240234 25.9781043,15.0358032 26.8728027,15.859375 C27.7675012,16.6829468 28.2185872,17.7386003 28.2260742,19.0263672 L26.2495117,19.0263672 C26.2420247,18.2477175 25.9724961,17.6001002 25.440918,17.0834961 C24.9093398,16.5668919 24.224288,16.3085938 23.3857422,16.3085938 C22.1803325,16.3085938 21.3249537,16.7259887 20.8195801,17.560791 C20.3142065,18.3955934 20.0615234,19.4381448 20.0615234,20.6884766 L20.0615234,21.1601562 C20.0615234,22.4404361 20.3123347,23.4923461 20.8139648,24.315918 C21.315595,25.1394898 22.1728455,25.5512695 23.3857422,25.5512695 L23.3857422,25.5512695 Z M40.9501953,21.3735352 C40.9501953,23.1704191 40.5402873,24.5948027 39.720459,25.6467285 C38.9006307,26.6986543 37.7382888,27.2246094 36.2333984,27.2246094 C35.4622357,27.2246094 34.7959012,27.0992037 34.234375,26.8483887 C33.6728488,26.5975736 33.1936869,26.2213567 32.796875,25.7197266 L32.7631836,25.730957 L32.7631836,31.671875 L30.6743164,31.671875 L30.6743164,14.8486328 L32.4599609,14.8486328 L32.6621094,16.3984375 C33.0664083,15.8144502 33.5568005,15.3727229 34.1333008,15.0732422 C34.7098011,14.7737615 35.3985963,14.6240234 36.199707,14.6240234 C37.7270584,14.6240234 38.9006307,15.2098737 39.720459,16.3815918 C40.5402873,17.5533099 40.9501953,19.1386619 40.9501953,21.1376953 L40.9501953,21.3735352 Z M38.8613281,21.1376953 C38.8613281,19.7076751 38.5917996,18.5528202 38.0527344,17.6730957 C37.5136692,16.7933713 36.6938532,16.3535156 35.5932617,16.3535156 C34.9119432,16.3535156 34.3410668,16.5032537 33.8806152,16.8027344 C33.4201637,17.102215 33.0476902,17.5139948 32.7631836,18.0380859 L32.7631836,23.9003906 C33.0626643,24.4319688 33.4388812,24.8400051 33.8918457,25.1245117 C34.3448102,25.4090183 34.9194301,25.5512695 35.6157227,25.5512695 C36.7088271,25.5512695 37.5230279,25.1713091 38.0583496,24.411377 C38.5936713,23.6514448 38.8613281,22.638841 38.8613281,21.3735352 L38.8613281,21.1376953 Z M48.6992188,27.2246094 C46.992179,27.2246094 45.6445362,26.6724502 44.65625,25.5681152 C43.6679638,24.4637803 43.1738281,22.9982188 43.1738281,21.1713867 L43.1738281,20.6660156 C43.1738281,18.8990797 43.6810659,17.4503637 44.6955566,16.3198242 C45.7100474,15.1892847 46.9322845,14.6240234 48.3623047,14.6240234 C50.0094483,14.6240234 51.2466593,15.1069288 52.0739746,16.0727539 C52.9012899,17.038579 53.3149414,18.3600177 53.3149414,20.0371094 L53.3149414,21.3959961 L45.2626953,21.3959961 C45.2926434,22.6388408 45.6014782,23.642086 46.189209,24.4057617 C46.7769398,25.1694374 47.6136013,25.5512695 48.6992188,25.5512695 C49.4554074,25.5512695 50.1086398,25.4464529 50.6589355,25.2368164 C51.2092313,25.0271799 51.7052387,24.7314472 52.1469727,24.3496094 L52.9667969,25.730957 C52.5250629,26.165204 51.9579299,26.5227037 51.2653809,26.8034668 C50.5728318,27.0842299 49.717453,27.2246094 48.6992188,27.2246094 L48.6992188,27.2246094 Z M48.3623047,16.3085938 C47.5761679,16.3085938 46.9117052,16.6249155 46.3688965,17.2575684 C45.8260878,17.8902213 45.4798185,18.711909 45.3300781,19.7226562 L51.2373047,19.7226562 L51.2373047,19.4306641 C51.2373047,18.5247351 50.9977237,17.7779164 50.5185547,17.1901855 C50.0393856,16.6024547 49.3206428,16.3085938 48.3623047,16.3085938 L48.3623047,16.3085938 Z M55.6621094,25.3266602 C56.2985058,24.5779585 56.7814111,23.8199094 57.1108398,23.0524902 C57.4402686,22.285071 57.6611323,21.0665774 57.7734375,19.3969727 L57.953125,14.8486328 L65.7807617,14.8486328 L65.7807617,25.3266602 L67.3417969,25.3266602 L67.3417969,30.5712891 L65.2641602,30.5712891 L65.2641602,27 L56.7851562,27 L56.7851562,30.5712891 L54.7075195,30.5712891 L54.71875,25.3266602 L55.6621094,25.3266602 Z M59.8510742,19.3969727 C59.768717,20.7970448 59.577801,21.970617 59.2783203,22.9177246 C58.9788396,23.8648322 58.5820337,24.6678027 58.0878906,25.3266602 L63.703125,25.3266602 L63.703125,16.746582 L59.9633789,16.746582 L59.8510742,19.3969727 Z M79.5717773,27 L77.4941406,27 L77.4941406,21.7890625 L71.9125977,21.7890625 L71.9125977,27 L69.8237305,27 L69.8237305,14.8486328 L71.9125977,14.8486328 L71.9125977,20.1269531 L77.4941406,20.1269531 L77.4941406,14.8486328 L79.5717773,14.8486328 L79.5717773,27 Z M92.1948242,14.8486328 L92.1948242,27 L90.105957,27 L90.105957,22.2607422 L86.9838867,22.2607422 L84.1088867,27 L81.862793,27 L84.9287109,21.9575195 C84.1350872,21.6804999 83.5323914,21.2481312 83.1206055,20.6604004 C82.7088196,20.0726696 82.5029297,19.3707723 82.5029297,18.5546875 C82.5029297,17.446609 82.9053508,16.551924 83.7102051,15.8706055 C84.5150594,15.189287 85.6511971,14.8486328 87.1186523,14.8486328 L92.1948242,14.8486328 Z M84.5917969,18.5771484 C84.5917969,19.1461617 84.7770978,19.6234518 85.1477051,20.0090332 C85.5183124,20.3946146 86.0891889,20.5874023 86.8603516,20.5874023 L90.105957,20.5874023 L90.105957,16.5107422 L87.1186523,16.5107422 C86.2651325,16.5107422 85.6306173,16.7110169 85.2150879,17.1115723 C84.7995585,17.5121277 84.5917969,18.0006482 84.5917969,18.5771484 L84.5917969,18.5771484 Z M104.817871,14.8486328 L104.817871,27 L102.729004,27 L102.729004,22.2607422 L99.6069336,22.2607422 L96.7319336,27 L94.4858398,27 L97.5517578,21.9575195 C96.7581341,21.6804999 96.1554383,21.2481312 95.7436523,20.6604004 C95.3318664,20.0726696 95.1259766,19.3707723 95.1259766,18.5546875 C95.1259766,17.446609 95.5283977,16.551924 96.333252,15.8706055 C97.1381062,15.189287 98.274244,14.8486328 99.7416992,14.8486328 L104.817871,14.8486328 Z M97.2148438,18.5771484 C97.2148438,19.1461617 97.4001446,19.6234518 97.770752,20.0090332 C98.1413593,20.3946146 98.7122357,20.5874023 99.4833984,20.5874023 L102.729004,20.5874023 L102.729004,16.5107422 L99.7416992,16.5107422 C98.8881793,16.5107422 98.2536642,16.7110169 97.8381348,17.1115723 C97.4226053,17.5121277 97.2148438,18.0006482 97.2148438,18.5771484 L97.2148438,18.5771484 Z M121.697266,16.5444336 L116.093262,16.5444336 L116.093262,27 L114.004395,27 L114.004395,14.8486328 L121.697266,14.8486328 L121.697266,16.5444336 Z M133.006348,14.8486328 L133.006348,27 L130.91748,27 L130.91748,16.5444336 L126.795898,16.5444336 L126.649902,20.0595703 C126.537597,22.5602339 126.198815,24.3421171 125.633545,25.4052734 C125.068275,26.4684298 124.033211,27 122.52832,27 L121.921875,27 L121.966797,25.1806641 L122.416016,25.1694336 C123.202152,25.1694336 123.733723,24.8081905 124.010742,24.0856934 C124.287762,23.3631963 124.474934,22.0211687 124.572266,20.0595703 L124.796875,14.8486328 L133.006348,14.8486328 Z M140.081543,22.6201172 L140.508301,24.2373047 L140.541992,24.2373047 L143.630371,14.8486328 L145.955078,14.8486328 L140.811523,28.8754883 C140.504556,29.7065471 140.074059,30.4196748 139.52002,31.0148926 C138.96598,31.6101104 138.194829,31.9077148 137.206543,31.9077148 C137.026855,31.9077148 136.805991,31.8871259 136.543945,31.8459473 C136.2819,31.8047687 136.07601,31.7654624 135.92627,31.7280273 L136.139648,30.0546875 C136.117187,30.0472005 136.251952,30.0546874 136.543945,30.0771484 C136.835939,30.0996095 137.023112,30.1108398 137.105469,30.1108398 C137.607099,30.1108398 137.973957,29.9704604 138.206055,29.6896973 C138.438152,29.4089341 138.726398,28.8680053 139.070801,28.0668945 L139.621094,26.7529297 L135.072754,14.8486328 L137.397461,14.8486328 L140.081543,22.6201172 Z M153.19873,15.5561523 C154.778491,15.5561523 156.01383,16.0615184 156.904785,17.0722656 C157.79574,18.0830129 158.241211,19.4081949 158.241211,21.0478516 L158.241211,21.3173828 C158.241211,23.0843187 157.762049,24.5124457 156.803711,25.6018066 C155.845373,26.6911676 154.516447,27.2358398 152.816895,27.2358398 C151.109855,27.2358398 149.777186,26.6911676 148.818848,25.6018066 C147.86051,24.5124457 147.381348,23.0843187 147.381348,21.3173828 L147.381348,19.7900391 C147.381348,17.3193236 147.866125,15.3820871 148.835693,13.9782715 C149.805262,12.5744559 151.151033,11.7115902 152.873047,11.3896484 C153.876307,11.202473 154.593178,10.9890962 155.023682,10.7495117 C155.454185,10.5099272 155.669434,10.1131213 155.669434,9.55908203 L157.376465,9.55908203 C157.376465,10.884284 157.047041,11.75838 156.388184,12.1813965 C155.729326,12.6044129 154.70362,12.9282215 153.311035,13.152832 C152.255366,13.3325204 151.362552,13.738685 150.632568,14.3713379 C149.902584,15.0039908 149.425294,15.9566994 149.200684,17.2294922 L149.234375,17.2519531 C149.758466,16.727862 150.353675,16.3142105 151.02002,16.0109863 C151.686364,15.7077622 152.412594,15.5561523 153.19873,15.5561523 L153.19873,15.5561523 Z M152.794434,17.2294922 C151.686355,17.2294922 150.855309,17.5888636 150.30127,18.3076172 C149.74723,19.0263708 149.470215,19.9397731 149.470215,21.0478516 L149.470215,21.3173828 C149.470215,22.5677146 149.749102,23.5878053 150.306885,24.3776855 C150.864668,25.1675658 151.701329,25.5625 152.816895,25.5625 C153.924973,25.5625 154.759763,25.1675658 155.321289,24.3776855 C155.882815,23.5878053 156.163574,22.5677146 156.163574,21.3173828 L156.163574,21.0478516 C156.163574,19.9397731 155.880944,19.0263708 155.315674,18.3076172 C154.750404,17.5888636 153.909999,17.2294922 152.794434,17.2294922 L152.794434,17.2294922 Z M168.247559,14.8486328 L170.325195,14.8486328 L170.325195,27 L168.247559,27 L168.247559,18.1166992 L168.213867,18.1166992 L162.643555,27 L160.565918,27 L160.565918,14.8486328 L162.643555,14.8486328 L162.643555,23.7207031 L162.677246,23.7207031 L168.247559,14.8486328 Z M183.588379,27 L181.510742,27 L181.510742,21.7890625 L175.929199,21.7890625 L175.929199,27 L173.840332,27 L173.840332,14.8486328 L175.929199,14.8486328 L175.929199,20.1269531 L181.510742,20.1269531 L181.510742,14.8486328 L183.588379,14.8486328 L183.588379,27 Z M194.481934,27 C194.407063,26.6181622 194.350912,26.3037122 194.313477,26.0566406 C194.276041,25.8095691 194.249837,25.5512709 194.234863,25.2817383 C193.800616,25.8507515 193.261559,26.3168113 192.617676,26.6799316 C191.973792,27.0430519 191.26628,27.2246094 190.495117,27.2246094 C189.214837,27.2246094 188.250898,26.9082877 187.603271,26.2756348 C186.955645,25.6429819 186.631836,24.753912 186.631836,23.6083984 C186.631836,22.4254498 187.096024,21.5120475 188.024414,20.8681641 C188.952804,20.2242806 190.240552,19.9023438 191.887695,19.9023438 L194.234863,19.9023438 L194.234863,18.6669922 C194.234863,17.9257775 194.006513,17.3474142 193.549805,16.9318848 C193.093097,16.5163553 192.441736,16.3085938 191.595703,16.3085938 C190.809566,16.3085938 190.175051,16.4938946 189.692139,16.864502 C189.209226,17.2351093 188.967773,17.6861953 188.967773,18.2177734 L186.890137,18.2177734 C186.890137,17.2818964 187.335608,16.4489783 188.226562,15.7189941 C189.117517,14.98901 190.277988,14.6240234 191.708008,14.6240234 C193.10808,14.6240234 194.2255,14.968421 195.060303,15.6572266 C195.895105,16.3460321 196.3125,17.3567642 196.3125,18.6894531 L196.3125,24.5517578 C196.3125,24.9860048 196.334961,25.401528 196.379883,25.7983398 C196.424805,26.1951517 196.507161,26.5957011 196.626953,27 L194.481934,27 Z M190.79834,25.4389648 C191.57699,25.4389648 192.275143,25.2592791 192.892822,24.8999023 C193.510501,24.5405255 193.957844,24.0987982 194.234863,23.574707 L194.234863,21.3398438 L191.820312,21.3398438 C190.854487,21.3398438 190.094567,21.5663226 189.540527,22.0192871 C188.986488,22.4722516 188.709473,23.0169239 188.709473,23.6533203 C188.709473,24.2148466 188.883543,24.6528305 189.231689,24.9672852 C189.579836,25.2817399 190.102047,25.4389648 190.79834,25.4389648 L190.79834,25.4389648 Z M210.148438,25.5512695 C210.9196,25.5512695 211.587806,25.3266624 212.153076,24.8774414 C212.718346,24.4282204 213.00472,23.8592157 213.012207,23.1704102 L214.98877,23.1704102 C214.981283,24.2784886 214.500249,25.2311972 213.545654,26.0285645 C212.59106,26.8259317 211.458665,27.2246094 210.148438,27.2246094 C208.366528,27.2246094 207.018885,26.6574764 206.105469,25.5231934 C205.192053,24.3889103 204.735352,22.9345792 204.735352,21.1601562 L204.735352,20.6884766 C204.735352,18.9215406 205.192053,17.4690812 206.105469,16.3310547 C207.018885,15.1930282 208.366528,14.6240234 210.148438,14.6240234 C211.578458,14.6240234 212.7408,15.0358032 213.635498,15.859375 C214.530197,16.6829468 214.981283,17.7386003 214.98877,19.0263672 L213.012207,19.0263672 C213.00472,18.2477175 212.735191,17.6001002 212.203613,17.0834961 C211.672035,16.5668919 210.986983,16.3085938 210.148438,16.3085938 C208.943028,16.3085938 208.087649,16.7259887 207.582275,17.560791 C207.076902,18.3955934 206.824219,19.4381448 206.824219,20.6884766 L206.824219,21.1601562 C206.824219,22.4404361 207.07503,23.4923461 207.57666,24.315918 C208.07829,25.1394898 208.935541,25.5512695 210.148438,25.5512695 L210.148438,25.5512695 Z M221.165527,21.800293 L219.649414,21.800293 L219.649414,27 L217.560547,27 L217.560547,14.8486328 L219.649414,14.8486328 L219.649414,20.003418 L221.008301,20.003418 L225.096191,14.8486328 L227.611816,14.8486328 L222.782715,20.6772461 L228.016113,27 L225.376953,27 L221.165527,21.800293 Z M229.992676,27 L229.992676,14.8486328 L234.731934,14.8486328 C236.349129,14.8486328 237.590084,15.1219048 238.454834,15.668457 C239.319584,16.2150092 239.751953,17.0535425 239.751953,18.184082 C239.751953,18.7680693 239.58537,19.2790505 239.252197,19.717041 C238.919025,20.1550315 238.437991,20.4900705 237.809082,20.722168 L237.809082,20.7558594 C238.565271,20.9355478 239.151121,21.2780736 239.56665,21.7834473 C239.98218,22.2888209 240.189941,22.8784146 240.189941,23.5522461 C240.189941,24.7052467 239.785649,25.5681124 238.977051,26.1408691 C238.168453,26.7136259 237.011726,27 235.506836,27 L229.992676,27 Z M232.070312,21.6542969 L232.070312,25.3491211 L235.506836,25.3491211 C236.37533,25.3491211 237.024819,25.1918961 237.455322,24.8774414 C237.885826,24.5629867 238.101074,24.1025421 238.101074,23.4960938 C238.101074,22.8971324 237.885826,22.4404313 237.455322,22.1259766 C237.024819,21.8115219 236.37533,21.6542969 235.506836,21.6542969 L232.070312,21.6542969 Z M232.070312,20.0146484 L234.88916,20.0146484 C235.825037,20.0071614 236.523191,19.8611668 236.983643,19.5766602 C237.444094,19.2921535 237.674316,18.8616565 237.674316,18.2851562 C237.674316,17.6861949 237.430992,17.2407241 236.944336,16.9487305 C236.45768,16.6567368 235.72022,16.5107422 234.731934,16.5107422 L232.070312,16.5107422 L232.070312,20.0146484 Z M250.499512,27 C250.424642,26.6181622 250.36849,26.3037122 250.331055,26.0566406 C250.29362,25.8095691 250.267415,25.5512709 250.252441,25.2817383 C249.818194,25.8507515 249.279137,26.3168113 248.635254,26.6799316 C247.99137,27.0430519 247.283858,27.2246094 246.512695,27.2246094 C245.232415,27.2246094 244.268477,26.9082877 243.62085,26.2756348 C242.973223,25.6429819 242.649414,24.753912 242.649414,23.6083984 C242.649414,22.4254498 243.113602,21.5120475 244.041992,20.8681641 C244.970382,20.2242806 246.25813,19.9023438 247.905273,19.9023438 L250.252441,19.9023438 L250.252441,18.6669922 C250.252441,17.9257775 250.024091,17.3474142 249.567383,16.9318848 C249.110675,16.5163553 248.459314,16.3085938 247.613281,16.3085938 C246.827145,16.3085938 246.192629,16.4938946 245.709717,16.864502 C245.226804,17.2351093 244.985352,17.6861953 244.985352,18.2177734 L242.907715,18.2177734 C242.907715,17.2818964 243.353186,16.4489783 244.244141,15.7189941 C245.135096,14.98901 246.295566,14.6240234 247.725586,14.6240234 C249.125658,14.6240234 250.243079,14.968421 251.077881,15.6572266 C251.912683,16.3460321 252.330078,17.3567642 252.330078,18.6894531 L252.330078,24.5517578 C252.330078,24.9860048 252.352539,25.401528 252.397461,25.7983398 C252.442383,26.1951517 252.524739,26.5957011 252.644531,27 L250.499512,27 Z M246.815918,25.4389648 C247.594568,25.4389648 248.292722,25.2592791 248.9104,24.8999023 C249.528079,24.5405255 249.975422,24.0987982 250.252441,23.574707 L250.252441,21.3398438 L247.837891,21.3398438 C246.872065,21.3398438 246.112145,21.5663226 245.558105,22.0192871 C245.004066,22.4722516 244.727051,23.0169239 244.727051,23.6533203 C244.727051,24.2148466 244.901121,24.6528305 245.249268,24.9672852 C245.597414,25.2817399 246.119625,25.4389648 246.815918,25.4389648 L246.815918,25.4389648 Z M265.222656,21.6992188 L263.773926,21.6992188 L263.773926,27 L261.696289,27 L261.696289,21.6992188 L260.236328,21.6992188 L256.833496,27 L254.205566,27 L258.652832,20.5874023 L254.621094,14.8486328 L257.136719,14.8486328 L260.27002,19.8911133 L261.696289,19.8911133 L261.696289,14.8486328 L263.773926,14.8486328 L263.773926,19.8911133 L265.188965,19.8911133 L268.344727,14.8486328 L270.860352,14.8486328 L266.817383,20.5874023 L271.264648,27 L268.636719,27 L265.222656,21.6992188 Z M281.012695,14.8486328 L283.090332,14.8486328 L283.090332,27 L281.012695,27 L281.012695,18.1166992 L280.979004,18.1166992 L275.408691,27 L273.331055,27 L273.331055,14.8486328 L275.408691,14.8486328 L275.408691,23.7207031 L275.442383,23.7207031 L281.012695,14.8486328 Z M296.353516,27 L294.275879,27 L294.275879,21.7890625 L288.694336,21.7890625 L288.694336,27 L286.605469,27 L286.605469,14.8486328 L288.694336,14.8486328 L288.694336,20.1269531 L294.275879,20.1269531 L294.275879,14.8486328 L296.353516,14.8486328 L296.353516,27 Z" id="средняя-глубина-сква" fill="#FFFFFF"></path>
            <path d="M1.5,0.5 L1.5,210.509521" id="Line" stroke="#4A90E2" stroke-linecap="square"></path>
        </g>
    </g>
</svg>