<?xml version="1.0" encoding="UTF-8"?>
<svg width="2463px" height="316px" viewBox="0 0 2463 316" version="1.1" xmlns="http://www.w3.org/2000/svg" xmlns:xlink="http://www.w3.org/1999/xlink">
    <title>cover-logo</title>
    <defs>
        <polygon id="path-1" points="20.368 118.256 2.27373675e-13 118.256 2.27373675e-13 4.256 89.68 4.256 89.68 118.256 69.312 118.256 69.312 21.28 20.368 21.28"></polygon>
        <path d="M132.24,156.256 L113.848,156.256 L113.848,41.952 L130.72,41.952 L132.088,53.504 C138.168,44.5866667 146.882667,40.128 158.232,40.128 C168.973333,40.128 177.485333,43.928 183.768,51.528 C190.050667,59.128 193.192,68.6026667 193.192,79.952 C193.192,91.3013333 190,100.826667 183.616,108.528 C177.232,116.229333 168.770667,120.08 158.232,120.08 C146.984,120.08 138.32,115.722667 132.24,107.008 L132.24,156.256 Z M153.52,103.968 C160.512,103.968 165.781333,101.586667 169.328,96.824 C172.874667,92.0613333 174.648,86.4373333 174.648,79.952 C174.648,73.568 172.874667,67.9946667 169.328,63.232 C165.882667,58.5706667 160.613333,56.24 153.52,56.24 C146.933333,56.24 141.765333,58.52 138.016,63.08 C134.165333,67.8426667 132.24,73.4666667 132.24,79.952 C132.24,86.4373333 134.165333,92.0613333 138.016,96.824 C141.866667,101.586667 147.034667,103.968 153.52,103.968 Z" id="path-2"></path>
        <path d="M245.024,120.08 C232.965333,120.08 223.364,116.254667 216.22,108.604 C209.076,100.953333 205.504,91.4026667 205.504,79.952 C205.504,68.6026667 209.050667,59.128 216.144,51.528 C223.237333,43.928 232.864,40.128 245.024,40.128 C256.981333,40.128 266.532,43.928 273.676,51.528 C280.82,59.128 284.392,68.6026667 284.392,79.952 C284.392,91.3013333 280.82,100.826667 273.676,108.528 C266.532,116.229333 256.981333,120.08 245.024,120.08 Z M229.216,97.128 C232.762667,101.890667 238.032,104.272 245.024,104.272 C252.016,104.272 257.285333,101.890667 260.832,97.128 C264.176,92.4666667 265.848,86.7413333 265.848,79.952 C265.848,73.4666667 264.176,67.8426667 260.832,63.08 C257.285333,58.3173333 252.016,55.936 245.024,55.936 C238.032,55.936 232.762667,58.3173333 229.216,63.08 C225.770667,67.7413333 224.048,73.3653333 224.048,79.952 C224.048,86.7413333 225.770667,92.4666667 229.216,97.128 Z" id="path-3"></path>
        <polygon id="path-4" points="318.288 118.256 301.112 118.256 301.112 41.952 319.504 41.952 319.504 91.96 354.768 41.952 372.096 41.952 372.096 118.256 353.552 118.256 353.552 68.096"></polygon>
        <path d="M419.216,120.08 C410.906667,120.08 404.370667,118.610667 399.608,115.672 C394.845333,112.834667 391.298667,109.794667 388.968,106.552 L388.968,96.52 L402.344,96.52 C405.384,102.498667 410.906667,105.488 418.912,105.488 C428.437333,105.488 433.2,102.144 433.2,95.456 C433.2,89.376 428.538667,86.336 419.216,86.336 L407.056,86.336 L407.056,73.112 L418.608,73.112 C426.512,73.112 430.464,70.0213333 430.464,63.84 C430.464,61.0026667 429.425333,58.7733333 427.348,57.152 C425.270667,55.5306667 422.256,54.72 418.304,54.72 C410.805333,54.72 405.637333,57.7093333 402.8,63.688 L389.728,63.688 L389.728,53.504 C391.754667,50.3626667 395.098667,47.3733333 399.76,44.536 C404.421333,41.5973333 411.058667,40.128 419.672,40.128 C428.589333,40.128 435.606667,41.9773333 440.724,45.676 C445.841333,49.3746667 448.4,54.568 448.4,61.256 C448.4,69.2613333 444.650667,74.8853333 437.152,78.128 C446.576,81.2693333 451.288,87.4 451.288,96.52 C451.288,103.917333 448.501333,109.693333 442.928,113.848 C437.354667,118.002667 429.450667,120.08 419.216,120.08 Z" id="path-5"></path>
        <path d="M505.704,118.256 L468.16,118.256 L468.16,41.648 L504.032,41.648 C512.24,41.648 518.826667,43.3706667 523.792,46.816 C528.757333,50.2613333 531.24,55.2266667 531.24,61.712 C531.24,69.4133333 527.44,74.784 519.84,77.824 C524.4,79.1413333 527.946667,81.3453333 530.48,84.436 C533.013333,87.5266667 534.28,91.2 534.28,95.456 C534.28,102.954667 531.696,108.629333 526.528,112.48 C521.36,116.330667 514.418667,118.256 505.704,118.256 Z M486.248,55.328 L486.248,71.744 L502.056,71.744 C508.845333,71.744 512.24,68.9573333 512.24,63.384 C512.24,58.0133333 508.845333,55.328 502.056,55.328 L486.248,55.328 Z M486.248,85.576 L486.248,104.424 L502.968,104.424 C511.176,104.424 515.28,101.282667 515.28,95 C515.28,88.7173333 511.176,85.576 502.968,85.576 L486.248,85.576 Z" id="path-6"></path>
        <path d="M586.112,120.08 C574.053333,120.08 564.452,116.254667 557.308,108.604 C550.164,100.953333 546.592,91.4026667 546.592,79.952 C546.592,68.6026667 550.138667,59.128 557.232,51.528 C564.325333,43.928 573.952,40.128 586.112,40.128 C598.069333,40.128 607.62,43.928 614.764,51.528 C621.908,59.128 625.48,68.6026667 625.48,79.952 C625.48,91.3013333 621.908,100.826667 614.764,108.528 C607.62,116.229333 598.069333,120.08 586.112,120.08 Z M570.304,97.128 C573.850667,101.890667 579.12,104.272 586.112,104.272 C593.104,104.272 598.373333,101.890667 601.92,97.128 C605.264,92.4666667 606.936,86.7413333 606.936,79.952 C606.936,73.4666667 605.264,67.8426667 601.92,63.08 C598.373333,58.3173333 593.104,55.936 586.112,55.936 C579.12,55.936 573.850667,58.3173333 570.304,63.08 C566.858667,67.7413333 565.136,73.3653333 565.136,79.952 C565.136,86.7413333 566.858667,92.4666667 570.304,97.128 Z" id="path-7"></path>
        <path d="M650.256,139.536 L633.536,139.536 L633.536,103.512 L641.44,103.512 C645.189333,100.674667 647.621333,92.0106667 648.736,77.52 L651.168,41.952 L710.296,41.952 L710.296,103.512 L722.152,103.512 L722.152,139.536 L705.432,139.536 L705.432,118.256 L650.256,118.256 L650.256,139.536 Z M659.224,103.512 L692.056,103.512 L692.056,56.544 L666.52,56.544 L664.696,79.952 C664.088,90.3893333 662.264,98.2426667 659.224,103.512 Z" id="path-8"></path>
        <path d="M771.856,120.08 C759.290667,120.08 749.613333,116.305333 742.824,108.756 C736.034667,101.206667 732.64,91.656 732.64,80.104 C732.64,68.6533333 736.186667,59.1026667 743.28,51.452 C750.373333,43.8013333 759.898667,39.976 771.856,39.976 C776.416,39.976 780.596,40.508 784.396,41.572 C788.196,42.636 791.134667,43.928 793.212,45.448 C795.289333,46.968 797.037333,48.5133333 798.456,50.084 C799.874667,51.6546667 800.837333,52.9973333 801.344,54.112 L801.952,55.632 L801.952,65.664 L789.032,65.664 L788.88,65.056 C788.778667,64.752 788.550667,64.296 788.196,63.688 C787.841333,63.08 787.385333,62.4466667 786.828,61.788 C786.270667,61.1293333 785.536,60.42 784.624,59.66 C783.712,58.9 782.698667,58.2413333 781.584,57.684 C780.469333,57.1266667 779.050667,56.6706667 777.328,56.316 C775.605333,55.9613333 773.781333,55.784 771.856,55.784 C765.168,55.784 760.050667,58.064 756.504,62.624 C752.957333,67.184 751.184,73.0106667 751.184,80.104 C751.184,87.1973333 752.957333,92.9986667 756.504,97.508 C760.050667,102.017333 765.168,104.272 771.856,104.272 C773.477333,104.272 774.997333,104.170667 776.416,103.968 C777.834667,103.765333 779.076,103.461333 780.14,103.056 C781.204,102.650667 782.166667,102.194667 783.028,101.688 C783.889333,101.181333 784.624,100.674667 785.232,100.168 C785.84,99.6613333 786.397333,99.104 786.904,98.496 C787.410667,97.888 787.790667,97.356 788.044,96.9 C788.297333,96.444 788.525333,96.0133333 788.728,95.608 C788.930667,95.2026667 789.082667,94.8986667 789.184,94.696 L789.184,94.392 L802.104,94.392 L802.104,104.424 C801.901333,104.829333 801.622667,105.386667 801.268,106.096 C800.913333,106.805333 799.976,108.072 798.456,109.896 C796.936,111.72 795.162667,113.316 793.136,114.684 C791.109333,116.052 788.196,117.293333 784.396,118.408 C780.596,119.522667 776.416,120.08 771.856,120.08 Z" id="path-9"></path>
        <polygon id="path-10" points="853.48 118.256 835.088 118.256 835.088 57.304 811.68 57.304 811.68 41.952 876.888 41.952 876.888 57.304 853.48 57.304"></polygon>
        <path d="M928.112,118.256 L890.568,118.256 L890.568,41.648 L926.44,41.648 C934.648,41.648 941.234667,43.3706667 946.2,46.816 C951.165333,50.2613333 953.648,55.2266667 953.648,61.712 C953.648,69.4133333 949.848,74.784 942.248,77.824 C946.808,79.1413333 950.354667,81.3453333 952.888,84.436 C955.421333,87.5266667 956.688,91.2 956.688,95.456 C956.688,102.954667 954.104,108.629333 948.936,112.48 C943.768,116.330667 936.826667,118.256 928.112,118.256 Z M908.656,55.328 L908.656,71.744 L924.464,71.744 C931.253333,71.744 934.648,68.9573333 934.648,63.384 C934.648,58.0133333 931.253333,55.328 924.464,55.328 L908.656,55.328 Z M908.656,85.576 L908.656,104.424 L925.376,104.424 C933.584,104.424 937.688,101.282667 937.688,95 C937.688,88.7173333 933.584,85.576 925.376,85.576 L908.656,85.576 Z" id="path-11"></path>
        <path d="M1009.28,120.08 C996.309333,120.08 986.353333,116.406667 979.412,109.06 C972.470667,101.713333 969,92.0613333 969,80.104 C969,68.6533333 972.445333,59.128 979.336,51.528 C986.226667,43.928 995.701333,40.128 1007.76,40.128 C1019.71733,40.128 1028.68533,43.2946667 1034.664,49.628 C1040.64267,55.9613333 1043.632,64.296 1043.632,74.632 L1042.872,83.6 L987.544,83.6 C988.050667,90.1866667 990.178667,95.3546667 993.928,99.104 C997.677333,102.853333 1002.84533,104.728 1009.432,104.728 C1011.56,104.728 1013.56133,104.576 1015.436,104.272 C1017.31067,103.968 1018.90667,103.588 1020.224,103.132 C1021.54133,102.676 1022.70667,102.144 1023.72,101.536 C1024.73333,100.928 1025.544,100.32 1026.152,99.712 C1026.76,99.104 1027.26667,98.572 1027.672,98.116 C1028.07733,97.66 1028.38133,97.28 1028.584,96.976 L1028.736,96.52 L1042.112,96.52 L1042.112,106.552 C1041.90933,106.957333 1041.58,107.464 1041.124,108.072 C1040.668,108.68 1039.55333,109.744 1037.78,111.264 C1036.00667,112.784 1033.98,114.152 1031.7,115.368 C1029.42,116.584 1026.27867,117.673333 1022.276,118.636 C1018.27333,119.598667 1013.94133,120.08 1009.28,120.08 Z M988.152,71.136 L1025.696,71.136 C1025.696,66.576 1024.15067,62.8013333 1021.06,59.812 C1017.96933,56.8226667 1013.536,55.328 1007.76,55.328 C996.917333,55.328 990.381333,60.5973333 988.152,71.136 Z" id="path-12"></path>
        <polygon id="path-13" points="1078.896 118.256 1060.504 118.256 1060.504 41.952 1078.896 41.952 1078.896 71.44 1111.424 71.44 1111.424 41.952 1129.968 41.952 1129.968 118.256 1111.424 118.256 1111.424 86.944 1078.896 86.944"></polygon>
        <polygon id="path-14" points="1169.64 118.256 1151.248 118.256 1151.248 41.952 1169.64 41.952 1169.64 71.44 1202.168 71.44 1202.168 41.952 1220.712 41.952 1220.712 118.256 1202.168 118.256 1202.168 86.944 1169.64 86.944"></polygon>
        <path d="M1273.912,118.256 L1241.992,118.256 L1241.992,41.952 L1260.384,41.952 L1260.384,66.576 L1274.216,66.576 C1284.65333,66.576 1292.58267,68.8813333 1298.004,73.492 C1303.42533,78.1026667 1306.136,84.208 1306.136,91.808 C1306.136,99.3066667 1303.552,105.538667 1298.384,110.504 C1293.01333,115.672 1284.856,118.256 1273.912,118.256 Z M1334.104,118.256 L1315.712,118.256 L1315.712,41.952 L1334.104,41.952 L1334.104,118.256 Z M1260.384,80.864 L1260.384,103.968 L1272.544,103.968 C1282.17067,103.968 1286.984,99.9653333 1286.984,91.96 C1286.984,84.5626667 1282.17067,80.864 1272.544,80.864 L1260.384,80.864 Z" id="path-15"></path>
        <path d="M1391.104,120.08 C1378.13333,120.08 1368.17733,116.406667 1361.236,109.06 C1354.29467,101.713333 1350.824,92.0613333 1350.824,80.104 C1350.824,68.6533333 1354.26933,59.128 1361.16,51.528 C1368.05067,43.928 1377.52533,40.128 1389.584,40.128 C1401.54133,40.128 1410.50933,43.2946667 1416.488,49.628 C1422.46667,55.9613333 1425.456,64.296 1425.456,74.632 L1424.696,83.6 L1369.368,83.6 C1369.87467,90.1866667 1372.00267,95.3546667 1375.752,99.104 C1379.50133,102.853333 1384.66933,104.728 1391.256,104.728 C1393.384,104.728 1395.38533,104.576 1397.26,104.272 C1399.13467,103.968 1400.73067,103.588 1402.048,103.132 C1403.36533,102.676 1404.53067,102.144 1405.544,101.536 C1406.55733,100.928 1407.368,100.32 1407.976,99.712 C1408.584,99.104 1409.09067,98.572 1409.496,98.116 C1409.90133,97.66 1410.20533,97.28 1410.408,96.976 L1410.56,96.52 L1423.936,96.52 L1423.936,106.552 C1423.73333,106.957333 1423.404,107.464 1422.948,108.072 C1422.492,108.68 1421.37733,109.744 1419.604,111.264 C1417.83067,112.784 1415.804,114.152 1413.524,115.368 C1411.244,116.584 1408.10267,117.673333 1404.1,118.636 C1400.09733,119.598667 1395.76533,120.08 1391.104,120.08 Z M1369.976,71.136 L1407.52,71.136 C1407.52,66.576 1405.97467,62.8013333 1402.884,59.812 C1399.79333,56.8226667 1395.36,55.328 1389.584,55.328 C1378.74133,55.328 1372.20533,60.5973333 1369.976,71.136 Z" id="path-16"></path>
        <path d="M1514.68,120.08 C1502.62133,120.08 1493.02,116.254667 1485.876,108.604 C1478.732,100.953333 1475.16,91.4026667 1475.16,79.952 C1475.16,68.6026667 1478.70667,59.128 1485.8,51.528 C1492.89333,43.928 1502.52,40.128 1514.68,40.128 C1526.63733,40.128 1536.188,43.928 1543.332,51.528 C1550.476,59.128 1554.048,68.6026667 1554.048,79.952 C1554.048,91.3013333 1550.476,100.826667 1543.332,108.528 C1536.188,116.229333 1526.63733,120.08 1514.68,120.08 Z M1498.872,97.128 C1502.41867,101.890667 1507.688,104.272 1514.68,104.272 C1521.672,104.272 1526.94133,101.890667 1530.488,97.128 C1533.832,92.4666667 1535.504,86.7413333 1535.504,79.952 C1535.504,73.4666667 1533.832,67.8426667 1530.488,63.08 C1526.94133,58.3173333 1521.672,55.936 1514.68,55.936 C1507.688,55.936 1502.41867,58.3173333 1498.872,63.08 C1495.42667,67.7413333 1493.704,73.3653333 1493.704,79.952 C1493.704,86.7413333 1495.42667,92.4666667 1498.872,97.128 Z" id="path-17"></path>
        <path d="M1608.312,120.08 C1595.74667,120.08 1585.99333,116.026667 1579.052,107.92 C1572.11067,99.8133333 1568.64,88.3626667 1568.64,73.568 L1568.64,60.648 C1568.64,52.6426667 1569.248,45.7013333 1570.464,39.824 C1571.68,33.9466667 1573.75733,28.5253333 1576.696,23.56 C1579.63467,18.5946667 1583.89067,14.6426667 1589.464,11.704 C1595.03733,8.76533333 1601.87733,6.84 1609.984,5.928 L1618.8,5.016 C1623.56267,4.61066667 1626.75467,3.648 1628.376,2.128 L1630.504,0 L1643.272,0 L1643.272,10.032 C1641.54933,13.376 1638.99067,15.8333333 1635.596,17.404 C1632.20133,18.9746667 1627.05867,20.1146667 1620.168,20.824 L1610.136,22.04 C1600.30667,23.0533333 1593.61867,26.1946667 1590.072,31.464 C1586.52533,36.632 1584.70133,45.0426667 1584.6,56.696 C1586.82933,51.7306667 1590.32533,47.7786667 1595.088,44.84 C1599.85067,41.9013333 1605.32267,40.432 1611.504,40.432 C1622.54933,40.432 1631.36533,44.2066667 1637.952,51.756 C1644.53867,59.3053333 1647.832,68.7546667 1647.832,80.104 C1647.832,91.352 1644.20933,100.826667 1636.964,108.528 C1629.71867,116.229333 1620.168,120.08 1608.312,120.08 Z M1592.656,97.432 C1596.40533,101.992 1601.624,104.272 1608.312,104.272 C1615,104.272 1620.19333,101.992 1623.892,97.432 C1627.59067,92.872 1629.44,87.096 1629.44,80.104 C1629.44,73.6186667 1627.66667,67.9946667 1624.12,63.232 C1620.67467,58.5706667 1615.40533,56.24 1608.312,56.24 C1601.11733,56.24 1595.79733,58.5706667 1592.352,63.232 C1588.80533,67.9946667 1587.032,73.6186667 1587.032,80.104 C1587.032,87.096 1588.90667,92.872 1592.656,97.432 Z" id="path-18"></path>
        <path d="M1709.696,118.256 L1677.624,118.256 L1677.624,56.696 L1656.952,56.696 L1656.952,41.952 L1696.168,41.952 L1696.168,66.576 L1709.848,66.576 C1720.28533,66.576 1728.21467,68.8813333 1733.636,73.492 C1739.05733,78.1026667 1741.768,84.208 1741.768,91.808 C1741.768,99.3066667 1739.184,105.538667 1734.016,110.504 C1728.64533,115.672 1720.53867,118.256 1709.696,118.256 Z M1696.168,80.864 L1696.168,103.968 L1708.328,103.968 C1717.85333,103.968 1722.616,99.9653333 1722.616,91.96 C1722.616,84.5626667 1717.85333,80.864 1708.328,80.864 L1696.168,80.864 Z" id="path-19"></path>
        <path d="M1792.232,120.08 C1779.26133,120.08 1769.30533,116.406667 1762.364,109.06 C1755.42267,101.713333 1751.952,92.0613333 1751.952,80.104 C1751.952,68.6533333 1755.39733,59.128 1762.288,51.528 C1769.17867,43.928 1778.65333,40.128 1790.712,40.128 C1802.66933,40.128 1811.63733,43.2946667 1817.616,49.628 C1823.59467,55.9613333 1826.584,64.296 1826.584,74.632 L1825.824,83.6 L1770.496,83.6 C1771.00267,90.1866667 1773.13067,95.3546667 1776.88,99.104 C1780.62933,102.853333 1785.79733,104.728 1792.384,104.728 C1794.512,104.728 1796.51333,104.576 1798.388,104.272 C1800.26267,103.968 1801.85867,103.588 1803.176,103.132 C1804.49333,102.676 1805.65867,102.144 1806.672,101.536 C1807.68533,100.928 1808.496,100.32 1809.104,99.712 C1809.712,99.104 1810.21867,98.572 1810.624,98.116 C1811.02933,97.66 1811.33333,97.28 1811.536,96.976 L1811.688,96.52 L1825.064,96.52 L1825.064,106.552 C1824.86133,106.957333 1824.532,107.464 1824.076,108.072 C1823.62,108.68 1822.50533,109.744 1820.732,111.264 C1818.95867,112.784 1816.932,114.152 1814.652,115.368 C1812.372,116.584 1809.23067,117.673333 1805.228,118.636 C1801.22533,119.598667 1796.89333,120.08 1792.232,120.08 Z M1771.104,71.136 L1808.648,71.136 C1808.648,66.576 1807.10267,62.8013333 1804.012,59.812 C1800.92133,56.8226667 1796.488,55.328 1790.712,55.328 C1779.86933,55.328 1773.33333,60.5973333 1771.104,71.136 Z" id="path-20"></path>
        <polygon id="path-21" points="1861.848 118.256 1843.456 118.256 1843.456 41.952 1861.848 41.952 1861.848 74.936 1893.16 41.952 1906.992 41.952 1906.992 51.984 1881.76 78.28 1909.576 107.616 1909.576 118.256 1894.224 118.256 1861.848 82.992"></polygon>
        <polygon id="path-22" points="1958.976 118.256 1940.584 118.256 1940.584 57.304 1917.176 57.304 1917.176 41.952 1982.384 41.952 1982.384 57.304 1958.976 57.304"></polygon>
        <path d="M2027.984,118.256 L1996.064,118.256 L1996.064,41.952 L2014.456,41.952 L2014.456,66.576 L2028.288,66.576 C2038.72533,66.576 2046.65467,68.8813333 2052.076,73.492 C2057.49733,78.1026667 2060.208,84.208 2060.208,91.808 C2060.208,99.3066667 2057.624,105.538667 2052.456,110.504 C2047.08533,115.672 2038.928,118.256 2027.984,118.256 Z M2088.176,118.256 L2069.784,118.256 L2069.784,41.952 L2088.176,41.952 L2088.176,118.256 Z M2014.456,80.864 L2014.456,103.968 L2026.616,103.968 C2036.24267,103.968 2041.056,99.9653333 2041.056,91.96 C2041.056,84.5626667 2036.24267,80.864 2026.616,80.864 L2014.456,80.864 Z" id="path-23"></path>
    </defs>
    <g id="PanoTour" stroke="none" stroke-width="1" fill="none" fill-rule="evenodd">
        <g id="tour-cover-v1" transform="translate(-811, -357)" fill="#FFFFFF">
            <g id="cover-logo" transform="translate(811, 357)">
                <g id="Производственные-объ" transform="translate(374.684, 86.744)" fill-rule="nonzero">
                    <g id="Path">
                        <use xlink:href="#path-1"></use>
                        <use xlink:href="#path-1"></use>
                    </g>
                    <g id="Shape">
                        <use xlink:href="#path-2"></use>
                        <use xlink:href="#path-2"></use>
                    </g>
                    <g id="Shape">
                        <use xlink:href="#path-3"></use>
                        <use xlink:href="#path-3"></use>
                    </g>
                    <g id="Path">
                        <use xlink:href="#path-4"></use>
                        <use xlink:href="#path-4"></use>
                    </g>
                    <g id="Path">
                        <use xlink:href="#path-5"></use>
                        <use xlink:href="#path-5"></use>
                    </g>
                    <g id="Shape">
                        <use xlink:href="#path-6"></use>
                        <use xlink:href="#path-6"></use>
                    </g>
                    <g id="Shape">
                        <use xlink:href="#path-7"></use>
                        <use xlink:href="#path-7"></use>
                    </g>
                    <g id="Shape">
                        <use xlink:href="#path-8"></use>
                        <use xlink:href="#path-8"></use>
                    </g>
                    <g id="Path">
                        <use xlink:href="#path-9"></use>
                        <use xlink:href="#path-9"></use>
                    </g>
                    <g id="Path">
                        <use xlink:href="#path-10"></use>
                        <use xlink:href="#path-10"></use>
                    </g>
                    <g id="Shape">
                        <use xlink:href="#path-11"></use>
                        <use xlink:href="#path-11"></use>
                    </g>
                    <g id="Shape">
                        <use xlink:href="#path-12"></use>
                        <use xlink:href="#path-12"></use>
                    </g>
                    <g id="Path">
                        <use xlink:href="#path-13"></use>
                        <use xlink:href="#path-13"></use>
                    </g>
                    <g id="Path">
                        <use xlink:href="#path-14"></use>
                        <use xlink:href="#path-14"></use>
                    </g>
                    <g id="Shape">
                        <use xlink:href="#path-15"></use>
                        <use xlink:href="#path-15"></use>
                    </g>
                    <g id="Shape">
                        <use xlink:href="#path-16"></use>
                        <use xlink:href="#path-16"></use>
                    </g>
                    <g id="Shape">
                        <use xlink:href="#path-17"></use>
                        <use xlink:href="#path-17"></use>
                    </g>
                    <g id="Shape">
                        <use xlink:href="#path-18"></use>
                        <use xlink:href="#path-18"></use>
                    </g>
                    <g id="Shape">
                        <use xlink:href="#path-19"></use>
                        <use xlink:href="#path-19"></use>
                    </g>
                    <g id="Shape">
                        <use xlink:href="#path-20"></use>
                        <use xlink:href="#path-20"></use>
                    </g>
                    <g id="Path">
                        <use xlink:href="#path-21"></use>
                        <use xlink:href="#path-21"></use>
                    </g>
                    <g id="Path">
                        <use xlink:href="#path-22"></use>
                        <use xlink:href="#path-22"></use>
                    </g>
                    <g id="Shape">
                        <use xlink:href="#path-23"></use>
                        <use xlink:href="#path-23"></use>
                    </g>
                </g>
                <path d="M143.140061,275.439451 L143.140061,314.806668 C143.140061,315.538408 143.721798,316.123775 144.448964,315.977422 C153.611295,315.245693 162.482747,313.635881 170.917902,310.855294 C171.354199,310.708952 171.790497,310.269927 171.790497,309.684539 L171.790497,213.09586 C171.790497,212.510474 171.354199,211.925084 170.772473,211.925084 C162.191879,210.900659 153.320416,210.315268 144.448964,210.022575 C143.721798,210.022575 143.140061,210.607966 143.140061,211.193352 L143.140061,246.023821 L127.724083,246.023821 L127.724083,211.193352 C127.724083,210.461619 127.142346,209.876229 126.41518,210.022575 C117.398288,210.315268 108.672265,210.90065 100.09167,211.778729 C99.5099332,211.778729 99.0736251,212.364119 99.0736251,212.949505 L99.0736251,309.830881 C99.0736251,310.416258 99.364499,310.855304 99.946236,311.001657 C108.381396,313.489539 117.252848,315.245703 126.41518,315.831091 C127.142346,315.831091 127.724083,315.245703 127.724083,314.660315 L127.724083,275.146762 L143.140061,275.146762 L143.140061,275.439451 Z M90.9269554,213.238084 C80.0194235,214.847895 69.4027602,216.896759 59.5132628,219.677342 C59.222397,219.823689 58.9315285,219.970035 58.7860942,220.409074 L46.4242225,246.16604 L44.3881509,246.16604 L44.3881509,225.970222 C44.3881509,225.092143 43.515548,224.506777 42.7883794,224.799469 C35.5166893,227.433706 28.681302,230.214278 22.282216,233.4339 C21.4868013,233.789638 20.7450944,234.199419 20.0244572,234.597559 C19.5592415,234.854585 19.1028064,235.106761 18.6463715,235.336411 C18.0646364,235.629102 17.77377,236.360824 18.2100713,236.946209 C27.6632666,254.946824 39.152535,270.605907 52.5324426,283.1917 C53.1141796,283.777088 54.132214,283.630746 54.4230799,282.899011 L61.8402002,267.825325 L63.7308456,267.825325 L63.7308456,292.118845 C63.7308456,292.557886 63.8762799,292.850574 64.167143,293.143268 C72.3114347,299.28982 81.1828976,304.265591 90.6360922,308.070602 C91.3632635,308.363307 92.2358637,307.777919 92.2358637,306.899826 L92.2358637,214.40886 C92.3812979,213.677128 91.6541267,213.091737 90.9269554,213.238084 Z M222.397788,222.457919 C228.506017,224.653117 238.395503,230.214293 241.304167,232.116799 C241.885904,232.555838 242.176762,233.141211 241.885882,233.726597 L233.014452,252.458958 C235.3414,253.776075 237.668327,255.532226 239.558977,257.142037 C239.995275,257.581084 240.140693,258.312824 239.704395,258.75186 C234.323344,266.361882 227.77884,273.825541 221.525194,280.11844 C218.325651,277.045164 212.799181,274.996317 207.563569,275.435358 L207.563569,291.240784 C207.563569,291.679825 207.41813,291.972514 207.127272,292.265208 C198.982996,298.41176 190.111544,303.533905 180.658355,307.485258 C179.785749,307.777962 178.913144,307.192574 178.913144,306.314482 L178.913144,214.408861 C178.913144,213.677128 179.64031,213.091737 180.367476,213.238084 C189.384367,214.555202 198.255809,216.311361 206.690953,218.360212 C207.127272,218.506559 207.563569,218.945603 207.563569,219.530989 L207.708987,246.166053 L209.745078,246.166053 C215.756339,233.775377 219.489132,226.067791 220.943457,223.043296 C221.234336,222.45791 221.816073,222.311573 222.397788,222.457919 Z M182.657382,8.86287309 C183.530643,9.29875244 183.676169,10.4610962 182.948455,11.0422685 C146.913999,35.8083037 144.138137,102.340204 140.687586,185.043208 L140.687037,185.056688 L140.683096,185.150988 C140.511586,189.261284 140.338407,193.411506 140.159348,197.598494 L136.957431,197.598494 L137.147925,183.84347 C138.589645,79.2805339 139.181353,36.3665284 150.347234,0 C161.553907,1.45293009 172.469496,4.50408299 182.657382,8.86287309 Z M232.142549,48.2405107 C198.813625,49.6934409 176.400301,70.4703452 162.428352,112.605312 C155.151289,134.689848 148.601951,170.286636 146.85545,197.892295 C145.836664,197.747017 144.67233,197.746996 143.653544,197.746996 C145.254497,163.312567 148.019773,133.963385 151.65831,110.425925 C159.663065,60.0092463 173.78055,32.4035768 205.799583,21.361309 C215.696375,28.3353731 224.865496,36.617074 233.015788,46.2064115 C233.597955,46.9328793 233.161335,48.2405107 232.142549,48.2405107 Z M169.401205,145.727848 C195.162004,95.7470445 240.425293,89.0635675 265.458378,113.763393 C266.331639,114.635143 267.787067,113.763393 267.495972,112.601044 C263.420827,96.6188167 257.308086,81.653628 249.30332,68.141375 C191.81455,52.3044358 156.884663,117.97689 150.189766,198.178636 C150.69916,198.178636 151.24494,198.21495 151.79072,198.251264 C152.3365,198.287599 152.88228,198.323935 153.391684,198.323935 C156.59359,176.239388 159.795496,164.180071 169.401205,145.727848 Z M180.18236,142.969081 C207.980722,107.662869 248.441151,114.201042 270.126782,139.917922 C270.563402,145.584355 270.854474,151.396076 271,157.353085 C271,171.882387 269.253521,185.830527 266.197162,199.052192 C265.906068,200.214541 264.014042,200.35984 263.868495,199.197491 C260.957682,171.301224 228.0654,147.327867 195.173096,157.353085 C180.910064,161.566582 165.773792,174.352383 159.952146,198.616339 C159.370302,198.616339 158.824802,198.580046 158.279324,198.543754 L158.278419,198.543689 L158.277515,198.543625 C157.732036,198.507332 157.186536,198.47104 156.604692,198.47104 C160.388766,174.207084 170.140021,155.609573 180.18236,142.969081 Z M120.513594,0.148609982 C109.306932,1.60153974 98.3913318,4.50739941 88.2034564,9.01148106 C87.3302062,9.4473604 87.1846699,10.6097042 87.9123784,11.1908758 C124.055806,35.8930283 126.739156,102.746592 130.077725,185.923902 L130.078048,185.932029 C130.234719,189.835299 130.392844,193.77456 130.555922,197.74706 L133.757829,197.74706 C133.673877,191.73601 133.59433,185.916313 133.517282,180.278959 C132.124871,78.4069557 131.546355,36.0816308 120.513594,0.148609982 Z M65.056776,21.5044149 C97.07583,32.5466907 111.338862,60.1523737 119.198081,110.569074 C122.982144,134.106566 125.601883,163.455769 127.348373,197.744932 C126.839303,197.744932 126.293889,197.781224 125.748454,197.817517 L125.74742,197.817581 L125.746418,197.817646 C125.200983,197.853938 124.655558,197.890231 124.146477,197.890231 C122.254441,170.284551 115.850628,134.542442 108.573575,112.603183 C94.6016159,70.4681898 72.042745,49.6912748 38.7138319,48.3836381 C37.6950454,48.2383445 37.2584204,47.075996 37.8405844,46.3495336 C45.9908896,36.760188 55.1599786,28.4784844 65.056776,21.5044149 Z M21.6874487,68.1415255 C13.6826852,81.5084796 7.56995897,96.4736682 3.49480739,112.601195 C3.20372501,113.763543 4.65913622,114.635294 5.53238301,113.763522 C30.710999,89.2090116 75.8287566,95.892494 101.589545,145.727998 C111.049717,164.034912 114.39716,176.09424 117.599066,198.178765 C118.108137,198.178765 118.65355,198.142472 119.198986,198.10618 L119.20002,198.106115 L119.201021,198.106051 C119.746456,198.069758 120.291881,198.033466 120.800962,198.033466 C114.106076,117.97703 79.1761967,52.3045863 21.6874487,68.1415255 Z M0.873247045,139.917922 C22.4133409,114.201042 63.0193269,107.662869 90.8176934,142.969081 C100.860033,155.609573 110.611288,174.207084 114.395362,198.47104 C113.231028,198.47104 112.212252,198.47104 111.047919,198.616339 C105.080725,174.352383 90.2355212,160.84012 75.8269475,157.353085 C40.6059843,148.635503 11.061129,171.73711 7.13151738,199.197491 C6.98597636,200.35984 5.09394108,200.214541 4.80285871,199.052192 C1.6009529,185.685228 0,171.737099 0,157.353085 C0,151.396076 0.291082376,145.584355 0.873247045,139.917922 Z" id="Combined-Shape"></path>
            </g>
        </g>
    </g>
</svg>