<?xml version="1.0" encoding="UTF-8"?>
<svg width="2475px" height="316px" viewBox="0 0 2475 316" version="1.1" xmlns="http://www.w3.org/2000/svg" xmlns:xlink="http://www.w3.org/1999/xlink">
    <title>cover-logo</title>
    <defs>
        <polygon id="path-1" points="77.319 159.75 48.99 159.75 48.99 23.856 2.27373675e-13 23.856 2.27373675e-13 0 126.309 0 126.309 23.856 77.319 23.856"></polygon>
        <path d="M171.039,213 L145.266,213 L145.266,52.824 L168.909,52.824 L170.826,69.012 C179.346,56.516 191.558,50.268 207.462,50.268 C222.514,50.268 234.442,55.593 243.246,66.243 C252.05,76.893 256.452,90.17 256.452,106.074 C256.452,121.978 251.979,135.326 243.033,146.118 C234.087,156.91 222.23,162.306 207.462,162.306 C191.7,162.306 179.559,156.2 171.039,143.988 L171.039,213 Z M200.859,139.728 C210.657,139.728 218.041,136.391 223.011,129.717 C227.981,123.043 230.466,115.162 230.466,106.074 C230.466,97.128 227.981,89.318 223.011,82.644 C218.183,76.112 210.799,72.846 200.859,72.846 C191.629,72.846 184.387,76.041 179.133,82.431 C173.737,89.105 171.039,96.986 171.039,106.074 C171.039,115.162 173.737,123.043 179.133,129.717 C184.529,136.391 191.771,139.728 200.859,139.728 Z" id="path-2"></path>
        <polygon id="path-3" points="304.164 159.75 280.095 159.75 280.095 52.824 305.868 52.824 305.868 122.901 355.284 52.824 379.566 52.824 379.566 159.75 353.58 159.75 353.58 89.46"></polygon>
        <polygon id="path-4" points="485.853 159.75 461.784 159.75 461.784 52.824 487.557 52.824 487.557 122.901 536.973 52.824 561.255 52.824 561.255 159.75 535.269 159.75 535.269 89.46"></polygon>
        <path d="M627.285,162.306 C615.641,162.306 606.482,160.247 599.808,156.129 C593.134,152.153 588.164,147.893 584.898,143.349 L584.898,129.291 L603.642,129.291 C607.902,137.669 615.641,141.858 626.859,141.858 C640.207,141.858 646.881,137.172 646.881,127.8 C646.881,119.28 640.349,115.02 627.285,115.02 L610.245,115.02 L610.245,96.489 L626.433,96.489 C637.509,96.489 643.047,92.158 643.047,83.496 C643.047,79.52 641.5915,76.396 638.6805,74.124 C635.7695,71.852 631.545,70.716 626.007,70.716 C615.499,70.716 608.257,74.905 604.281,83.283 L585.963,83.283 L585.963,69.012 C588.803,64.61 593.489,60.421 600.021,56.445 C606.553,52.327 615.854,50.268 627.924,50.268 C640.42,50.268 650.2535,52.8595 657.4245,58.0425 C664.5955,63.2255 668.181,70.503 668.181,79.875 C668.181,91.093 662.927,98.974 652.419,103.518 C665.625,107.92 672.228,116.511 672.228,129.291 C672.228,139.657 668.323,147.751 660.513,153.573 C652.703,159.395 641.627,162.306 627.285,162.306 Z" id="path-5"></path>
        <polygon id="path-6" points="766.374 137.172 748.695 137.172 719.94 89.034 719.94 159.75 695.871 159.75 695.871 52.824 726.117 52.824 758.706 107.778 790.443 52.824 820.689 52.824 820.689 159.75 795.342 159.75 795.342 88.608"></polygon>
        <path d="M900.564,162.306 C882.388,162.306 868.4365,157.1585 858.7095,146.8635 C848.9825,136.5685 844.119,123.043 844.119,106.287 C844.119,90.241 848.947,76.893 858.603,66.243 C868.259,55.593 881.536,50.268 898.434,50.268 C915.19,50.268 927.757,54.7055 936.135,63.5805 C944.513,72.4555 948.702,84.135 948.702,98.619 L947.637,111.186 L870.105,111.186 C870.815,120.416 873.797,127.658 879.051,132.912 C884.305,138.166 891.547,140.793 900.777,140.793 C903.759,140.793 906.5635,140.58 909.1905,140.154 C911.8175,139.728 914.054,139.1955 915.9,138.5565 C917.746,137.9175 919.379,137.172 920.799,136.32 C922.219,135.468 923.355,134.616 924.207,133.764 C925.059,132.912 925.769,132.1665 926.337,131.5275 C926.905,130.8885 927.331,130.356 927.615,129.93 L927.828,129.291 L946.572,129.291 L946.572,143.349 C946.288,143.917 945.8265,144.627 945.1875,145.479 C944.5485,146.331 942.9865,147.822 940.5015,149.952 C938.0165,152.082 935.1765,153.999 931.9815,155.703 C928.7865,157.407 924.3845,158.9335 918.7755,160.2825 C913.1665,161.6315 907.096,162.306 900.564,162.306 Z M870.957,93.72 L923.568,93.72 C923.568,87.33 921.4025,82.0405 917.0715,77.8515 C912.7405,73.6625 906.528,71.568 898.434,71.568 C883.24,71.568 874.081,78.952 870.957,93.72 Z" id="path-7"></path>
        <path d="M998.118,213 L972.345,213 L972.345,52.824 L995.988,52.824 L997.905,69.012 C1006.425,56.516 1018.637,50.268 1034.541,50.268 C1049.593,50.268 1061.521,55.593 1070.325,66.243 C1079.129,76.893 1083.531,90.17 1083.531,106.074 C1083.531,121.978 1079.058,135.326 1070.112,146.118 C1061.166,156.91 1049.309,162.306 1034.541,162.306 C1018.779,162.306 1006.638,156.2 998.118,143.988 L998.118,213 Z M1027.938,139.728 C1037.736,139.728 1045.12,136.391 1050.09,129.717 C1055.06,123.043 1057.545,115.162 1057.545,106.074 C1057.545,97.128 1055.06,89.318 1050.09,82.644 C1045.262,76.112 1037.878,72.846 1027.938,72.846 C1018.708,72.846 1011.466,76.041 1006.212,82.431 C1000.816,89.105 998.118,96.986 998.118,106.074 C998.118,115.162 1000.816,123.043 1006.212,129.717 C1011.608,136.391 1018.85,139.728 1027.938,139.728 Z" id="path-8"></path>
        <path d="M1157.229,162.306 C1139.053,162.306 1125.1015,157.1585 1115.3745,146.8635 C1105.6475,136.5685 1100.784,123.043 1100.784,106.287 C1100.784,90.241 1105.612,76.893 1115.268,66.243 C1124.924,55.593 1138.201,50.268 1155.099,50.268 C1171.855,50.268 1184.422,54.7055 1192.8,63.5805 C1201.178,72.4555 1205.367,84.135 1205.367,98.619 L1204.302,111.186 L1126.77,111.186 C1127.48,120.416 1130.462,127.658 1135.716,132.912 C1140.97,138.166 1148.212,140.793 1157.442,140.793 C1160.424,140.793 1163.2285,140.58 1165.8555,140.154 C1168.4825,139.728 1170.719,139.1955 1172.565,138.5565 C1174.411,137.9175 1176.044,137.172 1177.464,136.32 C1178.884,135.468 1180.02,134.616 1180.872,133.764 C1181.724,132.912 1182.434,132.1665 1183.002,131.5275 C1183.57,130.8885 1183.996,130.356 1184.28,129.93 L1184.493,129.291 L1203.237,129.291 L1203.237,143.349 C1202.953,143.917 1202.4915,144.627 1201.8525,145.479 C1201.2135,146.331 1199.6515,147.822 1197.1665,149.952 C1194.6815,152.082 1191.8415,153.999 1188.6465,155.703 C1185.4515,157.407 1181.0495,158.9335 1175.4405,160.2825 C1169.8315,161.6315 1163.761,162.306 1157.229,162.306 Z M1127.622,93.72 L1180.233,93.72 C1180.233,87.33 1178.0675,82.0405 1173.7365,77.8515 C1169.4055,73.6625 1163.193,71.568 1155.099,71.568 C1139.905,71.568 1130.746,78.952 1127.622,93.72 Z" id="path-9"></path>
        <polygon id="path-10" points="1254.783 159.75 1229.01 159.75 1229.01 52.824 1254.783 52.824 1254.783 94.146 1300.365 94.146 1300.365 52.824 1326.351 52.824 1326.351 159.75 1300.365 159.75 1300.365 115.872 1254.783 115.872"></polygon>
        <polygon id="path-11" points="1380.24 159.75 1356.171 159.75 1356.171 52.824 1381.944 52.824 1381.944 122.901 1431.36 52.824 1455.642 52.824 1455.642 159.75 1429.656 159.75 1429.656 89.46"></polygon>
        <path d="M1544.676,159.75 L1544.676,121.836 L1532.748,121.836 L1498.881,159.75 L1479.498,159.75 L1479.498,145.692 L1505.484,118.428 C1497.674,116.156 1491.6745,112.4285 1487.4855,107.2455 C1483.2965,102.0625 1481.202,95.637 1481.202,87.969 C1481.202,78.455 1484.752,70.148 1491.852,63.048 C1498.952,56.232 1510.028,52.824 1525.08,52.824 L1570.449,52.824 L1570.449,159.75 L1544.676,159.75 Z M1526.997,103.731 L1544.676,103.731 L1544.676,72.207 L1526.997,72.207 C1514.075,72.207 1507.614,77.603 1507.614,88.395 C1507.614,98.619 1514.075,103.731 1526.997,103.731 Z" id="path-12"></path>
        <polygon id="path-13" points="1685.256 159.75 1656.714 159.75 1656.714 0 1685.256 0 1685.256 117.15 1759.806 0 1788.135 0 1788.135 159.75 1759.806 159.75 1759.806 43.878"></polygon>
        <polygon id="path-14" points="1854.378 159.75 1826.049 159.75 1826.049 0 1854.378 0 1854.378 65.817 1925.094 65.817 1925.094 0 1953.636 0 1953.636 159.75 1925.094 159.75 1925.094 89.673 1854.378 89.673"></polygon>
        <polygon id="path-15" points="2088.039 159.75 2019.879 86.265 2019.879 159.75 1991.55 159.75 1991.55 0 2019.879 0 2019.879 72.846 2084.631 0 2105.079 0 2105.079 15.336 2049.06 77.319 2110.404 143.562 2110.404 159.75"></polygon>
    </defs>
    <g id="PanoTour" stroke="none" stroke-width="1" fill="none" fill-rule="evenodd">
        <g id="tour-cover-v1" transform="translate(-811, -357)" fill="#FFFFFF">
            <g id="cover-logo" transform="translate(811, 357)">
                <path d="M143.140061,275.439451 L143.140061,314.806668 C143.140061,315.538408 143.721798,316.123775 144.448964,315.977422 C153.611295,315.245693 162.482747,313.635881 170.917902,310.855294 C171.354199,310.708952 171.790497,310.269927 171.790497,309.684539 L171.790497,213.09586 C171.790497,212.510474 171.354199,211.925084 170.772473,211.925084 C162.191879,210.900659 153.320416,210.315268 144.448964,210.022575 C143.721798,210.022575 143.140061,210.607966 143.140061,211.193352 L143.140061,246.023821 L127.724083,246.023821 L127.724083,211.193352 C127.724083,210.461619 127.142346,209.876229 126.41518,210.022575 C117.398288,210.315268 108.672265,210.90065 100.09167,211.778729 C99.5099332,211.778729 99.0736251,212.364119 99.0736251,212.949505 L99.0736251,309.830881 C99.0736251,310.416258 99.364499,310.855304 99.946236,311.001657 C108.381396,313.489539 117.252848,315.245703 126.41518,315.831091 C127.142346,315.831091 127.724083,315.245703 127.724083,314.660315 L127.724083,275.146762 L143.140061,275.146762 L143.140061,275.439451 Z M90.9269554,213.238084 C80.0194235,214.847895 69.4027602,216.896759 59.5132628,219.677342 C59.222397,219.823689 58.9315285,219.970035 58.7860942,220.409074 L46.4242225,246.16604 L44.3881509,246.16604 L44.3881509,225.970222 C44.3881509,225.092143 43.515548,224.506777 42.7883794,224.799469 C35.5166893,227.433706 28.681302,230.214278 22.282216,233.4339 C21.4868013,233.789638 20.7450944,234.199419 20.0244572,234.597559 C19.5592415,234.854585 19.1028064,235.106761 18.6463715,235.336411 C18.0646364,235.629102 17.77377,236.360824 18.2100713,236.946209 C27.6632666,254.946824 39.152535,270.605907 52.5324426,283.1917 C53.1141796,283.777088 54.132214,283.630746 54.4230799,282.899011 L61.8402002,267.825325 L63.7308456,267.825325 L63.7308456,292.118845 C63.7308456,292.557886 63.8762799,292.850574 64.167143,293.143268 C72.3114347,299.28982 81.1828976,304.265591 90.6360922,308.070602 C91.3632635,308.363307 92.2358637,307.777919 92.2358637,306.899826 L92.2358637,214.40886 C92.3812979,213.677128 91.6541267,213.091737 90.9269554,213.238084 Z M222.397788,222.457919 C228.506017,224.653117 238.395503,230.214293 241.304167,232.116799 C241.885904,232.555838 242.176762,233.141211 241.885882,233.726597 L233.014452,252.458958 C235.3414,253.776075 237.668327,255.532226 239.558977,257.142037 C239.995275,257.581084 240.140693,258.312824 239.704395,258.75186 C234.323344,266.361882 227.77884,273.825541 221.525194,280.11844 C218.325651,277.045164 212.799181,274.996317 207.563569,275.435358 L207.563569,291.240784 C207.563569,291.679825 207.41813,291.972514 207.127272,292.265208 C198.982996,298.41176 190.111544,303.533905 180.658355,307.485258 C179.785749,307.777962 178.913144,307.192574 178.913144,306.314482 L178.913144,214.408861 C178.913144,213.677128 179.64031,213.091737 180.367476,213.238084 C189.384367,214.555202 198.255809,216.311361 206.690953,218.360212 C207.127272,218.506559 207.563569,218.945603 207.563569,219.530989 L207.708987,246.166053 L209.745078,246.166053 C215.756339,233.775377 219.489132,226.067791 220.943457,223.043296 C221.234336,222.45791 221.816073,222.311573 222.397788,222.457919 Z M182.657382,8.86287309 C183.530643,9.29875244 183.676169,10.4610962 182.948455,11.0422685 C146.913999,35.8083037 144.138137,102.340204 140.687586,185.043208 L140.687037,185.056688 L140.683096,185.150988 C140.511586,189.261284 140.338407,193.411506 140.159348,197.598494 L136.957431,197.598494 L137.147925,183.84347 C138.589645,79.2805339 139.181353,36.3665284 150.347234,0 C161.553907,1.45293009 172.469496,4.50408299 182.657382,8.86287309 Z M232.142549,48.2405107 C198.813625,49.6934409 176.400301,70.4703452 162.428352,112.605312 C155.151289,134.689848 148.601951,170.286636 146.85545,197.892295 C145.836664,197.747017 144.67233,197.746996 143.653544,197.746996 C145.254497,163.312567 148.019773,133.963385 151.65831,110.425925 C159.663065,60.0092463 173.78055,32.4035768 205.799583,21.361309 C215.696375,28.3353731 224.865496,36.617074 233.015788,46.2064115 C233.597955,46.9328793 233.161335,48.2405107 232.142549,48.2405107 Z M169.401205,145.727848 C195.162004,95.7470445 240.425293,89.0635675 265.458378,113.763393 C266.331639,114.635143 267.787067,113.763393 267.495972,112.601044 C263.420827,96.6188167 257.308086,81.653628 249.30332,68.141375 C191.81455,52.3044358 156.884663,117.97689 150.189766,198.178636 C150.69916,198.178636 151.24494,198.21495 151.79072,198.251264 C152.3365,198.287599 152.88228,198.323935 153.391684,198.323935 C156.59359,176.239388 159.795496,164.180071 169.401205,145.727848 Z M180.18236,142.969081 C207.980722,107.662869 248.441151,114.201042 270.126782,139.917922 C270.563402,145.584355 270.854474,151.396076 271,157.353085 C271,171.882387 269.253521,185.830527 266.197162,199.052192 C265.906068,200.214541 264.014042,200.35984 263.868495,199.197491 C260.957682,171.301224 228.0654,147.327867 195.173096,157.353085 C180.910064,161.566582 165.773792,174.352383 159.952146,198.616339 C159.370302,198.616339 158.824802,198.580046 158.279324,198.543754 L158.278419,198.543689 L158.277515,198.543625 C157.732036,198.507332 157.186536,198.47104 156.604692,198.47104 C160.388766,174.207084 170.140021,155.609573 180.18236,142.969081 Z M120.513594,0.148609982 C109.306932,1.60153974 98.3913318,4.50739941 88.2034564,9.01148106 C87.3302062,9.4473604 87.1846699,10.6097042 87.9123784,11.1908758 C124.055806,35.8930283 126.739156,102.746592 130.077725,185.923902 L130.078048,185.932029 C130.234719,189.835299 130.392844,193.77456 130.555922,197.74706 L133.757829,197.74706 C133.673877,191.73601 133.59433,185.916313 133.517282,180.278959 C132.124871,78.4069557 131.546355,36.0816308 120.513594,0.148609982 Z M65.056776,21.5044149 C97.07583,32.5466907 111.338862,60.1523737 119.198081,110.569074 C122.982144,134.106566 125.601883,163.455769 127.348373,197.744932 C126.839303,197.744932 126.293889,197.781224 125.748454,197.817517 L125.74742,197.817581 L125.746418,197.817646 C125.200983,197.853938 124.655558,197.890231 124.146477,197.890231 C122.254441,170.284551 115.850628,134.542442 108.573575,112.603183 C94.6016159,70.4681898 72.042745,49.6912748 38.7138319,48.3836381 C37.6950454,48.2383445 37.2584204,47.075996 37.8405844,46.3495336 C45.9908896,36.760188 55.1599786,28.4784844 65.056776,21.5044149 Z M21.6874487,68.1415255 C13.6826852,81.5084796 7.56995897,96.4736682 3.49480739,112.601195 C3.20372501,113.763543 4.65913622,114.635294 5.53238301,113.763522 C30.710999,89.2090116 75.8287566,95.892494 101.589545,145.727998 C111.049717,164.034912 114.39716,176.09424 117.599066,198.178765 C118.108137,198.178765 118.65355,198.142472 119.198986,198.10618 L119.20002,198.106115 L119.201021,198.106051 C119.746456,198.069758 120.291881,198.033466 120.800962,198.033466 C114.106076,117.97703 79.1761967,52.3045863 21.6874487,68.1415255 Z M0.873247045,139.917922 C22.4133409,114.201042 63.0193269,107.662869 90.8176934,142.969081 C100.860033,155.609573 110.611288,174.207084 114.395362,198.47104 C113.231028,198.47104 112.212252,198.47104 111.047919,198.616339 C105.080725,174.352383 90.2355212,160.84012 75.8269475,157.353085 C40.6059843,148.635503 11.061129,171.73711 7.13151738,199.197491 C6.98597636,200.35984 5.09394108,200.214541 4.80285871,199.052192 C1.6009529,185.685228 0,171.737099 0,157.353085 C0,151.396076 0.291082376,145.584355 0.873247045,139.917922 Z" id="Combined-Shape"></path>
                <g id="Три-измерения-ИНК" transform="translate(363.6915, 51.25)" fill-rule="nonzero">
                    <g id="Path">
                        <use xlink:href="#path-1"></use>
                        <use xlink:href="#path-1"></use>
                    </g>
                    <g id="Shape">
                        <use xlink:href="#path-2"></use>
                        <use xlink:href="#path-2"></use>
                    </g>
                    <g id="Path">
                        <use xlink:href="#path-3"></use>
                        <use xlink:href="#path-3"></use>
                    </g>
                    <g id="Path">
                        <use xlink:href="#path-4"></use>
                        <use xlink:href="#path-4"></use>
                    </g>
                    <g id="Path">
                        <use xlink:href="#path-5"></use>
                        <use xlink:href="#path-5"></use>
                    </g>
                    <g id="Path">
                        <use xlink:href="#path-6"></use>
                        <use xlink:href="#path-6"></use>
                    </g>
                    <g id="Shape">
                        <use xlink:href="#path-7"></use>
                        <use xlink:href="#path-7"></use>
                    </g>
                    <g id="Shape">
                        <use xlink:href="#path-8"></use>
                        <use xlink:href="#path-8"></use>
                    </g>
                    <g id="Shape">
                        <use xlink:href="#path-9"></use>
                        <use xlink:href="#path-9"></use>
                    </g>
                    <g id="Path">
                        <use xlink:href="#path-10"></use>
                        <use xlink:href="#path-10"></use>
                    </g>
                    <g id="Path">
                        <use xlink:href="#path-11"></use>
                        <use xlink:href="#path-11"></use>
                    </g>
                    <g id="Shape">
                        <use xlink:href="#path-12"></use>
                        <use xlink:href="#path-12"></use>
                    </g>
                    <g id="Path">
                        <use xlink:href="#path-13"></use>
                        <use xlink:href="#path-13"></use>
                    </g>
                    <g id="Path">
                        <use xlink:href="#path-14"></use>
                        <use xlink:href="#path-14"></use>
                    </g>
                    <g id="Path">
                        <use xlink:href="#path-15"></use>
                        <use xlink:href="#path-15"></use>
                    </g>
                </g>
            </g>
        </g>
    </g>
</svg>