<?xml version="1.0" encoding="UTF-8"?>
<svg width="634px" height="653px" viewBox="0 0 634 653" version="1.1" xmlns="http://www.w3.org/2000/svg" xmlns:xlink="http://www.w3.org/1999/xlink">
    <title>front-map</title>
    <defs>
        <polygon id="path-1" points="4.824 27 0 27 0 0 4.824 0 4.824 19.8 17.424 0 22.212 0 22.212 27 17.424 27 17.424 7.416"></polygon>
        <path d="M42.516,27 L38.124,27 L38.124,20.916 L34.596,20.916 C31.98,20.916 30.03,20.346 28.746,19.206 C27.462,18.066 26.82,16.296 26.82,13.896 L26.82,8.928 L31.212,8.928 L31.212,13.896 C31.212,15.12 31.512,16.008 32.112,16.56 C32.712,17.112 33.624,17.388 34.848,17.388 L38.124,17.388 L38.124,8.928 L42.516,8.928 L42.516,27 Z" id="path-2"></path>
        <path d="M54.504,5.184 L50.004,5.184 L50.004,0.756 L54.504,0.756 L54.504,5.184 Z M61.38,5.184 L56.88,5.184 L56.88,0.756 L61.38,0.756 L61.38,5.184 Z M56.016,27.432 C52.944,27.432 50.586,26.562 48.942,24.822 C47.298,23.082 46.476,20.796 46.476,17.964 C46.476,15.252 47.292,12.996 48.924,11.196 C50.556,9.396 52.8,8.496 55.656,8.496 C58.488,8.496 60.612,9.246 62.028,10.746 C63.444,12.246 64.152,14.22 64.152,16.668 L63.972,18.792 L50.868,18.792 C50.988,20.352 51.492,21.576 52.38,22.464 C53.268,23.352 54.492,23.796 56.052,23.796 C56.556,23.796 57.03,23.76 57.474,23.688 C57.918,23.616 58.296,23.526 58.608,23.418 C58.92,23.31 59.196,23.184 59.436,23.04 C59.676,22.896 59.868,22.752 60.012,22.608 C60.156,22.464 60.276,22.338 60.372,22.23 C60.468,22.122 60.54,22.032 60.588,21.96 L60.624,21.852 L63.792,21.852 L63.792,24.228 C63.744,24.324 63.666,24.444 63.558,24.588 C63.45,24.732 63.186,24.984 62.766,25.344 C62.346,25.704 61.866,26.028 61.326,26.316 C60.786,26.604 60.042,26.862 59.094,27.09 C58.146,27.318 57.12,27.432 56.016,27.432 Z M51.012,15.84 L59.904,15.84 C59.904,14.76 59.538,13.866 58.806,13.158 C58.074,12.45 57.024,12.096 55.656,12.096 C53.088,12.096 51.54,13.344 51.012,15.84 Z" id="path-3"></path>
        <path d="M70.056,32.04 L66.096,32.04 L66.096,23.508 L67.968,23.508 C68.856,22.836 69.432,20.784 69.696,17.352 L70.272,8.928 L84.276,8.928 L84.276,23.508 L87.084,23.508 L87.084,32.04 L83.124,32.04 L83.124,27 L70.056,27 L70.056,32.04 Z M72.18,23.508 L79.956,23.508 L79.956,12.384 L73.908,12.384 L73.476,17.928 C73.332,20.4 72.9,22.26 72.18,23.508 Z" id="path-4"></path>
        <polygon id="path-5" points="94.716 27 90.648 27 90.648 8.928 95.004 8.928 95.004 20.772 103.356 8.928 107.46 8.928 107.46 27 103.068 27 103.068 15.12"></polygon>
        <polygon id="path-6" points="116.856 27 112.5 27 112.5 8.928 116.856 8.928 116.856 15.912 124.56 15.912 124.56 8.928 128.952 8.928 128.952 27 124.56 27 124.56 19.584 116.856 19.584"></polygon>
        <path d="M142.2,27.432 C139.224,27.432 136.932,26.538 135.324,24.75 C133.716,22.962 132.912,20.7 132.912,17.964 C132.912,15.252 133.752,12.99 135.432,11.178 C137.112,9.366 139.368,8.46 142.2,8.46 C143.28,8.46 144.27,8.586 145.17,8.838 C146.07,9.09 146.766,9.396 147.258,9.756 C147.75,10.116 148.164,10.482 148.5,10.854 C148.836,11.226 149.064,11.544 149.184,11.808 L149.328,12.168 L149.328,14.544 L146.268,14.544 L146.232,14.4 C146.208,14.328 146.154,14.22 146.07,14.076 C145.986,13.932 145.878,13.782 145.746,13.626 C145.614,13.47 145.44,13.302 145.224,13.122 C145.008,12.942 144.768,12.786 144.504,12.654 C144.24,12.522 143.904,12.414 143.496,12.33 C143.088,12.246 142.656,12.204 142.2,12.204 C140.616,12.204 139.404,12.744 138.564,13.824 C137.724,14.904 137.304,16.284 137.304,17.964 C137.304,19.644 137.724,21.018 138.564,22.086 C139.404,23.154 140.616,23.688 142.2,23.688 C142.584,23.688 142.944,23.664 143.28,23.616 C143.616,23.568 143.91,23.496 144.162,23.4 C144.414,23.304 144.642,23.196 144.846,23.076 C145.05,22.956 145.224,22.836 145.368,22.716 C145.512,22.596 145.644,22.464 145.764,22.32 C145.884,22.176 145.974,22.05 146.034,21.942 C146.094,21.834 146.148,21.732 146.196,21.636 C146.244,21.54 146.28,21.468 146.304,21.42 L146.304,21.348 L149.364,21.348 L149.364,23.724 C149.316,23.82 149.25,23.952 149.166,24.12 C149.082,24.288 148.86,24.588 148.5,25.02 C148.14,25.452 147.72,25.83 147.24,26.154 C146.76,26.478 146.07,26.772 145.17,27.036 C144.27,27.3 143.28,27.432 142.2,27.432 Z" id="path-7"></path>
        <polygon id="path-8" points="157.788 27 153.432 27 153.432 8.928 157.788 8.928 157.788 16.74 165.204 8.928 168.48 8.928 168.48 11.304 162.504 17.532 169.092 24.48 169.092 27 165.456 27 157.788 18.648"></polygon>
        <path d="M180.972,27.432 C178.116,27.432 175.842,26.526 174.15,24.714 C172.458,22.902 171.612,20.64 171.612,17.928 C171.612,15.24 172.452,12.996 174.132,11.196 C175.812,9.396 178.092,8.496 180.972,8.496 C183.804,8.496 186.066,9.396 187.758,11.196 C189.45,12.996 190.296,15.24 190.296,17.928 C190.296,20.616 189.45,22.872 187.758,24.696 C186.066,26.52 183.804,27.432 180.972,27.432 Z M177.228,21.996 C178.068,23.124 179.316,23.688 180.972,23.688 C182.628,23.688 183.876,23.124 184.716,21.996 C185.508,20.892 185.904,19.536 185.904,17.928 C185.904,16.392 185.508,15.06 184.716,13.932 C183.876,12.804 182.628,12.24 180.972,12.24 C179.316,12.24 178.068,12.804 177.228,13.932 C176.412,15.036 176.004,16.368 176.004,17.928 C176.004,19.536 176.412,20.892 177.228,21.996 Z" id="path-9"></path>
        <path d="M202.716,27.432 C199.644,27.432 197.286,26.562 195.642,24.822 C193.998,23.082 193.176,20.796 193.176,17.964 C193.176,15.252 193.992,12.996 195.624,11.196 C197.256,9.396 199.5,8.496 202.356,8.496 C205.188,8.496 207.312,9.246 208.728,10.746 C210.144,12.246 210.852,14.22 210.852,16.668 L210.672,18.792 L197.568,18.792 C197.688,20.352 198.192,21.576 199.08,22.464 C199.968,23.352 201.192,23.796 202.752,23.796 C203.256,23.796 203.73,23.76 204.174,23.688 C204.618,23.616 204.996,23.526 205.308,23.418 C205.62,23.31 205.896,23.184 206.136,23.04 C206.376,22.896 206.568,22.752 206.712,22.608 C206.856,22.464 206.976,22.338 207.072,22.23 C207.168,22.122 207.24,22.032 207.288,21.96 L207.324,21.852 L210.492,21.852 L210.492,24.228 C210.444,24.324 210.366,24.444 210.258,24.588 C210.15,24.732 209.886,24.984 209.466,25.344 C209.046,25.704 208.566,26.028 208.026,26.316 C207.486,26.604 206.742,26.862 205.794,27.09 C204.846,27.318 203.82,27.432 202.716,27.432 Z M197.712,15.84 L206.604,15.84 C206.604,14.76 206.238,13.866 205.506,13.158 C204.774,12.45 203.724,12.096 202.356,12.096 C199.788,12.096 198.24,13.344 197.712,15.84 Z" id="path-10"></path>
        <polygon id="path-11" points="62.248 51.88 60.588 51.88 57.888 47.36 57.888 54 55.628 54 55.628 43.96 58.468 43.96 61.528 49.12 64.508 43.96 67.348 43.96 67.348 54 64.968 54 64.968 47.32"></polygon>
        <path d="M74.848,54.24 C73.1413333,54.24 71.8313333,53.7566667 70.918,52.79 C70.0046667,51.8233333 69.548,50.5533333 69.548,48.98 C69.548,47.4733333 70.0013333,46.22 70.908,45.22 C71.8146667,44.22 73.0613333,43.72 74.648,43.72 C76.2213333,43.72 77.4013333,44.1366667 78.188,44.97 C78.9746667,45.8033333 79.368,46.9 79.368,48.26 L79.268,49.44 L71.988,49.44 C72.0546667,50.3066667 72.3346667,50.9866667 72.828,51.48 C73.3213333,51.9733333 74.0013333,52.22 74.868,52.22 C75.148,52.22 75.4113333,52.2 75.658,52.16 C75.9046667,52.12 76.1146667,52.07 76.288,52.01 C76.4613333,51.95 76.6146667,51.88 76.748,51.8 C76.8813333,51.72 76.988,51.64 77.068,51.56 C77.148,51.48 77.2146667,51.41 77.268,51.35 C77.3213333,51.29 77.3613333,51.24 77.388,51.2 L77.408,51.14 L79.168,51.14 L79.168,52.46 C79.1413333,52.5133333 79.098,52.58 79.038,52.66 C78.978,52.74 78.8313333,52.88 78.598,53.08 C78.3646667,53.28 78.098,53.46 77.798,53.62 C77.498,53.78 77.0846667,53.9233333 76.558,54.05 C76.0313333,54.1766667 75.4613333,54.24 74.848,54.24 Z M72.068,47.8 L77.008,47.8 C77.008,47.2 76.8046667,46.7033333 76.398,46.31 C75.9913333,45.9166667 75.408,45.72 74.648,45.72 C73.2213333,45.72 72.3613333,46.4133333 72.068,47.8 Z" id="path-12"></path>
        <path d="M86.148,54.24 C84.4946667,54.24 83.2213333,53.7433333 82.328,52.75 C81.4346667,51.7566667 80.988,50.5 80.988,48.98 C80.988,47.4733333 81.4546667,46.2166667 82.388,45.21 C83.3213333,44.2033333 84.5746667,43.7 86.148,43.7 C86.748,43.7 87.298,43.77 87.798,43.91 C88.298,44.05 88.6846667,44.22 88.958,44.42 C89.2313333,44.62 89.4613333,44.8233333 89.648,45.03 C89.8346667,45.2366667 89.9613333,45.4133333 90.028,45.56 L90.108,45.76 L90.108,47.08 L88.408,47.08 L88.388,47 C88.3746667,46.96 88.3446667,46.9 88.298,46.82 C88.2513333,46.74 88.1913333,46.6566667 88.118,46.57 C88.0446667,46.4833333 87.948,46.39 87.828,46.29 C87.708,46.19 87.5746667,46.1033333 87.428,46.03 C87.2813333,45.9566667 87.0946667,45.8966667 86.868,45.85 C86.6413333,45.8033333 86.4013333,45.78 86.148,45.78 C85.268,45.78 84.5946667,46.08 84.128,46.68 C83.6613333,47.28 83.428,48.0466667 83.428,48.98 C83.428,49.9133333 83.6613333,50.6766667 84.128,51.27 C84.5946667,51.8633333 85.268,52.16 86.148,52.16 C86.3613333,52.16 86.5613333,52.1466667 86.748,52.12 C86.9346667,52.0933333 87.098,52.0533333 87.238,52 C87.378,51.9466667 87.5046667,51.8866667 87.618,51.82 C87.7313333,51.7533333 87.828,51.6866667 87.908,51.62 C87.988,51.5533333 88.0613333,51.48 88.128,51.4 C88.1946667,51.32 88.2446667,51.25 88.278,51.19 C88.3113333,51.13 88.3413333,51.0733333 88.368,51.02 C88.3946667,50.9666667 88.4146667,50.9266667 88.428,50.9 L88.428,50.86 L90.128,50.86 L90.128,52.18 C90.1013333,52.2333333 90.0646667,52.3066667 90.018,52.4 C89.9713333,52.4933333 89.848,52.66 89.648,52.9 C89.448,53.14 89.2146667,53.35 88.948,53.53 C88.6813333,53.71 88.298,53.8733333 87.798,54.02 C87.298,54.1666667 86.748,54.24 86.148,54.24 Z" id="path-13"></path>
        <polygon id="path-14" points="96.888 54 94.468 54 94.468 45.98 91.388 45.98 91.388 43.96 99.968 43.96 99.968 45.98 96.888 45.98"></polygon>
        <path d="M106.368,54.24 C104.781333,54.24 103.518,53.7366667 102.578,52.73 C101.638,51.7233333 101.168,50.4666667 101.168,48.96 C101.168,47.4666667 101.634667,46.22 102.568,45.22 C103.501333,44.22 104.768,43.72 106.368,43.72 C107.941333,43.72 109.198,44.22 110.138,45.22 C111.078,46.22 111.548,47.4666667 111.548,48.96 C111.548,50.4533333 111.078,51.7066667 110.138,52.72 C109.198,53.7333333 107.941333,54.24 106.368,54.24 Z M104.288,51.22 C104.754667,51.8466667 105.448,52.16 106.368,52.16 C107.288,52.16 107.981333,51.8466667 108.448,51.22 C108.888,50.6066667 109.108,49.8533333 109.108,48.96 C109.108,48.1066667 108.888,47.3666667 108.448,46.74 C107.981333,46.1133333 107.288,45.8 106.368,45.8 C105.448,45.8 104.754667,46.1133333 104.288,46.74 C103.834667,47.3533333 103.608,48.0933333 103.608,48.96 C103.608,49.8533333 103.834667,50.6066667 104.288,51.22 Z" id="path-15"></path>
        <path d="M116.168,59 L113.748,59 L113.748,43.96 L115.968,43.96 L116.148,45.48 C116.948,44.3066667 118.094667,43.72 119.588,43.72 C121.001333,43.72 122.121333,44.22 122.948,45.22 C123.774667,46.22 124.188,47.4666667 124.188,48.96 C124.188,50.4533333 123.768,51.7066667 122.928,52.72 C122.088,53.7333333 120.974667,54.24 119.588,54.24 C118.108,54.24 116.968,53.6666667 116.168,52.52 L116.168,59 Z M118.968,52.12 C119.888,52.12 120.581333,51.8066667 121.048,51.18 C121.514667,50.5533333 121.748,49.8133333 121.748,48.96 C121.748,48.12 121.514667,47.3866667 121.048,46.76 C120.594667,46.1466667 119.901333,45.84 118.968,45.84 C118.101333,45.84 117.421333,46.14 116.928,46.74 C116.421333,47.3666667 116.168,48.1066667 116.168,48.96 C116.168,49.8133333 116.421333,50.5533333 116.928,51.18 C117.434667,51.8066667 118.114667,52.12 118.968,52.12 Z" id="path-16"></path>
        <path d="M131.008,54.24 C129.421333,54.24 128.158,53.7366667 127.218,52.73 C126.278,51.7233333 125.808,50.4666667 125.808,48.96 C125.808,47.4666667 126.274667,46.22 127.208,45.22 C128.141333,44.22 129.408,43.72 131.008,43.72 C132.581333,43.72 133.838,44.22 134.778,45.22 C135.718,46.22 136.188,47.4666667 136.188,48.96 C136.188,50.4533333 135.718,51.7066667 134.778,52.72 C133.838,53.7333333 132.581333,54.24 131.008,54.24 Z M128.928,51.22 C129.394667,51.8466667 130.088,52.16 131.008,52.16 C131.928,52.16 132.621333,51.8466667 133.088,51.22 C133.528,50.6066667 133.748,49.8533333 133.748,48.96 C133.748,48.1066667 133.528,47.3666667 133.088,46.74 C132.621333,46.1133333 131.928,45.8 131.008,45.8 C130.088,45.8 129.394667,46.1133333 128.928,46.74 C128.474667,47.3533333 128.248,48.0933333 128.248,48.96 C128.248,49.8533333 128.474667,50.6066667 128.928,51.22 Z" id="path-17"></path>
        <polygon id="path-18" points="139.688 54 137.728 54 137.728 52.6 141.108 48.78 137.748 45.24 137.748 43.96 139.608 43.96 143.708 48.32 143.708 43.96 146.148 43.96 146.148 48.34 150.168 43.96 152.008 43.96 152.008 45.28 148.748 48.76 152.208 52.6 152.208 54 150.228 54 146.148 49.3 146.148 54 143.708 54 143.708 49.34"></polygon>
        <path d="M155.328,56.8 L153.128,56.8 L153.128,52.06 L154.168,52.06 C154.661333,51.6866667 154.981333,50.5466667 155.128,48.64 L155.448,43.96 L163.228,43.96 L163.228,52.06 L164.788,52.06 L164.788,56.8 L162.588,56.8 L162.588,54 L155.328,54 L155.328,56.8 Z M156.508,52.06 L160.828,52.06 L160.828,45.88 L157.468,45.88 L157.228,48.96 C157.148,50.3333333 156.908,51.3666667 156.508,52.06 Z" id="path-19"></path>
        <path d="M171.468,54.24 C169.761333,54.24 168.451333,53.7566667 167.538,52.79 C166.624667,51.8233333 166.168,50.5533333 166.168,48.98 C166.168,47.4733333 166.621333,46.22 167.528,45.22 C168.434667,44.22 169.681333,43.72 171.268,43.72 C172.841333,43.72 174.021333,44.1366667 174.808,44.97 C175.594667,45.8033333 175.988,46.9 175.988,48.26 L175.888,49.44 L168.608,49.44 C168.674667,50.3066667 168.954667,50.9866667 169.448,51.48 C169.941333,51.9733333 170.621333,52.22 171.488,52.22 C171.768,52.22 172.031333,52.2 172.278,52.16 C172.524667,52.12 172.734667,52.07 172.908,52.01 C173.081333,51.95 173.234667,51.88 173.368,51.8 C173.501333,51.72 173.608,51.64 173.688,51.56 C173.768,51.48 173.834667,51.41 173.888,51.35 C173.941333,51.29 173.981333,51.24 174.008,51.2 L174.028,51.14 L175.788,51.14 L175.788,52.46 C175.761333,52.5133333 175.718,52.58 175.658,52.66 C175.598,52.74 175.451333,52.88 175.218,53.08 C174.984667,53.28 174.718,53.46 174.418,53.62 C174.118,53.78 173.704667,53.9233333 173.178,54.05 C172.651333,54.1766667 172.081333,54.24 171.468,54.24 Z M168.688,47.8 L173.628,47.8 C173.628,47.2 173.424667,46.7033333 173.018,46.31 C172.611333,45.9166667 172.028,45.72 171.268,45.72 C169.841333,45.72 168.981333,46.4133333 168.688,47.8 Z" id="path-20"></path>
        <polygon id="path-21" points="180.628 54 178.208 54 178.208 43.96 180.628 43.96 180.628 47.84 184.908 47.84 184.908 43.96 187.348 43.96 187.348 54 184.908 54 184.908 49.88 180.628 49.88"></polygon>
        <polygon id="path-22" points="192.408 54 190.148 54 190.148 43.96 192.568 43.96 192.568 50.54 197.208 43.96 199.488 43.96 199.488 54 197.048 54 197.048 47.4"></polygon>
        <path d="M206.988,54.24 C205.281333,54.24 203.971333,53.7566667 203.058,52.79 C202.144667,51.8233333 201.688,50.5533333 201.688,48.98 C201.688,47.4733333 202.141333,46.22 203.048,45.22 C203.954667,44.22 205.201333,43.72 206.788,43.72 C208.361333,43.72 209.541333,44.1366667 210.328,44.97 C211.114667,45.8033333 211.508,46.9 211.508,48.26 L211.408,49.44 L204.128,49.44 C204.194667,50.3066667 204.474667,50.9866667 204.968,51.48 C205.461333,51.9733333 206.141333,52.22 207.008,52.22 C207.288,52.22 207.551333,52.2 207.798,52.16 C208.044667,52.12 208.254667,52.07 208.428,52.01 C208.601333,51.95 208.754667,51.88 208.888,51.8 C209.021333,51.72 209.128,51.64 209.208,51.56 C209.288,51.48 209.354667,51.41 209.408,51.35 C209.461333,51.29 209.501333,51.24 209.528,51.2 L209.548,51.14 L211.308,51.14 L211.308,52.46 C211.281333,52.5133333 211.238,52.58 211.178,52.66 C211.118,52.74 210.971333,52.88 210.738,53.08 C210.504667,53.28 210.238,53.46 209.938,53.62 C209.638,53.78 209.224667,53.9233333 208.698,54.05 C208.171333,54.1766667 207.601333,54.24 206.988,54.24 Z M204.208,47.8 L209.148,47.8 C209.148,47.2 208.944667,46.7033333 208.538,46.31 C208.131333,45.9166667 207.548,45.72 206.788,45.72 C205.361333,45.72 204.501333,46.4133333 204.208,47.8 Z" id="path-23"></path>
        <path d="M14.652,27 L14.652,16.524 L11.304,16.524 L3.672,27 L-4.54747351e-13,27 L-4.54747351e-13,24.264 L6.624,15.516 C5.064,14.988 3.804,14.07 2.844,12.762 C1.884,11.454 1.404,9.948 1.404,8.244 C1.404,5.7 2.262,3.69 3.978,2.214 C5.694,0.738 8.016,0 10.944,0 L19.476,0 L19.476,27 L14.652,27 Z M10.98,12.636 L14.688,12.636 L14.688,3.96 L10.98,3.96 C9.516,3.96 8.352,4.368 7.488,5.184 C6.624,6 6.192,7.032 6.192,8.28 C6.192,9.576 6.63,10.626 7.506,11.43 C8.382,12.234 9.54,12.636 10.98,12.636 Z" id="path-24"></path>
        <path d="M29.556,36 L25.2,36 L25.2,8.928 L29.196,8.928 L29.52,11.664 C30.96,9.552 33.024,8.496 35.712,8.496 C38.256,8.496 40.272,9.396 41.76,11.196 C43.248,12.996 43.992,15.24 43.992,17.928 C43.992,20.616 43.236,22.872 41.724,24.696 C40.212,26.52 38.208,27.432 35.712,27.432 C33.048,27.432 30.996,26.4 29.556,24.336 L29.556,36 Z M34.596,23.616 C36.252,23.616 37.5,23.052 38.34,21.924 C39.18,20.796 39.6,19.464 39.6,17.928 C39.6,16.416 39.18,15.096 38.34,13.968 C37.524,12.864 36.276,12.312 34.596,12.312 C33.036,12.312 31.812,12.852 30.924,13.932 C30.012,15.06 29.556,16.392 29.556,17.928 C29.556,19.464 30.012,20.796 30.924,21.924 C31.836,23.052 33.06,23.616 34.596,23.616 Z" id="path-25"></path>
        <path d="M52.776,27.432 C50.76,27.432 49.248,26.88 48.24,25.776 C47.232,24.672 46.728,23.352 46.728,21.816 C46.728,20.16 47.352,18.834 48.6,17.838 C49.848,16.842 51.732,16.344 54.252,16.344 C54.852,16.344 55.47,16.38 56.106,16.452 C56.742,16.524 57.228,16.596 57.564,16.668 L58.032,16.776 L58.032,15.804 C58.032,13.38 56.868,12.168 54.54,12.168 C54.156,12.168 53.802,12.204 53.478,12.276 C53.154,12.348 52.872,12.438 52.632,12.546 C52.392,12.654 52.17,12.78 51.966,12.924 C51.762,13.068 51.594,13.212 51.462,13.356 C51.33,13.5 51.222,13.626 51.138,13.734 C51.054,13.842 50.988,13.932 50.94,14.004 L50.868,14.112 L47.772,14.112 L47.772,11.736 C47.82,11.64 47.892,11.52 47.988,11.376 C48.084,11.232 48.318,10.974 48.69,10.602 C49.062,10.23 49.488,9.9 49.968,9.612 C50.448,9.324 51.102,9.066 51.93,8.838 C52.758,8.61 53.664,8.496 54.648,8.496 C57.192,8.496 59.124,9.126 60.444,10.386 C61.764,11.646 62.424,13.488 62.424,15.912 L62.424,27 L58.68,27 L58.284,24.516 C56.964,26.46 55.128,27.432 52.776,27.432 Z M53.856,23.976 C55.128,23.976 56.142,23.616 56.898,22.896 C57.654,22.176 58.032,21.384 58.032,20.52 L58.032,19.656 C57.024,19.368 55.812,19.224 54.396,19.224 C52.164,19.224 51.048,20.016 51.048,21.6 C51.048,23.184 51.984,23.976 53.856,23.976 Z" id="path-26"></path>
        <polygon id="path-27" points="71.64 27 67.284 27 67.284 8.928 71.64 8.928 71.64 16.74 79.056 8.928 82.332 8.928 82.332 11.304 76.356 17.532 82.944 24.48 82.944 27 79.308 27 71.64 18.648"></polygon>
        <polygon id="path-28" points="94.644 27 90.288 27 90.288 12.564 84.744 12.564 84.744 8.928 100.188 8.928 100.188 12.564 94.644 12.564"></polygon>
        <polygon id="path-29" points="107.496 27 103.428 27 103.428 8.928 107.784 8.928 107.784 20.772 116.136 8.928 120.24 8.928 120.24 27 115.848 27 115.848 15.12"></polygon>
        <polygon id="path-30" points="129.636 27 125.28 27 125.28 8.928 129.636 8.928 129.636 15.912 137.34 15.912 137.34 8.928 141.732 8.928 141.732 27 137.34 27 137.34 19.584 129.636 19.584"></polygon>
        <path d="M154.98,27.432 C152.004,27.432 149.712,26.538 148.104,24.75 C146.496,22.962 145.692,20.7 145.692,17.964 C145.692,15.252 146.532,12.99 148.212,11.178 C149.892,9.366 152.148,8.46 154.98,8.46 C156.06,8.46 157.05,8.586 157.95,8.838 C158.85,9.09 159.546,9.396 160.038,9.756 C160.53,10.116 160.944,10.482 161.28,10.854 C161.616,11.226 161.844,11.544 161.964,11.808 L162.108,12.168 L162.108,14.544 L159.048,14.544 L159.012,14.4 C158.988,14.328 158.934,14.22 158.85,14.076 C158.766,13.932 158.658,13.782 158.526,13.626 C158.394,13.47 158.22,13.302 158.004,13.122 C157.788,12.942 157.548,12.786 157.284,12.654 C157.02,12.522 156.684,12.414 156.276,12.33 C155.868,12.246 155.436,12.204 154.98,12.204 C153.396,12.204 152.184,12.744 151.344,13.824 C150.504,14.904 150.084,16.284 150.084,17.964 C150.084,19.644 150.504,21.018 151.344,22.086 C152.184,23.154 153.396,23.688 154.98,23.688 C155.364,23.688 155.724,23.664 156.06,23.616 C156.396,23.568 156.69,23.496 156.942,23.4 C157.194,23.304 157.422,23.196 157.626,23.076 C157.83,22.956 158.004,22.836 158.148,22.716 C158.292,22.596 158.424,22.464 158.544,22.32 C158.664,22.176 158.754,22.05 158.814,21.942 C158.874,21.834 158.928,21.732 158.976,21.636 C159.024,21.54 159.06,21.468 159.084,21.42 L159.084,21.348 L162.144,21.348 L162.144,23.724 C162.096,23.82 162.03,23.952 161.946,24.12 C161.862,24.288 161.64,24.588 161.28,25.02 C160.92,25.452 160.5,25.83 160.02,26.154 C159.54,26.478 158.85,26.772 157.95,27.036 C157.05,27.3 156.06,27.432 154.98,27.432 Z" id="path-31"></path>
        <polygon id="path-32" points="170.568 27 166.212 27 166.212 8.928 170.568 8.928 170.568 16.74 177.984 8.928 181.26 8.928 181.26 11.304 175.284 17.532 181.872 24.48 181.872 27 178.236 27 170.568 18.648"></polygon>
        <path d="M193.752,27.432 C190.896,27.432 188.622,26.526 186.93,24.714 C185.238,22.902 184.392,20.64 184.392,17.928 C184.392,15.24 185.232,12.996 186.912,11.196 C188.592,9.396 190.872,8.496 193.752,8.496 C196.584,8.496 198.846,9.396 200.538,11.196 C202.23,12.996 203.076,15.24 203.076,17.928 C203.076,20.616 202.23,22.872 200.538,24.696 C198.846,26.52 196.584,27.432 193.752,27.432 Z M190.008,21.996 C190.848,23.124 192.096,23.688 193.752,23.688 C195.408,23.688 196.656,23.124 197.496,21.996 C198.288,20.892 198.684,19.536 198.684,17.928 C198.684,16.392 198.288,15.06 197.496,13.932 C196.656,12.804 195.408,12.24 193.752,12.24 C192.096,12.24 190.848,12.804 190.008,13.932 C189.192,15.036 188.784,16.368 188.784,17.928 C188.784,19.536 189.192,20.892 190.008,21.996 Z" id="path-33"></path>
        <path d="M215.496,27.432 C212.424,27.432 210.066,26.562 208.422,24.822 C206.778,23.082 205.956,20.796 205.956,17.964 C205.956,15.252 206.772,12.996 208.404,11.196 C210.036,9.396 212.28,8.496 215.136,8.496 C217.968,8.496 220.092,9.246 221.508,10.746 C222.924,12.246 223.632,14.22 223.632,16.668 L223.452,18.792 L210.348,18.792 C210.468,20.352 210.972,21.576 211.86,22.464 C212.748,23.352 213.972,23.796 215.532,23.796 C216.036,23.796 216.51,23.76 216.954,23.688 C217.398,23.616 217.776,23.526 218.088,23.418 C218.4,23.31 218.676,23.184 218.916,23.04 C219.156,22.896 219.348,22.752 219.492,22.608 C219.636,22.464 219.756,22.338 219.852,22.23 C219.948,22.122 220.02,22.032 220.068,21.96 L220.104,21.852 L223.272,21.852 L223.272,24.228 C223.224,24.324 223.146,24.444 223.038,24.588 C222.93,24.732 222.666,24.984 222.246,25.344 C221.826,25.704 221.346,26.028 220.806,26.316 C220.266,26.604 219.522,26.862 218.574,27.09 C217.626,27.318 216.6,27.432 215.496,27.432 Z M210.492,15.84 L219.384,15.84 C219.384,14.76 219.018,13.866 218.286,13.158 C217.554,12.45 216.504,12.096 215.136,12.096 C212.568,12.096 211.02,13.344 210.492,15.84 Z" id="path-34"></path>
        <polygon id="path-35" points="6.724 51.88 5.064 51.88 2.364 47.36 2.364 54 0.104 54 0.104 43.96 2.944 43.96 6.004 49.12 8.984 43.96 11.824 43.96 11.824 54 9.444 54 9.444 47.32"></polygon>
        <path d="M19.324,54.24 C17.6173333,54.24 16.3073333,53.7566667 15.394,52.79 C14.4806667,51.8233333 14.024,50.5533333 14.024,48.98 C14.024,47.4733333 14.4773333,46.22 15.384,45.22 C16.2906667,44.22 17.5373333,43.72 19.124,43.72 C20.6973333,43.72 21.8773333,44.1366667 22.664,44.97 C23.4506667,45.8033333 23.844,46.9 23.844,48.26 L23.744,49.44 L16.464,49.44 C16.5306667,50.3066667 16.8106667,50.9866667 17.304,51.48 C17.7973333,51.9733333 18.4773333,52.22 19.344,52.22 C19.624,52.22 19.8873333,52.2 20.134,52.16 C20.3806667,52.12 20.5906667,52.07 20.764,52.01 C20.9373333,51.95 21.0906667,51.88 21.224,51.8 C21.3573333,51.72 21.464,51.64 21.544,51.56 C21.624,51.48 21.6906667,51.41 21.744,51.35 C21.7973333,51.29 21.8373333,51.24 21.864,51.2 L21.884,51.14 L23.644,51.14 L23.644,52.46 C23.6173333,52.5133333 23.574,52.58 23.514,52.66 C23.454,52.74 23.3073333,52.88 23.074,53.08 C22.8406667,53.28 22.574,53.46 22.274,53.62 C21.974,53.78 21.5606667,53.9233333 21.034,54.05 C20.5073333,54.1766667 19.9373333,54.24 19.324,54.24 Z M16.544,47.8 L21.484,47.8 C21.484,47.2 21.2806667,46.7033333 20.874,46.31 C20.4673333,45.9166667 19.884,45.72 19.124,45.72 C17.6973333,45.72 16.8373333,46.4133333 16.544,47.8 Z" id="path-36"></path>
        <path d="M30.624,54.24 C28.9706667,54.24 27.6973333,53.7433333 26.804,52.75 C25.9106667,51.7566667 25.464,50.5 25.464,48.98 C25.464,47.4733333 25.9306667,46.2166667 26.864,45.21 C27.7973333,44.2033333 29.0506667,43.7 30.624,43.7 C31.224,43.7 31.774,43.77 32.274,43.91 C32.774,44.05 33.1606667,44.22 33.434,44.42 C33.7073333,44.62 33.9373333,44.8233333 34.124,45.03 C34.3106667,45.2366667 34.4373333,45.4133333 34.504,45.56 L34.584,45.76 L34.584,47.08 L32.884,47.08 L32.864,47 C32.8506667,46.96 32.8206667,46.9 32.774,46.82 C32.7273333,46.74 32.6673333,46.6566667 32.594,46.57 C32.5206667,46.4833333 32.424,46.39 32.304,46.29 C32.184,46.19 32.0506667,46.1033333 31.904,46.03 C31.7573333,45.9566667 31.5706667,45.8966667 31.344,45.85 C31.1173333,45.8033333 30.8773333,45.78 30.624,45.78 C29.744,45.78 29.0706667,46.08 28.604,46.68 C28.1373333,47.28 27.904,48.0466667 27.904,48.98 C27.904,49.9133333 28.1373333,50.6766667 28.604,51.27 C29.0706667,51.8633333 29.744,52.16 30.624,52.16 C30.8373333,52.16 31.0373333,52.1466667 31.224,52.12 C31.4106667,52.0933333 31.574,52.0533333 31.714,52 C31.854,51.9466667 31.9806667,51.8866667 32.094,51.82 C32.2073333,51.7533333 32.304,51.6866667 32.384,51.62 C32.464,51.5533333 32.5373333,51.48 32.604,51.4 C32.6706667,51.32 32.7206667,51.25 32.754,51.19 C32.7873333,51.13 32.8173333,51.0733333 32.844,51.02 C32.8706667,50.9666667 32.8906667,50.9266667 32.904,50.9 L32.904,50.86 L34.604,50.86 L34.604,52.18 C34.5773333,52.2333333 34.5406667,52.3066667 34.494,52.4 C34.4473333,52.4933333 34.324,52.66 34.124,52.9 C33.924,53.14 33.6906667,53.35 33.424,53.53 C33.1573333,53.71 32.774,53.8733333 32.274,54.02 C31.774,54.1666667 31.224,54.24 30.624,54.24 Z" id="path-37"></path>
        <polygon id="path-38" points="41.364 54 38.944 54 38.944 45.98 35.864 45.98 35.864 43.96 44.444 43.96 44.444 45.98 41.364 45.98"></polygon>
        <path d="M50.844,54.24 C49.2573333,54.24 47.994,53.7366667 47.054,52.73 C46.114,51.7233333 45.644,50.4666667 45.644,48.96 C45.644,47.4666667 46.1106667,46.22 47.044,45.22 C47.9773333,44.22 49.244,43.72 50.844,43.72 C52.4173333,43.72 53.674,44.22 54.614,45.22 C55.554,46.22 56.024,47.4666667 56.024,48.96 C56.024,50.4533333 55.554,51.7066667 54.614,52.72 C53.674,53.7333333 52.4173333,54.24 50.844,54.24 Z M48.764,51.22 C49.2306667,51.8466667 49.924,52.16 50.844,52.16 C51.764,52.16 52.4573333,51.8466667 52.924,51.22 C53.364,50.6066667 53.584,49.8533333 53.584,48.96 C53.584,48.1066667 53.364,47.3666667 52.924,46.74 C52.4573333,46.1133333 51.764,45.8 50.844,45.8 C49.924,45.8 49.2306667,46.1133333 48.764,46.74 C48.3106667,47.3533333 48.084,48.0933333 48.084,48.96 C48.084,49.8533333 48.3106667,50.6066667 48.764,51.22 Z" id="path-39"></path>
        <path d="M60.644,59 L58.224,59 L58.224,43.96 L60.444,43.96 L60.624,45.48 C61.424,44.3066667 62.5706667,43.72 64.064,43.72 C65.4773333,43.72 66.5973333,44.22 67.424,45.22 C68.2506667,46.22 68.664,47.4666667 68.664,48.96 C68.664,50.4533333 68.244,51.7066667 67.404,52.72 C66.564,53.7333333 65.4506667,54.24 64.064,54.24 C62.584,54.24 61.444,53.6666667 60.644,52.52 L60.644,59 Z M63.444,52.12 C64.364,52.12 65.0573333,51.8066667 65.524,51.18 C65.9906667,50.5533333 66.224,49.8133333 66.224,48.96 C66.224,48.12 65.9906667,47.3866667 65.524,46.76 C65.0706667,46.1466667 64.3773333,45.84 63.444,45.84 C62.5773333,45.84 61.8973333,46.14 61.404,46.74 C60.8973333,47.3666667 60.644,48.1066667 60.644,48.96 C60.644,49.8133333 60.8973333,50.5533333 61.404,51.18 C61.9106667,51.8066667 62.5906667,52.12 63.444,52.12 Z" id="path-40"></path>
        <path d="M75.484,54.24 C73.8973333,54.24 72.634,53.7366667 71.694,52.73 C70.754,51.7233333 70.284,50.4666667 70.284,48.96 C70.284,47.4666667 70.7506667,46.22 71.684,45.22 C72.6173333,44.22 73.884,43.72 75.484,43.72 C77.0573333,43.72 78.314,44.22 79.254,45.22 C80.194,46.22 80.664,47.4666667 80.664,48.96 C80.664,50.4533333 80.194,51.7066667 79.254,52.72 C78.314,53.7333333 77.0573333,54.24 75.484,54.24 Z M73.404,51.22 C73.8706667,51.8466667 74.564,52.16 75.484,52.16 C76.404,52.16 77.0973333,51.8466667 77.564,51.22 C78.004,50.6066667 78.224,49.8533333 78.224,48.96 C78.224,48.1066667 78.004,47.3666667 77.564,46.74 C77.0973333,46.1133333 76.404,45.8 75.484,45.8 C74.564,45.8 73.8706667,46.1133333 73.404,46.74 C72.9506667,47.3533333 72.724,48.0933333 72.724,48.96 C72.724,49.8533333 72.9506667,50.6066667 73.404,51.22 Z" id="path-41"></path>
        <polygon id="path-42" points="84.164 54 82.204 54 82.204 52.6 85.584 48.78 82.224 45.24 82.224 43.96 84.084 43.96 88.184 48.32 88.184 43.96 90.624 43.96 90.624 48.34 94.644 43.96 96.484 43.96 96.484 45.28 93.224 48.76 96.684 52.6 96.684 54 94.704 54 90.624 49.3 90.624 54 88.184 54 88.184 49.34"></polygon>
        <path d="M99.804,56.8 L97.604,56.8 L97.604,52.06 L98.644,52.06 C99.1373333,51.6866667 99.4573333,50.5466667 99.604,48.64 L99.924,43.96 L107.704,43.96 L107.704,52.06 L109.264,52.06 L109.264,56.8 L107.064,56.8 L107.064,54 L99.804,54 L99.804,56.8 Z M100.984,52.06 L105.304,52.06 L105.304,45.88 L101.944,45.88 L101.704,48.96 C101.624,50.3333333 101.384,51.3666667 100.984,52.06 Z" id="path-43"></path>
        <path d="M115.944,54.24 C114.237333,54.24 112.927333,53.7566667 112.014,52.79 C111.100667,51.8233333 110.644,50.5533333 110.644,48.98 C110.644,47.4733333 111.097333,46.22 112.004,45.22 C112.910667,44.22 114.157333,43.72 115.744,43.72 C117.317333,43.72 118.497333,44.1366667 119.284,44.97 C120.070667,45.8033333 120.464,46.9 120.464,48.26 L120.364,49.44 L113.084,49.44 C113.150667,50.3066667 113.430667,50.9866667 113.924,51.48 C114.417333,51.9733333 115.097333,52.22 115.964,52.22 C116.244,52.22 116.507333,52.2 116.754,52.16 C117.000667,52.12 117.210667,52.07 117.384,52.01 C117.557333,51.95 117.710667,51.88 117.844,51.8 C117.977333,51.72 118.084,51.64 118.164,51.56 C118.244,51.48 118.310667,51.41 118.364,51.35 C118.417333,51.29 118.457333,51.24 118.484,51.2 L118.504,51.14 L120.264,51.14 L120.264,52.46 C120.237333,52.5133333 120.194,52.58 120.134,52.66 C120.074,52.74 119.927333,52.88 119.694,53.08 C119.460667,53.28 119.194,53.46 118.894,53.62 C118.594,53.78 118.180667,53.9233333 117.654,54.05 C117.127333,54.1766667 116.557333,54.24 115.944,54.24 Z M113.164,47.8 L118.104,47.8 C118.104,47.2 117.900667,46.7033333 117.494,46.31 C117.087333,45.9166667 116.504,45.72 115.744,45.72 C114.317333,45.72 113.457333,46.4133333 113.164,47.8 Z" id="path-44"></path>
        <polygon id="path-45" points="125.104 54 122.684 54 122.684 43.96 125.104 43.96 125.104 47.84 129.384 47.84 129.384 43.96 131.824 43.96 131.824 54 129.384 54 129.384 49.88 125.104 49.88"></polygon>
        <polygon id="path-46" points="136.884 54 134.624 54 134.624 43.96 137.044 43.96 137.044 50.54 141.684 43.96 143.964 43.96 143.964 54 141.524 54 141.524 47.4"></polygon>
        <path d="M151.464,54.24 C149.757333,54.24 148.447333,53.7566667 147.534,52.79 C146.620667,51.8233333 146.164,50.5533333 146.164,48.98 C146.164,47.4733333 146.617333,46.22 147.524,45.22 C148.430667,44.22 149.677333,43.72 151.264,43.72 C152.837333,43.72 154.017333,44.1366667 154.804,44.97 C155.590667,45.8033333 155.984,46.9 155.984,48.26 L155.884,49.44 L148.604,49.44 C148.670667,50.3066667 148.950667,50.9866667 149.444,51.48 C149.937333,51.9733333 150.617333,52.22 151.484,52.22 C151.764,52.22 152.027333,52.2 152.274,52.16 C152.520667,52.12 152.730667,52.07 152.904,52.01 C153.077333,51.95 153.230667,51.88 153.364,51.8 C153.497333,51.72 153.604,51.64 153.684,51.56 C153.764,51.48 153.830667,51.41 153.884,51.35 C153.937333,51.29 153.977333,51.24 154.004,51.2 L154.024,51.14 L155.784,51.14 L155.784,52.46 C155.757333,52.5133333 155.714,52.58 155.654,52.66 C155.594,52.74 155.447333,52.88 155.214,53.08 C154.980667,53.28 154.714,53.46 154.414,53.62 C154.114,53.78 153.700667,53.9233333 153.174,54.05 C152.647333,54.1766667 152.077333,54.24 151.464,54.24 Z M148.684,47.8 L153.624,47.8 C153.624,47.2 153.420667,46.7033333 153.014,46.31 C152.607333,45.9166667 152.024,45.72 151.264,45.72 C149.837333,45.72 148.977333,46.4133333 148.684,47.8 Z" id="path-47"></path>
        <polygon id="path-48" points="16.636 20.52 13.396 20.52 6.232 6.408 6.232 27 1.804 27 1.804 0 7.78 0 15.304 14.58 22.648 0 28.588 0 28.588 27 23.764 27 23.764 6.408"></polygon>
        <path d="M39.1,27.432 C37.084,27.432 35.572,26.88 34.564,25.776 C33.556,24.672 33.052,23.352 33.052,21.816 C33.052,20.16 33.676,18.834 34.924,17.838 C36.172,16.842 38.056,16.344 40.576,16.344 C41.176,16.344 41.794,16.38 42.43,16.452 C43.066,16.524 43.552,16.596 43.888,16.668 L44.356,16.776 L44.356,15.804 C44.356,13.38 43.192,12.168 40.864,12.168 C40.48,12.168 40.126,12.204 39.802,12.276 C39.478,12.348 39.196,12.438 38.956,12.546 C38.716,12.654 38.494,12.78 38.29,12.924 C38.086,13.068 37.918,13.212 37.786,13.356 C37.654,13.5 37.546,13.626 37.462,13.734 C37.378,13.842 37.312,13.932 37.264,14.004 L37.192,14.112 L34.096,14.112 L34.096,11.736 C34.144,11.64 34.216,11.52 34.312,11.376 C34.408,11.232 34.642,10.974 35.014,10.602 C35.386,10.23 35.812,9.9 36.292,9.612 C36.772,9.324 37.426,9.066 38.254,8.838 C39.082,8.61 39.988,8.496 40.972,8.496 C43.516,8.496 45.448,9.126 46.768,10.386 C48.088,11.646 48.748,13.488 48.748,15.912 L48.748,27 L45.004,27 L44.608,24.516 C43.288,26.46 41.452,27.432 39.1,27.432 Z M40.18,23.976 C41.452,23.976 42.466,23.616 43.222,22.896 C43.978,22.176 44.356,21.384 44.356,20.52 L44.356,19.656 C43.348,19.368 42.136,19.224 40.72,19.224 C38.488,19.224 37.372,20.016 37.372,21.6 C37.372,23.184 38.308,23.976 40.18,23.976 Z" id="path-49"></path>
        <path d="M57.964,36 L53.608,36 L53.608,8.928 L57.604,8.928 L57.928,11.664 C59.368,9.552 61.432,8.496 64.12,8.496 C66.664,8.496 68.68,9.396 70.168,11.196 C71.656,12.996 72.4,15.24 72.4,17.928 C72.4,20.616 71.644,22.872 70.132,24.696 C68.62,26.52 66.616,27.432 64.12,27.432 C61.456,27.432 59.404,26.4 57.964,24.336 L57.964,36 Z M63.004,23.616 C64.66,23.616 65.908,23.052 66.748,21.924 C67.588,20.796 68.008,19.464 68.008,17.928 C68.008,16.416 67.588,15.096 66.748,13.968 C65.932,12.864 64.684,12.312 63.004,12.312 C61.444,12.312 60.22,12.852 59.332,13.932 C58.42,15.06 57.964,16.392 57.964,17.928 C57.964,19.464 58.42,20.796 59.332,21.924 C60.244,23.052 61.468,23.616 63.004,23.616 Z" id="path-50"></path>
        <polygon id="path-51" points="80.752 27 76.396 27 76.396 8.928 80.752 8.928 80.752 16.74 88.168 8.928 91.444 8.928 91.444 11.304 85.468 17.532 92.056 24.48 92.056 27 88.42 27 80.752 18.648"></polygon>
        <path d="M103.936,27.432 C101.08,27.432 98.806,26.526 97.114,24.714 C95.422,22.902 94.576,20.64 94.576,17.928 C94.576,15.24 95.416,12.996 97.096,11.196 C98.776,9.396 101.056,8.496 103.936,8.496 C106.768,8.496 109.03,9.396 110.722,11.196 C112.414,12.996 113.26,15.24 113.26,17.928 C113.26,20.616 112.414,22.872 110.722,24.696 C109.03,26.52 106.768,27.432 103.936,27.432 Z M100.192,21.996 C101.032,23.124 102.28,23.688 103.936,23.688 C105.592,23.688 106.84,23.124 107.68,21.996 C108.472,20.892 108.868,19.536 108.868,17.928 C108.868,16.392 108.472,15.06 107.68,13.932 C106.84,12.804 105.592,12.24 103.936,12.24 C102.28,12.24 101.032,12.804 100.192,13.932 C99.376,15.036 98.968,16.368 98.968,17.928 C98.968,19.536 99.376,20.892 100.192,21.996 Z" id="path-52"></path>
        <path d="M126.112,27 L117.22,27 L117.22,8.856 L125.716,8.856 C127.66,8.856 129.22,9.264 130.396,10.08 C131.572,10.896 132.16,12.072 132.16,13.608 C132.16,15.432 131.26,16.704 129.46,17.424 C130.54,17.736 131.38,18.258 131.98,18.99 C132.58,19.722 132.88,20.592 132.88,21.6 C132.88,23.376 132.268,24.72 131.044,25.632 C129.82,26.544 128.176,27 126.112,27 Z M121.504,12.096 L121.504,15.984 L125.248,15.984 C126.856,15.984 127.66,15.324 127.66,14.004 C127.66,12.732 126.856,12.096 125.248,12.096 L121.504,12.096 Z M121.504,19.26 L121.504,23.724 L125.464,23.724 C127.408,23.724 128.38,22.98 128.38,21.492 C128.38,20.004 127.408,19.26 125.464,19.26 L121.504,19.26 Z" id="path-53"></path>
        <path d="M145.084,27.432 C142.108,27.432 139.816,26.538 138.208,24.75 C136.6,22.962 135.796,20.7 135.796,17.964 C135.796,15.252 136.636,12.99 138.316,11.178 C139.996,9.366 142.252,8.46 145.084,8.46 C146.164,8.46 147.154,8.586 148.054,8.838 C148.954,9.09 149.65,9.396 150.142,9.756 C150.634,10.116 151.048,10.482 151.384,10.854 C151.72,11.226 151.948,11.544 152.068,11.808 L152.212,12.168 L152.212,14.544 L149.152,14.544 L149.116,14.4 C149.092,14.328 149.038,14.22 148.954,14.076 C148.87,13.932 148.762,13.782 148.63,13.626 C148.498,13.47 148.324,13.302 148.108,13.122 C147.892,12.942 147.652,12.786 147.388,12.654 C147.124,12.522 146.788,12.414 146.38,12.33 C145.972,12.246 145.54,12.204 145.084,12.204 C143.5,12.204 142.288,12.744 141.448,13.824 C140.608,14.904 140.188,16.284 140.188,17.964 C140.188,19.644 140.608,21.018 141.448,22.086 C142.288,23.154 143.5,23.688 145.084,23.688 C145.468,23.688 145.828,23.664 146.164,23.616 C146.5,23.568 146.794,23.496 147.046,23.4 C147.298,23.304 147.526,23.196 147.73,23.076 C147.934,22.956 148.108,22.836 148.252,22.716 C148.396,22.596 148.528,22.464 148.648,22.32 C148.768,22.176 148.858,22.05 148.918,21.942 C148.978,21.834 149.032,21.732 149.08,21.636 C149.128,21.54 149.164,21.468 149.188,21.42 L149.188,21.348 L152.248,21.348 L152.248,23.724 C152.2,23.82 152.134,23.952 152.05,24.12 C151.966,24.288 151.744,24.588 151.384,25.02 C151.024,25.452 150.604,25.83 150.124,26.154 C149.644,26.478 148.954,26.772 148.054,27.036 C147.154,27.3 146.164,27.432 145.084,27.432 Z" id="path-54"></path>
        <polygon id="path-55" points="160.672 27 156.316 27 156.316 8.928 160.672 8.928 160.672 16.74 168.088 8.928 171.364 8.928 171.364 11.304 165.388 17.532 171.976 24.48 171.976 27 168.34 27 160.672 18.648"></polygon>
        <path d="M183.856,27.432 C181,27.432 178.726,26.526 177.034,24.714 C175.342,22.902 174.496,20.64 174.496,17.928 C174.496,15.24 175.336,12.996 177.016,11.196 C178.696,9.396 180.976,8.496 183.856,8.496 C186.688,8.496 188.95,9.396 190.642,11.196 C192.334,12.996 193.18,15.24 193.18,17.928 C193.18,20.616 192.334,22.872 190.642,24.696 C188.95,26.52 186.688,27.432 183.856,27.432 Z M180.112,21.996 C180.952,23.124 182.2,23.688 183.856,23.688 C185.512,23.688 186.76,23.124 187.6,21.996 C188.392,20.892 188.788,19.536 188.788,17.928 C188.788,16.392 188.392,15.06 187.6,13.932 C186.76,12.804 185.512,12.24 183.856,12.24 C182.2,12.24 180.952,12.804 180.112,13.932 C179.296,15.036 178.888,16.368 178.888,17.928 C178.888,19.536 179.296,20.892 180.112,21.996 Z" id="path-56"></path>
        <path d="M205.6,27.432 C202.528,27.432 200.17,26.562 198.526,24.822 C196.882,23.082 196.06,20.796 196.06,17.964 C196.06,15.252 196.876,12.996 198.508,11.196 C200.14,9.396 202.384,8.496 205.24,8.496 C208.072,8.496 210.196,9.246 211.612,10.746 C213.028,12.246 213.736,14.22 213.736,16.668 L213.556,18.792 L200.452,18.792 C200.572,20.352 201.076,21.576 201.964,22.464 C202.852,23.352 204.076,23.796 205.636,23.796 C206.14,23.796 206.614,23.76 207.058,23.688 C207.502,23.616 207.88,23.526 208.192,23.418 C208.504,23.31 208.78,23.184 209.02,23.04 C209.26,22.896 209.452,22.752 209.596,22.608 C209.74,22.464 209.86,22.338 209.956,22.23 C210.052,22.122 210.124,22.032 210.172,21.96 L210.208,21.852 L213.376,21.852 L213.376,24.228 C213.328,24.324 213.25,24.444 213.142,24.588 C213.034,24.732 212.77,24.984 212.35,25.344 C211.93,25.704 211.45,26.028 210.91,26.316 C210.37,26.604 209.626,26.862 208.678,27.09 C207.73,27.318 206.704,27.432 205.6,27.432 Z M200.596,15.84 L209.488,15.84 C209.488,14.76 209.122,13.866 208.39,13.158 C207.658,12.45 206.608,12.096 205.24,12.096 C202.672,12.096 201.124,13.344 200.596,15.84 Z" id="path-57"></path>
        <polygon id="path-58" points="6.62 51.88 4.96 51.88 2.26 47.36 2.26 54 0 54 0 43.96 2.84 43.96 5.9 49.12 8.88 43.96 11.72 43.96 11.72 54 9.34 54 9.34 47.32"></polygon>
        <path d="M19.22,54.24 C17.5133333,54.24 16.2033333,53.7566667 15.29,52.79 C14.3766667,51.8233333 13.92,50.5533333 13.92,48.98 C13.92,47.4733333 14.3733333,46.22 15.28,45.22 C16.1866667,44.22 17.4333333,43.72 19.02,43.72 C20.5933333,43.72 21.7733333,44.1366667 22.56,44.97 C23.3466667,45.8033333 23.74,46.9 23.74,48.26 L23.64,49.44 L16.36,49.44 C16.4266667,50.3066667 16.7066667,50.9866667 17.2,51.48 C17.6933333,51.9733333 18.3733333,52.22 19.24,52.22 C19.52,52.22 19.7833333,52.2 20.03,52.16 C20.2766667,52.12 20.4866667,52.07 20.66,52.01 C20.8333333,51.95 20.9866667,51.88 21.12,51.8 C21.2533333,51.72 21.36,51.64 21.44,51.56 C21.52,51.48 21.5866667,51.41 21.64,51.35 C21.6933333,51.29 21.7333333,51.24 21.76,51.2 L21.78,51.14 L23.54,51.14 L23.54,52.46 C23.5133333,52.5133333 23.47,52.58 23.41,52.66 C23.35,52.74 23.2033333,52.88 22.97,53.08 C22.7366667,53.28 22.47,53.46 22.17,53.62 C21.87,53.78 21.4566667,53.9233333 20.93,54.05 C20.4033333,54.1766667 19.8333333,54.24 19.22,54.24 Z M16.44,47.8 L21.38,47.8 C21.38,47.2 21.1766667,46.7033333 20.77,46.31 C20.3633333,45.9166667 19.78,45.72 19.02,45.72 C17.5933333,45.72 16.7333333,46.4133333 16.44,47.8 Z" id="path-59"></path>
        <path d="M30.52,54.24 C28.8666667,54.24 27.5933333,53.7433333 26.7,52.75 C25.8066667,51.7566667 25.36,50.5 25.36,48.98 C25.36,47.4733333 25.8266667,46.2166667 26.76,45.21 C27.6933333,44.2033333 28.9466667,43.7 30.52,43.7 C31.12,43.7 31.67,43.77 32.17,43.91 C32.67,44.05 33.0566667,44.22 33.33,44.42 C33.6033333,44.62 33.8333333,44.8233333 34.02,45.03 C34.2066667,45.2366667 34.3333333,45.4133333 34.4,45.56 L34.48,45.76 L34.48,47.08 L32.78,47.08 L32.76,47 C32.7466667,46.96 32.7166667,46.9 32.67,46.82 C32.6233333,46.74 32.5633333,46.6566667 32.49,46.57 C32.4166667,46.4833333 32.32,46.39 32.2,46.29 C32.08,46.19 31.9466667,46.1033333 31.8,46.03 C31.6533333,45.9566667 31.4666667,45.8966667 31.24,45.85 C31.0133333,45.8033333 30.7733333,45.78 30.52,45.78 C29.64,45.78 28.9666667,46.08 28.5,46.68 C28.0333333,47.28 27.8,48.0466667 27.8,48.98 C27.8,49.9133333 28.0333333,50.6766667 28.5,51.27 C28.9666667,51.8633333 29.64,52.16 30.52,52.16 C30.7333333,52.16 30.9333333,52.1466667 31.12,52.12 C31.3066667,52.0933333 31.47,52.0533333 31.61,52 C31.75,51.9466667 31.8766667,51.8866667 31.99,51.82 C32.1033333,51.7533333 32.2,51.6866667 32.28,51.62 C32.36,51.5533333 32.4333333,51.48 32.5,51.4 C32.5666667,51.32 32.6166667,51.25 32.65,51.19 C32.6833333,51.13 32.7133333,51.0733333 32.74,51.02 C32.7666667,50.9666667 32.7866667,50.9266667 32.8,50.9 L32.8,50.86 L34.5,50.86 L34.5,52.18 C34.4733333,52.2333333 34.4366667,52.3066667 34.39,52.4 C34.3433333,52.4933333 34.22,52.66 34.02,52.9 C33.82,53.14 33.5866667,53.35 33.32,53.53 C33.0533333,53.71 32.67,53.8733333 32.17,54.02 C31.67,54.1666667 31.12,54.24 30.52,54.24 Z" id="path-60"></path>
        <polygon id="path-61" points="41.26 54 38.84 54 38.84 45.98 35.76 45.98 35.76 43.96 44.34 43.96 44.34 45.98 41.26 45.98"></polygon>
        <path d="M50.74,54.24 C49.1533333,54.24 47.89,53.7366667 46.95,52.73 C46.01,51.7233333 45.54,50.4666667 45.54,48.96 C45.54,47.4666667 46.0066667,46.22 46.94,45.22 C47.8733333,44.22 49.14,43.72 50.74,43.72 C52.3133333,43.72 53.57,44.22 54.51,45.22 C55.45,46.22 55.92,47.4666667 55.92,48.96 C55.92,50.4533333 55.45,51.7066667 54.51,52.72 C53.57,53.7333333 52.3133333,54.24 50.74,54.24 Z M48.66,51.22 C49.1266667,51.8466667 49.82,52.16 50.74,52.16 C51.66,52.16 52.3533333,51.8466667 52.82,51.22 C53.26,50.6066667 53.48,49.8533333 53.48,48.96 C53.48,48.1066667 53.26,47.3666667 52.82,46.74 C52.3533333,46.1133333 51.66,45.8 50.74,45.8 C49.82,45.8 49.1266667,46.1133333 48.66,46.74 C48.2066667,47.3533333 47.98,48.0933333 47.98,48.96 C47.98,49.8533333 48.2066667,50.6066667 48.66,51.22 Z" id="path-62"></path>
        <path d="M60.54,59 L58.12,59 L58.12,43.96 L60.34,43.96 L60.52,45.48 C61.32,44.3066667 62.4666667,43.72 63.96,43.72 C65.3733333,43.72 66.4933333,44.22 67.32,45.22 C68.1466667,46.22 68.56,47.4666667 68.56,48.96 C68.56,50.4533333 68.14,51.7066667 67.3,52.72 C66.46,53.7333333 65.3466667,54.24 63.96,54.24 C62.48,54.24 61.34,53.6666667 60.54,52.52 L60.54,59 Z M63.34,52.12 C64.26,52.12 64.9533333,51.8066667 65.42,51.18 C65.8866667,50.5533333 66.12,49.8133333 66.12,48.96 C66.12,48.12 65.8866667,47.3866667 65.42,46.76 C64.9666667,46.1466667 64.2733333,45.84 63.34,45.84 C62.4733333,45.84 61.7933333,46.14 61.3,46.74 C60.7933333,47.3666667 60.54,48.1066667 60.54,48.96 C60.54,49.8133333 60.7933333,50.5533333 61.3,51.18 C61.8066667,51.8066667 62.4866667,52.12 63.34,52.12 Z" id="path-63"></path>
        <path d="M75.38,54.24 C73.7933333,54.24 72.53,53.7366667 71.59,52.73 C70.65,51.7233333 70.18,50.4666667 70.18,48.96 C70.18,47.4666667 70.6466667,46.22 71.58,45.22 C72.5133333,44.22 73.78,43.72 75.38,43.72 C76.9533333,43.72 78.21,44.22 79.15,45.22 C80.09,46.22 80.56,47.4666667 80.56,48.96 C80.56,50.4533333 80.09,51.7066667 79.15,52.72 C78.21,53.7333333 76.9533333,54.24 75.38,54.24 Z M73.3,51.22 C73.7666667,51.8466667 74.46,52.16 75.38,52.16 C76.3,52.16 76.9933333,51.8466667 77.46,51.22 C77.9,50.6066667 78.12,49.8533333 78.12,48.96 C78.12,48.1066667 77.9,47.3666667 77.46,46.74 C76.9933333,46.1133333 76.3,45.8 75.38,45.8 C74.46,45.8 73.7666667,46.1133333 73.3,46.74 C72.8466667,47.3533333 72.62,48.0933333 72.62,48.96 C72.62,49.8533333 72.8466667,50.6066667 73.3,51.22 Z" id="path-64"></path>
        <polygon id="path-65" points="84.06 54 82.1 54 82.1 52.6 85.48 48.78 82.12 45.24 82.12 43.96 83.98 43.96 88.08 48.32 88.08 43.96 90.52 43.96 90.52 48.34 94.54 43.96 96.38 43.96 96.38 45.28 93.12 48.76 96.58 52.6 96.58 54 94.6 54 90.52 49.3 90.52 54 88.08 54 88.08 49.34"></polygon>
        <path d="M99.7,56.8 L97.5,56.8 L97.5,52.06 L98.54,52.06 C99.0333333,51.6866667 99.3533333,50.5466667 99.5,48.64 L99.82,43.96 L107.6,43.96 L107.6,52.06 L109.16,52.06 L109.16,56.8 L106.96,56.8 L106.96,54 L99.7,54 L99.7,56.8 Z M100.88,52.06 L105.2,52.06 L105.2,45.88 L101.84,45.88 L101.6,48.96 C101.52,50.3333333 101.28,51.3666667 100.88,52.06 Z" id="path-66"></path>
        <path d="M115.84,54.24 C114.133333,54.24 112.823333,53.7566667 111.91,52.79 C110.996667,51.8233333 110.54,50.5533333 110.54,48.98 C110.54,47.4733333 110.993333,46.22 111.9,45.22 C112.806667,44.22 114.053333,43.72 115.64,43.72 C117.213333,43.72 118.393333,44.1366667 119.18,44.97 C119.966667,45.8033333 120.36,46.9 120.36,48.26 L120.26,49.44 L112.98,49.44 C113.046667,50.3066667 113.326667,50.9866667 113.82,51.48 C114.313333,51.9733333 114.993333,52.22 115.86,52.22 C116.14,52.22 116.403333,52.2 116.65,52.16 C116.896667,52.12 117.106667,52.07 117.28,52.01 C117.453333,51.95 117.606667,51.88 117.74,51.8 C117.873333,51.72 117.98,51.64 118.06,51.56 C118.14,51.48 118.206667,51.41 118.26,51.35 C118.313333,51.29 118.353333,51.24 118.38,51.2 L118.4,51.14 L120.16,51.14 L120.16,52.46 C120.133333,52.5133333 120.09,52.58 120.03,52.66 C119.97,52.74 119.823333,52.88 119.59,53.08 C119.356667,53.28 119.09,53.46 118.79,53.62 C118.49,53.78 118.076667,53.9233333 117.55,54.05 C117.023333,54.1766667 116.453333,54.24 115.84,54.24 Z M113.06,47.8 L118,47.8 C118,47.2 117.796667,46.7033333 117.39,46.31 C116.983333,45.9166667 116.4,45.72 115.64,45.72 C114.213333,45.72 113.353333,46.4133333 113.06,47.8 Z" id="path-67"></path>
        <polygon id="path-68" points="125 54 122.58 54 122.58 43.96 125 43.96 125 47.84 129.28 47.84 129.28 43.96 131.72 43.96 131.72 54 129.28 54 129.28 49.88 125 49.88"></polygon>
        <polygon id="path-69" points="136.78 54 134.52 54 134.52 43.96 136.94 43.96 136.94 50.54 141.58 43.96 143.86 43.96 143.86 54 141.42 54 141.42 47.4"></polygon>
        <path d="M151.36,54.24 C149.653333,54.24 148.343333,53.7566667 147.43,52.79 C146.516667,51.8233333 146.06,50.5533333 146.06,48.98 C146.06,47.4733333 146.513333,46.22 147.42,45.22 C148.326667,44.22 149.573333,43.72 151.16,43.72 C152.733333,43.72 153.913333,44.1366667 154.7,44.97 C155.486667,45.8033333 155.88,46.9 155.88,48.26 L155.78,49.44 L148.5,49.44 C148.566667,50.3066667 148.846667,50.9866667 149.34,51.48 C149.833333,51.9733333 150.513333,52.22 151.38,52.22 C151.66,52.22 151.923333,52.2 152.17,52.16 C152.416667,52.12 152.626667,52.07 152.8,52.01 C152.973333,51.95 153.126667,51.88 153.26,51.8 C153.393333,51.72 153.5,51.64 153.58,51.56 C153.66,51.48 153.726667,51.41 153.78,51.35 C153.833333,51.29 153.873333,51.24 153.9,51.2 L153.92,51.14 L155.68,51.14 L155.68,52.46 C155.653333,52.5133333 155.61,52.58 155.55,52.66 C155.49,52.74 155.343333,52.88 155.11,53.08 C154.876667,53.28 154.61,53.46 154.31,53.62 C154.01,53.78 153.596667,53.9233333 153.07,54.05 C152.543333,54.1766667 151.973333,54.24 151.36,54.24 Z M148.58,47.8 L153.52,47.8 C153.52,47.2 153.316667,46.7033333 152.91,46.31 C152.503333,45.9166667 151.92,45.72 151.16,45.72 C149.733333,45.72 148.873333,46.4133333 148.58,47.8 Z" id="path-70"></path>
        <polygon id="path-71" points="21.816 2.592 9.036 27 5.58 27 5.58 24.408 8.676 18.864 -2.27373675e-13 2.736 -2.27373675e-13 0 3.78 0 11.268 14.04 18.36 0 21.816 0"></polygon>
        <path d="M32.832,27.432 C29.856,27.432 27.564,26.538 25.956,24.75 C24.348,22.962 23.544,20.7 23.544,17.964 C23.544,15.252 24.384,12.99 26.064,11.178 C27.744,9.366 30,8.46 32.832,8.46 C33.912,8.46 34.902,8.586 35.802,8.838 C36.702,9.09 37.398,9.396 37.89,9.756 C38.382,10.116 38.796,10.482 39.132,10.854 C39.468,11.226 39.696,11.544 39.816,11.808 L39.96,12.168 L39.96,14.544 L36.9,14.544 L36.864,14.4 C36.84,14.328 36.786,14.22 36.702,14.076 C36.618,13.932 36.51,13.782 36.378,13.626 C36.246,13.47 36.072,13.302 35.856,13.122 C35.64,12.942 35.4,12.786 35.136,12.654 C34.872,12.522 34.536,12.414 34.128,12.33 C33.72,12.246 33.288,12.204 32.832,12.204 C31.248,12.204 30.036,12.744 29.196,13.824 C28.356,14.904 27.936,16.284 27.936,17.964 C27.936,19.644 28.356,21.018 29.196,22.086 C30.036,23.154 31.248,23.688 32.832,23.688 C33.216,23.688 33.576,23.664 33.912,23.616 C34.248,23.568 34.542,23.496 34.794,23.4 C35.046,23.304 35.274,23.196 35.478,23.076 C35.682,22.956 35.856,22.836 36,22.716 C36.144,22.596 36.276,22.464 36.396,22.32 C36.516,22.176 36.606,22.05 36.666,21.942 C36.726,21.834 36.78,21.732 36.828,21.636 C36.876,21.54 36.912,21.468 36.936,21.42 L36.936,21.348 L39.996,21.348 L39.996,23.724 C39.948,23.82 39.882,23.952 39.798,24.12 C39.714,24.288 39.492,24.588 39.132,25.02 C38.772,25.452 38.352,25.83 37.872,26.154 C37.392,26.478 36.702,26.772 35.802,27.036 C34.902,27.3 33.912,27.432 32.832,27.432 Z" id="path-72"></path>
        <polygon id="path-73" points="52.164 27 47.808 27 47.808 12.564 42.264 12.564 42.264 8.928 57.708 8.928 57.708 12.564 52.164 12.564"></polygon>
        <path d="M68.508,27 L60.948,27 L60.948,8.928 L65.304,8.928 L65.304,14.76 L68.58,14.76 C71.052,14.76 72.93,15.306 74.214,16.398 C75.498,17.49 76.14,18.936 76.14,20.736 C76.14,22.512 75.528,23.988 74.304,25.164 C73.032,26.388 71.1,27 68.508,27 Z M65.304,18.108 L65.304,23.688 L68.184,23.688 C70.488,23.688 71.64,22.716 71.64,20.772 C71.64,18.996 70.488,18.108 68.184,18.108 L65.304,18.108 Z" id="path-74"></path>
        <polygon id="path-75" points="89.352 17.424 79.416 17.424 79.416 13.788 89.352 13.788"></polygon>
        <polygon id="path-76" points="111.168 27 99.648 14.58 99.648 27 94.86 27 94.86 0 99.648 0 99.648 12.312 110.592 0 114.048 0 114.048 2.592 104.58 13.068 114.948 24.264 114.948 27"></polygon>
        <polygon id="path-77" points="134.532 11.304 121.608 36 118.188 36 118.188 33.48 123.228 24.624 116.496 11.448 116.496 8.928 120.024 8.928 125.64 20.196 131.256 8.928 134.532 8.928"></polygon>
        <polygon id="path-78" points="145.692 27 141.336 27 141.336 12.564 135.792 12.564 135.792 8.928 151.236 8.928 151.236 12.564 145.692 12.564"></polygon>
    </defs>
    <g id="PanoTour" stroke="none" stroke-width="1" fill="none" fill-rule="evenodd">
        <g id="start-pano" transform="translate(-1731, -856)">
            <g id="front-map" transform="translate(1731, 860.332)">
                <circle id="Oval" fill="#FFFFFF" cx="317" cy="331.667969" r="317"></circle>
                <path d="M325.421875,322.316406 C324.057028,320.284434 323.217063,318.487687 320.574357,314.55759 C317.182148,309.512872 313.858825,303.661723 313.483841,298.948304 C310.138441,256.897723 328.526454,236.01755 300.421875,202.316406" id="Path-2" stroke="#FBF313" stroke-width="8" stroke-linecap="round" stroke-linejoin="round"></path>
                <path d="M578.710938,119.960938 C569.24059,131.320007 561.521275,141.156452 558.300781,145.128906 C545.935721,160.381116 542.3419,174.605874 533.695313,191.09375 C531.774345,194.756777 509.136258,222.265169 498.644531,230.976563 C464.825617,259.05677 419.056619,288.158956 379.761719,309.25 C374.887668,311.866085 317.476684,339.355587 296.892578,352.03125 C283.460538,360.302681 281.024628,367.093854 274.037109,375.121094 C269.368603,380.484259 262.875543,393.909929 255.621094,395.867187 C236.032711,401.152155 217.597164,386.333712 194.494141,390.117188 C179.074634,392.642369 179.700851,403.13653 164.863281,407.757813 C156.556922,410.344896 134.234606,404.148495 130.851562,407.757813 C126.138168,412.786461 125.458134,421.702885 120.826172,426.806641 C119.498382,428.269673 109.481429,432.038462 107.527344,432.330078 C101.445331,433.237723 92.4201654,435.129518 86.5078125,436.820313 C83.7894802,437.597692 82.6897711,442.507469 84.3554688,444.59375 C86.9940285,447.898538 93.9510842,457.42595 96.0214844,461.775391 C98.7106877,467.424796 112.766117,472.763242 111.662109,478.921875 C109.873162,488.901396 78.7408719,477.081697 73.9726563,477.1875 C66.5924253,477.351261 59.2019993,477.875195 51.8945313,478.921875 C49.2818472,479.296101 23.2565929,495.005421 19.5,497.667969" id="Path-4" stroke="#FBC413" stroke-width="8" stroke-linecap="round" stroke-linejoin="round"></path>
                <path d="M203.429688,219.609375 C209.204464,219.704698 228.745495,220.829105 235.238281,218.15625 C240.339593,216.056217 244.492355,212.089617 248.667969,208.484375 C252.931944,204.802842 255.052519,197.955033 260.460938,196.378906 C270.049091,193.584716 280.434896,196.33724 290.421875,196.316406" id="Path-5" stroke="#28BFE5" stroke-width="8" stroke-linecap="round" stroke-linejoin="round"></path>
                <path d="M325.027344,219.803711 C355.927918,191.109765 332.112231,226.368955 345.944444,174.667969 C346.791867,171.500538 353.871094,168.518066 357.273438,162.123535 C365.263571,147.106488 362.291024,130.293937 359.902344,112.488281 C359.554513,109.895491 355.911393,93.6844292 352.96875,89.9179688 C349.741932,85.7877756 342.631109,79.6434951 341.949219,74.4467773 C340.631676,64.4057239 345.004705,59.2337189 347.660156,49.4609375 C353.752141,27.040775 365.919401,35.6547729 376.980469,20.5507813 C378.406279,18.603824 378.887863,15.7792421 379.078174,12.7322078 C379.356102,8.28236975 379.012827,3.35810321 380.082031,0" id="Path-6" stroke="#A51D46" stroke-width="8" stroke-linecap="round" stroke-linejoin="round"></path>
                <path d="M614.542969,173.667969 C600.105101,172.162843 585.618034,168.87829 573.683594,176.214844 C548.269792,191.837672 525.721205,215.979265 509.515625,240.824219 C504.211889,248.955435 492.78377,264.511398 490.90625,265.925781 C479.388979,274.602032 458.402158,287.903837 445.792969,298.675781 C432.28125,310.21875 426.105469,327.265625 432.027344,341.753906 C441.854955,365.797845 449.765625,376.588251 384.652344,433.675781 C364.381626,451.447965 348.457031,460.285156 312.996094,443.175781 C292.754708,433.409614 288.660156,460.285156 243.257812,460.285156 C228.002295,460.285156 214.60682,498.185953 200.714844,503.777344 C181.056729,511.689552 175.836641,503.391563 160.375,517.847656 C151.545419,526.103006 157.524859,549.670057 165.800781,553.238281 C201.163012,568.484963 220.488281,564.469673 220.488281,598.121094 C220.488281,619.679893 198.246094,635.398438 165.800781,635.398438" id="Path-7" stroke="#1F97D3" stroke-width="15" stroke-linecap="round" stroke-linejoin="round"></path>
                <g id="pin-hover" transform="translate(161, 163.668)" fill-rule="nonzero">
                    <path d="M20,0 C31.045695,0 40,8.68959648 40,19.408757 C40,23.3420412 37.5869687,28.0314705 34.2857143,32.9471055 C28.9268565,40.9265538 21.6134357,49.9628125 21.3590372,60.763444 C21.2146088,61.6970321 20.413275,62 20,62 C19.5912252,62 18.6834028,61.5426829 18.6834028,60.763444 C18.6834027,51.2229635 11.0603248,41.2440606 5.62852444,32.9471055 C2.1908111,27.6960743 0,23.4096181 0,19.408757 C0,8.68959648 8.95430498,0 20,0 Z M19.5,10 C14.2532949,10 10,14.0294373 10,19 C10,23.9705627 14.2532949,28 19.5,28 C24.7467051,28 29,23.9705627 29,19 C29,14.0294373 24.7467051,10 19.5,10 Z" id="Combined-Shape" fill="#C72032"></path>
                    <ellipse id="oval" fill="#FFFFFF" cx="19.5" cy="19" rx="8.44444444" ry="8"></ellipse>
                </g>
                <g id="pin-hover" transform="translate(328, 163.668)" fill-rule="nonzero">
                    <path d="M20,-1.5 C25.9317931,-1.5 31.3001332,0.83650639 35.1867653,4.60824136 C39.0899336,8.39602361 41.5,13.6299402 41.5,19.408757 C41.5,23.5700738 39.036135,28.564108 35.5309573,33.7833889 C34.8370663,34.8166068 34.1106171,35.8674765 33.370893,36.9374645 C28.5583523,43.898655 23.0733459,51.6825142 22.8586213,60.7987653 C22.7189321,61.7844267 22.3516105,62.3437576 21.9208621,62.7356855 C21.2935054,63.3065025 20.5036602,63.5 20,63.5 C19.5157262,63.5 18.6592053,63.2467016 18.0347598,62.6602187 C17.5222111,62.1788299 17.1834028,61.5265177 17.1834028,60.7634441 C17.1834027,52.6941336 11.4503573,44.3425471 6.53228961,37.0119807 C5.79074594,35.9066817 5.06450779,34.8241359 4.37354606,33.7687072 C0.727208235,28.1990066 -1.5,23.6377342 -1.5,19.408757 C-1.5,13.6299402 0.910066357,8.39602361 4.81323466,4.60824136 C8.69986684,0.83650639 14.0682069,-1.5 20,-1.5 Z M19.5,11.5 C17.2812049,11.5 15.2692506,12.3464067 13.8141026,13.724968 C12.3891042,15.0749664 11.5,16.9377932 11.5,19 C11.5,21.0622068 12.3891042,22.9250336 13.8141026,24.275032 C15.2692506,25.6535933 17.2812049,26.5 19.5,26.5 C21.7187951,26.5 23.7307494,25.6535933 25.1858974,24.275032 C26.6108958,22.9250336 27.5,21.0622068 27.5,19 C27.5,16.9377932 26.6108958,15.0749664 25.1858974,13.724968 C23.7307494,12.3464067 21.7187951,11.5 19.5,11.5 Z" id="Combined-Shape" stroke="#FFFFFF" stroke-width="3" fill="#C72032"></path>
                    <ellipse id="oval" fill="#FFFFFF" cx="19.5" cy="19" rx="9.5" ry="9"></ellipse>
                </g>
                <g id="pin-hover" transform="translate(338, 333.668)" fill-rule="nonzero">
                    <path d="M20,0 C31.045695,0 40,8.68959648 40,19.408757 C40,23.3420412 37.5869687,28.0314705 34.2857143,32.9471055 C28.9268565,40.9265538 21.6134357,49.9628125 21.3590372,60.763444 C21.2146088,61.6970321 20.413275,62 20,62 C19.5912252,62 18.6834028,61.5426829 18.6834028,60.763444 C18.6834027,51.2229635 11.0603248,41.2440606 5.62852444,32.9471055 C2.1908111,27.6960743 0,23.4096181 0,19.408757 C0,8.68959648 8.95430498,0 20,0 Z M19.5,10 C14.2532949,10 10,14.0294373 10,19 C10,23.9705627 14.2532949,28 19.5,28 C24.7467051,28 29,23.9705627 29,19 C29,14.0294373 24.7467051,10 19.5,10 Z" id="Combined-Shape" fill="#C72032"></path>
                    <ellipse id="oval" fill="#FFFFFF" cx="19.5" cy="19" rx="8.44444444" ry="8"></ellipse>
                </g>
                <g id="pin-hover" transform="translate(161, 473.668)" fill-rule="nonzero">
                    <path d="M20,-1.5 C25.9317931,-1.5 31.3001332,0.83650639 35.1867653,4.60824136 C39.0899336,8.39602361 41.5,13.6299402 41.5,19.408757 C41.5,23.5700738 39.036135,28.564108 35.5309573,33.7833889 C34.8370663,34.8166068 34.1106171,35.8674765 33.370893,36.9374645 C28.5583523,43.898655 23.0733459,51.6825142 22.8586213,60.7987653 C22.7189321,61.7844267 22.3516105,62.3437576 21.9208621,62.7356855 C21.2935054,63.3065025 20.5036602,63.5 20,63.5 C19.5157262,63.5 18.6592053,63.2467016 18.0347598,62.6602187 C17.5222111,62.1788299 17.1834028,61.5265177 17.1834028,60.7634441 C17.1834027,52.6941336 11.4503573,44.3425471 6.53228961,37.0119807 C5.79074594,35.9066817 5.06450779,34.8241359 4.37354606,33.7687072 C0.727208235,28.1990066 -1.5,23.6377342 -1.5,19.408757 C-1.5,13.6299402 0.910066357,8.39602361 4.81323466,4.60824136 C8.69986684,0.83650639 14.0682069,-1.5 20,-1.5 Z M19.5,11.5 C17.2812049,11.5 15.2692506,12.3464067 13.8141026,13.724968 C12.3891042,15.0749664 11.5,16.9377932 11.5,19 C11.5,21.0622068 12.3891042,22.9250336 13.8141026,24.275032 C15.2692506,25.6535933 17.2812049,26.5 19.5,26.5 C21.7187951,26.5 23.7307494,25.6535933 25.1858974,24.275032 C26.6108958,22.9250336 27.5,21.0622068 27.5,19 C27.5,16.9377932 26.6108958,15.0749664 25.1858974,13.724968 C23.7307494,12.3464067 21.7187951,11.5 19.5,11.5 Z" id="Combined-Shape" stroke="#FFFFFF" stroke-width="3" fill="#C72032"></path>
                    <ellipse id="oval" fill="#FFFFFF" cx="19.5" cy="19" rx="8.44444444" ry="8"></ellipse>
                </g>
                <g id="-" transform="translate(52.172, 247.668)" fill-rule="nonzero">
                    <g id="Path">
                        <use fill="#FFFFFF" xlink:href="#path-1"></use>
                        <use fill="#000000" xlink:href="#path-1"></use>
                    </g>
                    <g id="Path">
                        <use fill="#FFFFFF" xlink:href="#path-2"></use>
                        <use fill="#000000" xlink:href="#path-2"></use>
                    </g>
                    <g id="Shape">
                        <use fill="#FFFFFF" xlink:href="#path-3"></use>
                        <use fill="#000000" xlink:href="#path-3"></use>
                    </g>
                    <g id="Shape">
                        <use fill="#FFFFFF" xlink:href="#path-4"></use>
                        <use fill="#000000" xlink:href="#path-4"></use>
                    </g>
                    <g id="Path">
                        <use fill="#FFFFFF" xlink:href="#path-5"></use>
                        <use fill="#000000" xlink:href="#path-5"></use>
                    </g>
                    <g id="Path">
                        <use fill="#FFFFFF" xlink:href="#path-6"></use>
                        <use fill="#000000" xlink:href="#path-6"></use>
                    </g>
                    <g id="Path">
                        <use fill="#FFFFFF" xlink:href="#path-7"></use>
                        <use fill="#000000" xlink:href="#path-7"></use>
                    </g>
                    <g id="Path">
                        <use fill="#FFFFFF" xlink:href="#path-8"></use>
                        <use fill="#000000" xlink:href="#path-8"></use>
                    </g>
                    <g id="Shape">
                        <use fill="#FFFFFF" xlink:href="#path-9"></use>
                        <use fill="#000000" xlink:href="#path-9"></use>
                    </g>
                    <g id="Shape">
                        <use fill="#FFFFFF" xlink:href="#path-10"></use>
                        <use fill="#000000" xlink:href="#path-10"></use>
                    </g>
                    <g id="Path">
                        <use fill="#FFFFFF" xlink:href="#path-11"></use>
                        <use fill="#000000" xlink:href="#path-11"></use>
                    </g>
                    <g id="Shape">
                        <use fill="#FFFFFF" xlink:href="#path-12"></use>
                        <use fill="#000000" xlink:href="#path-12"></use>
                    </g>
                    <g id="Path">
                        <use fill="#FFFFFF" xlink:href="#path-13"></use>
                        <use fill="#000000" xlink:href="#path-13"></use>
                    </g>
                    <g id="Path">
                        <use fill="#FFFFFF" xlink:href="#path-14"></use>
                        <use fill="#000000" xlink:href="#path-14"></use>
                    </g>
                    <g id="Shape">
                        <use fill="#FFFFFF" xlink:href="#path-15"></use>
                        <use fill="#000000" xlink:href="#path-15"></use>
                    </g>
                    <g id="Shape">
                        <use fill="#FFFFFF" xlink:href="#path-16"></use>
                        <use fill="#000000" xlink:href="#path-16"></use>
                    </g>
                    <g id="Shape">
                        <use fill="#FFFFFF" xlink:href="#path-17"></use>
                        <use fill="#000000" xlink:href="#path-17"></use>
                    </g>
                    <g id="Path">
                        <use fill="#FFFFFF" xlink:href="#path-18"></use>
                        <use fill="#000000" xlink:href="#path-18"></use>
                    </g>
                    <g id="Shape">
                        <use fill="#FFFFFF" xlink:href="#path-19"></use>
                        <use fill="#000000" xlink:href="#path-19"></use>
                    </g>
                    <g id="Shape">
                        <use fill="#FFFFFF" xlink:href="#path-20"></use>
                        <use fill="#000000" xlink:href="#path-20"></use>
                    </g>
                    <g id="Path">
                        <use fill="#FFFFFF" xlink:href="#path-21"></use>
                        <use fill="#000000" xlink:href="#path-21"></use>
                    </g>
                    <g id="Path">
                        <use fill="#FFFFFF" xlink:href="#path-22"></use>
                        <use fill="#000000" xlink:href="#path-22"></use>
                    </g>
                    <g id="Shape">
                        <use fill="#FFFFFF" xlink:href="#path-23"></use>
                        <use fill="#000000" xlink:href="#path-23"></use>
                    </g>
                </g>
                <rect id="Rectangle" fill="#FFFFFF" x="364" y="202.667969" width="205" height="62"></rect>
                <polygon id="Rectangle" fill="#FFFFFF" points="372 377.667969 475 377.667969 475 442.667969 353 442.667969"></polygon>
                <g id="-" transform="translate(370.796, 202.668)" fill-rule="nonzero">
                    <g id="Shape">
                        <use fill="#FFFFFF" xlink:href="#path-24"></use>
                        <use fill="#000000" xlink:href="#path-24"></use>
                    </g>
                    <g id="Shape">
                        <use fill="#FFFFFF" xlink:href="#path-25"></use>
                        <use fill="#000000" xlink:href="#path-25"></use>
                    </g>
                    <g id="Shape">
                        <use fill="#FFFFFF" xlink:href="#path-26"></use>
                        <use fill="#000000" xlink:href="#path-26"></use>
                    </g>
                    <g id="Path">
                        <use fill="#FFFFFF" xlink:href="#path-27"></use>
                        <use fill="#000000" xlink:href="#path-27"></use>
                    </g>
                    <g id="Path">
                        <use fill="#FFFFFF" xlink:href="#path-28"></use>
                        <use fill="#000000" xlink:href="#path-28"></use>
                    </g>
                    <g id="Path">
                        <use fill="#FFFFFF" xlink:href="#path-29"></use>
                        <use fill="#000000" xlink:href="#path-29"></use>
                    </g>
                    <g id="Path">
                        <use fill="#FFFFFF" xlink:href="#path-30"></use>
                        <use fill="#000000" xlink:href="#path-30"></use>
                    </g>
                    <g id="Path">
                        <use fill="#FFFFFF" xlink:href="#path-31"></use>
                        <use fill="#000000" xlink:href="#path-31"></use>
                    </g>
                    <g id="Path">
                        <use fill="#FFFFFF" xlink:href="#path-32"></use>
                        <use fill="#000000" xlink:href="#path-32"></use>
                    </g>
                    <g id="Shape">
                        <use fill="#FFFFFF" xlink:href="#path-33"></use>
                        <use fill="#000000" xlink:href="#path-33"></use>
                    </g>
                    <g id="Shape">
                        <use fill="#FFFFFF" xlink:href="#path-34"></use>
                        <use fill="#000000" xlink:href="#path-34"></use>
                    </g>
                    <g id="Path">
                        <use fill="#FFFFFF" xlink:href="#path-35"></use>
                        <use fill="#000000" xlink:href="#path-35"></use>
                    </g>
                    <g id="Shape">
                        <use fill="#FFFFFF" xlink:href="#path-36"></use>
                        <use fill="#000000" xlink:href="#path-36"></use>
                    </g>
                    <g id="Path">
                        <use fill="#FFFFFF" xlink:href="#path-37"></use>
                        <use fill="#000000" xlink:href="#path-37"></use>
                    </g>
                    <g id="Path">
                        <use fill="#FFFFFF" xlink:href="#path-38"></use>
                        <use fill="#000000" xlink:href="#path-38"></use>
                    </g>
                    <g id="Shape">
                        <use fill="#FFFFFF" xlink:href="#path-39"></use>
                        <use fill="#000000" xlink:href="#path-39"></use>
                    </g>
                    <g id="Shape">
                        <use fill="#FFFFFF" xlink:href="#path-40"></use>
                        <use fill="#000000" xlink:href="#path-40"></use>
                    </g>
                    <g id="Shape">
                        <use fill="#FFFFFF" xlink:href="#path-41"></use>
                        <use fill="#000000" xlink:href="#path-41"></use>
                    </g>
                    <g id="Path">
                        <use fill="#FFFFFF" xlink:href="#path-42"></use>
                        <use fill="#000000" xlink:href="#path-42"></use>
                    </g>
                    <g id="Shape">
                        <use fill="#FFFFFF" xlink:href="#path-43"></use>
                        <use fill="#000000" xlink:href="#path-43"></use>
                    </g>
                    <g id="Shape">
                        <use fill="#FFFFFF" xlink:href="#path-44"></use>
                        <use fill="#000000" xlink:href="#path-44"></use>
                    </g>
                    <g id="Path">
                        <use fill="#FFFFFF" xlink:href="#path-45"></use>
                        <use fill="#000000" xlink:href="#path-45"></use>
                    </g>
                    <g id="Path">
                        <use fill="#FFFFFF" xlink:href="#path-46"></use>
                        <use fill="#000000" xlink:href="#path-46"></use>
                    </g>
                    <g id="Shape">
                        <use fill="#FFFFFF" xlink:href="#path-47"></use>
                        <use fill="#000000" xlink:href="#path-47"></use>
                    </g>
                </g>
                <g id="-" transform="translate(372.9, 381.668)" fill-rule="nonzero">
                    <g id="Path">
                        <use fill="#FFFFFF" xlink:href="#path-48"></use>
                        <use fill="#000000" xlink:href="#path-48"></use>
                    </g>
                    <g id="Shape">
                        <use fill="#FFFFFF" xlink:href="#path-49"></use>
                        <use fill="#000000" xlink:href="#path-49"></use>
                    </g>
                    <g id="Shape">
                        <use fill="#FFFFFF" xlink:href="#path-50"></use>
                        <use fill="#000000" xlink:href="#path-50"></use>
                    </g>
                    <g id="Path">
                        <use fill="#FFFFFF" xlink:href="#path-51"></use>
                        <use fill="#000000" xlink:href="#path-51"></use>
                    </g>
                    <g id="Shape">
                        <use fill="#FFFFFF" xlink:href="#path-52"></use>
                        <use fill="#000000" xlink:href="#path-52"></use>
                    </g>
                    <g id="Shape">
                        <use fill="#FFFFFF" xlink:href="#path-53"></use>
                        <use fill="#000000" xlink:href="#path-53"></use>
                    </g>
                    <g id="Path">
                        <use fill="#FFFFFF" xlink:href="#path-54"></use>
                        <use fill="#000000" xlink:href="#path-54"></use>
                    </g>
                    <g id="Path">
                        <use fill="#FFFFFF" xlink:href="#path-55"></use>
                        <use fill="#000000" xlink:href="#path-55"></use>
                    </g>
                    <g id="Shape">
                        <use fill="#FFFFFF" xlink:href="#path-56"></use>
                        <use fill="#000000" xlink:href="#path-56"></use>
                    </g>
                    <g id="Shape">
                        <use fill="#FFFFFF" xlink:href="#path-57"></use>
                        <use fill="#000000" xlink:href="#path-57"></use>
                    </g>
                    <g id="Path">
                        <use fill="#FFFFFF" xlink:href="#path-58"></use>
                        <use fill="#000000" xlink:href="#path-58"></use>
                    </g>
                    <g id="Shape">
                        <use fill="#FFFFFF" xlink:href="#path-59"></use>
                        <use fill="#000000" xlink:href="#path-59"></use>
                    </g>
                    <g id="Path">
                        <use fill="#FFFFFF" xlink:href="#path-60"></use>
                        <use fill="#000000" xlink:href="#path-60"></use>
                    </g>
                    <g id="Path">
                        <use fill="#FFFFFF" xlink:href="#path-61"></use>
                        <use fill="#000000" xlink:href="#path-61"></use>
                    </g>
                    <g id="Shape">
                        <use fill="#FFFFFF" xlink:href="#path-62"></use>
                        <use fill="#000000" xlink:href="#path-62"></use>
                    </g>
                    <g id="Shape">
                        <use fill="#FFFFFF" xlink:href="#path-63"></use>
                        <use fill="#000000" xlink:href="#path-63"></use>
                    </g>
                    <g id="Shape">
                        <use fill="#FFFFFF" xlink:href="#path-64"></use>
                        <use fill="#000000" xlink:href="#path-64"></use>
                    </g>
                    <g id="Path">
                        <use fill="#FFFFFF" xlink:href="#path-65"></use>
                        <use fill="#000000" xlink:href="#path-65"></use>
                    </g>
                    <g id="Shape">
                        <use fill="#FFFFFF" xlink:href="#path-66"></use>
                        <use fill="#000000" xlink:href="#path-66"></use>
                    </g>
                    <g id="Shape">
                        <use fill="#FFFFFF" xlink:href="#path-67"></use>
                        <use fill="#000000" xlink:href="#path-67"></use>
                    </g>
                    <g id="Path">
                        <use fill="#FFFFFF" xlink:href="#path-68"></use>
                        <use fill="#000000" xlink:href="#path-68"></use>
                    </g>
                    <g id="Path">
                        <use fill="#FFFFFF" xlink:href="#path-69"></use>
                        <use fill="#000000" xlink:href="#path-69"></use>
                    </g>
                    <g id="Shape">
                        <use fill="#FFFFFF" xlink:href="#path-70"></use>
                        <use fill="#000000" xlink:href="#path-70"></use>
                    </g>
                </g>
                <g id="-" transform="translate(209.932, 518.668)" fill-rule="nonzero">
                    <g id="Path">
                        <use fill="#FFFFFF" xlink:href="#path-71"></use>
                        <use fill="#000000" xlink:href="#path-71"></use>
                    </g>
                    <g id="Path">
                        <use fill="#FFFFFF" xlink:href="#path-72"></use>
                        <use fill="#000000" xlink:href="#path-72"></use>
                    </g>
                    <g id="Path">
                        <use fill="#FFFFFF" xlink:href="#path-73"></use>
                        <use fill="#000000" xlink:href="#path-73"></use>
                    </g>
                    <g id="Shape">
                        <use fill="#FFFFFF" xlink:href="#path-74"></use>
                        <use fill="#000000" xlink:href="#path-74"></use>
                    </g>
                    <g id="Path">
                        <use fill="#FFFFFF" xlink:href="#path-75"></use>
                        <use fill="#000000" xlink:href="#path-75"></use>
                    </g>
                    <g id="Path">
                        <use fill="#FFFFFF" xlink:href="#path-76"></use>
                        <use fill="#000000" xlink:href="#path-76"></use>
                    </g>
                    <g id="Path">
                        <use fill="#FFFFFF" xlink:href="#path-77"></use>
                        <use fill="#000000" xlink:href="#path-77"></use>
                    </g>
                    <g id="Path">
                        <use fill="#FFFFFF" xlink:href="#path-78"></use>
                        <use fill="#000000" xlink:href="#path-78"></use>
                    </g>
                </g>
            </g>
        </g>
    </g>
</svg>