<?xml version="1.0" encoding="UTF-8" standalone="no"?>
<svg width="72px" height="56px" viewBox="0 0 72 56" version="1.1" xmlns="http://www.w3.org/2000/svg" xmlns:xlink="http://www.w3.org/1999/xlink">
    <!-- Generator: Sketch 3.8.3 (29802) - http://www.bohemiancoding.com/sketch -->
    <title>gyro</title>
    <desc>Created with Sketch.</desc>
    <defs></defs>
    <g id="new" stroke="none" stroke-width="1" fill="none" fill-rule="evenodd">
        <g id="gyro" transform="translate(24.000000, 16.000000)" fill="#FFFFFF">
            <g id="screen-rotation">
                <path d="M16.4686192,2.5 C19.7824268,4 22.0920502,7.2 22.4937238,11 L24,11 C23.3974895,4.8 18.2761506,0 11.9497908,0 L11.2468619,0 L15.0627615,3.8 L16.4686192,2.5 L16.4686192,2.5 Z M10.1422594,1.7 C9.53974895,1.1 8.63598326,1.1 8.0334728,1.7 L1.60669456,8.1 C1.0041841,8.7 1.0041841,9.6 1.60669456,10.2 L13.6569038,22.2 C14.2594142,22.8 15.1631799,22.8 15.7656904,22.2 L22.1924686,15.8 C22.7949791,15.2 22.7949791,14.3 22.1924686,13.7 L10.1422594,1.7 L10.1422594,1.7 Z M14.7615063,21.2 L2.71129707,9.2 L9.13807531,2.8 L21.1882845,14.8 L14.7615063,21.2 L14.7615063,21.2 Z M7.43096234,21.5 C4.11715481,20 1.80753138,16.8 1.40585774,13 L0,13 C0.50209205,19.2 5.62343096,24 11.9497908,24 L12.6527197,24 L8.83682008,20.2 L7.43096234,21.5 L7.43096234,21.5 Z" id="Shape"></path>
            </g>
        </g>
    </g>
</svg>