<?xml version="1.0" encoding="UTF-8"?>
<svg width="76px" height="92px" viewBox="0 0 76 92" version="1.1" xmlns="http://www.w3.org/2000/svg" xmlns:xlink="http://www.w3.org/1999/xlink">
    <!-- Generator: Sketch 3.8.3 (29802) - http://www.bohemiancoding.com/sketch -->
    <title>pin</title>
    <desc>Created with Sketch.</desc>
    <defs></defs>
    <g id="new" stroke="none" stroke-width="1" fill="none" fill-rule="evenodd">
        <g id="pin">
            <polygon fill="#DC493C" points="0 0 76 0 76 68.6888889 38 91.2678819 0 68.6888889"></polygon>
            <path d="M58.0130937,38.5764688 C52.8061875,45.9044063 45.7532812,49.7296563 36.7329062,49.2992344 C28.7110937,48.9163438 22.4934375,45.0569688 17.9511562,38.4753125 C17.8065312,38.2654844 17.7782969,37.8232813 17.9007812,37.6039063 C19.2917812,35.1158281 23.0898125,31.4839531 25.6571094,30.1721719 C24.0260156,36.5257188 25.5663125,41.7531406 31.0244844,45.3378906 C35.5557969,48.3140781 40.4460312,48.3136719 44.9769375,45.336875 C50.4345,41.7513125 51.9735781,36.5234844 50.3014531,30.003375 C51.3327187,30.7474219 52.2880156,31.2570625 53.01175,31.9944063 C54.7336406,33.7485938 56.3434062,35.612875 58.0049687,37.4265781 C58.3655156,37.8202344 58.3194062,38.1454375 58.0130937,38.5764688 M33.1934531,27.9729375 C35.8724688,28.0164063 38.0192969,30.2038594 37.9932969,32.8635781 C37.9672969,35.5277656 35.7790313,37.6794688 33.107125,37.6676875 C30.4309531,37.6561094 28.25975,35.4901875 28.2552813,32.8278281 C28.2506094,30.1280938 30.4874219,27.9288594 33.1934531,27.9729375 M59.9086562,31.943625 C54.9725156,26.158625 48.6780781,22.8092969 41.0958281,21.9376875 C40.8721875,21.9118906 40.6566719,21.8141875 40.4375,21.75 L35.5625,21.75 C34.1152344,22.0232031 32.6478594,22.2177969 31.2241562,22.5826094 C22.9451875,24.7046563 16.7555625,29.5577188 12.55575,36.9815313 C12.3944688,37.2669219 12.1862656,37.5257031 12,37.796875 L12,38.203125 C13.3542344,40.1624688 14.5532812,42.2538438 16.0913438,44.056375 C21.0274844,49.841375 27.3217187,53.1907031 34.9039687,54.0623125 C35.1276094,54.0881094 35.343125,54.1858125 35.5625,54.25 L40.4375,54.25 C41.8845625,53.9767969 43.3519375,53.7822031 44.7758437,53.4173906 C53.0546094,51.2955469 59.2444375,46.4424844 63.4440469,39.0184688 C63.6055312,38.7330781 63.8135312,38.4742969 64,38.203125 L64,37.796875 C62.6457656,35.8377344 61.4465156,33.7461563 59.9086562,31.943625" id="url_icon" fill="#FFFFFF"></path>
        </g>
    </g>
</svg>