<?xml version="1.0" encoding="UTF-8"?>
<svg width="1056px" height="417px" viewBox="0 0 1056 417" version="1.1" xmlns="http://www.w3.org/2000/svg" xmlns:xlink="http://www.w3.org/1999/xlink">
    <!-- Generator: Sketch 3.8.3 (29802) - http://www.bohemiancoding.com/sketch -->
    <title>logo_title</title>
    <desc>Created with Sketch.</desc>
    <defs></defs>
    <g id="new" stroke="none" stroke-width="1" fill="none" fill-rule="evenodd">
        <g id="logo_title">
            <g id="logo_left_inv" transform="translate(449.000000, 0.000000)" fill="#FFFFFF">
                <path d="M42.7290323,126.917006 L42.7290323,127.125336 L32.0857143,143.58527 L32.0857143,129.078891 C24.3898618,130.895387 17.3004608,133.135853 11,135.750948 C16.3677419,146.521998 23.5585253,155.913316 32.0857143,163.365699 L32.0857143,162.451969 L42.7290323,146.984346 L42.7290323,171.207331 C47.2506912,173.98507 52.0211982,176.25843 57,178 L57,125 C52.0967742,125.482449 47.3299539,126.127543 42.7290323,126.917006" id="Fill-2"></path>
                <path d="M82.4645507,124.019831 L82.4645507,139.255527 L74.3057111,139.255527 L74.3057111,124 C69.4376945,124.084733 64.6642731,124.310086 60,124.686877 L60,178.513901 C64.6187946,179.822754 69.3976734,180.65566 74.3057111,180.962141 L74.3057111,154.090995 L82.4645507,154.090995 L82.4645507,181 C87.8000862,180.707942 92.9919096,179.792106 98,178.310181 L98,124.890597 C92.9537077,124.436284 87.7727991,124.131606 82.4645507,124.019831" id="Fill-3"></path>
                <path d="M122.448454,156.611086 L122.07718,165.629253 C127.740457,161.05257 132.854974,155.611707 137.308442,149.471095 C135.627751,146.390741 134.658819,144.651419 130.261493,143.014409 C133.94706,138.775725 135.497353,136.453583 139,133.694784 C134.207857,131.935365 129.048064,130.373263 123.57314,129.039539 L115.129841,140.959013 L115.129841,127.225309 C110.277933,126.300838 105.217749,125.555414 100,125 L100,178 C105.297437,176.162019 110.363054,173.702851 115.129841,170.651729 L115.129841,154.120859 C118.442324,154.309042 121.202424,155.21159 122.448454,156.444827 L122.448454,156.611086" id="Fill-4"></path>
                <path d="M78.0785204,114 C80.0714429,61.2010293 80.4920879,18.5098799 106,5.1118559 C99.6978033,2.49164496 93.0347867,0.751477222 86.1119049,0 C78.9590706,21.9232162 79.1628497,45.3240358 78,114 L78.0785204,114" id="Fill-5"></path>
                <path d="M79,114 L79.5460968,114 C90.6132903,44.3967036 104.712516,24.3524616 136,27.3013818 C130.853452,20.9516908 124.934645,15.4489912 118.416419,11 C89.1919677,19.9748153 83.7401935,46.3156969 79,114" id="Fill-6"></path>
                <path d="M76.9275274,114 L77,114 C75.9076076,45.3843072 76.0967435,21.9209158 69.3691617,0 C62.9756612,0.844645838 56.82079,2.64087765 51,5.25456714 C74.6578965,18.9537801 75.0556122,61.4942046 76.9275274,114" id="Fill-7"></path>
                <path d="M81,113 L81.6570278,113 C102.647145,48.5459653 134.577965,42.2341029 156,69.4764932 C153.873353,58.5297544 150.048316,48.3224883 144.872621,39.2544097 C110.050146,24.7629261 92.2024158,60.3266548 81,113" id="Fill-8"></path>
                <path d="M156.92297,86.7236826 C137.124349,54.0868413 107.084367,51.3186351 82,113.793213 L82.0917027,113.793213 C111.231164,50.4461867 144.78703,87.8705888 152.565256,121 C155.441053,111.493947 157,101.280848 157,90.6478829 C157,89.3246695 156.974323,88.0305377 156.92297,86.7236826" id="Fill-9"></path>
                <path d="M74,114.656523 C49.368207,52.3061014 19.9734107,53.8296393 0.152342684,85.2637039 C0.0550636208,87.2014075 0,89.144658 0,91.1119449 C0,101.190592 1.36374234,110.901298 3.86913709,120 C12.4810874,86.8297678 45.3210308,51.4888638 73.9082273,114.656523 L74,114.656523" id="Fill-10"></path>
                <path d="M77.4598901,113 L78,113 C73.2864808,46.3954614 67.8853813,20.1279879 39.2245301,11 C32.8593436,15.3606657 27.0619178,20.7034796 22,26.8577912 C52.5871819,24.515885 66.501004,44.7579425 77.4598901,113" id="Fill-11"></path>
                <path d="M76.33761,113 L77,113 C65.8755284,61.0167834 48.2725148,25.7072916 14.1539112,38.7058208 C9.06638818,47.451442 5.2594858,57.2398523 3,67.7603949 C24.5184743,42.5481534 55.6912825,49.9530458 76.33761,113" id="Fill-12"></path>
            </g>
            <path d="M74.8358887,225.079685 L51.9304502,225.079685 L51.9304502,287.860988 L46.366376,287.860988 L46.366376,225.079685 L23.4609375,225.079685 L23.4609375,220.350222 L74.8358887,220.350222 L74.8358887,225.079685 Z M120.183093,264.167306 C120.183093,271.80249 118.513887,277.814721 115.175426,282.204179 C111.836965,286.593637 107.123005,288.788334 101.033404,288.788334 C97.4476498,288.788334 94.3642562,288.146926 91.7831311,286.864091 C89.2020061,285.581257 87.0923157,283.718856 85.4539968,281.276834 L85.314895,281.323201 L85.314895,307.149778 L79.7508208,307.149778 L79.7508208,237.691586 L84.4339165,237.691586 L85.1294258,245.249454 L85.2221604,245.295821 C86.891391,242.544681 89.0165369,240.434991 91.597662,238.966686 C94.1787871,237.498382 97.2930919,236.76424 100.94067,236.76424 C107.092094,236.76424 111.836965,239.121221 115.175426,243.835251 C118.513887,248.549282 120.183093,255.001998 120.183093,263.193593 L120.183093,264.167306 Z M114.619019,263.193593 C114.619019,256.70214 113.374842,251.478145 110.886452,247.52145 C108.398062,243.564756 104.665533,241.586438 99.6887531,241.586438 C95.8866168,241.586438 92.8418622,242.45968 90.5543981,244.20619 C88.266934,245.952699 86.5204504,248.278768 85.314895,251.184466 L85.314895,275.249087 C86.6131854,278.062049 88.436947,280.24129 90.7862345,281.786874 C93.135522,283.332458 96.1339098,284.105238 99.7814877,284.105238 C104.727356,284.105238 108.436702,282.320115 110.909636,278.749817 C113.38257,275.179518 114.619019,270.318729 114.619019,264.167306 L114.619019,263.193593 Z M165.530297,237.691586 L171.094371,237.691586 L171.094371,287.860988 L165.530297,287.860988 L165.530297,246.640472 L165.391195,246.594105 L138.451803,287.860988 L132.934096,287.860988 L132.934096,237.691586 L138.451803,237.691586 L138.451803,278.912102 L138.590905,278.958469 L165.530297,237.691586 Z M241.989949,237.691586 L247.554023,237.691586 L247.554023,287.860988 L241.989949,287.860988 L241.989949,246.640472 L241.850847,246.594105 L214.911455,287.860988 L209.393748,287.860988 L209.393748,237.691586 L214.911455,237.691586 L214.911455,278.912102 L215.050557,278.958469 L241.989949,237.691586 Z M297.352487,251.045364 C297.352487,253.518298 296.618345,255.712994 295.150041,257.629518 C293.681736,259.546042 291.587501,261.014325 288.867274,262.03441 L288.867274,262.173512 C292.020265,263.069951 294.377245,264.51505 295.938285,266.508853 C297.499324,268.502657 298.279832,271.029648 298.279832,274.089904 C298.279832,278.757568 296.556532,282.358724 293.10988,284.893482 C289.663228,287.428239 285.003363,288.695599 279.130144,288.695599 C273.844247,288.695599 269.284843,287.412784 265.451795,284.847114 C261.618747,282.281445 259.702252,278.494821 259.702252,273.48713 L265.266326,273.48713 C265.266326,276.516474 266.556869,279.035738 269.137994,281.044997 C271.719119,283.054256 275.049803,284.058871 279.130144,284.058871 C283.550514,284.058871 286.912108,283.177901 289.215028,281.415935 C291.517948,279.65397 292.669391,277.242895 292.669391,274.182639 C292.669391,270.813266 291.602954,268.386736 289.470048,266.902975 C287.337143,265.419215 283.952365,264.677346 279.315613,264.677346 L271.665011,264.677346 L271.665011,259.855148 L279.315613,259.855148 C283.797806,259.855148 286.997117,259.105551 288.913641,257.606335 C290.830165,256.107118 291.788413,253.889239 291.788413,250.952629 C291.788413,248.139667 290.77607,245.87542 288.751355,244.159822 C286.726641,242.444224 283.519602,241.586438 279.130144,241.586438 C275.451654,241.586438 272.352805,242.482863 269.833503,244.275741 C267.314202,246.068618 266.05457,248.386959 266.05457,251.230833 L260.536863,251.230833 C260.536863,246.903198 262.321985,243.433415 265.892284,240.821378 C269.462583,238.209341 273.875159,236.903342 279.130144,236.903342 C284.972451,236.903342 289.470033,238.101152 292.623024,240.496807 C295.776015,242.892462 297.352487,246.408612 297.352487,251.045364 L297.352487,251.045364 Z M338.248432,280.349488 L358.186364,237.691586 L365.048722,237.691586 L365.048722,287.860988 L359.484648,287.860988 L359.484648,247.01141 L359.345546,246.965043 L340.195858,287.860988 L336.254638,287.860988 L316.734012,246.037697 L316.59491,246.084065 L316.59491,287.860988 L311.077203,287.860988 L311.077203,237.691586 L318.356867,237.691586 L338.248432,280.349488 Z M399.314145,288.788334 C392.637223,288.788334 387.235488,286.524087 383.108779,281.995526 C378.98207,277.466966 376.918747,271.555196 376.918747,264.26004 L376.918747,261.709839 C376.918747,254.383772 378.966615,248.394724 383.062412,243.742517 C387.158209,239.090309 392.189009,236.76424 398.154963,236.76424 C404.430034,236.76424 409.290822,238.673008 412.737474,242.4906 C416.184126,246.308192 417.907426,251.539915 417.907426,258.185926 L417.907426,262.915389 L382.482821,262.915389 L382.482821,264.26004 C382.482821,270.009612 384.012926,274.754483 387.073182,278.494796 C390.133438,282.235109 394.213718,284.105238 399.314145,284.105238 C402.374401,284.105238 405.055949,283.664753 407.358869,282.78377 C409.661789,281.902787 411.848757,280.504055 413.91984,278.587531 L416.284571,282.389648 C414.398959,284.367996 412.096074,285.929012 409.375846,287.072744 C406.655618,288.216476 403.301752,288.788334 399.314145,288.788334 L399.314145,288.788334 Z M398.154963,241.493703 C393.981887,241.493703 390.512103,243.046992 387.745508,246.153616 C384.978913,249.260239 383.286524,253.286425 382.66829,258.232293 L412.389719,258.232293 L412.389719,256.841275 C412.389719,252.389993 411.137815,248.719286 408.633969,245.829045 C406.130124,242.938803 402.637156,241.493703 398.154963,241.493703 L398.154963,241.493703 Z M469.282377,264.167306 C469.282377,271.80249 467.613172,277.814721 464.274711,282.204179 C460.93625,286.593637 456.222289,288.788334 450.132689,288.788334 C446.546934,288.788334 443.463541,288.146926 440.882416,286.864091 C438.301291,285.581257 436.1916,283.718856 434.553281,281.276834 L434.41418,281.323201 L434.41418,307.149778 L428.850105,307.149778 L428.850105,237.691586 L433.533201,237.691586 L434.22871,245.249454 L434.321445,245.295821 C435.990676,242.544681 438.115822,240.434991 440.696947,238.966686 C443.278072,237.498382 446.392376,236.76424 450.039954,236.76424 C456.191378,236.76424 460.93625,239.121221 464.274711,243.835251 C467.613172,248.549282 469.282377,255.001998 469.282377,263.193593 L469.282377,264.167306 Z M463.718303,263.193593 C463.718303,256.70214 462.474127,251.478145 459.985737,247.52145 C457.497347,243.564756 453.764818,241.586438 448.788038,241.586438 C444.985901,241.586438 441.941147,242.45968 439.653683,244.20619 C437.366219,245.952699 435.619735,248.278768 434.41418,251.184466 L434.41418,275.249087 C435.71247,278.062049 437.536232,280.24129 439.885519,281.786874 C442.234807,283.332458 445.233194,284.105238 448.880772,284.105238 C453.826641,284.105238 457.535986,282.320115 460.008921,278.749817 C462.481855,275.179518 463.718303,270.318729 463.718303,264.167306 L463.718303,263.193593 Z M501.090335,288.788334 C494.413412,288.788334 489.011678,286.524087 484.884969,281.995526 C480.75826,277.466966 478.694936,271.555196 478.694936,264.26004 L478.694936,261.709839 C478.694936,254.383772 480.742804,248.394724 484.838601,243.742517 C488.934399,239.090309 493.965199,236.76424 499.931152,236.76424 C506.206223,236.76424 511.067011,238.673008 514.513663,242.4906 C517.960315,246.308192 519.683616,251.539915 519.683616,258.185926 L519.683616,262.915389 L484.25901,262.915389 L484.25901,264.26004 C484.25901,270.009612 485.789115,274.754483 488.849371,278.494796 C491.909628,282.235109 495.989908,284.105238 501.090335,284.105238 C504.150591,284.105238 506.832138,283.664753 509.135058,282.78377 C511.437978,281.902787 513.624947,280.504055 515.696029,278.587531 L518.060761,282.389648 C516.175148,284.367996 513.872263,285.929012 511.152035,287.072744 C508.431808,288.216476 505.077941,288.788334 501.090335,288.788334 L501.090335,288.788334 Z M499.931152,241.493703 C495.758076,241.493703 492.288292,243.046992 489.521697,246.153616 C486.755102,249.260239 485.062713,253.286425 484.444479,258.232293 L514.165909,258.232293 L514.165909,256.841275 C514.165909,252.389993 512.914005,248.719286 510.410159,245.829045 C507.906313,242.938803 504.413346,241.493703 499.931152,241.493703 L499.931152,241.493703 Z M569.111141,287.860988 L563.547067,287.860988 L563.547067,264.862815 L536.51494,264.862815 L536.51494,287.860988 L530.950866,287.860988 L530.950866,237.691586 L536.51494,237.691586 L536.51494,260.179719 L563.547067,260.179719 L563.547067,237.691586 L569.111141,237.691586 L569.111141,287.860988 Z M616.915811,237.691586 L622.479885,237.691586 L622.479885,287.860988 L616.915811,287.860988 L616.915811,246.640472 L616.776709,246.594105 L589.837317,287.860988 L584.31961,287.860988 L584.31961,237.691586 L589.837317,237.691586 L589.837317,278.912102 L589.976419,278.958469 L616.915811,237.691586 Z M673.901204,237.691586 L673.901204,287.860988 L668.33713,287.860988 L668.33713,267.644852 L652.757722,267.644852 L640.516759,287.860988 L634.396277,287.860988 L647.008179,266.949343 C643.484248,266.021992 640.794972,264.314148 638.940271,261.825758 C637.085571,259.337368 636.158234,256.284885 636.158234,252.668219 C636.158234,248.186026 637.71925,244.569414 640.84133,241.818274 C643.963409,239.067135 648.399169,237.691586 654.148741,237.691586 L673.901204,237.691586 Z M641.722308,252.760954 C641.722308,255.666651 642.618734,258.085454 644.411611,260.017434 C646.204488,261.949413 648.955586,262.915389 652.664987,262.915389 L668.33713,262.915389 L668.33713,242.421049 L654.148741,242.421049 C649.913841,242.421049 646.78408,243.40248 644.759365,245.365372 C642.734651,247.328263 641.722308,249.793433 641.722308,252.760954 L641.722308,252.760954 Z M715.214454,287.860988 L709.233074,287.860988 L725.276155,258.603231 C720.76305,257.119471 717.370544,254.878408 715.098536,251.879975 C712.826528,248.881542 711.690541,245.141286 711.690541,240.659092 C711.690541,234.074905 713.676586,229.044105 717.648737,225.566541 C721.620887,222.088978 727.254456,220.350222 734.549612,220.350222 L755.136686,220.350222 L755.136686,287.860988 L749.572612,287.860988 L749.572612,260.272454 L730.005618,260.272454 L715.214454,287.860988 Z M749.572612,225.079685 L734.549612,225.079685 C728.769128,225.079685 724.43383,226.424323 721.543588,229.113639 C718.653347,231.802954 717.208247,235.620489 717.208247,240.566358 C717.208247,245.110374 718.568341,248.734714 721.288568,251.439486 C724.008796,254.144258 727.903609,255.496623 732.973124,255.496623 L749.572612,255.496623 L749.572612,225.079685 Z M810.499224,264.167306 C810.499224,271.80249 808.830018,277.814721 805.491557,282.204179 C802.153096,286.593637 797.439136,288.788334 791.349535,288.788334 C787.763781,288.788334 784.680387,288.146926 782.099262,286.864091 C779.518137,285.581257 777.408447,283.718856 775.770128,281.276834 L775.631026,281.323201 L775.631026,307.149778 L770.066952,307.149778 L770.066952,237.691586 L774.750047,237.691586 L775.445557,245.249454 L775.538291,245.295821 C777.207522,242.544681 779.332668,240.434991 781.913793,238.966686 C784.494918,237.498382 787.609223,236.76424 791.256801,236.76424 C797.408224,236.76424 802.153096,239.121221 805.491557,243.835251 C808.830018,248.549282 810.499224,255.001998 810.499224,263.193593 L810.499224,264.167306 Z M804.93515,263.193593 C804.93515,256.70214 803.690973,251.478145 801.202583,247.52145 C798.714193,243.564756 794.981664,241.586438 790.004884,241.586438 C786.202748,241.586438 783.157993,242.45968 780.870529,244.20619 C778.583065,245.952699 776.836581,248.278768 775.631026,251.184466 L775.631026,275.249087 C776.929316,278.062049 778.753078,280.24129 781.102365,281.786874 C783.451653,283.332458 786.450041,284.105238 790.097619,284.105238 C795.043487,284.105238 798.752833,282.320115 801.225767,278.749817 C803.698701,275.179518 804.93515,270.318729 804.93515,264.167306 L804.93515,263.193593 Z M854.733613,287.860988 C854.362673,286.129934 854.099928,284.677107 853.945369,283.502463 C853.790811,282.327819 853.713533,281.137738 853.713533,279.932182 L853.574431,279.885815 C851.750642,282.482396 849.324112,284.61527 846.294767,286.2845 C843.265423,287.953731 839.787911,288.788334 835.862128,288.788334 C830.885348,288.788334 827.067813,287.520974 824.409409,284.986216 C821.751005,282.451459 820.421823,278.958492 820.421823,274.50721 C820.421823,269.777723 822.392412,266.045194 826.333651,263.309511 C830.27489,260.573827 835.707536,259.206006 842.631752,259.206006 L853.713533,259.206006 L853.713533,252.99279 C853.713533,249.345212 852.577546,246.516836 850.305537,244.507577 C848.033529,242.498318 844.795579,241.493703 840.591591,241.493703 C836.634897,241.493703 833.404675,242.459679 830.900829,244.391659 C828.396983,246.323639 827.145079,248.71153 827.145079,251.555404 L821.627372,251.509037 C821.627372,247.552342 823.412495,244.105742 826.982793,241.169132 C830.553092,238.232523 835.166591,236.76424 840.823428,236.76424 C846.480265,236.76424 850.962391,238.147517 854.26994,240.914112 C857.57749,243.680708 859.23124,247.737804 859.23124,253.085525 L859.23124,277.75292 C859.23124,279.545797 859.323973,281.26137 859.509443,282.899688 C859.694913,284.538007 860.034937,286.191757 860.529524,287.860988 L854.733613,287.860988 Z M836.51127,283.919769 C840.591612,283.919769 844.138674,283.00016 847.152562,281.160915 C850.166451,279.32167 852.353419,276.918324 853.713533,273.950803 L853.713533,263.471796 L842.539017,263.471796 C837.407679,263.471796 833.35831,264.530505 830.390789,266.647955 C827.423268,268.765405 825.939529,271.446953 825.939529,274.692679 C825.939529,277.443818 826.859138,279.669426 828.698383,281.369568 C830.537628,283.06971 833.141897,283.919769 836.51127,283.919769 L836.51127,283.919769 Z M887.56165,264.862815 L879.864681,264.862815 L879.864681,287.860988 L874.25424,287.860988 L874.25424,237.691586 L879.864681,237.691586 L879.864681,259.947883 L887.468916,259.947883 L905.876728,237.691586 L912.878188,237.691586 L892.291113,262.03441 L915.150185,287.860988 L907.824154,287.860988 L887.56165,264.862815 Z M959.152738,242.421049 L940.884028,242.421049 L940.884028,287.860988 L935.319953,287.860988 L935.319953,242.421049 L917.746753,242.421049 L917.746753,237.691586 L959.152738,237.691586 L959.152738,242.421049 Z M974.361207,255.913929 L988.735065,255.913929 C994.639196,255.913929 999.175416,257.366756 1002.34386,260.272454 C1005.51231,263.178151 1007.09651,267.026597 1007.09651,271.817907 C1007.09651,276.640129 1005.50458,280.519487 1002.32068,283.456096 C999.136777,286.392705 994.608284,287.860988 988.735065,287.860988 L968.8435,287.860988 L968.8435,237.691586 L974.361207,237.691586 L974.361207,255.913929 Z M974.361207,260.643392 L974.361207,283.177892 L988.735065,283.177892 C993.124523,283.177892 996.354745,282.119183 998.425828,280.001733 C1000.49691,277.884283 1001.53244,275.18728 1001.53244,271.910642 C1001.53244,268.757651 1000.48918,266.091559 998.402644,263.912285 C996.316106,261.733012 993.093612,260.643392 988.735065,260.643392 L974.361207,260.643392 Z M1024.1133,287.860988 L1018.54923,287.860988 L1018.54923,237.691586 L1024.1133,237.691586 L1024.1133,287.860988 Z" id="Три-измерения-Яракты" fill="#FFFFFF"></path>
            <g id="Group-3" transform="translate(0.000000, 330.000000)">
                <g id="Group-2">
                    <rect id="Rectangle-43" fill="#FFFFFF" x="0" y="24" width="40" height="63"></rect>
                    <polygon id="Rectangle-43" fill="#D4D4D4" points="40 23.7929688 40 86.7929688 16 63 16 0"></polygon>
                </g>
                <g id="Group-2" transform="translate(1036.000000, 43.500000) scale(-1, 1) translate(-1036.000000, -43.500000) translate(1016.000000, 0.000000)">
                    <rect id="Rectangle-43" fill="#FFFFFF" x="0" y="24" width="40" height="63"></rect>
                    <polygon id="Rectangle-43" fill="#D4D4D4" points="40 23.7929688 40 86.7929688 16 63 16 0"></polygon>
                </g>
                <rect id="Rectangle-43" fill="#FFFFFF" x="16" y="0" width="1024" height="63"></rect>
                <path d="M47.7421875,40 L46.3476562,40 L46.3476562,24.1328125 L36.6328125,24.1328125 L36.6328125,40 L35.2382812,40 L35.2382812,22.9375 L47.7421875,22.9375 L47.7421875,40 Z M55.4296875,36.5664062 L55.8984375,38.125 L55.9335938,38.125 L59.7773438,27.3203125 L61.3476562,27.3203125 L55.8398438,42.0273438 C55.5039046,42.9101607 55.0800807,43.6464814 54.5683594,44.2363281 C54.0566381,44.8261748 53.2890676,45.1210938 52.265625,45.1210938 C52.1015617,45.1210938 51.904298,45.1035158 51.6738281,45.0683594 C51.4433582,45.0332029 51.2695318,44.9960939 51.1523438,44.9570312 L51.3164062,43.7851562 C51.4101567,43.8007813 51.5605458,43.8183593 51.7675781,43.8378906 C51.9746104,43.857422 52.1249995,43.8671875 52.21875,43.8671875 C52.8515657,43.8671875 53.3261703,43.6894549 53.6425781,43.3339844 C53.958986,42.9785138 54.2851546,42.3828167 54.6210938,41.546875 L55.2890625,39.8359375 L50.390625,27.3203125 L51.9492188,27.3203125 L55.4296875,36.5664062 Z M72.65625,28.515625 L68.0390625,28.515625 L68.0390625,40 L66.6328125,40 L66.6328125,28.515625 L62.1914062,28.515625 L62.1914062,27.3203125 L72.65625,27.3203125 L72.65625,28.515625 Z M78.9257812,40.234375 C77.2382728,40.234375 75.8730521,39.6621151 74.8300781,38.5175781 C73.7871042,37.3730412 73.265625,35.8789155 73.265625,34.0351562 L73.265625,33.390625 C73.265625,31.5390532 73.7831979,30.0253965 74.8183594,28.8496094 C75.8535208,27.6738222 77.1249925,27.0859375 78.6328125,27.0859375 C80.2187579,27.0859375 81.4472613,27.5683546 82.3183594,28.5332031 C83.1894575,29.4980517 83.625,30.8203041 83.625,32.5 L83.625,33.6953125 L74.671875,33.6953125 L74.671875,34.0351562 C74.671875,35.4882885 75.0585899,36.6874953 75.8320312,37.6328125 C76.6054726,38.5781297 77.6367123,39.0507812 78.9257812,39.0507812 C79.6992226,39.0507812 80.3769502,38.9394542 80.9589844,38.7167969 C81.5410185,38.4941395 82.0937474,38.1406274 82.6171875,37.65625 L83.2148438,38.6171875 C82.7382789,39.11719 82.1562534,39.5117173 81.46875,39.8007812 C80.7812466,40.0898452 79.9335988,40.234375 78.9257812,40.234375 L78.9257812,40.234375 Z M78.6328125,28.28125 C77.5781197,28.28125 76.7011754,28.6738242 76.0019531,29.4589844 C75.3027309,30.2441446 74.8750008,31.2617125 74.71875,32.5117188 L82.2304688,32.5117188 L82.2304688,32.1601562 C82.2304688,31.0351506 81.9140657,30.1074255 81.28125,29.3769531 C80.6484343,28.6464807 79.7656307,28.28125 78.6328125,28.28125 L78.6328125,28.28125 Z M87.8789062,27.3203125 L87.8789062,38.8164062 L93.515625,38.8164062 L93.515625,27.3203125 L94.921875,27.3203125 L94.921875,38.8164062 L100.511719,38.8164062 L100.511719,27.3203125 L101.917969,27.3203125 L101.917969,40 L86.4726562,40 L86.4726562,27.3203125 L87.8789062,27.3203125 Z M110.332031,40.234375 C108.644523,40.234375 107.279302,39.6621151 106.236328,38.5175781 C105.193354,37.3730412 104.671875,35.8789155 104.671875,34.0351562 L104.671875,33.390625 C104.671875,31.5390532 105.189448,30.0253965 106.224609,28.8496094 C107.259771,27.6738222 108.531242,27.0859375 110.039062,27.0859375 C111.625008,27.0859375 112.853511,27.5683546 113.724609,28.5332031 C114.595707,29.4980517 115.03125,30.8203041 115.03125,32.5 L115.03125,33.6953125 L106.078125,33.6953125 L106.078125,34.0351562 C106.078125,35.4882885 106.46484,36.6874953 107.238281,37.6328125 C108.011723,38.5781297 109.042962,39.0507812 110.332031,39.0507812 C111.105473,39.0507812 111.7832,38.9394542 112.365234,38.7167969 C112.947269,38.4941395 113.499997,38.1406274 114.023438,37.65625 L114.621094,38.6171875 C114.144529,39.11719 113.562503,39.5117173 112.875,39.8007812 C112.187497,40.0898452 111.339849,40.234375 110.332031,40.234375 L110.332031,40.234375 Z M110.039062,28.28125 C108.98437,28.28125 108.107425,28.6738242 107.408203,29.4589844 C106.708981,30.2441446 106.281251,31.2617125 106.125,32.5117188 L113.636719,32.5117188 L113.636719,32.1601562 C113.636719,31.0351506 113.320316,30.1074255 112.6875,29.3769531 C112.054684,28.6464807 111.171881,28.28125 110.039062,28.28125 L110.039062,28.28125 Z M122.507812,39.0507812 C123.460942,39.0507812 124.275387,38.7929713 124.951172,38.2773438 C125.626957,37.7617162 125.988281,37.0312547 126.035156,36.0859375 L127.382812,36.0859375 C127.34375,37.3046936 126.855473,38.3007774 125.917969,39.0742188 C124.980464,39.8476601 123.843757,40.234375 122.507812,40.234375 C120.749991,40.234375 119.408208,39.6543027 118.482422,38.4941406 C117.556636,37.3339786 117.09375,35.804697 117.09375,33.90625 L117.09375,33.4140625 C117.09375,31.5312406 117.556636,30.0058652 118.482422,28.8378906 C119.408208,27.669916 120.746085,27.0859375 122.496094,27.0859375 C123.902351,27.0859375 125.058589,27.4921834 125.964844,28.3046875 C126.871098,29.1171916 127.34375,30.2148368 127.382812,31.5976562 L126.035156,31.5976562 C125.996094,30.5820262 125.644535,29.7753936 124.980469,29.1777344 C124.316403,28.5800751 123.488286,28.28125 122.496094,28.28125 C121.105462,28.28125 120.0918,28.7617139 119.455078,29.7226562 C118.818356,30.6835986 118.5,31.914055 118.5,33.4140625 L118.5,33.90625 C118.5,35.4375077 118.818356,36.6777296 119.455078,37.6269531 C120.0918,38.5761766 121.109368,39.0507812 122.507812,39.0507812 L122.507812,39.0507812 Z M139.324219,28.515625 L134.707031,28.515625 L134.707031,40 L133.300781,40 L133.300781,28.515625 L128.859375,28.515625 L128.859375,27.3203125 L139.324219,27.3203125 L139.324219,28.515625 Z M141.773438,40 L141.773438,27.3203125 L146.425781,27.3203125 C148.035164,27.3203125 149.269527,27.5976535 150.128906,28.1523438 C150.988286,28.707034 151.417969,29.558588 151.417969,30.7070312 C151.417969,31.3632845 151.228518,31.9335913 150.849609,32.4179688 C150.470701,32.9023462 149.933597,33.2499989 149.238281,33.4609375 L149.238281,33.4960938 C150.050785,33.644532 150.701169,33.9941379 151.189453,34.5449219 C151.677737,35.0957059 151.921875,35.7421838 151.921875,36.484375 C151.921875,37.6562559 151.50977,38.5351533 150.685547,39.1210938 C149.861324,39.7070342 148.710945,40 147.234375,40 L141.773438,40 Z M143.167969,34.1640625 L143.167969,38.828125 L147.234375,38.828125 C148.304693,38.828125 149.121091,38.6289082 149.683594,38.2304688 C150.246097,37.8320293 150.527344,37.2421914 150.527344,36.4609375 C150.527344,35.7421839 150.24219,35.1796895 149.671875,34.7734375 C149.10156,34.3671855 148.289068,34.1640625 147.234375,34.1640625 L143.167969,34.1640625 Z M143.167969,32.9921875 L146.71875,32.9921875 C147.820318,32.9765624 148.646482,32.783205 149.197266,32.4121094 C149.74805,32.0410138 150.023438,31.4843787 150.023438,30.7421875 C150.023438,29.9765587 149.726565,29.4140643 149.132812,29.0546875 C148.53906,28.6953107 147.636725,28.515625 146.425781,28.515625 L143.167969,28.515625 L143.167969,32.9921875 Z M163.371094,27.3203125 L164.777344,27.3203125 L164.777344,40 L163.371094,40 L163.371094,29.5820312 L163.335938,29.5703125 L156.527344,40 L155.132812,40 L155.132812,27.3203125 L156.527344,27.3203125 L156.527344,37.7382812 L156.5625,37.75 L163.371094,27.3203125 Z M173.4375,40.234375 C171.749992,40.234375 170.384771,39.6621151 169.341797,38.5175781 C168.298823,37.3730412 167.777344,35.8789155 167.777344,34.0351562 L167.777344,33.390625 C167.777344,31.5390532 168.294917,30.0253965 169.330078,28.8496094 C170.36524,27.6738222 171.636711,27.0859375 173.144531,27.0859375 C174.730477,27.0859375 175.95898,27.5683546 176.830078,28.5332031 C177.701176,29.4980517 178.136719,30.8203041 178.136719,32.5 L178.136719,33.6953125 L169.183594,33.6953125 L169.183594,34.0351562 C169.183594,35.4882885 169.570309,36.6874953 170.34375,37.6328125 C171.117191,38.5781297 172.148431,39.0507812 173.4375,39.0507812 C174.210941,39.0507812 174.888669,38.9394542 175.470703,38.7167969 C176.052737,38.4941395 176.605466,38.1406274 177.128906,37.65625 L177.726562,38.6171875 C177.249998,39.11719 176.667972,39.5117173 175.980469,39.8007812 C175.292965,40.0898452 174.445318,40.234375 173.4375,40.234375 L173.4375,40.234375 Z M173.144531,28.28125 C172.089838,28.28125 171.212894,28.6738242 170.513672,29.4589844 C169.81445,30.2441446 169.38672,31.2617125 169.230469,32.5117188 L176.742188,32.5117188 L176.742188,32.1601562 C176.742188,31.0351506 176.425784,30.1074255 175.792969,29.3769531 C175.160153,28.6464807 174.277349,28.28125 173.144531,28.28125 L173.144531,28.28125 Z M196.464844,40 L195.058594,40 L195.058594,28.5273438 L188.226562,28.5273438 L188.226562,40 L186.820312,40 L186.820312,27.3203125 L196.464844,27.3203125 L196.464844,40 Z M199.453125,33.4726562 C199.453125,31.5663967 199.957026,30.0253965 200.964844,28.8496094 C201.972661,27.6738222 203.335929,27.0859375 205.054688,27.0859375 C206.781259,27.0859375 208.148432,27.6738222 209.15625,28.8496094 C210.164068,30.0253965 210.667969,31.5663967 210.667969,33.4726562 L210.667969,33.859375 C210.667969,35.7734471 210.166021,37.3144473 209.162109,38.4824219 C208.158198,39.6503965 206.796884,40.234375 205.078125,40.234375 C203.343741,40.234375 201.972661,39.6503965 200.964844,38.4824219 C199.957026,37.3144473 199.453125,35.7734471 199.453125,33.859375 L199.453125,33.4726562 Z M200.859375,33.859375 C200.859375,35.3593825 201.224606,36.5996045 201.955078,37.5800781 C202.685551,38.5605518 203.726556,39.0507812 205.078125,39.0507812 C206.414069,39.0507812 207.447262,38.5605518 208.177734,37.5800781 C208.908207,36.5996045 209.273438,35.3593825 209.273438,33.859375 L209.273438,33.4726562 C209.273438,32.0038989 208.904301,30.7714894 208.166016,29.7753906 C207.427731,28.7792919 206.390632,28.28125 205.054688,28.28125 C203.710931,28.28125 202.675785,28.7792919 201.949219,29.7753906 C201.222653,30.7714894 200.859375,32.0038989 200.859375,33.4726562 L200.859375,33.859375 Z M226.429688,38.1015625 L231.46875,27.3203125 L233.203125,27.3203125 L233.203125,40 L231.796875,40 L231.796875,29.6757812 L231.761719,29.6640625 L226.921875,40 L225.925781,40 L220.992188,29.4296875 L220.957031,29.4414062 L220.957031,40 L219.5625,40 L219.5625,27.3203125 L221.402344,27.3203125 L226.429688,38.1015625 Z M241.863281,40.234375 C240.175773,40.234375 238.810552,39.6621151 237.767578,38.5175781 C236.724604,37.3730412 236.203125,35.8789155 236.203125,34.0351562 L236.203125,33.390625 C236.203125,31.5390532 236.720698,30.0253965 237.755859,28.8496094 C238.791021,27.6738222 240.062492,27.0859375 241.570312,27.0859375 C243.156258,27.0859375 244.384761,27.5683546 245.255859,28.5332031 C246.126957,29.4980517 246.5625,30.8203041 246.5625,32.5 L246.5625,33.6953125 L237.609375,33.6953125 L237.609375,34.0351562 C237.609375,35.4882885 237.99609,36.6874953 238.769531,37.6328125 C239.542973,38.5781297 240.574212,39.0507812 241.863281,39.0507812 C242.636723,39.0507812 243.31445,38.9394542 243.896484,38.7167969 C244.478519,38.4941395 245.031247,38.1406274 245.554688,37.65625 L246.152344,38.6171875 C245.675779,39.11719 245.093753,39.5117173 244.40625,39.8007812 C243.718747,40.0898452 242.871099,40.234375 241.863281,40.234375 L241.863281,40.234375 Z M241.570312,28.28125 C240.51562,28.28125 239.638675,28.6738242 238.939453,29.4589844 C238.240231,30.2441446 237.812501,31.2617125 237.65625,32.5117188 L245.167969,32.5117188 L245.167969,32.1601562 C245.167969,31.0351506 244.851566,30.1074255 244.21875,29.3769531 C243.585934,28.6464807 242.703131,28.28125 241.570312,28.28125 L241.570312,28.28125 Z M254.039062,39.0507812 C254.992192,39.0507812 255.806637,38.7929713 256.482422,38.2773438 C257.158207,37.7617162 257.519531,37.0312547 257.566406,36.0859375 L258.914062,36.0859375 C258.875,37.3046936 258.386723,38.3007774 257.449219,39.0742188 C256.511714,39.8476601 255.375007,40.234375 254.039062,40.234375 C252.281241,40.234375 250.939458,39.6543027 250.013672,38.4941406 C249.087886,37.3339786 248.625,35.804697 248.625,33.90625 L248.625,33.4140625 C248.625,31.5312406 249.087886,30.0058652 250.013672,28.8378906 C250.939458,27.669916 252.277335,27.0859375 254.027344,27.0859375 C255.433601,27.0859375 256.589839,27.4921834 257.496094,28.3046875 C258.402348,29.1171916 258.875,30.2148368 258.914062,31.5976562 L257.566406,31.5976562 C257.527344,30.5820262 257.175785,29.7753936 256.511719,29.1777344 C255.847653,28.5800751 255.019536,28.28125 254.027344,28.28125 C252.636712,28.28125 251.62305,28.7617139 250.986328,29.7226562 C250.349606,30.6835986 250.03125,31.914055 250.03125,33.4140625 L250.03125,33.90625 C250.03125,35.4375077 250.349606,36.6777296 250.986328,37.6269531 C251.62305,38.5761766 252.640618,39.0507812 254.039062,39.0507812 L254.039062,39.0507812 Z M270.855469,28.515625 L266.238281,28.515625 L266.238281,40 L264.832031,40 L264.832031,28.515625 L260.390625,28.515625 L260.390625,27.3203125 L270.855469,27.3203125 L270.855469,28.515625 Z M271.898438,33.4726562 C271.898438,31.5663967 272.402339,30.0253965 273.410156,28.8496094 C274.417974,27.6738222 275.781241,27.0859375 277.5,27.0859375 C279.226571,27.0859375 280.593745,27.6738222 281.601562,28.8496094 C282.60938,30.0253965 283.113281,31.5663967 283.113281,33.4726562 L283.113281,33.859375 C283.113281,35.7734471 282.611333,37.3144473 281.607422,38.4824219 C280.603511,39.6503965 279.242196,40.234375 277.523438,40.234375 C275.789054,40.234375 274.417974,39.6503965 273.410156,38.4824219 C272.402339,37.3144473 271.898438,35.7734471 271.898438,33.859375 L271.898438,33.4726562 Z M273.304688,33.859375 C273.304688,35.3593825 273.669918,36.5996045 274.400391,37.5800781 C275.130863,38.5605518 276.171868,39.0507812 277.523438,39.0507812 C278.859382,39.0507812 279.892574,38.5605518 280.623047,37.5800781 C281.353519,36.5996045 281.71875,35.3593825 281.71875,33.859375 L281.71875,33.4726562 C281.71875,32.0038989 281.349613,30.7714894 280.611328,29.7753906 C279.873043,28.7792919 278.835944,28.28125 277.5,28.28125 C276.156243,28.28125 275.121097,28.7792919 274.394531,29.7753906 C273.667965,30.7714894 273.304688,32.0038989 273.304688,33.4726562 L273.304688,33.859375 Z M296.25,34.0117188 C296.25,35.9414159 295.828129,37.460932 294.984375,38.5703125 C294.140621,39.679693 292.949226,40.234375 291.410156,40.234375 C290.503902,40.234375 289.724613,40.0722672 289.072266,39.7480469 C288.419919,39.4238265 287.886721,38.9531281 287.472656,38.3359375 L287.4375,38.3476562 L287.4375,44.875 L286.03125,44.875 L286.03125,27.3203125 L287.214844,27.3203125 L287.390625,29.2304688 L287.414062,29.2421875 C287.83594,28.5468715 288.373044,28.0136737 289.025391,27.6425781 C289.677738,27.2714825 290.464839,27.0859375 291.386719,27.0859375 C292.941414,27.0859375 294.140621,27.6816347 294.984375,28.8730469 C295.828129,30.0644591 296.25,31.6953021 296.25,33.765625 L296.25,34.0117188 Z M294.84375,33.765625 C294.84375,32.1249918 294.5293,30.8046925 293.900391,29.8046875 C293.271481,28.8046825 292.328131,28.3046875 291.070312,28.3046875 C290.10937,28.3046875 289.339847,28.5253884 288.761719,28.9667969 C288.183591,29.4082053 287.742189,29.9960901 287.4375,30.7304688 L287.4375,36.8125 C287.765627,37.5234411 288.22656,38.0742168 288.820312,38.4648438 C289.414065,38.8554707 290.17187,39.0507812 291.09375,39.0507812 C292.343756,39.0507812 293.281247,38.5996139 293.90625,37.6972656 C294.531253,36.7949174 294.84375,35.566414 294.84375,34.0117188 L294.84375,33.765625 Z M298.617188,33.4726562 C298.617188,31.5663967 299.121089,30.0253965 300.128906,28.8496094 C301.136724,27.6738222 302.499991,27.0859375 304.21875,27.0859375 C305.945321,27.0859375 307.312495,27.6738222 308.320312,28.8496094 C309.32813,30.0253965 309.832031,31.5663967 309.832031,33.4726562 L309.832031,33.859375 C309.832031,35.7734471 309.330083,37.3144473 308.326172,38.4824219 C307.322261,39.6503965 305.960946,40.234375 304.242188,40.234375 C302.507804,40.234375 301.136724,39.6503965 300.128906,38.4824219 C299.121089,37.3144473 298.617188,35.7734471 298.617188,33.859375 L298.617188,33.4726562 Z M300.023438,33.859375 C300.023438,35.3593825 300.388668,36.5996045 301.119141,37.5800781 C301.849613,38.5605518 302.890618,39.0507812 304.242188,39.0507812 C305.578132,39.0507812 306.611324,38.5605518 307.341797,37.5800781 C308.072269,36.5996045 308.4375,35.3593825 308.4375,33.859375 L308.4375,33.4726562 C308.4375,32.0038989 308.068363,30.7714894 307.330078,29.7753906 C306.591793,28.7792919 305.554694,28.28125 304.21875,28.28125 C302.874993,28.28125 301.839847,28.7792919 301.113281,29.7753906 C300.386715,30.7714894 300.023438,32.0038989 300.023438,33.4726562 L300.023438,33.859375 Z M322.183594,34.140625 L320.496094,34.140625 L320.496094,40 L319.089844,40 L319.089844,34.140625 L317.414062,34.140625 L312.726562,40 L310.945312,40 L316.242188,33.4257812 L311.53125,27.3203125 L313.230469,27.3203125 L317.390625,32.8867188 L319.089844,32.8867188 L319.089844,27.3203125 L320.496094,27.3203125 L320.496094,32.8867188 L322.207031,32.8867188 L326.367188,27.3203125 L328.089844,27.3203125 L323.355469,33.4375 L328.664062,40 L326.871094,40 L322.183594,34.140625 Z M330.609375,38.8164062 C331.296878,37.957027 331.835936,37.0781295 332.226562,36.1796875 C332.617189,35.2812455 332.855468,33.8554785 332.941406,31.9023438 L333.152344,27.3203125 L340.640625,27.3203125 L340.640625,38.8164062 L341.953125,38.8164062 L341.953125,43.7265625 L340.558594,43.7265625 L340.558594,40 L331.03125,40 L331.03125,43.7265625 L329.683594,43.7265625 L329.695312,38.8164062 L330.609375,38.8164062 Z M334.335938,31.9023438 C334.265625,33.5898522 334.046877,34.9804633 333.679688,36.0742188 C333.312498,37.1679742 332.828128,38.0820276 332.226562,38.8164062 L339.234375,38.8164062 L339.234375,28.6328125 L334.488281,28.6328125 L334.335938,31.9023438 Z M349.570312,40.234375 C347.882804,40.234375 346.517583,39.6621151 345.474609,38.5175781 C344.431635,37.3730412 343.910156,35.8789155 343.910156,34.0351562 L343.910156,33.390625 C343.910156,31.5390532 344.427729,30.0253965 345.462891,28.8496094 C346.498052,27.6738222 347.769524,27.0859375 349.277344,27.0859375 C350.863289,27.0859375 352.091793,27.5683546 352.962891,28.5332031 C353.833989,29.4980517 354.269531,30.8203041 354.269531,32.5 L354.269531,33.6953125 L345.316406,33.6953125 L345.316406,34.0351562 C345.316406,35.4882885 345.703121,36.6874953 346.476562,37.6328125 C347.250004,38.5781297 348.281244,39.0507812 349.570312,39.0507812 C350.343754,39.0507812 351.021481,38.9394542 351.603516,38.7167969 C352.18555,38.4941395 352.738279,38.1406274 353.261719,37.65625 L353.859375,38.6171875 C353.38281,39.11719 352.800785,39.5117173 352.113281,39.8007812 C351.425778,40.0898452 350.57813,40.234375 349.570312,40.234375 L349.570312,40.234375 Z M349.277344,28.28125 C348.222651,28.28125 347.345707,28.6738242 346.646484,29.4589844 C345.947262,30.2441446 345.519532,31.2617125 345.363281,32.5117188 L352.875,32.5117188 L352.875,32.1601562 C352.875,31.0351506 352.558597,30.1074255 351.925781,29.3769531 C351.292966,28.6464807 350.410162,28.28125 349.277344,28.28125 L349.277344,28.28125 Z M366.761719,40 L365.355469,40 L365.355469,34.1875 L358.523438,34.1875 L358.523438,40 L357.117188,40 L357.117188,27.3203125 L358.523438,27.3203125 L358.523438,33.0039062 L365.355469,33.0039062 L365.355469,27.3203125 L366.761719,27.3203125 L366.761719,40 Z M378.84375,27.3203125 L380.25,27.3203125 L380.25,40 L378.84375,40 L378.84375,29.5820312 L378.808594,29.5703125 L372,40 L370.605469,40 L370.605469,27.3203125 L372,27.3203125 L372,37.7382812 L372.035156,37.75 L378.84375,27.3203125 Z M385.558594,33.0976562 L389.191406,33.0976562 C389.261719,31.2929597 389.794917,29.8398493 390.791016,28.7382812 C391.787114,27.6367132 393.117179,27.0859375 394.78125,27.0859375 C396.507821,27.0859375 397.874995,27.6738222 398.882812,28.8496094 C399.89063,30.0253965 400.394531,31.5663967 400.394531,33.4726562 L400.394531,33.859375 C400.394531,35.7734471 399.892583,37.3144473 398.888672,38.4824219 C397.884761,39.6503965 396.523446,40.234375 394.804688,40.234375 C393.140617,40.234375 391.808599,39.6933648 390.808594,38.6113281 C389.808589,37.5292915 389.269532,36.0859465 389.191406,34.28125 L385.558594,34.28125 L385.558594,40 L384.152344,40 L384.152344,27.3203125 L385.558594,27.3203125 L385.558594,33.0976562 Z M390.585938,33.859375 C390.585938,35.3593825 390.951168,36.5996045 391.681641,37.5800781 C392.412113,38.5605518 393.453118,39.0507812 394.804688,39.0507812 C396.140632,39.0507812 397.173824,38.5605518 397.904297,37.5800781 C398.634769,36.5996045 399,35.3593825 399,33.859375 L399,33.4726562 C399,32.0038989 398.630863,30.7714894 397.892578,29.7753906 C397.154293,28.7792919 396.117194,28.28125 394.78125,28.28125 C393.437493,28.28125 392.402347,28.7792919 391.675781,29.7753906 C390.949215,30.7714894 390.585938,32.0038989 390.585938,33.4726562 L390.585938,33.859375 Z M404.859375,39.4375 C404.859375,40.1718787 404.714845,40.8749966 404.425781,41.546875 C404.136717,42.2187534 403.734378,42.8007788 403.21875,43.2929688 L402.386719,42.6835938 C402.761721,42.1601536 403.035155,41.64844 403.207031,41.1484375 C403.378907,40.648435 403.464844,40.0859406 403.464844,39.4609375 L403.464844,37.796875 L404.859375,37.796875 L404.859375,39.4375 Z M418.664062,39.0507812 C419.617192,39.0507812 420.431637,38.7929713 421.107422,38.2773438 C421.783207,37.7617162 422.144531,37.0312547 422.191406,36.0859375 L423.539062,36.0859375 C423.5,37.3046936 423.011723,38.3007774 422.074219,39.0742188 C421.136714,39.8476601 420.000007,40.234375 418.664062,40.234375 C416.906241,40.234375 415.564458,39.6543027 414.638672,38.4941406 C413.712886,37.3339786 413.25,35.804697 413.25,33.90625 L413.25,33.4140625 C413.25,31.5312406 413.712886,30.0058652 414.638672,28.8378906 C415.564458,27.669916 416.902335,27.0859375 418.652344,27.0859375 C420.058601,27.0859375 421.214839,27.4921834 422.121094,28.3046875 C423.027348,29.1171916 423.5,30.2148368 423.539062,31.5976562 L422.191406,31.5976562 C422.152344,30.5820262 421.800785,29.7753936 421.136719,29.1777344 C420.472653,28.5800751 419.644536,28.28125 418.652344,28.28125 C417.261712,28.28125 416.24805,28.7617139 415.611328,29.7226562 C414.974606,30.6835986 414.65625,31.914055 414.65625,33.4140625 L414.65625,33.90625 C414.65625,35.4375077 414.974606,36.6777296 415.611328,37.6269531 C416.24805,38.5761766 417.265618,39.0507812 418.664062,39.0507812 L418.664062,39.0507812 Z M435.65625,34.1875 L433.710938,34.1875 L433.710938,40 L432.292969,40 L432.292969,27.3203125 L433.710938,27.3203125 L433.710938,32.9453125 L435.632812,32.9453125 L440.285156,27.3203125 L442.054688,27.3203125 L436.851562,33.4726562 L442.628906,40 L440.777344,40 L435.65625,34.1875 Z M443.636719,33.4726562 C443.636719,31.5663967 444.14062,30.0253965 445.148438,28.8496094 C446.156255,27.6738222 447.519523,27.0859375 449.238281,27.0859375 C450.964852,27.0859375 452.332026,27.6738222 453.339844,28.8496094 C454.347661,30.0253965 454.851562,31.5663967 454.851562,33.4726562 L454.851562,33.859375 C454.851562,35.7734471 454.349614,37.3144473 453.345703,38.4824219 C452.341792,39.6503965 450.980477,40.234375 449.261719,40.234375 C447.527335,40.234375 446.156255,39.6503965 445.148438,38.4824219 C444.14062,37.3144473 443.636719,35.7734471 443.636719,33.859375 L443.636719,33.4726562 Z M445.042969,33.859375 C445.042969,35.3593825 445.408199,36.5996045 446.138672,37.5800781 C446.869144,38.5605518 447.910149,39.0507812 449.261719,39.0507812 C450.597663,39.0507812 451.630856,38.5605518 452.361328,37.5800781 C453.091801,36.5996045 453.457031,35.3593825 453.457031,33.859375 L453.457031,33.4726562 C453.457031,32.0038989 453.087894,30.7714894 452.349609,29.7753906 C451.611324,28.7792919 450.574225,28.28125 449.238281,28.28125 C447.894525,28.28125 446.859379,28.7792919 446.132812,29.7753906 C445.406246,30.7714894 445.042969,32.0038989 445.042969,33.4726562 L445.042969,33.859375 Z M466.605469,28.515625 L461.988281,28.515625 L461.988281,40 L460.582031,40 L460.582031,28.515625 L456.140625,28.515625 L456.140625,27.3203125 L466.605469,27.3203125 L466.605469,28.515625 Z M467.648438,33.4726562 C467.648438,31.5663967 468.152339,30.0253965 469.160156,28.8496094 C470.167974,27.6738222 471.531241,27.0859375 473.25,27.0859375 C474.976571,27.0859375 476.343745,27.6738222 477.351562,28.8496094 C478.35938,30.0253965 478.863281,31.5663967 478.863281,33.4726562 L478.863281,33.859375 C478.863281,35.7734471 478.361333,37.3144473 477.357422,38.4824219 C476.353511,39.6503965 474.992196,40.234375 473.273438,40.234375 C471.539054,40.234375 470.167974,39.6503965 469.160156,38.4824219 C468.152339,37.3144473 467.648438,35.7734471 467.648438,33.859375 L467.648438,33.4726562 Z M469.054688,33.859375 C469.054688,35.3593825 469.419918,36.5996045 470.150391,37.5800781 C470.880863,38.5605518 471.921868,39.0507812 473.273438,39.0507812 C474.609382,39.0507812 475.642574,38.5605518 476.373047,37.5800781 C477.103519,36.5996045 477.46875,35.3593825 477.46875,33.859375 L477.46875,33.4726562 C477.46875,32.0038989 477.099613,30.7714894 476.361328,29.7753906 C475.623043,28.7792919 474.585944,28.28125 473.25,28.28125 C471.906243,28.28125 470.871097,28.7792919 470.144531,29.7753906 C469.417965,30.7714894 469.054688,32.0038989 469.054688,33.4726562 L469.054688,33.859375 Z M492,34.0117188 C492,35.9414159 491.578129,37.460932 490.734375,38.5703125 C489.890621,39.679693 488.699226,40.234375 487.160156,40.234375 C486.253902,40.234375 485.474613,40.0722672 484.822266,39.7480469 C484.169919,39.4238265 483.636721,38.9531281 483.222656,38.3359375 L483.1875,38.3476562 L483.1875,44.875 L481.78125,44.875 L481.78125,27.3203125 L482.964844,27.3203125 L483.140625,29.2304688 L483.164062,29.2421875 C483.58594,28.5468715 484.123044,28.0136737 484.775391,27.6425781 C485.427738,27.2714825 486.214839,27.0859375 487.136719,27.0859375 C488.691414,27.0859375 489.890621,27.6816347 490.734375,28.8730469 C491.578129,30.0644591 492,31.6953021 492,33.765625 L492,34.0117188 Z M490.59375,33.765625 C490.59375,32.1249918 490.2793,30.8046925 489.650391,29.8046875 C489.021481,28.8046825 488.078131,28.3046875 486.820312,28.3046875 C485.85937,28.3046875 485.089847,28.5253884 484.511719,28.9667969 C483.933591,29.4082053 483.492189,29.9960901 483.1875,30.7304688 L483.1875,36.8125 C483.515627,37.5234411 483.97656,38.0742168 484.570312,38.4648438 C485.164065,38.8554707 485.92187,39.0507812 486.84375,39.0507812 C488.093756,39.0507812 489.031247,38.5996139 489.65625,37.6972656 C490.281253,36.7949174 490.59375,35.566414 490.59375,34.0117188 L490.59375,33.765625 Z M494.367188,33.4726562 C494.367188,31.5663967 494.871089,30.0253965 495.878906,28.8496094 C496.886724,27.6738222 498.249991,27.0859375 499.96875,27.0859375 C501.695321,27.0859375 503.062495,27.6738222 504.070312,28.8496094 C505.07813,30.0253965 505.582031,31.5663967 505.582031,33.4726562 L505.582031,33.859375 C505.582031,35.7734471 505.080083,37.3144473 504.076172,38.4824219 C503.072261,39.6503965 501.710946,40.234375 499.992188,40.234375 C498.257804,40.234375 496.886724,39.6503965 495.878906,38.4824219 C494.871089,37.3144473 494.367188,35.7734471 494.367188,33.859375 L494.367188,33.4726562 Z M495.773438,33.859375 C495.773438,35.3593825 496.138668,36.5996045 496.869141,37.5800781 C497.599613,38.5605518 498.640618,39.0507812 499.992188,39.0507812 C501.328132,39.0507812 502.361324,38.5605518 503.091797,37.5800781 C503.822269,36.5996045 504.1875,35.3593825 504.1875,33.859375 L504.1875,33.4726562 C504.1875,32.0038989 503.818363,30.7714894 503.080078,29.7753906 C502.341793,28.7792919 501.304694,28.28125 499.96875,28.28125 C498.624993,28.28125 497.589847,28.7792919 496.863281,29.7753906 C496.136715,30.7714894 495.773438,32.0038989 495.773438,33.4726562 L495.773438,33.859375 Z M516.386719,28.5273438 L509.976562,28.5273438 L509.976562,40 L508.570312,40 L508.570312,27.3203125 L516.386719,27.3203125 L516.386719,28.5273438 Z M517.605469,33.4726562 C517.605469,31.5663967 518.10937,30.0253965 519.117188,28.8496094 C520.125005,27.6738222 521.488273,27.0859375 523.207031,27.0859375 C524.933602,27.0859375 526.300776,27.6738222 527.308594,28.8496094 C528.316411,30.0253965 528.820312,31.5663967 528.820312,33.4726562 L528.820312,33.859375 C528.820312,35.7734471 528.318364,37.3144473 527.314453,38.4824219 C526.310542,39.6503965 524.949227,40.234375 523.230469,40.234375 C521.496085,40.234375 520.125005,39.6503965 519.117188,38.4824219 C518.10937,37.3144473 517.605469,35.7734471 517.605469,33.859375 L517.605469,33.4726562 Z M519.011719,33.859375 C519.011719,35.3593825 519.376949,36.5996045 520.107422,37.5800781 C520.837894,38.5605518 521.878899,39.0507812 523.230469,39.0507812 C524.566413,39.0507812 525.599606,38.5605518 526.330078,37.5800781 C527.060551,36.5996045 527.425781,35.3593825 527.425781,33.859375 L527.425781,33.4726562 C527.425781,32.0038989 527.056644,30.7714894 526.318359,29.7753906 C525.580074,28.7792919 524.542975,28.28125 523.207031,28.28125 C521.863275,28.28125 520.828129,28.7792919 520.101562,29.7753906 C519.374996,30.7714894 519.011719,32.0038989 519.011719,33.4726562 L519.011719,33.859375 Z M547.300781,40 L545.894531,40 L545.894531,34.1875 L539.0625,34.1875 L539.0625,40 L537.65625,40 L537.65625,27.3203125 L539.0625,27.3203125 L539.0625,33.0039062 L545.894531,33.0039062 L545.894531,27.3203125 L547.300781,27.3203125 L547.300781,40 Z M559.101562,40 C559.007812,39.5624978 558.941406,39.195314 558.902344,38.8984375 C558.863281,38.601561 558.84375,38.3007828 558.84375,37.9960938 L558.808594,37.984375 C558.347654,38.6406283 557.734379,39.1796854 556.96875,39.6015625 C556.203121,40.0234396 555.324224,40.234375 554.332031,40.234375 C553.074212,40.234375 552.109378,39.9140657 551.4375,39.2734375 C550.765622,38.6328093 550.429688,37.7500056 550.429688,36.625 C550.429688,35.4296815 550.927729,34.4863316 551.923828,33.7949219 C552.919927,33.1035122 554.29296,32.7578125 556.042969,32.7578125 L558.84375,32.7578125 L558.84375,31.1875 C558.84375,30.2656204 558.556643,29.5507838 557.982422,29.0429688 C557.4082,28.5351537 556.589849,28.28125 555.527344,28.28125 C554.527339,28.28125 553.710941,28.5253882 553.078125,29.0136719 C552.445309,29.5019556 552.128906,30.1054652 552.128906,30.8242188 L550.734375,30.8125 C550.734375,29.812495 551.185542,28.94141 552.087891,28.1992188 C552.990239,27.4570275 554.156243,27.0859375 555.585938,27.0859375 C557.015632,27.0859375 558.148433,27.4355434 558.984375,28.1347656 C559.820317,28.8339879 560.238281,29.8593682 560.238281,31.2109375 L560.238281,37.4453125 C560.238281,37.8984398 560.261719,38.3320292 560.308594,38.7460938 C560.355469,39.1601583 560.441406,39.5781229 560.566406,40 L559.101562,40 Z M554.496094,39.0039062 C555.527349,39.0039062 556.423824,38.7714867 557.185547,38.3066406 C557.947269,37.8417946 558.499998,37.2343787 558.84375,36.484375 L558.84375,33.8359375 L556.019531,33.8359375 C554.72265,33.8359375 553.699223,34.1035129 552.949219,34.6386719 C552.199215,35.1738308 551.824219,35.8515584 551.824219,36.671875 C551.824219,37.367191 552.056638,37.9296854 552.521484,38.359375 C552.98633,38.7890646 553.644527,39.0039062 554.496094,39.0039062 L554.496094,39.0039062 Z M572.976562,40 L571.570312,40 L571.570312,34.6679688 C571.023435,34.8632822 570.470706,35.0175776 569.912109,35.1308594 C569.353513,35.2441412 568.800784,35.3007812 568.253906,35.3007812 C566.589835,35.3007812 565.367191,34.9433629 564.585938,34.2285156 C563.804684,33.5136683 563.414062,32.2812588 563.414062,30.53125 L563.414062,27.3203125 L564.808594,27.3203125 L564.808594,30.53125 C564.808594,31.8828193 565.072263,32.8144506 565.599609,33.3261719 C566.126956,33.8378932 567.011713,34.09375 568.253906,34.09375 C568.824222,34.0859375 569.394528,34.0273443 569.964844,33.9179688 C570.535159,33.8085932 571.07031,33.6640634 571.570312,33.484375 L571.570312,27.3203125 L572.976562,27.3203125 L572.976562,40 Z M584.777344,40 C584.683593,39.5624978 584.617188,39.195314 584.578125,38.8984375 C584.539062,38.601561 584.519531,38.3007828 584.519531,37.9960938 L584.484375,37.984375 C584.023435,38.6406283 583.41016,39.1796854 582.644531,39.6015625 C581.878902,40.0234396 581.000005,40.234375 580.007812,40.234375 C578.749994,40.234375 577.78516,39.9140657 577.113281,39.2734375 C576.441403,38.6328093 576.105469,37.7500056 576.105469,36.625 C576.105469,35.4296815 576.603511,34.4863316 577.599609,33.7949219 C578.595708,33.1035122 579.968741,32.7578125 581.71875,32.7578125 L584.519531,32.7578125 L584.519531,31.1875 C584.519531,30.2656204 584.232425,29.5507838 583.658203,29.0429688 C583.083982,28.5351537 582.26563,28.28125 581.203125,28.28125 C580.20312,28.28125 579.386722,28.5253882 578.753906,29.0136719 C578.121091,29.5019556 577.804688,30.1054652 577.804688,30.8242188 L576.410156,30.8125 C576.410156,29.812495 576.861324,28.94141 577.763672,28.1992188 C578.66602,27.4570275 579.832024,27.0859375 581.261719,27.0859375 C582.691413,27.0859375 583.824215,27.4355434 584.660156,28.1347656 C585.496098,28.8339879 585.914062,29.8593682 585.914062,31.2109375 L585.914062,37.4453125 C585.914062,37.8984398 585.9375,38.3320292 585.984375,38.7460938 C586.03125,39.1601583 586.117187,39.5781229 586.242188,40 L584.777344,40 Z M580.171875,39.0039062 C581.20313,39.0039062 582.099606,38.7714867 582.861328,38.3066406 C583.623051,37.8417946 584.17578,37.2343787 584.519531,36.484375 L584.519531,33.8359375 L581.695312,33.8359375 C580.398431,33.8359375 579.375004,34.1035129 578.625,34.6386719 C577.874996,35.1738308 577.5,35.8515584 577.5,36.671875 C577.5,37.367191 577.73242,37.9296854 578.197266,38.359375 C578.662112,38.7890646 579.320308,39.0039062 580.171875,39.0039062 L580.171875,39.0039062 Z M599.378906,27.3203125 L599.378906,40 L597.972656,40 L597.972656,28.5273438 L592.78125,28.5273438 L592.605469,32.921875 C592.488281,35.5234505 592.167971,37.3535103 591.644531,38.4121094 C591.121091,39.4707084 590.171882,40 588.796875,40 L588.292969,40 L588.316406,38.7460938 L588.75,38.734375 C589.601567,38.734375 590.197264,38.3281291 590.537109,37.515625 C590.876955,36.7031209 591.097656,35.1718862 591.199219,32.921875 L591.433594,27.3203125 L599.378906,27.3203125 Z M611.191406,40 C611.097656,39.5624978 611.03125,39.195314 610.992188,38.8984375 C610.953125,38.601561 610.933594,38.3007828 610.933594,37.9960938 L610.898438,37.984375 C610.437498,38.6406283 609.824223,39.1796854 609.058594,39.6015625 C608.292965,40.0234396 607.414067,40.234375 606.421875,40.234375 C605.164056,40.234375 604.199222,39.9140657 603.527344,39.2734375 C602.855465,38.6328093 602.519531,37.7500056 602.519531,36.625 C602.519531,35.4296815 603.017573,34.4863316 604.013672,33.7949219 C605.009771,33.1035122 606.382804,32.7578125 608.132812,32.7578125 L610.933594,32.7578125 L610.933594,31.1875 C610.933594,30.2656204 610.646487,29.5507838 610.072266,29.0429688 C609.498044,28.5351537 608.679693,28.28125 607.617188,28.28125 C606.617183,28.28125 605.800784,28.5253882 605.167969,29.0136719 C604.535153,29.5019556 604.21875,30.1054652 604.21875,30.8242188 L602.824219,30.8125 C602.824219,29.812495 603.275386,28.94141 604.177734,28.1992188 C605.080083,27.4570275 606.246087,27.0859375 607.675781,27.0859375 C609.105476,27.0859375 610.238277,27.4355434 611.074219,28.1347656 C611.91016,28.8339879 612.328125,29.8593682 612.328125,31.2109375 L612.328125,37.4453125 C612.328125,37.8984398 612.351562,38.3320292 612.398438,38.7460938 C612.445313,39.1601583 612.531249,39.5781229 612.65625,40 L611.191406,40 Z M606.585938,39.0039062 C607.617193,39.0039062 608.513668,38.7714867 609.275391,38.3066406 C610.037113,37.8417946 610.589842,37.2343787 610.933594,36.484375 L610.933594,33.8359375 L608.109375,33.8359375 C606.812494,33.8359375 605.789066,34.1035129 605.039062,34.6386719 C604.289059,35.1738308 603.914062,35.8515584 603.914062,36.671875 C603.914062,37.367191 604.146482,37.9296854 604.611328,38.359375 C605.076174,38.7890646 605.734371,39.0039062 606.585938,39.0039062 L606.585938,39.0039062 Z M620.765625,39.0507812 C621.718755,39.0507812 622.5332,38.7929713 623.208984,38.2773438 C623.884769,37.7617162 624.246094,37.0312547 624.292969,36.0859375 L625.640625,36.0859375 C625.601562,37.3046936 625.113286,38.3007774 624.175781,39.0742188 C623.238277,39.8476601 622.101569,40.234375 620.765625,40.234375 C619.007804,40.234375 617.66602,39.6543027 616.740234,38.4941406 C615.814448,37.3339786 615.351562,35.804697 615.351562,33.90625 L615.351562,33.4140625 C615.351562,31.5312406 615.814448,30.0058652 616.740234,28.8378906 C617.66602,27.669916 619.003897,27.0859375 620.753906,27.0859375 C622.160163,27.0859375 623.316402,27.4921834 624.222656,28.3046875 C625.128911,29.1171916 625.601562,30.2148368 625.640625,31.5976562 L624.292969,31.5976562 C624.253906,30.5820262 623.902347,29.7753936 623.238281,29.1777344 C622.574215,28.5800751 621.746099,28.28125 620.753906,28.28125 C619.363274,28.28125 618.349613,28.7617139 617.712891,29.7226562 C617.076169,30.6835986 616.757812,31.914055 616.757812,33.4140625 L616.757812,33.90625 C616.757812,35.4375077 617.076169,36.6777296 617.712891,37.6269531 C618.349613,38.5761766 619.367181,39.0507812 620.765625,39.0507812 L620.765625,39.0507812 Z M630.023438,31.9257812 L633.65625,31.9257812 C635.148445,31.9257812 636.294918,32.2929651 637.095703,33.0273438 C637.896488,33.7617224 638.296875,34.7343689 638.296875,35.9453125 C638.296875,37.1640686 637.894535,38.1445275 637.089844,38.8867188 C636.285152,39.62891 635.140632,40 633.65625,40 L628.628906,40 L628.628906,27.3203125 L630.023438,27.3203125 L630.023438,31.9257812 Z M630.023438,33.1210938 L630.023438,38.8164062 L633.65625,38.8164062 C634.765631,38.8164062 635.582029,38.5488308 636.105469,38.0136719 C636.628909,37.4785129 636.890625,36.7968791 636.890625,35.96875 C636.890625,35.171871 636.626956,34.4980496 636.099609,33.9472656 C635.572263,33.3964816 634.757818,33.1210938 633.65625,33.1210938 L630.023438,33.1210938 Z M656.894531,40 L655.488281,40 L655.488281,34.1875 L648.65625,34.1875 L648.65625,40 L647.25,40 L647.25,27.3203125 L648.65625,27.3203125 L648.65625,33.0039062 L655.488281,33.0039062 L655.488281,27.3203125 L656.894531,27.3203125 L656.894531,40 Z M665.554688,40.234375 C663.867179,40.234375 662.501958,39.6621151 661.458984,38.5175781 C660.41601,37.3730412 659.894531,35.8789155 659.894531,34.0351562 L659.894531,33.390625 C659.894531,31.5390532 660.412104,30.0253965 661.447266,28.8496094 C662.482427,27.6738222 663.753899,27.0859375 665.261719,27.0859375 C666.847664,27.0859375 668.076168,27.5683546 668.947266,28.5332031 C669.818364,29.4980517 670.253906,30.8203041 670.253906,32.5 L670.253906,33.6953125 L661.300781,33.6953125 L661.300781,34.0351562 C661.300781,35.4882885 661.687496,36.6874953 662.460938,37.6328125 C663.234379,38.5781297 664.265619,39.0507812 665.554688,39.0507812 C666.328129,39.0507812 667.005856,38.9394542 667.587891,38.7167969 C668.169925,38.4941395 668.722654,38.1406274 669.246094,37.65625 L669.84375,38.6171875 C669.367185,39.11719 668.78516,39.5117173 668.097656,39.8007812 C667.410153,40.0898452 666.562505,40.234375 665.554688,40.234375 L665.554688,40.234375 Z M665.261719,28.28125 C664.207026,28.28125 663.330082,28.6738242 662.630859,29.4589844 C661.931637,30.2441446 661.503907,31.2617125 661.347656,32.5117188 L668.859375,32.5117188 L668.859375,32.1601562 C668.859375,31.0351506 668.542972,30.1074255 667.910156,29.3769531 C667.277341,28.6464807 666.394537,28.28125 665.261719,28.28125 L665.261719,28.28125 Z M672.480469,33.765625 C672.480469,31.6953021 672.873043,30.0644591 673.658203,28.8730469 C674.443363,27.6816347 675.574211,27.0859375 677.050781,27.0859375 C677.472658,27.0859375 677.855467,27.1347651 678.199219,27.2324219 C678.54297,27.3300786 678.855467,27.4648429 679.136719,27.6367188 L679.136719,21.71875 L680.53125,21.71875 L680.53125,27.6835938 C680.812501,27.4882803 681.126951,27.3398443 681.474609,27.2382812 C681.822267,27.1367182 682.22656,27.0859375 682.6875,27.0859375 C684.16407,27.0859375 685.296871,27.6816347 686.085938,28.8730469 C686.875004,30.0644591 687.269531,31.6953021 687.269531,33.765625 L687.269531,34.0117188 C687.269531,35.9492284 686.876957,37.4726507 686.091797,38.5820312 C685.306637,39.6914118 684.179695,40.2460938 682.710938,40.2460938 C682.25781,40.2460938 681.853517,40.1992192 681.498047,40.1054688 C681.142576,40.0117183 680.820314,39.8750009 680.53125,39.6953125 L680.53125,44.875 L679.136719,44.875 L679.136719,39.7070312 C678.847655,39.8867196 678.531252,40.0214839 678.1875,40.1113281 C677.843748,40.2011723 677.457033,40.2460938 677.027344,40.2460938 C675.566399,40.2460938 674.443363,39.6914118 673.658203,38.5820312 C672.873043,37.4726507 672.480469,35.9492284 672.480469,34.0117188 L672.480469,33.765625 Z M685.875,33.765625 C685.875,32.1171793 685.58594,30.7910206 685.007812,29.7871094 C684.429685,28.7831981 683.554693,28.28125 682.382812,28.28125 C681.94531,28.28125 681.578126,28.3281245 681.28125,28.421875 C680.984374,28.5156255 680.734376,28.6406242 680.53125,28.796875 L680.53125,38.6054688 C680.757814,38.7460945 681.021483,38.8574215 681.322266,38.9394531 C681.623048,39.0214848 681.984373,39.0625 682.40625,39.0625 C683.578131,39.0625 684.449216,38.6113326 685.019531,37.7089844 C685.589847,36.8066361 685.875,35.5742266 685.875,34.0117188 L685.875,33.765625 Z M673.886719,34.0117188 C673.886719,35.5820391 674.162107,36.8164018 674.712891,37.7148438 C675.263675,38.6132857 676.124994,39.0625 677.296875,39.0625 C677.695314,39.0625 678.042967,39.0195317 678.339844,38.9335938 C678.63672,38.8476558 678.902343,38.7304695 679.136719,38.5820312 L679.136719,28.7617188 C678.92578,28.6132805 678.67383,28.4960942 678.380859,28.4101562 C678.087889,28.3242183 677.734377,28.28125 677.320312,28.28125 C676.148432,28.28125 675.283206,28.781245 674.724609,29.78125 C674.166013,30.781255 673.886719,32.1093667 673.886719,33.765625 L673.886719,34.0117188 Z M698.566406,28.515625 L693.949219,28.515625 L693.949219,40 L692.542969,40 L692.542969,28.515625 L688.101562,28.515625 L688.101562,27.3203125 L698.566406,27.3203125 L698.566406,28.515625 Z M704.835938,40.234375 C703.148429,40.234375 701.783208,39.6621151 700.740234,38.5175781 C699.69726,37.3730412 699.175781,35.8789155 699.175781,34.0351562 L699.175781,33.390625 C699.175781,31.5390532 699.693354,30.0253965 700.728516,28.8496094 C701.763677,27.6738222 703.035149,27.0859375 704.542969,27.0859375 C706.128914,27.0859375 707.357418,27.5683546 708.228516,28.5332031 C709.099614,29.4980517 709.535156,30.8203041 709.535156,32.5 L709.535156,33.6953125 L700.582031,33.6953125 L700.582031,34.0351562 C700.582031,35.4882885 700.968746,36.6874953 701.742188,37.6328125 C702.515629,38.5781297 703.546869,39.0507812 704.835938,39.0507812 C705.609379,39.0507812 706.287106,38.9394542 706.869141,38.7167969 C707.451175,38.4941395 708.003904,38.1406274 708.527344,37.65625 L709.125,38.6171875 C708.648435,39.11719 708.06641,39.5117173 707.378906,39.8007812 C706.691403,40.0898452 705.843755,40.234375 704.835938,40.234375 L704.835938,40.234375 Z M704.542969,28.28125 C703.488276,28.28125 702.611332,28.6738242 701.912109,29.4589844 C701.212887,30.2441446 700.785157,31.2617125 700.628906,32.5117188 L708.140625,32.5117188 L708.140625,32.1601562 C708.140625,31.0351506 707.824222,30.1074255 707.191406,29.3769531 C706.558591,28.6464807 705.675787,28.28125 704.542969,28.28125 L704.542969,28.28125 Z M711.996094,38.8164062 C712.683597,37.957027 713.222654,37.0781295 713.613281,36.1796875 C714.003908,35.2812455 714.242187,33.8554785 714.328125,31.9023438 L714.539062,27.3203125 L722.027344,27.3203125 L722.027344,38.8164062 L723.339844,38.8164062 L723.339844,43.7265625 L721.945312,43.7265625 L721.945312,40 L712.417969,40 L712.417969,43.7265625 L711.070312,43.7265625 L711.082031,38.8164062 L711.996094,38.8164062 Z M715.722656,31.9023438 C715.652343,33.5898522 715.433596,34.9804633 715.066406,36.0742188 C714.699217,37.1679742 714.214847,38.0820276 713.613281,38.8164062 L720.621094,38.8164062 L720.621094,28.6328125 L715.875,28.6328125 L715.722656,31.9023438 Z M725.285156,33.4726562 C725.285156,31.5663967 725.789057,30.0253965 726.796875,28.8496094 C727.804693,27.6738222 729.16796,27.0859375 730.886719,27.0859375 C732.61329,27.0859375 733.980464,27.6738222 734.988281,28.8496094 C735.996099,30.0253965 736.5,31.5663967 736.5,33.4726562 L736.5,33.859375 C736.5,35.7734471 735.998052,37.3144473 734.994141,38.4824219 C733.990229,39.6503965 732.628915,40.234375 730.910156,40.234375 C729.175773,40.234375 727.804693,39.6503965 726.796875,38.4824219 C725.789057,37.3144473 725.285156,35.7734471 725.285156,33.859375 L725.285156,33.4726562 Z M726.691406,33.859375 C726.691406,35.3593825 727.056637,36.5996045 727.787109,37.5800781 C728.517582,38.5605518 729.558587,39.0507812 730.910156,39.0507812 C732.2461,39.0507812 733.279293,38.5605518 734.009766,37.5800781 C734.740238,36.5996045 735.105469,35.3593825 735.105469,33.859375 L735.105469,33.4726562 C735.105469,32.0038989 734.736332,30.7714894 733.998047,29.7753906 C733.259762,28.7792919 732.222663,28.28125 730.886719,28.28125 C729.542962,28.28125 728.507816,28.7792919 727.78125,29.7753906 C727.054684,30.7714894 726.691406,32.0038989 726.691406,33.4726562 L726.691406,33.859375 Z M744.515625,28.1640625 C746.179696,28.1640625 747.498042,28.6855417 748.470703,29.7285156 C749.443364,30.7714896 749.929688,32.1406165 749.929688,33.8359375 L749.929688,34.2226562 C749.929688,36.0273528 749.427739,37.4824163 748.423828,38.5878906 C747.419917,39.6933649 746.054696,40.2460938 744.328125,40.2460938 C742.601554,40.2460938 741.23438,39.6933649 740.226562,38.5878906 C739.218745,37.4824163 738.714844,36.0273528 738.714844,34.2226562 L738.714844,32.7695312 C738.714844,30.1679557 739.216792,28.1113357 740.220703,26.5996094 C741.224614,25.0878831 742.621085,24.1835952 744.410156,23.8867188 C745.605475,23.7070304 746.443357,23.4609391 746.923828,23.1484375 C747.404299,22.8359359 747.644531,22.3867217 747.644531,21.8007812 L748.851562,21.8007812 C748.851562,22.9101618 748.505863,23.6972633 747.814453,24.1621094 C747.123043,24.6269554 746.082038,24.9492179 744.691406,25.1289062 C743.496088,25.285157 742.494145,25.7831989 741.685547,26.6230469 C740.876949,27.4628948 740.343751,28.6445236 740.085938,30.1679688 L740.121094,30.1914062 C740.644534,29.5664031 741.27734,29.0722674 742.019531,28.7089844 C742.761722,28.3457013 743.593745,28.1640625 744.515625,28.1640625 L744.515625,28.1640625 Z M744.304688,29.3476562 C742.968743,29.3476562 741.937504,29.7773395 741.210938,30.6367188 C740.484371,31.496098 740.121094,32.5624936 740.121094,33.8359375 L740.121094,34.2226562 C740.121094,35.6132882 740.484371,36.7675735 741.210938,37.6855469 C741.937504,38.6035202 742.976556,39.0625 744.328125,39.0625 C745.664069,39.0625 746.697262,38.6035202 747.427734,37.6855469 C748.158207,36.7675735 748.523438,35.6132882 748.523438,34.2226562 L748.523438,33.8359375 C748.523438,32.5546811 748.156254,31.4863324 747.421875,30.6308594 C746.687496,29.7753863 745.648444,29.3476562 744.304688,29.3476562 L744.304688,29.3476562 Z M754.160156,31.9257812 L757.792969,31.9257812 C759.285164,31.9257812 760.431637,32.2929651 761.232422,33.0273438 C762.033207,33.7617224 762.433594,34.7343689 762.433594,35.9453125 C762.433594,37.1640686 762.031254,38.1445275 761.226562,38.8867188 C760.421871,39.62891 759.277351,40 757.792969,40 L752.765625,40 L752.765625,27.3203125 L754.160156,27.3203125 L754.160156,31.9257812 Z M754.160156,33.1210938 L754.160156,38.8164062 L757.792969,38.8164062 C758.902349,38.8164062 759.718747,38.5488308 760.242188,38.0136719 C760.765628,37.4785129 761.027344,36.7968791 761.027344,35.96875 C761.027344,35.171871 760.763675,34.4980496 760.236328,33.9472656 C759.708982,33.3964816 758.894537,33.1210938 757.792969,33.1210938 L754.160156,33.1210938 Z M766.734375,40 L765.328125,40 L765.328125,27.3203125 L766.734375,27.3203125 L766.734375,40 Z M779.660156,40 L778.253906,40 L778.253906,34.6679688 C777.707029,34.8632822 777.1543,35.0175776 776.595703,35.1308594 C776.037107,35.2441412 775.484378,35.3007812 774.9375,35.3007812 C773.273429,35.3007812 772.050785,34.9433629 771.269531,34.2285156 C770.488277,33.5136683 770.097656,32.2812588 770.097656,30.53125 L770.097656,27.3203125 L771.492188,27.3203125 L771.492188,30.53125 C771.492188,31.8828193 771.755857,32.8144506 772.283203,33.3261719 C772.81055,33.8378932 773.695306,34.09375 774.9375,34.09375 C775.507815,34.0859375 776.078122,34.0273443 776.648438,33.9179688 C777.218753,33.8085932 777.753904,33.6640634 778.253906,33.484375 L778.253906,27.3203125 L779.660156,27.3203125 L779.660156,40 Z M791.460938,40 C791.367187,39.5624978 791.300781,39.195314 791.261719,38.8984375 C791.222656,38.601561 791.203125,38.3007828 791.203125,37.9960938 L791.167969,37.984375 C790.707029,38.6406283 790.093754,39.1796854 789.328125,39.6015625 C788.562496,40.0234396 787.683599,40.234375 786.691406,40.234375 C785.433587,40.234375 784.468753,39.9140657 783.796875,39.2734375 C783.124997,38.6328093 782.789062,37.7500056 782.789062,36.625 C782.789062,35.4296815 783.287104,34.4863316 784.283203,33.7949219 C785.279302,33.1035122 786.652335,32.7578125 788.402344,32.7578125 L791.203125,32.7578125 L791.203125,31.1875 C791.203125,30.2656204 790.916018,29.5507838 790.341797,29.0429688 C789.767575,28.5351537 788.949224,28.28125 787.886719,28.28125 C786.886714,28.28125 786.070316,28.5253882 785.4375,29.0136719 C784.804684,29.5019556 784.488281,30.1054652 784.488281,30.8242188 L783.09375,30.8125 C783.09375,29.812495 783.544917,28.94141 784.447266,28.1992188 C785.349614,27.4570275 786.515618,27.0859375 787.945312,27.0859375 C789.375007,27.0859375 790.507808,27.4355434 791.34375,28.1347656 C792.179692,28.8339879 792.597656,29.8593682 792.597656,31.2109375 L792.597656,37.4453125 C792.597656,37.8984398 792.621094,38.3320292 792.667969,38.7460938 C792.714844,39.1601583 792.800781,39.5781229 792.925781,40 L791.460938,40 Z M786.855469,39.0039062 C787.886724,39.0039062 788.783199,38.7714867 789.544922,38.3066406 C790.306644,37.8417946 790.859373,37.2343787 791.203125,36.484375 L791.203125,33.8359375 L788.378906,33.8359375 C787.082025,33.8359375 786.058598,34.1035129 785.308594,34.6386719 C784.55859,35.1738308 784.183594,35.8515584 784.183594,36.671875 C784.183594,37.367191 784.416013,37.9296854 784.880859,38.359375 C785.345705,38.7890646 786.003902,39.0039062 786.855469,39.0039062 L786.855469,39.0039062 Z M802.300781,40 L802.300781,27.3203125 L806.953125,27.3203125 C808.562508,27.3203125 809.796871,27.5976535 810.65625,28.1523438 C811.515629,28.707034 811.945312,29.558588 811.945312,30.7070312 C811.945312,31.3632845 811.755861,31.9335913 811.376953,32.4179688 C810.998045,32.9023462 810.460941,33.2499989 809.765625,33.4609375 L809.765625,33.4960938 C810.578129,33.644532 811.228513,33.9941379 811.716797,34.5449219 C812.205081,35.0957059 812.449219,35.7421838 812.449219,36.484375 C812.449219,37.6562559 812.037113,38.5351533 811.212891,39.1210938 C810.388668,39.7070342 809.238289,40 807.761719,40 L802.300781,40 Z M803.695312,34.1640625 L803.695312,38.828125 L807.761719,38.828125 C808.832037,38.828125 809.648435,38.6289082 810.210938,38.2304688 C810.77344,37.8320293 811.054688,37.2421914 811.054688,36.4609375 C811.054688,35.7421839 810.769534,35.1796895 810.199219,34.7734375 C809.628903,34.3671855 808.816412,34.1640625 807.761719,34.1640625 L803.695312,34.1640625 Z M803.695312,32.9921875 L807.246094,32.9921875 C808.347662,32.9765624 809.173825,32.783205 809.724609,32.4121094 C810.275393,32.0410138 810.550781,31.4843787 810.550781,30.7421875 C810.550781,29.9765587 810.253909,29.4140643 809.660156,29.0546875 C809.066403,28.6953107 808.164069,28.515625 806.953125,28.515625 L803.695312,28.515625 L803.695312,32.9921875 Z M821.8125,40 L821.8125,22.9375 L826.792969,22.9375 C828.597665,22.9375 829.986323,23.3046838 830.958984,24.0390625 C831.931645,24.7734412 832.417969,25.9023361 832.417969,27.4257812 C832.417969,28.3164107 832.177737,29.0800749 831.697266,29.7167969 C831.216794,30.3535188 830.558598,30.7929675 829.722656,31.0351562 L829.722656,31.0703125 C830.746099,31.2578134 831.574216,31.7402305 832.207031,32.5175781 C832.839847,33.2949258 833.15625,34.207026 833.15625,35.2539062 C833.15625,36.8086015 832.67188,37.9882772 831.703125,38.7929688 C830.73437,39.5976603 829.402352,40 827.707031,40 L821.8125,40 Z M823.207031,31.7734375 L823.207031,38.8164062 L827.707031,38.8164062 C828.9961,38.8164062 829.992184,38.5117218 830.695312,37.9023438 C831.398441,37.2929657 831.75,36.4179745 831.75,35.2773438 C831.75,34.2304635 831.429691,33.3847688 830.789062,32.7402344 C830.148434,32.0956999 829.195319,31.7734375 827.929688,31.7734375 L823.207031,31.7734375 Z M823.207031,30.5898438 L827.132812,30.5898438 C828.390631,30.5898438 829.351559,30.3242214 830.015625,29.7929688 C830.679691,29.2617161 831.011719,28.4570366 831.011719,27.3789062 C831.011719,26.2773382 830.66016,25.4609402 829.957031,24.9296875 C829.253903,24.3984348 828.199226,24.1328125 826.792969,24.1328125 L823.207031,24.1328125 L823.207031,30.5898438 Z M835.511719,33.4726562 C835.511719,31.5663967 836.01562,30.0253965 837.023438,28.8496094 C838.031255,27.6738222 839.394523,27.0859375 841.113281,27.0859375 C842.839852,27.0859375 844.207026,27.6738222 845.214844,28.8496094 C846.222661,30.0253965 846.726562,31.5663967 846.726562,33.4726562 L846.726562,33.859375 C846.726562,35.7734471 846.224614,37.3144473 845.220703,38.4824219 C844.216792,39.6503965 842.855477,40.234375 841.136719,40.234375 C839.402335,40.234375 838.031255,39.6503965 837.023438,38.4824219 C836.01562,37.3144473 835.511719,35.7734471 835.511719,33.859375 L835.511719,33.4726562 Z M836.917969,33.859375 C836.917969,35.3593825 837.283199,36.5996045 838.013672,37.5800781 C838.744144,38.5605518 839.785149,39.0507812 841.136719,39.0507812 C842.472663,39.0507812 843.505856,38.5605518 844.236328,37.5800781 C844.966801,36.5996045 845.332031,35.3593825 845.332031,33.859375 L845.332031,33.4726562 C845.332031,32.0038989 844.962894,30.7714894 844.224609,29.7753906 C843.486324,28.7792919 842.449225,28.28125 841.113281,28.28125 C839.769525,28.28125 838.734379,28.7792919 838.007812,29.7753906 C837.281246,30.7714894 836.917969,32.0038989 836.917969,33.4726562 L836.917969,33.859375 Z M854.355469,39.0507812 C855.308599,39.0507812 856.123043,38.7929713 856.798828,38.2773438 C857.474613,37.7617162 857.835937,37.0312547 857.882812,36.0859375 L859.230469,36.0859375 C859.191406,37.3046936 858.70313,38.3007774 857.765625,39.0742188 C856.82812,39.8476601 855.691413,40.234375 854.355469,40.234375 C852.597647,40.234375 851.255864,39.6543027 850.330078,38.4941406 C849.404292,37.3339786 848.941406,35.804697 848.941406,33.90625 L848.941406,33.4140625 C848.941406,31.5312406 849.404292,30.0058652 850.330078,28.8378906 C851.255864,27.669916 852.593741,27.0859375 854.34375,27.0859375 C855.750007,27.0859375 856.906245,27.4921834 857.8125,28.3046875 C858.718755,29.1171916 859.191406,30.2148368 859.230469,31.5976562 L857.882812,31.5976562 C857.84375,30.5820262 857.492191,29.7753936 856.828125,29.1777344 C856.164059,28.5800751 855.335942,28.28125 854.34375,28.28125 C852.953118,28.28125 851.939456,28.7617139 851.302734,29.7226562 C850.666012,30.6835986 850.347656,31.914055 850.347656,33.4140625 L850.347656,33.90625 C850.347656,35.4375077 850.666012,36.6777296 851.302734,37.6269531 C851.939456,38.5761766 852.957024,39.0507812 854.355469,39.0507812 L854.355469,39.0507812 Z M871.171875,28.515625 L866.554688,28.515625 L866.554688,40 L865.148438,40 L865.148438,28.515625 L860.707031,28.515625 L860.707031,27.3203125 L871.171875,27.3203125 L871.171875,28.515625 Z M872.214844,33.4726562 C872.214844,31.5663967 872.718745,30.0253965 873.726562,28.8496094 C874.73438,27.6738222 876.097648,27.0859375 877.816406,27.0859375 C879.542977,27.0859375 880.910151,27.6738222 881.917969,28.8496094 C882.925786,30.0253965 883.429688,31.5663967 883.429688,33.4726562 L883.429688,33.859375 C883.429688,35.7734471 882.927739,37.3144473 881.923828,38.4824219 C880.919917,39.6503965 879.558602,40.234375 877.839844,40.234375 C876.10546,40.234375 874.73438,39.6503965 873.726562,38.4824219 C872.718745,37.3144473 872.214844,35.7734471 872.214844,33.859375 L872.214844,33.4726562 Z M873.621094,33.859375 C873.621094,35.3593825 873.986324,36.5996045 874.716797,37.5800781 C875.447269,38.5605518 876.488274,39.0507812 877.839844,39.0507812 C879.175788,39.0507812 880.208981,38.5605518 880.939453,37.5800781 C881.669926,36.5996045 882.035156,35.3593825 882.035156,33.859375 L882.035156,33.4726562 C882.035156,32.0038989 881.666019,30.7714894 880.927734,29.7753906 C880.189449,28.7792919 879.15235,28.28125 877.816406,28.28125 C876.47265,28.28125 875.437504,28.7792919 874.710938,29.7753906 C873.984371,30.7714894 873.621094,32.0038989 873.621094,33.4726562 L873.621094,33.859375 Z M895.359375,40 L893.953125,40 L893.953125,34.6679688 C893.406247,34.8632822 892.853518,35.0175776 892.294922,35.1308594 C891.736325,35.2441412 891.183596,35.3007812 890.636719,35.3007812 C888.972648,35.3007812 887.750004,34.9433629 886.96875,34.2285156 C886.187496,33.5136683 885.796875,32.2812588 885.796875,30.53125 L885.796875,27.3203125 L887.191406,27.3203125 L887.191406,30.53125 C887.191406,31.8828193 887.455075,32.8144506 887.982422,33.3261719 C888.509768,33.8378932 889.394525,34.09375 890.636719,34.09375 C891.207034,34.0859375 891.777341,34.0273443 892.347656,33.9179688 C892.917972,33.8085932 893.453123,33.6640634 893.953125,33.484375 L893.953125,27.3203125 L895.359375,27.3203125 L895.359375,40 Z M908.847656,40 L907.441406,40 L907.441406,34.1875 L900.609375,34.1875 L900.609375,40 L899.203125,40 L899.203125,27.3203125 L900.609375,27.3203125 L900.609375,33.0039062 L907.441406,33.0039062 L907.441406,27.3203125 L908.847656,27.3203125 L908.847656,40 Z M911.835938,33.4726562 C911.835938,31.5663967 912.339839,30.0253965 913.347656,28.8496094 C914.355474,27.6738222 915.718741,27.0859375 917.4375,27.0859375 C919.164071,27.0859375 920.531245,27.6738222 921.539062,28.8496094 C922.54688,30.0253965 923.050781,31.5663967 923.050781,33.4726562 L923.050781,33.859375 C923.050781,35.7734471 922.548833,37.3144473 921.544922,38.4824219 C920.541011,39.6503965 919.179696,40.234375 917.460938,40.234375 C915.726554,40.234375 914.355474,39.6503965 913.347656,38.4824219 C912.339839,37.3144473 911.835938,35.7734471 911.835938,33.859375 L911.835938,33.4726562 Z M913.242188,33.859375 C913.242188,35.3593825 913.607418,36.5996045 914.337891,37.5800781 C915.068363,38.5605518 916.109368,39.0507812 917.460938,39.0507812 C918.796882,39.0507812 919.830074,38.5605518 920.560547,37.5800781 C921.291019,36.5996045 921.65625,35.3593825 921.65625,33.859375 L921.65625,33.4726562 C921.65625,32.0038989 921.287113,30.7714894 920.548828,29.7753906 C919.810543,28.7792919 918.773444,28.28125 917.4375,28.28125 C916.093743,28.28125 915.058597,28.7792919 914.332031,29.7753906 C913.605465,30.7714894 913.242188,32.0038989 913.242188,33.4726562 L913.242188,33.859375 Z M934.289062,27.3203125 L935.695312,27.3203125 L935.695312,40 L934.289062,40 L934.289062,29.5820312 L934.253906,29.5703125 L927.445312,40 L926.050781,40 L926.050781,27.3203125 L927.445312,27.3203125 L927.445312,37.7382812 L927.480469,37.75 L934.289062,27.3203125 Z M934.21875,22.2929688 C934.21875,23.2148484 933.917972,23.949216 933.316406,24.4960938 C932.714841,25.0429715 931.886724,25.3164062 930.832031,25.3164062 C929.769526,25.3164062 928.939456,25.0429715 928.341797,24.4960938 C927.744138,23.949216 927.445312,23.2148484 927.445312,22.2929688 L928.640625,22.2929688 C928.640625,22.9023468 928.812498,23.3886701 929.15625,23.7519531 C929.500002,24.1152362 930.05859,24.296875 930.832031,24.296875 C931.582035,24.296875 932.134764,24.1132831 932.490234,23.7460938 C932.845705,23.3789044 933.023438,22.8945343 933.023438,22.2929688 L934.21875,22.2929688 Z M957.597656,34.6914062 C957.410155,36.4726652 956.789068,37.8437452 955.734375,38.8046875 C954.679682,39.7656298 953.23829,40.2460938 951.410156,40.2460938 C949.472647,40.2460938 947.929693,39.5722724 946.78125,38.2246094 C945.632807,36.8769464 945.058594,35.0898549 945.058594,32.8632812 L945.058594,30.0859375 C945.058594,27.8671764 945.632807,26.0800849 946.78125,24.7246094 C947.929693,23.3691338 949.472647,22.6914062 951.410156,22.6914062 C953.253915,22.6914062 954.701167,23.1660109 955.751953,24.1152344 C956.80274,25.0644579 957.417968,26.4453034 957.597656,28.2578125 L956.203125,28.2578125 C956.015624,26.8124928 955.53516,25.7226599 954.761719,24.9882812 C953.988277,24.2539026 952.871101,23.8867188 951.410156,23.8867188 C949.886711,23.8867188 948.681645,24.4550724 947.794922,25.5917969 C946.908199,26.7285213 946.464844,28.2187408 946.464844,30.0625 L946.464844,32.8632812 C946.464844,34.7304781 946.908199,36.2304631 947.794922,37.3632812 C948.681645,38.4960994 949.886711,39.0625 951.410156,39.0625 C952.878914,39.0625 953.998043,38.7070348 954.767578,37.9960938 C955.537113,37.2851527 956.015624,36.1836012 956.203125,34.6914062 L957.597656,34.6914062 Z M969.058594,27.3203125 L970.464844,27.3203125 L970.464844,40 L969.058594,40 L969.058594,29.5820312 L969.023438,29.5703125 L962.214844,40 L960.820312,40 L960.820312,27.3203125 L962.214844,27.3203125 L962.214844,37.7382812 L962.25,37.75 L969.058594,27.3203125 Z M979.324219,28.1640625 C980.98829,28.1640625 982.306636,28.6855417 983.279297,29.7285156 C984.251958,30.7714896 984.738281,32.1406165 984.738281,33.8359375 L984.738281,34.2226562 C984.738281,36.0273528 984.236333,37.4824163 983.232422,38.5878906 C982.228511,39.6933649 980.86329,40.2460938 979.136719,40.2460938 C977.410148,40.2460938 976.042974,39.6933649 975.035156,38.5878906 C974.027339,37.4824163 973.523438,36.0273528 973.523438,34.2226562 L973.523438,32.7695312 C973.523438,30.1679557 974.025386,28.1113357 975.029297,26.5996094 C976.033208,25.0878831 977.429679,24.1835952 979.21875,23.8867188 C980.414068,23.7070304 981.251951,23.4609391 981.732422,23.1484375 C982.212893,22.8359359 982.453125,22.3867217 982.453125,21.8007812 L983.660156,21.8007812 C983.660156,22.9101618 983.314457,23.6972633 982.623047,24.1621094 C981.931637,24.6269554 980.890632,24.9492179 979.5,25.1289062 C978.304682,25.285157 977.302738,25.7831989 976.494141,26.6230469 C975.685543,27.4628948 975.152345,28.6445236 974.894531,30.1679688 L974.929688,30.1914062 C975.453128,29.5664031 976.085934,29.0722674 976.828125,28.7089844 C977.570316,28.3457013 978.402339,28.1640625 979.324219,28.1640625 L979.324219,28.1640625 Z M979.113281,29.3476562 C977.777337,29.3476562 976.746097,29.7773395 976.019531,30.6367188 C975.292965,31.496098 974.929688,32.5624936 974.929688,33.8359375 L974.929688,34.2226562 C974.929688,35.6132882 975.292965,36.7675735 976.019531,37.6855469 C976.746097,38.6035202 977.785149,39.0625 979.136719,39.0625 C980.472663,39.0625 981.505856,38.6035202 982.236328,37.6855469 C982.966801,36.7675735 983.332031,35.6132882 983.332031,34.2226562 L983.332031,33.8359375 C983.332031,32.5546811 982.964847,31.4863324 982.230469,30.6308594 C981.49609,29.7753863 980.457038,29.3476562 979.113281,29.3476562 L979.113281,29.3476562 Z M995.554688,27.3203125 L996.960938,27.3203125 L996.960938,40 L995.554688,40 L995.554688,29.5820312 L995.519531,29.5703125 L988.710938,40 L987.316406,40 L987.316406,27.3203125 L988.710938,27.3203125 L988.710938,37.7382812 L988.746094,37.75 L995.554688,27.3203125 Z M1010.94141,34.0117188 C1010.94141,35.9414159 1010.51954,37.460932 1009.67578,38.5703125 C1008.83203,39.679693 1007.64063,40.234375 1006.10156,40.234375 C1005.19531,40.234375 1004.41602,40.0722672 1003.76367,39.7480469 C1003.11132,39.4238265 1002.57813,38.9531281 1002.16406,38.3359375 L1002.12891,38.3476562 L1002.12891,44.875 L1000.72266,44.875 L1000.72266,27.3203125 L1001.90625,27.3203125 L1002.08203,29.2304688 L1002.10547,29.2421875 C1002.52735,28.5468715 1003.06445,28.0136737 1003.7168,27.6425781 C1004.36914,27.2714825 1005.15625,27.0859375 1006.07812,27.0859375 C1007.63282,27.0859375 1008.83203,27.6816347 1009.67578,28.8730469 C1010.51954,30.0644591 1010.94141,31.6953021 1010.94141,33.765625 L1010.94141,34.0117188 Z M1009.53516,33.765625 C1009.53516,32.1249918 1009.22071,30.8046925 1008.5918,29.8046875 C1007.96289,28.8046825 1007.01954,28.3046875 1005.76172,28.3046875 C1004.80078,28.3046875 1004.03125,28.5253884 1003.45312,28.9667969 C1002.875,29.4082053 1002.4336,29.9960901 1002.12891,30.7304688 L1002.12891,36.8125 C1002.45703,37.5234411 1002.91797,38.0742168 1003.51172,38.4648438 C1004.10547,38.8554707 1004.86328,39.0507812 1005.78516,39.0507812 C1007.03516,39.0507812 1007.97265,38.5996139 1008.59766,37.6972656 C1009.22266,36.7949174 1009.53516,35.566414 1009.53516,34.0117188 L1009.53516,33.765625 Z M1022.40234,27.3203125 L1023.80859,27.3203125 L1023.80859,40 L1022.40234,40 L1022.40234,29.5820312 L1022.36719,29.5703125 L1015.55859,40 L1014.16406,40 L1014.16406,27.3203125 L1015.55859,27.3203125 L1015.55859,37.7382812 L1015.59375,37.75 L1022.40234,27.3203125 Z" id="Путешествие-по-место" fill="#000000"></path>
            </g>
        </g>
    </g>
</svg>