<?xml version="1.0" encoding="UTF-8"?>
<svg width="676px" height="286px" viewBox="0 0 676 286" version="1.1" xmlns="http://www.w3.org/2000/svg" xmlns:xlink="http://www.w3.org/1999/xlink">
    <!-- Generator: Sketch 3.8.3 (29802) - http://www.bohemiancoding.com/sketch -->
    <title>logo_title</title>
    <desc>Created with Sketch.</desc>
    <defs></defs>
    <g id="new" stroke="none" stroke-width="1" fill="none" fill-rule="evenodd">
        <g id="logo_title" fill="#FFFFFF">
            <g id="logo_left_inv" transform="translate(262.000000, 0.000000)">
                <path d="M42.7290323,126.917006 L42.7290323,127.125336 L32.0857143,143.58527 L32.0857143,129.078891 C24.3898618,130.895387 17.3004608,133.135853 11,135.750948 C16.3677419,146.521998 23.5585253,155.913316 32.0857143,163.365699 L32.0857143,162.451969 L42.7290323,146.984346 L42.7290323,171.207331 C47.2506912,173.98507 52.0211982,176.25843 57,178 L57,125 C52.0967742,125.482449 47.3299539,126.127543 42.7290323,126.917006" id="Fill-2"></path>
                <path d="M82.4645507,124.019831 L82.4645507,139.255527 L74.3057111,139.255527 L74.3057111,124 C69.4376945,124.084733 64.6642731,124.310086 60,124.686877 L60,178.513901 C64.6187946,179.822754 69.3976734,180.65566 74.3057111,180.962141 L74.3057111,154.090995 L82.4645507,154.090995 L82.4645507,181 C87.8000862,180.707942 92.9919096,179.792106 98,178.310181 L98,124.890597 C92.9537077,124.436284 87.7727991,124.131606 82.4645507,124.019831" id="Fill-3"></path>
                <path d="M122.448454,156.611086 L122.07718,165.629253 C127.740457,161.05257 132.854974,155.611707 137.308442,149.471095 C135.627751,146.390741 134.658819,144.651419 130.261493,143.014409 C133.94706,138.775725 135.497353,136.453583 139,133.694784 C134.207857,131.935365 129.048064,130.373263 123.57314,129.039539 L115.129841,140.959013 L115.129841,127.225309 C110.277933,126.300838 105.217749,125.555414 100,125 L100,178 C105.297437,176.162019 110.363054,173.702851 115.129841,170.651729 L115.129841,154.120859 C118.442324,154.309042 121.202424,155.21159 122.448454,156.444827 L122.448454,156.611086" id="Fill-4"></path>
                <path d="M78.0785204,114 C80.0714429,61.2010293 80.4920879,18.5098799 106,5.1118559 C99.6978033,2.49164496 93.0347867,0.751477222 86.1119049,0 C78.9590706,21.9232162 79.1628497,45.3240358 78,114 L78.0785204,114" id="Fill-5"></path>
                <path d="M79,114 L79.5460968,114 C90.6132903,44.3967036 104.712516,24.3524616 136,27.3013818 C130.853452,20.9516908 124.934645,15.4489912 118.416419,11 C89.1919677,19.9748153 83.7401935,46.3156969 79,114" id="Fill-6"></path>
                <path d="M76.9275274,114 L77,114 C75.9076076,45.3843072 76.0967435,21.9209158 69.3691617,0 C62.9756612,0.844645838 56.82079,2.64087765 51,5.25456714 C74.6578965,18.9537801 75.0556122,61.4942046 76.9275274,114" id="Fill-7"></path>
                <path d="M81,113 L81.6570278,113 C102.647145,48.5459653 134.577965,42.2341029 156,69.4764932 C153.873353,58.5297544 150.048316,48.3224883 144.872621,39.2544097 C110.050146,24.7629261 92.2024158,60.3266548 81,113" id="Fill-8"></path>
                <path d="M156.92297,86.7236826 C137.124349,54.0868413 107.084367,51.3186351 82,113.793213 L82.0917027,113.793213 C111.231164,50.4461867 144.78703,87.8705888 152.565256,121 C155.441053,111.493947 157,101.280848 157,90.6478829 C157,89.3246695 156.974323,88.0305377 156.92297,86.7236826" id="Fill-9"></path>
                <path d="M74,114.656523 C49.368207,52.3061014 19.9734107,53.8296393 0.152342684,85.2637039 C0.0550636208,87.2014075 0,89.144658 0,91.1119449 C0,101.190592 1.36374234,110.901298 3.86913709,120 C12.4810874,86.8297678 45.3210308,51.4888638 73.9082273,114.656523 L74,114.656523" id="Fill-10"></path>
                <path d="M77.4598901,113 L78,113 C73.2864808,46.3954614 67.8853813,20.1279879 39.2245301,11 C32.8593436,15.3606657 27.0619178,20.7034796 22,26.8577912 C52.5871819,24.515885 66.501004,44.7579425 77.4598901,113" id="Fill-11"></path>
                <path d="M76.33761,113 L77,113 C65.8755284,61.0167834 48.2725148,25.7072916 14.1539112,38.7058208 C9.06638818,47.451442 5.2594858,57.2398523 3,67.7603949 C24.5184743,42.5481534 55.6912825,49.9530458 76.33761,113" id="Fill-12"></path>
            </g>
            <path d="M35.546875,230.6875 L20.109375,230.6875 L20.109375,273 L16.359375,273 L16.359375,230.6875 L0.921875,230.6875 L0.921875,227.5 L35.546875,227.5 L35.546875,230.6875 Z M66.109375,257.03125 C66.109375,262.177109 64.9843862,266.229152 62.734375,269.1875 C60.4843638,272.145848 57.3073122,273.625 53.203125,273.625 C50.7864462,273.625 48.708342,273.192713 46.96875,272.328125 C45.229158,271.463537 43.8072972,270.208342 42.703125,268.5625 L42.609375,268.59375 L42.609375,286 L38.859375,286 L38.859375,239.1875 L42.015625,239.1875 L42.484375,244.28125 L42.546875,244.3125 C43.6718806,242.458324 45.104158,241.036463 46.84375,240.046875 C48.583342,239.057287 50.6822794,238.5625 53.140625,238.5625 C57.2864791,238.5625 60.4843638,240.151026 62.734375,243.328125 C64.9843862,246.505224 66.109375,250.854139 66.109375,256.375 L66.109375,257.03125 Z M62.359375,256.375 C62.359375,251.999978 61.5208417,248.47918 59.84375,245.8125 C58.1666583,243.14582 55.6510584,241.8125 52.296875,241.8125 C49.7343622,241.8125 47.6822994,242.401036 46.140625,243.578125 C44.5989506,244.755214 43.4218791,246.322907 42.609375,248.28125 L42.609375,264.5 C43.4843794,266.395843 44.7135337,267.864578 46.296875,268.90625 C47.8802163,269.947922 49.9010294,270.46875 52.359375,270.46875 C55.692725,270.46875 58.1927,269.265637 59.859375,266.859375 C61.52605,264.453113 62.359375,261.177104 62.359375,257.03125 L62.359375,256.375 Z M96.671875,239.1875 L100.421875,239.1875 L100.421875,273 L96.671875,273 L96.671875,245.21875 L96.578125,245.1875 L78.421875,273 L74.703125,273 L74.703125,239.1875 L78.421875,239.1875 L78.421875,266.96875 L78.515625,267 L96.671875,239.1875 Z M148.203125,239.1875 L151.953125,239.1875 L151.953125,273 L148.203125,273 L148.203125,245.21875 L148.109375,245.1875 L129.953125,273 L126.234375,273 L126.234375,239.1875 L129.953125,239.1875 L129.953125,266.96875 L130.046875,267 L148.203125,239.1875 Z M185.515625,248.1875 C185.515625,249.854175 185.020838,251.333327 184.03125,252.625 C183.041662,253.916673 181.630218,254.906247 179.796875,255.59375 L179.796875,255.6875 C181.921886,256.29167 183.510411,257.265618 184.5625,258.609375 C185.614589,259.953132 186.140625,261.65624 186.140625,263.71875 C186.140625,266.864599 184.979178,269.291658 182.65625,271 C180.333322,272.708342 177.192728,273.5625 173.234375,273.5625 C169.671857,273.5625 166.598971,272.697925 164.015625,270.96875 C161.432279,269.239575 160.140625,266.687517 160.140625,263.3125 L163.890625,263.3125 C163.890625,265.354177 164.760408,267.052077 166.5,268.40625 C168.239592,269.760423 170.484361,270.4375 173.234375,270.4375 C176.213557,270.4375 178.479159,269.843756 180.03125,268.65625 C181.583341,267.468744 182.359375,265.84376 182.359375,263.78125 C182.359375,261.510405 181.640632,259.875005 180.203125,258.875 C178.765618,257.874995 176.484391,257.375 173.359375,257.375 L168.203125,257.375 L168.203125,254.125 L173.359375,254.125 C176.380223,254.125 178.536452,253.619797 179.828125,252.609375 C181.119798,251.598953 181.765625,250.104177 181.765625,248.125 C181.765625,246.229157 181.08334,244.703131 179.71875,243.546875 C178.35416,242.390619 176.192723,241.8125 173.234375,241.8125 C170.755196,241.8125 168.666675,242.416661 166.96875,243.625 C165.270825,244.833339 164.421875,246.395824 164.421875,248.3125 L160.703125,248.3125 C160.703125,245.395819 161.906238,243.0573 164.3125,241.296875 C166.718762,239.53645 169.692691,238.65625 173.234375,238.65625 C177.171895,238.65625 180.203114,239.463534 182.328125,241.078125 C184.453136,242.692716 185.515625,245.062484 185.515625,248.1875 L185.515625,248.1875 Z M213.078125,267.9375 L226.515625,239.1875 L231.140625,239.1875 L231.140625,273 L227.390625,273 L227.390625,245.46875 L227.296875,245.4375 L214.390625,273 L211.734375,273 L198.578125,244.8125 L198.484375,244.84375 L198.484375,273 L194.765625,273 L194.765625,239.1875 L199.671875,239.1875 L213.078125,267.9375 Z M254.234375,273.625 C249.734352,273.625 246.093764,272.098974 243.3125,269.046875 C240.531236,265.994776 239.140625,262.010441 239.140625,257.09375 L239.140625,255.375 C239.140625,250.437475 240.52082,246.401057 243.28125,243.265625 C246.04168,240.130193 249.432272,238.5625 253.453125,238.5625 C257.682313,238.5625 260.958322,239.848945 263.28125,242.421875 C265.604178,244.994805 266.765625,248.520811 266.765625,253 L266.765625,256.1875 L242.890625,256.1875 L242.890625,257.09375 C242.890625,260.968769 243.921865,264.166654 245.984375,266.6875 C248.046885,269.208346 250.796858,270.46875 254.234375,270.46875 C256.296885,270.46875 258.104159,270.171878 259.65625,269.578125 C261.208341,268.984372 262.682285,268.041673 264.078125,266.75 L265.671875,269.3125 C264.401035,270.64584 262.848968,271.697913 261.015625,272.46875 C259.182282,273.239587 256.921888,273.625 254.234375,273.625 L254.234375,273.625 Z M253.453125,241.75 C250.640611,241.75 248.302093,242.796865 246.4375,244.890625 C244.572907,246.984385 243.432294,249.6979 243.015625,253.03125 L263.046875,253.03125 L263.046875,252.09375 C263.046875,249.093735 262.203133,246.619801 260.515625,244.671875 C258.828117,242.723949 256.473973,241.75 253.453125,241.75 L253.453125,241.75 Z M301.390625,257.03125 C301.390625,262.177109 300.265636,266.229152 298.015625,269.1875 C295.765614,272.145848 292.588562,273.625 288.484375,273.625 C286.067696,273.625 283.989592,273.192713 282.25,272.328125 C280.510408,271.463537 279.088547,270.208342 277.984375,268.5625 L277.890625,268.59375 L277.890625,286 L274.140625,286 L274.140625,239.1875 L277.296875,239.1875 L277.765625,244.28125 L277.828125,244.3125 C278.953131,242.458324 280.385408,241.036463 282.125,240.046875 C283.864592,239.057287 285.963529,238.5625 288.421875,238.5625 C292.567729,238.5625 295.765614,240.151026 298.015625,243.328125 C300.265636,246.505224 301.390625,250.854139 301.390625,256.375 L301.390625,257.03125 Z M297.640625,256.375 C297.640625,251.999978 296.802092,248.47918 295.125,245.8125 C293.447908,243.14582 290.932308,241.8125 287.578125,241.8125 C285.015612,241.8125 282.963549,242.401036 281.421875,243.578125 C279.880201,244.755214 278.703129,246.322907 277.890625,248.28125 L277.890625,264.5 C278.765629,266.395843 279.994784,267.864578 281.578125,268.90625 C283.161466,269.947922 285.182279,270.46875 287.640625,270.46875 C290.973975,270.46875 293.47395,269.265637 295.140625,266.859375 C296.8073,264.453113 297.640625,261.177104 297.640625,257.03125 L297.640625,256.375 Z M322.828125,273.625 C318.328102,273.625 314.687514,272.098974 311.90625,269.046875 C309.124986,265.994776 307.734375,262.010441 307.734375,257.09375 L307.734375,255.375 C307.734375,250.437475 309.11457,246.401057 311.875,243.265625 C314.63543,240.130193 318.026022,238.5625 322.046875,238.5625 C326.276063,238.5625 329.552072,239.848945 331.875,242.421875 C334.197928,244.994805 335.359375,248.520811 335.359375,253 L335.359375,256.1875 L311.484375,256.1875 L311.484375,257.09375 C311.484375,260.968769 312.515615,264.166654 314.578125,266.6875 C316.640635,269.208346 319.390608,270.46875 322.828125,270.46875 C324.890635,270.46875 326.697909,270.171878 328.25,269.578125 C329.802091,268.984372 331.276035,268.041673 332.671875,266.75 L334.265625,269.3125 C332.994785,270.64584 331.442718,271.697913 329.609375,272.46875 C327.776032,273.239587 325.515638,273.625 322.828125,273.625 L322.828125,273.625 Z M322.046875,241.75 C319.234361,241.75 316.895843,242.796865 315.03125,244.890625 C313.166657,246.984385 312.026044,249.6979 311.609375,253.03125 L331.640625,253.03125 L331.640625,252.09375 C331.640625,249.093735 330.796883,246.619801 329.109375,244.671875 C327.421867,242.723949 325.067723,241.75 322.046875,241.75 L322.046875,241.75 Z M368.671875,273 L364.921875,273 L364.921875,257.5 L346.703125,257.5 L346.703125,273 L342.953125,273 L342.953125,239.1875 L346.703125,239.1875 L346.703125,254.34375 L364.921875,254.34375 L364.921875,239.1875 L368.671875,239.1875 L368.671875,273 Z M400.890625,239.1875 L404.640625,239.1875 L404.640625,273 L400.890625,273 L400.890625,245.21875 L400.796875,245.1875 L382.640625,273 L378.921875,273 L378.921875,239.1875 L382.640625,239.1875 L382.640625,266.96875 L382.734375,267 L400.890625,239.1875 Z M439.296875,239.1875 L439.296875,273 L435.546875,273 L435.546875,259.375 L425.046875,259.375 L416.796875,273 L412.671875,273 L421.171875,258.90625 C418.796863,258.281247 416.984381,257.130217 415.734375,255.453125 C414.484369,253.776033 413.859375,251.718762 413.859375,249.28125 C413.859375,246.260402 414.911448,243.822926 417.015625,241.96875 C419.119802,240.114574 422.109356,239.1875 425.984375,239.1875 L439.296875,239.1875 Z M417.609375,249.34375 C417.609375,251.302093 418.213536,252.932285 419.421875,254.234375 C420.630214,255.536465 422.484362,256.1875 424.984375,256.1875 L435.546875,256.1875 L435.546875,242.375 L425.984375,242.375 C423.130194,242.375 421.02084,243.036452 419.65625,244.359375 C418.29166,245.682298 417.609375,247.34374 417.609375,249.34375 L417.609375,249.34375 Z M467.140625,273 L463.109375,273 L473.921875,253.28125 C470.880193,252.281245 468.593758,250.770843 467.0625,248.75 C465.531242,246.729157 464.765625,244.208348 464.765625,241.1875 C464.765625,236.749978 466.104153,233.359387 468.78125,231.015625 C471.458347,228.671863 475.255184,227.5 480.171875,227.5 L494.046875,227.5 L494.046875,273 L490.296875,273 L490.296875,254.40625 L477.109375,254.40625 L467.140625,273 Z M490.296875,230.6875 L480.171875,230.6875 C476.276022,230.6875 473.354176,231.593741 471.40625,233.40625 C469.458324,235.218759 468.484375,237.79165 468.484375,241.125 C468.484375,244.187515 469.401032,246.630199 471.234375,248.453125 C473.067718,250.276051 475.692691,251.1875 479.109375,251.1875 L490.296875,251.1875 L490.296875,230.6875 Z M531.359375,257.03125 C531.359375,262.177109 530.234386,266.229152 527.984375,269.1875 C525.734364,272.145848 522.557312,273.625 518.453125,273.625 C516.036446,273.625 513.958342,273.192713 512.21875,272.328125 C510.479158,271.463537 509.057297,270.208342 507.953125,268.5625 L507.859375,268.59375 L507.859375,286 L504.109375,286 L504.109375,239.1875 L507.265625,239.1875 L507.734375,244.28125 L507.796875,244.3125 C508.921881,242.458324 510.354158,241.036463 512.09375,240.046875 C513.833342,239.057287 515.932279,238.5625 518.390625,238.5625 C522.536479,238.5625 525.734364,240.151026 527.984375,243.328125 C530.234386,246.505224 531.359375,250.854139 531.359375,256.375 L531.359375,257.03125 Z M527.609375,256.375 C527.609375,251.999978 526.770842,248.47918 525.09375,245.8125 C523.416658,243.14582 520.901058,241.8125 517.546875,241.8125 C514.984362,241.8125 512.932299,242.401036 511.390625,243.578125 C509.848951,244.755214 508.671879,246.322907 507.859375,248.28125 L507.859375,264.5 C508.734379,266.395843 509.963534,267.864578 511.546875,268.90625 C513.130216,269.947922 515.151029,270.46875 517.609375,270.46875 C520.942725,270.46875 523.4427,269.265637 525.109375,266.859375 C526.77605,264.453113 527.609375,261.177104 527.609375,257.03125 L527.609375,256.375 Z M561.171875,273 C560.921874,271.833327 560.744792,270.854171 560.640625,270.0625 C560.536458,269.270829 560.484375,268.468754 560.484375,267.65625 L560.390625,267.625 C559.161452,269.375009 557.526052,270.812494 555.484375,271.9375 C553.442698,273.062506 551.098972,273.625 548.453125,273.625 C545.098942,273.625 542.526051,272.770842 540.734375,271.0625 C538.942699,269.354158 538.046875,267.000015 538.046875,264 C538.046875,260.812484 539.374987,258.296884 542.03125,256.453125 C544.687513,254.609366 548.348935,253.6875 553.015625,253.6875 L560.484375,253.6875 L560.484375,249.5 C560.484375,247.041654 559.718758,245.135423 558.1875,243.78125 C556.656242,242.427077 554.473972,241.75 551.640625,241.75 C548.973945,241.75 546.796883,242.401035 545.109375,243.703125 C543.421867,245.005215 542.578125,246.614574 542.578125,248.53125 L538.859375,248.5 C538.859375,245.83332 540.062488,243.510427 542.46875,241.53125 C544.875012,239.552073 547.984356,238.5625 551.796875,238.5625 C555.609394,238.5625 558.630197,239.494782 560.859375,241.359375 C563.088553,243.223968 564.203125,245.958315 564.203125,249.5625 L564.203125,266.1875 C564.203125,267.395839 564.265624,268.552078 564.390625,269.65625 C564.515626,270.760422 564.74479,271.874994 565.078125,273 L561.171875,273 Z M548.890625,270.34375 C551.640639,270.34375 554.03124,269.723965 556.0625,268.484375 C558.09376,267.244785 559.567704,265.62501 560.484375,263.625 L560.484375,256.5625 L552.953125,256.5625 C549.494774,256.5625 546.765635,257.276035 544.765625,258.703125 C542.765615,260.130215 541.765625,261.937489 541.765625,264.125 C541.765625,265.979176 542.38541,267.479161 543.625,268.625 C544.86459,269.770839 546.61978,270.34375 548.890625,270.34375 L548.890625,270.34375 Z M583.296875,257.5 L578.109375,257.5 L578.109375,273 L574.328125,273 L574.328125,239.1875 L578.109375,239.1875 L578.109375,254.1875 L583.234375,254.1875 L595.640625,239.1875 L600.359375,239.1875 L586.484375,255.59375 L601.890625,273 L596.953125,273 L583.296875,257.5 Z M631.546875,242.375 L619.234375,242.375 L619.234375,273 L615.484375,273 L615.484375,242.375 L603.640625,242.375 L603.640625,239.1875 L631.546875,239.1875 L631.546875,242.375 Z M641.796875,251.46875 L651.484375,251.46875 C655.463562,251.46875 658.520823,252.447907 660.65625,254.40625 C662.791677,256.364593 663.859375,258.958317 663.859375,262.1875 C663.859375,265.437516 662.786469,268.052073 660.640625,270.03125 C658.494781,272.010427 655.442728,273 651.484375,273 L638.078125,273 L638.078125,239.1875 L641.796875,239.1875 L641.796875,251.46875 Z M641.796875,254.65625 L641.796875,269.84375 L651.484375,269.84375 C654.442723,269.84375 656.619785,269.130215 658.015625,267.703125 C659.411465,266.276035 660.109375,264.458344 660.109375,262.25 C660.109375,260.124989 659.406257,258.328132 658,256.859375 C656.593743,255.390618 654.42189,254.65625 651.484375,254.65625 L641.796875,254.65625 Z M675.328125,273 L671.578125,273 L671.578125,239.1875 L675.328125,239.1875 L675.328125,273 Z" id="Три-измерения-Яракты"></path>
        </g>
    </g>
</svg>