<?xml version="1.0" encoding="UTF-8" standalone="no"?>
<svg width="110px" height="110px" viewBox="0 0 110 110" version="1.1" xmlns="http://www.w3.org/2000/svg" xmlns:xlink="http://www.w3.org/1999/xlink">
    <!-- Generator: Sketch 3.8.3 (29802) - http://www.bohemiancoding.com/sketch -->
    <title>loader3</title>
    <desc>Created with Sketch.</desc>
    <defs></defs>
    <g id="new" stroke="none" stroke-width="1" fill="none" fill-rule="evenodd">
        <g id="loader3" transform="translate(54.500000, 55.500000) rotate(-90.000000) translate(-54.500000, -55.500000) translate(23.000000, 24.000000)" fill="#84BF41">
            <path d="M32.3076923,62.9898466 C32.0392821,62.9966021 31.7700379,63 31.5,63 C14.1030304,63 1.13686838e-13,48.8969696 1.13686838e-13,31.5 C1.13686838e-13,14.1030304 14.1030304,-2.84217094e-14 31.5,-2.84217094e-14 C48.8969696,-2.84217094e-14 63,14.1030304 63,31.5 C63,31.7700379 62.9966021,32.0392821 62.9898466,32.3076923 L57.3337736,32.3076923 C57.342007,32.0394702 57.3461538,31.7702194 57.3461538,31.5 C57.3461538,17.2255634 45.7744366,5.65384615 31.5,5.65384615 C17.2255634,5.65384615 5.65384615,17.2255634 5.65384615,31.5 C5.65384615,45.7744366 17.2255634,57.3461538 31.5,57.3461538 C31.7702194,57.3461538 32.0394702,57.342007 32.3076923,57.3337736 L32.3076923,62.9898466 Z" id="Oval-4-Copy-3" transform="translate(31.500000, 31.500000) rotate(-90.000000) translate(-31.500000, -31.500000) "></path>
        </g>
    </g>
</svg>