<?xml version="1.0" encoding="UTF-8" standalone="no"?>
<svg width="72px" height="56px" viewBox="0 0 72 56" version="1.1" xmlns="http://www.w3.org/2000/svg" xmlns:xlink="http://www.w3.org/1999/xlink">
    <!-- Generator: Sketch 3.8.3 (29802) - http://www.bohemiancoding.com/sketch -->
    <title>logo</title>
    <desc>Created with Sketch.</desc>
    <defs></defs>
    <g id="new" stroke="none" stroke-width="1" fill="none" fill-rule="evenodd">
        <g id="Artboard-1">
            <g id="logo">
                <rect id="Rectangle-57-Copy" fill-opacity="0.3" fill="#FFFFFF" x="0" y="0" width="72" height="56"></rect>
                <path d="M30.0016775,35.3560961 L30.0016775,35.3984174 L27.8240166,38.7421649 L27.8240166,35.7952716 C26.2494176,36.1642829 24.7989008,36.6194216 23.5098039,37.1506643 C24.6080631,39.3387456 26.0793232,41.2465416 27.8240166,42.7604533 L27.8240166,42.5748339 L30.0016775,39.432669 L30.0016775,44.3534388 C30.9268251,44.9177218 31.9028879,45.3795428 32.9215686,45.7333333 L32.9215686,34.9666667 C31.9183511,35.0646737 30.9430426,35.195721 30.0016775,35.3560961" id="Fill-2" fill="#1E8040"></path>
                <path d="M38.0001999,34.9708532 L38.0001999,38.1872779 L36.3835878,38.1872779 L36.3835878,34.9666667 C35.4190272,34.9845547 34.4732099,35.0321293 33.5490196,35.1116741 L33.5490196,46.4751568 C34.4641987,46.7514702 35.4110973,46.927306 36.3835878,46.9920075 L36.3835878,41.3192101 L38.0001999,41.3192101 L38.0001999,47 C39.0573958,46.9383433 40.0861163,46.7450001 41.0784314,46.4321494 L41.0784314,35.1546816 C40.0785468,35.0587711 39.0519891,34.9944502 38.0001999,34.9708532" id="Fill-3" fill="#1E8040"></path>
                <path d="M46.4009838,42.0216232 L46.3233318,43.8536155 C47.507808,42.9238868 48.5775108,41.8186046 49.5089553,40.5711722 C49.1574382,39.9454146 48.9547856,39.5920806 48.0350836,39.259531 C48.8059211,38.3984648 49.1301653,37.9267342 49.8627451,37.366299 C48.8604669,37.0088823 47.7812943,36.6915497 46.6362123,36.4206108 L44.8702936,38.8419881 L44.8702936,36.0520597 C43.8555153,35.8642582 42.7971762,35.7128294 41.7058824,35.6 L41.7058824,46.3666667 C42.813843,45.9932906 43.8733184,45.4937238 44.8702936,44.8739047 L44.8702936,41.5157468 C45.5631004,41.5539752 46.1403763,41.7373229 46.4009838,41.9878486 L46.4009838,42.0216232" id="Fill-4" fill="#1E8040"></path>
                <path d="M37.3295615,32.4333333 C37.7314955,21.5802116 37.8163314,12.8048086 42.9607843,10.0507704 C41.689753,9.51217146 40.3459514,9.15447032 38.9497399,9 C37.5071515,13.5064389 37.5482498,18.3166074 37.3137255,32.4333333 L37.3295615,32.4333333" id="Fill-5" fill="#4D4D4C"></path>
                <path d="M37.3137255,32.4333333 L37.4219304,32.4333333 C39.6148109,18.309946 42.4084655,14.2427163 48.6078431,14.8410894 C47.5880936,13.552657 46.415327,12.4360898 45.12379,11.5333333 C39.3331866,13.3544366 38.2529589,18.699334 37.3137255,32.4333333" id="Fill-6" fill="#4D4D4C"></path>
                <path d="M37.2979848,32.4333333 L37.3137255,32.4333333 C37.0764638,18.3289965 37.1175431,13.505966 35.6563489,9 C34.2677152,9.17362164 32.9309106,9.54284707 31.6666667,10.0801055 C36.8050333,12.8960548 36.891415,21.6404754 37.2979848,32.4333333" id="Fill-7" fill="#4D4D4C"></path>
                <path d="M37.9411765,32.4333333 L38.0730974,32.4333333 C42.2875836,19.179798 48.6987914,17.8819043 53,23.4836945 C52.5730026,21.2327417 51.8049953,19.133845 50.7657968,17.2691968 C43.7739902,14.2893463 40.1904458,21.6022342 37.9411765,32.4333333" id="Fill-8" fill="#4D4D4C"></path>
                <path d="M52.9845335,27.0972219 C49.009281,20.207222 42.9777238,19.622823 37.9411765,32.8119004 L37.9595889,32.8119004 C43.8103357,19.4386394 50.5478271,27.3393465 52.1095729,34.3333333 C52.686988,32.3265 53,30.1704013 53,27.9256642 C53,27.6463191 52.9948445,27.3731135 52.9845335,27.0972219" id="Fill-9" fill="#4D4D4C"></path>
                <path d="M36.0588235,32.6122208 C31.0463124,19.9194563 25.0645415,20.2296052 21.0310014,26.6286826 C21.0112053,27.0231437 21,27.418734 21,27.8192174 C21,29.870942 21.2775183,31.8477642 21.7873602,33.7 C23.5398715,26.9474884 30.2227217,19.7530901 36.040148,32.6122208 L36.0588235,32.6122208" id="Fill-10" fill="#4D4D4C"></path>
                <path d="M37.2047958,32.4333333 L37.3137255,32.4333333 C36.3630998,18.7859328 35.2738024,13.403676 29.4934627,11.5333333 C28.2097276,12.4268423 27.0404988,13.5215953 26.0196078,14.7826258 C32.1884513,14.3027647 34.9946002,18.4504019 37.2047958,32.4333333" id="Fill-11" fill="#4D4D4C"></path>
                <path d="M36.5514797,32.4333333 L36.6862745,32.4333333 C34.4224711,21.7441438 30.8402998,14.483534 23.8972453,17.1563917 C22.8619465,18.9547338 22.087251,20.9675021 21.627451,23.1308171 C26.0064092,17.9464818 32.3500013,19.4691328 36.5514797,32.4333333" id="Fill-12" fill="#4D4D4C"></path>
            </g>
        </g>
    </g>
</svg>