<?xml version="1.0" encoding="UTF-8"?>
<svg width="610px" height="246px" viewBox="0 0 610 246" version="1.1" xmlns="http://www.w3.org/2000/svg" xmlns:xlink="http://www.w3.org/1999/xlink">
    <!-- Generator: Sketch 3.8.3 (29802) - http://www.bohemiancoding.com/sketch -->
    <title>logo_title copy</title>
    <desc>Created with Sketch.</desc>
    <defs></defs>
    <g id="new" stroke="none" stroke-width="1" fill="none" fill-rule="evenodd">
        <g id="logo_title-copy">
            <g id="logo_left_inv" transform="translate(267.564225, 0.000000)" fill="#FFFFFF">
                <path d="M19.6357413,58.3412686 L19.6357413,58.437088 L14.8012718,66.0076588 L14.8012718,59.3356047 C11.3056171,60.1710824 8.08542837,61.2015609 5.22359657,62.4043461 C7.66176339,67.3583757 10.9280027,71.677812 14.8012718,75.1054558 L14.8012718,74.6851954 L19.6357413,67.5710275 L19.6357413,78.7121306 C21.6895954,79.9897222 23.8564827,81.03533 26.1179829,81.8363463 L26.1179829,57.4595623 C23.8908113,57.6814598 21.7255986,57.9781637 19.6357413,58.3412686" id="Fill-2"></path>
                <path d="M37.572269,56.8882495 L37.572269,63.8694012 L33.8338052,63.8694012 L33.8338052,56.8791627 C31.6032302,56.9179882 29.4159997,57.0212474 27.2787821,57.1938969 L27.2787821,81.8579895 C29.395161,82.4577192 31.5848922,82.8393654 33.8338052,82.979798 L33.8338052,70.6671645 L37.572269,70.6671645 L37.572269,82.9971456 C40.0170659,82.8633216 42.3960125,82.443676 44.6907707,81.7646431 L44.6907707,57.2872433 C42.378508,57.0790726 40.0045627,56.9394661 37.572269,56.8882495" id="Fill-3"></path>
                <path d="M56.2080133,71.9987439 L56.0367289,76.1465534 C58.6494435,74.0415568 61.0089914,71.5390899 63.0635694,68.7147812 C62.2881939,67.2980051 61.8411832,66.4980224 59.8125068,65.7450975 C61.5128184,63.7955598 62.2280355,62.7275157 63.8439581,61.4586355 C61.6331353,60.6494093 59.252699,59.9309375 56.7268799,59.3175054 L52.8316206,64.7997398 L52.8316206,58.4830696 C50.5932251,58.0578687 48.2587433,57.715019 45.8515699,57.4595623 L45.8515699,81.8363463 C48.2955068,80.9909865 50.6324952,79.8599185 52.8316206,78.4565875 L52.8316206,70.8533905 C54.3598122,70.9399432 55.633166,71.3550603 56.2080133,71.9222749 L56.2080133,71.9987439" id="Fill-4"></path>
                <path d="M36.0205839,52.2359657 C36.9294129,28.0429375 37.1212389,8.48141626 48.753568,2.34230465 C45.8795882,1.1416972 42.8410642,0.344334548 39.6840344,0 C36.4221397,10.0454419 36.5150687,20.7679367 35.9847764,52.2359657 L36.0205839,52.2359657" id="Fill-5"></path>
                <path d="M35.9847764,52.2359657 L36.2350035,52.2359657 C41.3061048,20.4668797 47.7665142,11.3180709 62.1027593,12.6640488 C59.7445582,9.76585447 57.0325005,7.25425304 54.0457828,5.22359657 C40.6548402,9.31997842 38.1567816,21.3427673 35.9847764,52.2359657" id="Fill-6"></path>
                <path d="M35.3704027,52.2359657 L35.4043768,52.2359657 C34.8922804,20.7955536 34.9809443,10.0443878 31.8271595,0 C28.8299868,0.38702536 25.9446798,1.21007715 23.2159848,2.40769639 C34.3064354,8.68481586 34.4928783,28.1772734 35.3704027,52.2359657" id="Fill-7"></path>
                <path d="M37.1455756,51.6555661 L37.4455621,51.6555661 C47.0292515,22.0197878 61.6082582,19.1176118 71.3891532,31.6435839 C70.4181664,26.6103051 68.6717273,21.9170337 66.3086029,17.7475575 C50.4093215,11.0844153 42.2603862,27.4365147 37.1455756,51.6555661" id="Fill-8"></path>
                <path d="M71.9343822,40.0126043 C62.8947075,25.0580699 49.1790213,23.7896495 37.7259753,52.4161397 L37.767845,52.4161397 C51.0723705,23.3898847 66.3933421,40.5381285 69.9447327,55.7183635 C71.2577674,51.362593 71.9695528,46.6828464 71.9695528,41.810713 C71.9695528,41.2044031 71.9578293,40.6114187 71.9343822,40.0126043" id="Fill-9"></path>
                <path d="M33.6631779,52.7011874 C22.4579829,24.2676322 9.08606053,24.9624086 0.0693018768,39.2972307 C0.0250488711,40.1808784 0,41.0670555 0,41.964194 C0,46.5603422 0.620377042,50.9886985 1.76010068,55.1379638 C5.67774413,40.0114002 20.6168909,23.8949487 33.6214298,52.7011874 L33.6631779,52.7011874" id="Fill-10"></path>
                <path d="M35.1580714,52.2359657 L35.4043768,52.2359657 C33.2548788,21.5375623 30.7918247,9.43073713 17.7216662,5.22359657 C14.8189612,7.23345171 12.1751711,9.69598446 9.86679353,12.532541 C23.8154133,11.4531434 30.1605095,20.7828207 35.1580714,52.2359657" id="Fill-11"></path>
                <path d="M34.5226508,51.6555661 L34.8239772,51.6555661 C29.7633681,27.7538338 21.7556198,11.5186319 6.23480055,17.4953179 C3.9204466,21.5165292 2.18865698,26.0172119 1.16079924,30.8545269 C10.9497213,19.2620113 25.1304752,22.6667593 34.5226508,51.6555661" id="Fill-12"></path>
            </g>
            <path d="M40.5327232,102.196582 L27.2384154,102.196582 L27.2384154,138.634826 L24.0090289,138.634826 L24.0090289,102.196582 L10.7147211,102.196582 L10.7147211,99.4516035 L40.5327232,99.4516035 L40.5327232,102.196582 Z M66.8522233,124.883022 C66.8522233,129.31448 65.883417,132.803977 63.9457754,135.351617 C62.0081338,137.899257 59.2721531,139.173058 55.7377514,139.173058 C53.6565808,139.173058 51.8669803,138.800785 50.3688963,138.056228 C48.8708123,137.311671 47.6463488,136.230735 46.6954691,134.813386 L46.6147345,134.840297 L46.6147345,149.830033 L43.385348,149.830033 L43.385348,109.516525 L46.1034149,109.516525 L46.5070882,113.903108 L46.5609114,113.93002 C47.5297322,112.333259 48.7631661,111.108796 50.2612501,110.256593 C51.7593341,109.404389 53.5668754,108.978294 55.6839282,108.978294 C59.2542123,108.978294 62.0081338,110.346284 63.9457754,113.082306 C65.883417,115.818327 66.8522233,119.563481 66.8522233,124.31788 L66.8522233,124.883022 Z M63.6228367,124.31788 C63.6228367,120.550243 62.9007173,117.518238 61.4564566,115.221774 C60.012196,112.92531 57.8458375,111.777095 54.9573163,111.777095 C52.7505578,111.777095 50.9833834,112.283925 49.6557401,113.297598 C48.3280968,114.311272 47.3144384,115.661321 46.6147345,117.347787 L46.6147345,131.314884 C47.3682617,132.947526 48.4267723,134.212357 49.7902979,135.109413 C51.1538234,136.006469 52.8940865,136.454991 55.0111394,136.454991 C57.8817195,136.454991 60.0346223,135.418906 61.4699124,133.346706 C62.9052025,131.274506 63.6228367,128.453306 63.6228367,124.883022 L63.6228367,124.31788 Z M93.1717233,109.516525 L96.4011098,109.516525 L96.4011098,138.634826 L93.1717233,138.634826 L93.1717233,114.710455 L93.0909886,114.683543 L77.4553756,138.634826 L74.2529007,138.634826 L74.2529007,109.516525 L77.4553756,109.516525 L77.4553756,133.440897 L77.5361103,133.467808 L93.1717233,109.516525 Z M137.548876,109.516525 L140.778263,109.516525 L140.778263,138.634826 L137.548876,138.634826 L137.548876,114.710455 L137.468142,114.683543 L121.832529,138.634826 L118.630054,138.634826 L118.630054,109.516525 L121.832529,109.516525 L121.832529,133.440897 L121.913263,133.467808 L137.548876,109.516525 Z M169.681272,117.267052 C169.681272,118.702342 169.255177,119.976143 168.402973,121.088493 C167.55077,122.200843 166.335277,123.053034 164.756458,123.645091 L164.756458,123.725825 C166.586452,124.246118 167.954443,125.084853 168.86047,126.242056 C169.766496,127.399258 170.219503,128.865923 170.219503,130.642095 C170.219503,133.351205 169.2193,135.441315 167.218865,136.912487 C165.218429,138.383659 162.513845,139.119234 159.105031,139.119234 C156.037099,139.119234 153.390822,138.374689 151.166123,136.885575 C148.941423,135.396462 147.82909,133.198707 147.82909,130.292245 L151.058476,130.292245 C151.058476,132.050475 151.807507,133.512655 153.305591,134.678828 C154.803675,135.845001 156.736803,136.428079 159.105031,136.428079 C161.670612,136.428079 163.62168,135.916765 164.958294,134.89412 C166.294908,133.871476 166.963205,132.472089 166.963205,130.695918 C166.963205,128.740335 166.344245,127.331978 165.106308,126.470804 C163.86837,125.60963 161.903846,125.179049 159.212677,125.179049 L154.772271,125.179049 L154.772271,122.380248 L159.212677,122.380248 C161.814141,122.380248 163.671019,121.945182 164.783369,121.075037 C165.895719,120.204893 166.451886,118.917636 166.451886,117.213229 C166.451886,115.580587 165.864322,114.266419 164.689179,113.270687 C163.514035,112.274954 161.652671,111.777095 159.105031,111.777095 C156.970037,111.777095 155.171466,112.29738 153.709265,113.337965 C152.247063,114.378551 151.515973,115.724115 151.515973,117.374699 L148.313498,117.374699 C148.313498,114.862941 149.349582,112.84908 151.421782,111.333055 C153.493983,109.81703 156.05504,109.059028 159.105031,109.059028 C162.495904,109.059028 165.106299,109.754237 166.936293,111.144674 C168.766288,112.535111 169.681272,114.575884 169.681272,117.267052 L169.681272,117.267052 Z M193.417263,134.275155 L204.989231,109.516525 L208.972141,109.516525 L208.972141,138.634826 L205.742755,138.634826 L205.742755,114.925747 L205.66202,114.898836 L194.547548,138.634826 L192.260066,138.634826 L180.930302,114.360605 L180.849567,114.387516 L180.849567,138.634826 L177.647092,138.634826 L177.647092,109.516525 L181.872206,109.516525 L193.417263,134.275155 Z M228.85978,139.173058 C224.984497,139.173058 221.849332,137.85889 219.454192,135.230515 C217.059051,132.60214 215.861499,129.170951 215.861499,124.936845 L215.861499,123.45671 C215.861499,119.204663 217.050081,115.728622 219.42728,113.028483 C221.804479,110.328343 224.724354,108.978294 228.186991,108.978294 C231.82904,108.978294 234.650239,110.086142 236.650675,112.301871 C238.65111,114.5176 239.651313,117.55409 239.651313,121.411432 L239.651313,124.15641 L219.090886,124.15641 L219.090886,124.936845 C219.090886,128.273895 219.978958,131.027816 221.755129,133.198693 C223.531301,135.369569 225.899494,136.454991 228.85978,136.454991 C230.635951,136.454991 232.192321,136.199333 233.528934,135.688011 C234.865548,135.176689 236.134864,134.364865 237.336919,133.252516 L238.709409,135.459263 C237.615,136.607495 236.278406,137.513508 234.699587,138.17733 C233.120768,138.841152 231.174185,139.173058 228.85978,139.173058 L228.85978,139.173058 Z M228.186991,111.723272 C225.764939,111.723272 223.751078,112.6248 222.145347,114.427883 C220.539616,116.230967 219.557354,118.567763 219.198532,121.438343 L236.448838,121.438343 L236.448838,120.630997 C236.448838,118.047475 235.722233,115.916998 234.269002,114.239503 C232.815771,112.562007 230.788454,111.723272 228.186991,111.723272 L228.186991,111.723272 Z M269.469315,124.883022 C269.469315,129.31448 268.500509,132.803977 266.562867,135.351617 C264.625226,137.899257 261.889245,139.173058 258.354843,139.173058 C256.273673,139.173058 254.484072,138.800785 252.985988,138.056228 C251.487904,137.311671 250.263441,136.230735 249.312561,134.813386 L249.231826,134.840297 L249.231826,149.830033 L246.00244,149.830033 L246.00244,109.516525 L248.720507,109.516525 L249.12418,113.903108 L249.178003,113.93002 C250.146824,112.333259 251.380258,111.108796 252.878342,110.256593 C254.376426,109.404389 256.183967,108.978294 258.30102,108.978294 C261.871304,108.978294 264.625226,110.346284 266.562867,113.082306 C268.500509,115.818327 269.469315,119.563481 269.469315,124.31788 L269.469315,124.883022 Z M266.239929,124.31788 C266.239929,120.550243 265.517809,117.518238 264.073549,115.221774 C262.629288,112.92531 260.462929,111.777095 257.574408,111.777095 C255.36765,111.777095 253.600475,112.283925 252.272832,113.297598 C250.945189,114.311272 249.93153,115.661321 249.231826,117.347787 L249.231826,131.314884 C249.985354,132.947526 251.043864,134.212357 252.40739,135.109413 C253.770915,136.006469 255.511178,136.454991 257.628231,136.454991 C260.498811,136.454991 262.651714,135.418906 264.087004,133.346706 C265.522294,131.274506 266.239929,128.453306 266.239929,124.883022 L266.239929,124.31788 Z M287.930641,139.173058 C284.055358,139.173058 280.920193,137.85889 278.525053,135.230515 C276.129913,132.60214 274.932361,129.170951 274.932361,124.936845 L274.932361,123.45671 C274.932361,119.204663 276.120942,115.728622 278.498142,113.028483 C280.875341,110.328343 283.795215,108.978294 287.257853,108.978294 C290.899901,108.978294 293.721101,110.086142 295.721536,112.301871 C297.721972,114.5176 298.722175,117.55409 298.722175,121.411432 L298.722175,124.15641 L278.161747,124.15641 L278.161747,124.936845 C278.161747,128.273895 279.04982,131.027816 280.825991,133.198693 C282.602163,135.369569 284.970356,136.454991 287.930641,136.454991 C289.706813,136.454991 291.263182,136.199333 292.599796,135.688011 C293.93641,135.176689 295.205726,134.364865 296.407781,133.252516 L297.78027,135.459263 C296.685862,136.607495 295.349268,137.513508 293.770449,138.17733 C292.19163,138.841152 290.245047,139.173058 287.930641,139.173058 L287.930641,139.173058 Z M287.257853,111.723272 C284.835801,111.723272 282.821939,112.6248 281.216209,114.427883 C279.610478,116.230967 278.628216,118.567763 278.269393,121.438343 L295.5197,121.438343 L295.5197,120.630997 C295.5197,118.047475 294.793095,115.916998 293.339864,114.239503 C291.886633,112.562007 289.859316,111.723272 287.257853,111.723272 L287.257853,111.723272 Z M327.409891,138.634826 L324.180505,138.634826 L324.180505,125.286696 L308.491069,125.286696 L308.491069,138.634826 L305.261682,138.634826 L305.261682,109.516525 L308.491069,109.516525 L308.491069,122.568629 L324.180505,122.568629 L324.180505,109.516525 L327.409891,109.516525 L327.409891,138.634826 Z M355.155704,109.516525 L358.38509,109.516525 L358.38509,138.634826 L355.155704,138.634826 L355.155704,114.710455 L355.074969,114.683543 L339.439356,138.634826 L336.236881,138.634826 L336.236881,109.516525 L339.439356,109.516525 L339.439356,133.440897 L339.520091,133.467808 L355.155704,109.516525 Z M388.230004,109.516525 L388.230004,138.634826 L385.000618,138.634826 L385.000618,126.901389 L375.958335,126.901389 L368.853685,138.634826 L365.30136,138.634826 L372.621303,126.497716 C370.576014,125.959482 369.01516,124.968249 367.938692,123.523989 C366.862225,122.079728 366.323999,120.308069 366.323999,118.208957 C366.323999,115.607494 367.230012,113.508413 369.042066,111.911653 C370.85412,110.314893 373.428633,109.516525 376.765682,109.516525 L388.230004,109.516525 Z M369.553385,118.26278 C369.553385,119.949246 370.07367,121.353118 371.114256,122.474438 C372.154841,123.595759 373.751577,124.15641 375.904512,124.15641 L385.000618,124.15641 L385.000618,112.261503 L376.765682,112.261503 C374.307748,112.261503 372.491236,112.831126 371.316092,113.970387 C370.140948,115.109649 369.553385,116.540432 369.553385,118.26278 L369.553385,118.26278 Z M412.208199,138.634826 L408.736608,138.634826 L418.048006,121.653636 C415.428602,120.792462 413.459593,119.49175 412.14092,117.75146 C410.822247,116.011171 410.162921,113.840328 410.162921,111.238864 C410.162921,107.417404 411.315621,104.49753 413.621055,102.479153 C415.92649,100.460777 419.196211,99.4516035 423.430317,99.4516035 L435.379047,99.4516035 L435.379047,138.634826 L432.149661,138.634826 L432.149661,122.622452 L420.792985,122.622452 L412.208199,138.634826 Z M432.149661,102.196582 L423.430317,102.196582 C420.075326,102.196582 417.559121,102.977009 415.881626,104.537887 C414.204131,106.098765 413.365396,108.314461 413.365396,111.185041 C413.365396,113.822387 414.154793,115.925952 415.733613,117.495801 C417.312432,119.065649 419.57298,119.850562 422.515324,119.850562 L432.149661,119.850562 L432.149661,102.196582 Z M467.511443,124.883022 C467.511443,129.31448 466.542637,132.803977 464.604995,135.351617 C462.667353,137.899257 459.931373,139.173058 456.396971,139.173058 C454.3158,139.173058 452.5262,138.800785 451.028116,138.056228 C449.530032,137.311671 448.305568,136.230735 447.354689,134.813386 L447.273954,134.840297 L447.273954,149.830033 L444.044568,149.830033 L444.044568,109.516525 L446.762635,109.516525 L447.166308,113.903108 L447.220131,113.93002 C448.188952,112.333259 449.422386,111.108796 450.92047,110.256593 C452.418554,109.404389 454.226095,108.978294 456.343148,108.978294 C459.913432,108.978294 462.667353,110.346284 464.604995,113.082306 C466.542637,115.818327 467.511443,119.563481 467.511443,124.31788 L467.511443,124.883022 Z M464.282056,124.31788 C464.282056,120.550243 463.559937,117.518238 462.115676,115.221774 C460.671416,112.92531 458.505057,111.777095 455.616536,111.777095 C453.409777,111.777095 451.642603,112.283925 450.31496,113.297598 C448.987316,114.311272 447.973658,115.661321 447.273954,117.347787 L447.273954,131.314884 C448.027481,132.947526 449.085992,134.212357 450.449517,135.109413 C451.813043,136.006469 453.553306,136.454991 455.670359,136.454991 C458.540939,136.454991 460.693842,135.418906 462.129132,133.346706 C463.564422,131.274506 464.282056,128.453306 464.282056,124.883022 L464.282056,124.31788 Z M493.185066,138.634826 C492.969772,137.630123 492.817275,136.786903 492.727569,136.10514 C492.637864,135.423378 492.593011,134.732655 492.593011,134.032951 L492.512277,134.006039 C491.45375,135.513094 490.045393,136.751013 488.287163,137.719834 C486.528932,138.688654 484.510586,139.173058 482.232063,139.173058 C479.343542,139.173058 477.127846,138.437482 475.584909,136.96631 C474.041972,135.495138 473.270515,133.467821 473.270515,130.884299 C473.270515,128.139307 474.414245,125.972948 476.701739,124.385159 C478.989232,122.797369 482.142338,122.003486 486.16115,122.003486 L492.593011,122.003486 L492.593011,118.397338 C492.593011,116.280285 491.933685,114.638696 490.615012,113.472523 C489.296339,112.30635 487.417035,111.723272 484.977042,111.723272 C482.680577,111.723272 480.805758,112.283924 479.352527,113.405244 C477.899296,114.526565 477.172691,115.912496 477.172691,117.56308 L473.970216,117.536168 C473.970216,115.239704 475.0063,113.239298 477.0785,111.534891 C479.1507,109.830484 481.828373,108.978294 485.111599,108.978294 C488.394825,108.978294 490.99625,109.781147 492.91595,111.386878 C494.835651,112.992609 495.795486,115.347346 495.795486,118.451161 L495.795486,132.768108 C495.795486,133.808693 495.849309,134.804411 495.956956,135.75529 C496.064602,136.70617 496.261952,137.666006 496.54901,138.634826 L493.185066,138.634826 Z M482.608825,136.347344 C484.977053,136.347344 487.035767,135.813604 488.785027,134.746107 C490.534286,133.67861 491.803602,132.283708 492.593011,130.56136 L492.593011,124.479349 L486.107327,124.479349 C483.1291,124.479349 480.778848,125.093823 479.0565,126.32279 C477.334152,127.551758 476.47299,129.108127 476.47299,130.991945 C476.47299,132.588705 477.006731,133.880447 478.074228,134.867209 C479.141725,135.853971 480.653242,136.347344 482.608825,136.347344 L482.608825,136.347344 Z M512.238446,125.286696 L507.771128,125.286696 L507.771128,138.634826 L504.51483,138.634826 L504.51483,109.516525 L507.771128,109.516525 L507.771128,122.434071 L512.184623,122.434071 L522.86851,109.516525 L526.932155,109.516525 L514.983425,123.645091 L528.250821,138.634826 L523.998795,138.634826 L512.238446,125.286696 Z M553.789886,112.261503 L543.186733,112.261503 L543.186733,138.634826 L539.957347,138.634826 L539.957347,112.261503 L529.757868,112.261503 L529.757868,109.516525 L553.789886,109.516525 L553.789886,112.261503 Z M562.616876,120.092766 L570.959457,120.092766 C574.386212,120.092766 577.019033,120.935986 578.857999,122.622452 C580.696964,124.308918 581.616433,126.542554 581.616433,129.323429 C581.616433,132.122244 580.692479,134.373822 578.844543,136.078229 C576.996607,137.782636 574.368271,138.634826 570.959457,138.634826 L559.414401,138.634826 L559.414401,109.516525 L562.616876,109.516525 L562.616876,120.092766 Z M562.616876,122.837744 L562.616876,135.916759 L570.959457,135.916759 C573.507097,135.916759 575.381917,135.302285 576.583972,134.073318 C577.786028,132.844351 578.387046,131.279011 578.387046,129.377252 C578.387046,127.547257 577.781542,125.999858 576.570516,124.735009 C575.35949,123.470159 573.489156,122.837744 570.959457,122.837744 L562.616876,122.837744 Z M591.492973,138.634826 L588.263587,138.634826 L588.263587,109.516525 L591.492973,109.516525 L591.492973,138.634826 Z" id="Три-измерения-Яракты" fill="#FFFFFF"></path>
            <g id="Group-3" transform="translate(0.000000, 164.833492)">
                <g id="Group-2">
                    <rect id="Rectangle-43" fill="#FFFFFF" x="0" y="22.2553233" width="37.1455756" height="58.4202238"></rect>
                    <polygon id="Rectangle-43" fill="#D4D4D4" points="37.1455756 22.0633422 37.1455756 80.483566 14.8582303 58.4202238 14.8582303 0"></polygon>
                </g>
                <g id="Group-2" transform="translate(591.427212, 40.337774) scale(-1, 1) translate(-591.427212, -40.337774) translate(572.854424, 0.000000)">
                    <rect id="Rectangle-43" fill="#FFFFFF" x="0" y="22.2553233" width="37.1455756" height="58.4202238"></rect>
                    <polygon id="Rectangle-43" fill="#D4D4D4" points="37.1455756 22.0633422 37.1455756 80.483566 14.8582303 58.4202238 14.8582303 0"></polygon>
                </g>
                <rect id="Rectangle-43" fill="#FFFFFF" x="14.5099905" y="0" width="580.980019" height="58.6203616"></rect>
            </g>
            <path d="M79.7051915,189.790676 L78.6260109,189.790676 L78.6260109,177.511596 L71.1080221,177.511596 L71.1080221,189.790676 L70.0288416,189.790676 L70.0288416,176.586584 L79.7051915,176.586584 L79.7051915,189.790676 Z M85.6542876,187.133534 L86.0170373,188.339676 L86.0442436,188.339676 L89.0187916,179.978294 L90.2340033,179.978294 L85.9716936,191.359568 C85.7117217,192.04275 85.3837387,192.612564 84.9877349,193.069027 C84.5917311,193.525489 83.9977343,193.753717 83.2057267,193.753717 C83.0787636,193.753717 82.926108,193.740114 82.7477551,193.712907 C82.5694023,193.685701 82.4348839,193.656984 82.344196,193.626754 L82.4711584,192.71988 C82.5437087,192.731972 82.6600898,192.745575 82.8203051,192.760689 C82.9805203,192.775804 83.0969014,192.783361 83.1694517,192.783361 C83.6591663,192.783361 84.0264468,192.64582 84.2713041,192.370733 C84.5161614,192.095647 84.7685723,191.634657 85.0285442,190.98775 L85.5454627,189.663713 L81.7547276,179.978294 L82.9608706,179.978294 L85.6542876,187.133534 Z M98.9853413,180.903306 L95.4122562,180.903306 L95.4122562,189.790676 L94.3240069,189.790676 L94.3240069,180.903306 L90.8869529,180.903306 L90.8869529,179.978294 L98.9853413,179.978294 L98.9853413,180.903306 Z M103.837119,189.97205 C102.531214,189.97205 101.474716,189.529198 100.667593,188.643479 C99.8604711,187.757761 99.456916,186.601508 99.456916,185.174685 L99.456916,184.675904 C99.456916,183.243035 99.8574482,182.071667 100.658525,181.161766 C101.459601,180.251864 102.44355,179.79692 103.610401,179.79692 C104.83771,179.79692 105.788407,180.170246 106.462521,180.916909 C107.136634,181.663573 107.473686,182.68682 107.473686,183.986679 L107.473686,184.911691 L100.545165,184.911691 L100.545165,185.174685 C100.545165,186.299215 100.844431,187.22724 101.442971,187.958789 C102.041511,188.690338 102.839553,189.056107 103.837119,189.056107 C104.43566,189.056107 104.96013,188.969955 105.410547,188.797648 C105.860963,188.625341 106.288701,188.35177 106.693774,187.976927 L107.15628,188.720564 C106.787482,189.107499 106.337073,189.41281 105.805037,189.636507 C105.273001,189.860204 104.617035,189.97205 103.837119,189.97205 L103.837119,189.97205 Z M103.610401,180.721931 C102.79421,180.721931 102.115572,181.025731 101.574468,181.63334 C101.033363,182.240949 100.702357,183.028411 100.58144,183.995748 L106.394505,183.995748 L106.394505,183.723686 C106.394505,182.853082 106.149652,182.135147 105.659937,181.569859 C105.170222,181.004571 104.48705,180.721931 103.610401,180.721931 L103.610401,180.721931 Z M110.76564,179.978294 L110.76564,188.874732 L115.127706,188.874732 L115.127706,179.978294 L116.215955,179.978294 L116.215955,188.874732 L120.541746,188.874732 L120.541746,179.978294 L121.629995,179.978294 L121.629995,189.790676 L109.677391,189.790676 L109.677391,179.978294 L110.76564,179.978294 Z M128.141353,189.97205 C126.835448,189.97205 125.77895,189.529198 124.971827,188.643479 C124.164705,187.757761 123.76115,186.601508 123.76115,185.174685 L123.76115,184.675904 C123.76115,183.243035 124.161682,182.071667 124.962759,181.161766 C125.763835,180.251864 126.747784,179.79692 127.914635,179.79692 C129.141944,179.79692 130.092642,180.170246 130.766755,180.916909 C131.440868,181.663573 131.77792,182.68682 131.77792,183.986679 L131.77792,184.911691 L124.849399,184.911691 L124.849399,185.174685 C124.849399,186.299215 125.148665,187.22724 125.747205,187.958789 C126.345745,188.690338 127.143787,189.056107 128.141353,189.056107 C128.739894,189.056107 129.264364,188.969955 129.714781,188.797648 C130.165197,188.625341 130.592935,188.35177 130.998008,187.976927 L131.460514,188.720564 C131.091716,189.107499 130.641307,189.41281 130.109271,189.636507 C129.577235,189.860204 128.921269,189.97205 128.141353,189.97205 L128.141353,189.97205 Z M127.914635,180.721931 C127.098444,180.721931 126.419806,181.025731 125.878702,181.63334 C125.337597,182.240949 125.006592,183.028411 124.885674,183.995748 L130.698739,183.995748 L130.698739,183.723686 C130.698739,182.853082 130.453886,182.135147 129.964171,181.569859 C129.474456,181.004571 128.791285,180.721931 127.914635,180.721931 L127.914635,180.721931 Z M137.563779,189.056107 C138.301373,189.056107 138.931645,188.856597 139.454612,188.45757 C139.977579,188.058543 140.257195,187.493264 140.293471,186.761715 L141.336376,186.761715 C141.306147,187.704869 140.928286,188.475705 140.202783,189.074245 C139.47728,189.672785 138.597621,189.97205 137.563779,189.97205 C136.20346,189.97205 135.165099,189.523152 134.448665,188.625342 C133.732231,187.727532 133.374019,186.544073 133.374019,185.074929 L133.374019,184.694041 C133.374019,183.236989 133.732231,182.056553 134.448665,181.152697 C135.165099,180.248841 136.200437,179.79692 137.55471,179.79692 C138.642965,179.79692 139.537738,180.1113 140.239058,180.740069 C140.940378,181.368838 141.306147,182.218269 141.336376,183.288386 L140.293471,183.288386 C140.263241,182.502424 139.991182,181.878199 139.477284,181.41569 C138.963385,180.953182 138.322534,180.721931 137.55471,180.721931 C136.478547,180.721931 135.694108,181.093746 135.201371,181.837387 C134.708633,182.581028 134.462268,183.533236 134.462268,184.694041 L134.462268,185.074929 C134.462268,186.259917 134.708633,187.219683 135.201371,187.954255 C135.694108,188.688827 136.48157,189.056107 137.563779,189.056107 L137.563779,189.056107 Z M150.577426,180.903306 L147.004341,180.903306 L147.004341,189.790676 L145.916092,189.790676 L145.916092,180.903306 L142.479038,180.903306 L142.479038,179.978294 L150.577426,179.978294 L150.577426,180.903306 Z M152.472794,189.790676 L152.472794,179.978294 L156.073085,179.978294 C157.318532,179.978294 158.273764,180.192919 158.938808,180.622175 C159.603853,181.051431 159.93637,181.71042 159.93637,182.599162 C159.93637,183.107014 159.78976,183.548355 159.496536,183.923198 C159.203312,184.298041 158.787665,184.567078 158.249584,184.730316 L158.249584,184.757523 C158.878353,184.872394 159.381663,185.142942 159.75953,185.569175 C160.137396,185.995408 160.326326,186.495696 160.326326,187.070052 C160.326326,187.976931 160.007412,188.65708 159.369574,189.11052 C158.731735,189.563959 157.841496,189.790676 156.698828,189.790676 L152.472794,189.790676 Z M153.551974,185.274441 L153.551974,188.883801 L156.698828,188.883801 C157.527111,188.883801 158.158894,188.729634 158.594196,188.421295 C159.029498,188.112956 159.247146,187.656501 159.247146,187.051915 C159.247146,186.495696 159.026475,186.0604 158.585127,185.746016 C158.14378,185.431631 157.51502,185.274441 156.698828,185.274441 L153.551974,185.274441 Z M153.551974,184.367567 L156.299804,184.367567 C157.15227,184.355475 157.79161,184.205842 158.217843,183.918664 C158.644076,183.631485 158.85719,183.200724 158.85719,182.626368 C158.85719,182.033874 158.62745,181.598578 158.167965,181.320469 C157.70848,181.042359 157.010193,180.903306 156.073085,180.903306 L153.551974,180.903306 L153.551974,184.367567 Z M169.186489,179.978294 L170.274738,179.978294 L170.274738,189.790676 L169.186489,189.790676 L169.186489,181.728562 L169.159283,181.719493 L163.890343,189.790676 L162.811162,189.790676 L162.811162,179.978294 L163.890343,179.978294 L163.890343,188.040408 L163.917549,188.049477 L169.186489,179.978294 Z M176.97654,189.97205 C175.670635,189.97205 174.614136,189.529198 173.807014,188.643479 C172.999892,187.757761 172.596337,186.601508 172.596337,185.174685 L172.596337,184.675904 C172.596337,183.243035 172.996869,182.071667 173.797945,181.161766 C174.599022,180.251864 175.582971,179.79692 176.749822,179.79692 C177.977131,179.79692 178.927828,180.170246 179.601942,180.916909 C180.276055,181.663573 180.613107,182.68682 180.613107,183.986679 L180.613107,184.911691 L173.684586,184.911691 L173.684586,185.174685 C173.684586,186.299215 173.983852,187.22724 174.582392,187.958789 C175.180932,188.690338 175.978973,189.056107 176.97654,189.056107 C177.57508,189.056107 178.099551,188.969955 178.549967,188.797648 C179.000384,188.625341 179.428122,188.35177 179.833195,187.976927 L180.295701,188.720564 C179.926903,189.107499 179.476493,189.41281 178.944458,189.636507 C178.412422,189.860204 177.756456,189.97205 176.97654,189.97205 L176.97654,189.97205 Z M176.749822,180.721931 C175.933631,180.721931 175.254993,181.025731 174.713889,181.63334 C174.172784,182.240949 173.841778,183.028411 173.720861,183.995748 L179.533926,183.995748 L179.533926,183.723686 C179.533926,182.853082 179.289072,182.135147 178.799358,181.569859 C178.309643,181.004571 177.626471,180.721931 176.749822,180.721931 L176.749822,180.721931 Z M194.796622,189.790676 L193.708373,189.790676 L193.708373,180.912375 L188.421295,180.912375 L188.421295,189.790676 L187.333046,189.790676 L187.333046,179.978294 L194.796622,179.978294 L194.796622,189.790676 Z M197.109152,184.739385 C197.109152,183.264195 197.499104,182.071667 198.27902,181.161766 C199.058936,180.251864 200.113923,179.79692 201.444012,179.79692 C202.780147,179.79692 203.838156,180.251864 204.618072,181.161766 C205.397988,182.071667 205.78794,183.264195 205.78794,184.739385 L205.78794,185.038654 C205.78794,186.519889 205.399499,187.712417 204.622606,188.616273 C203.845713,189.520129 202.792238,189.97205 201.462149,189.97205 C200.119968,189.97205 199.058936,189.520129 198.27902,188.616273 C197.499104,187.712417 197.109152,186.519889 197.109152,185.038654 L197.109152,184.739385 Z M198.197401,185.038654 C198.197401,186.199459 198.480041,187.159225 199.045329,187.91798 C199.610617,188.676735 200.416215,189.056107 201.462149,189.056107 C202.495991,189.056107 203.295544,188.676735 203.860832,187.91798 C204.42612,187.159225 204.70876,186.199459 204.70876,185.038654 L204.70876,184.739385 C204.70876,183.602764 204.423097,182.649043 203.851763,181.878196 C203.280429,181.107349 202.477854,180.721931 201.444012,180.721931 C200.404124,180.721931 199.603059,181.107349 199.040794,181.878196 C198.47853,182.649043 198.197401,183.602764 198.197401,184.739385 L198.197401,185.038654 Z M217.985401,188.321539 L221.884961,179.978294 L223.227135,179.978294 L223.227135,189.790676 L222.138886,189.790676 L222.138886,181.801112 L222.111679,181.792043 L218.366288,189.790676 L217.595445,189.790676 L213.777504,181.610668 L213.750297,181.619737 L213.750297,189.790676 L212.671117,189.790676 L212.671117,179.978294 L214.09491,179.978294 L217.985401,188.321539 Z M229.928937,189.97205 C228.623031,189.97205 227.566533,189.529198 226.759411,188.643479 C225.952288,187.757761 225.548733,186.601508 225.548733,185.174685 L225.548733,184.675904 C225.548733,183.243035 225.949266,182.071667 226.750342,181.161766 C227.551418,180.251864 228.535367,179.79692 229.702218,179.79692 C230.929528,179.79692 231.880225,180.170246 232.554338,180.916909 C233.228451,181.663573 233.565503,182.68682 233.565503,183.986679 L233.565503,184.911691 L226.636983,184.911691 L226.636983,185.174685 C226.636983,186.299215 226.936248,187.22724 227.534788,187.958789 C228.133328,188.690338 228.93137,189.056107 229.928937,189.056107 C230.527477,189.056107 231.051947,188.969955 231.502364,188.797648 C231.95278,188.625341 232.380519,188.35177 232.785591,187.976927 L233.248097,188.720564 C232.8793,189.107499 232.42889,189.41281 231.896854,189.636507 C231.364819,189.860204 230.708853,189.97205 229.928937,189.97205 L229.928937,189.97205 Z M229.702218,180.721931 C228.886027,180.721931 228.20739,181.025731 227.666285,181.63334 C227.125181,182.240949 226.794175,183.028411 226.673258,183.995748 L232.486323,183.995748 L232.486323,183.723686 C232.486323,182.853082 232.241469,182.135147 231.751754,181.569859 C231.26204,181.004571 230.578868,180.721931 229.702218,180.721931 L229.702218,180.721931 Z M239.351362,189.056107 C240.088957,189.056107 240.719228,188.856597 241.242195,188.45757 C241.765162,188.058543 242.044779,187.493264 242.081054,186.761715 L243.123959,186.761715 C243.09373,187.704869 242.715869,188.475705 241.990366,189.074245 C241.264863,189.672785 240.385204,189.97205 239.351362,189.97205 C237.991043,189.97205 236.952683,189.523152 236.236248,188.625342 C235.519814,187.727532 235.161602,186.544073 235.161602,185.074929 L235.161602,184.694041 C235.161602,183.236989 235.519814,182.056553 236.236248,181.152697 C236.952683,180.248841 237.988021,179.79692 239.342293,179.79692 C240.430548,179.79692 241.325322,180.1113 242.026641,180.740069 C242.727961,181.368838 243.09373,182.218269 243.123959,183.288386 L242.081054,183.288386 C242.050824,182.502424 241.778765,181.878199 241.264867,181.41569 C240.750969,180.953182 240.110117,180.721931 239.342293,180.721931 C238.26613,180.721931 237.481692,181.093746 236.988954,181.837387 C236.496216,182.581028 236.249851,183.533236 236.249851,184.694041 L236.249851,185.074929 C236.249851,186.259917 236.496216,187.219683 236.988954,187.954255 C237.481692,188.688827 238.269153,189.056107 239.351362,189.056107 L239.351362,189.056107 Z M252.36501,180.903306 L248.791924,180.903306 L248.791924,189.790676 L247.703675,189.790676 L247.703675,180.903306 L244.266621,180.903306 L244.266621,179.978294 L252.36501,179.978294 L252.36501,180.903306 Z M253.172128,184.739385 C253.172128,183.264195 253.56208,182.071667 254.341996,181.161766 C255.121912,180.251864 256.176898,179.79692 257.506987,179.79692 C258.843122,179.79692 259.901132,180.251864 260.681048,181.161766 C261.460964,182.071667 261.850916,183.264195 261.850916,184.739385 L261.850916,185.038654 C261.850916,186.519889 261.462475,187.712417 260.685582,188.616273 C259.908689,189.520129 258.855214,189.97205 257.525125,189.97205 C256.182944,189.97205 255.121912,189.520129 254.341996,188.616273 C253.56208,187.712417 253.172128,186.519889 253.172128,185.038654 L253.172128,184.739385 Z M254.260377,185.038654 C254.260377,186.199459 254.543017,187.159225 255.108305,187.91798 C255.673592,188.676735 256.479191,189.056107 257.525125,189.056107 C258.558967,189.056107 259.35852,188.676735 259.923808,187.91798 C260.489096,187.159225 260.771735,186.199459 260.771735,185.038654 L260.771735,184.739385 C260.771735,183.602764 260.486073,182.649043 259.914739,181.878196 C259.343405,181.107349 258.540829,180.721931 257.506987,180.721931 C256.4671,180.721931 255.666035,181.107349 255.10377,181.878196 C254.541505,182.649043 254.260377,183.602764 254.260377,184.739385 L254.260377,185.038654 Z M272.016978,185.156547 C272.016978,186.649875 271.690506,187.825777 271.037554,188.684289 C270.384601,189.542801 269.462621,189.97205 268.271587,189.97205 C267.570267,189.97205 266.967201,189.846601 266.462372,189.595698 C265.957543,189.344794 265.544919,188.980537 265.224489,188.502914 L265.197282,188.511983 L265.197282,193.563273 L264.109033,193.563273 L264.109033,179.978294 L265.024976,179.978294 L265.161007,181.4565 L265.179145,181.465569 C265.505621,180.927487 265.921268,180.514863 266.426097,180.227685 C266.930926,179.940507 267.540038,179.79692 268.253449,179.79692 C269.456575,179.79692 270.384601,180.257909 271.037554,181.179903 C271.690506,182.101897 272.016978,183.363951 272.016978,184.966104 L272.016978,185.156547 Z M270.928729,184.966104 C270.928729,183.696473 270.685386,182.674738 270.198695,181.900868 C269.712003,181.126998 268.981976,180.740069 268.008593,180.740069 C267.264952,180.740069 266.669444,180.910862 266.22205,181.252453 C265.774657,181.594044 265.433071,182.048988 265.197282,182.617299 L265.197282,187.323977 C265.451208,187.87415 265.807909,188.300377 266.267394,188.60267 C266.726879,188.904963 267.313319,189.056107 268.02673,189.056107 C268.994068,189.056107 269.71956,188.706964 270.203229,188.008667 C270.686898,187.310371 270.928729,186.359673 270.928729,185.156547 L270.928729,184.966104 Z M273.848864,184.739385 C273.848864,183.264195 274.238816,182.071667 275.018732,181.161766 C275.798648,180.251864 276.853635,179.79692 278.183724,179.79692 C279.519859,179.79692 280.577868,180.251864 281.357784,181.161766 C282.1377,182.071667 282.527652,183.264195 282.527652,184.739385 L282.527652,185.038654 C282.527652,186.519889 282.139212,187.712417 281.362319,188.616273 C280.585426,189.520129 279.53195,189.97205 278.201861,189.97205 C276.85968,189.97205 275.798648,189.520129 275.018732,188.616273 C274.238816,187.712417 273.848864,186.519889 273.848864,185.038654 L273.848864,184.739385 Z M274.937113,185.038654 C274.937113,186.199459 275.219753,187.159225 275.785041,187.91798 C276.350329,188.676735 277.155928,189.056107 278.201861,189.056107 C279.235703,189.056107 280.035256,188.676735 280.600544,187.91798 C281.165832,187.159225 281.448472,186.199459 281.448472,185.038654 L281.448472,184.739385 C281.448472,183.602764 281.162809,182.649043 280.591475,181.878196 C280.020142,181.107349 279.217566,180.721931 278.183724,180.721931 C277.143836,180.721931 276.342772,181.107349 275.780507,181.878196 C275.218242,182.649043 274.937113,183.602764 274.937113,184.739385 L274.937113,185.038654 Z M292.086108,185.256304 L290.780209,185.256304 L290.780209,189.790676 L289.69196,189.790676 L289.69196,185.256304 L288.39513,185.256304 L284.767632,189.790676 L283.389183,189.790676 L287.488255,184.70311 L283.84262,179.978294 L285.157588,179.978294 L288.376992,184.285948 L289.69196,184.285948 L289.69196,179.978294 L290.780209,179.978294 L290.780209,184.285948 L292.104246,184.285948 L295.32365,179.978294 L296.656755,179.978294 L292.992983,184.712179 L297.101124,189.790676 L295.713606,189.790676 L292.086108,185.256304 Z M298.606535,188.874732 C299.138571,188.209688 299.555729,187.529539 299.858022,186.834265 C300.160315,186.138991 300.344711,185.035638 300.411216,183.524173 L300.574453,179.978294 L306.36938,179.978294 L306.36938,188.874732 L307.38508,188.874732 L307.38508,192.674536 L306.305899,192.674536 L306.305899,189.790676 L298.93301,189.790676 L298.93301,192.674536 L297.890105,192.674536 L297.899173,188.874732 L298.606535,188.874732 Z M301.490396,183.524173 C301.435983,184.830079 301.266702,185.906226 300.982546,186.752646 C300.698391,187.599067 300.323553,188.306422 299.858022,188.874732 L305.281131,188.874732 L305.281131,180.993994 L301.60829,180.993994 L301.490396,183.524173 Z M313.279763,189.97205 C311.973858,189.97205 310.91736,189.529198 310.110237,188.643479 C309.303115,187.757761 308.89956,186.601508 308.89956,185.174685 L308.89956,184.675904 C308.89956,183.243035 309.300092,182.071667 310.101169,181.161766 C310.902245,180.251864 311.886194,179.79692 313.053045,179.79692 C314.280354,179.79692 315.231051,180.170246 315.905165,180.916909 C316.579278,181.663573 316.91633,182.68682 316.91633,183.986679 L316.91633,184.911691 L309.987809,184.911691 L309.987809,185.174685 C309.987809,186.299215 310.287075,187.22724 310.885615,187.958789 C311.484155,188.690338 312.282196,189.056107 313.279763,189.056107 C313.878303,189.056107 314.402774,188.969955 314.85319,188.797648 C315.303607,188.625341 315.731345,188.35177 316.136418,187.976927 L316.598924,188.720564 C316.230126,189.107499 315.779716,189.41281 315.247681,189.636507 C314.715645,189.860204 314.059679,189.97205 313.279763,189.97205 L313.279763,189.97205 Z M313.053045,180.721931 C312.236854,180.721931 311.558216,181.025731 311.017112,181.63334 C310.476007,182.240949 310.145001,183.028411 310.024084,183.995748 L315.837149,183.995748 L315.837149,183.723686 C315.837149,182.853082 315.592296,182.135147 315.102581,181.569859 C314.612866,181.004571 313.929694,180.721931 313.053045,180.721931 L313.053045,180.721931 Z M326.583611,189.790676 L325.495362,189.790676 L325.495362,185.292578 L320.208284,185.292578 L320.208284,189.790676 L319.120034,189.790676 L319.120034,179.978294 L320.208284,179.978294 L320.208284,184.376635 L325.495362,184.376635 L325.495362,179.978294 L326.583611,179.978294 L326.583611,189.790676 Z M335.933486,179.978294 L337.021735,179.978294 L337.021735,189.790676 L335.933486,189.790676 L335.933486,181.728562 L335.90628,181.719493 L330.637339,189.790676 L329.558159,189.790676 L329.558159,179.978294 L330.637339,179.978294 L330.637339,188.040408 L330.664546,188.049477 L335.933486,179.978294 Z M341.129876,184.449185 L343.941187,184.449185 C343.9956,183.052592 344.408223,181.928079 345.179071,181.075613 C345.949918,180.223146 346.97921,179.79692 348.266978,179.79692 C349.603113,179.79692 350.661122,180.251864 351.441038,181.161766 C352.220954,182.071667 352.610906,183.264195 352.610906,184.739385 L352.610906,185.038654 C352.610906,186.519889 352.222466,187.712417 351.445573,188.616273 C350.66868,189.520129 349.615204,189.97205 348.285115,189.97205 C346.997347,189.97205 345.966544,189.553381 345.192674,188.716029 C344.418804,187.878678 344.001646,186.761722 343.941187,185.365128 L341.129876,185.365128 L341.129876,189.790676 L340.041627,189.790676 L340.041627,179.978294 L341.129876,179.978294 L341.129876,184.449185 Z M345.020368,185.038654 C345.020368,186.199459 345.303007,187.159225 345.868295,187.91798 C346.433583,188.676735 347.239182,189.056107 348.285115,189.056107 C349.318957,189.056107 350.11851,188.676735 350.683798,187.91798 C351.249086,187.159225 351.531726,186.199459 351.531726,185.038654 L351.531726,184.739385 C351.531726,183.602764 351.246063,182.649043 350.674729,181.878196 C350.103396,181.107349 349.30082,180.721931 348.266978,180.721931 C347.22709,180.721931 346.426026,181.107349 345.863761,181.878196 C345.301496,182.649043 345.020368,183.602764 345.020368,184.739385 L345.020368,185.038654 Z M356.066098,189.355376 C356.066098,189.923687 355.954251,190.467806 355.730554,190.98775 C355.506857,191.507694 355.1955,191.958103 354.796474,192.338993 L354.152593,191.867418 C354.442794,191.462345 354.654396,191.066347 354.787405,190.679412 C354.920414,190.292477 354.986917,189.857182 354.986917,189.373513 L354.986917,188.085752 L356.066098,188.085752 L356.066098,189.355376 Z M366.749078,189.056107 C367.486673,189.056107 368.116945,188.856597 368.639911,188.45757 C369.162878,188.058543 369.442495,187.493264 369.47877,186.761715 L370.521676,186.761715 C370.491446,187.704869 370.113586,188.475705 369.388083,189.074245 C368.66258,189.672785 367.78292,189.97205 366.749078,189.97205 C365.38876,189.97205 364.350399,189.523152 363.633965,188.625342 C362.91753,187.727532 362.559319,186.544073 362.559319,185.074929 L362.559319,184.694041 C362.559319,183.236989 362.91753,182.056553 363.633965,181.152697 C364.350399,180.248841 365.385737,179.79692 366.74001,179.79692 C367.828264,179.79692 368.723038,180.1113 369.424358,180.740069 C370.125677,181.368838 370.491446,182.218269 370.521676,183.288386 L369.47877,183.288386 C369.448541,182.502424 369.176481,181.878199 368.662583,181.41569 C368.148685,180.953182 367.507834,180.721931 366.74001,180.721931 C365.663847,180.721931 364.879408,181.093746 364.38667,181.837387 C363.893933,182.581028 363.647568,183.533236 363.647568,184.694041 L363.647568,185.074929 C363.647568,186.259917 363.893933,187.219683 364.38667,187.954255 C364.879408,188.688827 365.666869,189.056107 366.749078,189.056107 L366.749078,189.056107 Z M379.898757,185.292578 L378.393346,185.292578 L378.393346,189.790676 L377.296028,189.790676 L377.296028,179.978294 L378.393346,179.978294 L378.393346,184.331292 L379.88062,184.331292 L383.480911,179.978294 L384.850291,179.978294 L380.823769,184.739385 L385.29466,189.790676 L383.861798,189.790676 L379.898757,185.292578 Z M386.074572,184.739385 C386.074572,183.264195 386.464524,182.071667 387.24444,181.161766 C388.024356,180.251864 389.079342,179.79692 390.409431,179.79692 C391.745566,179.79692 392.803576,180.251864 393.583492,181.161766 C394.363408,182.071667 394.75336,183.264195 394.75336,184.739385 L394.75336,185.038654 C394.75336,186.519889 394.364919,187.712417 393.588026,188.616273 C392.811133,189.520129 391.757658,189.97205 390.427569,189.97205 C389.085388,189.97205 388.024356,189.520129 387.24444,188.616273 C386.464524,187.712417 386.074572,186.519889 386.074572,185.038654 L386.074572,184.739385 Z M387.162821,185.038654 C387.162821,186.199459 387.445461,187.159225 388.010749,187.91798 C388.576037,188.676735 389.381635,189.056107 390.427569,189.056107 C391.461411,189.056107 392.260964,188.676735 392.826252,187.91798 C393.39154,187.159225 393.674179,186.199459 393.674179,185.038654 L393.674179,184.739385 C393.674179,183.602764 393.388517,182.649043 392.817183,181.878196 C392.245849,181.107349 391.443273,180.721931 390.409431,180.721931 C389.369544,180.721931 388.568479,181.107349 388.006214,181.878196 C387.443949,182.649043 387.162821,183.602764 387.162821,184.739385 L387.162821,185.038654 Z M403.84931,180.903306 L400.276225,180.903306 L400.276225,189.790676 L399.187976,189.790676 L399.187976,180.903306 L395.750922,180.903306 L395.750922,179.978294 L403.84931,179.978294 L403.84931,180.903306 Z M404.656428,184.739385 C404.656428,183.264195 405.04638,182.071667 405.826296,181.161766 C406.606212,180.251864 407.661199,179.79692 408.991288,179.79692 C410.327423,179.79692 411.385433,180.251864 412.165348,181.161766 C412.945264,182.071667 413.335216,183.264195 413.335216,184.739385 L413.335216,185.038654 C413.335216,186.519889 412.946776,187.712417 412.169883,188.616273 C411.39299,189.520129 410.339515,189.97205 409.009426,189.97205 C407.667245,189.97205 406.606212,189.520129 405.826296,188.616273 C405.04638,187.712417 404.656428,186.519889 404.656428,185.038654 L404.656428,184.739385 Z M405.744678,185.038654 C405.744678,186.199459 406.027317,187.159225 406.592605,187.91798 C407.157893,188.676735 407.963492,189.056107 409.009426,189.056107 C410.043268,189.056107 410.84282,188.676735 411.408108,187.91798 C411.973396,187.159225 412.256036,186.199459 412.256036,185.038654 L412.256036,184.739385 C412.256036,183.602764 411.970373,182.649043 411.39904,181.878196 C410.827706,181.107349 410.02513,180.721931 408.991288,180.721931 C407.9514,180.721931 407.150336,181.107349 406.588071,181.878196 C406.025806,182.649043 405.744678,183.602764 405.744678,184.739385 L405.744678,185.038654 Z M423.501279,185.156547 C423.501279,186.649875 423.174807,187.825777 422.521854,188.684289 C421.868901,189.542801 420.946922,189.97205 419.755887,189.97205 C419.054568,189.97205 418.451502,189.846601 417.946673,189.595698 C417.441844,189.344794 417.02922,188.980537 416.708789,188.502914 L416.681583,188.511983 L416.681583,193.563273 L415.593334,193.563273 L415.593334,179.978294 L416.509277,179.978294 L416.645308,181.4565 L416.663446,181.465569 C416.989922,180.927487 417.405569,180.514863 417.910398,180.227685 C418.415227,179.940507 419.024338,179.79692 419.73775,179.79692 C420.940876,179.79692 421.868901,180.257909 422.521854,181.179903 C423.174807,182.101897 423.501279,183.363951 423.501279,184.966104 L423.501279,185.156547 Z M422.413029,184.966104 C422.413029,183.696473 422.169687,182.674738 421.682995,181.900868 C421.196304,181.126998 420.466277,180.740069 419.492894,180.740069 C418.749253,180.740069 418.153745,180.910862 417.706351,181.252453 C417.258957,181.594044 416.917372,182.048988 416.681583,182.617299 L416.681583,187.323977 C416.935509,187.87415 417.292209,188.300377 417.751695,188.60267 C418.21118,188.904963 418.79762,189.056107 419.511031,189.056107 C420.478369,189.056107 421.203861,188.706964 421.68753,188.008667 C422.171199,187.310371 422.413029,186.359673 422.413029,185.156547 L422.413029,184.966104 Z M425.333165,184.739385 C425.333165,183.264195 425.723117,182.071667 426.503033,181.161766 C427.282949,180.251864 428.337935,179.79692 429.668025,179.79692 C431.004159,179.79692 432.062169,180.251864 432.842085,181.161766 C433.622001,182.071667 434.011953,183.264195 434.011953,184.739385 L434.011953,185.038654 C434.011953,186.519889 433.623512,187.712417 432.846619,188.616273 C432.069726,189.520129 431.016251,189.97205 429.686162,189.97205 C428.343981,189.97205 427.282949,189.520129 426.503033,188.616273 C425.723117,187.712417 425.333165,186.519889 425.333165,185.038654 L425.333165,184.739385 Z M426.421414,185.038654 C426.421414,186.199459 426.704054,187.159225 427.269342,187.91798 C427.83463,188.676735 428.640228,189.056107 429.686162,189.056107 C430.720004,189.056107 431.519557,188.676735 432.084845,187.91798 C432.650133,187.159225 432.932772,186.199459 432.932772,185.038654 L432.932772,184.739385 C432.932772,183.602764 432.64711,182.649043 432.075776,181.878196 C431.504442,181.107349 430.701866,180.721931 429.668025,180.721931 C428.628137,180.721931 427.827072,181.107349 427.264807,181.878196 C426.702542,182.649043 426.421414,183.602764 426.421414,184.739385 L426.421414,185.038654 Z M442.373335,180.912375 L437.412732,180.912375 L437.412732,189.790676 L436.324483,189.790676 L436.324483,179.978294 L442.373335,179.978294 L442.373335,180.912375 Z M443.316484,184.739385 C443.316484,183.264195 443.706436,182.071667 444.486352,181.161766 C445.266268,180.251864 446.321255,179.79692 447.651344,179.79692 C448.987479,179.79692 450.045488,180.251864 450.825404,181.161766 C451.60532,182.071667 451.995272,183.264195 451.995272,184.739385 L451.995272,185.038654 C451.995272,186.519889 451.606832,187.712417 450.829939,188.616273 C450.053046,189.520129 448.999571,189.97205 447.669481,189.97205 C446.327301,189.97205 445.266268,189.520129 444.486352,188.616273 C443.706436,187.712417 443.316484,186.519889 443.316484,185.038654 L443.316484,184.739385 Z M444.404734,185.038654 C444.404734,186.199459 444.687373,187.159225 445.252661,187.91798 C445.817949,188.676735 446.623548,189.056107 447.669481,189.056107 C448.703323,189.056107 449.502876,188.676735 450.068164,187.91798 C450.633452,187.159225 450.916092,186.199459 450.916092,185.038654 L450.916092,184.739385 C450.916092,183.602764 450.630429,182.649043 450.059096,181.878196 C449.487762,181.107349 448.685186,180.721931 447.651344,180.721931 C446.611456,180.721931 445.810392,181.107349 445.248127,181.878196 C444.685862,182.649043 444.404734,183.602764 444.404734,184.739385 L444.404734,185.038654 Z M466.296682,189.790676 L465.208432,189.790676 L465.208432,185.292578 L459.921355,185.292578 L459.921355,189.790676 L458.833105,189.790676 L458.833105,179.978294 L459.921355,179.978294 L459.921355,184.376635 L465.208432,184.376635 L465.208432,179.978294 L466.296682,179.978294 L466.296682,189.790676 Z M475.428907,189.790676 C475.356357,189.452107 475.304968,189.167956 475.274738,188.938214 C475.244509,188.708471 475.229395,188.475709 475.229395,188.23992 L475.202188,188.230852 C474.845483,188.738704 474.37089,189.155862 473.778396,189.482338 C473.185901,189.808815 472.505752,189.97205 471.737928,189.97205 C470.764545,189.97205 470.017892,189.724174 469.497948,189.228413 C468.978004,188.732653 468.718036,188.049481 468.718036,187.178877 C468.718036,186.253861 469.103454,185.523834 469.874301,184.988776 C470.645148,184.453717 471.707692,184.186192 473.061965,184.186192 L475.229395,184.186192 L475.229395,182.97098 C475.229395,182.257569 475.007213,181.704381 474.562842,181.3114 C474.118471,180.918419 473.485177,180.721931 472.66294,180.721931 C471.88907,180.721931 471.257287,180.910862 470.767573,181.288728 C470.277858,181.666594 470.033004,182.13363 470.033004,182.689849 L468.953824,182.68078 C468.953824,181.90691 469.302967,181.232807 470.001264,180.65845 C470.69956,180.084094 471.601891,179.79692 472.708284,179.79692 C473.814676,179.79692 474.691313,180.067468 475.33822,180.608572 C475.985127,181.149677 476.308575,181.943184 476.308575,182.989118 L476.308575,187.813689 C476.308575,188.164349 476.326712,188.499889 476.362988,188.82032 C476.399263,189.14075 476.465766,189.464199 476.5625,189.790676 L475.428907,189.790676 Z M471.864891,189.019832 C472.662944,189.019832 473.356696,188.839971 473.946167,188.480242 C474.535639,188.120513 474.963377,187.650455 475.229395,187.070052 L475.229395,185.020516 L473.043827,185.020516 C472.040215,185.020516 471.248219,185.227584 470.667816,185.641725 C470.087414,186.055867 469.797217,186.580337 469.797217,187.215152 C469.797217,187.753234 469.977079,188.188529 470.336807,188.521051 C470.696536,188.853574 471.205892,189.019832 471.864891,189.019832 L471.864891,189.019832 Z M486.1663,189.790676 L485.078051,189.790676 L485.078051,185.664397 C484.65484,185.815543 484.227102,185.934947 483.794823,186.022612 C483.362544,186.110277 482.934806,186.154109 482.511596,186.154109 C481.223828,186.154109 480.277665,185.877515 479.673079,185.324319 C479.068493,184.771123 478.766205,183.817403 478.766205,182.46313 L478.766205,179.978294 L479.845385,179.978294 L479.845385,182.46313 C479.845385,183.509064 480.04943,184.230022 480.457526,184.626026 C480.865621,185.02203 481.550304,185.220029 482.511596,185.220029 C482.952944,185.213983 483.394285,185.168639 483.835633,185.083997 C484.27698,184.999355 484.691116,184.887509 485.078051,184.748454 L485.078051,179.978294 L486.1663,179.978294 L486.1663,189.790676 Z M495.298525,189.790676 C495.225975,189.452107 495.174586,189.167956 495.144357,188.938214 C495.114127,188.708471 495.099013,188.475709 495.099013,188.23992 L495.071807,188.230852 C494.715101,188.738704 494.240508,189.155862 493.648014,189.482338 C493.05552,189.808815 492.375371,189.97205 491.607546,189.97205 C490.634163,189.97205 489.887511,189.724174 489.367567,189.228413 C488.847623,188.732653 488.587655,188.049481 488.587655,187.178877 C488.587655,186.253861 488.973072,185.523834 489.743919,184.988776 C490.514767,184.453717 491.57731,184.186192 492.931583,184.186192 L495.099013,184.186192 L495.099013,182.97098 C495.099013,182.257569 494.876831,181.704381 494.43246,181.3114 C493.988089,180.918419 493.354795,180.721931 492.532558,180.721931 C491.758688,180.721931 491.126905,180.910862 490.637191,181.288728 C490.147476,181.666594 489.902623,182.13363 489.902623,182.689849 L488.823442,182.68078 C488.823442,181.90691 489.172585,181.232807 489.870882,180.65845 C490.569179,180.084094 491.47151,179.79692 492.577902,179.79692 C493.684294,179.79692 494.560931,180.067468 495.207838,180.608572 C495.854745,181.149677 496.178193,181.943184 496.178193,182.989118 L496.178193,187.813689 C496.178193,188.164349 496.196331,188.499889 496.232606,188.82032 C496.268881,189.14075 496.335384,189.464199 496.432118,189.790676 L495.298525,189.790676 Z M491.734509,189.019832 C492.532562,189.019832 493.226314,188.839971 493.815786,188.480242 C494.405257,188.120513 494.832995,187.650455 495.099013,187.070052 L495.099013,185.020516 L492.913446,185.020516 C491.909833,185.020516 491.117837,185.227584 490.537435,185.641725 C489.957032,186.055867 489.666835,186.580337 489.666835,187.215152 C489.666835,187.753234 489.846697,188.188529 490.206425,188.521051 C490.566154,188.853574 491.07551,189.019832 491.734509,189.019832 L491.734509,189.019832 Z M506.59818,179.978294 L506.59818,189.790676 L505.509931,189.790676 L505.509931,180.912375 L501.492477,180.912375 L501.356446,184.313154 C501.265758,186.326425 501.017882,187.742647 500.612809,188.561861 C500.207737,189.381075 499.473176,189.790676 498.409104,189.790676 L498.019148,189.790676 L498.037286,188.82032 L498.372829,188.811251 C499.031828,188.811251 499.492818,188.496871 499.755813,187.868102 C500.018808,187.239332 500.189601,186.054362 500.268197,184.313154 L500.449572,179.978294 L506.59818,179.978294 Z M515.739474,189.790676 C515.666924,189.452107 515.615535,189.167956 515.585306,188.938214 C515.555076,188.708471 515.539962,188.475709 515.539962,188.23992 L515.512756,188.230852 C515.15605,188.738704 514.681457,189.155862 514.088963,189.482338 C513.496469,189.808815 512.81632,189.97205 512.048495,189.97205 C511.075112,189.97205 510.32846,189.724174 509.808516,189.228413 C509.288572,188.732653 509.028604,188.049481 509.028604,187.178877 C509.028604,186.253861 509.414021,185.523834 510.184869,184.988776 C510.955716,184.453717 512.01826,184.186192 513.372532,184.186192 L515.539962,184.186192 L515.539962,182.97098 C515.539962,182.257569 515.31778,181.704381 514.873409,181.3114 C514.429039,180.918419 513.795744,180.721931 512.973507,180.721931 C512.199637,180.721931 511.567854,180.910862 511.07814,181.288728 C510.588425,181.666594 510.343572,182.13363 510.343572,182.689849 L509.264391,182.68078 C509.264391,181.90691 509.613534,181.232807 510.311831,180.65845 C511.010128,180.084094 511.912459,179.79692 513.018851,179.79692 C514.125243,179.79692 515.00188,180.067468 515.648787,180.608572 C516.295694,181.149677 516.619142,181.943184 516.619142,182.989118 L516.619142,187.813689 C516.619142,188.164349 516.63728,188.499889 516.673555,188.82032 C516.70983,189.14075 516.776334,189.464199 516.873067,189.790676 L515.739474,189.790676 Z M512.175458,189.019832 C512.973511,189.019832 513.667263,188.839971 514.256735,188.480242 C514.846206,188.120513 515.273944,187.650455 515.539962,187.070052 L515.539962,185.020516 L513.354395,185.020516 C512.350782,185.020516 511.558786,185.227584 510.978384,185.641725 C510.397981,186.055867 510.107784,186.580337 510.107784,187.215152 C510.107784,187.753234 510.287646,188.188529 510.647375,188.521051 C511.007103,188.853574 511.516459,189.019832 512.175458,189.019832 L512.175458,189.019832 Z M523.148638,189.056107 C523.886233,189.056107 524.516504,188.856597 525.039471,188.45757 C525.562438,188.058543 525.842055,187.493264 525.87833,186.761715 L526.921236,186.761715 C526.891006,187.704869 526.513146,188.475705 525.787643,189.074245 C525.06214,189.672785 524.18248,189.97205 523.148638,189.97205 C521.78832,189.97205 520.749959,189.523152 520.033525,188.625342 C519.31709,187.727532 518.958878,186.544073 518.958878,185.074929 L518.958878,184.694041 C518.958878,183.236989 519.31709,182.056553 520.033525,181.152697 C520.749959,180.248841 521.785297,179.79692 523.139569,179.79692 C524.227824,179.79692 525.122598,180.1113 525.823918,180.740069 C526.525237,181.368838 526.891006,182.218269 526.921236,183.288386 L525.87833,183.288386 C525.848101,182.502424 525.576041,181.878199 525.062143,181.41569 C524.548245,180.953182 523.907394,180.721931 523.139569,180.721931 C522.063406,180.721931 521.278968,181.093746 520.78623,181.837387 C520.293493,182.581028 520.047128,183.533236 520.047128,184.694041 L520.047128,185.074929 C520.047128,186.259917 520.293493,187.219683 520.78623,187.954255 C521.278968,188.688827 522.066429,189.056107 523.148638,189.056107 L523.148638,189.056107 Z M530.312946,183.542311 L533.124257,183.542311 C534.279016,183.542311 535.166232,183.826462 535.785933,184.394773 C536.405634,184.963084 536.715479,185.715782 536.715479,186.65289 C536.715479,187.596044 536.404122,188.354788 535.781399,188.929145 C535.158675,189.503502 534.27297,189.790676 533.124257,189.790676 L529.233765,189.790676 L529.233765,179.978294 L530.312946,179.978294 L530.312946,183.542311 Z M530.312946,184.467323 L530.312946,188.874732 L533.124257,188.874732 C533.982769,188.874732 534.614552,188.667665 535.019624,188.253523 C535.424697,187.839382 535.62723,187.311889 535.62723,186.671028 C535.62723,186.05435 535.423185,185.532902 535.01509,185.106669 C534.606994,184.680436 533.976723,184.467323 533.124257,184.467323 L530.312946,184.467323 Z M92.2427301,211.845861 L91.1544809,211.845861 L91.1544809,202.967561 L85.8674031,202.967561 L85.8674031,211.845861 L84.7791538,211.845861 L84.7791538,202.03348 L92.2427301,202.03348 L92.2427301,211.845861 Z M103.061742,207.211733 C103.061742,208.70506 102.73527,209.880962 102.082317,210.739474 C101.429365,211.597986 100.507385,212.027236 99.3163505,212.027236 C98.6150308,212.027236 98.0119653,211.901786 97.5071361,211.650883 C97.0023068,211.39998 96.5896831,211.035722 96.2692525,210.558099 L96.2420463,210.567168 L96.2420463,215.618459 L95.153797,215.618459 L95.153797,202.03348 L96.0697401,202.03348 L96.2057713,203.511685 L96.2239088,203.520754 C96.5503852,202.982673 96.9660318,202.570049 97.4708611,202.28287 C97.9756904,201.995692 98.5848016,201.852105 99.298213,201.852105 C100.501339,201.852105 101.429365,202.313095 102.082317,203.235089 C102.73527,204.157082 103.061742,205.419136 103.061742,207.021289 L103.061742,207.211733 Z M101.973493,207.021289 C101.973493,205.751659 101.73015,204.729924 101.243459,203.956054 C100.756767,203.182184 100.02674,202.795255 99.0533569,202.795255 C98.3097162,202.795255 97.714208,202.966047 97.2668143,203.307639 C96.8194207,203.64923 96.4778348,204.104174 96.2420463,204.672485 L96.2420463,209.379163 C96.4959724,209.929336 96.8526727,210.355563 97.3121581,210.657856 C97.7716434,210.960149 98.358083,211.111293 99.0714944,211.111293 C100.038832,211.111293 100.764324,210.76215 101.247993,210.063853 C101.731662,209.365556 101.973493,208.414859 101.973493,207.211733 L101.973493,207.021289 Z M104.893628,206.794571 C104.893628,205.319381 105.28358,204.126853 106.063496,203.216951 C106.843412,202.307049 107.898399,201.852105 109.228488,201.852105 C110.564623,201.852105 111.622632,202.307049 112.402548,203.216951 C113.182464,204.126853 113.572416,205.319381 113.572416,206.794571 L113.572416,207.093839 C113.572416,208.575075 113.183975,209.767603 112.407083,210.671459 C111.63019,211.575315 110.576714,212.027236 109.246625,212.027236 C107.904444,212.027236 106.843412,211.575315 106.063496,210.671459 C105.28358,209.767603 104.893628,208.575075 104.893628,207.093839 L104.893628,206.794571 Z M105.981877,207.093839 C105.981877,208.254644 106.264517,209.21441 106.829805,209.973165 C107.395093,210.731921 108.200692,211.111293 109.246625,211.111293 C110.280467,211.111293 111.08002,210.731921 111.645308,209.973165 C112.210596,209.21441 112.493236,208.254644 112.493236,207.093839 L112.493236,206.794571 C112.493236,205.657949 112.207573,204.704229 111.636239,203.933382 C111.064906,203.162535 110.26233,202.777117 109.228488,202.777117 C108.1886,202.777117 107.387536,203.162535 106.825271,203.933382 C106.263006,204.704229 105.981877,205.657949 105.981877,206.794571 L105.981877,207.093839 Z M121.253642,210.376725 L125.153202,202.03348 L126.495376,202.03348 L126.495376,211.845861 L125.407127,211.845861 L125.407127,203.856298 L125.379921,203.847229 L121.63453,211.845861 L120.863686,211.845861 L117.045745,203.665854 L117.018539,203.674923 L117.018539,211.845861 L115.939358,211.845861 L115.939358,202.03348 L117.363151,202.03348 L121.253642,210.376725 Z M130.594449,205.597496 L133.405759,205.597496 C134.560519,205.597496 135.447735,205.881648 136.067436,206.449958 C136.687136,207.018269 136.996982,207.770967 136.996982,208.708076 C136.996982,209.65123 136.685625,210.409974 136.062901,210.98433 C135.440178,211.558687 134.554473,211.845861 133.405759,211.845861 L129.515268,211.845861 L129.515268,202.03348 L130.594449,202.03348 L130.594449,205.597496 Z M130.594449,206.522508 L130.594449,210.929918 L133.405759,210.929918 C134.264271,210.929918 134.896054,210.72285 135.301127,210.308709 C135.706199,209.894568 135.908733,209.367074 135.908733,208.726213 C135.908733,208.109535 135.704688,207.588088 135.296593,207.161855 C134.888497,206.735622 134.258226,206.522508 133.405759,206.522508 L130.594449,206.522508 Z M140.325211,211.845861 L139.236962,211.845861 L139.236962,202.03348 L140.325211,202.03348 L140.325211,211.845861 Z M144.505902,202.03348 L144.505902,210.929918 L148.867968,210.929918 L148.867968,202.03348 L149.956217,202.03348 L149.956217,210.929918 L154.282008,210.929918 L154.282008,202.03348 L155.370257,202.03348 L155.370257,211.845861 L143.417653,211.845861 L143.417653,202.03348 L144.505902,202.03348 Z M165.627007,202.03348 L165.627007,211.845861 L164.538758,211.845861 L164.538758,202.967561 L160.521304,202.967561 L160.385273,206.36834 C160.294585,208.381611 160.046709,209.797832 159.641636,210.617046 C159.236563,211.43626 158.502002,211.845861 157.437931,211.845861 L157.047975,211.845861 L157.066113,210.875505 L157.401656,210.866437 C158.060655,210.866437 158.521645,210.552057 158.78464,209.923287 C159.047635,209.294518 159.218427,208.109547 159.297024,206.36834 L159.478399,202.03348 L165.627007,202.03348 Z M172.337878,212.027236 C171.031972,212.027236 169.975474,211.584383 169.168352,210.698665 C168.361229,209.812947 167.957674,208.656693 167.957674,207.22987 L167.957674,206.731089 C167.957674,205.298221 168.358206,204.126853 169.159283,203.216951 C169.960359,202.307049 170.944308,201.852105 172.111159,201.852105 C173.338469,201.852105 174.289166,202.225431 174.963279,202.972095 C175.637392,203.718759 175.974444,204.742005 175.974444,206.041865 L175.974444,206.966877 L169.045924,206.966877 L169.045924,207.22987 C169.045924,208.3544 169.345189,209.282426 169.943729,210.013975 C170.542269,210.745524 171.340311,211.111293 172.337878,211.111293 C172.936418,211.111293 173.460888,211.025141 173.911305,210.852834 C174.361721,210.680527 174.789459,210.406956 175.194532,210.032112 L175.657038,210.775749 C175.288241,211.162684 174.837831,211.467996 174.305795,211.691692 C173.773759,211.915389 173.117794,212.027236 172.337878,212.027236 L172.337878,212.027236 Z M172.111159,202.777117 C171.294968,202.777117 170.61633,203.080917 170.075226,203.688526 C169.534122,204.296135 169.203116,205.083596 169.082199,206.050934 L174.895263,206.050934 L174.895263,205.778871 C174.895263,204.908268 174.65041,204.190332 174.160695,203.625045 C173.670981,203.059757 172.987809,202.777117 172.111159,202.777117 L172.111159,202.777117 Z M185.641725,211.845861 L184.553476,211.845861 L184.553476,207.347764 L179.266398,207.347764 L179.266398,211.845861 L178.178149,211.845861 L178.178149,202.03348 L179.266398,202.03348 L179.266398,206.431821 L184.553476,206.431821 L184.553476,202.03348 L185.641725,202.03348 L185.641725,211.845861 Z M196.07985,211.845861 L194.9916,211.845861 L194.9916,207.347764 L189.704522,207.347764 L189.704522,211.845861 L188.616273,211.845861 L188.616273,202.03348 L189.704522,202.03348 L189.704522,206.431821 L194.9916,206.431821 L194.9916,202.03348 L196.07985,202.03348 L196.07985,211.845861 Z M205.212075,211.845861 C205.139524,211.507293 205.088135,211.223142 205.057906,210.993399 C205.027677,210.763656 205.012562,210.530894 205.012562,210.295106 L204.985356,210.286037 C204.62865,210.793889 204.154058,211.211047 203.561563,211.537524 C202.969069,211.864 202.28892,212.027236 201.521096,212.027236 C200.547713,212.027236 199.80106,211.779359 199.281116,211.283599 C198.761172,210.787838 198.501204,210.104667 198.501204,209.234063 C198.501204,208.309046 198.886622,207.57902 199.657469,207.043961 C200.428316,206.508903 201.49086,206.241377 202.845133,206.241377 L205.012562,206.241377 L205.012562,205.026166 C205.012562,204.312754 204.79038,203.759566 204.34601,203.366585 C203.901639,202.973605 203.268345,202.777117 202.446108,202.777117 C201.672238,202.777117 201.040455,202.966047 200.55074,203.343914 C200.061026,203.72178 199.816172,204.188815 199.816172,204.745034 L198.736992,204.735966 C198.736992,203.962096 199.086135,203.287992 199.784431,202.713636 C200.482728,202.139279 201.385059,201.852105 202.491452,201.852105 C203.597844,201.852105 204.47448,202.122653 205.121387,202.663758 C205.768294,203.204862 206.091743,203.998369 206.091743,205.044303 L206.091743,209.868875 C206.091743,210.219535 206.10988,210.555075 206.146155,210.875505 C206.182431,211.195936 206.248934,211.519385 206.345668,211.845861 L205.212075,211.845861 Z M201.648058,211.075018 C202.446112,211.075018 203.139864,210.895156 203.729335,210.535428 C204.318806,210.175699 204.746545,209.70564 205.012562,209.125238 L205.012562,207.075702 L202.826995,207.075702 C201.823382,207.075702 201.031387,207.282769 200.450984,207.696911 C199.870582,208.111052 199.580385,208.635523 199.580385,209.270338 C199.580385,209.808419 199.760246,210.243715 200.119975,210.576237 C200.479704,210.908759 200.98906,211.075018 201.648058,211.075018 L201.648058,211.075018 Z M216.121774,202.03348 L216.121774,211.845861 L215.033525,211.845861 L215.033525,207.891889 L211.986427,207.891889 L209.592278,211.845861 L208.395204,211.845861 L210.861902,207.755858 C210.172674,207.574482 209.646692,207.240453 209.283941,206.753761 C208.921189,206.26707 208.739816,205.67005 208.739816,204.962684 C208.739816,204.086035 209.045128,203.37868 209.655759,202.840598 C210.266391,202.302517 211.133959,202.03348 212.258489,202.03348 L216.121774,202.03348 Z M209.828066,204.980822 C209.828066,205.549133 210.003393,206.022214 210.354053,206.40008 C210.704713,206.777947 211.242786,206.966877 211.968289,206.966877 L215.033525,206.966877 L215.033525,202.958492 L212.258489,202.958492 C211.430206,202.958492 210.818072,203.150445 210.422068,203.534357 C210.026064,203.918269 209.828066,204.400419 209.828066,204.980822 L209.828066,204.980822 Z M223.340494,210.929918 C223.87253,210.264873 224.289688,209.584724 224.591981,208.889451 C224.894274,208.194177 225.07867,207.090824 225.145174,205.579359 L225.308412,202.03348 L231.103339,202.03348 L231.103339,210.929918 L232.119038,210.929918 L232.119038,214.729722 L231.039858,214.729722 L231.039858,211.845861 L223.666969,211.845861 L223.666969,214.729722 L222.624063,214.729722 L222.633132,210.929918 L223.340494,210.929918 Z M226.224355,205.579359 C226.169942,206.885265 226.000661,207.961411 225.716505,208.807832 C225.43235,209.654252 225.057512,210.361607 224.591981,210.929918 L230.01509,210.929918 L230.01509,203.049179 L226.342248,203.049179 L226.224355,205.579359 Z M233.62445,206.794571 C233.62445,205.319381 234.014402,204.126853 234.794318,203.216951 C235.574234,202.307049 236.62922,201.852105 237.95931,201.852105 C239.295445,201.852105 240.353454,202.307049 241.13337,203.216951 C241.913286,204.126853 242.303238,205.319381 242.303238,206.794571 L242.303238,207.093839 C242.303238,208.575075 241.914797,209.767603 241.137904,210.671459 C240.361011,211.575315 239.307536,212.027236 237.977447,212.027236 C236.635266,212.027236 235.574234,211.575315 234.794318,210.671459 C234.014402,209.767603 233.62445,208.575075 233.62445,207.093839 L233.62445,206.794571 Z M234.712699,207.093839 C234.712699,208.254644 234.995339,209.21441 235.560627,209.973165 C236.125915,210.731921 236.931513,211.111293 237.977447,211.111293 C239.011289,211.111293 239.810842,210.731921 240.37613,209.973165 C240.941418,209.21441 241.224057,208.254644 241.224057,207.093839 L241.224057,206.794571 C241.224057,205.657949 240.938395,204.704229 240.367061,203.933382 C239.795727,203.162535 238.993152,202.777117 237.95931,202.777117 C236.919422,202.777117 236.118357,203.162535 235.556092,203.933382 C234.993827,204.704229 234.712699,205.657949 234.712699,206.794571 L234.712699,207.093839 Z M248.506259,202.68643 C249.794027,202.68643 250.814251,203.089985 251.56696,203.897107 C252.31967,204.704229 252.696019,205.76375 252.696019,207.075702 L252.696019,207.37497 C252.696019,208.771564 252.307578,209.897588 251.530685,210.753077 C250.753792,211.608567 249.697294,212.036305 248.361159,212.036305 C247.025024,212.036305 245.967014,211.608567 245.187099,210.753077 C244.407183,209.897588 244.017231,208.771564 244.017231,207.37497 L244.017231,206.250446 C244.017231,204.237175 244.405671,202.645626 245.182564,201.475752 C245.959457,200.305878 247.040138,199.606081 248.42464,199.376338 C249.349657,199.237283 249.998065,199.046842 250.369886,198.805007 C250.741706,198.563173 250.927614,198.215541 250.927614,197.762102 L251.861694,197.762102 C251.861694,198.620614 251.594169,199.229725 251.05911,199.589453 C250.524052,199.949182 249.718453,200.19857 248.64229,200.337625 C247.717274,200.458542 246.941904,200.84396 246.316157,201.49389 C245.690411,202.14382 245.277787,203.058242 245.078274,204.237185 L245.10548,204.255322 C245.510552,203.771654 246.00026,203.389259 246.574616,203.108126 C247.148973,202.826994 247.792847,202.68643 248.506259,202.68643 L248.506259,202.68643 Z M248.343022,203.602373 C247.30918,203.602373 246.511138,203.93489 245.948873,204.599935 C245.386608,205.264979 245.10548,206.090227 245.10548,207.075702 L245.10548,207.37497 C245.10548,208.451133 245.386608,209.344396 245.948873,210.054784 C246.511138,210.765173 247.315225,211.120362 248.361159,211.120362 C249.395001,211.120362 250.194554,210.765173 250.759842,210.054784 C251.32513,209.344396 251.607769,208.451133 251.607769,207.37497 L251.607769,207.075702 C251.607769,206.084181 251.323618,205.257422 250.755307,204.5954 C250.186997,203.933379 249.382909,203.602373 248.343022,203.602373 L248.343022,203.602373 Z M255.969835,205.597496 L258.781146,205.597496 C259.935905,205.597496 260.823122,205.881648 261.442822,206.449958 C262.062523,207.018269 262.372369,207.770967 262.372369,208.708076 C262.372369,209.65123 262.061011,210.409974 261.438288,210.98433 C260.815564,211.558687 259.929859,211.845861 258.781146,211.845861 L254.890655,211.845861 L254.890655,202.03348 L255.969835,202.03348 L255.969835,205.597496 Z M255.969835,206.522508 L255.969835,210.929918 L258.781146,210.929918 C259.639658,210.929918 260.271441,210.72285 260.676513,210.308709 C261.081586,209.894568 261.284119,209.367074 261.284119,208.726213 C261.284119,208.109535 261.080075,207.588088 260.671979,207.161855 C260.263884,206.735622 259.633612,206.522508 258.781146,206.522508 L255.969835,206.522508 Z M265.700598,211.845861 L264.612348,211.845861 L264.612348,202.03348 L265.700598,202.03348 L265.700598,211.845861 Z M275.703422,211.845861 L274.615173,211.845861 L274.615173,207.719583 C274.191963,207.870729 273.764225,207.990133 273.331946,208.077798 C272.899667,208.165463 272.471929,208.209295 272.048718,208.209295 C270.76095,208.209295 269.814788,207.932701 269.210202,207.379505 C268.605616,206.826308 268.303327,205.872588 268.303327,204.518316 L268.303327,202.03348 L269.382508,202.03348 L269.382508,204.518316 C269.382508,205.56425 269.586552,206.285208 269.994648,206.681211 C270.402743,207.077215 271.087427,207.275214 272.048718,207.275214 C272.490066,207.269168 272.931407,207.223825 273.372755,207.139183 C273.814103,207.054541 274.228238,206.942694 274.615173,206.803639 L274.615173,202.03348 L275.703422,202.03348 L275.703422,211.845861 Z M284.835648,211.845861 C284.763097,211.507293 284.711708,211.223142 284.681479,210.993399 C284.65125,210.763656 284.636135,210.530894 284.636135,210.295106 L284.608929,210.286037 C284.252223,210.793889 283.77763,211.211047 283.185136,211.537524 C282.592642,211.864 281.912493,212.027236 281.144669,212.027236 C280.171285,212.027236 279.424633,211.779359 278.904689,211.283599 C278.384745,210.787838 278.124777,210.104667 278.124777,209.234063 C278.124777,208.309046 278.510195,207.57902 279.281042,207.043961 C280.051889,206.508903 281.114433,206.241377 282.468705,206.241377 L284.636135,206.241377 L284.636135,205.026166 C284.636135,204.312754 284.413953,203.759566 283.969583,203.366585 C283.525212,202.973605 282.891918,202.777117 282.069681,202.777117 C281.295811,202.777117 280.664028,202.966047 280.174313,203.343914 C279.684599,203.72178 279.439745,204.188815 279.439745,204.745034 L278.360564,204.735966 C278.360564,203.962096 278.709707,203.287992 279.408004,202.713636 C280.106301,202.139279 281.008632,201.852105 282.115024,201.852105 C283.221417,201.852105 284.098053,202.122653 284.74496,202.663758 C285.391867,203.204862 285.715316,203.998369 285.715316,205.044303 L285.715316,209.868875 C285.715316,210.219535 285.733453,210.555075 285.769728,210.875505 C285.806003,211.195936 285.872507,211.519385 285.969241,211.845861 L284.835648,211.845861 Z M281.271631,211.075018 C282.069685,211.075018 282.763437,210.895156 283.352908,210.535428 C283.942379,210.175699 284.370117,209.70564 284.636135,209.125238 L284.636135,207.075702 L282.450568,207.075702 C281.446955,207.075702 280.654959,207.282769 280.074557,207.696911 C279.494154,208.111052 279.203958,208.635523 279.203958,209.270338 C279.203958,209.808419 279.383819,210.243715 279.743548,210.576237 C280.103276,210.908759 280.612632,211.075018 281.271631,211.075018 L281.271631,211.075018 Z M300.642468,211.845861 L299.554219,211.845861 L299.554219,207.347764 L294.267141,207.347764 L294.267141,211.845861 L293.178892,211.845861 L293.178892,202.03348 L294.267141,202.03348 L294.267141,206.431821 L299.554219,206.431821 L299.554219,202.03348 L300.642468,202.03348 L300.642468,211.845861 Z M307.34427,212.027236 C306.038365,212.027236 304.981867,211.584383 304.174744,210.698665 C303.367622,209.812947 302.964067,208.656693 302.964067,207.22987 L302.964067,206.731089 C302.964067,205.298221 303.364599,204.126853 304.165676,203.216951 C304.966752,202.307049 305.950701,201.852105 307.117552,201.852105 C308.344861,201.852105 309.295558,202.225431 309.969672,202.972095 C310.643785,203.718759 310.980837,204.742005 310.980837,206.041865 L310.980837,206.966877 L304.052316,206.966877 L304.052316,207.22987 C304.052316,208.3544 304.351582,209.282426 304.950122,210.013975 C305.548662,210.745524 306.346704,211.111293 307.34427,211.111293 C307.94281,211.111293 308.467281,211.025141 308.917697,210.852834 C309.368114,210.680527 309.795852,210.406956 310.200925,210.032112 L310.663431,210.775749 C310.294633,211.162684 309.844223,211.467996 309.312188,211.691692 C308.780152,211.915389 308.124186,212.027236 307.34427,212.027236 L307.34427,212.027236 Z M307.117552,202.777117 C306.301361,202.777117 305.622723,203.080917 305.081619,203.688526 C304.540514,204.296135 304.209508,205.083596 304.088591,206.050934 L309.901656,206.050934 L309.901656,205.778871 C309.901656,204.908268 309.656803,204.190332 309.167088,203.625045 C308.677373,203.059757 307.994201,202.777117 307.117552,202.777117 L307.117552,202.777117 Z M312.703898,207.021289 C312.703898,205.419136 313.007698,204.157082 313.615307,203.235089 C314.222916,202.313095 315.098041,201.852105 316.240708,201.852105 C316.567185,201.852105 316.863427,201.889891 317.129445,201.965464 C317.395463,202.041038 317.637294,202.145327 317.854945,202.278336 L317.854945,197.69862 L318.934125,197.69862 L318.934125,202.314611 C319.151776,202.163465 319.395118,202.048595 319.664159,201.969999 C319.9332,201.891403 320.246068,201.852105 320.602774,201.852105 C321.745442,201.852105 322.622078,202.313095 323.23271,203.235089 C323.843342,204.157082 324.148653,205.419136 324.148653,207.021289 L324.148653,207.211733 C324.148653,208.711106 323.844853,209.890031 323.237244,210.748543 C322.629635,211.607055 321.757533,212.036305 320.620912,212.036305 C320.270252,212.036305 319.957383,212.00003 319.682297,211.92748 C319.40721,211.854929 319.157822,211.749129 318.934125,211.610074 L318.934125,215.618459 L317.854945,215.618459 L317.854945,211.619142 C317.631248,211.758197 317.386394,211.862487 317.120376,211.932014 C316.854359,212.001542 316.555093,212.036305 316.222571,212.036305 C315.091995,212.036305 314.222916,211.607055 313.615307,210.748543 C313.007698,209.890031 312.703898,208.711106 312.703898,207.211733 L312.703898,207.021289 Z M323.069473,207.021289 C323.069473,205.745613 322.845779,204.719344 322.398385,203.942451 C321.950992,203.165558 321.273866,202.777117 320.366987,202.777117 C320.028419,202.777117 319.744268,202.813392 319.514525,202.885942 C319.284782,202.958492 319.091318,203.055225 318.934125,203.176142 L318.934125,210.766681 C319.109455,210.875506 319.3135,210.961658 319.546265,211.02514 C319.779031,211.088621 320.058648,211.120362 320.385124,211.120362 C321.292003,211.120362 321.966106,210.771218 322.407454,210.072922 C322.848802,209.374625 323.069473,208.420905 323.069473,207.211733 L323.069473,207.021289 Z M313.792147,207.211733 C313.792147,208.426951 314.005261,209.382182 314.431494,210.077456 C314.857727,210.77273 315.524273,211.120362 316.431152,211.120362 C316.739491,211.120362 317.008527,211.08711 317.23827,211.020605 C317.468013,210.954101 317.673569,210.863414 317.854945,210.748543 L317.854945,203.148936 C317.691706,203.034064 317.49673,202.943378 317.270011,202.876873 C317.043291,202.810369 316.76972,202.777117 316.449289,202.777117 C315.54241,202.777117 314.872842,203.164046 314.440563,203.937916 C314.008284,204.711786 313.792147,205.739567 313.792147,207.021289 L313.792147,207.211733 Z M332.890922,202.958492 L329.317837,202.958492 L329.317837,211.845861 L328.229588,211.845861 L328.229588,202.958492 L324.792534,202.958492 L324.792534,202.03348 L332.890922,202.03348 L332.890922,202.958492 Z M341.116273,202.03348 L342.204522,202.03348 L342.204522,211.845861 L341.116273,211.845861 L341.116273,203.783748 L341.089067,203.774679 L335.820127,211.845861 L334.740946,211.845861 L334.740946,202.03348 L335.820127,202.03348 L335.820127,210.095593 L335.847333,210.104662 L341.116273,202.03348 Z M349.740649,211.845861 L349.740649,202.03348 L353.34094,202.03348 C354.586387,202.03348 355.541619,202.248105 356.206663,202.677361 C356.871708,203.106617 357.204225,203.765606 357.204225,204.654347 C357.204225,205.162199 357.057615,205.60354 356.764391,205.978384 C356.471167,206.353227 356.05552,206.622264 355.517439,206.785502 L355.517439,206.812708 C356.146208,206.927579 356.649518,207.198128 357.027385,207.624361 C357.405251,208.050594 357.594181,208.550881 357.594181,209.125238 C357.594181,210.032117 357.275267,210.712266 356.637429,211.165705 C355.99959,211.619145 355.109351,211.845861 353.966684,211.845861 L349.740649,211.845861 Z M350.819829,207.329627 L350.819829,210.938987 L353.966684,210.938987 C354.794966,210.938987 355.426749,210.78482 355.862051,210.476481 C356.297353,210.168142 356.515001,209.711686 356.515001,209.1071 C356.515001,208.550881 356.29433,208.115586 355.852982,207.801201 C355.411635,207.486817 354.782875,207.329627 353.966684,207.329627 L350.819829,207.329627 Z M350.819829,206.422752 L353.567659,206.422752 C354.420125,206.41066 355.059465,206.261028 355.485698,205.973849 C355.911931,205.686671 356.125045,205.25591 356.125045,204.681553 C356.125045,204.089059 355.895305,203.653764 355.43582,203.375654 C354.976335,203.097545 354.278048,202.958492 353.34094,202.958492 L350.819829,202.958492 L350.819829,206.422752 Z M364.840108,211.845861 L364.840108,198.64177 L368.694324,198.64177 C370.090917,198.64177 371.165553,198.925921 371.918262,199.494232 C372.670972,200.062542 373.047321,200.936156 373.047321,202.115099 C373.047321,202.804327 372.861414,203.395301 372.489593,203.888038 C372.117773,204.380776 371.608417,204.72085 370.96151,204.908272 L370.96151,204.935478 C371.753517,205.080579 372.394369,205.453905 372.884084,206.055468 C373.373798,206.657031 373.618652,207.362875 373.618652,208.17302 C373.618652,209.376146 373.243814,210.289057 372.494128,210.91178 C371.744441,211.534504 370.713637,211.845861 369.401686,211.845861 L364.840108,211.845861 Z M365.919288,205.479603 L365.919288,210.929918 L369.401686,210.929918 C370.399253,210.929918 371.170088,210.694133 371.714216,210.222556 C372.258343,209.750979 372.530403,209.073853 372.530403,208.191157 C372.530403,207.381012 372.282526,206.726558 371.786766,206.227774 C371.291005,205.728991 370.553421,205.479603 369.573992,205.479603 L365.919288,205.479603 Z M365.919288,204.56366 L368.957317,204.56366 C369.930701,204.56366 370.67433,204.358103 371.188228,203.946985 C371.702127,203.535867 371.959072,202.913152 371.959072,202.078824 C371.959072,201.226358 371.687012,200.594575 371.142885,200.183456 C370.598757,199.772338 369.782579,199.566782 368.694324,199.566782 L365.919288,199.566782 L365.919288,204.56366 Z M375.441469,206.794571 C375.441469,205.319381 375.831422,204.126853 376.611337,203.216951 C377.391253,202.307049 378.44624,201.852105 379.776329,201.852105 C381.112464,201.852105 382.170474,202.307049 382.95039,203.216951 C383.730305,204.126853 384.120257,205.319381 384.120257,206.794571 L384.120257,207.093839 C384.120257,208.575075 383.731817,209.767603 382.954924,210.671459 C382.178031,211.575315 381.124556,212.027236 379.794467,212.027236 C378.452286,212.027236 377.391253,211.575315 376.611337,210.671459 C375.831422,209.767603 375.441469,208.575075 375.441469,207.093839 L375.441469,206.794571 Z M376.529719,207.093839 C376.529719,208.254644 376.812358,209.21441 377.377646,209.973165 C377.942934,210.731921 378.748533,211.111293 379.794467,211.111293 C380.828309,211.111293 381.627862,210.731921 382.193149,209.973165 C382.758437,209.21441 383.041077,208.254644 383.041077,207.093839 L383.041077,206.794571 C383.041077,205.657949 382.755414,204.704229 382.184081,203.933382 C381.612747,203.162535 380.810171,202.777117 379.776329,202.777117 C378.736441,202.777117 377.935377,203.162535 377.373112,203.933382 C376.810847,204.704229 376.529719,205.657949 376.529719,206.794571 L376.529719,207.093839 Z M390.02401,211.111293 C390.761605,211.111293 391.391876,210.911782 391.914843,210.512756 C392.43781,210.113729 392.717427,209.54845 392.753702,208.816901 L393.796607,208.816901 C393.766378,209.760055 393.388518,210.53089 392.663014,211.12943 C391.937511,211.72797 391.057852,212.027236 390.02401,212.027236 C388.663691,212.027236 387.625331,211.578338 386.908896,210.680527 C386.192462,209.782717 385.83425,208.599258 385.83425,207.130114 L385.83425,206.749227 C385.83425,205.292175 386.192462,204.111738 386.908896,203.207882 C387.625331,202.304026 388.660669,201.852105 390.014941,201.852105 C391.103196,201.852105 391.99797,202.166485 392.699289,202.795255 C393.400609,203.424024 393.766378,204.273454 393.796607,205.343572 L392.753702,205.343572 C392.723473,204.55761 392.451413,203.933384 391.937515,203.470876 C391.423617,203.008368 390.782765,202.777117 390.014941,202.777117 C388.938778,202.777117 388.15434,203.148932 387.661602,203.892573 C387.168864,204.636213 386.922499,205.588422 386.922499,206.749227 L386.922499,207.130114 C386.922499,208.315103 387.168864,209.274868 387.661602,210.00944 C388.15434,210.744012 388.941801,211.111293 390.02401,211.111293 L390.02401,211.111293 Z M403.037658,202.958492 L399.464572,202.958492 L399.464572,211.845861 L398.376323,211.845861 L398.376323,202.958492 L394.939269,202.958492 L394.939269,202.03348 L403.037658,202.03348 L403.037658,202.958492 Z M403.844776,206.794571 C403.844776,205.319381 404.234728,204.126853 405.014644,203.216951 C405.79456,202.307049 406.849546,201.852105 408.179635,201.852105 C409.51577,201.852105 410.57378,202.307049 411.353696,203.216951 C412.133612,204.126853 412.523564,205.319381 412.523564,206.794571 L412.523564,207.093839 C412.523564,208.575075 412.135123,209.767603 411.35823,210.671459 C410.581337,211.575315 409.527862,212.027236 408.197773,212.027236 C406.855592,212.027236 405.79456,211.575315 405.014644,210.671459 C404.234728,209.767603 403.844776,208.575075 403.844776,207.093839 L403.844776,206.794571 Z M404.933025,207.093839 C404.933025,208.254644 405.215665,209.21441 405.780953,209.973165 C406.346241,210.731921 407.151839,211.111293 408.197773,211.111293 C409.231615,211.111293 410.031168,210.731921 410.596456,209.973165 C411.161744,209.21441 411.444383,208.254644 411.444383,207.093839 L411.444383,206.794571 C411.444383,205.657949 411.158721,204.704229 410.587387,203.933382 C410.016053,203.162535 409.213477,202.777117 408.179635,202.777117 C407.139748,202.777117 406.338683,203.162535 405.776418,203.933382 C405.214153,204.704229 404.933025,205.657949 404.933025,206.794571 L404.933025,207.093839 Z M421.755545,211.845861 L420.667296,211.845861 L420.667296,207.719583 C420.244086,207.870729 419.816348,207.990133 419.384069,208.077798 C418.95179,208.165463 418.524052,208.209295 418.100841,208.209295 C416.813073,208.209295 415.866911,207.932701 415.262325,207.379505 C414.657739,206.826308 414.35545,205.872588 414.35545,204.518316 L414.35545,202.03348 L415.434631,202.03348 L415.434631,204.518316 C415.434631,205.56425 415.638675,206.285208 416.046771,206.681211 C416.454866,207.077215 417.13955,207.275214 418.100841,207.275214 C418.542189,207.269168 418.98353,207.223825 419.424878,207.139183 C419.866226,207.054541 420.280361,206.942694 420.667296,206.803639 L420.667296,202.03348 L421.755545,202.03348 L421.755545,211.845861 Z M432.19367,211.845861 L431.10542,211.845861 L431.10542,207.347764 L425.818343,207.347764 L425.818343,211.845861 L424.730093,211.845861 L424.730093,202.03348 L425.818343,202.03348 L425.818343,206.431821 L431.10542,206.431821 L431.10542,202.03348 L432.19367,202.03348 L432.19367,211.845861 Z M434.506199,206.794571 C434.506199,205.319381 434.896152,204.126853 435.676067,203.216951 C436.455983,202.307049 437.51097,201.852105 438.841059,201.852105 C440.177194,201.852105 441.235204,202.307049 442.01512,203.216951 C442.795035,204.126853 443.184988,205.319381 443.184988,206.794571 L443.184988,207.093839 C443.184988,208.575075 442.796547,209.767603 442.019654,210.671459 C441.242761,211.575315 440.189286,212.027236 438.859197,212.027236 C437.517016,212.027236 436.455983,211.575315 435.676067,210.671459 C434.896152,209.767603 434.506199,208.575075 434.506199,207.093839 L434.506199,206.794571 Z M435.594449,207.093839 C435.594449,208.254644 435.877088,209.21441 436.442376,209.973165 C437.007664,210.731921 437.813263,211.111293 438.859197,211.111293 C439.893039,211.111293 440.692592,210.731921 441.257879,209.973165 C441.823167,209.21441 442.105807,208.254644 442.105807,207.093839 L442.105807,206.794571 C442.105807,205.657949 441.820144,204.704229 441.248811,203.933382 C440.677477,203.162535 439.874901,202.777117 438.841059,202.777117 C437.801171,202.777117 437.000107,203.162535 436.437842,203.933382 C435.875577,204.704229 435.594449,205.657949 435.594449,206.794571 L435.594449,207.093839 Z M451.881913,202.03348 L452.970162,202.03348 L452.970162,211.845861 L451.881913,211.845861 L451.881913,203.783748 L451.854707,203.774679 L446.585767,211.845861 L445.506586,211.845861 L445.506586,202.03348 L446.585767,202.03348 L446.585767,210.095593 L446.612973,210.104662 L451.881913,202.03348 Z M451.827501,198.142989 C451.827501,198.8564 451.594738,199.424703 451.129207,199.847913 C450.663676,200.271123 450.022825,200.482725 449.206634,200.482725 C448.384397,200.482725 447.742034,200.271123 447.279525,199.847913 C446.817017,199.424703 446.585767,198.8564 446.585767,198.142989 L447.510778,198.142989 C447.510778,198.614566 447.643785,198.990915 447.909803,199.272047 C448.175821,199.55318 448.608093,199.693744 449.206634,199.693744 C449.787036,199.693744 450.214774,199.551668 450.489861,199.267513 C450.764947,198.983358 450.902489,198.60852 450.902489,198.142989 L451.827501,198.142989 Z M469.919645,207.73772 C469.774544,209.116176 469.293906,210.177208 468.477715,210.920849 C467.661524,211.66449 466.546079,212.036305 465.131348,212.036305 C463.631975,212.036305 462.437936,211.514857 461.549194,210.471946 C460.660453,209.429036 460.216089,208.046066 460.216089,206.322996 L460.216089,204.173704 C460.216089,202.456679 460.660453,201.07371 461.549194,200.024753 C462.437936,198.975797 463.631975,198.451326 465.131348,198.451326 C466.558171,198.451326 467.67815,198.818607 468.491318,199.553179 C469.304486,200.28775 469.78059,201.35634 469.919645,202.75898 L468.840464,202.75898 C468.695364,201.640496 468.323549,200.797111 467.725009,200.2288 C467.126469,199.660489 466.261924,199.376338 465.131348,199.376338 C463.952405,199.376338 463.019846,199.816168 462.333641,200.69584 C461.647436,201.575513 461.304338,202.728743 461.304338,204.155566 L461.304338,206.322996 C461.304338,207.767956 461.647436,208.928744 462.333641,209.805394 C463.019846,210.682043 463.952405,211.120362 465.131348,211.120362 C466.26797,211.120362 467.134026,210.845279 467.729543,210.295106 C468.32506,209.744933 468.695364,208.892479 468.840464,207.73772 L469.919645,207.73772 Z M478.788877,202.03348 L479.877126,202.03348 L479.877126,211.845861 L478.788877,211.845861 L478.788877,203.783748 L478.76167,203.774679 L473.49273,211.845861 L472.41355,211.845861 L472.41355,202.03348 L473.49273,202.03348 L473.49273,210.095593 L473.519936,210.104662 L478.788877,202.03348 Z M486.733096,202.68643 C488.020865,202.68643 489.041088,203.089985 489.793798,203.897107 C490.546507,204.704229 490.922856,205.76375 490.922856,207.075702 L490.922856,207.37497 C490.922856,208.771564 490.534416,209.897588 489.757523,210.753077 C488.98063,211.608567 487.924132,212.036305 486.587997,212.036305 C485.251862,212.036305 484.193852,211.608567 483.413936,210.753077 C482.63402,209.897588 482.244068,208.771564 482.244068,207.37497 L482.244068,206.250446 C482.244068,204.237175 482.632509,202.645626 483.409402,201.475752 C484.186295,200.305878 485.266976,199.606081 486.651478,199.376338 C487.576494,199.237283 488.224903,199.046842 488.596723,198.805007 C488.968544,198.563173 489.154451,198.215541 489.154451,197.762102 L490.088532,197.762102 C490.088532,198.620614 489.821006,199.229725 489.285948,199.589453 C488.750889,199.949182 487.945291,200.19857 486.869128,200.337625 C485.944111,200.458542 485.168741,200.84396 484.542995,201.49389 C483.917248,202.14382 483.504625,203.058242 483.305111,204.237185 L483.332317,204.255322 C483.73739,203.771654 484.227097,203.389259 484.801454,203.108126 C485.375811,202.826994 486.019685,202.68643 486.733096,202.68643 L486.733096,202.68643 Z M486.569859,203.602373 C485.536017,203.602373 484.737976,203.93489 484.175711,204.599935 C483.613446,205.264979 483.332317,206.090227 483.332317,207.075702 L483.332317,207.37497 C483.332317,208.451133 483.613446,209.344396 484.175711,210.054784 C484.737976,210.765173 485.542063,211.120362 486.587997,211.120362 C487.621839,211.120362 488.421391,210.765173 488.986679,210.054784 C489.551967,209.344396 489.834607,208.451133 489.834607,207.37497 L489.834607,207.075702 C489.834607,206.084181 489.550456,205.257422 488.982145,204.5954 C488.413834,203.933379 487.609747,203.602373 486.569859,203.602373 L486.569859,203.602373 Z M499.293307,202.03348 L500.381556,202.03348 L500.381556,211.845861 L499.293307,211.845861 L499.293307,203.783748 L499.266101,203.774679 L493.99716,211.845861 L492.91798,211.845861 L492.91798,202.03348 L493.99716,202.03348 L493.99716,210.095593 L494.024367,210.104662 L499.293307,202.03348 Z M511.200568,207.211733 C511.200568,208.70506 510.874096,209.880962 510.221144,210.739474 C509.568191,211.597986 508.646211,212.027236 507.455177,212.027236 C506.753857,212.027236 506.150791,211.901786 505.645962,211.650883 C505.141133,211.39998 504.728509,211.035722 504.408079,210.558099 L504.380872,210.567168 L504.380872,215.618459 L503.292623,215.618459 L503.292623,202.03348 L504.208566,202.03348 L504.344597,203.511685 L504.362735,203.520754 C504.689211,202.982673 505.104858,202.570049 505.609687,202.28287 C506.114516,201.995692 506.723628,201.852105 507.437039,201.852105 C508.640165,201.852105 509.568191,202.313095 510.221144,203.235089 C510.874096,204.157082 511.200568,205.419136 511.200568,207.021289 L511.200568,207.211733 Z M510.112319,207.021289 C510.112319,205.751659 509.868976,204.729924 509.382285,203.956054 C508.895593,203.182184 508.165566,202.795255 507.192183,202.795255 C506.448542,202.795255 505.853034,202.966047 505.40564,203.307639 C504.958247,203.64923 504.616661,204.104174 504.380872,204.672485 L504.380872,209.379163 C504.634798,209.929336 504.991499,210.355563 505.450984,210.657856 C505.91047,210.960149 506.496909,211.111293 507.210321,211.111293 C508.177658,211.111293 508.90315,210.76215 509.386819,210.063853 C509.870488,209.365556 510.112319,208.414859 510.112319,207.211733 L510.112319,207.021289 Z M520.0698,202.03348 L521.158049,202.03348 L521.158049,211.845861 L520.0698,211.845861 L520.0698,203.783748 L520.042593,203.774679 L514.773653,211.845861 L513.694473,211.845861 L513.694473,202.03348 L514.773653,202.03348 L514.773653,210.095593 L514.800859,210.104662 L520.0698,202.03348 Z" id="Путешествие-по-место" fill="#000000"></path>
        </g>
    </g>
</svg>