<?xml version="1.0" encoding="UTF-8"?>
<svg width="634px" height="634px" viewBox="0 0 634 634" version="1.1" xmlns="http://www.w3.org/2000/svg" xmlns:xlink="http://www.w3.org/1999/xlink">
    <title>mini-map-hover</title>
    <defs>
        <circle id="path-1" cx="317" cy="317" r="317"></circle>
    </defs>
    <g id="PanoTour" stroke="none" stroke-width="1" fill="none" fill-rule="evenodd">
        <g id="start-pano" transform="translate(-635, -875)">
            <g id="mini-map-hover" transform="translate(635, 875)">
                <mask id="mask-2" fill="white">
                    <use xlink:href="#path-1"></use>
                </mask>
                <use id="Mask" fill="#FFFFFF" xlink:href="#path-1"></use>
                <g id="front-map" mask="url(#mask-2)">
                    <g transform="translate(0, -14.668)">
                        <circle id="Oval" stroke="none" fill="#FFFFFF" fill-rule="evenodd" cx="317" cy="331.667969" r="317"></circle>
                        <path d="M325.421875,322.316406 C324.057028,320.284434 323.217063,318.487687 320.574357,314.55759 C317.182148,309.512872 313.858825,303.661723 313.483841,298.948304 C310.138441,256.897723 328.526454,236.01755 300.421875,202.316406" id="Path-2" stroke="#FBF313" stroke-width="16" fill="none" stroke-linecap="round" stroke-linejoin="round"></path>
                        <path d="M578.710938,119.960938 C569.24059,131.320007 561.521275,141.156452 558.300781,145.128906 C545.935721,160.381116 542.3419,174.605874 533.695313,191.09375 C531.774345,194.756777 509.136258,222.265169 498.644531,230.976563 C464.825617,259.05677 419.056619,288.158956 379.761719,309.25 C374.887668,311.866085 317.476684,339.355587 296.892578,352.03125 C283.460538,360.302681 281.024628,367.093854 274.037109,375.121094 C269.368603,380.484259 262.875543,393.909929 255.621094,395.867187 C236.032711,401.152155 217.597164,386.333712 194.494141,390.117188 C179.074634,392.642369 179.700851,403.13653 164.863281,407.757813 C156.556922,410.344896 134.234606,404.148495 130.851562,407.757813 C126.138168,412.786461 125.458134,421.702885 120.826172,426.806641 C119.498382,428.269673 109.481429,432.038462 107.527344,432.330078 C101.445331,433.237723 92.4201654,435.129518 86.5078125,436.820313 C83.7894802,437.597692 82.6897711,442.507469 84.3554688,444.59375 C86.9940285,447.898538 93.9510842,457.42595 96.0214844,461.775391 C98.7106877,467.424796 112.766117,472.763242 111.662109,478.921875 C109.873162,488.901396 78.7408719,477.081697 73.9726563,477.1875 C66.5924253,477.351261 59.2019993,477.875195 51.8945313,478.921875 C49.2818472,479.296101 23.2565929,495.005421 19.5,497.667969" id="Path-4" stroke="#FBC413" stroke-width="16" fill="none" stroke-linecap="round" stroke-linejoin="round"></path>
                        <path d="M203.429688,219.609375 C209.204464,219.704698 228.745495,220.829105 235.238281,218.15625 C240.339593,216.056217 244.492355,212.089617 248.667969,208.484375 C252.931944,204.802842 255.052519,197.955033 260.460938,196.378906 C270.049091,193.584716 280.434896,196.33724 290.421875,196.316406" id="Path-5" stroke="#28BFE5" stroke-width="16" fill="none" stroke-linecap="round" stroke-linejoin="round"></path>
                        <path d="M325.027344,219.803711 C355.927918,191.109765 332.112231,226.368955 345.944444,174.667969 C346.791867,171.500538 353.871094,168.518066 357.273438,162.123535 C365.263571,147.106488 362.291024,130.293937 359.902344,112.488281 C359.554513,109.895491 355.911393,93.6844292 352.96875,89.9179688 C349.741932,85.7877756 342.631109,79.6434951 341.949219,74.4467773 C340.631676,64.4057239 345.004705,59.2337189 347.660156,49.4609375 C353.752141,27.040775 365.919401,35.6547729 376.980469,20.5507813 C378.406279,18.603824 378.887863,15.7792421 379.078174,12.7322078 C379.356102,8.28236975 379.012827,3.35810321 380.082031,0" id="Path-6" stroke="#A51D46" stroke-width="16" fill="none" stroke-linecap="round" stroke-linejoin="round"></path>
                        <path d="M614.542969,173.667969 C600.105101,172.162843 585.618034,168.87829 573.683594,176.214844 C548.269792,191.837672 525.721205,215.979265 509.515625,240.824219 C504.211889,248.955435 492.78377,264.511398 490.90625,265.925781 C479.388979,274.602032 458.402158,287.903837 445.792969,298.675781 C432.28125,310.21875 426.105469,327.265625 432.027344,341.753906 C441.854955,365.797845 449.765625,376.588251 384.652344,433.675781 C364.381626,451.447965 348.457031,460.285156 312.996094,443.175781 C292.754708,433.409614 288.660156,460.285156 243.257812,460.285156 C228.002295,460.285156 214.60682,498.185953 200.714844,503.777344 C181.056729,511.689552 175.836641,503.391563 160.375,517.847656 C151.545419,526.103006 157.524859,549.670057 165.800781,553.238281 C201.163012,568.484963 220.488281,564.469673 220.488281,598.121094 C220.488281,619.679893 198.246094,635.398438 165.800781,635.398438" id="Path-7" stroke="#1F97D3" stroke-width="22" fill="none" stroke-linecap="round" stroke-linejoin="round"></path>
                        <g id="pin-hover" stroke="none" stroke-width="1" fill="none" fill-rule="evenodd" transform="translate(137, 99.668)">
                            <path d="M44.5,0 C69.0766714,0 89,19.3413599 89,43.2001364 C89,51.9548658 83.6310054,62.3926278 76.2857143,73.33388 C64.3622556,91.0945875 48.0898945,111.20755 47.5238579,135.247666 C47.2025046,137.325652 45.4195369,138 44.5,138 C43.590476,138 41.5705713,136.982101 41.5705713,135.247666 C41.570571,114.012403 24.6092227,91.8012962 12.5234669,73.33388 C4.87455469,61.6461008 0,52.1052789 0,43.2001364 C0,19.3413599 19.9233286,0 44.5,0 Z M43.3875,22.2580645 C31.7135811,22.2580645 22.25,31.2268119 22.25,42.2903226 C22.25,53.3538332 31.7135811,62.3225806 43.3875,62.3225806 C55.0614189,62.3225806 64.525,53.3538332 64.525,42.2903226 C64.525,31.2268119 55.0614189,22.2580645 43.3875,22.2580645 Z" id="Combined-Shape" fill="#C72032" fill-rule="nonzero"></path>
                            <ellipse id="oval" fill="#FFFFFF" fill-rule="nonzero" cx="44" cy="42" rx="19" ry="18"></ellipse>
                        </g>
                        <g id="pin-hover" stroke="none" stroke-width="1" fill="none" fill-rule="evenodd" transform="translate(308, 102.668)">
                            <path d="M44.5,-4 C57.8790306,-4 69.9864842,1.27308402 78.7524508,9.78299308 C87.5619734,18.3351859 93,30.1529417 93,43.2001364 C93,52.5628299 87.4954899,63.8126398 79.6067362,75.5634121 C78.0612101,77.8655661 76.4431836,80.2070628 74.7955717,82.5911458 C64.1600479,97.9806763 51.997471,115.179948 51.5227496,135.341822 C51.1769559,137.798325 50.2746465,139.166466 49.2203082,140.126132 C47.6786479,141.52936 45.7368029,142 44.5,142 C43.3129808,142 41.2069359,141.392005 39.6732641,139.951049 C38.4027708,138.757362 37.5705713,137.137643 37.5705713,135.247666 C37.5705711,120.889626 29.3357999,106.139649 20.457459,92.4837769 L19.6950593,91.3159877 C17.7860051,88.4033866 15.8573586,85.5429745 13.9838144,82.7493738 C12.3324617,80.2870777 10.7152053,77.8754612 9.1764941,75.524262 C0.971592592,62.9869136 -4,52.7134625 -4,43.2001364 C-4,30.1529417 1.43802656,18.3351859 10.2475492,9.78299308 C19.0135158,1.27308402 31.1209694,-4 44.5,-4 Z M43.3875,26.2580645 C38.6295395,26.2580645 34.3134982,28.0709157 31.1925343,31.02869 C28.1514167,33.9107931 26.25,37.8866154 26.25,42.2903226 C26.25,46.6940298 28.1514167,50.669852 31.1925343,53.5519551 C34.3134982,56.5097294 38.6295395,58.3225806 43.3875,58.3225806 C48.1454605,58.3225806 52.4615018,56.5097294 55.5824657,53.5519551 C58.6235833,50.669852 60.525,46.6940298 60.525,42.2903226 C60.525,37.8866154 58.6235833,33.9107931 55.5824657,31.02869 C52.4615018,28.0709157 48.1454605,26.2580645 43.3875,26.2580645 Z" id="Combined-Shape" stroke="#FFFFFF" stroke-width="8" fill="#C72032" fill-rule="nonzero"></path>
                            <ellipse id="oval" fill="#FFFFFF" fill-rule="nonzero" cx="44" cy="42" rx="21" ry="20"></ellipse>
                        </g>
                        <g id="pin-hover" stroke="none" stroke-width="1" fill="none" fill-rule="evenodd" transform="translate(317, 273.668)">
                            <path d="M44.5,-4 C57.8790306,-4 69.9864842,1.27308402 78.7524508,9.78299308 C87.5619734,18.3351859 93,30.1529417 93,43.2001364 C93,52.5628299 87.4954899,63.8126398 79.6067362,75.5634121 C78.0612101,77.8655661 76.4431836,80.2070628 74.7955717,82.5911458 C64.1600479,97.9806763 51.997471,115.179948 51.5227496,135.341822 C51.1769559,137.798325 50.2746465,139.166466 49.2203082,140.126132 C47.6786479,141.52936 45.7368029,142 44.5,142 C43.3129808,142 41.2069359,141.392005 39.6732641,139.951049 C38.4027708,138.757362 37.5705713,137.137643 37.5705713,135.247666 C37.5705711,120.889626 29.3357999,106.139649 20.457459,92.4837769 L19.6950593,91.3159877 C17.7860051,88.4033866 15.8573586,85.5429745 13.9838144,82.7493738 C12.3324617,80.2870777 10.7152053,77.8754612 9.1764941,75.524262 C0.971592592,62.9869136 -4,52.7134625 -4,43.2001364 C-4,30.1529417 1.43802656,18.3351859 10.2475492,9.78299308 C19.0135158,1.27308402 31.1209694,-4 44.5,-4 Z M43.3875,26.2580645 C38.6295395,26.2580645 34.3134982,28.0709157 31.1925343,31.02869 C28.1514167,33.9107931 26.25,37.8866154 26.25,42.2903226 C26.25,46.6940298 28.1514167,50.669852 31.1925343,53.5519551 C34.3134982,56.5097294 38.6295395,58.3225806 43.3875,58.3225806 C48.1454605,58.3225806 52.4615018,56.5097294 55.5824657,53.5519551 C58.6235833,50.669852 60.525,46.6940298 60.525,42.2903226 C60.525,37.8866154 58.6235833,33.9107931 55.5824657,31.02869 C52.4615018,28.0709157 48.1454605,26.2580645 43.3875,26.2580645 Z" id="Combined-Shape" stroke="#FFFFFF" stroke-width="8" fill="#C72032" fill-rule="nonzero"></path>
                            <ellipse id="oval" fill="#FFFFFF" fill-rule="nonzero" cx="44" cy="42" rx="22.1666667" ry="21"></ellipse>
                        </g>
                        <g id="pin-hover" stroke="none" stroke-width="1" fill="none" fill-rule="evenodd" transform="translate(142, 400.668)">
                            <path d="M44.5,-4 C57.8790306,-4 69.9864842,1.27308402 78.7524508,9.78299308 C87.5619734,18.3351859 93,30.1529417 93,43.2001364 C93,52.5628299 87.4954899,63.8126398 79.6067362,75.5634121 C78.0612101,77.8655661 76.4431836,80.2070628 74.7955717,82.5911458 C64.1600479,97.9806763 51.997471,115.179948 51.5227496,135.341822 C51.1769559,137.798325 50.2746465,139.166466 49.2203082,140.126132 C47.6786479,141.52936 45.7368029,142 44.5,142 C43.3129808,142 41.2069359,141.392005 39.6732641,139.951049 C38.4027708,138.757362 37.5705713,137.137643 37.5705713,135.247666 C37.5705711,120.889626 29.3357999,106.139649 20.457459,92.4837769 L19.6950593,91.3159877 C17.7860051,88.4033866 15.8573586,85.5429745 13.9838144,82.7493738 C12.3324617,80.2870777 10.7152053,77.8754612 9.1764941,75.524262 C0.971592592,62.9869136 -4,52.7134625 -4,43.2001364 C-4,30.1529417 1.43802656,18.3351859 10.2475492,9.78299308 C19.0135158,1.27308402 31.1209694,-4 44.5,-4 Z M43.3875,26.2580645 C38.6295395,26.2580645 34.3134982,28.0709157 31.1925343,31.02869 C28.1514167,33.9107931 26.25,37.8866154 26.25,42.2903226 C26.25,46.6940298 28.1514167,50.669852 31.1925343,53.5519551 C34.3134982,56.5097294 38.6295395,58.3225806 43.3875,58.3225806 C48.1454605,58.3225806 52.4615018,56.5097294 55.5824657,53.5519551 C58.6235833,50.669852 60.525,46.6940298 60.525,42.2903226 C60.525,37.8866154 58.6235833,33.9107931 55.5824657,31.02869 C52.4615018,28.0709157 48.1454605,26.2580645 43.3875,26.2580645 Z" id="Combined-Shape" stroke="#FFFFFF" stroke-width="8" fill="#C72032" fill-rule="nonzero"></path>
                            <ellipse id="oval" fill="#FFFFFF" fill-rule="nonzero" cx="44" cy="42" rx="19" ry="18"></ellipse>
                        </g>
                    </g>
                </g>
            </g>
        </g>
    </g>
</svg>