<?xml version="1.0" encoding="UTF-8"?>
<svg width="316px" height="128px" viewBox="0 0 316 128" version="1.1" xmlns="http://www.w3.org/2000/svg" xmlns:xlink="http://www.w3.org/1999/xlink">
    <title>pin-icho</title>
    <defs>
        <polygon id="path-1" points="1.98 13.5 2.84217094e-14 13.5 2.84217094e-14 0 1.98 0 1.98 10.602 8.82 0 10.8 0 10.8 13.5 8.82 13.5 8.82 3.042"></polygon>
        <path d="M20.718,13.5 L18.918,13.5 L18.918,10.386 L16.956,10.386 C14.484,10.386 13.248,9.252 13.248,6.984 L13.248,4.5 L15.048,4.5 L15.048,6.984 C15.048,7.656 15.219,8.145 15.561,8.451 C15.903,8.757 16.416,8.91 17.1,8.91 L18.918,8.91 L18.918,4.5 L20.718,4.5 L20.718,13.5 Z" id="path-2"></path>
        <path d="M27.396,13.68 C26.004,13.68 24.894,13.23 24.066,12.33 C23.238,11.43 22.824,10.314 22.824,8.982 C22.824,7.662 23.238,6.555 24.066,5.661 C24.894,4.767 26.004,4.32 27.396,4.32 C28.776,4.32 29.883,4.767 30.717,5.661 C31.551,6.555 31.968,7.662 31.968,8.982 C31.968,10.314 31.551,11.43 30.717,12.33 C29.883,13.23 28.776,13.68 27.396,13.68 Z M25.326,11.268 C25.806,11.856 26.496,12.15 27.396,12.15 C28.296,12.15 28.983,11.853 29.457,11.259 C29.931,10.665 30.168,9.906 30.168,8.982 C30.168,8.082 29.928,7.335 29.448,6.741 C28.968,6.147 28.284,5.85 27.396,5.85 C26.508,5.85 25.824,6.147 25.344,6.741 C24.864,7.335 24.624,8.082 24.624,8.982 C24.624,9.906 24.858,10.668 25.326,11.268 Z" id="path-3"></path>
        <path d="M34.596,16.02 L32.976,16.02 L32.976,12.06 L33.948,12.06 C34.416,11.724 34.716,10.644 34.848,8.82 L35.154,4.5 L41.85,4.5 L41.85,12.06 L43.29,12.06 L43.29,16.02 L41.67,16.02 L41.67,13.5 L34.596,13.5 L34.596,16.02 Z M35.748,12.06 L40.05,12.06 L40.05,5.94 L36.666,5.94 L36.432,9.126 C36.336,10.41 36.108,11.388 35.748,12.06 Z" id="path-4"></path>
        <polygon id="path-5" points="46.782 13.5 45.162 13.5 45.162 4.5 46.962 4.5 46.962 10.818 51.642 4.5 53.262 4.5 53.262 13.5 51.462 13.5 51.462 7.164"></polygon>
        <polygon id="path-6" points="57.726 13.5 55.926 13.5 55.926 4.5 57.726 4.5 57.726 8.1 62.046 8.1 62.046 4.5 63.846 4.5 63.846 13.5 62.046 13.5 62.046 9.63 57.726 9.63"></polygon>
        <path d="M70.524,13.68 C69.06,13.68 67.932,13.236 67.14,12.348 C66.348,11.46 65.952,10.338 65.952,8.982 C65.952,7.662 66.366,6.552 67.194,5.652 C68.022,4.752 69.132,4.302 70.524,4.302 C70.824,4.302 71.109,4.32 71.379,4.356 C71.649,4.392 71.886,4.443 72.09,4.509 C72.294,4.575 72.486,4.65 72.666,4.734 C72.846,4.818 72.996,4.905 73.116,4.995 C73.236,5.085 73.347,5.175 73.449,5.265 C73.551,5.355 73.632,5.442 73.692,5.526 C73.752,5.61 73.803,5.685 73.845,5.751 C73.887,5.817 73.914,5.868 73.926,5.904 L73.962,5.958 L73.962,7.128 L72.792,7.128 L72.774,7.092 C72.762,7.056 72.744,7.014 72.72,6.966 C72.696,6.918 72.663,6.861 72.621,6.795 C72.579,6.729 72.528,6.66 72.468,6.588 C72.408,6.516 72.336,6.444 72.252,6.372 C72.168,6.3 72.069,6.234 71.955,6.174 C71.841,6.114 71.715,6.057 71.577,6.003 C71.439,5.949 71.28,5.907 71.1,5.877 C70.92,5.847 70.728,5.832 70.524,5.832 C69.624,5.832 68.937,6.129 68.463,6.723 C67.989,7.317 67.752,8.07 67.752,8.982 C67.752,9.906 67.989,10.665 68.463,11.259 C68.937,11.853 69.624,12.15 70.524,12.15 C70.896,12.15 71.229,12.105 71.523,12.015 C71.817,11.925 72.042,11.82 72.198,11.7 C72.354,11.58 72.48,11.451 72.576,11.313 C72.672,11.175 72.735,11.07 72.765,10.998 C72.795,10.926 72.81,10.878 72.81,10.854 L73.98,10.854 L73.98,12.024 C73.992,12.024 73.965,12.081 73.899,12.195 C73.833,12.309 73.722,12.447 73.566,12.609 C73.41,12.771 73.209,12.933 72.963,13.095 C72.717,13.257 72.378,13.395 71.946,13.509 C71.514,13.623 71.04,13.68 70.524,13.68 Z" id="path-7"></path>
        <polygon id="path-8" points="77.94 13.5 76.14 13.5 76.14 4.5 77.94 4.5 77.94 8.568 82.062 4.5 83.232 4.5 83.232 5.67 80.01 8.766 83.502 12.24 83.502 13.5 82.242 13.5 77.94 9.126"></polygon>
        <path d="M89.442,13.68 C88.05,13.68 86.94,13.23 86.112,12.33 C85.284,11.43 84.87,10.314 84.87,8.982 C84.87,7.662 85.284,6.555 86.112,5.661 C86.94,4.767 88.05,4.32 89.442,4.32 C90.822,4.32 91.929,4.767 92.763,5.661 C93.597,6.555 94.014,7.662 94.014,8.982 C94.014,10.314 93.597,11.43 92.763,12.33 C91.929,13.23 90.822,13.68 89.442,13.68 Z M87.372,11.268 C87.852,11.856 88.542,12.15 89.442,12.15 C90.342,12.15 91.029,11.853 91.503,11.259 C91.977,10.665 92.214,9.906 92.214,8.982 C92.214,8.082 91.974,7.335 91.494,6.741 C91.014,6.147 90.33,5.85 89.442,5.85 C88.554,5.85 87.87,6.147 87.39,6.741 C86.91,7.335 86.67,8.082 86.67,8.982 C86.67,9.906 86.904,10.668 87.372,11.268 Z" id="path-9"></path>
        <path d="M100.242,13.68 C98.742,13.68 97.59,13.251 96.786,12.393 C95.982,11.535 95.58,10.398 95.58,8.982 C95.58,7.65 95.973,6.54 96.759,5.652 C97.545,4.764 98.634,4.32 100.026,4.32 C101.418,4.32 102.453,4.68 103.131,5.4 C103.809,6.12 104.148,7.08 104.148,8.28 L104.076,9.252 L97.38,9.252 C97.428,10.14 97.698,10.842 98.19,11.358 C98.682,11.874 99.366,12.132 100.242,12.132 C100.626,12.132 100.977,12.093 101.295,12.015 C101.613,11.937 101.859,11.847 102.033,11.745 C102.207,11.643 102.357,11.538 102.483,11.43 C102.609,11.322 102.696,11.232 102.744,11.16 L102.798,11.034 L103.968,11.034 L103.968,12.204 L103.968,12.222 C103.536,12.822 102.822,13.248 101.826,13.5 C101.346,13.62 100.818,13.68 100.242,13.68 Z M97.47,7.902 L102.384,7.902 C102.384,7.29 102.186,6.795 101.79,6.417 C101.394,6.039 100.812,5.85 100.044,5.85 C98.604,5.85 97.746,6.534 97.47,7.902 Z" id="path-10"></path>
        <polygon id="path-11" points="116.424 11.34 115.254 11.34 112.572 7.236 112.572 13.5 110.862 13.5 110.862 4.5 112.842 4.5 115.92 9.27 118.944 4.5 120.924 4.5 120.924 13.5 119.124 13.5 119.124 7.2"></polygon>
        <path d="M127.71,13.68 C126.21,13.68 125.058,13.251 124.254,12.393 C123.45,11.535 123.048,10.398 123.048,8.982 C123.048,7.65 123.441,6.54 124.227,5.652 C125.013,4.764 126.102,4.32 127.494,4.32 C128.886,4.32 129.921,4.68 130.599,5.4 C131.277,6.12 131.616,7.08 131.616,8.28 L131.544,9.252 L124.848,9.252 C124.896,10.14 125.166,10.842 125.658,11.358 C126.15,11.874 126.834,12.132 127.71,12.132 C128.094,12.132 128.445,12.093 128.763,12.015 C129.081,11.937 129.327,11.847 129.501,11.745 C129.675,11.643 129.825,11.538 129.951,11.43 C130.077,11.322 130.164,11.232 130.212,11.16 L130.266,11.034 L131.436,11.034 L131.436,12.204 L131.436,12.222 C131.004,12.822 130.29,13.248 129.294,13.5 C128.814,13.62 128.286,13.68 127.71,13.68 Z M124.938,7.902 L129.852,7.902 C129.852,7.29 129.654,6.795 129.258,6.417 C128.862,6.039 128.28,5.85 127.512,5.85 C126.072,5.85 125.214,6.534 124.938,7.902 Z" id="path-12"></path>
        <path d="M137.772,13.68 C136.308,13.68 135.18,13.236 134.388,12.348 C133.596,11.46 133.2,10.338 133.2,8.982 C133.2,7.662 133.614,6.552 134.442,5.652 C135.27,4.752 136.38,4.302 137.772,4.302 C138.072,4.302 138.357,4.32 138.627,4.356 C138.897,4.392 139.134,4.443 139.338,4.509 C139.542,4.575 139.734,4.65 139.914,4.734 C140.094,4.818 140.244,4.905 140.364,4.995 C140.484,5.085 140.595,5.175 140.697,5.265 C140.799,5.355 140.88,5.442 140.94,5.526 C141,5.61 141.051,5.685 141.093,5.751 C141.135,5.817 141.162,5.868 141.174,5.904 L141.21,5.958 L141.21,7.128 L140.04,7.128 L140.022,7.092 C140.01,7.056 139.992,7.014 139.968,6.966 C139.944,6.918 139.911,6.861 139.869,6.795 C139.827,6.729 139.776,6.66 139.716,6.588 C139.656,6.516 139.584,6.444 139.5,6.372 C139.416,6.3 139.317,6.234 139.203,6.174 C139.089,6.114 138.963,6.057 138.825,6.003 C138.687,5.949 138.528,5.907 138.348,5.877 C138.168,5.847 137.976,5.832 137.772,5.832 C136.872,5.832 136.185,6.129 135.711,6.723 C135.237,7.317 135,8.07 135,8.982 C135,9.906 135.237,10.665 135.711,11.259 C136.185,11.853 136.872,12.15 137.772,12.15 C138.144,12.15 138.477,12.105 138.771,12.015 C139.065,11.925 139.29,11.82 139.446,11.7 C139.602,11.58 139.728,11.451 139.824,11.313 C139.92,11.175 139.983,11.07 140.013,10.998 C140.043,10.926 140.058,10.878 140.058,10.854 L141.228,10.854 L141.228,12.024 C141.24,12.024 141.213,12.081 141.147,12.195 C141.081,12.309 140.97,12.447 140.814,12.609 C140.658,12.771 140.457,12.933 140.211,13.095 C139.965,13.257 139.626,13.395 139.194,13.509 C138.762,13.623 138.288,13.68 137.772,13.68 Z" id="path-13"></path>
        <polygon id="path-14" points="147.078 13.5 145.278 13.5 145.278 6.03 142.398 6.03 142.398 4.5 149.958 4.5 149.958 6.03 147.078 6.03"></polygon>
        <path d="M155.646,13.68 C154.254,13.68 153.144,13.23 152.316,12.33 C151.488,11.43 151.074,10.314 151.074,8.982 C151.074,7.662 151.488,6.555 152.316,5.661 C153.144,4.767 154.254,4.32 155.646,4.32 C157.026,4.32 158.133,4.767 158.967,5.661 C159.801,6.555 160.218,7.662 160.218,8.982 C160.218,10.314 159.801,11.43 158.967,12.33 C158.133,13.23 157.026,13.68 155.646,13.68 Z M153.576,11.268 C154.056,11.856 154.746,12.15 155.646,12.15 C156.546,12.15 157.233,11.853 157.707,11.259 C158.181,10.665 158.418,9.906 158.418,8.982 C158.418,8.082 158.178,7.335 157.698,6.741 C157.218,6.147 156.534,5.85 155.646,5.85 C154.758,5.85 154.074,6.147 153.594,6.741 C153.114,7.335 152.874,8.082 152.874,8.982 C152.874,9.906 153.108,10.668 153.576,11.268 Z" id="path-15"></path>
        <path d="M164.124,18 L162.324,18 L162.324,4.5 L163.944,4.5 L164.106,5.922 C164.826,4.854 165.876,4.32 167.256,4.32 C168.54,4.32 169.563,4.767 170.325,5.661 C171.087,6.555 171.468,7.662 171.468,8.982 C171.468,10.314 171.087,11.43 170.325,12.33 C169.563,13.23 168.54,13.68 167.256,13.68 C165.9,13.68 164.856,13.152 164.124,12.096 L164.124,18 Z M166.896,12.15 C167.796,12.15 168.483,11.853 168.957,11.259 C169.431,10.665 169.668,9.906 169.668,8.982 C169.668,8.07 169.431,7.32 168.957,6.732 C168.483,6.144 167.796,5.85 166.896,5.85 C166.056,5.85 165.384,6.15 164.88,6.75 C164.376,7.35 164.124,8.094 164.124,8.982 C164.124,9.882 164.376,10.635 164.88,11.241 C165.384,11.847 166.056,12.15 166.896,12.15 Z" id="path-16"></path>
        <path d="M177.606,13.68 C176.214,13.68 175.104,13.23 174.276,12.33 C173.448,11.43 173.034,10.314 173.034,8.982 C173.034,7.662 173.448,6.555 174.276,5.661 C175.104,4.767 176.214,4.32 177.606,4.32 C178.986,4.32 180.093,4.767 180.927,5.661 C181.761,6.555 182.178,7.662 182.178,8.982 C182.178,10.314 181.761,11.43 180.927,12.33 C180.093,13.23 178.986,13.68 177.606,13.68 Z M175.536,11.268 C176.016,11.856 176.706,12.15 177.606,12.15 C178.506,12.15 179.193,11.853 179.667,11.259 C180.141,10.665 180.378,9.906 180.378,8.982 C180.378,8.082 180.138,7.335 179.658,6.741 C179.178,6.147 178.494,5.85 177.606,5.85 C176.718,5.85 176.034,6.147 175.554,6.741 C175.074,7.335 174.834,8.082 174.834,8.982 C174.834,9.906 175.068,10.668 175.536,11.268 Z" id="path-17"></path>
        <polygon id="path-18" points="184.914 13.5 183.654 13.5 183.654 12.24 186.93 8.82 183.69 5.634 183.69 4.5 184.86 4.5 189.018 8.586 189.018 4.5 190.818 4.5 190.818 8.604 194.904 4.5 196.074 4.5 196.074 5.67 192.906 8.784 196.254 12.24 196.254 13.5 194.994 13.5 190.818 9.072 190.818 13.5 189.018 13.5 189.018 9.108"></polygon>
        <path d="M198.738,16.02 L197.118,16.02 L197.118,12.06 L198.09,12.06 C198.558,11.724 198.858,10.644 198.99,8.82 L199.296,4.5 L205.992,4.5 L205.992,12.06 L207.432,12.06 L207.432,16.02 L205.812,16.02 L205.812,13.5 L198.738,13.5 L198.738,16.02 Z M199.89,12.06 L204.192,12.06 L204.192,5.94 L200.808,5.94 L200.574,9.126 C200.478,10.41 200.25,11.388 199.89,12.06 Z" id="path-19"></path>
        <path d="M213.426,13.68 C211.926,13.68 210.774,13.251 209.97,12.393 C209.166,11.535 208.764,10.398 208.764,8.982 C208.764,7.65 209.157,6.54 209.943,5.652 C210.729,4.764 211.818,4.32 213.21,4.32 C214.602,4.32 215.637,4.68 216.315,5.4 C216.993,6.12 217.332,7.08 217.332,8.28 L217.26,9.252 L210.564,9.252 C210.612,10.14 210.882,10.842 211.374,11.358 C211.866,11.874 212.55,12.132 213.426,12.132 C213.81,12.132 214.161,12.093 214.479,12.015 C214.797,11.937 215.043,11.847 215.217,11.745 C215.391,11.643 215.541,11.538 215.667,11.43 C215.793,11.322 215.88,11.232 215.928,11.16 L215.982,11.034 L217.152,11.034 L217.152,12.204 L217.152,12.222 C216.72,12.822 216.006,13.248 215.01,13.5 C214.53,13.62 214.002,13.68 213.426,13.68 Z M210.654,7.902 L215.568,7.902 C215.568,7.29 215.37,6.795 214.974,6.417 C214.578,6.039 213.996,5.85 213.228,5.85 C211.788,5.85 210.93,6.534 210.654,7.902 Z" id="path-20"></path>
        <polygon id="path-21" points="221.274 13.5 219.474 13.5 219.474 4.5 221.274 4.5 221.274 8.1 225.594 8.1 225.594 4.5 227.394 4.5 227.394 13.5 225.594 13.5 225.594 9.63 221.274 9.63"></polygon>
        <polygon id="path-22" points="231.678 13.5 230.058 13.5 230.058 4.5 231.858 4.5 231.858 10.818 236.538 4.5 238.158 4.5 238.158 13.5 236.358 13.5 236.358 7.164"></polygon>
        <path d="M244.944,13.68 C243.444,13.68 242.292,13.251 241.488,12.393 C240.684,11.535 240.282,10.398 240.282,8.982 C240.282,7.65 240.675,6.54 241.461,5.652 C242.247,4.764 243.336,4.32 244.728,4.32 C246.12,4.32 247.155,4.68 247.833,5.4 C248.511,6.12 248.85,7.08 248.85,8.28 L248.778,9.252 L242.082,9.252 C242.13,10.14 242.4,10.842 242.892,11.358 C243.384,11.874 244.068,12.132 244.944,12.132 C245.328,12.132 245.679,12.093 245.997,12.015 C246.315,11.937 246.561,11.847 246.735,11.745 C246.909,11.643 247.059,11.538 247.185,11.43 C247.311,11.322 247.398,11.232 247.446,11.16 L247.5,11.034 L248.67,11.034 L248.67,12.204 L248.67,12.222 C248.238,12.822 247.524,13.248 246.528,13.5 C246.048,13.62 245.52,13.68 244.944,13.68 Z M242.172,7.902 L247.086,7.902 C247.086,7.29 246.888,6.795 246.492,6.417 C246.096,6.039 245.514,5.85 244.746,5.85 C243.306,5.85 242.448,6.534 242.172,7.902 Z" id="path-23"></path>
    </defs>
    <g id="PanoTour" stroke="none" stroke-width="1" fill="none" fill-rule="evenodd">
        <g id="pano-1920x1080" transform="translate(-756, -368)">
            <g id="pin-icho" transform="translate(757, 369)">
                <rect id="Rectangle" stroke="#FFFFFF" stroke-width="2" fill="#00ABC7" fill-rule="nonzero" x="0" y="0" width="314" height="42" rx="21"></rect>
                <g id="Ичодинское-месторожд" transform="translate(42.71, 13.5)" fill="#FFFFFF" fill-rule="nonzero">
                    <g id="Path">
                        <use xlink:href="#path-1"></use>
                        <use xlink:href="#path-1"></use>
                    </g>
                    <g id="Path">
                        <use xlink:href="#path-2"></use>
                        <use xlink:href="#path-2"></use>
                    </g>
                    <g id="Shape">
                        <use xlink:href="#path-3"></use>
                        <use xlink:href="#path-3"></use>
                    </g>
                    <g id="Shape">
                        <use xlink:href="#path-4"></use>
                        <use xlink:href="#path-4"></use>
                    </g>
                    <g id="Path">
                        <use xlink:href="#path-5"></use>
                        <use xlink:href="#path-5"></use>
                    </g>
                    <g id="Path">
                        <use xlink:href="#path-6"></use>
                        <use xlink:href="#path-6"></use>
                    </g>
                    <g id="Path">
                        <use xlink:href="#path-7"></use>
                        <use xlink:href="#path-7"></use>
                    </g>
                    <g id="Path">
                        <use xlink:href="#path-8"></use>
                        <use xlink:href="#path-8"></use>
                    </g>
                    <g id="Shape">
                        <use xlink:href="#path-9"></use>
                        <use xlink:href="#path-9"></use>
                    </g>
                    <g id="Shape">
                        <use xlink:href="#path-10"></use>
                        <use xlink:href="#path-10"></use>
                    </g>
                    <g id="Path">
                        <use xlink:href="#path-11"></use>
                        <use xlink:href="#path-11"></use>
                    </g>
                    <g id="Shape">
                        <use xlink:href="#path-12"></use>
                        <use xlink:href="#path-12"></use>
                    </g>
                    <g id="Path">
                        <use xlink:href="#path-13"></use>
                        <use xlink:href="#path-13"></use>
                    </g>
                    <g id="Path">
                        <use xlink:href="#path-14"></use>
                        <use xlink:href="#path-14"></use>
                    </g>
                    <g id="Shape">
                        <use xlink:href="#path-15"></use>
                        <use xlink:href="#path-15"></use>
                    </g>
                    <g id="Shape">
                        <use xlink:href="#path-16"></use>
                        <use xlink:href="#path-16"></use>
                    </g>
                    <g id="Shape">
                        <use xlink:href="#path-17"></use>
                        <use xlink:href="#path-17"></use>
                    </g>
                    <g id="Path">
                        <use xlink:href="#path-18"></use>
                        <use xlink:href="#path-18"></use>
                    </g>
                    <g id="Shape">
                        <use xlink:href="#path-19"></use>
                        <use xlink:href="#path-19"></use>
                    </g>
                    <g id="Shape">
                        <use xlink:href="#path-20"></use>
                        <use xlink:href="#path-20"></use>
                    </g>
                    <g id="Path">
                        <use xlink:href="#path-21"></use>
                        <use xlink:href="#path-21"></use>
                    </g>
                    <g id="Path">
                        <use xlink:href="#path-22"></use>
                        <use xlink:href="#path-22"></use>
                    </g>
                    <g id="Shape">
                        <use xlink:href="#path-23"></use>
                        <use xlink:href="#path-23"></use>
                    </g>
                </g>
                <path d="M19.7773437,41.2070312 C19.4505208,69.5976579 19.1236979,97.9882796 18.796875,126.378906" id="Path-3" stroke="#FFFFFF" stroke-width="2"></path>
                <circle id="Oval" stroke="#FFFFFF" stroke-width="2" cx="20" cy="21" r="8"></circle>
            </g>
        </g>
    </g>
</svg>