<?xml version="1.0" encoding="UTF-8"?>
<svg width="316px" height="128px" viewBox="0 0 316 128" version="1.1" xmlns="http://www.w3.org/2000/svg" xmlns:xlink="http://www.w3.org/1999/xlink">
    <title>pin-icho</title>
    <defs>
        <polygon id="path-1" points="1.98 13.5 2.84217094e-14 13.5 2.84217094e-14 0 1.98 0 1.98 10.602 8.82 0 10.8 0 10.8 13.5 8.82 13.5 8.82 3.042"></polygon>
        <path d="M20.718,13.5 L18.918,13.5 L18.918,10.386 L16.956,10.386 C14.484,10.386 13.248,9.252 13.248,6.984 L13.248,4.5 L15.048,4.5 L15.048,6.984 C15.048,7.656 15.219,8.145 15.561,8.451 C15.903,8.757 16.416,8.91 17.1,8.91 L18.918,8.91 L18.918,4.5 L20.718,4.5 L20.718,13.5 Z" id="path-2"></path>
        <path d="M26.694,2.52 L24.714,2.52 L24.714,0.54 L26.694,0.54 L26.694,2.52 Z M29.934,2.52 L27.954,2.52 L27.954,0.54 L29.934,0.54 L29.934,2.52 Z M27.504,13.68 C26.004,13.68 24.852,13.251 24.048,12.393 C23.244,11.535 22.842,10.398 22.842,8.982 C22.842,7.65 23.235,6.54 24.021,5.652 C24.807,4.764 25.896,4.32 27.288,4.32 C28.68,4.32 29.715,4.68 30.393,5.4 C31.071,6.12 31.41,7.08 31.41,8.28 L31.338,9.252 L24.642,9.252 C24.69,10.14 24.96,10.842 25.452,11.358 C25.944,11.874 26.628,12.132 27.504,12.132 C27.888,12.132 28.239,12.093 28.557,12.015 C28.875,11.937 29.121,11.847 29.295,11.745 C29.469,11.643 29.619,11.538 29.745,11.43 C29.871,11.322 29.958,11.232 30.006,11.16 L30.06,11.034 L31.23,11.034 L31.23,12.204 L31.23,12.222 C30.798,12.822 30.084,13.248 29.088,13.5 C28.608,13.62 28.08,13.68 27.504,13.68 Z M24.732,7.902 L29.646,7.902 C29.646,7.29 29.448,6.795 29.052,6.417 C28.656,6.039 28.074,5.85 27.306,5.85 C25.866,5.85 25.008,6.534 24.732,7.902 Z" id="path-3"></path>
        <path d="M34.074,16.02 L32.454,16.02 L32.454,12.06 L33.426,12.06 C33.894,11.724 34.194,10.644 34.326,8.82 L34.632,4.5 L41.328,4.5 L41.328,12.06 L42.768,12.06 L42.768,16.02 L41.148,16.02 L41.148,13.5 L34.074,13.5 L34.074,16.02 Z M35.226,12.06 L39.528,12.06 L39.528,5.94 L36.144,5.94 L35.91,9.126 C35.814,10.41 35.586,11.388 35.226,12.06 Z" id="path-4"></path>
        <polygon id="path-5" points="46.26 13.5 44.64 13.5 44.64 4.5 46.44 4.5 46.44 10.818 51.12 4.5 52.74 4.5 52.74 13.5 50.94 13.5 50.94 7.164"></polygon>
        <polygon id="path-6" points="57.204 13.5 55.404 13.5 55.404 4.5 57.204 4.5 57.204 8.1 61.524 8.1 61.524 4.5 63.324 4.5 63.324 13.5 61.524 13.5 61.524 9.63 57.204 9.63"></polygon>
        <path d="M70.002,13.68 C68.538,13.68 67.41,13.236 66.618,12.348 C65.826,11.46 65.43,10.338 65.43,8.982 C65.43,7.662 65.844,6.552 66.672,5.652 C67.5,4.752 68.61,4.302 70.002,4.302 C70.302,4.302 70.587,4.32 70.857,4.356 C71.127,4.392 71.364,4.443 71.568,4.509 C71.772,4.575 71.964,4.65 72.144,4.734 C72.324,4.818 72.474,4.905 72.594,4.995 C72.714,5.085 72.825,5.175 72.927,5.265 C73.029,5.355 73.11,5.442 73.17,5.526 C73.23,5.61 73.281,5.685 73.323,5.751 C73.365,5.817 73.392,5.868 73.404,5.904 L73.44,5.958 L73.44,7.128 L72.27,7.128 L72.252,7.092 C72.24,7.056 72.222,7.014 72.198,6.966 C72.174,6.918 72.141,6.861 72.099,6.795 C72.057,6.729 72.006,6.66 71.946,6.588 C71.886,6.516 71.814,6.444 71.73,6.372 C71.646,6.3 71.547,6.234 71.433,6.174 C71.319,6.114 71.193,6.057 71.055,6.003 C70.917,5.949 70.758,5.907 70.578,5.877 C70.398,5.847 70.206,5.832 70.002,5.832 C69.102,5.832 68.415,6.129 67.941,6.723 C67.467,7.317 67.23,8.07 67.23,8.982 C67.23,9.906 67.467,10.665 67.941,11.259 C68.415,11.853 69.102,12.15 70.002,12.15 C70.374,12.15 70.707,12.105 71.001,12.015 C71.295,11.925 71.52,11.82 71.676,11.7 C71.832,11.58 71.958,11.451 72.054,11.313 C72.15,11.175 72.213,11.07 72.243,10.998 C72.273,10.926 72.288,10.878 72.288,10.854 L73.458,10.854 L73.458,12.024 C73.47,12.024 73.443,12.081 73.377,12.195 C73.311,12.309 73.2,12.447 73.044,12.609 C72.888,12.771 72.687,12.933 72.441,13.095 C72.195,13.257 71.856,13.395 71.424,13.509 C70.992,13.623 70.518,13.68 70.002,13.68 Z" id="path-7"></path>
        <polygon id="path-8" points="77.418 13.5 75.618 13.5 75.618 4.5 77.418 4.5 77.418 8.568 81.54 4.5 82.71 4.5 82.71 5.67 79.488 8.766 82.98 12.24 82.98 13.5 81.72 13.5 77.418 9.126"></polygon>
        <path d="M88.92,13.68 C87.528,13.68 86.418,13.23 85.59,12.33 C84.762,11.43 84.348,10.314 84.348,8.982 C84.348,7.662 84.762,6.555 85.59,5.661 C86.418,4.767 87.528,4.32 88.92,4.32 C90.3,4.32 91.407,4.767 92.241,5.661 C93.075,6.555 93.492,7.662 93.492,8.982 C93.492,10.314 93.075,11.43 92.241,12.33 C91.407,13.23 90.3,13.68 88.92,13.68 Z M86.85,11.268 C87.33,11.856 88.02,12.15 88.92,12.15 C89.82,12.15 90.507,11.853 90.981,11.259 C91.455,10.665 91.692,9.906 91.692,8.982 C91.692,8.082 91.452,7.335 90.972,6.741 C90.492,6.147 89.808,5.85 88.92,5.85 C88.032,5.85 87.348,6.147 86.868,6.741 C86.388,7.335 86.148,8.082 86.148,8.982 C86.148,9.906 86.382,10.668 86.85,11.268 Z" id="path-9"></path>
        <path d="M99.72,13.68 C98.22,13.68 97.068,13.251 96.264,12.393 C95.46,11.535 95.058,10.398 95.058,8.982 C95.058,7.65 95.451,6.54 96.237,5.652 C97.023,4.764 98.112,4.32 99.504,4.32 C100.896,4.32 101.931,4.68 102.609,5.4 C103.287,6.12 103.626,7.08 103.626,8.28 L103.554,9.252 L96.858,9.252 C96.906,10.14 97.176,10.842 97.668,11.358 C98.16,11.874 98.844,12.132 99.72,12.132 C100.104,12.132 100.455,12.093 100.773,12.015 C101.091,11.937 101.337,11.847 101.511,11.745 C101.685,11.643 101.835,11.538 101.961,11.43 C102.087,11.322 102.174,11.232 102.222,11.16 L102.276,11.034 L103.446,11.034 L103.446,12.204 L103.446,12.222 C103.014,12.822 102.3,13.248 101.304,13.5 C100.824,13.62 100.296,13.68 99.72,13.68 Z M96.948,7.902 L101.862,7.902 C101.862,7.29 101.664,6.795 101.268,6.417 C100.872,6.039 100.29,5.85 99.522,5.85 C98.082,5.85 97.224,6.534 96.948,7.902 Z" id="path-10"></path>
        <polygon id="path-11" points="115.902 11.34 114.732 11.34 112.05 7.236 112.05 13.5 110.34 13.5 110.34 4.5 112.32 4.5 115.398 9.27 118.422 4.5 120.402 4.5 120.402 13.5 118.602 13.5 118.602 7.2"></polygon>
        <path d="M127.188,13.68 C125.688,13.68 124.536,13.251 123.732,12.393 C122.928,11.535 122.526,10.398 122.526,8.982 C122.526,7.65 122.919,6.54 123.705,5.652 C124.491,4.764 125.58,4.32 126.972,4.32 C128.364,4.32 129.399,4.68 130.077,5.4 C130.755,6.12 131.094,7.08 131.094,8.28 L131.022,9.252 L124.326,9.252 C124.374,10.14 124.644,10.842 125.136,11.358 C125.628,11.874 126.312,12.132 127.188,12.132 C127.572,12.132 127.923,12.093 128.241,12.015 C128.559,11.937 128.805,11.847 128.979,11.745 C129.153,11.643 129.303,11.538 129.429,11.43 C129.555,11.322 129.642,11.232 129.69,11.16 L129.744,11.034 L130.914,11.034 L130.914,12.204 L130.914,12.222 C130.482,12.822 129.768,13.248 128.772,13.5 C128.292,13.62 127.764,13.68 127.188,13.68 Z M124.416,7.902 L129.33,7.902 C129.33,7.29 129.132,6.795 128.736,6.417 C128.34,6.039 127.758,5.85 126.99,5.85 C125.55,5.85 124.692,6.534 124.416,7.902 Z" id="path-12"></path>
        <path d="M137.25,13.68 C135.786,13.68 134.658,13.236 133.866,12.348 C133.074,11.46 132.678,10.338 132.678,8.982 C132.678,7.662 133.092,6.552 133.92,5.652 C134.748,4.752 135.858,4.302 137.25,4.302 C137.55,4.302 137.835,4.32 138.105,4.356 C138.375,4.392 138.612,4.443 138.816,4.509 C139.02,4.575 139.212,4.65 139.392,4.734 C139.572,4.818 139.722,4.905 139.842,4.995 C139.962,5.085 140.073,5.175 140.175,5.265 C140.277,5.355 140.358,5.442 140.418,5.526 C140.478,5.61 140.529,5.685 140.571,5.751 C140.613,5.817 140.64,5.868 140.652,5.904 L140.688,5.958 L140.688,7.128 L139.518,7.128 L139.5,7.092 C139.488,7.056 139.47,7.014 139.446,6.966 C139.422,6.918 139.389,6.861 139.347,6.795 C139.305,6.729 139.254,6.66 139.194,6.588 C139.134,6.516 139.062,6.444 138.978,6.372 C138.894,6.3 138.795,6.234 138.681,6.174 C138.567,6.114 138.441,6.057 138.303,6.003 C138.165,5.949 138.006,5.907 137.826,5.877 C137.646,5.847 137.454,5.832 137.25,5.832 C136.35,5.832 135.663,6.129 135.189,6.723 C134.715,7.317 134.478,8.07 134.478,8.982 C134.478,9.906 134.715,10.665 135.189,11.259 C135.663,11.853 136.35,12.15 137.25,12.15 C137.622,12.15 137.955,12.105 138.249,12.015 C138.543,11.925 138.768,11.82 138.924,11.7 C139.08,11.58 139.206,11.451 139.302,11.313 C139.398,11.175 139.461,11.07 139.491,10.998 C139.521,10.926 139.536,10.878 139.536,10.854 L140.706,10.854 L140.706,12.024 C140.718,12.024 140.691,12.081 140.625,12.195 C140.559,12.309 140.448,12.447 140.292,12.609 C140.136,12.771 139.935,12.933 139.689,13.095 C139.443,13.257 139.104,13.395 138.672,13.509 C138.24,13.623 137.766,13.68 137.25,13.68 Z" id="path-13"></path>
        <polygon id="path-14" points="146.556 13.5 144.756 13.5 144.756 6.03 141.876 6.03 141.876 4.5 149.436 4.5 149.436 6.03 146.556 6.03"></polygon>
        <path d="M155.124,13.68 C153.732,13.68 152.622,13.23 151.794,12.33 C150.966,11.43 150.552,10.314 150.552,8.982 C150.552,7.662 150.966,6.555 151.794,5.661 C152.622,4.767 153.732,4.32 155.124,4.32 C156.504,4.32 157.611,4.767 158.445,5.661 C159.279,6.555 159.696,7.662 159.696,8.982 C159.696,10.314 159.279,11.43 158.445,12.33 C157.611,13.23 156.504,13.68 155.124,13.68 Z M153.054,11.268 C153.534,11.856 154.224,12.15 155.124,12.15 C156.024,12.15 156.711,11.853 157.185,11.259 C157.659,10.665 157.896,9.906 157.896,8.982 C157.896,8.082 157.656,7.335 157.176,6.741 C156.696,6.147 156.012,5.85 155.124,5.85 C154.236,5.85 153.552,6.147 153.072,6.741 C152.592,7.335 152.352,8.082 152.352,8.982 C152.352,9.906 152.586,10.668 153.054,11.268 Z" id="path-15"></path>
        <path d="M163.602,18 L161.802,18 L161.802,4.5 L163.422,4.5 L163.584,5.922 C164.304,4.854 165.354,4.32 166.734,4.32 C168.018,4.32 169.041,4.767 169.803,5.661 C170.565,6.555 170.946,7.662 170.946,8.982 C170.946,10.314 170.565,11.43 169.803,12.33 C169.041,13.23 168.018,13.68 166.734,13.68 C165.378,13.68 164.334,13.152 163.602,12.096 L163.602,18 Z M166.374,12.15 C167.274,12.15 167.961,11.853 168.435,11.259 C168.909,10.665 169.146,9.906 169.146,8.982 C169.146,8.07 168.909,7.32 168.435,6.732 C167.961,6.144 167.274,5.85 166.374,5.85 C165.534,5.85 164.862,6.15 164.358,6.75 C163.854,7.35 163.602,8.094 163.602,8.982 C163.602,9.882 163.854,10.635 164.358,11.241 C164.862,11.847 165.534,12.15 166.374,12.15 Z" id="path-16"></path>
        <path d="M177.084,13.68 C175.692,13.68 174.582,13.23 173.754,12.33 C172.926,11.43 172.512,10.314 172.512,8.982 C172.512,7.662 172.926,6.555 173.754,5.661 C174.582,4.767 175.692,4.32 177.084,4.32 C178.464,4.32 179.571,4.767 180.405,5.661 C181.239,6.555 181.656,7.662 181.656,8.982 C181.656,10.314 181.239,11.43 180.405,12.33 C179.571,13.23 178.464,13.68 177.084,13.68 Z M175.014,11.268 C175.494,11.856 176.184,12.15 177.084,12.15 C177.984,12.15 178.671,11.853 179.145,11.259 C179.619,10.665 179.856,9.906 179.856,8.982 C179.856,8.082 179.616,7.335 179.136,6.741 C178.656,6.147 177.972,5.85 177.084,5.85 C176.196,5.85 175.512,6.147 175.032,6.741 C174.552,7.335 174.312,8.082 174.312,8.982 C174.312,9.906 174.546,10.668 175.014,11.268 Z" id="path-17"></path>
        <polygon id="path-18" points="184.392 13.5 183.132 13.5 183.132 12.24 186.408 8.82 183.168 5.634 183.168 4.5 184.338 4.5 188.496 8.586 188.496 4.5 190.296 4.5 190.296 8.604 194.382 4.5 195.552 4.5 195.552 5.67 192.384 8.784 195.732 12.24 195.732 13.5 194.472 13.5 190.296 9.072 190.296 13.5 188.496 13.5 188.496 9.108"></polygon>
        <path d="M198.216,16.02 L196.596,16.02 L196.596,12.06 L197.568,12.06 C198.036,11.724 198.336,10.644 198.468,8.82 L198.774,4.5 L205.47,4.5 L205.47,12.06 L206.91,12.06 L206.91,16.02 L205.29,16.02 L205.29,13.5 L198.216,13.5 L198.216,16.02 Z M199.368,12.06 L203.67,12.06 L203.67,5.94 L200.286,5.94 L200.052,9.126 C199.956,10.41 199.728,11.388 199.368,12.06 Z" id="path-19"></path>
        <path d="M212.904,13.68 C211.404,13.68 210.252,13.251 209.448,12.393 C208.644,11.535 208.242,10.398 208.242,8.982 C208.242,7.65 208.635,6.54 209.421,5.652 C210.207,4.764 211.296,4.32 212.688,4.32 C214.08,4.32 215.115,4.68 215.793,5.4 C216.471,6.12 216.81,7.08 216.81,8.28 L216.738,9.252 L210.042,9.252 C210.09,10.14 210.36,10.842 210.852,11.358 C211.344,11.874 212.028,12.132 212.904,12.132 C213.288,12.132 213.639,12.093 213.957,12.015 C214.275,11.937 214.521,11.847 214.695,11.745 C214.869,11.643 215.019,11.538 215.145,11.43 C215.271,11.322 215.358,11.232 215.406,11.16 L215.46,11.034 L216.63,11.034 L216.63,12.204 L216.63,12.222 C216.198,12.822 215.484,13.248 214.488,13.5 C214.008,13.62 213.48,13.68 212.904,13.68 Z M210.132,7.902 L215.046,7.902 C215.046,7.29 214.848,6.795 214.452,6.417 C214.056,6.039 213.474,5.85 212.706,5.85 C211.266,5.85 210.408,6.534 210.132,7.902 Z" id="path-20"></path>
        <polygon id="path-21" points="220.752 13.5 218.952 13.5 218.952 4.5 220.752 4.5 220.752 8.1 225.072 8.1 225.072 4.5 226.872 4.5 226.872 13.5 225.072 13.5 225.072 9.63 220.752 9.63"></polygon>
        <polygon id="path-22" points="231.156 13.5 229.536 13.5 229.536 4.5 231.336 4.5 231.336 10.818 236.016 4.5 237.636 4.5 237.636 13.5 235.836 13.5 235.836 7.164"></polygon>
        <path d="M244.422,13.68 C242.922,13.68 241.77,13.251 240.966,12.393 C240.162,11.535 239.76,10.398 239.76,8.982 C239.76,7.65 240.153,6.54 240.939,5.652 C241.725,4.764 242.814,4.32 244.206,4.32 C245.598,4.32 246.633,4.68 247.311,5.4 C247.989,6.12 248.328,7.08 248.328,8.28 L248.256,9.252 L241.56,9.252 C241.608,10.14 241.878,10.842 242.37,11.358 C242.862,11.874 243.546,12.132 244.422,12.132 C244.806,12.132 245.157,12.093 245.475,12.015 C245.793,11.937 246.039,11.847 246.213,11.745 C246.387,11.643 246.537,11.538 246.663,11.43 C246.789,11.322 246.876,11.232 246.924,11.16 L246.978,11.034 L248.148,11.034 L248.148,12.204 L248.148,12.222 C247.716,12.822 247.002,13.248 246.006,13.5 C245.526,13.62 244.998,13.68 244.422,13.68 Z M241.65,7.902 L246.564,7.902 C246.564,7.29 246.366,6.795 245.97,6.417 C245.574,6.039 244.992,5.85 244.224,5.85 C242.784,5.85 241.926,6.534 241.65,7.902 Z" id="path-23"></path>
    </defs>
    <g id="PanoTour" stroke="none" stroke-width="1" fill="none" fill-rule="evenodd">
        <g id="pano-1920x1080" transform="translate(-756, -368)">
            <g id="pin-icho" transform="translate(757, 369)">
                <rect id="Rectangle" stroke="#FFFFFF" stroke-width="2" fill="#00ABC7" fill-rule="nonzero" x="0" y="0" width="314" height="42" rx="21"></rect>
                <g id="Ичёдинское-месторожд" transform="translate(42.71, 13.5)" fill="#FFFFFF" fill-rule="nonzero">
                    <g id="Path">
                        <use xlink:href="#path-1"></use>
                        <use xlink:href="#path-1"></use>
                    </g>
                    <g id="Path">
                        <use xlink:href="#path-2"></use>
                        <use xlink:href="#path-2"></use>
                    </g>
                    <g id="Shape">
                        <use xlink:href="#path-3"></use>
                        <use xlink:href="#path-3"></use>
                    </g>
                    <g id="Shape">
                        <use xlink:href="#path-4"></use>
                        <use xlink:href="#path-4"></use>
                    </g>
                    <g id="Path">
                        <use xlink:href="#path-5"></use>
                        <use xlink:href="#path-5"></use>
                    </g>
                    <g id="Path">
                        <use xlink:href="#path-6"></use>
                        <use xlink:href="#path-6"></use>
                    </g>
                    <g id="Path">
                        <use xlink:href="#path-7"></use>
                        <use xlink:href="#path-7"></use>
                    </g>
                    <g id="Path">
                        <use xlink:href="#path-8"></use>
                        <use xlink:href="#path-8"></use>
                    </g>
                    <g id="Shape">
                        <use xlink:href="#path-9"></use>
                        <use xlink:href="#path-9"></use>
                    </g>
                    <g id="Shape">
                        <use xlink:href="#path-10"></use>
                        <use xlink:href="#path-10"></use>
                    </g>
                    <g id="Path">
                        <use xlink:href="#path-11"></use>
                        <use xlink:href="#path-11"></use>
                    </g>
                    <g id="Shape">
                        <use xlink:href="#path-12"></use>
                        <use xlink:href="#path-12"></use>
                    </g>
                    <g id="Path">
                        <use xlink:href="#path-13"></use>
                        <use xlink:href="#path-13"></use>
                    </g>
                    <g id="Path">
                        <use xlink:href="#path-14"></use>
                        <use xlink:href="#path-14"></use>
                    </g>
                    <g id="Shape">
                        <use xlink:href="#path-15"></use>
                        <use xlink:href="#path-15"></use>
                    </g>
                    <g id="Shape">
                        <use xlink:href="#path-16"></use>
                        <use xlink:href="#path-16"></use>
                    </g>
                    <g id="Shape">
                        <use xlink:href="#path-17"></use>
                        <use xlink:href="#path-17"></use>
                    </g>
                    <g id="Path">
                        <use xlink:href="#path-18"></use>
                        <use xlink:href="#path-18"></use>
                    </g>
                    <g id="Shape">
                        <use xlink:href="#path-19"></use>
                        <use xlink:href="#path-19"></use>
                    </g>
                    <g id="Shape">
                        <use xlink:href="#path-20"></use>
                        <use xlink:href="#path-20"></use>
                    </g>
                    <g id="Path">
                        <use xlink:href="#path-21"></use>
                        <use xlink:href="#path-21"></use>
                    </g>
                    <g id="Path">
                        <use xlink:href="#path-22"></use>
                        <use xlink:href="#path-22"></use>
                    </g>
                    <g id="Shape">
                        <use xlink:href="#path-23"></use>
                        <use xlink:href="#path-23"></use>
                    </g>
                </g>
                <path d="M19.7773437,41.2070312 C19.4505208,69.5976579 19.1236979,97.9882796 18.796875,126.378906" id="Path-3" stroke="#FFFFFF" stroke-width="2"></path>
                <circle id="Oval" stroke="#FFFFFF" stroke-width="2" cx="20" cy="21" r="8"></circle>
            </g>
        </g>
    </g>
</svg>