<?xml version="1.0" encoding="UTF-8"?>
<svg width="316px" height="128px" viewBox="0 0 316 128" version="1.1" xmlns="http://www.w3.org/2000/svg" xmlns:xlink="http://www.w3.org/1999/xlink">
    <title>pin-mar</title>
    <defs>
        <polygon id="path-1" points="7.128 9.99 5.778 9.99 1.8 2.412 1.8 13.5 1.42108547e-14 13.5 1.42108547e-14 0 2.484 0 6.606 7.596 10.62 0 13.086 0 13.086 13.5 11.106 13.5 11.106 2.412"></polygon>
        <path d="M18.522,13.68 C17.55,13.68 16.8,13.416 16.272,12.888 C15.744,12.36 15.48,11.694 15.48,10.89 C15.48,10.086 15.78,9.438 16.38,8.946 C16.98,8.454 17.892,8.208 19.116,8.208 C19.452,8.208 19.791,8.229 20.133,8.271 C20.475,8.313 20.736,8.352 20.916,8.388 L21.168,8.46 L21.168,7.902 C21.168,6.534 20.52,5.85 19.224,5.85 C18.78,5.85 18.39,5.943 18.054,6.129 C17.718,6.315 17.49,6.498 17.37,6.678 L17.19,6.948 L16.02,6.948 L16.02,5.778 L16.074,5.706 C16.11,5.658 16.17,5.589 16.254,5.499 C16.338,5.409 16.437,5.313 16.551,5.211 C16.665,5.109 16.812,5.004 16.992,4.896 C17.172,4.788 17.37,4.692 17.586,4.608 C17.802,4.524 18.057,4.455 18.351,4.401 C18.645,4.347 18.954,4.32 19.278,4.32 C20.478,4.32 21.393,4.626 22.023,5.238 C22.653,5.85 22.968,6.75 22.968,7.938 L22.968,13.5 L21.528,13.5 L21.312,12.204 C21.06,12.54 20.724,12.864 20.304,13.176 C19.86,13.512 19.266,13.68 18.522,13.68 Z M18.81,12.222 C19.506,12.222 20.073,12.018 20.511,11.61 C20.949,11.202 21.168,10.764 21.168,10.296 L21.168,9.828 C20.604,9.66 19.92,9.576 19.116,9.576 C18.456,9.576 17.979,9.699 17.685,9.945 C17.391,10.191 17.244,10.506 17.244,10.89 C17.244,11.778 17.766,12.222 18.81,12.222 Z" id="path-2"></path>
        <path d="M27.342,18 L25.542,18 L25.542,4.5 L27.162,4.5 L27.324,5.922 C28.044,4.854 29.094,4.32 30.474,4.32 C31.758,4.32 32.781,4.767 33.543,5.661 C34.305,6.555 34.686,7.662 34.686,8.982 C34.686,10.314 34.305,11.43 33.543,12.33 C32.781,13.23 31.758,13.68 30.474,13.68 C29.118,13.68 28.074,13.152 27.342,12.096 L27.342,18 Z M30.114,12.15 C31.014,12.15 31.701,11.853 32.175,11.259 C32.649,10.665 32.886,9.906 32.886,8.982 C32.886,8.07 32.649,7.32 32.175,6.732 C31.701,6.144 31.014,5.85 30.114,5.85 C29.274,5.85 28.602,6.15 28.098,6.75 C27.594,7.35 27.342,8.094 27.342,8.982 C27.342,9.882 27.594,10.635 28.098,11.241 C28.602,11.847 29.274,12.15 30.114,12.15 Z" id="path-3"></path>
        <polygon id="path-4" points="38.61 13.5 36.81 13.5 36.81 4.5 38.61 4.5 38.61 8.568 42.732 4.5 43.902 4.5 43.902 5.67 40.68 8.766 44.172 12.24 44.172 13.5 42.912 13.5 38.61 9.126"></polygon>
        <path d="M50.112,13.68 C48.72,13.68 47.61,13.23 46.782,12.33 C45.954,11.43 45.54,10.314 45.54,8.982 C45.54,7.662 45.954,6.555 46.782,5.661 C47.61,4.767 48.72,4.32 50.112,4.32 C51.492,4.32 52.599,4.767 53.433,5.661 C54.267,6.555 54.684,7.662 54.684,8.982 C54.684,10.314 54.267,11.43 53.433,12.33 C52.599,13.23 51.492,13.68 50.112,13.68 Z M48.042,11.268 C48.522,11.856 49.212,12.15 50.112,12.15 C51.012,12.15 51.699,11.853 52.173,11.259 C52.647,10.665 52.884,9.906 52.884,8.982 C52.884,8.082 52.644,7.335 52.164,6.741 C51.684,6.147 51,5.85 50.112,5.85 C49.224,5.85 48.54,6.147 48.06,6.741 C47.58,7.335 47.34,8.082 47.34,8.982 C47.34,9.906 47.574,10.668 48.042,11.268 Z" id="path-5"></path>
        <path d="M60.966,13.5 L56.79,13.5 L56.79,4.5 L60.768,4.5 C61.74,4.5 62.52,4.707 63.108,5.121 C63.696,5.535 63.99,6.114 63.99,6.858 C63.99,7.758 63.54,8.388 62.64,8.748 C63.18,8.904 63.6,9.162 63.9,9.522 C64.2,9.882 64.35,10.314 64.35,10.818 C64.35,11.694 64.044,12.36 63.432,12.816 C62.82,13.272 61.998,13.5 60.966,13.5 Z M58.59,5.94 L58.59,8.1 L60.768,8.1 C61.656,8.1 62.1,7.734 62.1,7.002 C62.1,6.294 61.656,5.94 60.768,5.94 L58.59,5.94 Z M58.59,9.54 L58.59,12.06 L60.84,12.06 C61.92,12.06 62.46,11.64 62.46,10.8 C62.46,9.96 61.92,9.54 60.84,9.54 L58.59,9.54 Z" id="path-6"></path>
        <path d="M70.488,13.68 C69.024,13.68 67.896,13.236 67.104,12.348 C66.312,11.46 65.916,10.338 65.916,8.982 C65.916,7.662 66.33,6.552 67.158,5.652 C67.986,4.752 69.096,4.302 70.488,4.302 C70.788,4.302 71.073,4.32 71.343,4.356 C71.613,4.392 71.85,4.443 72.054,4.509 C72.258,4.575 72.45,4.65 72.63,4.734 C72.81,4.818 72.96,4.905 73.08,4.995 C73.2,5.085 73.311,5.175 73.413,5.265 C73.515,5.355 73.596,5.442 73.656,5.526 C73.716,5.61 73.767,5.685 73.809,5.751 C73.851,5.817 73.878,5.868 73.89,5.904 L73.926,5.958 L73.926,7.128 L72.756,7.128 L72.738,7.092 C72.726,7.056 72.708,7.014 72.684,6.966 C72.66,6.918 72.627,6.861 72.585,6.795 C72.543,6.729 72.492,6.66 72.432,6.588 C72.372,6.516 72.3,6.444 72.216,6.372 C72.132,6.3 72.033,6.234 71.919,6.174 C71.805,6.114 71.679,6.057 71.541,6.003 C71.403,5.949 71.244,5.907 71.064,5.877 C70.884,5.847 70.692,5.832 70.488,5.832 C69.588,5.832 68.901,6.129 68.427,6.723 C67.953,7.317 67.716,8.07 67.716,8.982 C67.716,9.906 67.953,10.665 68.427,11.259 C68.901,11.853 69.588,12.15 70.488,12.15 C70.86,12.15 71.193,12.105 71.487,12.015 C71.781,11.925 72.006,11.82 72.162,11.7 C72.318,11.58 72.444,11.451 72.54,11.313 C72.636,11.175 72.699,11.07 72.729,10.998 C72.759,10.926 72.774,10.878 72.774,10.854 L73.944,10.854 L73.944,12.024 C73.956,12.024 73.929,12.081 73.863,12.195 C73.797,12.309 73.686,12.447 73.53,12.609 C73.374,12.771 73.173,12.933 72.927,13.095 C72.681,13.257 72.342,13.395 71.91,13.509 C71.478,13.623 71.004,13.68 70.488,13.68 Z" id="path-7"></path>
        <polygon id="path-8" points="77.904 13.5 76.104 13.5 76.104 4.5 77.904 4.5 77.904 8.568 82.026 4.5 83.196 4.5 83.196 5.67 79.974 8.766 83.466 12.24 83.466 13.5 82.206 13.5 77.904 9.126"></polygon>
        <path d="M89.406,13.68 C88.014,13.68 86.904,13.23 86.076,12.33 C85.248,11.43 84.834,10.314 84.834,8.982 C84.834,7.662 85.248,6.555 86.076,5.661 C86.904,4.767 88.014,4.32 89.406,4.32 C90.786,4.32 91.893,4.767 92.727,5.661 C93.561,6.555 93.978,7.662 93.978,8.982 C93.978,10.314 93.561,11.43 92.727,12.33 C91.893,13.23 90.786,13.68 89.406,13.68 Z M87.336,11.268 C87.816,11.856 88.506,12.15 89.406,12.15 C90.306,12.15 90.993,11.853 91.467,11.259 C91.941,10.665 92.178,9.906 92.178,8.982 C92.178,8.082 91.938,7.335 91.458,6.741 C90.978,6.147 90.294,5.85 89.406,5.85 C88.518,5.85 87.834,6.147 87.354,6.741 C86.874,7.335 86.634,8.082 86.634,8.982 C86.634,9.906 86.868,10.668 87.336,11.268 Z" id="path-9"></path>
        <path d="M100.206,13.68 C98.706,13.68 97.554,13.251 96.75,12.393 C95.946,11.535 95.544,10.398 95.544,8.982 C95.544,7.65 95.937,6.54 96.723,5.652 C97.509,4.764 98.598,4.32 99.99,4.32 C101.382,4.32 102.417,4.68 103.095,5.4 C103.773,6.12 104.112,7.08 104.112,8.28 L104.04,9.252 L97.344,9.252 C97.392,10.14 97.662,10.842 98.154,11.358 C98.646,11.874 99.33,12.132 100.206,12.132 C100.59,12.132 100.941,12.093 101.259,12.015 C101.577,11.937 101.823,11.847 101.997,11.745 C102.171,11.643 102.321,11.538 102.447,11.43 C102.573,11.322 102.66,11.232 102.708,11.16 L102.762,11.034 L103.932,11.034 L103.932,12.204 L103.932,12.222 C103.5,12.822 102.786,13.248 101.79,13.5 C101.31,13.62 100.782,13.68 100.206,13.68 Z M97.434,7.902 L102.348,7.902 C102.348,7.29 102.15,6.795 101.754,6.417 C101.358,6.039 100.776,5.85 100.008,5.85 C98.568,5.85 97.71,6.534 97.434,7.902 Z" id="path-10"></path>
        <polygon id="path-11" points="116.388 11.34 115.218 11.34 112.536 7.236 112.536 13.5 110.826 13.5 110.826 4.5 112.806 4.5 115.884 9.27 118.908 4.5 120.888 4.5 120.888 13.5 119.088 13.5 119.088 7.2"></polygon>
        <path d="M127.674,13.68 C126.174,13.68 125.022,13.251 124.218,12.393 C123.414,11.535 123.012,10.398 123.012,8.982 C123.012,7.65 123.405,6.54 124.191,5.652 C124.977,4.764 126.066,4.32 127.458,4.32 C128.85,4.32 129.885,4.68 130.563,5.4 C131.241,6.12 131.58,7.08 131.58,8.28 L131.508,9.252 L124.812,9.252 C124.86,10.14 125.13,10.842 125.622,11.358 C126.114,11.874 126.798,12.132 127.674,12.132 C128.058,12.132 128.409,12.093 128.727,12.015 C129.045,11.937 129.291,11.847 129.465,11.745 C129.639,11.643 129.789,11.538 129.915,11.43 C130.041,11.322 130.128,11.232 130.176,11.16 L130.23,11.034 L131.4,11.034 L131.4,12.204 L131.4,12.222 C130.968,12.822 130.254,13.248 129.258,13.5 C128.778,13.62 128.25,13.68 127.674,13.68 Z M124.902,7.902 L129.816,7.902 C129.816,7.29 129.618,6.795 129.222,6.417 C128.826,6.039 128.244,5.85 127.476,5.85 C126.036,5.85 125.178,6.534 124.902,7.902 Z" id="path-12"></path>
        <path d="M137.736,13.68 C136.272,13.68 135.144,13.236 134.352,12.348 C133.56,11.46 133.164,10.338 133.164,8.982 C133.164,7.662 133.578,6.552 134.406,5.652 C135.234,4.752 136.344,4.302 137.736,4.302 C138.036,4.302 138.321,4.32 138.591,4.356 C138.861,4.392 139.098,4.443 139.302,4.509 C139.506,4.575 139.698,4.65 139.878,4.734 C140.058,4.818 140.208,4.905 140.328,4.995 C140.448,5.085 140.559,5.175 140.661,5.265 C140.763,5.355 140.844,5.442 140.904,5.526 C140.964,5.61 141.015,5.685 141.057,5.751 C141.099,5.817 141.126,5.868 141.138,5.904 L141.174,5.958 L141.174,7.128 L140.004,7.128 L139.986,7.092 C139.974,7.056 139.956,7.014 139.932,6.966 C139.908,6.918 139.875,6.861 139.833,6.795 C139.791,6.729 139.74,6.66 139.68,6.588 C139.62,6.516 139.548,6.444 139.464,6.372 C139.38,6.3 139.281,6.234 139.167,6.174 C139.053,6.114 138.927,6.057 138.789,6.003 C138.651,5.949 138.492,5.907 138.312,5.877 C138.132,5.847 137.94,5.832 137.736,5.832 C136.836,5.832 136.149,6.129 135.675,6.723 C135.201,7.317 134.964,8.07 134.964,8.982 C134.964,9.906 135.201,10.665 135.675,11.259 C136.149,11.853 136.836,12.15 137.736,12.15 C138.108,12.15 138.441,12.105 138.735,12.015 C139.029,11.925 139.254,11.82 139.41,11.7 C139.566,11.58 139.692,11.451 139.788,11.313 C139.884,11.175 139.947,11.07 139.977,10.998 C140.007,10.926 140.022,10.878 140.022,10.854 L141.192,10.854 L141.192,12.024 C141.204,12.024 141.177,12.081 141.111,12.195 C141.045,12.309 140.934,12.447 140.778,12.609 C140.622,12.771 140.421,12.933 140.175,13.095 C139.929,13.257 139.59,13.395 139.158,13.509 C138.726,13.623 138.252,13.68 137.736,13.68 Z" id="path-13"></path>
        <polygon id="path-14" points="147.042 13.5 145.242 13.5 145.242 6.03 142.362 6.03 142.362 4.5 149.922 4.5 149.922 6.03 147.042 6.03"></polygon>
        <path d="M155.61,13.68 C154.218,13.68 153.108,13.23 152.28,12.33 C151.452,11.43 151.038,10.314 151.038,8.982 C151.038,7.662 151.452,6.555 152.28,5.661 C153.108,4.767 154.218,4.32 155.61,4.32 C156.99,4.32 158.097,4.767 158.931,5.661 C159.765,6.555 160.182,7.662 160.182,8.982 C160.182,10.314 159.765,11.43 158.931,12.33 C158.097,13.23 156.99,13.68 155.61,13.68 Z M153.54,11.268 C154.02,11.856 154.71,12.15 155.61,12.15 C156.51,12.15 157.197,11.853 157.671,11.259 C158.145,10.665 158.382,9.906 158.382,8.982 C158.382,8.082 158.142,7.335 157.662,6.741 C157.182,6.147 156.498,5.85 155.61,5.85 C154.722,5.85 154.038,6.147 153.558,6.741 C153.078,7.335 152.838,8.082 152.838,8.982 C152.838,9.906 153.072,10.668 153.54,11.268 Z" id="path-15"></path>
        <path d="M164.088,18 L162.288,18 L162.288,4.5 L163.908,4.5 L164.07,5.922 C164.79,4.854 165.84,4.32 167.22,4.32 C168.504,4.32 169.527,4.767 170.289,5.661 C171.051,6.555 171.432,7.662 171.432,8.982 C171.432,10.314 171.051,11.43 170.289,12.33 C169.527,13.23 168.504,13.68 167.22,13.68 C165.864,13.68 164.82,13.152 164.088,12.096 L164.088,18 Z M166.86,12.15 C167.76,12.15 168.447,11.853 168.921,11.259 C169.395,10.665 169.632,9.906 169.632,8.982 C169.632,8.07 169.395,7.32 168.921,6.732 C168.447,6.144 167.76,5.85 166.86,5.85 C166.02,5.85 165.348,6.15 164.844,6.75 C164.34,7.35 164.088,8.094 164.088,8.982 C164.088,9.882 164.34,10.635 164.844,11.241 C165.348,11.847 166.02,12.15 166.86,12.15 Z" id="path-16"></path>
        <path d="M177.57,13.68 C176.178,13.68 175.068,13.23 174.24,12.33 C173.412,11.43 172.998,10.314 172.998,8.982 C172.998,7.662 173.412,6.555 174.24,5.661 C175.068,4.767 176.178,4.32 177.57,4.32 C178.95,4.32 180.057,4.767 180.891,5.661 C181.725,6.555 182.142,7.662 182.142,8.982 C182.142,10.314 181.725,11.43 180.891,12.33 C180.057,13.23 178.95,13.68 177.57,13.68 Z M175.5,11.268 C175.98,11.856 176.67,12.15 177.57,12.15 C178.47,12.15 179.157,11.853 179.631,11.259 C180.105,10.665 180.342,9.906 180.342,8.982 C180.342,8.082 180.102,7.335 179.622,6.741 C179.142,6.147 178.458,5.85 177.57,5.85 C176.682,5.85 175.998,6.147 175.518,6.741 C175.038,7.335 174.798,8.082 174.798,8.982 C174.798,9.906 175.032,10.668 175.5,11.268 Z" id="path-17"></path>
        <polygon id="path-18" points="184.878 13.5 183.618 13.5 183.618 12.24 186.894 8.82 183.654 5.634 183.654 4.5 184.824 4.5 188.982 8.586 188.982 4.5 190.782 4.5 190.782 8.604 194.868 4.5 196.038 4.5 196.038 5.67 192.87 8.784 196.218 12.24 196.218 13.5 194.958 13.5 190.782 9.072 190.782 13.5 188.982 13.5 188.982 9.108"></polygon>
        <path d="M198.702,16.02 L197.082,16.02 L197.082,12.06 L198.054,12.06 C198.522,11.724 198.822,10.644 198.954,8.82 L199.26,4.5 L205.956,4.5 L205.956,12.06 L207.396,12.06 L207.396,16.02 L205.776,16.02 L205.776,13.5 L198.702,13.5 L198.702,16.02 Z M199.854,12.06 L204.156,12.06 L204.156,5.94 L200.772,5.94 L200.538,9.126 C200.442,10.41 200.214,11.388 199.854,12.06 Z" id="path-19"></path>
        <path d="M213.39,13.68 C211.89,13.68 210.738,13.251 209.934,12.393 C209.13,11.535 208.728,10.398 208.728,8.982 C208.728,7.65 209.121,6.54 209.907,5.652 C210.693,4.764 211.782,4.32 213.174,4.32 C214.566,4.32 215.601,4.68 216.279,5.4 C216.957,6.12 217.296,7.08 217.296,8.28 L217.224,9.252 L210.528,9.252 C210.576,10.14 210.846,10.842 211.338,11.358 C211.83,11.874 212.514,12.132 213.39,12.132 C213.774,12.132 214.125,12.093 214.443,12.015 C214.761,11.937 215.007,11.847 215.181,11.745 C215.355,11.643 215.505,11.538 215.631,11.43 C215.757,11.322 215.844,11.232 215.892,11.16 L215.946,11.034 L217.116,11.034 L217.116,12.204 L217.116,12.222 C216.684,12.822 215.97,13.248 214.974,13.5 C214.494,13.62 213.966,13.68 213.39,13.68 Z M210.618,7.902 L215.532,7.902 C215.532,7.29 215.334,6.795 214.938,6.417 C214.542,6.039 213.96,5.85 213.192,5.85 C211.752,5.85 210.894,6.534 210.618,7.902 Z" id="path-20"></path>
        <polygon id="path-21" points="221.238 13.5 219.438 13.5 219.438 4.5 221.238 4.5 221.238 8.1 225.558 8.1 225.558 4.5 227.358 4.5 227.358 13.5 225.558 13.5 225.558 9.63 221.238 9.63"></polygon>
        <polygon id="path-22" points="231.642 13.5 230.022 13.5 230.022 4.5 231.822 4.5 231.822 10.818 236.502 4.5 238.122 4.5 238.122 13.5 236.322 13.5 236.322 7.164"></polygon>
        <path d="M244.908,13.68 C243.408,13.68 242.256,13.251 241.452,12.393 C240.648,11.535 240.246,10.398 240.246,8.982 C240.246,7.65 240.639,6.54 241.425,5.652 C242.211,4.764 243.3,4.32 244.692,4.32 C246.084,4.32 247.119,4.68 247.797,5.4 C248.475,6.12 248.814,7.08 248.814,8.28 L248.742,9.252 L242.046,9.252 C242.094,10.14 242.364,10.842 242.856,11.358 C243.348,11.874 244.032,12.132 244.908,12.132 C245.292,12.132 245.643,12.093 245.961,12.015 C246.279,11.937 246.525,11.847 246.699,11.745 C246.873,11.643 247.023,11.538 247.149,11.43 C247.275,11.322 247.362,11.232 247.41,11.16 L247.464,11.034 L248.634,11.034 L248.634,12.204 L248.634,12.222 C248.202,12.822 247.488,13.248 246.492,13.5 C246.012,13.62 245.484,13.68 244.908,13.68 Z M242.136,7.902 L247.05,7.902 C247.05,7.29 246.852,6.795 246.456,6.417 C246.06,6.039 245.478,5.85 244.71,5.85 C243.27,5.85 242.412,6.534 242.136,7.902 Z" id="path-23"></path>
    </defs>
    <g id="PanoTour" stroke="none" stroke-width="1" fill="none" fill-rule="evenodd">
        <g id="pano-1920x1080" transform="translate(-867, -522)">
            <g id="pin-mar" transform="translate(868, 523)">
                <rect id="Rectangle" stroke="#FFFFFF" stroke-width="2" fill="#00ABC7" fill-rule="nonzero" x="0" y="0" width="314" height="42" rx="21"></rect>
                <g id="Марковское-месторожд" transform="translate(42.71, 13.5)" fill="#FFFFFF" fill-rule="nonzero">
                    <g id="Path">
                        <use xlink:href="#path-1"></use>
                        <use xlink:href="#path-1"></use>
                    </g>
                    <g id="Shape">
                        <use xlink:href="#path-2"></use>
                        <use xlink:href="#path-2"></use>
                    </g>
                    <g id="Shape">
                        <use xlink:href="#path-3"></use>
                        <use xlink:href="#path-3"></use>
                    </g>
                    <g id="Path">
                        <use xlink:href="#path-4"></use>
                        <use xlink:href="#path-4"></use>
                    </g>
                    <g id="Shape">
                        <use xlink:href="#path-5"></use>
                        <use xlink:href="#path-5"></use>
                    </g>
                    <g id="Shape">
                        <use xlink:href="#path-6"></use>
                        <use xlink:href="#path-6"></use>
                    </g>
                    <g id="Path">
                        <use xlink:href="#path-7"></use>
                        <use xlink:href="#path-7"></use>
                    </g>
                    <g id="Path">
                        <use xlink:href="#path-8"></use>
                        <use xlink:href="#path-8"></use>
                    </g>
                    <g id="Shape">
                        <use xlink:href="#path-9"></use>
                        <use xlink:href="#path-9"></use>
                    </g>
                    <g id="Shape">
                        <use xlink:href="#path-10"></use>
                        <use xlink:href="#path-10"></use>
                    </g>
                    <g id="Path">
                        <use xlink:href="#path-11"></use>
                        <use xlink:href="#path-11"></use>
                    </g>
                    <g id="Shape">
                        <use xlink:href="#path-12"></use>
                        <use xlink:href="#path-12"></use>
                    </g>
                    <g id="Path">
                        <use xlink:href="#path-13"></use>
                        <use xlink:href="#path-13"></use>
                    </g>
                    <g id="Path">
                        <use xlink:href="#path-14"></use>
                        <use xlink:href="#path-14"></use>
                    </g>
                    <g id="Shape">
                        <use xlink:href="#path-15"></use>
                        <use xlink:href="#path-15"></use>
                    </g>
                    <g id="Shape">
                        <use xlink:href="#path-16"></use>
                        <use xlink:href="#path-16"></use>
                    </g>
                    <g id="Shape">
                        <use xlink:href="#path-17"></use>
                        <use xlink:href="#path-17"></use>
                    </g>
                    <g id="Path">
                        <use xlink:href="#path-18"></use>
                        <use xlink:href="#path-18"></use>
                    </g>
                    <g id="Shape">
                        <use xlink:href="#path-19"></use>
                        <use xlink:href="#path-19"></use>
                    </g>
                    <g id="Shape">
                        <use xlink:href="#path-20"></use>
                        <use xlink:href="#path-20"></use>
                    </g>
                    <g id="Path">
                        <use xlink:href="#path-21"></use>
                        <use xlink:href="#path-21"></use>
                    </g>
                    <g id="Path">
                        <use xlink:href="#path-22"></use>
                        <use xlink:href="#path-22"></use>
                    </g>
                    <g id="Shape">
                        <use xlink:href="#path-23"></use>
                        <use xlink:href="#path-23"></use>
                    </g>
                </g>
                <path d="M19.7773437,41.2070312 C19.4505208,69.5976579 19.1236979,97.9882796 18.796875,126.378906" id="Path-3" stroke="#FFFFFF" stroke-width="2"></path>
                <circle id="Oval" stroke="#FFFFFF" stroke-width="2" cx="20" cy="21" r="8"></circle>
            </g>
        </g>
    </g>
</svg>