<?xml version="1.0" encoding="UTF-8" standalone="no"?>
<svg width="72px" height="56px" viewBox="0 0 72 56" version="1.1" xmlns="http://www.w3.org/2000/svg" xmlns:xlink="http://www.w3.org/1999/xlink">
    <!-- Generator: Sketch 3.8.3 (29802) - http://www.bohemiancoding.com/sketch -->
    <title>rotate</title>
    <desc>Created with Sketch.</desc>
    <defs></defs>
    <g id="new" stroke="none" stroke-width="1" fill="none" fill-rule="evenodd">
        <g id="rotate" transform="translate(24.000000, 16.000000)" fill="#FFFFFF">
            <g id="refresh">
                <path d="M20.4,3.6 C18.3,1.35 15.3,0 12,0 C5.4,0 0,5.4 0,12 C0,18.6 5.4,24 12,24 C17.55,24 22.2,20.1 23.55,15 L20.4,15 C19.2,18.45 15.9,21 12,21 C7.05,21 3,16.95 3,12 C3,7.05 7.05,3 12,3 C14.55,3 16.65,4.05 18.3,5.7 L13.5,10.5 L24,10.5 L24,0 L20.4,3.6 L20.4,3.6 Z" id="Shape"></path>
            </g>
        </g>
    </g>
</svg>