<?xml version="1.0" encoding="UTF-8" standalone="no"?>
<svg width="72px" height="56px" viewBox="0 0 72 56" version="1.1" xmlns="http://www.w3.org/2000/svg" xmlns:xlink="http://www.w3.org/1999/xlink">
    <!-- Generator: Sketch 3.8.3 (29802) - http://www.bohemiancoding.com/sketch -->
    <title>sound_on_hover</title>
    <desc>Created with Sketch.</desc>
    <defs></defs>
    <g id="new" stroke="none" stroke-width="1" fill="none" fill-rule="evenodd">
        <g id="sound_on_hover-copy" transform="translate(16.000000, 8.000000)">
            <g id="row" fill-opacity="0.26" fill="#000000">
                <circle id="Oval" cx="20" cy="20" r="20"></circle>
            </g>
            <g id="volume-up" transform="translate(10.000000, 10.000000)" fill="#FFFFFF">
                <path d="M0,6.26136364 L0,12.7386364 L4.44444444,12.7386364 L10,18.1363636 L10,0.863636364 L4.44444444,6.26136364 L0,6.26136364 L0,6.26136364 Z M15,9.5 C15,7.55681818 13.8888889,5.9375 12.2222222,5.18181818 L12.2222222,13.8181818 C13.8888889,13.0625 15,11.4431818 15,9.5 L15,9.5 Z M12.2222222,0 L12.2222222,2.26704545 C15.4444444,3.23863636 17.7777778,6.04545455 17.7777778,9.5 C17.7777778,12.9545455 15.4444444,15.7613636 12.2222222,16.7329545 L12.2222222,19 C16.6666667,18.0284091 20,14.1420455 20,9.5 C20,4.85795455 16.6666667,0.971590909 12.2222222,0 L12.2222222,0 Z" id="Shape"></path>
            </g>
        </g>
    </g>
</svg>