<?xml version="1.0" encoding="UTF-8"?>
<svg width="435px" height="332px" viewBox="0 0 435 332" version="1.1" xmlns="http://www.w3.org/2000/svg" xmlns:xlink="http://www.w3.org/1999/xlink">
    <title>cover-logo</title>
    <defs>
        <rect id="path-1" x="0" y="0" width="220" height="220"></rect>
        <polygon id="path-3" points="16.2 27.756 5.976 16.02 5.976 27.756 0 27.756 0 0.756 5.976 0.756 5.976 12.348 15.732 0.756 20.448 0.756 20.448 3.456 11.628 13.716 21.456 24.948 21.456 27.756"></polygon>
        <path d="M24.552,27.756 L22.86,27.756 L22.86,23.112 L23.22,23.112 C24.204,23.088 24.906,22.728 25.326,22.032 C25.746,21.336 25.968,20.22 25.992,18.684 L26.172,9.576 L40.5,9.576 L40.5,27.756 L35.1,27.756 L35.1,13.932 L30.816,13.932 L30.708,19.332 C30.636,21.996 30.144,24.066 29.232,25.542 C28.32,27.018 26.76,27.756 24.552,27.756 Z" id="path-4"></path>
        <path d="M61.74,28.296 C59.292,28.296 57.264,27.588 55.656,26.172 C54.048,24.756 53.052,22.92 52.668,20.664 L50.544,20.664 L50.544,27.756 L45.108,27.756 L45.108,9.576 L50.544,9.576 L50.544,16.308 L52.704,16.308 C53.136,14.244 54.132,12.504 55.692,11.088 C57.228,9.72 59.244,9.036 61.74,9.036 C64.62,9.036 66.912,9.948 68.616,11.772 C70.32,13.596 71.172,15.876 71.172,18.612 C71.172,21.372 70.32,23.676 68.616,25.524 C66.912,27.372 64.62,28.296 61.74,28.296 Z M61.74,23.508 C63.036,23.508 64.026,23.052 64.71,22.14 C65.394,21.228 65.736,20.052 65.736,18.612 C65.736,17.22 65.394,16.074 64.71,15.174 C64.026,14.274 63.036,13.824 61.74,13.824 C60.444,13.824 59.448,14.28 58.752,15.192 C58.056,16.104 57.708,17.244 57.708,18.612 C57.708,20.052 58.05,21.228 58.734,22.14 C59.418,23.052 60.42,23.508 61.74,23.508 Z" id="path-5"></path>
        <path d="M90.432,27.756 L84.996,27.756 L84.996,21.888 L82.044,21.888 C79.236,21.888 77.154,21.294 75.798,20.106 C74.442,18.918 73.764,17.076 73.764,14.58 L73.764,9.576 L79.2,9.576 L79.2,14.58 C79.2,15.612 79.446,16.362 79.938,16.83 C80.43,17.298 81.18,17.532 82.188,17.532 L84.996,17.532 L84.996,9.576 L90.432,9.576 L90.432,27.756 Z" id="path-6"></path>
        <path d="M103.824,28.296 C100.68,28.296 98.262,27.408 96.57,25.632 C94.878,23.856 94.032,21.552 94.032,18.72 C94.032,15.96 94.89,13.656 96.606,11.808 C98.322,9.96 100.656,9.036 103.608,9.036 C106.56,9.036 108.768,9.822 110.232,11.394 C111.696,12.966 112.428,15.036 112.428,17.604 C112.428,17.988 112.41,18.372 112.374,18.756 C112.338,19.14 112.296,19.428 112.248,19.62 L112.176,19.908 L99.504,19.908 C99.672,21.156 100.134,22.14 100.89,22.86 C101.646,23.58 102.66,23.94 103.932,23.94 C104.532,23.94 105.078,23.886 105.57,23.778 C106.062,23.67 106.44,23.532 106.704,23.364 C106.968,23.196 107.19,23.028 107.37,22.86 C107.55,22.692 107.664,22.548 107.712,22.428 L107.82,22.284 L112.068,22.284 L112.068,24.696 C112.02,24.792 111.942,24.924 111.834,25.092 C111.726,25.26 111.456,25.548 111.024,25.956 C110.592,26.364 110.094,26.724 109.53,27.036 C108.966,27.348 108.174,27.636 107.154,27.9 C106.134,28.164 105.024,28.296 103.824,28.296 Z M99.612,16.632 L107.208,16.632 C107.208,15.696 106.896,14.916 106.272,14.292 C105.648,13.668 104.748,13.356 103.572,13.356 C101.436,13.356 100.116,14.448 99.612,16.632 Z" id="path-7"></path>
        <path d="M125.64,27.756 L116.028,27.756 L116.028,9.396 L125.244,9.396 C127.188,9.396 128.748,9.81 129.924,10.638 C131.1,11.466 131.688,12.648 131.688,14.184 C131.688,15.072 131.448,15.858 130.968,16.542 C130.488,17.226 129.828,17.736 128.988,18.072 C130.068,18.384 130.908,18.912 131.508,19.656 C132.108,20.4 132.408,21.276 132.408,22.284 C132.408,24.084 131.796,25.446 130.572,26.37 C129.348,27.294 127.704,27.756 125.64,27.756 Z M121.248,13.176 L121.248,16.416 L124.164,16.416 C125.58,16.416 126.288,15.864 126.288,14.76 C126.288,13.704 125.58,13.176 124.164,13.176 L121.248,13.176 Z M121.248,20.232 L121.248,23.976 L124.488,23.976 C126.168,23.976 127.008,23.352 127.008,22.104 C127.008,20.856 126.168,20.232 124.488,20.232 L121.248,20.232 Z" id="path-8"></path>
        <path d="M144.18,27.756 L136.044,27.756 L136.044,9.576 L141.48,9.576 L141.48,15.048 L144.252,15.048 C146.796,15.048 148.734,15.612 150.066,16.74 C151.398,17.868 152.064,19.368 152.064,21.24 C152.064,23.04 151.428,24.576 150.156,25.848 C148.884,27.12 146.892,27.756 144.18,27.756 Z M159.192,27.756 L153.756,27.756 L153.756,9.576 L159.192,9.576 L159.192,27.756 Z M141.48,19.116 L141.48,23.688 L143.748,23.688 C145.596,23.688 146.52,22.896 146.52,21.312 C146.52,19.848 145.608,19.116 143.784,19.116 L141.48,19.116 Z" id="path-9"></path>
        <path d="M172.584,28.296 C169.44,28.296 167.022,27.408 165.33,25.632 C163.638,23.856 162.792,21.552 162.792,18.72 C162.792,15.96 163.65,13.656 165.366,11.808 C167.082,9.96 169.416,9.036 172.368,9.036 C175.32,9.036 177.528,9.822 178.992,11.394 C180.456,12.966 181.188,15.036 181.188,17.604 C181.188,17.988 181.17,18.372 181.134,18.756 C181.098,19.14 181.056,19.428 181.008,19.62 L180.936,19.908 L168.264,19.908 C168.432,21.156 168.894,22.14 169.65,22.86 C170.406,23.58 171.42,23.94 172.692,23.94 C173.292,23.94 173.838,23.886 174.33,23.778 C174.822,23.67 175.2,23.532 175.464,23.364 C175.728,23.196 175.95,23.028 176.13,22.86 C176.31,22.692 176.424,22.548 176.472,22.428 L176.58,22.284 L180.828,22.284 L180.828,24.696 C180.78,24.792 180.702,24.924 180.594,25.092 C180.486,25.26 180.216,25.548 179.784,25.956 C179.352,26.364 178.854,26.724 178.29,27.036 C177.726,27.348 176.934,27.636 175.914,27.9 C174.894,28.164 173.784,28.296 172.584,28.296 Z M168.372,16.632 L175.968,16.632 C175.968,15.696 175.656,14.916 175.032,14.292 C174.408,13.668 173.508,13.356 172.332,13.356 C170.196,13.356 168.876,14.448 168.372,16.632 Z" id="path-10"></path>
        <path d="M208.728,25.524 C207,27.372 204.672,28.296 201.744,28.296 C198.816,28.296 196.482,27.372 194.742,25.524 C193.002,23.676 192.132,21.372 192.132,18.612 C192.132,15.876 193.002,13.596 194.742,11.772 C196.482,9.948 198.816,9.036 201.744,9.036 C204.672,9.036 207.006,9.948 208.746,11.772 C210.486,13.596 211.356,15.876 211.356,18.612 C211.356,21.372 210.48,23.676 208.728,25.524 Z M198.612,22.176 C199.332,23.112 200.376,23.58 201.744,23.58 C203.112,23.58 204.15,23.112 204.858,22.176 C205.566,21.24 205.92,20.052 205.92,18.612 C205.92,17.22 205.56,16.062 204.84,15.138 C204.12,14.214 203.088,13.752 201.744,13.752 C200.4,13.752 199.368,14.214 198.648,15.138 C197.928,16.062 197.568,17.22 197.568,18.612 C197.568,20.052 197.916,21.24 198.612,22.176 Z" id="path-11"></path>
        <path d="M224.208,28.296 C221.16,28.296 218.778,27.324 217.062,25.38 C215.346,23.436 214.488,20.772 214.488,17.388 L214.488,14.436 C214.488,10.428 215.232,7.302 216.72,5.058 C218.208,2.814 220.824,1.512 224.568,1.152 L226.548,0.972 C227.148,0.924 227.652,0.816 228.06,0.648 C228.468,0.48 228.732,0.324 228.852,0.18 L228.996,0 L232.884,0 L232.884,2.412 C232.5,3.396 231.876,4.134 231.012,4.626 C230.148,5.118 228.816,5.46 227.016,5.652 L224.604,5.904 C222.588,6.12 221.22,6.72 220.5,7.704 C219.78,8.688 219.36,10.308 219.24,12.564 C219.792,11.532 220.614,10.716 221.706,10.116 C222.798,9.516 224.016,9.216 225.36,9.216 C228,9.216 230.088,10.098 231.624,11.862 C233.16,13.626 233.928,15.912 233.928,18.72 C233.928,21.432 233.04,23.706 231.264,25.542 C229.488,27.378 227.136,28.296 224.208,28.296 Z M221.004,22.212 C221.748,23.124 222.816,23.58 224.208,23.58 C225.6,23.58 226.668,23.124 227.412,22.212 C228.156,21.3 228.528,20.136 228.528,18.72 C228.528,17.352 228.15,16.212 227.394,15.3 C226.638,14.388 225.576,13.932 224.208,13.932 C222.816,13.932 221.754,14.382 221.022,15.282 C220.29,16.182 219.924,17.328 219.924,18.72 C219.924,20.136 220.284,21.3 221.004,22.212 Z" id="path-12"></path>
        <path d="M248.76,27.756 L240.624,27.756 L240.624,13.932 L235.944,13.932 L235.944,9.576 L246.06,9.576 L246.06,15.048 L248.832,15.048 C251.376,15.048 253.314,15.612 254.646,16.74 C255.978,17.868 256.644,19.368 256.644,21.24 C256.644,23.04 256.008,24.576 254.736,25.848 C253.464,27.12 251.472,27.756 248.76,27.756 Z M246.06,19.116 L246.06,23.688 L248.328,23.688 C250.176,23.688 251.1,22.896 251.1,21.312 C251.1,19.848 250.188,19.116 248.364,19.116 L246.06,19.116 Z" id="path-13"></path>
        <path d="M268.596,28.296 C265.452,28.296 263.034,27.408 261.342,25.632 C259.65,23.856 258.804,21.552 258.804,18.72 C258.804,15.96 259.662,13.656 261.378,11.808 C263.094,9.96 265.428,9.036 268.38,9.036 C271.332,9.036 273.54,9.822 275.004,11.394 C276.468,12.966 277.2,15.036 277.2,17.604 C277.2,17.988 277.182,18.372 277.146,18.756 C277.11,19.14 277.068,19.428 277.02,19.62 L276.948,19.908 L264.276,19.908 C264.444,21.156 264.906,22.14 265.662,22.86 C266.418,23.58 267.432,23.94 268.704,23.94 C269.304,23.94 269.85,23.886 270.342,23.778 C270.834,23.67 271.212,23.532 271.476,23.364 C271.74,23.196 271.962,23.028 272.142,22.86 C272.322,22.692 272.436,22.548 272.484,22.428 L272.592,22.284 L276.84,22.284 L276.84,24.696 C276.792,24.792 276.714,24.924 276.606,25.092 C276.498,25.26 276.228,25.548 275.796,25.956 C275.364,26.364 274.866,26.724 274.302,27.036 C273.738,27.348 272.946,27.636 271.926,27.9 C270.906,28.164 269.796,28.296 268.596,28.296 Z M264.384,16.632 L271.98,16.632 C271.98,15.696 271.668,14.916 271.044,14.292 C270.42,13.668 269.52,13.356 268.344,13.356 C266.208,13.356 264.888,14.448 264.384,16.632 Z" id="path-14"></path>
        <polygon id="path-15" points="286.236 27.756 280.8 27.756 280.8 9.576 286.236 9.576 286.236 16.956 292.464 9.576 297.072 9.576 297.072 11.988 291.708 18.252 297.72 25.236 297.72 27.756 292.644 27.756 286.236 19.908"></polygon>
        <polygon id="path-16" points="309.96 27.756 304.524 27.756 304.524 14.004 299.34 14.004 299.34 9.576 315.18 9.576 315.18 14.004 309.96 14.004"></polygon>
        <path d="M326.34,27.756 L318.204,27.756 L318.204,9.576 L323.64,9.576 L323.64,15.048 L326.412,15.048 C328.956,15.048 330.894,15.612 332.226,16.74 C333.558,17.868 334.224,19.368 334.224,21.24 C334.224,23.04 333.588,24.576 332.316,25.848 C331.044,27.12 329.052,27.756 326.34,27.756 Z M341.352,27.756 L335.916,27.756 L335.916,9.576 L341.352,9.576 L341.352,27.756 Z M323.64,19.116 L323.64,23.688 L325.908,23.688 C327.756,23.688 328.68,22.896 328.68,21.312 C328.68,19.848 327.768,19.116 325.944,19.116 L323.64,19.116 Z" id="path-17"></path>
        <polygon id="path-18" points="360.936 27.756 354.96 27.756 354.96 0.756 360.936 0.756 360.936 18.684 372.06 0.756 378 0.756 378 27.756 372.06 27.756 372.06 9.972"></polygon>
        <polygon id="path-19" points="389.88 27.756 383.904 27.756 383.904 0.756 389.88 0.756 389.88 11.376 400.464 11.376 400.464 0.756 406.44 0.756 406.44 27.756 400.464 27.756 400.464 16.416 389.88 16.416"></polygon>
        <polygon id="path-20" points="428.544 27.756 418.32 16.02 418.32 27.756 412.344 27.756 412.344 0.756 418.32 0.756 418.32 12.348 428.076 0.756 432.792 0.756 432.792 3.456 423.972 13.716 433.8 24.948 433.8 27.756"></polygon>
        <polygon id="path-21" points="3.216 18 0 18 0 0 14.16 0 14.16 18 10.944 18 10.944 2.688 3.216 2.688"></polygon>
        <path d="M21.168,18.288 C19.824,18.288 18.816,17.92 18.144,17.184 C17.472,16.448 17.136,15.568 17.136,14.544 C17.136,13.44 17.552,12.556 18.384,11.892 C19.216,11.228 20.472,10.896 22.152,10.896 C22.552,10.896 22.964,10.92 23.388,10.968 C23.812,11.016 24.136,11.064 24.36,11.112 L24.672,11.184 L24.672,10.536 C24.672,8.92 23.896,8.112 22.344,8.112 C22.088,8.112 21.852,8.136 21.636,8.184 C21.42,8.232 21.232,8.292 21.072,8.364 C20.912,8.436 20.764,8.52 20.628,8.616 C20.492,8.712 20.38,8.808 20.292,8.904 C20.204,9 20.132,9.084 20.076,9.156 C20.02,9.228 19.976,9.288 19.944,9.336 L19.896,9.408 L17.832,9.408 L17.832,7.824 C17.864,7.76 17.912,7.68 17.976,7.584 C18.04,7.488 18.196,7.316 18.444,7.068 C18.692,6.82 18.976,6.6 19.296,6.408 C19.616,6.216 20.052,6.044 20.604,5.892 C21.156,5.74 21.76,5.664 22.416,5.664 C24.112,5.664 25.4,6.084 26.28,6.924 C27.16,7.764 27.6,8.992 27.6,10.608 L27.6,18 L25.104,18 L24.84,16.344 C23.96,17.64 22.736,18.288 21.168,18.288 Z M21.888,15.984 C22.736,15.984 23.412,15.744 23.916,15.264 C24.42,14.784 24.672,14.256 24.672,13.68 L24.672,13.104 C24,12.912 23.192,12.816 22.248,12.816 C20.76,12.816 20.016,13.344 20.016,14.4 C20.016,15.456 20.64,15.984 21.888,15.984 Z" id="path-22"></path>
        <polygon id="path-23" points="33.744 18 30.84 18 30.84 5.952 33.744 5.952 33.744 10.608 38.88 10.608 38.88 5.952 41.808 5.952 41.808 18 38.88 18 38.88 13.056 33.744 13.056"></polygon>
        <path d="M50.688,18.288 C48.784,18.288 47.268,17.684 46.14,16.476 C45.012,15.268 44.448,13.76 44.448,11.952 C44.448,10.16 45.008,8.664 46.128,7.464 C47.248,6.264 48.768,5.664 50.688,5.664 C52.576,5.664 54.084,6.264 55.212,7.464 C56.34,8.664 56.904,10.16 56.904,11.952 C56.904,13.744 56.34,15.248 55.212,16.464 C54.084,17.68 52.576,18.288 50.688,18.288 Z M48.192,14.664 C48.752,15.416 49.584,15.792 50.688,15.792 C51.792,15.792 52.624,15.416 53.184,14.664 C53.712,13.928 53.976,13.024 53.976,11.952 C53.976,10.928 53.712,10.04 53.184,9.288 C52.624,8.536 51.792,8.16 50.688,8.16 C49.584,8.16 48.752,8.536 48.192,9.288 C47.648,10.024 47.376,10.912 47.376,11.952 C47.376,13.024 47.648,13.928 48.192,14.664 Z" id="path-24"></path>
        <path d="M62.448,24 L59.544,24 L59.544,5.952 L62.208,5.952 L62.424,7.776 C63.384,6.368 64.76,5.664 66.552,5.664 C68.248,5.664 69.592,6.264 70.584,7.464 C71.576,8.664 72.072,10.16 72.072,11.952 C72.072,13.744 71.568,15.248 70.56,16.464 C69.552,17.68 68.216,18.288 66.552,18.288 C64.776,18.288 63.408,17.6 62.448,16.224 L62.448,24 Z M65.808,15.744 C66.912,15.744 67.744,15.368 68.304,14.616 C68.864,13.864 69.144,12.976 69.144,11.952 C69.144,10.944 68.864,10.064 68.304,9.312 C67.76,8.576 66.928,8.208 65.808,8.208 C64.768,8.208 63.952,8.568 63.36,9.288 C62.752,10.04 62.448,10.928 62.448,11.952 C62.448,12.976 62.752,13.864 63.36,14.616 C63.968,15.368 64.784,15.744 65.808,15.744 Z" id="path-25"></path>
        <path d="M77.928,18.288 C76.584,18.288 75.576,17.92 74.904,17.184 C74.232,16.448 73.896,15.568 73.896,14.544 C73.896,13.44 74.312,12.556 75.144,11.892 C75.976,11.228 77.232,10.896 78.912,10.896 C79.312,10.896 79.724,10.92 80.148,10.968 C80.572,11.016 80.896,11.064 81.12,11.112 L81.432,11.184 L81.432,10.536 C81.432,8.92 80.656,8.112 79.104,8.112 C78.848,8.112 78.612,8.136 78.396,8.184 C78.18,8.232 77.992,8.292 77.832,8.364 C77.672,8.436 77.524,8.52 77.388,8.616 C77.252,8.712 77.14,8.808 77.052,8.904 C76.964,9 76.892,9.084 76.836,9.156 C76.78,9.228 76.736,9.288 76.704,9.336 L76.656,9.408 L74.592,9.408 L74.592,7.824 C74.624,7.76 74.672,7.68 74.736,7.584 C74.8,7.488 74.956,7.316 75.204,7.068 C75.452,6.82 75.736,6.6 76.056,6.408 C76.376,6.216 76.812,6.044 77.364,5.892 C77.916,5.74 78.52,5.664 79.176,5.664 C80.872,5.664 82.16,6.084 83.04,6.924 C83.92,7.764 84.36,8.992 84.36,10.608 L84.36,18 L81.864,18 L81.6,16.344 C80.72,17.64 79.496,18.288 77.928,18.288 Z M78.648,15.984 C79.496,15.984 80.172,15.744 80.676,15.264 C81.18,14.784 81.432,14.256 81.432,13.68 L81.432,13.104 C80.76,12.912 79.952,12.816 79.008,12.816 C77.52,12.816 76.776,13.344 76.776,14.4 C76.776,15.456 77.4,15.984 78.648,15.984 Z" id="path-26"></path>
        <polygon id="path-27" points="95.544 15.456 93.552 15.456 90.312 10.032 90.312 18 87.6 18 87.6 5.952 91.008 5.952 94.68 12.144 98.256 5.952 101.664 5.952 101.664 18 98.808 18 98.808 9.984"></polygon>
        <polygon id="path-28" points="107.928 18 105.024 18 105.024 5.952 107.928 5.952 107.928 10.608 113.064 10.608 113.064 5.952 115.992 5.952 115.992 18 113.064 18 113.064 13.056 107.928 13.056"></polygon>
        <path d="M124.392,18 L119.352,18 L119.352,5.952 L122.256,5.952 L122.256,9.84 L124.44,9.84 C126.088,9.84 127.34,10.204 128.196,10.932 C129.052,11.66 129.48,12.624 129.48,13.824 C129.48,15.008 129.072,15.992 128.256,16.776 C127.408,17.592 126.12,18 124.392,18 Z M133.896,18 L130.992,18 L130.992,5.952 L133.896,5.952 L133.896,18 Z M122.256,12.096 L122.256,15.744 L124.176,15.744 C125.696,15.744 126.456,15.112 126.456,13.848 C126.456,12.68 125.696,12.096 124.176,12.096 L122.256,12.096 Z" id="path-29"></path>
        <path d="M144.48,3.936 C144.032,4.064 143.528,4.128 142.968,4.128 C142.408,4.128 141.9,4.06 141.444,3.924 C140.988,3.788 140.632,3.632 140.376,3.456 C140.12,3.28 139.896,3.08 139.704,2.856 C139.512,2.632 139.388,2.456 139.332,2.328 C139.276,2.2 139.232,2.088 139.2,1.992 L139.2,0.552 L141.336,0.552 C141.336,0.68 141.368,0.844 141.432,1.044 C141.496,1.244 141.664,1.464 141.936,1.704 C142.208,1.944 142.552,2.064 142.968,2.064 C143.352,2.064 143.68,1.944 143.952,1.704 C144.224,1.464 144.4,1.24 144.48,1.032 C144.56,0.824 144.6,0.664 144.6,0.552 L146.736,0.552 L146.736,1.992 C146.704,2.088 146.66,2.2 146.604,2.328 C146.548,2.456 146.424,2.632 146.232,2.856 C146.04,3.08 145.816,3.28 145.56,3.456 C145.304,3.632 144.944,3.792 144.48,3.936 Z M139.968,18 L137.256,18 L137.256,5.952 L140.16,5.952 L140.16,13.848 L145.728,5.952 L148.464,5.952 L148.464,18 L145.536,18 L145.536,10.08 L139.968,18 Z" id="path-30"></path>
        <polygon id="path-31" points="163.128 18 160.224 18 160.224 8.376 156.528 8.376 156.528 5.952 166.824 5.952 166.824 8.376 163.128 8.376"></polygon>
        <polygon id="path-32" points="179.88 7.536 171.264 24 168.984 24 168.984 22.32 172.344 16.416 167.856 7.632 167.856 5.952 170.208 5.952 173.952 13.464 177.696 5.952 179.88 5.952"></polygon>
        <path d="M184.824,24 L181.92,24 L181.92,5.952 L184.584,5.952 L184.8,7.776 C185.76,6.368 187.136,5.664 188.928,5.664 C190.624,5.664 191.968,6.264 192.96,7.464 C193.952,8.664 194.448,10.16 194.448,11.952 C194.448,13.744 193.944,15.248 192.936,16.464 C191.928,17.68 190.592,18.288 188.928,18.288 C187.152,18.288 185.784,17.6 184.824,16.224 L184.824,24 Z M188.184,15.744 C189.288,15.744 190.12,15.368 190.68,14.616 C191.24,13.864 191.52,12.976 191.52,11.952 C191.52,10.944 191.24,10.064 190.68,9.312 C190.136,8.576 189.304,8.208 188.184,8.208 C187.144,8.208 186.328,8.568 185.736,9.288 C185.128,10.04 184.824,10.928 184.824,11.952 C184.824,12.976 185.128,13.864 185.736,14.616 C186.344,15.368 187.16,15.744 188.184,15.744 Z" id="path-33"></path>
    </defs>
    <g id="PanoTour" stroke="none" stroke-width="1" fill="none" fill-rule="evenodd">
        <g id="start-pano" transform="translate(-1833, -858)">
            <g id="cover-logo" transform="translate(1833.288, 858)">
                <g id="icon/logo-ink" transform="translate(104.712, 0)">
                    <mask id="mask-2" fill="white">
                        <use xlink:href="#path-1"></use>
                    </mask>
                    <g id="Clip" fill-rule="nonzero"></g>
                    <path d="M114.536555,182.510612 L114.536555,206.279498 C114.536555,206.721303 114.892349,207.074732 115.337089,206.986368 C120.940837,206.544569 126.36668,205.572607 131.525681,203.893762 C131.792524,203.805405 132.059366,203.540333 132.059366,203.186892 L132.059366,144.869199 C132.059366,144.515758 131.792524,144.162315 131.436736,144.162315 C126.188783,143.543794 120.762933,143.190351 115.337089,143.01363 C114.892349,143.01363 114.536555,143.367074 114.536555,143.720514 L114.536555,164.750232 L105.108033,164.750232 L105.108033,143.720514 C105.108033,143.278714 104.752238,142.92527 104.307498,143.01363 C98.7927029,143.190351 93.4558048,143.543789 88.2078519,144.073949 C87.8520574,144.073949 87.5852082,144.427393 87.5852082,144.780833 L87.5852082,203.275249 C87.5852082,203.628684 87.7631088,203.893769 88.1189033,203.982132 C93.2779075,205.48425 98.703751,206.544576 104.307498,206.898017 C104.752238,206.898017 105.108033,206.544576 105.108033,206.191134 L105.108033,182.333894 L114.536555,182.333894 L114.536555,182.510612 Z M82.6026468,144.95507 C75.9315224,145.927031 69.4382953,147.164081 63.3898081,148.842923 C63.2119124,148.931284 63.0340152,149.019644 62.9450666,149.284724 L55.3844575,164.836099 L54.1391816,164.836099 L54.1391816,152.642398 C54.1391816,152.112237 53.6054914,151.758808 53.1607499,151.935529 C48.7133323,153.526011 44.5327606,155.204847 40.6190339,157.14877 C40.1325526,157.363555 39.6789193,157.61097 39.2381725,157.851356 C38.9536433,158.006542 38.6744843,158.158799 38.3953254,158.297456 C38.0395321,158.474175 37.8616361,158.915969 38.1284811,159.269409 C43.9101229,170.137705 50.9370415,179.592246 59.1202885,187.191215 C59.4760831,187.544657 60.0987202,187.4563 60.2766158,187.014497 L64.8129796,177.913404 L65.9693118,177.913404 L65.9693118,192.581189 C65.9693118,192.846271 66.0582604,193.022988 66.2361544,193.199709 C71.2172614,196.910835 76.6431115,199.915074 82.4247528,202.212439 C82.869496,202.389167 83.4031845,202.035725 83.4031845,201.505555 L83.4031845,145.661953 C83.4921331,145.220153 83.04739,144.866709 82.6026468,144.95507 Z M163.011147,150.521762 C166.746983,151.847165 172.795464,155.204856 174.574424,156.353539 C174.930218,156.618619 175.108109,156.972052 174.930205,157.325492 L169.504375,168.635597 C170.927553,169.430838 172.350718,170.491155 173.507053,171.463117 C173.773896,171.728202 173.862834,172.170007 173.595992,172.435085 C170.304902,177.029815 166.302237,181.536176 162.477462,185.335662 C160.520599,183.480099 157.140571,182.243059 153.938433,182.50814 L153.938433,192.05104 C153.938433,192.316121 153.849481,192.492839 153.67159,192.66956 C148.690493,196.380685 143.26465,199.473301 137.483012,201.859023 C136.94932,202.035751 136.415628,201.682309 136.415628,201.15214 L136.415628,145.661954 C136.415628,145.220153 136.860368,144.866709 137.305108,144.95507 C142.819903,145.750311 148.24574,146.810633 153.404735,148.047675 C153.67159,148.136035 153.938433,148.401119 153.938433,148.754559 L154.027372,164.836108 L155.272659,164.836108 C158.949189,157.354945 161.232192,152.701308 162.121668,150.875197 C162.299572,150.521757 162.655366,150.433403 163.011147,150.521762 Z" id="Vector" fill="#FFFFFF" mask="url(#mask-2)"></path>
                    <path d="M138.212059,20.4063526 C138.74375,20.672239 138.832354,21.3812687 138.389281,21.7357838 C116.449483,36.8430653 114.759382,77.4275246 112.658493,127.876357 L112.658159,127.88458 L112.655759,127.942103 C112.551334,130.449383 112.445893,132.981019 112.336872,135.535081 L110.387366,135.535081 L110.503349,127.144517 C111.381149,63.3611257 111.741414,37.1835824 118.539829,15 C125.36308,15.8862874 132.009103,17.7474906 138.212059,20.4063526 Z M168.341404,44.4267115 C148.048886,45.312999 134.402397,57.9869106 125.895491,83.6892403 C121.464807,97.160807 117.477202,118.874848 116.413835,135.7143 C115.793541,135.625681 115.084629,135.625668 114.464335,135.625668 C115.439085,114.620666 117.12274,96.7176649 119.338085,82.359814 C124.21183,51.6056402 132.807346,34.7661818 152.302329,28.0303985 C158.328051,32.2845776 163.910726,37.3364151 168.873081,43.185911 C169.227537,43.6290564 168.961698,44.4267115 168.341404,44.4267115 Z M130.140955,103.893987 C145.825574,73.4056972 173.384403,69.3287762 188.62595,84.3956695 C189.15764,84.9274374 190.043786,84.3956695 189.866551,83.6866369 C187.385374,73.9374782 183.663595,64.8087131 178.789844,56.5662388 C143.787457,46.9057058 122.520182,86.9659028 118.443954,135.888968 C118.754101,135.888968 119.086402,135.911119 119.418704,135.933271 C119.751005,135.955436 120.083307,135.9776 120.39346,135.9776 C122.342961,122.506027 124.292461,115.149843 130.140955,103.893987 Z M136.705127,102.21114 C153.630329,80.6743501 178.264907,84.6626354 191.468336,100.349932 C191.734175,103.806456 191.911396,107.351606 192,110.985382 C192,119.848256 190.936646,128.356621 189.075763,136.421837 C188.898528,137.13087 187.746557,137.219502 187.65794,136.51047 C185.885674,119.493747 165.859007,104.869999 145.832328,110.985382 C137.148194,113.555615 127.932383,121.354954 124.387838,136.155967 C124.033579,136.155967 123.701448,136.133828 123.36933,136.11169 L123.368779,136.11165 L123.368228,136.111611 C123.036111,136.089473 122.70398,136.067334 122.34972,136.067334 C124.653676,121.266322 130.590788,109.921839 136.705127,102.21114 Z M100.375435,15.0906521 C93.552191,15.9769392 86.9061614,17.7495136 80.7032115,20.4970034 C80.1715278,20.7628898 80.0829171,21.4719196 80.5259868,21.8264342 C102.532133,36.8947473 104.165907,77.6754211 106.198615,128.41358 L106.198812,128.418538 C106.294202,130.799532 106.390477,133.202482 106.489768,135.625707 L108.439268,135.625707 C108.388154,131.958966 108.339721,128.408951 108.29281,124.970165 C107.445032,62.828243 107.092799,37.0097948 100.375435,15.0906521 Z M66.6102142,28.1176931 C86.1052102,34.8534814 94.7893441,51.692948 99.5744775,82.4471348 C101.878427,96.8050054 103.473471,114.708019 104.536832,135.624408 C104.226882,135.624408 103.894803,135.646547 103.562712,135.668685 L103.562082,135.668725 L103.561472,135.668764 C103.229381,135.690902 102.897296,135.713041 102.587339,135.713041 C101.435361,118.873576 97.53636,97.0708894 93.1056824,83.6879419 C84.5987698,57.9855958 70.8636639,45.3116776 50.5711523,44.5140192 C49.9508579,44.4253902 49.6850161,43.7163576 50.0394702,43.2732155 C55.0018332,37.4237147 60.5844888,32.3718755 66.6102142,28.1176931 Z M40.2045352,56.5663306 C35.3307862,64.7201726 31.6090156,73.8489376 29.1278348,83.6867287 C28.9506075,84.3957613 29.8367435,84.9275292 30.3684251,84.3957482 C45.6985787,69.4174971 73.1688001,73.4944213 88.8534128,103.894079 C94.6132964,115.061296 96.6514073,122.417486 98.6009075,135.889046 C98.910858,135.889046 99.2429366,135.866908 99.5750282,135.84477 L99.5756577,135.84473 L99.5762674,135.844691 C99.9083591,135.822553 100.240444,135.800414 100.550401,135.800414 C96.4741794,86.965988 75.2069094,46.9057976 40.2045352,56.5663306 Z M27.5316818,100.349932 C40.6464991,84.6626354 65.3697009,80.6743501 82.2949056,102.21114 C88.4092449,109.921839 94.3463563,121.266322 96.6503124,136.067334 C95.9414008,136.067334 95.321113,136.067334 94.6122014,136.155967 C90.9790395,121.354954 81.9404465,113.112473 73.1676986,110.985382 C51.7232008,105.667657 33.7346357,119.759637 31.3420678,136.51047 C31.2534542,137.219502 30.101477,137.13087 29.9242498,136.421837 C27.9747499,128.267989 27,119.759631 27,110.985382 C27,107.351606 27.1772273,103.806456 27.5316818,100.349932 Z" id="Vector" fill="#FFFFFF" mask="url(#mask-2)"></path>
                </g>
                <g id="Ключевые-объекты-ИНК" transform="translate(0, 263.244)" fill="#FFFFFF" fill-rule="nonzero">
                    <g id="Path">
                        <use xlink:href="#path-3"></use>
                        <use xlink:href="#path-3"></use>
                    </g>
                    <g id="Path">
                        <use xlink:href="#path-4"></use>
                        <use xlink:href="#path-4"></use>
                    </g>
                    <g id="Shape">
                        <use xlink:href="#path-5"></use>
                        <use xlink:href="#path-5"></use>
                    </g>
                    <g id="Path">
                        <use xlink:href="#path-6"></use>
                        <use xlink:href="#path-6"></use>
                    </g>
                    <g id="Shape">
                        <use xlink:href="#path-7"></use>
                        <use xlink:href="#path-7"></use>
                    </g>
                    <g id="Shape">
                        <use xlink:href="#path-8"></use>
                        <use xlink:href="#path-8"></use>
                    </g>
                    <g id="Shape">
                        <use xlink:href="#path-9"></use>
                        <use xlink:href="#path-9"></use>
                    </g>
                    <g id="Shape">
                        <use xlink:href="#path-10"></use>
                        <use xlink:href="#path-10"></use>
                    </g>
                    <g id="Shape">
                        <use xlink:href="#path-11"></use>
                        <use xlink:href="#path-11"></use>
                    </g>
                    <g id="Shape">
                        <use xlink:href="#path-12"></use>
                        <use xlink:href="#path-12"></use>
                    </g>
                    <g id="Shape">
                        <use xlink:href="#path-13"></use>
                        <use xlink:href="#path-13"></use>
                    </g>
                    <g id="Shape">
                        <use xlink:href="#path-14"></use>
                        <use xlink:href="#path-14"></use>
                    </g>
                    <g id="Path">
                        <use xlink:href="#path-15"></use>
                        <use xlink:href="#path-15"></use>
                    </g>
                    <g id="Path">
                        <use xlink:href="#path-16"></use>
                        <use xlink:href="#path-16"></use>
                    </g>
                    <g id="Shape">
                        <use xlink:href="#path-17"></use>
                        <use xlink:href="#path-17"></use>
                    </g>
                    <g id="Path">
                        <use xlink:href="#path-18"></use>
                        <use xlink:href="#path-18"></use>
                    </g>
                    <g id="Path">
                        <use xlink:href="#path-19"></use>
                        <use xlink:href="#path-19"></use>
                    </g>
                    <g id="Path">
                        <use xlink:href="#path-20"></use>
                        <use xlink:href="#path-20"></use>
                    </g>
                </g>
                <g id="Панорамный-тур" transform="translate(119.064, 308)" fill-rule="nonzero">
                    <g id="Path">
                        <use fill="#1F2128" xlink:href="#path-21"></use>
                        <use fill="#7DBCCA" xlink:href="#path-21"></use>
                    </g>
                    <g id="Shape">
                        <use fill="#1F2128" xlink:href="#path-22"></use>
                        <use fill="#7DBCCA" xlink:href="#path-22"></use>
                    </g>
                    <g id="Path">
                        <use fill="#1F2128" xlink:href="#path-23"></use>
                        <use fill="#7DBCCA" xlink:href="#path-23"></use>
                    </g>
                    <g id="Shape">
                        <use fill="#1F2128" xlink:href="#path-24"></use>
                        <use fill="#7DBCCA" xlink:href="#path-24"></use>
                    </g>
                    <g id="Shape">
                        <use fill="#1F2128" xlink:href="#path-25"></use>
                        <use fill="#7DBCCA" xlink:href="#path-25"></use>
                    </g>
                    <g id="Shape">
                        <use fill="#1F2128" xlink:href="#path-26"></use>
                        <use fill="#7DBCCA" xlink:href="#path-26"></use>
                    </g>
                    <g id="Path">
                        <use fill="#1F2128" xlink:href="#path-27"></use>
                        <use fill="#7DBCCA" xlink:href="#path-27"></use>
                    </g>
                    <g id="Path">
                        <use fill="#1F2128" xlink:href="#path-28"></use>
                        <use fill="#7DBCCA" xlink:href="#path-28"></use>
                    </g>
                    <g id="Shape">
                        <use fill="#1F2128" xlink:href="#path-29"></use>
                        <use fill="#7DBCCA" xlink:href="#path-29"></use>
                    </g>
                    <g id="Shape">
                        <use fill="#1F2128" xlink:href="#path-30"></use>
                        <use fill="#7DBCCA" xlink:href="#path-30"></use>
                    </g>
                    <g id="Path">
                        <use fill="#1F2128" xlink:href="#path-31"></use>
                        <use fill="#7DBCCA" xlink:href="#path-31"></use>
                    </g>
                    <g id="Path">
                        <use fill="#1F2128" xlink:href="#path-32"></use>
                        <use fill="#7DBCCA" xlink:href="#path-32"></use>
                    </g>
                    <g id="Shape">
                        <use fill="#1F2128" xlink:href="#path-33"></use>
                        <use fill="#7DBCCA" xlink:href="#path-33"></use>
                    </g>
                </g>
            </g>
        </g>
    </g>
</svg>