<?xml version="1.0" encoding="UTF-8"?>
<svg width="220px" height="44px" viewBox="0 0 220 44" version="1.1" xmlns="http://www.w3.org/2000/svg" xmlns:xlink="http://www.w3.org/1999/xlink">
    <title>start-button-hover</title>
    <defs>
        <rect id="path-1" x="0" y="0" width="20" height="20"></rect>
        <polygon id="path-3" points="1.76 12 2.84217094e-14 12 2.84217094e-14 0 1.76 0 1.76 5.12 7.52 5.12 7.52 0 9.28 0 9.28 12 7.52 12 7.52 6.56 1.76 6.56"></polygon>
        <path d="M14.112,12.16 C13.248,12.16 12.5813333,11.9253333 12.112,11.456 C11.6426667,10.9866667 11.408,10.3946667 11.408,9.68 C11.408,8.96533333 11.6746667,8.38933333 12.208,7.952 C12.7413333,7.51466667 13.552,7.296 14.64,7.296 C14.9386667,7.296 15.24,7.31466667 15.544,7.352 C15.848,7.38933333 16.08,7.424 16.24,7.456 L16.464,7.52 L16.464,7.024 C16.464,5.808 15.888,5.2 14.736,5.2 C14.3413333,5.2 13.9946667,5.28266667 13.696,5.448 C13.3973333,5.61333333 13.1946667,5.776 13.088,5.936 L12.928,6.176 L11.888,6.176 L11.888,5.136 L11.936,5.072 C11.968,5.02933333 12.0213333,4.968 12.096,4.888 C12.1706667,4.808 12.2586667,4.72266667 12.36,4.632 C12.4613333,4.54133333 12.592,4.448 12.752,4.352 C12.912,4.256 13.088,4.17066667 13.28,4.096 C13.472,4.02133333 13.6986667,3.96 13.96,3.912 C14.2213333,3.864 14.496,3.84 14.784,3.84 C15.8506667,3.84 16.664,4.112 17.224,4.656 C17.784,5.2 18.064,6 18.064,7.056 L18.064,12 L16.784,12 L16.592,10.848 C16.368,11.1466667 16.0693333,11.4346667 15.696,11.712 C15.3013333,12.0106667 14.7733333,12.16 14.112,12.16 Z M14.368,10.864 C14.9866667,10.864 15.4906667,10.6826667 15.88,10.32 C16.2693333,9.95733333 16.464,9.568 16.464,9.152 L16.464,8.736 C15.9626667,8.58666667 15.3546667,8.512 14.64,8.512 C14.0533333,8.512 13.6293333,8.62133333 13.368,8.84 C13.1066667,9.05866667 12.976,9.33866667 12.976,9.68 C12.976,10.4693333 13.44,10.864 14.368,10.864 Z" id="path-4"></path>
        <path d="M26.464,12 L24.864,12 L24.864,9.232 L23.12,9.232 C20.9226667,9.232 19.824,8.224 19.824,6.208 L19.824,4 L21.424,4 L21.424,6.208 C21.424,6.80533333 21.576,7.24 21.88,7.512 C22.184,7.784 22.64,7.92 23.248,7.92 L24.864,7.92 L24.864,4 L26.464,4 L26.464,12 Z" id="path-5"></path>
        <path d="M30.96,12.16 C30.096,12.16 29.4293333,11.9253333 28.96,11.456 C28.4906667,10.9866667 28.256,10.3946667 28.256,9.68 C28.256,8.96533333 28.5226667,8.38933333 29.056,7.952 C29.5893333,7.51466667 30.4,7.296 31.488,7.296 C31.7866667,7.296 32.088,7.31466667 32.392,7.352 C32.696,7.38933333 32.928,7.424 33.088,7.456 L33.312,7.52 L33.312,7.024 C33.312,5.808 32.736,5.2 31.584,5.2 C31.1893333,5.2 30.8426667,5.28266667 30.544,5.448 C30.2453333,5.61333333 30.0426667,5.776 29.936,5.936 L29.776,6.176 L28.736,6.176 L28.736,5.136 L28.784,5.072 C28.816,5.02933333 28.8693333,4.968 28.944,4.888 C29.0186667,4.808 29.1066667,4.72266667 29.208,4.632 C29.3093333,4.54133333 29.44,4.448 29.6,4.352 C29.76,4.256 29.936,4.17066667 30.128,4.096 C30.32,4.02133333 30.5466667,3.96 30.808,3.912 C31.0693333,3.864 31.344,3.84 31.632,3.84 C32.6986667,3.84 33.512,4.112 34.072,4.656 C34.632,5.2 34.912,6 34.912,7.056 L34.912,12 L33.632,12 L33.44,10.848 C33.216,11.1466667 32.9173333,11.4346667 32.544,11.712 C32.1493333,12.0106667 31.6213333,12.16 30.96,12.16 Z M31.216,10.864 C31.8346667,10.864 32.3386667,10.6826667 32.728,10.32 C33.1173333,9.95733333 33.312,9.568 33.312,9.152 L33.312,8.736 C32.8106667,8.58666667 32.2026667,8.512 31.488,8.512 C30.9013333,8.512 30.4773333,8.62133333 30.216,8.84 C29.9546667,9.05866667 29.824,9.33866667 29.824,9.68 C29.824,10.4693333 30.288,10.864 31.216,10.864 Z" id="path-6"></path>
        <polygon id="path-7" points="40.48 12 38.88 12 38.88 5.36 36.32 5.36 36.32 4 43.04 4 43.04 5.36 40.48 5.36"></polygon>
        <path d="M47.712,12 L44.528,12 L44.528,4 L46.128,4 L46.128,6.72 L47.728,6.72 C48.7946667,6.72 49.608,6.95733333 50.168,7.432 C50.728,7.90666667 51.008,8.528 51.008,9.296 C51.008,10.096 50.728,10.7466667 50.168,11.248 C49.608,11.7493333 48.7893333,12 47.712,12 Z M46.128,8 L46.128,10.72 L47.6,10.72 C48.752,10.72 49.328,10.2506667 49.328,9.312 C49.328,8.43733333 48.752,8 47.6,8 L46.128,8 Z" id="path-8"></path>
        <polygon id="path-9" points="58.32 12 56.72 12 56.72 4 63.6 4 63.6 12 62 12 62 5.36 58.32 5.36"></polygon>
        <path d="M67.568,16 L65.968,16 L65.968,4 L67.408,4 L67.552,5.264 C68.192,4.31466667 69.1253333,3.84 70.352,3.84 C71.4933333,3.84 72.4026667,4.23733333 73.08,5.032 C73.7573333,5.82666667 74.096,6.81066667 74.096,7.984 C74.096,9.168 73.7573333,10.16 73.08,10.96 C72.4026667,11.76 71.4933333,12.16 70.352,12.16 C69.1466667,12.16 68.2186667,11.6906667 67.568,10.752 L67.568,16 Z M70.032,10.8 C70.832,10.8 71.4426667,10.536 71.864,10.008 C72.2853333,9.48 72.496,8.80533333 72.496,7.984 C72.496,7.17333333 72.2853333,6.50666667 71.864,5.984 C71.4426667,5.46133333 70.832,5.2 70.032,5.2 C69.2853333,5.2 68.688,5.46666667 68.24,6 C67.792,6.53333333 67.568,7.19466667 67.568,7.984 C67.568,8.784 67.792,9.45333333 68.24,9.992 C68.688,10.5306667 69.2853333,10.8 70.032,10.8 Z" id="path-10"></path>
        <path d="M79.552,12.16 C78.3146667,12.16 77.328,11.76 76.592,10.96 C75.856,10.16 75.488,9.168 75.488,7.984 C75.488,6.81066667 75.856,5.82666667 76.592,5.032 C77.328,4.23733333 78.3146667,3.84 79.552,3.84 C80.7786667,3.84 81.7626667,4.23733333 82.504,5.032 C83.2453333,5.82666667 83.616,6.81066667 83.616,7.984 C83.616,9.168 83.2453333,10.16 82.504,10.96 C81.7626667,11.76 80.7786667,12.16 79.552,12.16 Z M77.712,10.016 C78.1386667,10.5386667 78.752,10.8 79.552,10.8 C80.352,10.8 80.9626667,10.536 81.384,10.008 C81.8053333,9.48 82.016,8.80533333 82.016,7.984 C82.016,7.184 81.8026667,6.52 81.376,5.992 C80.9493333,5.464 80.3413333,5.2 79.552,5.2 C78.7626667,5.2 78.1546667,5.464 77.728,5.992 C77.3013333,6.52 77.088,7.184 77.088,7.984 C77.088,8.80533333 77.296,9.48266667 77.712,10.016 Z" id="path-11"></path>
        <path d="M89.056,12.16 C87.7546667,12.16 86.752,11.7653333 86.048,10.976 C85.344,10.1866667 84.992,9.18933333 84.992,7.984 C84.992,6.81066667 85.36,5.824 86.096,5.024 C86.832,4.224 87.8186667,3.824 89.056,3.824 C89.3226667,3.824 89.576,3.84 89.816,3.872 C90.056,3.904 90.2666667,3.94933333 90.448,4.008 C90.6293333,4.06666667 90.8,4.13333333 90.96,4.208 C91.12,4.28266667 91.2533333,4.36 91.36,4.44 C91.4666667,4.52 91.5653333,4.6 91.656,4.68 C91.7466667,4.76 91.8186667,4.83733333 91.872,4.912 C91.9253333,4.98666667 91.9706667,5.05333333 92.008,5.112 C92.0453333,5.17066667 92.0693333,5.216 92.08,5.248 L92.112,5.296 L92.112,6.336 L91.072,6.336 L91.056,6.304 C91.0453333,6.272 91.0293333,6.23466667 91.008,6.192 C90.9866667,6.14933333 90.9573333,6.09866667 90.92,6.04 C90.8826667,5.98133333 90.8373333,5.92 90.784,5.856 C90.7306667,5.792 90.6666667,5.728 90.592,5.664 C90.5173333,5.6 90.4293333,5.54133333 90.328,5.488 C90.2266667,5.43466667 90.1146667,5.384 89.992,5.336 C89.8693333,5.288 89.728,5.25066667 89.568,5.224 C89.408,5.19733333 89.2373333,5.184 89.056,5.184 C88.256,5.184 87.6453333,5.448 87.224,5.976 C86.8026667,6.504 86.592,7.17333333 86.592,7.984 C86.592,8.80533333 86.8026667,9.48 87.224,10.008 C87.6453333,10.536 88.256,10.8 89.056,10.8 C89.3866667,10.8 89.6826667,10.76 89.944,10.68 C90.2053333,10.6 90.4053333,10.5066667 90.544,10.4 C90.6826667,10.2933333 90.7946667,10.1786667 90.88,10.056 C90.9653333,9.93333333 91.0213333,9.84 91.048,9.776 C91.0746667,9.712 91.088,9.66933333 91.088,9.648 L92.128,9.648 L92.128,10.688 C92.1386667,10.688 92.1146667,10.7386667 92.056,10.84 C91.9973333,10.9413333 91.8986667,11.064 91.76,11.208 C91.6213333,11.352 91.4426667,11.496 91.224,11.64 C91.0053333,11.784 90.704,11.9066667 90.32,12.008 C89.936,12.1093333 89.5146667,12.16 89.056,12.16 Z" id="path-12"></path>
        <polygon id="path-13" points="98.992 10.08 97.952 10.08 95.568 6.432 95.568 12 94.048 12 94.048 4 95.808 4 98.544 8.24 101.232 4 102.992 4 102.992 12 101.392 12 101.392 6.4"></polygon>
        <path d="M108.928,12.16 C107.690667,12.16 106.704,11.76 105.968,10.96 C105.232,10.16 104.864,9.168 104.864,7.984 C104.864,6.81066667 105.232,5.82666667 105.968,5.032 C106.704,4.23733333 107.690667,3.84 108.928,3.84 C110.154667,3.84 111.138667,4.23733333 111.88,5.032 C112.621333,5.82666667 112.992,6.81066667 112.992,7.984 C112.992,9.168 112.621333,10.16 111.88,10.96 C111.138667,11.76 110.154667,12.16 108.928,12.16 Z M107.088,10.016 C107.514667,10.5386667 108.128,10.8 108.928,10.8 C109.728,10.8 110.338667,10.536 110.76,10.008 C111.181333,9.48 111.392,8.80533333 111.392,7.984 C111.392,7.184 111.178667,6.52 110.752,5.992 C110.325333,5.464 109.717333,5.2 108.928,5.2 C108.138667,5.2 107.530667,5.464 107.104,5.992 C106.677333,6.52 106.464,7.184 106.464,7.984 C106.464,8.80533333 106.672,9.48266667 107.088,10.016 Z" id="path-14"></path>
        <polygon id="path-15" points="118.144 12 116.544 12 116.544 5.36 113.984 5.36 113.984 4 120.704 4 120.704 5.36 118.144 5.36"></polygon>
        <path d="M123.792,16 L122.192,16 L122.192,4 L123.632,4 L123.776,5.264 C124.416,4.31466667 125.349333,3.84 126.576,3.84 C127.717333,3.84 128.626667,4.23733333 129.304,5.032 C129.981333,5.82666667 130.32,6.81066667 130.32,7.984 C130.32,9.168 129.981333,10.16 129.304,10.96 C128.626667,11.76 127.717333,12.16 126.576,12.16 C125.370667,12.16 124.442667,11.6906667 123.792,10.752 L123.792,16 Z M126.256,10.8 C127.056,10.8 127.666667,10.536 128.088,10.008 C128.509333,9.48 128.72,8.80533333 128.72,7.984 C128.72,7.17333333 128.509333,6.50666667 128.088,5.984 C127.666667,5.46133333 127.056,5.2 126.256,5.2 C125.509333,5.2 124.912,5.46666667 124.464,6 C124.016,6.53333333 123.792,7.19466667 123.792,7.984 C123.792,8.784 124.016,9.45333333 124.464,9.992 C124.912,10.5306667 125.509333,10.8 126.256,10.8 Z" id="path-16"></path>
        <rect id="path-17" x="0" y="0" width="20" height="20"></rect>
    </defs>
    <g id="PanoTour" stroke="none" stroke-width="1" fill="none" fill-rule="evenodd">
        <g id="start-button-hover" transform="translate(0.5, 0)">
            <rect id="Frame-Background" stroke="#FFFFFF" fill="#FFFFFF" fill-rule="nonzero" x="0.5" y="0.5" width="218" height="43" rx="21.5"></rect>
            <g id="icon/plus" transform="translate(12, 12)">
                <mask id="mask-2" fill="white">
                    <use xlink:href="#path-1"></use>
                </mask>
                <g id="Clip" fill-rule="nonzero"></g>
                <polygon id="Vector" fill-opacity="0" fill="#FFFFFF" fill-rule="nonzero" mask="url(#mask-2)" points="10.625 9.375 10.625 5 9.375 5 9.375 9.375 5 9.375 5 10.625 9.375 10.625 9.375 15 10.625 15 10.625 10.625 15 10.625 15 9.375"></polygon>
            </g>
            <g id="Text" transform="translate(45.52, 17)" fill="#2B5E4A" fill-rule="nonzero">
                <g id="Path">
                    <use xlink:href="#path-3"></use>
                    <use xlink:href="#path-3"></use>
                </g>
                <g id="Shape">
                    <use xlink:href="#path-4"></use>
                    <use xlink:href="#path-4"></use>
                </g>
                <g id="Path">
                    <use xlink:href="#path-5"></use>
                    <use xlink:href="#path-5"></use>
                </g>
                <g id="Shape">
                    <use xlink:href="#path-6"></use>
                    <use xlink:href="#path-6"></use>
                </g>
                <g id="Path">
                    <use xlink:href="#path-7"></use>
                    <use xlink:href="#path-7"></use>
                </g>
                <g id="Shape">
                    <use xlink:href="#path-8"></use>
                    <use xlink:href="#path-8"></use>
                </g>
                <g id="Path">
                    <use xlink:href="#path-9"></use>
                    <use xlink:href="#path-9"></use>
                </g>
                <g id="Shape">
                    <use xlink:href="#path-10"></use>
                    <use xlink:href="#path-10"></use>
                </g>
                <g id="Shape">
                    <use xlink:href="#path-11"></use>
                    <use xlink:href="#path-11"></use>
                </g>
                <g id="Path">
                    <use xlink:href="#path-12"></use>
                    <use xlink:href="#path-12"></use>
                </g>
                <g id="Path">
                    <use xlink:href="#path-13"></use>
                    <use xlink:href="#path-13"></use>
                </g>
                <g id="Shape">
                    <use xlink:href="#path-14"></use>
                    <use xlink:href="#path-14"></use>
                </g>
                <g id="Path">
                    <use xlink:href="#path-15"></use>
                    <use xlink:href="#path-15"></use>
                </g>
                <g id="Shape">
                    <use xlink:href="#path-16"></use>
                    <use xlink:href="#path-16"></use>
                </g>
            </g>
            <g id="icon/plus" transform="translate(187, 12)">
                <mask id="mask-18" fill="white">
                    <use xlink:href="#path-17"></use>
                </mask>
                <g id="Clip" fill-rule="nonzero"></g>
                <polygon id="Vector" fill-opacity="0" fill="#FFFFFF" fill-rule="nonzero" mask="url(#mask-18)" points="10.625 9.375 10.625 5 9.375 5 9.375 9.375 5 9.375 5 10.625 9.375 10.625 9.375 15 10.625 15 10.625 10.625 15 10.625 15 9.375"></polygon>
            </g>
        </g>
    </g>
</svg>