<?xml version="1.0" encoding="UTF-8" standalone="no"?>
<svg width="72px" height="56px" viewBox="0 0 72 56" version="1.1" xmlns="http://www.w3.org/2000/svg" xmlns:xlink="http://www.w3.org/1999/xlink">
    <!-- Generator: Sketch 3.8.3 (29802) - http://www.bohemiancoding.com/sketch -->
    <title>zoom_in_hover</title>
    <desc>Created with Sketch.</desc>
    <defs></defs>
    <g id="new" stroke="none" stroke-width="1" fill="none" fill-rule="evenodd">
        <g id="zoom_in_hover-copy" transform="translate(16.000000, 8.000000)">
            <g id="row-copy-3" fill-opacity="0.26" fill="#000000">
                <path d="M20,40 C31.045695,40 40,31.045695 40,20 C40,8.954305 31.045695,0 20,0 C8.954305,0 0,8.954305 0,20 C0,31.045695 8.954305,40 20,40 Z" id="Oval"></path>
            </g>
            <g id="add-circle-outline" transform="translate(8.000000, 8.000000)" fill="#FFFFFF">
                <path d="M13.2,6 L10.8,6 L10.8,10.8 L6,10.8 L6,13.2 L10.8,13.2 L10.8,18 L13.2,18 L13.2,13.2 L18,13.2 L18,10.8 L13.2,10.8 L13.2,6 L13.2,6 Z M12,0 C5.4,0 0,5.4 0,12 C0,18.6 5.4,24 12,24 C18.6,24 24,18.6 24,12 C24,5.4 18.6,0 12,0 L12,0 Z M12,21.6 C6.72,21.6 2.4,17.28 2.4,12 C2.4,6.72 6.72,2.4 12,2.4 C17.28,2.4 21.6,6.72 21.6,12 C21.6,17.28 17.28,21.6 12,21.6 L12,21.6 Z" id="Shape"></path>
            </g>
        </g>
    </g>
</svg>